<svg xmlns="http://www.w3.org/2000/svg" width="624" height="384" viewBox="0 0 624 384"><rect x="0.0" y="0.0" width="624.0" height="384.0" fill="#ffffff" fill-opacity="1.0" stroke="none"/><line x1="154.76227093437" y1="32.266666666666666" x2="154.76227093437" y2="340.0" stroke="#dddddd" stroke-width="0.6666666666666666"/><line x1="297.94834470504384" y1="32.266666666666666" x2="297.94834470504384" y2="340.0" stroke="#dddddd" stroke-width="0.6666666666666666"/><line x1="441.1344184757178" y1="32.266666666666666" x2="441.1344184757178" y2="340.0" stroke="#dddddd" stroke-width="0.6666666666666666"/><line x1="584.3204922463917" y1="32.266666666666666" x2="584.3204922463917" y2="340.0" stroke="#dddddd" stroke-width="0.6666666666666666"/><line x1="83.16923404903304" y1="32.266666666666666" x2="83.16923404903304" y2="340.0" stroke="#dddddd" stroke-width="1.3333333333333333"/><line x1="226.35530781970692" y1="32.266666666666666" x2="226.35530781970692" y2="340.0" stroke="#dddddd" stroke-width="1.3333333333333333"/><line x1="369.54138159038087" y1="32.266666666666666" x2="369.54138159038087" y2="340.0" stroke="#dddddd" stroke-width="1.3333333333333333"/><line x1="512.7274553610548" y1="32.266666666666666" x2="512.7274553610548" y2="340.0" stroke="#dddddd" stroke-width="1.3333333333333333"/><line x1="60.42666666666666" y1="291.04242292132017" x2="616.6666666666666" y2="291.04242292132017" stroke="#dddddd" stroke-width="0.6666666666666666"/><line x1="60.42666666666666" y1="221.103026339718" x2="616.6666666666666" y2="221.103026339718" stroke="#dddddd" stroke-width="0.6666666666666666"/><line x1="60.42666666666666" y1="151.16362975811592" x2="616.6666666666666" y2="151.16362975811592" stroke="#dddddd" stroke-width="0.6666666666666666"/><line x1="60.42666666666666" y1="81.22423317651385" x2="616.6666666666666" y2="81.22423317651385" stroke="#dddddd" stroke-width="0.6666666666666666"/><line x1="60.42666666666666" y1="326.0121212121212" x2="616.6666666666666" y2="326.0121212121212" stroke="#dddddd" stroke-width="1.3333333333333333"/><line x1="60.42666666666666" y1="256.0727246305191" x2="616.6666666666666" y2="256.0727246305191" stroke="#dddddd" stroke-width="1.3333333333333333"/><line x1="60.42666666666666" y1="186.13332804891698" x2="616.6666666666666" y2="186.13332804891698" stroke="#dddddd" stroke-width="1.3333333333333333"/><line x1="60.42666666666666" y1="116.19393146731488" x2="616.6666666666666" y2="116.19393146731488" stroke="#dddddd" stroke-width="1.3333333333333333"/><line x1="60.42666666666666" y1="46.25453488571277" x2="616.6666666666666" y2="46.25453488571277" stroke="#dddddd" stroke-width="1.3333333333333333"/><rect x="60.42666666666666" y="32.266666666666666" width="556.24" height="307.73333333333335" fill="#ffffff" fill-opacity="0.0" stroke="#444444" stroke-width="1.3333333333333333"/><line x1="83.16923404903304" y1="340.0" x2="83.16923404903304" y2="343.66666666666663" stroke="#444444" stroke-width="1.3333333333333333"/><text x="83.16923404903304" y="355.9866666666667" fill="#333333" font-size="11.733333333333334" font-family="sans-serif" text-anchor="middle">0</text><line x1="226.35530781970692" y1="340.0" x2="226.35530781970692" y2="343.66666666666663" stroke="#444444" stroke-width="1.3333333333333333"/><text x="226.35530781970692" y="355.9866666666667" fill="#333333" font-size="11.733333333333334" font-family="sans-serif" text-anchor="middle">5</text><line x1="369.54138159038087" y1="340.0" x2="369.54138159038087" y2="343.66666666666663" stroke="#444444" stroke-width="1.3333333333333333"/><text x="369.54138159038087" y="355.9866666666667" fill="#333333" font-size="11.733333333333334" font-family="sans-serif" text-anchor="middle">10</text><line x1="512.7274553610548" y1="340.0" x2="512.7274553610548" y2="343.66666666666663" stroke="#444444" stroke-width="1.3333333333333333"/><text x="512.7274553610548" y="355.9866666666667" fill="#333333" font-size="11.733333333333334" font-family="sans-serif" text-anchor="middle">15</text><line x1="60.42666666666666" y1="326.0121212121212" x2="56.76" y2="326.0121212121212" stroke="#444444" stroke-width="1.3333333333333333"/><text x="53.82666666666666" y="330.1187878787879" fill="#333333" font-size="11.733333333333334" font-family="sans-serif" text-anchor="end">0.00</text><line x1="60.42666666666666" y1="256.0727246305191" x2="56.76" y2="256.0727246305191" stroke="#444444" stroke-width="1.3333333333333333"/><text x="53.82666666666666" y="260.17939129718576" fill="#333333" font-size="11.733333333333334" font-family="sans-serif" text-anchor="end">0.25</text><line x1="60.42666666666666" y1="186.13332804891698" x2="56.76" y2="186.13332804891698" stroke="#444444" stroke-width="1.3333333333333333"/><text x="53.82666666666666" y="190.23999471558366" fill="#333333" font-size="11.733333333333334" font-family="sans-serif" text-anchor="end">0.50</text><line x1="60.42666666666666" y1="116.19393146731488" x2="56.76" y2="116.19393146731488" stroke="#444444" stroke-width="1.3333333333333333"/><text x="53.82666666666666" y="120.30059813398154" fill="#333333" font-size="11.733333333333334" font-family="sans-serif" text-anchor="end">0.75</text><line x1="60.42666666666666" y1="46.25453488571277" x2="56.76" y2="46.25453488571277" stroke="#444444" stroke-width="1.3333333333333333"/><text x="53.82666666666666" y="50.36120155237944" fill="#333333" font-size="11.733333333333334" font-family="sans-serif" text-anchor="end">1.00</text><text x="60.42666666666666" y="21.413333333333334" fill="#333333" font-size="17.599999999999998" font-family="sans-serif" text-anchor="start">AFT survival curve (baseline)</text><text x="338.5466666666666" y="373.73333333333335" fill="#333333" font-size="14.666666666666666" font-family="sans-serif" text-anchor="middle">t</text><text x="17.599999999999998" y="186.13333333333333" fill="#333333" font-size="14.666666666666666" font-family="sans-serif" text-anchor="middle" transform="rotate(-90.0 17.599999999999998 186.13333333333333)">S(t)</text><line x1="85.71030303030302" y1="46.25454545454541" x2="89.95965367965368" y2="46.25506201592232" stroke="#1f77b4" stroke-width="1.4211023622047245"/><line x1="89.95965367965368" y1="46.25506201592232" x2="94.20900432900433" y2="46.25817745748532" stroke="#1f77b4" stroke-width="1.4211023622047245"/><line x1="94.20900432900433" y1="46.25817745748532" x2="98.45835497835498" y2="46.26783637901276" stroke="#1f77b4" stroke-width="1.4211023622047245"/><line x1="98.45835497835498" y1="46.26783637901276" x2="102.70770562770562" y2="46.28981362619557" stroke="#1f77b4" stroke-width="1.4211023622047245"/><line x1="102.70770562770562" y1="46.28981362619557" x2="106.95705627705627" y2="46.33169788260962" stroke="#1f77b4" stroke-width="1.4211023622047245"/><line x1="106.95705627705627" y1="46.33169788260962" x2="111.20640692640691" y2="46.40287609567292" stroke="#1f77b4" stroke-width="1.4211023622047245"/><line x1="111.20640692640691" y1="46.40287609567292" x2="115.45575757575757" y2="46.51451545331793" stroke="#1f77b4" stroke-width="1.4211023622047245"/><line x1="115.45575757575757" y1="46.51451545331793" x2="119.70510822510823" y2="46.67954008312885" stroke="#1f77b4" stroke-width="1.4211023622047245"/><line x1="119.70510822510823" y1="46.67954008312885" x2="123.95445887445888" y2="46.912599602984336" stroke="#1f77b4" stroke-width="1.4211023622047245"/><line x1="123.95445887445888" y1="46.912599602984336" x2="128.2038095238095" y2="47.23002645884533" stroke="#1f77b4" stroke-width="1.4211023622047245"/><line x1="128.2038095238095" y1="47.23002645884533" x2="132.45316017316014" y2="47.649778749641655" stroke="#1f77b4" stroke-width="1.4211023622047245"/><line x1="132.45316017316014" y1="47.649778749641655" x2="136.70251082251082" y2="48.191365010407516" stroke="#1f77b4" stroke-width="1.4211023622047245"/><line x1="136.70251082251082" y1="48.191365010407516" x2="140.95186147186146" y2="48.87574723413786" stroke="#1f77b4" stroke-width="1.4211023622047245"/><line x1="140.95186147186146" y1="48.87574723413786" x2="145.2012121212121" y2="49.72521828629355" stroke="#1f77b4" stroke-width="1.4211023622047245"/><line x1="145.2012121212121" y1="49.72521828629355" x2="149.45056277056273" y2="50.76324982871631" stroke="#1f77b4" stroke-width="1.4211023622047245"/><line x1="149.45056277056273" y1="50.76324982871631" x2="153.6999134199134" y2="52.01430694805727" stroke="#1f77b4" stroke-width="1.4211023622047245"/><line x1="153.6999134199134" y1="52.01430694805727" x2="157.94926406926405" y2="53.50362590498219" stroke="#1f77b4" stroke-width="1.4211023622047245"/><line x1="157.94926406926405" y1="53.50362590498219" x2="162.1986147186147" y2="55.2569518125141" stroke="#1f77b4" stroke-width="1.4211023622047245"/><line x1="162.1986147186147" y1="55.2569518125141" x2="166.44796536796537" y2="57.30023364280536" stroke="#1f77b4" stroke-width="1.4211023622047245"/><line x1="166.44796536796537" y1="57.30023364280536" x2="170.697316017316" y2="59.659274777667896" stroke="#1f77b4" stroke-width="1.4211023622047245"/><line x1="170.697316017316" y1="59.659274777667896" x2="174.94666666666666" y2="62.359338381978695" stroke="#1f77b4" stroke-width="1.4211023622047245"/><line x1="174.94666666666666" y1="62.359338381978695" x2="179.19601731601733" y2="65.42470820729218" stroke="#1f77b4" stroke-width="1.4211023622047245"/><line x1="179.19601731601733" y1="65.42470820729218" x2="183.44536796536798" y2="68.87820703351113" stroke="#1f77b4" stroke-width="1.4211023622047245"/><line x1="183.44536796536798" y1="68.87820703351113" x2="187.6947186147186" y2="72.74067682527425" stroke="#1f77b4" stroke-width="1.4211023622047245"/><line x1="187.6947186147186" y1="72.74067682527425" x2="191.94406926406924" y2="77.0304267975819" stroke="#1f77b4" stroke-width="1.4211023622047245"/><line x1="191.94406926406924" y1="77.0304267975819" x2="196.19341991341992" y2="81.76265791439485" stroke="#1f77b4" stroke-width="1.4211023622047245"/><line x1="196.19341991341992" y1="81.76265791439485" x2="200.44277056277056" y2="86.94887482528827" stroke="#1f77b4" stroke-width="1.4211023622047245"/><line x1="200.44277056277056" y1="86.94887482528827" x2="204.69212121212118" y2="92.59629879564886" stroke="#1f77b4" stroke-width="1.4211023622047245"/><line x1="204.69212121212118" y1="92.59629879564886" x2="208.94147186147183" y2="98.70729769704906" stroke="#1f77b4" stroke-width="1.4211023622047245"/><line x1="208.94147186147183" y1="98.70729769704906" x2="213.1908225108225" y2="105.27885146288202" stroke="#1f77b4" stroke-width="1.4211023622047245"/><line x1="213.1908225108225" y1="105.27885146288202" x2="217.44017316017315" y2="112.30207342356732" stroke="#1f77b4" stroke-width="1.4211023622047245"/><line x1="217.44017316017315" y1="112.30207342356732" x2="221.6895238095238" y2="119.76180944045132" stroke="#1f77b4" stroke-width="1.4211023622047245"/><line x1="221.6895238095238" y1="119.76180944045132" x2="225.9388744588744" y2="127.63633757118683" stroke="#1f77b4" stroke-width="1.4211023622047245"/><line x1="225.9388744588744" y1="127.63633757118683" x2="230.1882251082251" y2="135.89719093369263" stroke="#1f77b4" stroke-width="1.4211023622047245"/><line x1="230.1882251082251" y1="135.89719093369263" x2="234.43757575757573" y2="144.5091253140954" stroke="#1f77b4" stroke-width="1.4211023622047245"/><line x1="234.43757575757573" y1="144.5091253140954" x2="238.68692640692637" y2="153.43025073680934" stroke="#1f77b4" stroke-width="1.4211023622047245"/><line x1="238.68692640692637" y1="153.43025073680934" x2="242.93627705627705" y2="162.61234257723396" stroke="#1f77b4" stroke-width="1.4211023622047245"/><line x1="242.93627705627705" y1="162.61234257723396" x2="247.18562770562767" y2="172.0013428076226" stroke="#1f77b4" stroke-width="1.4211023622047245"/><line x1="247.18562770562767" y1="172.0013428076226" x2="251.43497835497834" y2="181.5380556634072" stroke="#1f77b4" stroke-width="1.4211023622047245"/><line x1="251.43497835497834" y1="181.5380556634072" x2="255.68432900432896" y2="191.15903453551186" stroke="#1f77b4" stroke-width="1.4211023622047245"/><line x1="255.68432900432896" y1="191.15903453551186" x2="259.93367965367963" y2="200.79764847519803" stroke="#1f77b4" stroke-width="1.4211023622047245"/><line x1="259.93367965367963" y1="200.79764847519803" x2="264.18303030303025" y2="210.38530769294925" stroke="#1f77b4" stroke-width="1.4211023622047245"/><line x1="264.18303030303025" y1="210.38530769294925" x2="268.43238095238087" y2="219.85281829742667" stroke="#1f77b4" stroke-width="1.4211023622047245"/><line x1="268.43238095238087" y1="219.85281829742667" x2="272.6817316017316" y2="229.13182779841452" stroke="#1f77b4" stroke-width="1.4211023622047245"/><line x1="272.6817316017316" y1="229.13182779841452" x2="276.9310822510822" y2="238.1563151931437" stroke="#1f77b4" stroke-width="1.4211023622047245"/><line x1="276.9310822510822" y1="238.1563151931437" x2="281.18043290043283" y2="246.86407339392775" stroke="#1f77b4" stroke-width="1.4211023622047245"/><line x1="281.18043290043283" y1="246.86407339392775" x2="285.4297835497835" y2="255.19812793458746" stroke="#1f77b4" stroke-width="1.4211023622047245"/><line x1="285.4297835497835" y1="255.19812793458746" x2="289.6791341991342" y2="263.10803482863116" stroke="#1f77b4" stroke-width="1.4211023622047245"/><line x1="289.6791341991342" y1="263.10803482863116" x2="293.9284848484848" y2="270.5510025181157" stroke="#1f77b4" stroke-width="1.4211023622047245"/><line x1="293.9284848484848" y1="270.5510025181157" x2="298.1778354978355" y2="277.49278822927715" stroke="#1f77b4" stroke-width="1.4211023622047245"/><line x1="298.1778354978355" y1="277.49278822927715" x2="302.42718614718615" y2="283.9083276833303" stroke="#1f77b4" stroke-width="1.4211023622047245"/><line x1="302.42718614718615" y1="283.9083276833303" x2="306.67653679653677" y2="289.782068679826" stroke="#1f77b4" stroke-width="1.4211023622047245"/><line x1="306.67653679653677" y1="289.782068679826" x2="310.92588744588744" y2="295.10799299191655" stroke="#1f77b4" stroke-width="1.4211023622047245"/><line x1="310.92588744588744" y1="295.10799299191655" x2="315.1752380952381" y2="299.88932646303346" stroke="#1f77b4" stroke-width="1.4211023622047245"/><line x1="315.1752380952381" y1="299.88932646303346" x2="319.42458874458873" y2="304.1379531590187" stroke="#1f77b4" stroke-width="1.4211023622047245"/><line x1="319.42458874458873" y1="304.1379531590187" x2="323.67393939393935" y2="307.87356478367604" stroke="#1f77b4" stroke-width="1.4211023622047245"/><line x1="323.67393939393935" y1="307.87356478367604" x2="327.9232900432901" y2="311.1225901703939" stroke="#1f77b4" stroke-width="1.4211023622047245"/><line x1="327.9232900432901" y1="311.1225901703939" x2="332.1726406926407" y2="313.9169604735956" stroke="#1f77b4" stroke-width="1.4211023622047245"/><line x1="332.1726406926407" y1="313.9169604735956" x2="336.4219913419914" y2="316.29277285768603" stroke="#1f77b4" stroke-width="1.4211023622047245"/><line x1="336.4219913419914" y1="316.29277285768603" x2="340.67134199134193" y2="318.2889184667821" stroke="#1f77b4" stroke-width="1.4211023622047245"/><line x1="340.67134199134193" y1="318.2889184667821" x2="344.9206926406926" y2="319.94573906204596" stroke="#1f77b4" stroke-width="1.4211023622047245"/><line x1="344.9206926406926" y1="319.94573906204596" x2="349.1700432900433" y2="321.30377112629145" stroke="#1f77b4" stroke-width="1.4211023622047245"/><line x1="349.1700432900433" y1="321.30377112629145" x2="353.419393939394" y2="322.40262701982454" stroke="#1f77b4" stroke-width="1.4211023622047245"/><line x1="353.419393939394" y1="322.40262701982454" x2="357.6687445887445" y2="323.28005080304445" stroke="#1f77b4" stroke-width="1.4211023622047245"/><line x1="357.6687445887445" y1="323.28005080304445" x2="361.91809523809525" y2="323.97117271633226" stroke="#1f77b4" stroke-width="1.4211023622047245"/><line x1="361.91809523809525" y1="323.97117271633226" x2="366.16744588744587" y2="324.5079722239666" stroke="#1f77b4" stroke-width="1.4211023622047245"/><line x1="366.16744588744587" y1="324.5079722239666" x2="370.41679653679654" y2="324.9189461570654" stroke="#1f77b4" stroke-width="1.4211023622047245"/><line x1="370.41679653679654" y1="324.9189461570654" x2="374.66614718614716" y2="325.228966852961" stroke="#1f77b4" stroke-width="1.4211023622047245"/><line x1="374.66614718614716" y1="325.228966852961" x2="378.91549783549783" y2="325.45930605935354" stroke="#1f77b4" stroke-width="1.4211023622047245"/><line x1="378.91549783549783" y1="325.45930605935354" x2="383.16484848484845" y2="325.62779421371124" stroke="#1f77b4" stroke-width="1.4211023622047245"/><line x1="383.16484848484845" y1="325.62779421371124" x2="387.41419913419907" y2="325.7490816505806" stroke="#1f77b4" stroke-width="1.4211023622047245"/><line x1="387.41419913419907" y1="325.7490816505806" x2="391.6635497835498" y2="325.8349681470545" stroke="#1f77b4" stroke-width="1.4211023622047245"/><line x1="391.6635497835498" y1="325.8349681470545" x2="395.91290043290047" y2="325.89476954790246" stroke="#1f77b4" stroke-width="1.4211023622047245"/><line x1="395.91290043290047" y1="325.89476954790246" x2="400.1622510822511" y2="325.9356944000082" stroke="#1f77b4" stroke-width="1.4211023622047245"/><line x1="400.1622510822511" y1="325.9356944000082" x2="404.41160173160165" y2="325.9632088723353" stroke="#1f77b4" stroke-width="1.4211023622047245"/><line x1="404.41160173160165" y1="325.9632088723353" x2="408.6609523809523" y2="325.98137405328987" stroke="#1f77b4" stroke-width="1.4211023622047245"/><line x1="408.6609523809523" y1="325.98137405328987" x2="412.9103030303031" y2="325.993145397533" stroke="#1f77b4" stroke-width="1.4211023622047245"/><line x1="412.9103030303031" y1="325.993145397533" x2="417.15965367965373" y2="326.00062917179406" stroke="#1f77b4" stroke-width="1.4211023622047245"/><line x1="417.15965367965373" y1="326.00062917179406" x2="421.40900432900423" y2="326.00529491965835" stroke="#1f77b4" stroke-width="1.4211023622047245"/><line x1="421.40900432900423" y1="326.00529491965835" x2="425.65835497835496" y2="326.0081460869632" stroke="#1f77b4" stroke-width="1.4211023622047245"/><line x1="425.65835497835496" y1="326.0081460869632" x2="429.90770562770564" y2="326.00985302234335" stroke="#1f77b4" stroke-width="1.4211023622047245"/><line x1="429.90770562770564" y1="326.00985302234335" x2="434.1570562770563" y2="326.0108536988756" stroke="#1f77b4" stroke-width="1.4211023622047245"/><line x1="434.1570562770563" y1="326.0108536988756" x2="438.4064069264069" y2="326.01142786710017" stroke="#1f77b4" stroke-width="1.4211023622047245"/><line x1="438.4064069264069" y1="326.01142786710017" x2="442.65575757575755" y2="326.0117501499456" stroke="#1f77b4" stroke-width="1.4211023622047245"/><line x1="442.65575757575755" y1="326.0117501499456" x2="446.90510822510817" y2="326.01192702592766" stroke="#1f77b4" stroke-width="1.4211023622047245"/><line x1="446.90510822510817" y1="326.01192702592766" x2="451.1544588744588" y2="326.0120218923415" stroke="#1f77b4" stroke-width="1.4211023622047245"/><line x1="451.1544588744588" y1="326.0120218923415" x2="455.4038095238095" y2="326.01207159088074" stroke="#1f77b4" stroke-width="1.4211023622047245"/><line x1="455.4038095238095" y1="326.01207159088074" x2="459.6531601731602" y2="326.01209700851575" stroke="#1f77b4" stroke-width="1.4211023622047245"/><line x1="459.6531601731602" y1="326.01209700851575" x2="463.9025108225108" y2="326.01210969254305" stroke="#1f77b4" stroke-width="1.4211023622047245"/><line x1="463.9025108225108" y1="326.01210969254305" x2="468.15186147186137" y2="326.0121158652711" stroke="#1f77b4" stroke-width="1.4211023622047245"/><line x1="468.15186147186137" y1="326.0121158652711" x2="472.4012121212121" y2="326.01211879319504" stroke="#1f77b4" stroke-width="1.4211023622047245"/><line x1="472.4012121212121" y1="326.01211879319504" x2="476.65056277056283" y2="326.0121201460996" stroke="#1f77b4" stroke-width="1.4211023622047245"/><line x1="476.65056277056283" y1="326.0121201460996" x2="480.89991341991345" y2="326.012120754737" stroke="#1f77b4" stroke-width="1.4211023622047245"/><line x1="480.89991341991345" y1="326.012120754737" x2="485.14926406926395" y2="326.01212102117177" stroke="#1f77b4" stroke-width="1.4211023622047245"/><line x1="485.14926406926395" y1="326.01212102117177" x2="489.3986147186147" y2="326.01212113459906" stroke="#1f77b4" stroke-width="1.4211023622047245"/><line x1="489.3986147186147" y1="326.01212113459906" x2="493.64796536796536" y2="326.0121211815334" stroke="#1f77b4" stroke-width="1.4211023622047245"/><line x1="493.64796536796536" y1="326.0121211815334" x2="497.89731601731603" y2="326.0121212003985" stroke="#1f77b4" stroke-width="1.4211023622047245"/><line x1="497.89731601731603" y1="326.0121212003985" x2="502.1466666666666" y2="326.01212120776" stroke="#1f77b4" stroke-width="1.4211023622047245"/><line x1="502.1466666666666" y1="326.01212120776" x2="506.39601731601726" y2="326.01212121054715" stroke="#1f77b4" stroke-width="1.4211023622047245"/><line x1="506.39601731601726" y1="326.01212121054715" x2="510.6453679653679" y2="326.0121212115704" stroke="#1f77b4" stroke-width="1.4211023622047245"/><line x1="510.6453679653679" y1="326.0121212115704" x2="514.8947186147186" y2="326.0121212119344" stroke="#1f77b4" stroke-width="1.4211023622047245"/><line x1="514.8947186147186" y1="326.0121212119344" x2="519.1440692640692" y2="326.01212121205987" stroke="#1f77b4" stroke-width="1.4211023622047245"/><line x1="519.1440692640692" y1="326.01212121205987" x2="523.39341991342" y2="326.0121212121017" stroke="#1f77b4" stroke-width="1.4211023622047245"/><line x1="523.39341991342" y1="326.0121212121017" x2="527.6427705627705" y2="326.0121212121152" stroke="#1f77b4" stroke-width="1.4211023622047245"/><line x1="527.6427705627705" y1="326.0121212121152" x2="531.8921212121211" y2="326.0121212121194" stroke="#1f77b4" stroke-width="1.4211023622047245"/><line x1="531.8921212121211" y1="326.0121212121194" x2="536.1414718614718" y2="326.0121212121207" stroke="#1f77b4" stroke-width="1.4211023622047245"/><line x1="536.1414718614718" y1="326.0121212121207" x2="540.3908225108225" y2="326.01212121212103" stroke="#1f77b4" stroke-width="1.4211023622047245"/><line x1="540.3908225108225" y1="326.01212121212103" x2="544.6401731601732" y2="326.01212121212114" stroke="#1f77b4" stroke-width="1.4211023622047245"/><line x1="544.6401731601732" y1="326.01212121212114" x2="548.8895238095237" y2="326.0121212121212" stroke="#1f77b4" stroke-width="1.4211023622047245"/><line x1="548.8895238095237" y1="326.0121212121212" x2="553.1388744588744" y2="326.0121212121212" stroke="#1f77b4" stroke-width="1.4211023622047245"/><line x1="553.1388744588744" y1="326.0121212121212" x2="557.388225108225" y2="326.0121212121212" stroke="#1f77b4" stroke-width="1.4211023622047245"/><line x1="557.388225108225" y1="326.0121212121212" x2="561.6375757575757" y2="326.0121212121212" stroke="#1f77b4" stroke-width="1.4211023622047245"/><line x1="561.6375757575757" y1="326.0121212121212" x2="565.8869264069262" y2="326.0121212121212" stroke="#1f77b4" stroke-width="1.4211023622047245"/><line x1="565.8869264069262" y1="326.0121212121212" x2="570.1362770562771" y2="326.0121212121212" stroke="#1f77b4" stroke-width="1.4211023622047245"/><line x1="570.1362770562771" y1="326.0121212121212" x2="574.3856277056277" y2="326.0121212121212" stroke="#1f77b4" stroke-width="1.4211023622047245"/><line x1="574.3856277056277" y1="326.0121212121212" x2="578.6349783549783" y2="326.0121212121212" stroke="#1f77b4" stroke-width="1.4211023622047245"/><line x1="578.6349783549783" y1="326.0121212121212" x2="582.884329004329" y2="326.0121212121212" stroke="#1f77b4" stroke-width="1.4211023622047245"/><line x1="582.884329004329" y1="326.0121212121212" x2="587.1336796536797" y2="326.0121212121212" stroke="#1f77b4" stroke-width="1.4211023622047245"/><line x1="587.1336796536797" y1="326.0121212121212" x2="591.3830303030302" y2="326.0121212121212" stroke="#1f77b4" stroke-width="1.4211023622047245"/></svg>