<svg xmlns="http://www.w3.org/2000/svg" width="624" height="384" viewBox="0 0 624 384"><rect x="0.0" y="0.0" width="624.0" height="384.0" fill="#ffffff" fill-opacity="1.0" stroke="none"/><line x1="79.09482093663911" y1="7.333333333333333" x2="79.09482093663911" y2="358.3333333333333" stroke="#dddddd" stroke-width="0.6666666666666666"/><line x1="225.04192837465558" y1="7.333333333333333" x2="225.04192837465558" y2="358.3333333333333" stroke="#dddddd" stroke-width="0.6666666666666666"/><line x1="370.9890358126721" y1="7.333333333333333" x2="370.9890358126721" y2="358.3333333333333" stroke="#dddddd" stroke-width="0.6666666666666666"/><line x1="516.9361432506887" y1="7.333333333333333" x2="516.9361432506887" y2="358.3333333333333" stroke="#dddddd" stroke-width="0.6666666666666666"/><line x1="152.06837465564735" y1="7.333333333333333" x2="152.06837465564735" y2="358.3333333333333" stroke="#dddddd" stroke-width="1.3333333333333333"/><line x1="298.0154820936638" y1="7.333333333333333" x2="298.0154820936638" y2="358.3333333333333" stroke="#dddddd" stroke-width="1.3333333333333333"/><line x1="443.9625895316804" y1="7.333333333333333" x2="443.9625895316804" y2="358.3333333333333" stroke="#dddddd" stroke-width="1.3333333333333333"/><line x1="589.9096969696968" y1="7.333333333333333" x2="589.9096969696968" y2="358.3333333333333" stroke="#dddddd" stroke-width="1.3333333333333333"/><line x1="28.01333333333333" y1="306.245699285918" x2="616.6666666666666" y2="306.245699285918" stroke="#dddddd" stroke-width="0.6666666666666666"/><line x1="28.01333333333333" y1="216.16368034242555" x2="616.6666666666666" y2="216.16368034242555" stroke="#dddddd" stroke-width="0.6666666666666666"/><line x1="28.01333333333333" y1="126.081661398933" x2="616.6666666666666" y2="126.081661398933" stroke="#dddddd" stroke-width="0.6666666666666666"/><line x1="28.01333333333333" y1="35.999642455440494" x2="616.6666666666666" y2="35.999642455440494" stroke="#dddddd" stroke-width="0.6666666666666666"/><line x1="28.01333333333333" y1="351.28670875766426" x2="616.6666666666666" y2="351.28670875766426" stroke="#dddddd" stroke-width="1.3333333333333333"/><line x1="28.01333333333333" y1="261.20468981417173" x2="616.6666666666666" y2="261.20468981417173" stroke="#dddddd" stroke-width="1.3333333333333333"/><line x1="28.01333333333333" y1="171.12267087067926" x2="616.6666666666666" y2="171.12267087067926" stroke="#dddddd" stroke-width="1.3333333333333333"/><line x1="28.01333333333333" y1="81.04065192718674" x2="616.6666666666666" y2="81.04065192718674" stroke="#dddddd" stroke-width="1.3333333333333333"/><rect x="28.01333333333333" y="7.333333333333333" width="588.6533333333333" height="351.0" fill="#ffffff" fill-opacity="0.0" stroke="#444444" stroke-width="1.3333333333333333"/><line x1="152.06837465564735" y1="358.3333333333333" x2="152.06837465564735" y2="362.0" stroke="#444444" stroke-width="1.3333333333333333"/><text x="152.06837465564735" y="374.32" fill="#333333" font-size="11.733333333333334" font-family="sans-serif" text-anchor="middle">3</text><line x1="298.0154820936638" y1="358.3333333333333" x2="298.0154820936638" y2="362.0" stroke="#444444" stroke-width="1.3333333333333333"/><text x="298.0154820936638" y="374.32" fill="#333333" font-size="11.733333333333334" font-family="sans-serif" text-anchor="middle">6</text><line x1="443.9625895316804" y1="358.3333333333333" x2="443.9625895316804" y2="362.0" stroke="#444444" stroke-width="1.3333333333333333"/><text x="443.9625895316804" y="374.32" fill="#333333" font-size="11.733333333333334" font-family="sans-serif" text-anchor="middle">9</text><line x1="589.9096969696968" y1="358.3333333333333" x2="589.9096969696968" y2="362.0" stroke="#444444" stroke-width="1.3333333333333333"/><text x="589.9096969696968" y="374.32" fill="#333333" font-size="11.733333333333334" font-family="sans-serif" text-anchor="middle">12</text><line x1="28.01333333333333" y1="351.28670875766426" x2="24.346666666666664" y2="351.28670875766426" stroke="#444444" stroke-width="1.3333333333333333"/><text x="21.41333333333333" y="355.3933754243309" fill="#333333" font-size="11.733333333333334" font-family="sans-serif" text-anchor="end">0</text><line x1="28.01333333333333" y1="261.20468981417173" x2="24.346666666666664" y2="261.20468981417173" stroke="#444444" stroke-width="1.3333333333333333"/><text x="21.41333333333333" y="265.3113564808384" fill="#333333" font-size="11.733333333333334" font-family="sans-serif" text-anchor="end">5</text><line x1="28.01333333333333" y1="171.12267087067926" x2="24.346666666666664" y2="171.12267087067926" stroke="#444444" stroke-width="1.3333333333333333"/><text x="21.41333333333333" y="175.22933753734594" fill="#333333" font-size="11.733333333333334" font-family="sans-serif" text-anchor="end">10</text><line x1="28.01333333333333" y1="81.04065192718674" x2="24.346666666666664" y2="81.04065192718674" stroke="#444444" stroke-width="1.3333333333333333"/><text x="21.41333333333333" y="85.14731859385341" fill="#333333" font-size="11.733333333333334" font-family="sans-serif" text-anchor="end">15</text><circle cx="54.770303030303026" cy="288.2292954972195" r="3.1181102362204727" fill="#1f77b4" fill-opacity="0.85" stroke="none"><title>(1, 3.5)</title></circle><circle cx="103.41933884297521" cy="300.84077814930845" r="3.1181102362204727" fill="#1f77b4" fill-opacity="0.85" stroke="none"><title>(2, 2.8)</title></circle><circle cx="152.06837465564735" cy="250.3948475409527" r="3.1181102362204727" fill="#1f77b4" fill-opacity="0.85" stroke="none"><title>(3, 5.6)</title></circle><circle cx="200.7174104683195" cy="250.3948475409527" r="3.1181102362204727" fill="#1f77b4" fill-opacity="0.85" stroke="none"><title>(4, 5.6)</title></circle><circle cx="249.3664462809917" cy="194.5439957959873" r="3.1181102362204727" fill="#1f77b4" fill-opacity="0.85" stroke="none"><title>(5, 8.7)</title></circle><circle cx="298.0154820936638" cy="201.75055731146676" r="3.1181102362204727" fill="#1f77b4" fill-opacity="0.85" stroke="none"><title>(6, 8.3)</title></circle><circle cx="346.6645179063361" cy="156.70954783972047" r="3.1181102362204727" fill="#1f77b4" fill-opacity="0.85" stroke="none"><title>(7, 10.8)</title></circle><circle cx="395.31355371900815" cy="169.32103049180944" r="3.1181102362204727" fill="#1f77b4" fill-opacity="0.85" stroke="none"><title>(8, 10.1)</title></circle><circle cx="443.9625895316804" cy="118.87509988345364" r="3.1181102362204727" fill="#1f77b4" fill-opacity="0.85" stroke="none"><title>(9, 12.9)</title></circle><circle cx="492.61162534435255" cy="117.07345950458375" r="3.1181102362204727" fill="#1f77b4" fill-opacity="0.85" stroke="none"><title>(10, 13)</title></circle><circle cx="541.2606611570247" cy="66.627528896228" r="3.1181102362204727" fill="#1f77b4" fill-opacity="0.85" stroke="none"><title>(11, 15.8)</title></circle><circle cx="589.9096969696968" cy="79.23901154831697" r="3.1181102362204727" fill="#1f77b4" fill-opacity="0.85" stroke="none"><title>(12, 15.1)</title></circle><path d="M 54.770303030303026 342.3787878787879 L 57.45944571341555 341.1277861201919 L 60.14858839652809 339.8773654422438 L 62.83773107964062 338.62752868469755 L 65.52687376275316 337.37827868118075 L 68.21601644586568 336.1296182587454 L 70.9051591289782 334.8815502374142 L 73.59430181209075 333.63407742972214 L 76.28344449520328 332.38720264025335 L 78.97258717831582 331.140928665173 L 81.66172986142834 329.89525829175557 L 84.35087254454086 328.6501942979078 L 87.04001522765341 327.40573945168785 L 89.72915791076595 326.16189651082067 L 92.41830059387848 324.9186682222088 L 95.10744327699099 323.67605732143954 L 97.79658596010354 322.4340665322889 L 100.48572864321608 321.1926985662209 L 103.1748713263286 319.9519561218847 L 105.86401400944114 318.7118418846077 L 108.55315669255367 317.4723585258858 L 111.24229937566619 316.2335087028706 L 113.93144205877869 314.99529505785426 L 116.62058474189128 313.75772021775094 L 119.30972742500379 312.52078679357714 L 121.99887010811634 311.2844973799284 L 124.68801279122889 310.04885455445503 L 127.37715547434141 308.8138608773355 L 130.0662981574539 307.5795188907486 L 132.75544084056642 306.3458311183435 L 135.44458352367897 305.11280006470935 L 138.1337262067915 303.8804282148436 L 140.82286888990407 302.64871803361916 L 143.5120115730166 301.4176719652517 L 146.20115425612914 300.18729243276596 L 148.89029693924164 298.9575818374624 L 151.57943962235416 297.7285425583835 L 154.2685823054667 296.50017695178116 L 156.95772498857923 295.27248735058384 L 159.64686767169172 294.0454760638652 L 162.33601035480427 292.8191453763133 L 165.02515303791688 291.59349754770165 L 167.71429572102937 290.36853481236136 L 170.40343840414192 289.1442593786556 L 173.09258108725444 287.92067342845553 L 175.78172377036697 286.69777911661924 L 178.47086645347952 285.4755785704731 L 181.160009136592 284.2540738892954 L 183.84915181970456 283.03326714380427 L 186.53829450281705 281.81316037564784 L 189.22743718592966 280.59375559689875 L 191.91657986904218 279.37505478955256 L 194.6057225521547 278.15705990503017 L 197.29486523526725 276.93977286368465 L 199.98400791837975 275.7231955543132 L 202.67315060149227 274.5073298336736 L 205.3622932846048 273.2921775260066 L 208.05143596771734 272.077740422563 L 210.74057865082983 270.8640202811375 L 213.42972133394235 269.65101882560805 L 216.1188640170549 268.4387377454815 L 218.80800670016748 267.2271786954464 L 221.49714938327998 266.016343294932 L 224.18629206639253 264.806233127675 L 226.87543474950508 263.59684974129345 L 229.56457743261757 262.388194646868 L 232.25372011573012 261.1802693185317 L 234.94286279884264 259.97307519306787 L 237.63200548195516 258.76661366951527 L 240.3211481650677 257.5608861087838 L 243.01029084818026 256.3558938332775 L 245.69943353129275 255.15163812652773 L 248.3885762144053 253.9481202328347 L 251.07771889751785 252.7453413569198 L 253.76686158063038 251.54330266358662 L 256.4560042637429 250.34200527739273 L 259.14514694685545 249.14145028233162 L 261.83428962996794 247.9416387215245 L 264.5234323130805 246.74257159692365 L 267.212574996193 245.54424986902575 L 269.90171767930553 244.346674456597 L 272.5908603624181 243.1498462364088 L 275.28000304553063 241.95376604298536 L 277.9691457286432 240.7584346683624 L 280.6582884117557 239.56385286185798 L 283.3474310948682 238.3700213298548 L 286.0365737779807 237.17694073559485 L 288.72571646109327 235.98461169898627 L 291.4148591442058 234.79303479642186 L 294.10400182731837 233.60221056061098 L 296.79314451043086 232.41213948042292 L 299.4822871935434 231.22282200074397 L 302.17142987665596 230.03425852234628 L 304.86057255976846 228.84644940176997 L 307.549715242881 227.65939495121842 L 310.23885792599356 226.4730954384657 L 312.9280006091061 225.2875510867782 L 315.6171432922186 224.1027620748479 L 318.30628597533115 222.91872853674028 L 320.99542865844364 221.73545056185426 L 323.6845713415562 220.55292819489597 L 326.37371402466874 219.3711614358655 L 329.0628567077813 218.1901502400566 L 331.7519993908938 217.00989451807038 L 334.44114207400634 215.83039413584143 L 337.13028475711883 214.65164891467762 L 339.8194274402314 213.47365863131267 L 342.50857012334393 212.29642301797244 L 345.1977128064565 211.11994176245366 L 347.88685548956903 209.94421450821608 L 350.5759981726815 208.76924085448758 L 353.2651408557941 207.595020356382 L 355.9542835389066 206.42155252502985 L 358.6434262220192 205.24883682772202 L 361.33256890513167 204.07687268806538 L 364.0217115882442 202.90565948615205 L 366.71085427135677 201.73519655874003 L 369.3999969544692 200.56548319944648 L 372.08913963758175 199.3965186589534 L 374.7782823206943 198.22830214522506 L 377.46742500380685 197.06083282373726 L 380.15656768691935 195.89410981771863 L 382.8457103700319 194.728132208403 L 385.53485305314445 193.56289903529358 L 388.223995736257 192.39840929643825 L 390.9131384193695 191.23466194871554 L 393.60228110248204 190.07165590813224 L 396.2914237855946 188.9093900501307 L 398.98056646870714 187.74786320990717 L 401.6697091518197 186.58707418274048 L 404.3588518349321 185.42702172433022 L 407.0479945180447 184.2677045511452 L 409.7371372011572 183.10912134078126 L 412.4262798842698 181.9512707323286 L 415.11542256738227 180.79415132674842 L 417.80456525049476 179.63776168725738 L 420.49370793360737 178.48210033972248 L 423.18285061672 177.32716577306294 L 425.87199329983247 176.17295643966082 L 428.561135982945 175.0194707557794 L 431.25027866605757 173.8667071019894 L 433.9394213491701 172.71466382360236 L 436.6285640322825 171.5633392311113 L 439.31770671539516 170.4127316006384 L 442.0068493985077 169.26283917438894 L 444.69599208162015 168.11366016111208 L 447.3851347647328 166.96519273656696 L 450.07427744784525 165.81743504399597 L 452.7634201309578 164.6703851946019 L 455.45256281407023 163.52404126803154 L 458.1417054971829 162.3784013128641 L 460.83084818029533 161.23346334710405 L 463.51999086340794 160.08922535867865 L 466.2091335465205 158.94568530593983 L 468.898276229633 157.80284111816948 L 471.5874189127456 156.6606906960892 L 474.27656159585797 155.5192319123728 L 476.96570427897063 154.37846261216208 L 479.654846962083 153.23838061358583 L 482.3439896451956 152.09898370828097 L 485.0331323283081 150.96026966191636 L 487.72227501142066 149.82223621471852 L 490.41141769453327 148.6848810819993 L 493.10056037764576 147.5482019546851 L 495.78970306075837 146.41219649984743 L 498.4788457438708 145.27686236123463 L 501.1679884269834 144.14219715980383 L 503.8571311100958 143.0081984942548 L 506.54627379320846 141.87486394156264 L 509.2354164763209 140.74219105751195 L 511.92455915943344 139.61017737722955 L 514.6137018425461 138.47882041571813 L 517.3028445256584 137.34811766838857 L 519.9919872087711 136.21806661159155 L 522.6811298918835 135.08866470314845 L 525.3702725749961 133.95990938288065 L 528.0594152581086 132.83179807313797 L 530.7485579412212 131.7043281793247 L 533.4377006243337 130.57749709042469 L 536.1268433074463 129.45130217952328 L 538.8159859905587 128.32574080432875 L 541.5051286736713 127.20081030768918 L 544.1942713567839 126.07650801810883 L 546.8834140398964 124.95283125026037 L 549.5725567230089 123.82977730549449 L 552.2616994061214 122.70734347234725 L 554.9508420892339 121.5855270270426 L 557.6399847723465 120.4643252339933 L 560.329127455459 119.3437353462967 L 563.0182701385716 118.223754606228 L 565.7074128216841 117.10438024572889 L 568.3965555047967 115.98560948689271 L 571.0856981879092 114.86743954244503 L 573.7748408710218 113.74986761622058 L 576.4639835541342 112.63289090363529 L 579.1531262372467 111.51650659215409 L 581.8422689203593 110.40071186175442 L 584.5314116034718 109.28550388538409 L 587.2205542865843 108.17087982941571 L 589.9096969696968 107.05683685409515 L 589.9096969696968 23.28787878787879 L 587.2205542865843 24.538880546474765 L 584.5314116034718 25.789301224422843 L 581.8422689203593 27.039137981969056 L 579.1531262372467 28.288387985485844 L 576.4639835541342 29.53704840792121 L 573.7748408710218 30.78511642925241 L 571.0856981879092 32.03258923694443 L 568.3965555047967 33.279464026413315 L 565.7074128216841 34.52573800149362 L 563.0182701385716 35.77140837491106 L 560.329127455459 37.016472368758855 L 557.6399847723465 38.260927214978736 L 554.9508420892339 39.50477015584594 L 552.2616994061214 40.747998444457835 L 549.5725567230089 41.99060934522701 L 546.8834140398964 43.2326001343777 L 544.1942713567839 44.4739681004457 L 541.5051286736713 45.71471054478187 L 538.8159859905587 46.95482478205887 L 536.1268433074463 48.194308140780734 L 533.4377006243337 49.43315796379598 L 530.7485579412212 50.671371608812365 L 528.0594152581086 51.90894644891564 L 525.3702725749961 53.14587987308944 L 522.6811298918835 54.38216928673815 L 519.9919872087711 55.61781211221155 L 517.3028445256584 56.852805789331114 L 514.6137018425461 58.08714777591797 L 511.92455915943344 59.320835548323124 L 509.2354164763209 60.55386660195726 L 506.54627379320846 61.78623845182301 L 503.8571311100958 63.017948633047425 L 501.1679884269834 64.24899470141486 L 498.4788457438708 65.47937423390059 L 495.78970306075837 66.7090848292042 L 493.10056037764576 67.93812410828312 L 490.41141769453327 69.16648971488542 L 487.72227501142066 70.3941793160828 L 485.0331323283081 71.62119060280145 L 482.3439896451956 72.84752129035333 L 479.654846962083 74.07316911896501 L 476.96570427897063 75.29813185430524 L 474.27656159585797 76.5224072880111 L 471.5874189127456 77.74599323821113 L 468.898276229633 78.96888755004741 L 466.2091335465205 80.19108809619354 L 463.51999086340794 81.41259277737124 L 460.83084818029533 82.63339952286238 L 458.1417054971829 83.85350629101882 L 455.45256281407023 85.07291106976791 L 452.7634201309578 86.29161187711406 L 450.07427744784525 87.50960676163643 L 447.3851347647328 88.72689380298193 L 444.69599208162015 89.94347111235341 L 442.0068493985077 91.15933683299298 L 439.31770671539516 92.3744891406601 L 436.6285640322825 93.58892624410373 L 433.9394213491701 94.80264638552913 L 431.25027866605757 96.01564784105861 L 428.561135982945 97.22792892118514 L 425.87199329983247 98.43948797122023 L 423.18285061672 99.65032337173461 L 420.49370793360737 100.86043353899159 L 417.80456525049476 102.06981692537325 L 415.11542256738227 103.27847201979867 L 412.4262798842698 104.48639734813487 L 409.7371372011572 105.69359147359879 L 407.0479945180447 106.90005299715145 L 404.3588518349321 108.10578055788281 L 401.6697091518197 109.31077283338905 L 398.98056646870714 110.51502854013889 L 396.2914237855946 111.7185464338319 L 393.60228110248204 112.92132530974689 L 390.9131384193695 114.12336400308007 L 388.223995736257 115.32466138927391 L 385.53485305314445 116.52521638433507 L 382.8457103700319 117.72502794514219 L 380.15656768691935 118.924095069743 L 377.46742500380685 120.12241679764091 L 374.7782823206943 121.31999221006966 L 372.08913963758175 122.51682043025785 L 369.3999969544692 123.71290062368128 L 366.71085427135677 124.9082319983042 L 364.0217115882442 126.10281380480868 L 361.33256890513167 127.29664533681185 L 358.6434262220192 128.4897259310718 L 355.9542835389066 129.68205496768036 L 353.2651408557941 130.87363187024476 L 350.5759981726815 132.06445610605567 L 347.88685548956903 133.25452718624368 L 345.1977128064565 134.4438446659227 L 342.50857012334393 135.63240814432038 L 339.8194274402314 136.82021726489668 L 337.13028475711883 138.00727171544827 L 334.44114207400634 139.1935712282009 L 331.7519993908938 140.37911557988846 L 329.0628567077813 141.5639045918187 L 326.37371402466874 142.74793812992635 L 323.6845713415562 143.93121610481234 L 320.99542865844364 145.1137384717706 L 318.30628597533115 146.29550523080115 L 315.6171432922186 147.47651642661003 L 312.9280006091061 148.65677214859625 L 310.23885792599356 149.83627253082517 L 307.549715242881 151.01501775198906 L 304.86057255976846 152.19300803535396 L 302.17142987665596 153.3702436486942 L 299.4822871935434 154.54672490421297 L 296.79314451043086 155.72245215845058 L 294.10400182731837 156.89742581217905 L 291.4148591442058 158.07164631028462 L 288.72571646109327 159.24511414163675 L 286.0365737779807 160.41782983894464 L 283.3474310948682 161.58979397860128 L 280.6582884117557 162.76100718051455 L 277.9691457286432 163.9314701079266 L 275.28000304553063 165.10118346722015 L 272.5908603624181 166.27014800771326 L 269.90171767930553 167.4383645214416 L 267.212574996193 168.60583384292937 L 264.5234323130805 169.772556848948 L 261.83428962996794 170.9385344582636 L 259.14514694685545 172.10376763137302 L 256.4560042637429 173.2682573702284 L 253.76686158063038 174.43200471795106 L 251.07771889751785 175.59501075853439 L 248.3885762144053 176.75727661653588 L 245.69943353129275 177.91880345675946 L 243.01029084818026 179.0795924839261 L 240.3211481650677 180.23964494233644 L 237.63200548195516 181.39896211552144 L 234.94286279884264 182.55754532588537 L 232.25372011573012 183.71539593433795 L 229.56457743261757 184.87251533991824 L 226.87543474950508 186.0289049794093 L 224.18629206639253 187.18456632694418 L 221.49714938327998 188.33950089360374 L 218.80800670016748 189.4937102270058 L 216.1188640170549 190.64719591088726 L 213.42972133394235 191.79995956467727 L 210.74057865082983 192.9520028430643 L 208.05143596771734 194.10332743555534 L 205.3622932846048 195.25393506602828 L 202.67315060149227 196.40382749227768 L 199.98400791837975 197.5530065055546 L 197.29486523526725 198.70147393009964 L 194.6057225521547 199.8492316226707 L 191.91657986904218 200.9962814720648 L 189.22743718592966 202.14262539863512 L 186.53829450281705 203.2882653538026 L 183.84915181970456 204.43320331956264 L 181.160009136592 205.577441307988 L 178.47086645347952 206.72098136072682 L 175.78172377036697 207.8638255484972 L 173.09258108725444 209.00597597057745 L 170.40343840414192 210.14743475429387 L 167.71429572102937 211.2882040545046 L 165.02515303791688 212.4282860530808 L 162.33601035480427 213.56768295838566 L 159.64686767169172 214.70639700475027 L 156.95772498857923 215.84443045194809 L 154.2685823054667 216.9817855846673 L 151.57943962235416 218.11846471198152 L 148.89029693924164 219.25447016681915 L 146.20115425612914 220.38980430543202 L 143.5120115730166 221.52446950686277 L 140.82286888990407 222.65846817241186 L 138.1337262067915 223.79180272510396 L 135.44458352367897 224.9244756091547 L 132.75544084056642 226.0564892894371 L 130.0662981574539 227.1878462509485 L 127.37715547434141 228.31854899827806 L 124.68801279122889 229.44860005507508 L 121.99887010811634 230.5780019635182 L 119.30972742500379 231.70675728378598 L 116.62058474189128 232.83486859352865 L 113.93144205877869 233.96233848734192 L 111.24229937566619 235.08916957624197 L 108.55315669255367 236.21536448714335 L 105.86401400944114 237.34092586233794 L 103.1748713263286 238.46585635897748 L 100.48572864321608 239.5901586485578 L 97.79658596010354 240.7138354164063 L 95.10744327699099 241.8368893611721 L 92.41830059387848 242.9593231943194 L 89.72915791076595 244.08113963962404 L 87.04001522765341 245.2023414326734 L 84.35087254454086 246.32293132036995 L 81.66172986142834 247.44291206043863 L 78.97258717831582 248.5622864209377 L 76.28344449520328 249.68105717977397 L 73.59430181209075 250.79922712422163 L 70.9051591289782 251.91679905044612 L 68.21601644586568 253.0337757630314 L 65.52687376275316 254.15016007451254 L 62.83773107964062 255.26595480491227 L 60.14858839652809 256.38116278128257 L 57.45944571341555 257.49578683725093 L 54.770303030303026 258.6098298125715 Z" fill="#1f77b4" fill-opacity="0.1" stroke="none"/><path d="M 54.770303030303026 320.48171092480186 L 57.45944571341555 319.1552862711743 L 60.14858839652809 317.82927991626684 L 62.83773107964062 316.5037010669067 L 65.52687376275316 315.1785591734469 L 68.21601644586568 313.85386393668443 L 70.9051591289782 312.5296253149546 L 73.59430181209075 311.205853531403 L 76.28344449520328 309.8825590814356 L 78.97258717831582 308.55975274034756 L 81.66172986142834 307.23744557113093 L 84.35087254454086 305.91564893245993 L 87.04001522765341 304.59437448685424 L 89.72915791076595 303.2736342090163 L 92.41830059387848 301.9534403943423 L 95.10744327699099 300.6338056676021 L 97.79658596010354 299.314742991784 L 100.48572864321608 297.99626567710027 L 103.1748713263286 296.67838739014576 L 105.86401400944114 295.361122163203 L 108.55315669255367 294.0444844036853 L 111.24229937566619 292.72848890370693 L 113.93144205877869 291.4131508497696 L 116.62058474189128 290.0984858325518 L 119.30972742500379 288.7845098567857 L 121.99887010811634 287.4712393512055 L 124.68801279122889 286.1586911785468 L 127.37715547434141 284.84688264557747 L 130.0662981574539 283.53583151313524 L 132.75544084056642 282.22555600614635 L 135.44458352367897 280.91607482359575 L 138.1337262067915 279.6074071484179 L 140.82286888990407 278.29957265727205 L 143.5120115730166 276.9925915301643 L 146.20115425612914 275.6864844598749 L 148.89029693924164 274.3812726611435 L 151.57943962235416 273.076977879565 L 154.2685823054667 271.77362240014077 L 156.95772498857923 270.4712290554274 L 159.64686767169172 269.169821233221 L 162.33601035480427 267.86942288370926 L 165.02515303791688 266.57005852601907 L 167.71429572102937 265.27175325408336 L 170.40343840414192 263.9745327417437 L 173.09258108725444 262.67842324700194 L 175.78172377036697 261.38345161532857 L 178.47086645347952 260.0896452819284 L 181.160009136592 258.7970322728612 L 183.84915181970456 257.5056412049088 L 186.53829450281705 256.2155012840741 L 189.22743718592966 254.92664230259498 L 191.91657986904218 253.6390946343487 L 194.6057225521547 252.35288922852024 L 197.29486523526725 251.06805760140406 L 199.98400791837975 249.7846318262042 L 202.67315060149227 248.50264452069737 L 205.3622932846048 247.2221288326205 L 208.05143596771734 245.94311842264347 L 210.74057865082983 244.66564744478984 L 213.42972133394235 243.38975052416836 L 216.1188640170549 242.1154627318813 L 218.80800670016748 240.84281955698128 L 221.49714938327998 239.571856875354 L 224.18629206639253 238.30261091541144 L 226.87543474950508 237.03511822049214 L 229.56457743261757 235.76941560787583 L 232.25372011573012 234.50554012433477 L 234.94286279884264 233.24352899816108 L 237.63200548195516 231.9834195876288 L 240.3211481650677 230.7252493258702 L 243.01029084818026 229.4690556621718 L 245.69943353129275 228.21487599972056 L 248.3885762144053 226.96274762986062 L 251.07771889751785 225.71270766295385 L 253.76686158063038 224.46479295596728 L 256.4560042637429 223.21904003695073 L 259.14514694685545 221.97548502660084 L 261.83428962996794 220.7341635571488 L 264.5234323130805 219.49511068884703 L 267.212574996193 218.25836082436922 L 269.90171767930553 217.02394762147824 L 272.5908603624181 215.7919039043545 L 275.28000304553063 214.56226157401414 L 277.9691457286432 213.3350515182813 L 280.6582884117557 212.11030352181095 L 283.3474310948682 210.8880461766874 L 286.0365737779807 209.6683067941467 L 288.72571646109327 208.45111131799186 L 291.4148591442058 207.2364842402826 L 294.10400182731837 206.02444851988835 L 296.79314451043086 204.81502550449537 L 299.4822871935434 203.6082348566511 L 302.17142987665596 202.40409448441667 L 304.86057255976846 201.20262047717588 L 307.549715242881 200.00382704712177 L 310.23885792599356 198.80772647690472 L 312.9280006091061 197.61432907388445 L 315.6171432922186 196.4236431313771 L 318.30628597533115 195.23567489723473 L 320.99542865844364 194.05042855003245 L 323.6845713415562 192.86790618307418 L 326.37371402466874 191.68810779636 L 329.0628567077813 190.51103129658583 L 331.7519993908938 189.33667250517664 L 334.44114207400634 188.1650251742804 L 337.13028475711883 186.99608101058098 L 339.8194274402314 185.82982970671858 L 342.50857012334393 184.66625898004284 L 345.1977128064565 183.5053546183608 L 347.88685548956903 182.3471005322885 L 350.5759981726815 181.19147881376503 L 353.2651408557941 180.03846980024275 L 355.9542835389066 178.88805214403547 L 358.6434262220192 177.74020288627378 L 361.33256890513167 176.59489753489802 L 364.0217115882442 175.4521101461051 L 366.71085427135677 174.3118134086589 L 369.3999969544692 173.17397873047526 L 372.08913963758175 172.03857632689906 L 374.7782823206943 170.90557531010626 L 377.46742500380685 169.7749437790808 L 380.15656768691935 168.64664890964207 L 382.8457103700319 167.52065704402733 L 385.53485305314445 166.39693377956283 L 388.223995736257 165.27544405599625 L 390.9131384193695 164.1561522410963 L 393.60228110248204 163.03902221416632 L 396.2914237855946 161.9240174471566 L 398.98056646870714 160.81110108309997 L 401.6697091518197 159.70023601163473 L 404.3588518349321 158.5913849414166 L 407.0479945180447 157.48451046925874 L 409.7371372011572 156.3795751458745 L 412.4262798842698 155.2765415381317 L 415.11542256738227 154.17537228775632 L 417.80456525049476 153.07603016645606 L 420.49370793360737 151.97847812745886 L 423.18285061672 150.8826793534849 L 425.87199329983247 149.7885973011957 L 428.561135982945 148.69619574217919 L 431.25027866605757 147.60543880054973 L 433.9394213491701 146.5162909872547 L 436.6285640322825 145.42871723119185 L 439.31770671539516 144.34268290725234 L 442.0068493985077 143.2581538614127 L 444.69599208162015 142.175096433003 L 447.3851347647328 141.09347747428632 L 450.07427744784525 140.01326436748604 L 452.7634201309578 138.93442503939798 L 455.45256281407023 137.85692797372775 L 458.1417054971829 136.78074222129032 L 460.83084818029533 135.70583740820854 L 463.51999086340794 134.6321837422445 L 466.2091335465205 133.55975201739517 L 468.898276229633 132.48851361687883 L 471.5874189127456 131.41844051463568 L 474.27656159585797 130.3495052754609 L 476.96570427897063 129.28168105388409 L 479.654846962083 128.2149415919033 L 482.3439896451956 127.14926121567694 L 485.0331323283081 126.08461483127215 L 487.72227501142066 125.02097791956203 L 490.41141769453327 123.95832653035889 L 493.10056037764576 122.89663727586665 L 495.78970306075837 121.83588732352862 L 498.4788457438708 120.77605438834355 L 501.1679884269834 119.71711672471645 L 503.8571311100958 118.65905311790766 L 506.54627379320846 117.60184287513698 L 509.2354164763209 116.54546581639836 L 511.92455915943344 115.48990226503243 L 514.6137018425461 114.43513303810482 L 517.3028445256584 113.38113943663052 L 519.9919872087711 112.3279032356833 L 522.6811298918835 111.27540667442554 L 525.3702725749961 110.22363244608925 L 528.0594152581086 109.17256368793876 L 530.7485579412212 108.12218397124005 L 533.4377006243337 107.07247729126095 L 536.1268433074463 106.0234280573228 L 538.8159859905587 104.97502108292406 L 541.5051286736713 103.92724157595023 L 544.1942713567839 102.88007512898817 L 546.8834140398964 101.83350770975542 L 549.5725567230089 100.787525651657 L 552.2616994061214 99.74211564448072 L 554.9508420892339 98.69726472523817 L 557.6399847723465 97.65296026915962 L 560.329127455459 96.6091899808489 L 563.0182701385716 95.56594188560328 L 565.7074128216841 94.52320432090349 L 568.3965555047967 93.480965928075 L 571.0856981879092 92.43921564412585 L 573.7748408710218 91.39794269376094 L 576.4639835541342 90.35713658157431 L 579.1531262372467 89.31678708442021 L 581.8422689203593 88.2768842439635 L 584.5314116034718 87.23741835940712 L 587.2205542865843 86.19837998039816 L 589.9096969696968 85.15975990010918 L 589.9096969696968 45.18495574186477 L 587.2205542865843 46.51138039549228 L 584.5314116034718 47.83738675039979 L 581.8422689203593 49.162965599759936 L 579.1531262372467 50.48810749321971 L 576.4639835541342 51.81280272998215 L 573.7748408710218 53.13704135171205 L 571.0856981879092 54.46081313526361 L 568.3965555047967 55.78410758523103 L 565.7074128216841 57.106913926319024 L 563.0182701385716 58.42922109553573 L 560.329127455459 59.7510177342067 L 557.6399847723465 61.07229217981239 L 554.9508420892339 62.393032457650364 L 552.2616994061214 63.71322627232435 L 549.5725567230089 65.03286099906452 L 546.8834140398964 66.35192367488264 L 544.1942713567839 67.67040098956632 L 541.5051286736713 68.98827927652087 L 538.8159859905587 70.30554450346365 L 536.1268433074463 71.62218226298128 L 533.4377006243337 72.93817776295971 L 530.7485579412212 74.25351581689702 L 528.0594152581086 75.56818083411488 L 525.3702725749961 76.8821568098809 L 522.6811298918835 78.1954273154611 L 519.9919872087711 79.50797548811984 L 517.3028445256584 80.81978402108916 L 514.6137018425461 82.13083515353131 L 511.92455915943344 83.44111066052028 L 509.2354164763209 84.75059184307088 L 506.54627379320846 86.05925951824872 L 503.8571311100958 87.3670940093946 L 501.1679884269834 88.67407513650228 L 498.4788457438708 89.98018220679171 L 495.78970306075837 91.28539400552313 L 493.10056037764576 92.58968878710164 L 490.41141769453327 93.89304426652582 L 487.72227501142066 95.19543761123926 L 485.0331323283081 96.49684543344566 L 482.3439896451956 97.7972437829574 L 479.654846962083 99.09660814064753 L 476.96570427897063 100.39491341258322 L 474.27656159585797 101.69213392492296 L 471.5874189127456 102.98824341966466 L 468.898276229633 104.28321505133802 L 466.2091335465205 105.57702138473817 L 463.51999086340794 106.86963439380538 L 460.83084818029533 108.16102546175792 L 458.1417054971829 109.45116538259254 L 455.45256281407023 110.7400243640717 L 452.7634201309578 112.02757203231798 L 450.07427744784525 113.31377743814642 L 447.3851347647328 114.59860906526258 L 444.69599208162015 115.88203484046247 L 442.0068493985077 117.1640221459692 L 439.31770671539516 118.44453783404617 L 436.6285640322825 119.72354824402319 L 433.9394213491701 121.0010192218768 L 431.25027866605757 122.27691614249825 L 428.561135982945 123.55120393478535 L 425.87199329983247 124.82384710968536 L 423.18285061672 126.09480979131266 L 420.49370793360737 127.36405575125525 L 417.80456525049476 128.63154844617452 L 415.11542256738227 129.89725105879077 L 412.4262798842698 131.16112654233183 L 409.7371372011572 132.42313766850555 L 407.0479945180447 133.6832470790379 L 404.3588518349321 134.94141734079642 L 401.6697091518197 136.1976110044948 L 398.98056646870714 137.4517906669461 L 396.2914237855946 138.70391903680598 L 393.60228110248204 139.95395900371284 L 390.9131384193695 141.20187371069932 L 388.223995736257 142.4476266297159 L 385.53485305314445 143.69118164006582 L 382.8457103700319 144.93250310951785 L 380.15656768691935 146.1715559778196 L 377.46742500380685 147.40830584229744 L 374.7782823206943 148.64271904518841 L 372.08913963758175 149.87476276231212 L 369.3999969544692 151.10440509265248 L 366.71085427135677 152.33161514838537 L 364.0217115882442 153.55636314485565 L 361.33256890513167 154.77862048997923 L 358.6434262220192 155.99835987251998 L 355.9542835389066 157.21555534867474 L 353.2651408557941 158.43018242638405 L 350.5759981726815 159.64221814677822 L 347.88685548956903 160.85164116217123 L 345.1977128064565 162.05843181001558 L 342.50857012334393 163.26257218224998 L 339.8194274402314 164.46404618949072 L 337.13028475711883 165.66283961954483 L 334.44114207400634 166.85894018976194 L 331.7519993908938 168.05233759278218 L 329.0628567077813 169.2430235352895 L 326.37371402466874 170.43099176943193 L 323.6845713415562 171.61623811663418 L 320.99542865844364 172.79876048359245 L 318.30628597533115 173.97855887030667 L 315.6171432922186 175.1556353700808 L 312.9280006091061 176.32999416148996 L 310.23885792599356 177.5016414923862 L 307.549715242881 178.67058565608568 L 304.86057255976846 179.83683695994802 L 302.17142987665596 181.00040768662382 L 299.4822871935434 182.16131204830586 L 296.79314451043086 183.31956613437814 L 294.10400182731837 184.47518785290163 L 291.4148591442058 185.62819686642388 L 288.72571646109327 186.77861452263113 L 286.0365737779807 187.92646378039285 L 283.3474310948682 189.07176913176863 L 280.6582884117557 190.21455652056153 L 277.9691457286432 191.3548532580077 L 275.28000304553063 192.4926879361914 L 272.5908603624181 193.6280903397675 L 269.90171767930553 194.76109135656034 L 267.212574996193 195.89172288758587 L 264.5234323130805 197.02001775702456 L 261.83428962996794 198.14600962263933 L 259.14514694685545 199.26973288710383 L 256.4560042637429 200.3912226106704 L 253.76686158063038 201.51051442557036 L 251.07771889751785 202.62764445250028 L 248.3885762144053 203.74264921951 L 245.69943353129275 204.85556558356666 L 243.01029084818026 205.96643065503184 L 240.3211481650677 207.07528172525 L 237.63200548195516 208.18215619740795 L 234.94286279884264 209.2870915207921 L 232.25372011573012 210.39012512853492 L 229.56457743261757 211.49129437891034 L 226.87543474950508 212.59063650021056 L 224.18629206639253 213.6881885392078 L 221.49714938327998 214.7839873131818 L 218.80800670016748 215.878069365471 L 216.1188640170549 216.97047092448747 L 213.42972133394235 218.0612278661169 L 210.74057865082983 219.15037567941195 L 208.05143596771734 220.23794943547483 L 205.3622932846048 221.32398375941426 L 202.67315060149227 222.4085128052539 L 199.98400791837975 223.49157023366365 L 197.29486523526725 224.57318919238028 L 194.6057225521547 225.6534022991806 L 191.91657986904218 226.73224162726868 L 189.22743718592966 227.80973869293888 L 186.53829450281705 228.8859244453763 L 183.84915181970456 229.9608292584581 L 181.160009136592 231.03448292442215 L 178.47086645347952 232.10691464927146 L 175.78172377036697 233.17815304978785 L 173.09258108725444 234.24822615203098 L 170.40343840414192 235.31716139120573 L 167.71429572102937 236.38498561278254 L 165.02515303791688 237.45172507476337 L 162.33601035480427 238.51740545098974 L 159.64686767169172 239.58205183539445 L 156.95772498857923 240.6456887471046 L 154.2685823054667 241.70834013630775 L 151.57943962235416 242.7700293908 L 148.89029693924164 243.83077934313798 L 146.20115425612914 244.8906122783231 L 143.5120115730166 245.94954994195018 L 140.82286888990407 247.007613548759 L 138.1337262067915 248.06482379152968 L 135.44458352367897 249.12120085026828 L 132.75544084056642 250.17676440163422 L 130.0662981574539 251.23153362856183 L 127.37715547434141 252.28552723003614 L 124.68801279122889 253.3387634309833 L 121.99887010811634 254.3912599922411 L 119.30972742500379 255.4430342205774 L 116.62058474189128 256.4941029787279 L 113.93144205877869 257.54448269542655 L 111.24229937566619 258.5941893754057 L 108.55315669255367 259.6432386093438 L 105.86401400944114 260.6916455837426 L 103.1748713263286 261.73942509071645 L 100.48572864321608 262.7865915376784 L 97.79658596010354 263.83315895691123 L 95.10744327699099 264.8791410150096 L 92.41830059387848 265.9245510221859 L 89.72915791076595 266.96940194142843 L 87.04001522765341 268.013706397507 L 84.35087254454086 269.0574766858178 L 81.66172986142834 270.1007247810633 L 78.97258717831582 271.14346234576317 L 76.28344449520328 272.18570073859166 L 73.59430181209075 273.2274510225408 L 70.9051591289782 274.2687239729057 L 68.21601644586568 275.3095300850924 L 65.52687376275316 276.3498795822464 L 62.83773107964062 277.38978242270315 L 60.14858839652809 278.4292483072595 L 57.45944571341555 279.4682866862685 L 54.770303030303026 280.5069067665575 Z" fill="#1f77b4" fill-opacity="0.2" stroke="none"/><line x1="54.770303030303026" y1="300.49430884567965" x2="57.45944571341555" y2="299.3117864787214" stroke="#1f77b4" stroke-width="1.4211023622047245"/><line x1="57.45944571341555" y1="299.3117864787214" x2="60.14858839652809" y2="298.1292641117632" stroke="#1f77b4" stroke-width="1.4211023622047245"/><line x1="60.14858839652809" y1="298.1292641117632" x2="62.83773107964062" y2="296.9467417448049" stroke="#1f77b4" stroke-width="1.4211023622047245"/><line x1="62.83773107964062" y1="296.9467417448049" x2="65.52687376275316" y2="295.76421937784664" stroke="#1f77b4" stroke-width="1.4211023622047245"/><line x1="65.52687376275316" y1="295.76421937784664" x2="68.21601644586568" y2="294.5816970108884" stroke="#1f77b4" stroke-width="1.4211023622047245"/><line x1="68.21601644586568" y1="294.5816970108884" x2="70.9051591289782" y2="293.3991746439301" stroke="#1f77b4" stroke-width="1.4211023622047245"/><line x1="70.9051591289782" y1="293.3991746439301" x2="73.59430181209075" y2="292.2166522769719" stroke="#1f77b4" stroke-width="1.4211023622047245"/><line x1="73.59430181209075" y1="292.2166522769719" x2="76.28344449520328" y2="291.03412991001363" stroke="#1f77b4" stroke-width="1.4211023622047245"/><line x1="76.28344449520328" y1="291.03412991001363" x2="78.97258717831582" y2="289.85160754305537" stroke="#1f77b4" stroke-width="1.4211023622047245"/><line x1="78.97258717831582" y1="289.85160754305537" x2="81.66172986142834" y2="288.66908517609716" stroke="#1f77b4" stroke-width="1.4211023622047245"/><line x1="81.66172986142834" y1="288.66908517609716" x2="84.35087254454086" y2="287.4865628091389" stroke="#1f77b4" stroke-width="1.4211023622047245"/><line x1="84.35087254454086" y1="287.4865628091389" x2="87.04001522765341" y2="286.3040404421806" stroke="#1f77b4" stroke-width="1.4211023622047245"/><line x1="87.04001522765341" y1="286.3040404421806" x2="89.72915791076595" y2="285.1215180752223" stroke="#1f77b4" stroke-width="1.4211023622047245"/><line x1="89.72915791076595" y1="285.1215180752223" x2="92.41830059387848" y2="283.9389957082641" stroke="#1f77b4" stroke-width="1.4211023622047245"/><line x1="92.41830059387848" y1="283.9389957082641" x2="95.10744327699099" y2="282.7564733413059" stroke="#1f77b4" stroke-width="1.4211023622047245"/><line x1="95.10744327699099" y1="282.7564733413059" x2="97.79658596010354" y2="281.57395097434755" stroke="#1f77b4" stroke-width="1.4211023622047245"/><line x1="97.79658596010354" y1="281.57395097434755" x2="100.48572864321608" y2="280.39142860738934" stroke="#1f77b4" stroke-width="1.4211023622047245"/><line x1="100.48572864321608" y1="280.39142860738934" x2="103.1748713263286" y2="279.2089062404311" stroke="#1f77b4" stroke-width="1.4211023622047245"/><line x1="103.1748713263286" y1="279.2089062404311" x2="105.86401400944114" y2="278.0263838734728" stroke="#1f77b4" stroke-width="1.4211023622047245"/><line x1="105.86401400944114" y1="278.0263838734728" x2="108.55315669255367" y2="276.8438615065146" stroke="#1f77b4" stroke-width="1.4211023622047245"/><line x1="108.55315669255367" y1="276.8438615065146" x2="111.24229937566619" y2="275.66133913955633" stroke="#1f77b4" stroke-width="1.4211023622047245"/><line x1="111.24229937566619" y1="275.66133913955633" x2="113.93144205877869" y2="274.47881677259807" stroke="#1f77b4" stroke-width="1.4211023622047245"/><line x1="113.93144205877869" y1="274.47881677259807" x2="116.62058474189128" y2="273.2962944056398" stroke="#1f77b4" stroke-width="1.4211023622047245"/><line x1="116.62058474189128" y1="273.2962944056398" x2="119.30972742500379" y2="272.11377203868153" stroke="#1f77b4" stroke-width="1.4211023622047245"/><line x1="119.30972742500379" y1="272.11377203868153" x2="121.99887010811634" y2="270.93124967172326" stroke="#1f77b4" stroke-width="1.4211023622047245"/><line x1="121.99887010811634" y1="270.93124967172326" x2="124.68801279122889" y2="269.74872730476505" stroke="#1f77b4" stroke-width="1.4211023622047245"/><line x1="124.68801279122889" y1="269.74872730476505" x2="127.37715547434141" y2="268.5662049378068" stroke="#1f77b4" stroke-width="1.4211023622047245"/><line x1="127.37715547434141" y1="268.5662049378068" x2="130.0662981574539" y2="267.3836825708486" stroke="#1f77b4" stroke-width="1.4211023622047245"/><line x1="130.0662981574539" y1="267.3836825708486" x2="132.75544084056642" y2="266.20116020389025" stroke="#1f77b4" stroke-width="1.4211023622047245"/><line x1="132.75544084056642" y1="266.20116020389025" x2="135.44458352367897" y2="265.01863783693204" stroke="#1f77b4" stroke-width="1.4211023622047245"/><line x1="135.44458352367897" y1="265.01863783693204" x2="138.1337262067915" y2="263.8361154699738" stroke="#1f77b4" stroke-width="1.4211023622047245"/><line x1="138.1337262067915" y1="263.8361154699738" x2="140.82286888990407" y2="262.6535931030155" stroke="#1f77b4" stroke-width="1.4211023622047245"/><line x1="140.82286888990407" y1="262.6535931030155" x2="143.5120115730166" y2="261.4710707360573" stroke="#1f77b4" stroke-width="1.4211023622047245"/><line x1="143.5120115730166" y1="261.4710707360573" x2="146.20115425612914" y2="260.288548369099" stroke="#1f77b4" stroke-width="1.4211023622047245"/><line x1="146.20115425612914" y1="260.288548369099" x2="148.89029693924164" y2="259.10602600214077" stroke="#1f77b4" stroke-width="1.4211023622047245"/><line x1="148.89029693924164" y1="259.10602600214077" x2="151.57943962235416" y2="257.9235036351825" stroke="#1f77b4" stroke-width="1.4211023622047245"/><line x1="151.57943962235416" y1="257.9235036351825" x2="154.2685823054667" y2="256.74098126822423" stroke="#1f77b4" stroke-width="1.4211023622047245"/><line x1="154.2685823054667" y1="256.74098126822423" x2="156.95772498857923" y2="255.55845890126602" stroke="#1f77b4" stroke-width="1.4211023622047245"/><line x1="156.95772498857923" y1="255.55845890126602" x2="159.64686767169172" y2="254.37593653430773" stroke="#1f77b4" stroke-width="1.4211023622047245"/><line x1="159.64686767169172" y1="254.37593653430773" x2="162.33601035480427" y2="253.1934141673495" stroke="#1f77b4" stroke-width="1.4211023622047245"/><line x1="162.33601035480427" y1="253.1934141673495" x2="165.02515303791688" y2="252.01089180039122" stroke="#1f77b4" stroke-width="1.4211023622047245"/><line x1="165.02515303791688" y1="252.01089180039122" x2="167.71429572102937" y2="250.82836943343298" stroke="#1f77b4" stroke-width="1.4211023622047245"/><line x1="167.71429572102937" y1="250.82836943343298" x2="170.40343840414192" y2="249.64584706647474" stroke="#1f77b4" stroke-width="1.4211023622047245"/><line x1="170.40343840414192" y1="249.64584706647474" x2="173.09258108725444" y2="248.46332469951645" stroke="#1f77b4" stroke-width="1.4211023622047245"/><line x1="173.09258108725444" y1="248.46332469951645" x2="175.78172377036697" y2="247.28080233255824" stroke="#1f77b4" stroke-width="1.4211023622047245"/><line x1="175.78172377036697" y1="247.28080233255824" x2="178.47086645347952" y2="246.09827996559994" stroke="#1f77b4" stroke-width="1.4211023622047245"/><line x1="178.47086645347952" y1="246.09827996559994" x2="181.160009136592" y2="244.91575759864168" stroke="#1f77b4" stroke-width="1.4211023622047245"/><line x1="181.160009136592" y1="244.91575759864168" x2="183.84915181970456" y2="243.73323523168347" stroke="#1f77b4" stroke-width="1.4211023622047245"/><line x1="183.84915181970456" y1="243.73323523168347" x2="186.53829450281705" y2="242.55071286472517" stroke="#1f77b4" stroke-width="1.4211023622047245"/><line x1="186.53829450281705" y1="242.55071286472517" x2="189.22743718592966" y2="241.36819049776693" stroke="#1f77b4" stroke-width="1.4211023622047245"/><line x1="189.22743718592966" y1="241.36819049776693" x2="191.91657986904218" y2="240.18566813080866" stroke="#1f77b4" stroke-width="1.4211023622047245"/><line x1="191.91657986904218" y1="240.18566813080866" x2="194.6057225521547" y2="239.0031457638504" stroke="#1f77b4" stroke-width="1.4211023622047245"/><line x1="194.6057225521547" y1="239.0031457638504" x2="197.29486523526725" y2="237.8206233968922" stroke="#1f77b4" stroke-width="1.4211023622047245"/><line x1="197.29486523526725" y1="237.8206233968922" x2="199.98400791837975" y2="236.6381010299339" stroke="#1f77b4" stroke-width="1.4211023622047245"/><line x1="199.98400791837975" y1="236.6381010299339" x2="202.67315060149227" y2="235.45557866297568" stroke="#1f77b4" stroke-width="1.4211023622047245"/><line x1="202.67315060149227" y1="235.45557866297568" x2="205.3622932846048" y2="234.2730562960174" stroke="#1f77b4" stroke-width="1.4211023622047245"/><line x1="205.3622932846048" y1="234.2730562960174" x2="208.05143596771734" y2="233.09053392905918" stroke="#1f77b4" stroke-width="1.4211023622047245"/><line x1="208.05143596771734" y1="233.09053392905918" x2="210.74057865082983" y2="231.9080115621009" stroke="#1f77b4" stroke-width="1.4211023622047245"/><line x1="210.74057865082983" y1="231.9080115621009" x2="213.42972133394235" y2="230.72548919514264" stroke="#1f77b4" stroke-width="1.4211023622047245"/><line x1="213.42972133394235" y1="230.72548919514264" x2="216.1188640170549" y2="229.5429668281844" stroke="#1f77b4" stroke-width="1.4211023622047245"/><line x1="216.1188640170549" y1="229.5429668281844" x2="218.80800670016748" y2="228.3604444612261" stroke="#1f77b4" stroke-width="1.4211023622047245"/><line x1="218.80800670016748" y1="228.3604444612261" x2="221.49714938327998" y2="227.1779220942679" stroke="#1f77b4" stroke-width="1.4211023622047245"/><line x1="221.49714938327998" y1="227.1779220942679" x2="224.18629206639253" y2="225.99539972730963" stroke="#1f77b4" stroke-width="1.4211023622047245"/><line x1="224.18629206639253" y1="225.99539972730963" x2="226.87543474950508" y2="224.81287736035134" stroke="#1f77b4" stroke-width="1.4211023622047245"/><line x1="226.87543474950508" y1="224.81287736035134" x2="229.56457743261757" y2="223.63035499339313" stroke="#1f77b4" stroke-width="1.4211023622047245"/><line x1="229.56457743261757" y1="223.63035499339313" x2="232.25372011573012" y2="222.44783262643483" stroke="#1f77b4" stroke-width="1.4211023622047245"/><line x1="232.25372011573012" y1="222.44783262643483" x2="234.94286279884264" y2="221.2653102594766" stroke="#1f77b4" stroke-width="1.4211023622047245"/><line x1="234.94286279884264" y1="221.2653102594766" x2="237.63200548195516" y2="220.08278789251835" stroke="#1f77b4" stroke-width="1.4211023622047245"/><line x1="237.63200548195516" y1="220.08278789251835" x2="240.3211481650677" y2="218.90026552556006" stroke="#1f77b4" stroke-width="1.4211023622047245"/><line x1="240.3211481650677" y1="218.90026552556006" x2="243.01029084818026" y2="217.71774315860182" stroke="#1f77b4" stroke-width="1.4211023622047245"/><line x1="243.01029084818026" y1="217.71774315860182" x2="245.69943353129275" y2="216.53522079164364" stroke="#1f77b4" stroke-width="1.4211023622047245"/><line x1="245.69943353129275" y1="216.53522079164364" x2="248.3885762144053" y2="215.3526984246853" stroke="#1f77b4" stroke-width="1.4211023622047245"/><line x1="248.3885762144053" y1="215.3526984246853" x2="251.07771889751785" y2="214.17017605772708" stroke="#1f77b4" stroke-width="1.4211023622047245"/><line x1="251.07771889751785" y1="214.17017605772708" x2="253.76686158063038" y2="212.9876536907688" stroke="#1f77b4" stroke-width="1.4211023622047245"/><line x1="253.76686158063038" y1="212.9876536907688" x2="256.4560042637429" y2="211.80513132381057" stroke="#1f77b4" stroke-width="1.4211023622047245"/><line x1="256.4560042637429" y1="211.80513132381057" x2="259.14514694685545" y2="210.62260895685228" stroke="#1f77b4" stroke-width="1.4211023622047245"/><line x1="259.14514694685545" y1="210.62260895685228" x2="261.83428962996794" y2="209.44008658989407" stroke="#1f77b4" stroke-width="1.4211023622047245"/><line x1="261.83428962996794" y1="209.44008658989407" x2="264.5234323130805" y2="208.2575642229358" stroke="#1f77b4" stroke-width="1.4211023622047245"/><line x1="264.5234323130805" y1="208.2575642229358" x2="267.212574996193" y2="207.0750418559776" stroke="#1f77b4" stroke-width="1.4211023622047245"/><line x1="267.212574996193" y1="207.0750418559776" x2="269.90171767930553" y2="205.8925194890193" stroke="#1f77b4" stroke-width="1.4211023622047245"/><line x1="269.90171767930553" y1="205.8925194890193" x2="272.5908603624181" y2="204.709997122061" stroke="#1f77b4" stroke-width="1.4211023622047245"/><line x1="272.5908603624181" y1="204.709997122061" x2="275.28000304553063" y2="203.5274747551028" stroke="#1f77b4" stroke-width="1.4211023622047245"/><line x1="275.28000304553063" y1="203.5274747551028" x2="277.9691457286432" y2="202.34495238814452" stroke="#1f77b4" stroke-width="1.4211023622047245"/><line x1="277.9691457286432" y1="202.34495238814452" x2="280.6582884117557" y2="201.16243002118625" stroke="#1f77b4" stroke-width="1.4211023622047245"/><line x1="280.6582884117557" y1="201.16243002118625" x2="283.3474310948682" y2="199.97990765422801" stroke="#1f77b4" stroke-width="1.4211023622047245"/><line x1="283.3474310948682" y1="199.97990765422801" x2="286.0365737779807" y2="198.79738528726978" stroke="#1f77b4" stroke-width="1.4211023622047245"/><line x1="286.0365737779807" y1="198.79738528726978" x2="288.72571646109327" y2="197.6148629203115" stroke="#1f77b4" stroke-width="1.4211023622047245"/><line x1="288.72571646109327" y1="197.6148629203115" x2="291.4148591442058" y2="196.43234055335324" stroke="#1f77b4" stroke-width="1.4211023622047245"/><line x1="291.4148591442058" y1="196.43234055335324" x2="294.10400182731837" y2="195.24981818639503" stroke="#1f77b4" stroke-width="1.4211023622047245"/><line x1="294.10400182731837" y1="195.24981818639503" x2="296.79314451043086" y2="194.06729581943674" stroke="#1f77b4" stroke-width="1.4211023622047245"/><line x1="296.79314451043086" y1="194.06729581943674" x2="299.4822871935434" y2="192.88477345247844" stroke="#1f77b4" stroke-width="1.4211023622047245"/><line x1="299.4822871935434" y1="192.88477345247844" x2="302.17142987665596" y2="191.70225108552023" stroke="#1f77b4" stroke-width="1.4211023622047245"/><line x1="302.17142987665596" y1="191.70225108552023" x2="304.86057255976846" y2="190.51972871856196" stroke="#1f77b4" stroke-width="1.4211023622047245"/><line x1="304.86057255976846" y1="190.51972871856196" x2="307.549715242881" y2="189.33720635160375" stroke="#1f77b4" stroke-width="1.4211023622047245"/><line x1="307.549715242881" y1="189.33720635160375" x2="310.23885792599356" y2="188.15468398464546" stroke="#1f77b4" stroke-width="1.4211023622047245"/><line x1="310.23885792599356" y1="188.15468398464546" x2="312.9280006091061" y2="186.97216161768722" stroke="#1f77b4" stroke-width="1.4211023622047245"/><line x1="312.9280006091061" y1="186.97216161768722" x2="315.6171432922186" y2="185.78963925072895" stroke="#1f77b4" stroke-width="1.4211023622047245"/><line x1="315.6171432922186" y1="185.78963925072895" x2="318.30628597533115" y2="184.60711688377071" stroke="#1f77b4" stroke-width="1.4211023622047245"/><line x1="318.30628597533115" y1="184.60711688377071" x2="320.99542865844364" y2="183.42459451681248" stroke="#1f77b4" stroke-width="1.4211023622047245"/><line x1="320.99542865844364" y1="183.42459451681248" x2="323.6845713415562" y2="182.24207214985415" stroke="#1f77b4" stroke-width="1.4211023622047245"/><line x1="323.6845713415562" y1="182.24207214985415" x2="326.37371402466874" y2="181.05954978289594" stroke="#1f77b4" stroke-width="1.4211023622047245"/><line x1="326.37371402466874" y1="181.05954978289594" x2="329.0628567077813" y2="179.87702741593765" stroke="#1f77b4" stroke-width="1.4211023622047245"/><line x1="329.0628567077813" y1="179.87702741593765" x2="331.7519993908938" y2="178.69450504897944" stroke="#1f77b4" stroke-width="1.4211023622047245"/><line x1="331.7519993908938" y1="178.69450504897944" x2="334.44114207400634" y2="177.51198268202114" stroke="#1f77b4" stroke-width="1.4211023622047245"/><line x1="334.44114207400634" y1="177.51198268202114" x2="337.13028475711883" y2="176.32946031506293" stroke="#1f77b4" stroke-width="1.4211023622047245"/><line x1="337.13028475711883" y1="176.32946031506293" x2="339.8194274402314" y2="175.1469379481046" stroke="#1f77b4" stroke-width="1.4211023622047245"/><line x1="339.8194274402314" y1="175.1469379481046" x2="342.50857012334393" y2="173.9644155811464" stroke="#1f77b4" stroke-width="1.4211023622047245"/><line x1="342.50857012334393" y1="173.9644155811464" x2="345.1977128064565" y2="172.78189321418816" stroke="#1f77b4" stroke-width="1.4211023622047245"/><line x1="345.1977128064565" y1="172.78189321418816" x2="347.88685548956903" y2="171.59937084722986" stroke="#1f77b4" stroke-width="1.4211023622047245"/><line x1="347.88685548956903" y1="171.59937084722986" x2="350.5759981726815" y2="170.41684848027165" stroke="#1f77b4" stroke-width="1.4211023622047245"/><line x1="350.5759981726815" y1="170.41684848027165" x2="353.2651408557941" y2="169.23432611331341" stroke="#1f77b4" stroke-width="1.4211023622047245"/><line x1="353.2651408557941" y1="169.23432611331341" x2="355.9542835389066" y2="168.05180374635512" stroke="#1f77b4" stroke-width="1.4211023622047245"/><line x1="355.9542835389066" y1="168.05180374635512" x2="358.6434262220192" y2="166.86928137939688" stroke="#1f77b4" stroke-width="1.4211023622047245"/><line x1="358.6434262220192" y1="166.86928137939688" x2="361.33256890513167" y2="165.68675901243864" stroke="#1f77b4" stroke-width="1.4211023622047245"/><line x1="361.33256890513167" y1="165.68675901243864" x2="364.0217115882442" y2="164.50423664548038" stroke="#1f77b4" stroke-width="1.4211023622047245"/><line x1="364.0217115882442" y1="164.50423664548038" x2="366.71085427135677" y2="163.32171427852214" stroke="#1f77b4" stroke-width="1.4211023622047245"/><line x1="366.71085427135677" y1="163.32171427852214" x2="369.3999969544692" y2="162.13919191156384" stroke="#1f77b4" stroke-width="1.4211023622047245"/><line x1="369.3999969544692" y1="162.13919191156384" x2="372.08913963758175" y2="160.9566695446056" stroke="#1f77b4" stroke-width="1.4211023622047245"/><line x1="372.08913963758175" y1="160.9566695446056" x2="374.7782823206943" y2="159.7741471776473" stroke="#1f77b4" stroke-width="1.4211023622047245"/><line x1="374.7782823206943" y1="159.7741471776473" x2="377.46742500380685" y2="158.5916248106891" stroke="#1f77b4" stroke-width="1.4211023622047245"/><line x1="377.46742500380685" y1="158.5916248106891" x2="380.15656768691935" y2="157.40910244373083" stroke="#1f77b4" stroke-width="1.4211023622047245"/><line x1="380.15656768691935" y1="157.40910244373083" x2="382.8457103700319" y2="156.22658007677262" stroke="#1f77b4" stroke-width="1.4211023622047245"/><line x1="382.8457103700319" y1="156.22658007677262" x2="385.53485305314445" y2="155.0440577098143" stroke="#1f77b4" stroke-width="1.4211023622047245"/><line x1="385.53485305314445" y1="155.0440577098143" x2="388.223995736257" y2="153.8615353428561" stroke="#1f77b4" stroke-width="1.4211023622047245"/><line x1="388.223995736257" y1="153.8615353428561" x2="390.9131384193695" y2="152.6790129758978" stroke="#1f77b4" stroke-width="1.4211023622047245"/><line x1="390.9131384193695" y1="152.6790129758978" x2="393.60228110248204" y2="151.49649060893958" stroke="#1f77b4" stroke-width="1.4211023622047245"/><line x1="393.60228110248204" y1="151.49649060893958" x2="396.2914237855946" y2="150.31396824198129" stroke="#1f77b4" stroke-width="1.4211023622047245"/><line x1="396.2914237855946" y1="150.31396824198129" x2="398.98056646870714" y2="149.13144587502305" stroke="#1f77b4" stroke-width="1.4211023622047245"/><line x1="398.98056646870714" y1="149.13144587502305" x2="401.6697091518197" y2="147.94892350806475" stroke="#1f77b4" stroke-width="1.4211023622047245"/><line x1="401.6697091518197" y1="147.94892350806475" x2="404.3588518349321" y2="146.7664011411065" stroke="#1f77b4" stroke-width="1.4211023622047245"/><line x1="404.3588518349321" y1="146.7664011411065" x2="407.0479945180447" y2="145.5838787741483" stroke="#1f77b4" stroke-width="1.4211023622047245"/><line x1="407.0479945180447" y1="145.5838787741483" x2="409.7371372011572" y2="144.40135640719" stroke="#1f77b4" stroke-width="1.4211023622047245"/><line x1="409.7371372011572" y1="144.40135640719" x2="412.4262798842698" y2="143.21883404023177" stroke="#1f77b4" stroke-width="1.4211023622047245"/><line x1="412.4262798842698" y1="143.21883404023177" x2="415.11542256738227" y2="142.03631167327356" stroke="#1f77b4" stroke-width="1.4211023622047245"/><line x1="415.11542256738227" y1="142.03631167327356" x2="417.80456525049476" y2="140.85378930631526" stroke="#1f77b4" stroke-width="1.4211023622047245"/><line x1="417.80456525049476" y1="140.85378930631526" x2="420.49370793360737" y2="139.67126693935703" stroke="#1f77b4" stroke-width="1.4211023622047245"/><line x1="420.49370793360737" y1="139.67126693935703" x2="423.18285061672" y2="138.4887445723988" stroke="#1f77b4" stroke-width="1.4211023622047245"/><line x1="423.18285061672" y1="138.4887445723988" x2="425.87199329983247" y2="137.30622220544052" stroke="#1f77b4" stroke-width="1.4211023622047245"/><line x1="425.87199329983247" y1="137.30622220544052" x2="428.561135982945" y2="136.12369983848228" stroke="#1f77b4" stroke-width="1.4211023622047245"/><line x1="428.561135982945" y1="136.12369983848228" x2="431.25027866605757" y2="134.94117747152399" stroke="#1f77b4" stroke-width="1.4211023622047245"/><line x1="431.25027866605757" y1="134.94117747152399" x2="433.9394213491701" y2="133.75865510456575" stroke="#1f77b4" stroke-width="1.4211023622047245"/><line x1="433.9394213491701" y1="133.75865510456575" x2="436.6285640322825" y2="132.5761327376075" stroke="#1f77b4" stroke-width="1.4211023622047245"/><line x1="436.6285640322825" y1="132.5761327376075" x2="439.31770671539516" y2="131.39361037064924" stroke="#1f77b4" stroke-width="1.4211023622047245"/><line x1="439.31770671539516" y1="131.39361037064924" x2="442.0068493985077" y2="130.21108800369097" stroke="#1f77b4" stroke-width="1.4211023622047245"/><line x1="442.0068493985077" y1="130.21108800369097" x2="444.69599208162015" y2="129.02856563673276" stroke="#1f77b4" stroke-width="1.4211023622047245"/><line x1="444.69599208162015" y1="129.02856563673276" x2="447.3851347647328" y2="127.84604326977444" stroke="#1f77b4" stroke-width="1.4211023622047245"/><line x1="447.3851347647328" y1="127.84604326977444" x2="450.07427744784525" y2="126.66352090281623" stroke="#1f77b4" stroke-width="1.4211023622047245"/><line x1="450.07427744784525" y1="126.66352090281623" x2="452.7634201309578" y2="125.48099853585794" stroke="#1f77b4" stroke-width="1.4211023622047245"/><line x1="452.7634201309578" y1="125.48099853585794" x2="455.45256281407023" y2="124.29847616889973" stroke="#1f77b4" stroke-width="1.4211023622047245"/><line x1="455.45256281407023" y1="124.29847616889973" x2="458.1417054971829" y2="123.11595380194144" stroke="#1f77b4" stroke-width="1.4211023622047245"/><line x1="458.1417054971829" y1="123.11595380194144" x2="460.83084818029533" y2="121.93343143498323" stroke="#1f77b4" stroke-width="1.4211023622047245"/><line x1="460.83084818029533" y1="121.93343143498323" x2="463.51999086340794" y2="120.75090906802491" stroke="#1f77b4" stroke-width="1.4211023622047245"/><line x1="463.51999086340794" y1="120.75090906802491" x2="466.2091335465205" y2="119.56838670106666" stroke="#1f77b4" stroke-width="1.4211023622047245"/><line x1="466.2091335465205" y1="119.56838670106666" x2="468.898276229633" y2="118.38586433410845" stroke="#1f77b4" stroke-width="1.4211023622047245"/><line x1="468.898276229633" y1="118.38586433410845" x2="471.5874189127456" y2="117.20334196715017" stroke="#1f77b4" stroke-width="1.4211023622047245"/><line x1="471.5874189127456" y1="117.20334196715017" x2="474.27656159585797" y2="116.02081960019196" stroke="#1f77b4" stroke-width="1.4211023622047245"/><line x1="474.27656159585797" y1="116.02081960019196" x2="476.96570427897063" y2="114.83829723323367" stroke="#1f77b4" stroke-width="1.4211023622047245"/><line x1="476.96570427897063" y1="114.83829723323367" x2="479.654846962083" y2="113.65577486627542" stroke="#1f77b4" stroke-width="1.4211023622047245"/><line x1="479.654846962083" y1="113.65577486627542" x2="482.3439896451956" y2="112.47325249931714" stroke="#1f77b4" stroke-width="1.4211023622047245"/><line x1="482.3439896451956" y1="112.47325249931714" x2="485.0331323283081" y2="111.29073013235893" stroke="#1f77b4" stroke-width="1.4211023622047245"/><line x1="485.0331323283081" y1="111.29073013235893" x2="487.72227501142066" y2="110.10820776540064" stroke="#1f77b4" stroke-width="1.4211023622047245"/><line x1="487.72227501142066" y1="110.10820776540064" x2="490.41141769453327" y2="108.9256853984424" stroke="#1f77b4" stroke-width="1.4211023622047245"/><line x1="490.41141769453327" y1="108.9256853984424" x2="493.10056037764576" y2="107.74316303148414" stroke="#1f77b4" stroke-width="1.4211023622047245"/><line x1="493.10056037764576" y1="107.74316303148414" x2="495.78970306075837" y2="106.56064066452586" stroke="#1f77b4" stroke-width="1.4211023622047245"/><line x1="495.78970306075837" y1="106.56064066452586" x2="498.4788457438708" y2="105.37811829756761" stroke="#1f77b4" stroke-width="1.4211023622047245"/><line x1="498.4788457438708" y1="105.37811829756761" x2="501.1679884269834" y2="104.19559593060936" stroke="#1f77b4" stroke-width="1.4211023622047245"/><line x1="501.1679884269834" y1="104.19559593060936" x2="503.8571311100958" y2="103.01307356365112" stroke="#1f77b4" stroke-width="1.4211023622047245"/><line x1="503.8571311100958" y1="103.01307356365112" x2="506.54627379320846" y2="101.83055119669287" stroke="#1f77b4" stroke-width="1.4211023622047245"/><line x1="506.54627379320846" y1="101.83055119669287" x2="509.2354164763209" y2="100.64802882973461" stroke="#1f77b4" stroke-width="1.4211023622047245"/><line x1="509.2354164763209" y1="100.64802882973461" x2="511.92455915943344" y2="99.46550646277633" stroke="#1f77b4" stroke-width="1.4211023622047245"/><line x1="511.92455915943344" y1="99.46550646277633" x2="514.6137018425461" y2="98.28298409581808" stroke="#1f77b4" stroke-width="1.4211023622047245"/><line x1="514.6137018425461" y1="98.28298409581808" x2="517.3028445256584" y2="97.10046172885984" stroke="#1f77b4" stroke-width="1.4211023622047245"/><line x1="517.3028445256584" y1="97.10046172885984" x2="519.9919872087711" y2="95.91793936190159" stroke="#1f77b4" stroke-width="1.4211023622047245"/><line x1="519.9919872087711" y1="95.91793936190159" x2="522.6811298918835" y2="94.73541699494334" stroke="#1f77b4" stroke-width="1.4211023622047245"/><line x1="522.6811298918835" y1="94.73541699494334" x2="525.3702725749961" y2="93.55289462798505" stroke="#1f77b4" stroke-width="1.4211023622047245"/><line x1="525.3702725749961" y1="93.55289462798505" x2="528.0594152581086" y2="92.3703722610268" stroke="#1f77b4" stroke-width="1.4211023622047245"/><line x1="528.0594152581086" y1="92.3703722610268" x2="530.7485579412212" y2="91.18784989406856" stroke="#1f77b4" stroke-width="1.4211023622047245"/><line x1="530.7485579412212" y1="91.18784989406856" x2="533.4377006243337" y2="90.00532752711035" stroke="#1f77b4" stroke-width="1.4211023622047245"/><line x1="533.4377006243337" y1="90.00532752711035" x2="536.1268433074463" y2="88.82280516015206" stroke="#1f77b4" stroke-width="1.4211023622047245"/><line x1="536.1268433074463" y1="88.82280516015206" x2="538.8159859905587" y2="87.64028279319385" stroke="#1f77b4" stroke-width="1.4211023622047245"/><line x1="538.8159859905587" y1="87.64028279319385" x2="541.5051286736713" y2="86.45776042623557" stroke="#1f77b4" stroke-width="1.4211023622047245"/><line x1="541.5051286736713" y1="86.45776042623557" x2="544.1942713567839" y2="85.27523805927724" stroke="#1f77b4" stroke-width="1.4211023622047245"/><line x1="544.1942713567839" y1="85.27523805927724" x2="546.8834140398964" y2="84.09271569231908" stroke="#1f77b4" stroke-width="1.4211023622047245"/><line x1="546.8834140398964" y1="84.09271569231908" x2="549.5725567230089" y2="82.91019332536078" stroke="#1f77b4" stroke-width="1.4211023622047245"/><line x1="549.5725567230089" y1="82.91019332536078" x2="552.2616994061214" y2="81.72767095840257" stroke="#1f77b4" stroke-width="1.4211023622047245"/><line x1="552.2616994061214" y1="81.72767095840257" x2="554.9508420892339" y2="80.54514859144433" stroke="#1f77b4" stroke-width="1.4211023622047245"/><line x1="554.9508420892339" y1="80.54514859144433" x2="557.6399847723465" y2="79.36262622448601" stroke="#1f77b4" stroke-width="1.4211023622047245"/><line x1="557.6399847723465" y1="79.36262622448601" x2="560.329127455459" y2="78.18010385752775" stroke="#1f77b4" stroke-width="1.4211023622047245"/><line x1="560.329127455459" y1="78.18010385752775" x2="563.0182701385716" y2="76.99758149056954" stroke="#1f77b4" stroke-width="1.4211023622047245"/><line x1="563.0182701385716" y1="76.99758149056954" x2="565.7074128216841" y2="75.81505912361126" stroke="#1f77b4" stroke-width="1.4211023622047245"/><line x1="565.7074128216841" y1="75.81505912361126" x2="568.3965555047967" y2="74.63253675665301" stroke="#1f77b4" stroke-width="1.4211023622047245"/><line x1="568.3965555047967" y1="74.63253675665301" x2="571.0856981879092" y2="73.45001438969476" stroke="#1f77b4" stroke-width="1.4211023622047245"/><line x1="571.0856981879092" y1="73.45001438969476" x2="573.7748408710218" y2="72.26749202273652" stroke="#1f77b4" stroke-width="1.4211023622047245"/><line x1="573.7748408710218" y1="72.26749202273652" x2="576.4639835541342" y2="71.08496965577822" stroke="#1f77b4" stroke-width="1.4211023622047245"/><line x1="576.4639835541342" y1="71.08496965577822" x2="579.1531262372467" y2="69.90244728881994" stroke="#1f77b4" stroke-width="1.4211023622047245"/><line x1="579.1531262372467" y1="69.90244728881994" x2="581.8422689203593" y2="68.71992492186173" stroke="#1f77b4" stroke-width="1.4211023622047245"/><line x1="581.8422689203593" y1="68.71992492186173" x2="584.5314116034718" y2="67.53740255490348" stroke="#1f77b4" stroke-width="1.4211023622047245"/><line x1="584.5314116034718" y1="67.53740255490348" x2="587.2205542865843" y2="66.35488018794524" stroke="#1f77b4" stroke-width="1.4211023622047245"/><line x1="587.2205542865843" y1="66.35488018794524" x2="589.9096969696968" y2="65.17235782098692" stroke="#1f77b4" stroke-width="1.4211023622047245"/></svg>