<svg xmlns="http://www.w3.org/2000/svg" width="624" height="384" viewBox="0 0 624 384"><rect x="0.0" y="0.0" width="624.0" height="384.0" fill="#ffffff" fill-opacity="1.0" stroke="none"/><line x1="79.09482093663911" y1="7.333333333333333" x2="79.09482093663911" y2="358.3333333333333" stroke="#dddddd" stroke-width="0.6666666666666666"/><line x1="225.04192837465558" y1="7.333333333333333" x2="225.04192837465558" y2="358.3333333333333" stroke="#dddddd" stroke-width="0.6666666666666666"/><line x1="370.9890358126721" y1="7.333333333333333" x2="370.9890358126721" y2="358.3333333333333" stroke="#dddddd" stroke-width="0.6666666666666666"/><line x1="516.9361432506887" y1="7.333333333333333" x2="516.9361432506887" y2="358.3333333333333" stroke="#dddddd" stroke-width="0.6666666666666666"/><line x1="152.06837465564735" y1="7.333333333333333" x2="152.06837465564735" y2="358.3333333333333" stroke="#dddddd" stroke-width="1.3333333333333333"/><line x1="298.0154820936638" y1="7.333333333333333" x2="298.0154820936638" y2="358.3333333333333" stroke="#dddddd" stroke-width="1.3333333333333333"/><line x1="443.9625895316804" y1="7.333333333333333" x2="443.9625895316804" y2="358.3333333333333" stroke="#dddddd" stroke-width="1.3333333333333333"/><line x1="589.9096969696968" y1="7.333333333333333" x2="589.9096969696968" y2="358.3333333333333" stroke="#dddddd" stroke-width="1.3333333333333333"/><line x1="28.01333333333333" y1="294.75327905924917" x2="616.6666666666666" y2="294.75327905924917" stroke="#dddddd" stroke-width="0.6666666666666666"/><line x1="28.01333333333333" y1="199.5022614201718" x2="616.6666666666666" y2="199.5022614201718" stroke="#dddddd" stroke-width="0.6666666666666666"/><line x1="28.01333333333333" y1="104.25124378109447" x2="616.6666666666666" y2="104.25124378109447" stroke="#dddddd" stroke-width="0.6666666666666666"/><line x1="28.01333333333333" y1="9.000226142017178" x2="616.6666666666666" y2="9.000226142017178" stroke="#dddddd" stroke-width="0.6666666666666666"/><line x1="28.01333333333333" y1="342.3787878787878" x2="616.6666666666666" y2="342.3787878787878" stroke="#dddddd" stroke-width="1.3333333333333333"/><line x1="28.01333333333333" y1="247.1277702397105" x2="616.6666666666666" y2="247.1277702397105" stroke="#dddddd" stroke-width="1.3333333333333333"/><line x1="28.01333333333333" y1="151.87675260063315" x2="616.6666666666666" y2="151.87675260063315" stroke="#dddddd" stroke-width="1.3333333333333333"/><line x1="28.01333333333333" y1="56.62573496155581" x2="616.6666666666666" y2="56.62573496155581" stroke="#dddddd" stroke-width="1.3333333333333333"/><rect x="28.01333333333333" y="7.333333333333333" width="588.6533333333333" height="351.0" fill="#ffffff" fill-opacity="0.0" stroke="#444444" stroke-width="1.3333333333333333"/><line x1="152.06837465564735" y1="358.3333333333333" x2="152.06837465564735" y2="362.0" stroke="#444444" stroke-width="1.3333333333333333"/><text x="152.06837465564735" y="374.32" fill="#333333" font-size="11.733333333333334" font-family="sans-serif" text-anchor="middle">3</text><line x1="298.0154820936638" y1="358.3333333333333" x2="298.0154820936638" y2="362.0" stroke="#444444" stroke-width="1.3333333333333333"/><text x="298.0154820936638" y="374.32" fill="#333333" font-size="11.733333333333334" font-family="sans-serif" text-anchor="middle">6</text><line x1="443.9625895316804" y1="358.3333333333333" x2="443.9625895316804" y2="362.0" stroke="#444444" stroke-width="1.3333333333333333"/><text x="443.9625895316804" y="374.32" fill="#333333" font-size="11.733333333333334" font-family="sans-serif" text-anchor="middle">9</text><line x1="589.9096969696968" y1="358.3333333333333" x2="589.9096969696968" y2="362.0" stroke="#444444" stroke-width="1.3333333333333333"/><text x="589.9096969696968" y="374.32" fill="#333333" font-size="11.733333333333334" font-family="sans-serif" text-anchor="middle">12</text><line x1="28.01333333333333" y1="342.3787878787878" x2="24.346666666666664" y2="342.3787878787878" stroke="#444444" stroke-width="1.3333333333333333"/><text x="21.41333333333333" y="346.48545454545444" fill="#333333" font-size="11.733333333333334" font-family="sans-serif" text-anchor="end">0</text><line x1="28.01333333333333" y1="247.1277702397105" x2="24.346666666666664" y2="247.1277702397105" stroke="#444444" stroke-width="1.3333333333333333"/><text x="21.41333333333333" y="251.23443690637717" fill="#333333" font-size="11.733333333333334" font-family="sans-serif" text-anchor="end">20</text><line x1="28.01333333333333" y1="151.87675260063315" x2="24.346666666666664" y2="151.87675260063315" stroke="#444444" stroke-width="1.3333333333333333"/><text x="21.41333333333333" y="155.9834192672998" fill="#333333" font-size="11.733333333333334" font-family="sans-serif" text-anchor="end">40</text><line x1="28.01333333333333" y1="56.62573496155581" x2="24.346666666666664" y2="56.62573496155581" stroke="#444444" stroke-width="1.3333333333333333"/><text x="21.41333333333333" y="60.732401628222476" fill="#333333" font-size="11.733333333333334" font-family="sans-serif" text-anchor="end">60</text><circle cx="54.770303030303026" cy="337.616236996834" r="3.1181102362204727" fill="#1f77b4" fill-opacity="0.85" stroke="none"><title>(1, 1)</title></circle><circle cx="103.41933884297521" cy="332.85368611488013" r="3.1181102362204727" fill="#1f77b4" fill-opacity="0.85" stroke="none"><title>(2, 2)</title></circle><circle cx="152.06837465564735" cy="332.85368611488013" r="3.1181102362204727" fill="#1f77b4" fill-opacity="0.85" stroke="none"><title>(3, 2)</title></circle><circle cx="200.7174104683195" cy="323.3285843509724" r="3.1181102362204727" fill="#1f77b4" fill-opacity="0.85" stroke="none"><title>(4, 4)</title></circle><circle cx="249.3664462809917" cy="318.5660334690185" r="3.1181102362204727" fill="#1f77b4" fill-opacity="0.85" stroke="none"><title>(5, 5)</title></circle><circle cx="298.0154820936638" cy="304.2783808231569" r="3.1181102362204727" fill="#1f77b4" fill-opacity="0.85" stroke="none"><title>(6, 8)</title></circle><circle cx="346.6645179063361" cy="289.9907281772953" r="3.1181102362204727" fill="#1f77b4" fill-opacity="0.85" stroke="none"><title>(7, 11)</title></circle><circle cx="395.31355371900815" cy="270.9405246494798" r="3.1181102362204727" fill="#1f77b4" fill-opacity="0.85" stroke="none"><title>(8, 15)</title></circle><circle cx="443.9625895316804" cy="247.1277702397105" r="3.1181102362204727" fill="#1f77b4" fill-opacity="0.85" stroke="none"><title>(9, 20)</title></circle><circle cx="492.61162534435255" cy="213.78991406603342" r="3.1181102362204727" fill="#1f77b4" fill-opacity="0.85" stroke="none"><title>(10, 27)</title></circle><circle cx="541.2606611570247" cy="170.92695612844864" r="3.1181102362204727" fill="#1f77b4" fill-opacity="0.85" stroke="none"><title>(11, 36)</title></circle><circle cx="589.9096969696968" cy="109.01379466304834" r="3.1181102362204727" fill="#1f77b4" fill-opacity="0.85" stroke="none"><title>(12, 49)</title></circle><path d="M 54.770303030303026 342.3787878787878 L 57.45944571341555 342.3787878787878 L 60.14858839652809 342.3787878787878 L 62.83773107964062 342.3787878787878 L 65.52687376275316 342.3787878787878 L 68.21601644586568 342.3787878787878 L 70.9051591289782 342.3787878787878 L 73.59430181209075 342.3787878787878 L 76.28344449520328 342.3787878787878 L 78.97258717831582 342.3787878787878 L 81.66172986142834 342.3787878787878 L 84.35087254454086 342.3787878787878 L 87.04001522765341 342.3787878787878 L 89.72915791076595 342.3787878787878 L 92.41830059387848 342.3787878787878 L 95.10744327699099 342.3787878787878 L 97.79658596010354 342.3787878787878 L 100.48572864321608 342.3787878787878 L 103.1748713263286 342.3787878787878 L 105.86401400944114 342.3787878787878 L 108.55315669255367 342.3787878787878 L 111.24229937566619 342.3787878787878 L 113.93144205877869 342.3787878787878 L 116.62058474189128 342.3787878787878 L 119.30972742500379 342.3787878787878 L 121.99887010811634 342.3787878787878 L 124.68801279122889 342.3787878787878 L 127.37715547434141 342.3787878787878 L 130.0662981574539 342.3787878787878 L 132.75544084056642 342.3787878787878 L 135.44458352367897 342.3787878787878 L 138.1337262067915 342.3787878787878 L 140.82286888990407 342.3787878787878 L 143.5120115730166 342.3787878787878 L 146.20115425612914 342.3787878787878 L 148.89029693924164 342.3787878787878 L 151.57943962235416 342.3787878787878 L 154.2685823054667 342.3787878787878 L 156.95772498857923 342.3787878787878 L 159.64686767169172 342.3787878787878 L 162.33601035480427 342.3787878787878 L 165.02515303791688 342.3787878787878 L 167.71429572102937 342.3787878787878 L 170.40343840414192 342.3787878787878 L 173.09258108725444 342.3787878787878 L 175.78172377036697 342.3787878787878 L 178.47086645347952 342.3787878787878 L 181.160009136592 342.3787878787878 L 183.84915181970456 342.3787878787878 L 186.53829450281705 342.3787878787878 L 189.22743718592966 337.616236996834 L 191.91657986904218 342.3787878787878 L 194.6057225521547 342.3787878787878 L 197.29486523526725 337.616236996834 L 199.98400791837975 337.616236996834 L 202.67315060149227 342.3787878787878 L 205.3622932846048 337.616236996834 L 208.05143596771734 337.616236996834 L 210.74057865082983 337.616236996834 L 213.42972133394235 337.616236996834 L 216.1188640170549 337.616236996834 L 218.80800670016748 337.616236996834 L 221.49714938327998 337.616236996834 L 224.18629206639253 337.616236996834 L 226.87543474950508 337.616236996834 L 229.56457743261757 337.616236996834 L 232.25372011573012 337.616236996834 L 234.94286279884264 337.616236996834 L 237.63200548195516 337.616236996834 L 240.3211481650677 337.616236996834 L 243.01029084818026 337.616236996834 L 245.69943353129275 337.616236996834 L 248.3885762144053 337.616236996834 L 251.07771889751785 337.616236996834 L 253.76686158063038 337.616236996834 L 256.4560042637429 332.85368611488013 L 259.14514694685545 332.85368611488013 L 261.83428962996794 332.85368611488013 L 264.5234323130805 332.85368611488013 L 267.212574996193 332.85368611488013 L 269.90171767930553 332.85368611488013 L 272.5908603624181 332.85368611488013 L 275.28000304553063 332.85368611488013 L 277.9691457286432 332.85368611488013 L 280.6582884117557 332.85368611488013 L 283.3474310948682 332.85368611488013 L 286.0365737779807 332.85368611488013 L 288.72571646109327 332.85368611488013 L 291.4148591442058 332.85368611488013 L 294.10400182731837 332.85368611488013 L 296.79314451043086 332.85368611488013 L 299.4822871935434 328.09113523292626 L 302.17142987665596 332.85368611488013 L 304.86057255976846 328.09113523292626 L 307.549715242881 328.09113523292626 L 310.23885792599356 328.09113523292626 L 312.9280006091061 328.09113523292626 L 315.6171432922186 328.09113523292626 L 318.30628597533115 328.09113523292626 L 320.99542865844364 328.09113523292626 L 323.6845713415562 328.09113523292626 L 326.37371402466874 323.3285843509724 L 329.0628567077813 323.3285843509724 L 331.7519993908938 323.3285843509724 L 334.44114207400634 323.3285843509724 L 337.13028475711883 323.3285843509724 L 339.8194274402314 323.3285843509724 L 342.50857012334393 323.3285843509724 L 345.1977128064565 323.3285843509724 L 347.88685548956903 318.5660334690185 L 350.5759981726815 318.5660334690185 L 353.2651408557941 318.5660334690185 L 355.9542835389066 318.5660334690185 L 358.6434262220192 318.5660334690185 L 361.33256890513167 318.5660334690185 L 364.0217115882442 313.80348258706465 L 366.71085427135677 313.80348258706465 L 369.3999969544692 313.80348258706465 L 372.08913963758175 313.80348258706465 L 374.7782823206943 313.80348258706465 L 377.46742500380685 313.80348258706465 L 380.15656768691935 313.80348258706465 L 382.8457103700319 309.0409317051108 L 385.53485305314445 313.80348258706465 L 388.223995736257 309.0409317051108 L 390.9131384193695 309.0409317051108 L 393.60228110248204 309.0409317051108 L 396.2914237855946 309.0409317051108 L 398.98056646870714 309.0409317051108 L 401.6697091518197 304.2783808231569 L 404.3588518349321 304.2783808231569 L 407.0479945180447 304.2783808231569 L 409.7371372011572 304.2783808231569 L 412.4262798842698 299.51582994120304 L 415.11542256738227 299.51582994120304 L 417.80456525049476 299.51582994120304 L 420.49370793360737 299.51582994120304 L 423.18285061672 299.51582994120304 L 425.87199329983247 299.51582994120304 L 428.561135982945 294.75327905924917 L 431.25027866605757 294.75327905924917 L 433.9394213491701 289.9907281772953 L 436.6285640322825 289.9907281772953 L 439.31770671539516 289.9907281772953 L 442.0068493985077 289.9907281772953 L 444.69599208162015 289.9907281772953 L 447.3851347647328 289.9907281772953 L 450.07427744784525 285.2281772953414 L 452.7634201309578 285.2281772953414 L 455.45256281407023 285.2281772953414 L 458.1417054971829 280.46562641338755 L 460.83084818029533 280.46562641338755 L 463.51999086340794 280.46562641338755 L 466.2091335465205 275.7030755314337 L 468.898276229633 280.46562641338755 L 471.5874189127456 275.7030755314337 L 474.27656159585797 270.9405246494798 L 476.96570427897063 270.9405246494798 L 479.654846962083 270.9405246494798 L 482.3439896451956 270.9405246494798 L 485.0331323283081 266.17797376752594 L 487.72227501142066 261.41542288557207 L 490.41141769453327 266.17797376752594 L 493.10056037764576 256.6528720036182 L 495.78970306075837 256.6528720036182 L 498.4788457438708 256.6528720036182 L 501.1679884269834 256.6528720036182 L 503.8571311100958 251.89032112166439 L 506.54627379320846 251.89032112166439 L 509.2354164763209 247.1277702397105 L 511.92455915943344 247.1277702397105 L 514.6137018425461 247.1277702397105 L 517.3028445256584 242.36521935775664 L 519.9919872087711 242.36521935775664 L 522.6811298918835 242.36521935775664 L 525.3702725749961 237.60266847580274 L 528.0594152581086 237.60266847580274 L 530.7485579412212 232.8401175938489 L 533.4377006243337 228.077566711895 L 536.1268433074463 228.077566711895 L 538.8159859905587 223.31501582994116 L 541.5051286736713 223.31501582994116 L 544.1942713567839 218.5524649479873 L 546.8834140398964 218.5524649479873 L 549.5725567230089 213.78991406603342 L 552.2616994061214 209.0273631840796 L 554.9508420892339 209.0273631840796 L 557.6399847723465 204.26481230212568 L 560.329127455459 199.5022614201718 L 563.0182701385716 199.5022614201718 L 565.7074128216841 194.73971053821793 L 568.3965555047967 189.97715965626412 L 571.0856981879092 194.73971053821793 L 573.7748408710218 189.97715965626412 L 576.4639835541342 185.21460877431025 L 579.1531262372467 180.45205789235638 L 581.8422689203593 175.68950701040245 L 584.5314116034718 170.92695612844864 L 587.2205542865843 170.92695612844864 L 589.9096969696968 166.16440524649477 L 589.9096969696968 23.28787878787879 L 587.2205542865843 28.050429669832624 L 584.5314116034718 28.050429669832624 L 581.8422689203593 42.33808231569424 L 579.1531262372467 42.33808231569424 L 576.4639835541342 51.86318407960198 L 573.7748408710218 51.86318407960198 L 571.0856981879092 56.62573496155581 L 568.3965555047967 61.38828584350964 L 565.7074128216841 70.91338760741742 L 563.0182701385716 75.67593848937125 L 560.329127455459 70.91338760741742 L 557.6399847723465 80.43848937132516 L 554.9508420892339 85.20104025327899 L 552.2616994061214 89.96359113523286 L 549.5725567230089 94.72614201718673 L 546.8834140398964 99.4886928991406 L 544.1942713567839 99.4886928991406 L 541.5051286736713 104.25124378109447 L 538.8159859905587 109.01379466304834 L 536.1268433074463 109.01379466304834 L 533.4377006243337 113.77634554500221 L 530.7485579412212 123.30144730890996 L 528.0594152581086 123.30144730890996 L 525.3702725749961 123.30144730890996 L 522.6811298918835 128.06399819086383 L 519.9919872087711 132.82654907281767 L 517.3028445256584 137.58909995477157 L 514.6137018425461 142.3516508367254 L 511.92455915943344 142.3516508367254 L 509.2354164763209 151.87675260063315 L 506.54627379320846 147.11420171867928 L 503.8571311100958 151.87675260063315 L 501.1679884269834 156.63930348258702 L 498.4788457438708 161.4018543645409 L 495.78970306075837 156.63930348258702 L 493.10056037764576 161.4018543645409 L 490.41141769453327 166.16440524649477 L 487.72227501142066 170.92695612844864 L 485.0331323283081 170.92695612844864 L 482.3439896451956 170.92695612844864 L 479.654846962083 180.45205789235638 L 476.96570427897063 180.45205789235638 L 474.27656159585797 185.21460877431025 L 471.5874189127456 185.21460877431025 L 468.898276229633 185.21460877431025 L 466.2091335465205 189.97715965626412 L 463.51999086340794 189.97715965626412 L 460.83084818029533 189.97715965626412 L 458.1417054971829 199.5022614201718 L 455.45256281407023 199.5022614201718 L 452.7634201309578 199.5022614201718 L 450.07427744784525 204.26481230212568 L 447.3851347647328 204.26481230212568 L 444.69599208162015 209.0273631840796 L 442.0068493985077 209.0273631840796 L 439.31770671539516 209.0273631840796 L 436.6285640322825 209.0273631840796 L 433.9394213491701 213.78991406603342 L 431.25027866605757 218.5524649479873 L 428.561135982945 218.5524649479873 L 425.87199329983247 218.5524649479873 L 423.18285061672 218.5524649479873 L 420.49370793360737 218.5524649479873 L 417.80456525049476 223.31501582994116 L 415.11542256738227 228.077566711895 L 412.4262798842698 228.077566711895 L 409.7371372011572 228.077566711895 L 407.0479945180447 228.077566711895 L 404.3588518349321 232.8401175938489 L 401.6697091518197 232.8401175938489 L 398.98056646870714 237.60266847580274 L 396.2914237855946 237.60266847580274 L 393.60228110248204 237.60266847580274 L 390.9131384193695 242.36521935775664 L 388.223995736257 237.60266847580274 L 385.53485305314445 242.36521935775664 L 382.8457103700319 242.36521935775664 L 380.15656768691935 247.1277702397105 L 377.46742500380685 247.1277702397105 L 374.7782823206943 247.1277702397105 L 372.08913963758175 251.89032112166439 L 369.3999969544692 251.89032112166439 L 366.71085427135677 256.6528720036182 L 364.0217115882442 251.89032112166439 L 361.33256890513167 256.6528720036182 L 358.6434262220192 256.6528720036182 L 355.9542835389066 256.6528720036182 L 353.2651408557941 261.41542288557207 L 350.5759981726815 256.6528720036182 L 347.88685548956903 261.41542288557207 L 345.1977128064565 261.41542288557207 L 342.50857012334393 266.17797376752594 L 339.8194274402314 261.41542288557207 L 337.13028475711883 266.17797376752594 L 334.44114207400634 266.17797376752594 L 331.7519993908938 266.17797376752594 L 329.0628567077813 266.17797376752594 L 326.37371402466874 266.17797376752594 L 323.6845713415562 270.9405246494798 L 320.99542865844364 270.9405246494798 L 318.30628597533115 275.7030755314337 L 315.6171432922186 275.7030755314337 L 312.9280006091061 275.7030755314337 L 310.23885792599356 275.7030755314337 L 307.549715242881 280.46562641338755 L 304.86057255976846 275.7030755314337 L 302.17142987665596 275.7030755314337 L 299.4822871935434 280.46562641338755 L 296.79314451043086 280.46562641338755 L 294.10400182731837 280.46562641338755 L 291.4148591442058 280.46562641338755 L 288.72571646109327 285.2281772953414 L 286.0365737779807 280.46562641338755 L 283.3474310948682 285.2281772953414 L 280.6582884117557 285.2281772953414 L 277.9691457286432 285.2281772953414 L 275.28000304553063 285.2281772953414 L 272.5908603624181 289.9907281772953 L 269.90171767930553 289.9907281772953 L 267.212574996193 289.9907281772953 L 264.5234323130805 289.9907281772953 L 261.83428962996794 289.9907281772953 L 259.14514694685545 289.9907281772953 L 256.4560042637429 289.9907281772953 L 253.76686158063038 294.75327905924917 L 251.07771889751785 294.75327905924917 L 248.3885762144053 294.75327905924917 L 245.69943353129275 294.75327905924917 L 243.01029084818026 294.75327905924917 L 240.3211481650677 294.75327905924917 L 237.63200548195516 294.75327905924917 L 234.94286279884264 294.75327905924917 L 232.25372011573012 299.51582994120304 L 229.56457743261757 299.51582994120304 L 226.87543474950508 299.51582994120304 L 224.18629206639253 299.51582994120304 L 221.49714938327998 299.51582994120304 L 218.80800670016748 299.51582994120304 L 216.1188640170549 299.51582994120304 L 213.42972133394235 304.2783808231569 L 210.74057865082983 299.51582994120304 L 208.05143596771734 299.51582994120304 L 205.3622932846048 299.51582994120304 L 202.67315060149227 304.2783808231569 L 199.98400791837975 304.2783808231569 L 197.29486523526725 304.2783808231569 L 194.6057225521547 304.2783808231569 L 191.91657986904218 304.2783808231569 L 189.22743718592966 309.0409317051108 L 186.53829450281705 309.0409317051108 L 183.84915181970456 304.2783808231569 L 181.160009136592 304.2783808231569 L 178.47086645347952 309.0409317051108 L 175.78172377036697 309.0409317051108 L 173.09258108725444 309.0409317051108 L 170.40343840414192 309.0409317051108 L 167.71429572102937 309.0409317051108 L 165.02515303791688 309.0409317051108 L 162.33601035480427 309.0409317051108 L 159.64686767169172 309.0409317051108 L 156.95772498857923 309.0409317051108 L 154.2685823054667 309.0409317051108 L 151.57943962235416 313.80348258706465 L 148.89029693924164 313.80348258706465 L 146.20115425612914 313.80348258706465 L 143.5120115730166 313.80348258706465 L 140.82286888990407 313.80348258706465 L 138.1337262067915 313.80348258706465 L 135.44458352367897 313.80348258706465 L 132.75544084056642 313.80348258706465 L 130.0662981574539 313.80348258706465 L 127.37715547434141 313.80348258706465 L 124.68801279122889 313.80348258706465 L 121.99887010811634 313.80348258706465 L 119.30972742500379 313.80348258706465 L 116.62058474189128 318.5660334690185 L 113.93144205877869 318.5660334690185 L 111.24229937566619 313.80348258706465 L 108.55315669255367 318.5660334690185 L 105.86401400944114 318.5660334690185 L 103.1748713263286 318.5660334690185 L 100.48572864321608 318.5660334690185 L 97.79658596010354 318.5660334690185 L 95.10744327699099 318.5660334690185 L 92.41830059387848 318.5660334690185 L 89.72915791076595 318.5660334690185 L 87.04001522765341 318.5660334690185 L 84.35087254454086 318.5660334690185 L 81.66172986142834 318.5660334690185 L 78.97258717831582 318.5660334690185 L 76.28344449520328 318.5660334690185 L 73.59430181209075 323.3285843509724 L 70.9051591289782 318.5660334690185 L 68.21601644586568 323.3285843509724 L 65.52687376275316 318.5660334690185 L 62.83773107964062 323.3285843509724 L 60.14858839652809 323.3285843509724 L 57.45944571341555 323.3285843509724 L 54.770303030303026 323.3285843509724 Z" fill="#1f77b4" fill-opacity="0.1" stroke="none"/><path d="M 54.770303030303026 336.46837805477116 L 57.45944571341555 336.3532097399859 L 60.14858839652809 336.2357972930465 L 62.83773107964062 336.11814555477366 L 65.52687376275316 336.0000143489213 L 68.21601644586568 335.87965414146277 L 70.9051591289782 335.7511508891674 L 73.59430181209075 335.62591201417683 L 76.28344449520328 335.49892577262347 L 78.97258717831582 335.3695515846799 L 81.66172986142834 335.2377445455764 L 84.35087254454086 335.10345890611916 L 87.04001522765341 334.966648056812 L 89.72915791076595 334.82669297867636 L 92.41830059387848 334.6757405719914 L 95.10744327699099 334.52872080569324 L 97.79658596010354 334.380872162732 L 100.48572864321608 334.2280093263692 L 103.1748713263286 334.06673854503015 L 105.86401400944114 333.90227687036145 L 108.55315669255367 333.73456116755256 L 111.24229937566619 333.5635270526115 L 113.93144205877869 333.3891088676488 L 116.62058474189128 333.21465607208 L 119.30972742500379 333.04176832287715 L 121.99887010811634 332.8627320484541 L 124.68801279122889 332.6764255512918 L 127.37715547434141 332.48647152289357 L 130.0662981574539 332.29790137152054 L 132.75544084056642 332.10742954252976 L 135.44458352367897 331.91335887155094 L 138.1337262067915 331.71562136079285 L 140.82286888990407 331.51172184020993 L 143.5120115730166 331.3072334544735 L 146.20115425612914 331.0988971580174 L 148.89029693924164 330.8866405437127 L 151.57943962235416 330.6694599811125 L 154.2685823054667 330.4482198055273 L 156.95772498857923 330.2227994399498 L 159.64686767169172 329.9931199023946 L 162.33601035480427 329.75910071856237 L 165.02515303791688 329.5118812622013 L 167.71429572102937 329.262065653391 L 170.40343840414192 329.0163370293758 L 173.09258108725444 328.7660049262579 L 175.78172377036697 328.5041766017398 L 178.47086645347952 328.2258476089522 L 181.160009136592 327.9424217883326 L 183.84915181970456 327.6714854662331 L 186.53829450281705 327.39546431252336 L 189.22743718592966 327.1169688466981 L 191.91657986904218 326.8341755969507 L 194.6057225521547 326.54614234128167 L 197.29486523526725 326.23859570991874 L 199.98400791837975 325.93568261691377 L 202.67315060149227 325.62214902421863 L 205.3622932846048 325.2826917150751 L 208.05143596771734 324.9640713534592 L 210.74057865082983 324.63951285638456 L 213.42972133394235 324.3089055546756 L 216.1188640170549 323.9721367166127 L 218.80800670016748 323.62909150949235 L 221.49714938327998 323.27965296047125 L 224.18629206639253 322.92370191668033 L 226.87543474950508 322.5611170045954 L 229.56457743261757 322.1917745886512 L 232.25372011573012 321.8059316834599 L 234.94286279884264 321.40903181741135 L 237.63200548195516 321.0176975796473 L 240.3211481650677 320.6190603248525 L 243.01029084818026 320.2129837652898 L 245.69943353129275 319.7973598460343 L 248.3885762144053 319.36300676467295 L 251.07771889751785 318.9226268462368 L 253.76686158063038 318.46907559331055 L 256.4560042637429 318.00917300474987 L 259.14514694685545 317.5404242038869 L 261.83428962996794 317.062659034097 L 264.5234323130805 316.58604430406234 L 267.212574996193 316.1010995120455 L 269.90171767930553 315.6089348891193 L 272.5908603624181 315.10411970201204 L 275.28000304553063 314.5908697790402 L 277.9691457286432 314.06841251797283 L 280.6582884117557 313.53613222559153 L 283.3474310948682 312.993844213212 L 286.0365737779807 312.44136031970737 L 288.72571646109327 311.8784888462211 L 291.4148591442058 311.30503448965186 L 294.10400182731837 310.7232696618546 L 296.79314451043086 310.1255774857671 L 299.4822871935434 309.51916559474023 L 302.17142987665596 308.90135219120975 L 304.86057255976846 308.27192290852264 L 307.549715242881 307.6306593495905 L 310.23885792599356 306.9831799153668 L 312.9280006091061 306.3117352063623 L 315.6171432922186 305.63361698655297 L 318.30628597533115 304.94516409632524 L 320.99542865844364 304.24925647909254 L 323.6845713415562 303.54041163156285 L 326.37371402466874 302.8183890449049 L 329.0628567077813 302.0829437391218 L 331.7519993908938 301.33382617993016 L 334.44114207400634 300.565479831474 L 337.13028475711883 299.7754444259386 L 339.8194274402314 298.97048181250807 L 342.50857012334393 298.17140272501666 L 345.1977128064565 297.3580928115836 L 347.88685548956903 296.5298199453998 L 350.5759981726815 295.6585029737412 L 353.2651408557941 294.74366996605056 L 355.9542835389066 293.8550844891832 L 358.6434262220192 292.9535354813891 L 361.33256890513167 292.0408970596925 L 364.0217115882442 291.1114067485596 L 366.71085427135677 290.16475337746476 L 369.3999969544692 289.18774835172974 L 372.08913963758175 288.174255498783 L 374.7782823206943 287.15314212197507 L 377.46742500380685 286.1123822357415 L 380.15656768691935 285.07356679730066 L 382.8457103700319 284.0136340102122 L 385.53485305314445 282.9350834924462 L 388.223995736257 281.83660205456323 L 390.9131384193695 280.7165398006931 L 393.60228110248204 279.5532384093702 L 396.2914237855946 278.3679905245406 L 398.98056646870714 277.1707218769441 L 401.6697091518197 275.9738338217311 L 404.3588518349321 274.75497699632535 L 407.0479945180447 273.51374816597007 L 409.7371372011572 272.2497366945716 L 412.4262798842698 270.9423878122939 L 415.11542256738227 269.6016961606156 L 417.80456525049476 268.2358429092036 L 420.49370793360737 266.84435583456036 L 423.18285061672 265.4262281992035 L 425.87199329983247 263.9781920272226 L 428.561135982945 262.5112354974625 L 431.25027866605757 261.0123111309217 L 433.9394213491701 259.4852555122062 L 436.6285640322825 257.96799440668366 L 439.31770671539516 256.4385981370966 L 442.0068493985077 254.8500826180503 L 444.69599208162015 253.25369868063535 L 447.3851347647328 251.63256351495033 L 450.07427744784525 249.98194081383554 L 452.7634201309578 248.29090950739888 L 455.45256281407023 246.58212878369238 L 458.1417054971829 244.82572727014022 L 460.83084818029533 243.0121727407568 L 463.51999086340794 241.16490343081665 L 466.2091335465205 239.30452332722473 L 468.898276229633 237.36670172657574 L 471.5874189127456 235.41448061436108 L 474.27656159585797 233.44501529025925 L 476.96570427897063 231.40048573252716 L 479.654846962083 229.33735002704628 L 482.3439896451956 227.27756966921368 L 485.0331323283081 225.159350593788 L 487.72227501142066 222.99713882356826 L 490.41141769453327 220.82946674310756 L 493.10056037764576 218.62243516069998 L 495.78970306075837 216.33918785286087 L 498.4788457438708 213.98705697161134 L 501.1679884269834 211.6555764356699 L 503.8571311100958 209.29863590655486 L 506.54627379320846 206.82503477534488 L 509.2354164763209 204.3694442343774 L 511.92455915943344 201.81912029658056 L 514.6137018425461 199.23223611269898 L 517.3028445256584 196.62402096174984 L 519.9919872087711 193.98034485792914 L 522.6811298918835 191.28256425663645 L 525.3702725749961 188.53107343167508 L 528.0594152581086 185.7318531678093 L 530.7485579412212 182.89582248411196 L 533.4377006243337 180.0221402863699 L 536.1268433074463 177.09667795428425 L 538.8159859905587 174.1185024750418 L 541.5051286736713 171.08666402411274 L 544.1942713567839 168.00985977512 L 546.8834140398964 164.85930104090417 L 549.5725567230089 161.65181691037077 L 552.2616994061214 158.38637883556424 L 554.9508420892339 155.0880678847936 L 557.6399847723465 151.71913079542858 L 560.329127455459 148.34604526138526 L 563.0182701385716 144.8933500901907 L 565.7074128216841 141.4162079177409 L 568.3965555047967 137.884371880939 L 571.0856981879092 134.26795653669234 L 573.7748408710218 130.59712285507015 L 576.4639835541342 126.89385863613332 L 579.1531262372467 123.13969233342394 L 581.8422689203593 119.37674901327435 L 584.5314116034718 115.52973485074247 L 587.2205542865843 111.45069801690809 L 589.9096969696968 107.44341711140505 L 589.9096969696968 65.37724559566527 L 587.2205542865843 70.61367766055187 L 584.5314116034718 75.84271401298811 L 581.8422689203593 80.97113840256762 L 579.1531262372467 86.00088670549879 L 576.4639835541342 90.93385754976921 L 573.7748408710218 95.7719130318377 L 571.0856981879092 100.51687941953897 L 568.3965555047967 105.17054784146194 L 565.7074128216841 109.7346749630656 L 563.0182701385716 114.21098364978316 L 560.329127455459 118.60116361736974 L 557.6399847723465 122.90687206973575 L 554.9508420892339 127.12973432450708 L 552.2616994061214 131.2713444265508 L 549.5725567230089 135.33326574969345 L 546.8834140398964 139.31703158686372 L 544.1942713567839 143.1954704488395 L 541.5051286736713 146.9638847044944 L 538.8159859905587 150.6610030997055 L 536.1268433074463 154.28817450414877 L 533.4377006243337 157.84672226779446 L 530.7485579412212 161.3379447037219 L 528.0594152581086 164.7631155618016 L 525.3702725749961 168.12348449341386 L 522.6811298918835 171.42027750737628 L 519.9919872087711 174.6546974172451 L 517.3028445256584 177.83874591487336 L 514.6137018425461 180.9982732368282 L 511.92455915943344 184.09713074990862 L 509.2354164763209 187.13648344663812 L 506.54627379320846 190.11747394914568 L 503.8571311100958 193.04122293872592 L 501.1679884269834 195.90882957715021 L 498.4788457438708 198.7213719198897 L 495.78970306075837 201.4799073214008 L 493.10056037764576 204.18547283263106 L 490.41141769453327 206.83908559088968 L 487.72227501142066 209.4417432022338 L 485.0331323283081 211.9300100393532 L 482.3439896451956 214.32723212132862 L 479.654846962083 216.68040109828098 L 476.96570427897063 219.02645897279672 L 474.27656159585797 221.4713822496756 L 471.5874189127456 223.82857199568065 L 468.898276229633 226.01998520649286 L 466.2091335465205 228.13592150061677 L 463.51999086340794 230.21338037577485 L 460.83084818029533 232.25306152778228 L 458.1417054971829 234.28418360155456 L 455.45256281407023 236.3472398942829 L 452.7634201309578 238.43121901056293 L 450.07427744784525 240.4742389119711 L 447.3851347647328 242.44173862683385 L 444.69599208162015 244.320396667385 L 442.0068493985077 246.1637389160478 L 439.31770671539516 247.97242925370392 L 436.6285640322825 249.74711908132772 L 433.9394213491701 251.48844755458776 L 431.25027866605757 253.19704181404006 L 428.561135982945 254.8735172109926 L 425.87199329983247 256.5184775291246 L 423.18285061672 258.1374533358454 L 420.49370793360737 259.7120713678146 L 417.80456525049476 261.2452068115641 L 415.11542256738227 262.7016288944502 L 412.4262798842698 264.17490920543725 L 409.7371372011572 265.61470975060865 L 407.0479945180447 266.9417299810551 L 404.3588518349321 268.22059450177613 L 401.6697091518197 269.47865778824837 L 398.98056646870714 270.7867289327943 L 396.2914237855946 272.02434049379053 L 393.60228110248204 273.2234747991539 L 390.9131384193695 274.41324710411413 L 388.223995736257 275.610280666752 L 385.53485305314445 276.76450751331345 L 382.8457103700319 277.9108004468633 L 380.15656768691935 279.108477642615 L 377.46742500380685 280.25334837037826 L 374.7782823206943 281.30330095365116 L 372.08913963758175 282.35076795883 L 369.3999969544692 283.37177945607755 L 366.71085427135677 284.40834200003815 L 364.0217115882442 285.4520514115859 L 361.33256890513167 286.4328111088081 L 358.6434262220192 287.38695407086 L 355.9542835389066 288.3078558049543 L 353.2651408557941 289.21738323014216 L 350.5759981726815 290.1191389820294 L 347.88685548956903 291.0055986099441 L 345.1977128064565 291.8666404369849 L 342.50857012334393 292.72105867897835 L 339.8194274402314 293.55651545740085 L 337.13028475711883 294.40359955254405 L 334.44114207400634 295.2173835807689 L 331.7519993908938 296.06013118834545 L 329.0628567077813 296.84062043038546 L 326.37371402466874 297.6348937385922 L 323.6845713415562 298.39088773793196 L 320.99542865844364 299.13410844299284 L 318.30628597533115 299.93757772902273 L 315.6171432922186 300.65001472137845 L 312.9280006091061 301.35049243014436 L 310.23885792599356 302.0392116091632 L 307.549715242881 302.7163696423348 L 304.86057255976846 303.382160600185 L 302.17142987665596 304.03677529548577 L 299.4822871935434 304.68040133794125 L 296.79314451043086 305.31322318795566 L 294.10400182731837 305.93542220949905 L 291.4148591442058 306.55616738771073 L 288.72571646109327 307.1671664264211 L 286.0365737779807 307.76057334050444 L 283.3474310948682 308.34178452885493 L 280.6582884117557 308.91323766208995 L 277.9691457286432 309.4750965698837 L 275.28000304553063 310.0275223313457 L 272.5908603624181 310.5706733212005 L 269.90171767930553 311.10470525519173 L 267.212574996193 311.6297712347249 L 264.5234323130805 312.1509021673046 L 261.83428962996794 312.6636457636763 L 259.14514694685545 313.1676918944652 L 256.4560042637429 313.6631880913186 L 253.76686158063038 314.1502793833638 L 251.07771889751785 314.6291083396561 L 248.3885762144053 315.09780141372073 L 245.69943353129275 315.56145468172673 L 243.01029084818026 316.0152142448949 L 240.3211481650677 316.458443520546 L 237.63200548195516 316.89422114364334 L 234.94286279884264 317.32267239274785 L 232.25372011573012 317.74392044021397 L 229.56457743261757 318.15808638759995 L 226.87543474950508 318.56528930048194 L 224.18629206639253 318.9656462426839 L 221.49714938327998 319.35927230993093 L 218.80800670016748 319.74736578009976 L 216.1188640170549 320.12974687660255 L 213.42972133394235 320.5056672521518 L 210.74057865082983 320.8752360672567 L 208.05143596771734 321.23856063804783 L 205.3622932846048 321.5957464674395 L 202.67315060149227 321.9468972757661 L 199.98400791837975 322.2921150309005 L 197.29486523526725 322.6314999778639 L 194.6057225521547 322.9651506679347 L 191.91657986904218 323.2931639872667 L 189.22743718592966 323.6156351850225 L 186.53829450281705 323.93265790103237 L 183.84915181970456 324.24432419298563 L 181.160009136592 324.55072456316253 L 178.47086645347952 324.85194798471434 L 175.78172377036697 325.14808192749973 L 173.09258108725444 325.4388171243428 L 170.40343840414192 325.7236092626008 L 167.71429572102937 326.0036135199829 L 165.02515303791688 326.2789103895933 L 162.33601035480427 326.549579011299 L 159.64686767169172 326.8156971944795 L 156.95772498857923 327.07734144039557 L 154.2685823054667 327.3345869641806 L 151.57943962235416 327.5875077164628 L 148.89029693924164 327.83617640462427 L 146.20115425612914 328.0806645137018 L 143.5120115730166 328.32104232693683 L 140.82286888990407 328.55737894598013 L 138.1337262067915 328.7897423107563 L 135.44458352367897 329.0181992189944 L 132.75544084056642 329.2428153454307 L 130.0662981574539 329.46365526068803 L 127.37715547434141 329.6807824498379 L 124.68801279122889 329.8942593306509 L 121.99887010811634 330.10414727153966 L 119.30972742500379 330.31050660920084 L 116.62058474189128 330.5133966659598 L 113.93144205877869 330.71287576682437 L 111.24229937566619 330.90900125625143 L 108.55315669255367 331.10182951463185 L 105.86401400944114 331.2914159744982 L 103.1748713263286 331.47781513645987 L 100.48572864321608 331.66108058487066 L 97.79658596010354 331.8412650032326 L 95.10744327699099 332.0184201893409 L 92.41830059387848 332.19259707017414 L 89.72915791076595 332.36384571653485 L 87.04001522765341 332.53221535744285 L 84.35087254454086 332.6977543942875 L 81.66172986142834 332.86051041474127 L 78.97258717831582 333.0205302064406 L 76.28344449520328 333.17785977043513 L 73.59430181209075 333.3325443344122 L 70.9051591289782 333.4846283656983 L 68.21601644586568 333.63415558404233 L 65.52687376275316 333.7811689741833 L 62.83773107964062 333.92571079820783 L 60.14858839652809 334.06782260769876 L 57.45944571341555 334.2075452556803 L 54.770303030303026 334.34491890836205 Z" fill="#1f77b4" fill-opacity="0.2" stroke="none"/><line x1="54.770303030303026" y1="335.3218321462882" x2="57.45944571341555" y2="335.19560545386736" stroke="#1f77b4" stroke-width="1.4211023622047245"/><line x1="57.45944571341555" y1="335.19560545386736" x2="60.14858839652809" y2="335.06712096382336" stroke="#1f77b4" stroke-width="1.4211023622047245"/><line x1="60.14858839652809" y1="335.06712096382336" x2="62.83773107964062" y2="334.936338291274" stroke="#1f77b4" stroke-width="1.4211023622047245"/><line x1="62.83773107964062" y1="334.936338291274" x2="65.52687376275316" y2="334.8032163289788" stroke="#1f77b4" stroke-width="1.4211023622047245"/><line x1="65.52687376275316" y1="334.8032163289788" x2="68.21601644586568" y2="334.66771323441833" stroke="#1f77b4" stroke-width="1.4211023622047245"/><line x1="68.21601644586568" y1="334.66771323441833" x2="70.9051591289782" y2="334.5297864166424" stroke="#1f77b4" stroke-width="1.4211023622047245"/><line x1="70.9051591289782" y1="334.5297864166424" x2="73.59430181209075" y2="334.3893925228831" stroke="#1f77b4" stroke-width="1.4211023622047245"/><line x1="73.59430181209075" y1="334.3893925228831" x2="76.28344449520328" y2="334.24648742492786" stroke="#1f77b4" stroke-width="1.4211023622047245"/><line x1="76.28344449520328" y1="334.24648742492786" x2="78.97258717831582" y2="334.1010262052498" stroke="#1f77b4" stroke-width="1.4211023622047245"/><line x1="78.97258717831582" y1="334.1010262052498" x2="81.66172986142834" y2="333.95296314288896" stroke="#1f77b4" stroke-width="1.4211023622047245"/><line x1="81.66172986142834" y1="333.95296314288896" x2="84.35087254454086" y2="333.8022516990815" stroke="#1f77b4" stroke-width="1.4211023622047245"/><line x1="84.35087254454086" y1="333.8022516990815" x2="87.04001522765341" y2="333.64884450263185" stroke="#1f77b4" stroke-width="1.4211023622047245"/><line x1="87.04001522765341" y1="333.64884450263185" x2="89.72915791076595" y2="333.4926933350231" stroke="#1f77b4" stroke-width="1.4211023622047245"/><line x1="89.72915791076595" y1="333.4926933350231" x2="92.41830059387848" y2="333.3337491152609" stroke="#1f77b4" stroke-width="1.4211023622047245"/><line x1="92.41830059387848" y1="333.3337491152609" x2="95.10744327699099" y2="333.1719618844469" stroke="#1f77b4" stroke-width="1.4211023622047245"/><line x1="95.10744327699099" y1="333.1719618844469" x2="97.79658596010354" y2="333.00728079007524" stroke="#1f77b4" stroke-width="1.4211023622047245"/><line x1="97.79658596010354" y1="333.00728079007524" x2="100.48572864321608" y2="332.8396540700494" stroke="#1f77b4" stroke-width="1.4211023622047245"/><line x1="100.48572864321608" y1="332.8396540700494" x2="103.1748713263286" y2="332.66902903641176" stroke="#1f77b4" stroke-width="1.4211023622047245"/><line x1="103.1748713263286" y1="332.66902903641176" x2="105.86401400944114" y2="332.49535205878345" stroke="#1f77b4" stroke-width="1.4211023622047245"/><line x1="105.86401400944114" y1="332.49535205878345" x2="108.55315669255367" y2="332.3185685475071" stroke="#1f77b4" stroke-width="1.4211023622047245"/><line x1="108.55315669255367" y1="332.3185685475071" x2="111.24229937566619" y2="332.1386229364885" stroke="#1f77b4" stroke-width="1.4211023622047245"/><line x1="111.24229937566619" y1="332.1386229364885" x2="113.93144205877869" y2="331.95545866573116" stroke="#1f77b4" stroke-width="1.4211023622047245"/><line x1="113.93144205877869" y1="331.95545866573116" x2="116.62058474189128" y2="331.7690181635584" stroke="#1f77b4" stroke-width="1.4211023622047245"/><line x1="116.62058474189128" y1="331.7690181635584" x2="119.30972742500379" y2="331.57924282851803" stroke="#1f77b4" stroke-width="1.4211023622047245"/><line x1="119.30972742500379" y1="331.57924282851803" x2="121.99887010811634" y2="331.3860730109624" stroke="#1f77b4" stroke-width="1.4211023622047245"/><line x1="121.99887010811634" y1="331.3860730109624" x2="124.68801279122889" y2="331.1894479942996" stroke="#1f77b4" stroke-width="1.4211023622047245"/><line x1="124.68801279122889" y1="331.1894479942996" x2="127.37715547434141" y2="330.98930597590953" stroke="#1f77b4" stroke-width="1.4211023622047245"/><line x1="127.37715547434141" y1="330.98930597590953" x2="130.0662981574539" y2="330.785584047718" stroke="#1f77b4" stroke-width="1.4211023622047245"/><line x1="130.0662981574539" y1="330.785584047718" x2="132.75544084056642" y2="330.57821817642343" stroke="#1f77b4" stroke-width="1.4211023622047245"/><line x1="132.75544084056642" y1="330.57821817642343" x2="135.44458352367897" y2="330.3671431833707" stroke="#1f77b4" stroke-width="1.4211023622047245"/><line x1="135.44458352367897" y1="330.3671431833707" x2="138.1337262067915" y2="330.1522927240636" stroke="#1f77b4" stroke-width="1.4211023622047245"/><line x1="138.1337262067915" y1="330.1522927240636" x2="140.82286888990407" y2="329.93359926731245" stroke="#1f77b4" stroke-width="1.4211023622047245"/><line x1="140.82286888990407" y1="329.93359926731245" x2="143.5120115730166" y2="329.7109940740071" stroke="#1f77b4" stroke-width="1.4211023622047245"/><line x1="143.5120115730166" y1="329.7109940740071" x2="146.20115425612914" y2="329.48440717551165" stroke="#1f77b4" stroke-width="1.4211023622047245"/><line x1="146.20115425612914" y1="329.48440717551165" x2="148.89029693924164" y2="329.25376735167174" stroke="#1f77b4" stroke-width="1.4211023622047245"/><line x1="148.89029693924164" y1="329.25376735167174" x2="151.57943962235416" y2="329.019002108429" stroke="#1f77b4" stroke-width="1.4211023622047245"/><line x1="151.57943962235416" y1="329.019002108429" x2="154.2685823054667" y2="328.7800376550348" stroke="#1f77b4" stroke-width="1.4211023622047245"/><line x1="154.2685823054667" y1="328.7800376550348" x2="156.95772498857923" y2="328.53679888085685" stroke="#1f77b4" stroke-width="1.4211023622047245"/><line x1="156.95772498857923" y1="328.53679888085685" x2="159.64686767169172" y2="328.28920933177005" stroke="#1f77b4" stroke-width="1.4211023622047245"/><line x1="159.64686767169172" y1="328.28920933177005" x2="162.33601035480427" y2="328.03719118612645" stroke="#1f77b4" stroke-width="1.4211023622047245"/><line x1="162.33601035480427" y1="328.03719118612645" x2="165.02515303791688" y2="327.7806652302937" stroke="#1f77b4" stroke-width="1.4211023622047245"/><line x1="165.02515303791688" y1="327.7806652302937" x2="167.71429572102937" y2="327.51955083375765" stroke="#1f77b4" stroke-width="1.4211023622047245"/><line x1="167.71429572102937" y1="327.51955083375765" x2="170.40343840414192" y2="327.25376592377825" stroke="#1f77b4" stroke-width="1.4211023622047245"/><line x1="170.40343840414192" y1="327.25376592377825" x2="173.09258108725444" y2="326.9832269595927" stroke="#1f77b4" stroke-width="1.4211023622047245"/><line x1="173.09258108725444" y1="326.9832269595927" x2="175.78172377036697" y2="326.70784890615755" stroke="#1f77b4" stroke-width="1.4211023622047245"/><line x1="175.78172377036697" y1="326.70784890615755" x2="178.47086645347952" y2="326.4275452074204" stroke="#1f77b4" stroke-width="1.4211023622047245"/><line x1="178.47086645347952" y1="326.4275452074204" x2="181.160009136592" y2="326.1422277591138" stroke="#1f77b4" stroke-width="1.4211023622047245"/><line x1="181.160009136592" y1="326.1422277591138" x2="183.84915181970456" y2="325.85180688106294" stroke="#1f77b4" stroke-width="1.4211023622047245"/><line x1="183.84915181970456" y1="325.85180688106294" x2="186.53829450281705" y2="325.5561912889971" stroke="#1f77b4" stroke-width="1.4211023622047245"/><line x1="186.53829450281705" y1="325.5561912889971" x2="189.22743718592966" y2="325.25528806585794" stroke="#1f77b4" stroke-width="1.4211023622047245"/><line x1="189.22743718592966" y1="325.25528806585794" x2="191.91657986904218" y2="324.9490026325937" stroke="#1f77b4" stroke-width="1.4211023622047245"/><line x1="191.91657986904218" y1="324.9490026325937" x2="194.6057225521547" y2="324.6372387184316" stroke="#1f77b4" stroke-width="1.4211023622047245"/><line x1="194.6057225521547" y1="324.6372387184316" x2="197.29486523526725" y2="324.3198983306182" stroke="#1f77b4" stroke-width="1.4211023622047245"/><line x1="197.29486523526725" y1="324.3198983306182" x2="199.98400791837975" y2="323.9968817236185" stroke="#1f77b4" stroke-width="1.4211023622047245"/><line x1="199.98400791837975" y1="323.9968817236185" x2="202.67315060149227" y2="323.6680873677645" stroke="#1f77b4" stroke-width="1.4211023622047245"/><line x1="202.67315060149227" y1="323.6680873677645" x2="205.3622932846048" y2="323.33341191734235" stroke="#1f77b4" stroke-width="1.4211023622047245"/><line x1="205.3622932846048" y1="323.33341191734235" x2="208.05143596771734" y2="322.99275017810913" stroke="#1f77b4" stroke-width="1.4211023622047245"/><line x1="208.05143596771734" y1="322.99275017810913" x2="210.74057865082983" y2="322.6459950742287" stroke="#1f77b4" stroke-width="1.4211023622047245"/><line x1="210.74057865082983" y1="322.6459950742287" x2="213.42972133394235" y2="322.29303761461557" stroke="#1f77b4" stroke-width="1.4211023622047245"/><line x1="213.42972133394235" y1="322.29303761461557" x2="216.1188640170549" y2="321.93376685867736" stroke="#1f77b4" stroke-width="1.4211023622047245"/><line x1="216.1188640170549" y1="321.93376685867736" x2="218.80800670016748" y2="321.5680698814442" stroke="#1f77b4" stroke-width="1.4211023622047245"/><line x1="218.80800670016748" y1="321.5680698814442" x2="221.49714938327998" y2="321.1958317380745" stroke="#1f77b4" stroke-width="1.4211023622047245"/><line x1="221.49714938327998" y1="321.1958317380745" x2="224.18629206639253" y2="320.81693542772575" stroke="#1f77b4" stroke-width="1.4211023622047245"/><line x1="224.18629206639253" y1="320.81693542772575" x2="226.87543474950508" y2="320.4312618567794" stroke="#1f77b4" stroke-width="1.4211023622047245"/><line x1="226.87543474950508" y1="320.4312618567794" x2="229.56457743261757" y2="320.03868980140703" stroke="#1f77b4" stroke-width="1.4211023622047245"/><line x1="229.56457743261757" y1="320.03868980140703" x2="232.25372011573012" y2="319.63909586946863" stroke="#1f77b4" stroke-width="1.4211023622047245"/><line x1="232.25372011573012" y1="319.63909586946863" x2="234.94286279884264" y2="319.23235446172725" stroke="#1f77b4" stroke-width="1.4211023622047245"/><line x1="234.94286279884264" y1="319.23235446172725" x2="237.63200548195516" y2="318.8183377323719" stroke="#1f77b4" stroke-width="1.4211023622047245"/><line x1="237.63200548195516" y1="318.8183377323719" x2="240.3211481650677" y2="318.39691554883285" stroke="#1f77b4" stroke-width="1.4211023622047245"/><line x1="240.3211481650677" y1="318.39691554883285" x2="243.01029084818026" y2="317.96795545087895" stroke="#1f77b4" stroke-width="1.4211023622047245"/><line x1="243.01029084818026" y1="317.96795545087895" x2="245.69943353129275" y2="317.5313226089831" stroke="#1f77b4" stroke-width="1.4211023622047245"/><line x1="245.69943353129275" y1="317.5313226089831" x2="248.3885762144053" y2="317.0868797819429" stroke="#1f77b4" stroke-width="1.4211023622047245"/><line x1="248.3885762144053" y1="317.0868797819429" x2="251.07771889751785" y2="316.6344872737436" stroke="#1f77b4" stroke-width="1.4211023622047245"/><line x1="251.07771889751785" y1="316.6344872737436" x2="253.76686158063038" y2="316.17400288964905" stroke="#1f77b4" stroke-width="1.4211023622047245"/><line x1="253.76686158063038" y1="316.17400288964905" x2="256.4560042637429" y2="315.7052818915074" stroke="#1f77b4" stroke-width="1.4211023622047245"/><line x1="256.4560042637429" y1="315.7052818915074" x2="259.14514694685545" y2="315.2281769522577" stroke="#1f77b4" stroke-width="1.4211023622047245"/><line x1="259.14514694685545" y1="315.2281769522577" x2="261.83428962996794" y2="314.74253810962216" stroke="#1f77b4" stroke-width="1.4211023622047245"/><line x1="261.83428962996794" y1="314.74253810962216" x2="264.5234323130805" y2="314.24821271897065" stroke="#1f77b4" stroke-width="1.4211023622047245"/><line x1="264.5234323130805" y1="314.24821271897065" x2="267.212574996193" y2="313.7450454053418" stroke="#1f77b4" stroke-width="1.4211023622047245"/><line x1="267.212574996193" y1="313.7450454053418" x2="269.90171767930553" y2="313.23287801460583" stroke="#1f77b4" stroke-width="1.4211023622047245"/><line x1="269.90171767930553" y1="313.23287801460583" x2="272.5908603624181" y2="312.71154956375426" stroke="#1f77b4" stroke-width="1.4211023622047245"/><line x1="272.5908603624181" y1="312.71154956375426" x2="275.28000304553063" y2="312.1808961903001" stroke="#1f77b4" stroke-width="1.4211023622047245"/><line x1="275.28000304553063" y1="312.1808961903001" x2="277.9691457286432" y2="311.64075110077283" stroke="#1f77b4" stroke-width="1.4211023622047245"/><line x1="277.9691457286432" y1="311.64075110077283" x2="280.6582884117557" y2="311.09094451829264" stroke="#1f77b4" stroke-width="1.4211023622047245"/><line x1="280.6582884117557" y1="311.09094451829264" x2="283.3474310948682" y2="310.5313036292066" stroke="#1f77b4" stroke-width="1.4211023622047245"/><line x1="283.3474310948682" y1="310.5313036292066" x2="286.0365737779807" y2="309.9616525287702" stroke="#1f77b4" stroke-width="1.4211023622047245"/><line x1="286.0365737779807" y1="309.9616525287702" x2="288.72571646109327" y2="309.3818121658574" stroke="#1f77b4" stroke-width="1.4211023622047245"/><line x1="288.72571646109327" y1="309.3818121658574" x2="291.4148591442058" y2="308.7916002866823" stroke="#1f77b4" stroke-width="1.4211023622047245"/><line x1="291.4148591442058" y1="308.7916002866823" x2="294.10400182731837" y2="308.19083137751295" stroke="#1f77b4" stroke-width="1.4211023622047245"/><line x1="294.10400182731837" y1="308.19083137751295" x2="296.79314451043086" y2="307.5793166063617" stroke="#1f77b4" stroke-width="1.4211023622047245"/><line x1="296.79314451043086" y1="307.5793166063617" x2="299.4822871935434" y2="306.9568637636319" stroke="#1f77b4" stroke-width="1.4211023622047245"/><line x1="299.4822871935434" y1="306.9568637636319" x2="302.17142987665596" y2="306.32327720170304" stroke="#1f77b4" stroke-width="1.4211023622047245"/><line x1="302.17142987665596" y1="306.32327720170304" x2="304.86057255976846" y2="305.6783577734355" stroke="#1f77b4" stroke-width="1.4211023622047245"/><line x1="304.86057255976846" y1="305.6783577734355" x2="307.549715242881" y2="305.02190276957504" stroke="#1f77b4" stroke-width="1.4211023622047245"/><line x1="307.549715242881" y1="305.02190276957504" x2="310.23885792599356" y2="304.35370585503784" stroke="#1f77b4" stroke-width="1.4211023622047245"/><line x1="310.23885792599356" y1="304.35370585503784" x2="312.9280006091061" y2="303.67355700405597" stroke="#1f77b4" stroke-width="1.4211023622047245"/><line x1="312.9280006091061" y1="303.67355700405597" x2="315.6171432922186" y2="302.9812424341625" stroke="#1f77b4" stroke-width="1.4211023622047245"/><line x1="315.6171432922186" y1="302.9812424341625" x2="318.30628597533115" y2="302.27654453899606" stroke="#1f77b4" stroke-width="1.4211023622047245"/><line x1="318.30628597533115" y1="302.27654453899606" x2="320.99542865844364" y2="301.5592418199035" stroke="#1f77b4" stroke-width="1.4211023622047245"/><line x1="320.99542865844364" y1="301.5592418199035" x2="323.6845713415562" y2="300.82910881631886" stroke="#1f77b4" stroke-width="1.4211023622047245"/><line x1="323.6845713415562" y1="300.82910881631886" x2="326.37371402466874" y2="300.0859160348976" stroke="#1f77b4" stroke-width="1.4211023622047245"/><line x1="326.37371402466874" y1="300.0859160348976" x2="329.0628567077813" y2="299.32942987738244" stroke="#1f77b4" stroke-width="1.4211023622047245"/><line x1="329.0628567077813" y1="299.32942987738244" x2="331.7519993908938" y2="298.5594125671798" stroke="#1f77b4" stroke-width="1.4211023622047245"/><line x1="331.7519993908938" y1="298.5594125671798" x2="334.44114207400634" y2="297.77562207462233" stroke="#1f77b4" stroke-width="1.4211023622047245"/><line x1="334.44114207400634" y1="297.77562207462233" x2="337.13028475711883" y2="296.97781204089483" stroke="#1f77b4" stroke-width="1.4211023622047245"/><line x1="337.13028475711883" y1="296.97781204089483" x2="339.8194274402314" y2="296.1657317005997" stroke="#1f77b4" stroke-width="1.4211023622047245"/><line x1="339.8194274402314" y1="296.1657317005997" x2="342.50857012334393" y2="295.33912580293656" stroke="#1f77b4" stroke-width="1.4211023622047245"/><line x1="342.50857012334393" y1="295.33912580293656" x2="345.1977128064565" y2="294.49773453147316" stroke="#1f77b4" stroke-width="1.4211023622047245"/><line x1="345.1977128064565" y1="294.49773453147316" x2="347.88685548956903" y2="293.6412934224799" stroke="#1f77b4" stroke-width="1.4211023622047245"/><line x1="347.88685548956903" y1="293.6412934224799" x2="350.5759981726815" y2="292.76953328180514" stroke="#1f77b4" stroke-width="1.4211023622047245"/><line x1="350.5759981726815" y1="292.76953328180514" x2="353.2651408557941" y2="291.8821801002623" stroke="#1f77b4" stroke-width="1.4211023622047245"/><line x1="353.2651408557941" y1="291.8821801002623" x2="355.9542835389066" y2="290.978954967504" stroke="#1f77b4" stroke-width="1.4211023622047245"/><line x1="355.9542835389066" y1="290.978954967504" x2="358.6434262220192" y2="290.05957398435623" stroke="#1f77b4" stroke-width="1.4211023622047245"/><line x1="358.6434262220192" y1="290.05957398435623" x2="361.33256890513167" y2="289.1237481735836" stroke="#1f77b4" stroke-width="1.4211023622047245"/><line x1="361.33256890513167" y1="289.1237481735836" x2="364.0217115882442" y2="288.17118338905885" stroke="#1f77b4" stroke-width="1.4211023622047245"/><line x1="364.0217115882442" y1="288.17118338905885" x2="366.71085427135677" y2="287.2015802233079" stroke="#1f77b4" stroke-width="1.4211023622047245"/><line x1="366.71085427135677" y1="287.2015802233079" x2="369.3999969544692" y2="286.2146339134006" stroke="#1f77b4" stroke-width="1.4211023622047245"/><line x1="369.3999969544692" y1="286.2146339134006" x2="372.08913963758175" y2="285.2100342451588" stroke="#1f77b4" stroke-width="1.4211023622047245"/><line x1="372.08913963758175" y1="285.2100342451588" x2="374.7782823206943" y2="284.1874654556505" stroke="#1f77b4" stroke-width="1.4211023622047245"/><line x1="374.7782823206943" y1="284.1874654556505" x2="377.46742500380685" y2="283.1466061339404" stroke="#1f77b4" stroke-width="1.4211023622047245"/><line x1="377.46742500380685" y1="283.1466061339404" x2="380.15656768691935" y2="282.08712912006456" stroke="#1f77b4" stroke-width="1.4211023622047245"/><line x1="380.15656768691935" y1="282.08712912006456" x2="382.8457103700319" y2="281.00870140219865" stroke="#1f77b4" stroke-width="1.4211023622047245"/><line x1="382.8457103700319" y1="281.00870140219865" x2="385.53485305314445" y2="279.9109840119866" stroke="#1f77b4" stroke-width="1.4211023622047245"/><line x1="385.53485305314445" y1="279.9109840119866" x2="388.223995736257" y2="278.79363191799695" stroke="#1f77b4" stroke-width="1.4211023622047245"/><line x1="388.223995736257" y1="278.79363191799695" x2="390.9131384193695" y2="277.65629391727356" stroke="#1f77b4" stroke-width="1.4211023622047245"/><line x1="390.9131384193695" y1="277.65629391727356" x2="393.60228110248204" y2="276.49861252494645" stroke="#1f77b4" stroke-width="1.4211023622047245"/><line x1="393.60228110248204" y1="276.49861252494645" x2="396.2914237855946" y2="275.3202238618685" stroke="#1f77b4" stroke-width="1.4211023622047245"/><line x1="396.2914237855946" y1="275.3202238618685" x2="398.98056646870714" y2="274.12075754024124" stroke="#1f77b4" stroke-width="1.4211023622047245"/><line x1="398.98056646870714" y1="274.12075754024124" x2="401.6697091518197" y2="272.8998365471964" stroke="#1f77b4" stroke-width="1.4211023622047245"/><line x1="401.6697091518197" y1="272.8998365471964" x2="404.3588518349321" y2="271.65707712629387" stroke="#1f77b4" stroke-width="1.4211023622047245"/><line x1="404.3588518349321" y1="271.65707712629387" x2="407.0479945180447" y2="270.3920886569005" stroke="#1f77b4" stroke-width="1.4211023622047245"/><line x1="407.0479945180447" y1="270.3920886569005" x2="409.7371372011572" y2="269.1044735314114" stroke="#1f77b4" stroke-width="1.4211023622047245"/><line x1="409.7371372011572" y1="269.1044735314114" x2="412.4262798842698" y2="267.793827030275" stroke="#1f77b4" stroke-width="1.4211023622047245"/><line x1="412.4262798842698" y1="267.793827030275" x2="415.11542256738227" y2="266.4597371947828" stroke="#1f77b4" stroke-width="1.4211023622047245"/><line x1="415.11542256738227" y1="266.4597371947828" x2="417.80456525049476" y2="265.1017846975835" stroke="#1f77b4" stroke-width="1.4211023622047245"/><line x1="417.80456525049476" y1="265.1017846975835" x2="420.49370793360737" y2="263.7195427108814" stroke="#1f77b4" stroke-width="1.4211023622047245"/><line x1="420.49370793360737" y1="263.7195427108814" x2="423.18285061672" y2="262.312576772277" stroke="#1f77b4" stroke-width="1.4211023622047245"/><line x1="423.18285061672" y1="262.312576772277" x2="425.87199329983247" y2="260.88044464820825" stroke="#1f77b4" stroke-width="1.4211023622047245"/><line x1="425.87199329983247" y1="260.88044464820825" x2="428.561135982945" y2="259.42269619494823" stroke="#1f77b4" stroke-width="1.4211023622047245"/><line x1="428.561135982945" y1="259.42269619494823" x2="431.25027866605757" y2="257.93887321711827" stroke="#1f77b4" stroke-width="1.4211023622047245"/><line x1="431.25027866605757" y1="257.93887321711827" x2="433.9394213491701" y2="256.4285093236684" stroke="#1f77b4" stroke-width="1.4211023622047245"/><line x1="433.9394213491701" y1="256.4285093236684" x2="436.6285640322825" y2="254.89112978128315" stroke="#1f77b4" stroke-width="1.4211023622047245"/><line x1="436.6285640322825" y1="254.89112978128315" x2="439.31770671539516" y2="253.32625136516435" stroke="#1f77b4" stroke-width="1.4211023622047245"/><line x1="439.31770671539516" y1="253.32625136516435" x2="442.0068493985077" y2="251.73338220714567" stroke="#1f77b4" stroke-width="1.4211023622047245"/><line x1="442.0068493985077" y1="251.73338220714567" x2="444.69599208162015" y2="250.1120216410897" stroke="#1f77b4" stroke-width="1.4211023622047245"/><line x1="444.69599208162015" y1="250.1120216410897" x2="447.3851347647328" y2="248.46166004552003" stroke="#1f77b4" stroke-width="1.4211023622047245"/><line x1="447.3851347647328" y1="248.46166004552003" x2="450.07427744784525" y2="246.78177868343863" stroke="#1f77b4" stroke-width="1.4211023622047245"/><line x1="450.07427744784525" y1="246.78177868343863" x2="452.7634201309578" y2="245.07184953927768" stroke="#1f77b4" stroke-width="1.4211023622047245"/><line x1="452.7634201309578" y1="245.07184953927768" x2="455.45256281407023" y2="243.33133515293548" stroke="#1f77b4" stroke-width="1.4211023622047245"/><line x1="455.45256281407023" y1="243.33133515293548" x2="458.1417054971829" y2="241.55968845084308" stroke="#1f77b4" stroke-width="1.4211023622047245"/><line x1="458.1417054971829" y1="241.55968845084308" x2="460.83084818029533" y2="239.75635257401018" stroke="#1f77b4" stroke-width="1.4211023622047245"/><line x1="460.83084818029533" y1="239.75635257401018" x2="463.51999086340794" y2="237.9207607029943" stroke="#1f77b4" stroke-width="1.4211023622047245"/><line x1="463.51999086340794" y1="237.9207607029943" x2="466.2091335465205" y2="236.05233587974016" stroke="#1f77b4" stroke-width="1.4211023622047245"/><line x1="466.2091335465205" y1="236.05233587974016" x2="468.898276229633" y2="234.1504908262315" stroke="#1f77b4" stroke-width="1.4211023622047245"/><line x1="468.898276229633" y1="234.1504908262315" x2="471.5874189127456" y2="232.21462775989954" stroke="#1f77b4" stroke-width="1.4211023622047245"/><line x1="471.5874189127456" y1="232.21462775989954" x2="474.27656159585797" y2="230.2441382057299" stroke="#1f77b4" stroke-width="1.4211023622047245"/><line x1="474.27656159585797" y1="230.2441382057299" x2="476.96570427897063" y2="228.23840280500818" stroke="#1f77b4" stroke-width="1.4211023622047245"/><line x1="476.96570427897063" y1="228.23840280500818" x2="479.654846962083" y2="226.19679112064492" stroke="#1f77b4" stroke-width="1.4211023622047245"/><line x1="479.654846962083" y1="226.19679112064492" x2="482.3439896451956" y2="224.11866143901858" stroke="#1f77b4" stroke-width="1.4211023622047245"/><line x1="482.3439896451956" y1="224.11866143901858" x2="485.0331323283081" y2="222.00336056827385" stroke="#1f77b4" stroke-width="1.4211023622047245"/><line x1="485.0331323283081" y1="222.00336056827385" x2="487.72227501142066" y2="219.850223633012" stroke="#1f77b4" stroke-width="1.4211023622047245"/><line x1="487.72227501142066" y1="219.850223633012" x2="490.41141769453327" y2="217.6585738653094" stroke="#1f77b4" stroke-width="1.4211023622047245"/><line x1="490.41141769453327" y1="217.6585738653094" x2="493.10056037764576" y2="215.42772239199775" stroke="#1f77b4" stroke-width="1.4211023622047245"/><line x1="493.10056037764576" y1="215.42772239199775" x2="495.78970306075837" y2="213.15696801813908" stroke="#1f77b4" stroke-width="1.4211023622047245"/><line x1="495.78970306075837" y1="213.15696801813908" x2="498.4788457438708" y2="210.84559700662857" stroke="#1f77b4" stroke-width="1.4211023622047245"/><line x1="498.4788457438708" y1="210.84559700662857" x2="501.1679884269834" y2="208.49288285385433" stroke="#1f77b4" stroke-width="1.4211023622047245"/><line x1="501.1679884269834" y1="208.49288285385433" x2="503.8571311100958" y2="206.09808606134516" stroke="#1f77b4" stroke-width="1.4211023622047245"/><line x1="503.8571311100958" y1="206.09808606134516" x2="506.54627379320846" y2="203.66045390333312" stroke="#1f77b4" stroke-width="1.4211023622047245"/><line x1="506.54627379320846" y1="203.66045390333312" x2="509.2354164763209" y2="201.17922019015947" stroke="#1f77b4" stroke-width="1.4211023622047245"/><line x1="509.2354164763209" y1="201.17922019015947" x2="511.92455915943344" y2="198.6536050274473" stroke="#1f77b4" stroke-width="1.4211023622047245"/><line x1="511.92455915943344" y1="198.6536050274473" x2="514.6137018425461" y2="196.08281457096797" stroke="#1f77b4" stroke-width="1.4211023622047245"/><line x1="514.6137018425461" y1="196.08281457096797" x2="517.3028445256584" y2="193.46604077712215" stroke="#1f77b4" stroke-width="1.4211023622047245"/><line x1="517.3028445256584" y1="193.46604077712215" x2="519.9919872087711" y2="190.8024611489575" stroke="#1f77b4" stroke-width="1.4211023622047245"/><line x1="519.9919872087711" y1="190.8024611489575" x2="522.6811298918835" y2="188.09123847764403" stroke="#1f77b4" stroke-width="1.4211023622047245"/><line x1="522.6811298918835" y1="188.09123847764403" x2="525.3702725749961" y2="185.33152057932483" stroke="#1f77b4" stroke-width="1.4211023622047245"/><line x1="525.3702725749961" y1="185.33152057932483" x2="528.0594152581086" y2="182.5224400272605" stroke="#1f77b4" stroke-width="1.4211023622047245"/><line x1="528.0594152581086" y1="182.5224400272605" x2="530.7485579412212" y2="179.663113879181" stroke="#1f77b4" stroke-width="1.4211023622047245"/><line x1="530.7485579412212" y1="179.663113879181" x2="533.4377006243337" y2="176.752643399763" stroke="#1f77b4" stroke-width="1.4211023622047245"/><line x1="533.4377006243337" y1="176.752643399763" x2="536.1268433074463" y2="173.79011377814098" stroke="#1f77b4" stroke-width="1.4211023622047245"/><line x1="536.1268433074463" y1="173.79011377814098" x2="538.8159859905587" y2="170.77459384036698" stroke="#1f77b4" stroke-width="1.4211023622047245"/><line x1="538.8159859905587" y1="170.77459384036698" x2="541.5051286736713" y2="167.70513575672626" stroke="#1f77b4" stroke-width="1.4211023622047245"/><line x1="541.5051286736713" y1="167.70513575672626" x2="544.1942713567839" y2="164.58077474381835" stroke="#1f77b4" stroke-width="1.4211023622047245"/><line x1="544.1942713567839" y1="164.58077474381835" x2="546.8834140398964" y2="161.40052876130937" stroke="#1f77b4" stroke-width="1.4211023622047245"/><line x1="546.8834140398964" y1="161.40052876130937" x2="549.5725567230089" y2="158.16339820325894" stroke="#1f77b4" stroke-width="1.4211023622047245"/><line x1="549.5725567230089" y1="158.16339820325894" x2="552.2616994061214" y2="154.86836558392818" stroke="#1f77b4" stroke-width="1.4211023622047245"/><line x1="552.2616994061214" y1="154.86836558392818" x2="554.9508420892339" y2="151.51439521796505" stroke="#1f77b4" stroke-width="1.4211023622047245"/><line x1="554.9508420892339" y1="151.51439521796505" x2="557.6399847723465" y2="148.10043289487191" stroke="#1f77b4" stroke-width="1.4211023622047245"/><line x1="557.6399847723465" y1="148.10043289487191" x2="560.329127455459" y2="144.62540554764814" stroke="#1f77b4" stroke-width="1.4211023622047245"/><line x1="560.329127455459" y1="144.62540554764814" x2="563.0182701385716" y2="141.08822091550735" stroke="#1f77b4" stroke-width="1.4211023622047245"/><line x1="563.0182701385716" y1="141.08822091550735" x2="565.7074128216841" y2="137.4877672005606" stroke="#1f77b4" stroke-width="1.4211023622047245"/><line x1="565.7074128216841" y1="137.4877672005606" x2="568.3965555047967" y2="133.82291271835962" stroke="#1f77b4" stroke-width="1.4211023622047245"/><line x1="568.3965555047967" y1="133.82291271835962" x2="571.0856981879092" y2="130.0925055421889" stroke="#1f77b4" stroke-width="1.4211023622047245"/><line x1="571.0856981879092" y1="130.0925055421889" x2="573.7748408710218" y2="126.29537314099449" stroke="#1f77b4" stroke-width="1.4211023622047245"/><line x1="573.7748408710218" y1="126.29537314099449" x2="576.4639835541342" y2="122.4303220108392" stroke="#1f77b4" stroke-width="1.4211023622047245"/><line x1="576.4639835541342" y1="122.4303220108392" x2="579.1531262372467" y2="118.49613729976154" stroke="#1f77b4" stroke-width="1.4211023622047245"/><line x1="579.1531262372467" y1="118.49613729976154" x2="581.8422689203593" y2="114.49158242592878" stroke="#1f77b4" stroke-width="1.4211023622047245"/><line x1="581.8422689203593" y1="114.49158242592878" x2="584.5314116034718" y2="110.41539868895688" stroke="#1f77b4" stroke-width="1.4211023622047245"/><line x1="584.5314116034718" y1="110.41539868895688" x2="587.2205542865843" y2="106.26630487428008" stroke="#1f77b4" stroke-width="1.4211023622047245"/><line x1="587.2205542865843" y1="106.26630487428008" x2="589.9096969696968" y2="102.04299685044228" stroke="#1f77b4" stroke-width="1.4211023622047245"/></svg>