<svg xmlns="http://www.w3.org/2000/svg" width="853" height="747" viewBox="0 0 853 747"><rect x="0.0" y="0.0" width="853.3333333333333" height="746.6666666666666" fill="#ffffff" fill-opacity="1.0" stroke="none"/><text x="42.093333333333334" y="21.413333333333334" fill="#333333" font-size="17.599999999999998" font-family="sans-serif" text-anchor="start">Correlation graph (|r|&gt;0.3): 相関で辺は出るが過剰に密</text><line x1="322.3063036736245" y1="96.74975624028282" x2="385.57021226902754" y2="165.41188682896222" stroke="#444444" stroke-width="4.134682077238066"/><path d="M 404.24811395396637 185.68354808238934 L 378.47513083032806 171.94915241869083 L 392.665293707727 158.87462123923362 Z" fill="#444444" fill-opacity="1.0" stroke="none"/><line x1="596.4752660837686" y1="242.60603140985137" x2="550.6632805993152" y2="310.28191722831116" stroke="#444444" stroke-width="4.134682077238066"/><path d="M 535.2113786644586 333.10828329743214 L 542.6740524751228 304.87375155111135 L 558.6525087235075 315.69008290551096 Z" fill="#444444" fill-opacity="1.0" stroke="none"/><line x1="448.12079128941843" y1="244.2087018291955" x2="485.73973567173044" y2="308.7447318922219" stroke="#444444" stroke-width="4.134682077238066"/><path d="M 499.6212579026181 332.5587530117077 L 477.4048282799104 313.60326467303264 L 494.07464306355047 303.8861991114112 Z" fill="#444444" fill-opacity="1.0" stroke="none"/><path d="M 300.6771469609162 98.19175946200801 C 326.61510364293105 257.3543513127 334.1899849438353 303.8359518332701 358.0693931564149 450.36671173735436" fill="#000000" fill-opacity="0.0" stroke="#444444" stroke-width="4.134682077238066"/><path d="M 362.5029670428897 477.5723671243177 L 348.54741377796495 451.91846259648196 L 367.5913725348647 448.8149608782269 Z" fill="#444444" fill-opacity="1.0" stroke="none"/><path d="M 581.8410169538045 237.13927331860626 C 357.27878656815835 388.1315907249723 499.8193584353918 220.19783155032215 392.76401878833167 453.9792113602691" fill="#000000" fill-opacity="0.0" stroke="#444444" stroke-width="4.134682077238066"/><path d="M 381.0947731130694 478.9518557520262 L 384.0235932582387 449.8949753772084 L 401.5044443184247 458.0634473433297 Z" fill="#444444" fill-opacity="1.0" stroke="none"/><path d="M 424.2727625441183 244.74500470521076 C 403.9596387554528 338.68190170531113 397.4677220755502 368.7034047905984 379.71952822305366 450.7789277483262" fill="#000000" fill-opacity="0.0" stroke="#444444" stroke-width="4.134682077238066"/><path d="M 373.8935660140219 477.720761887183 L 370.2898862812845 448.7398409766422 L 389.14917016482275 452.81801452001025 Z" fill="#444444" fill-opacity="1.0" stroke="none"/><line x1="490.14048846992165" y1="386.8274569764601" x2="412.0791648077826" y2="463.7049985358195" stroke="#444444" stroke-width="4.134682077238066"/><path d="M 392.43974176371336 483.04659422547303 L 405.3096063164039 456.8312004703953 L 418.84872329916135 470.57879660124377 Z" fill="#444444" fill-opacity="1.0" stroke="none"/><path d="M 296.8622032111414 98.23942452241023 C 319.63274814325706 715.6666666666665 217.2683985310867 366.06411460535105 340.2760380750499 600.8415605659287" fill="#000000" fill-opacity="0.0" stroke="#444444" stroke-width="4.134682077238066"/><path d="M 352.85915134005523 625.3664360965981 L 331.69233162750334 605.2456502147411 L 348.8597445225963 596.4374709171163 Z" fill="#444444" fill-opacity="1.0" stroke="none"/><path d="M 609.2019058580945 244.5976197081674 C 540.4605996632246 573.3424462711416 678.075006849162 282.62429754552943 407.225937475199 606.1337337810937" fill="#000000" fill-opacity="0.0" stroke="#444444" stroke-width="4.134682077238066"/><path d="M 389.6157922724254 627.3395595955859 L 399.8038984460435 599.9701829650364 L 414.64797650435446 612.297284597151 Z" fill="#444444" fill-opacity="1.0" stroke="none"/><path d="M 416.9744260368755 244.43578006837961 C 370.94642497895495 343.9822883648891 336.97577743857335 361.3042411902341 313.41142365655423 468.4154237355259 C 293.7672097245388 557.7077083402669 305.79995008621813 543.4294503318284 339.7070947824622 601.141909912105" fill="#000000" fill-opacity="0.0" stroke="#444444" stroke-width="4.134682077238066"/><path d="M 352.85915134005523 625.3664360965981 L 331.2285106136011 605.7451297095909 L 348.1856789513233 596.5386901146192 Z" fill="#444444" fill-opacity="1.0" stroke="none"/><path d="M 501.5651159536857 390.04855975999436 C 452.88184581492476 485.9385587443021 437.67189626840513 515.8971470316142 394.56096284759826 600.8114790013225" fill="#000000" fill-opacity="0.0" stroke="#444444" stroke-width="4.134682077238066"/><path d="M 382.08256941420206 625.3898019086303 L 385.95854982035223 596.4440412947151 L 403.16337587484423 605.17891670793 Z" fill="#444444" fill-opacity="1.0" stroke="none"/><line x1="367.4118908910335" y1="538.0159053690334" x2="367.4118908910335" y2="596.4006549111352" stroke="#444444" stroke-width="4.134682077238066"/><path d="M 367.4118908910335 623.9652020927223 L 357.76429937747804 596.4006549111352 L 377.05948240458895 596.4006549111352 Z" fill="#444444" fill-opacity="1.0" stroke="none"/><path d="M 210.01832648417115 67.92100189974582 C 210.01832648417115 51.17517495185937 248.39904839351902 37.599999999999994 295.74406821890705 37.599999999999994 C 343.08908804429507 37.599999999999994 381.46980995364294 51.17517495185937 381.46980995364294 67.92100189974582 C 381.46980995364294 84.66682884763226 343.08908804429507 98.24200379949163 295.74406821890705 98.24200379949163 C 248.39904839351902 98.24200379949163 210.01832648417115 84.66682884763226 210.01832648417115 67.92100189974582 Z" fill="#cfcfcf" fill-opacity="1.0" stroke="#444444" stroke-width="3.307745661790453"/><text x="295.74406821890705" y="76.16831441647668" fill="#333333" font-size="24.256801519796657" font-family="sans-serif" text-anchor="middle">genetics</text><path d="M 564.9394359942867 214.5123024229264 C 564.9394359942867 197.76647547503995 587.5729549594777 184.19130052318056 615.4928155253175 184.19130052318056 C 643.4126760911572 184.19130052318056 666.0461950563482 197.76647547503995 666.0461950563482 214.5123024229264 C 666.0461950563482 231.25812937081287 643.4126760911572 244.83330432267218 615.4928155253175 244.83330432267218 C 587.5729549594777 244.83330432267218 564.9394359942867 231.25812937081287 564.9394359942867 214.5123024229264 Z" fill="#cfcfcf" fill-opacity="1.0" stroke="#444444" stroke-width="3.307745661790453"/><text x="615.4928155253175" y="222.75961493965724" fill="#333333" font-size="24.256801519796657" font-family="sans-serif" text-anchor="middle">diet</text><path d="M 345.08460767394797 214.5123024229264 C 345.08460767394797 197.76647547503995 383.4653295832959 184.19130052318056 430.81034940868386 184.19130052318056 C 478.1553692340718 184.19130052318056 516.5360911434198 197.76647547503995 516.5360911434198 214.5123024229264 C 516.5360911434198 231.25812937081287 478.1553692340718 244.83330432267218 430.81034940868386 244.83330432267218 C 383.4653295832959 244.83330432267218 345.08460767394797 231.25812937081287 345.08460767394797 214.5123024229264 Z" fill="#cfcfcf" fill-opacity="1.0" stroke="#444444" stroke-width="3.307745661790453"/><text x="430.81034940868386" y="222.75961493965724" fill="#333333" font-size="24.256801519796657" font-family="sans-serif" text-anchor="middle">exercise</text><path d="M 466.91990621656294 361.103602946107 C 466.91990621656294 344.3577759982205 489.01041818367963 330.78260104636115 516.260445671604 330.78260104636115 C 543.5104731595281 330.78260104636115 565.6009851266449 344.3577759982205 565.6009851266449 361.103602946107 C 565.6009851266449 377.84942989399343 543.5104731595281 391.42460484585274 516.260445671604 391.42460484585274 C 489.01041818367963 391.42460484585274 466.91990621656294 377.84942989399343 466.91990621656294 361.103602946107 Z" fill="#cfcfcf" fill-opacity="1.0" stroke="#444444" stroke-width="3.307745661790453"/><text x="516.260445671604" y="369.3509154628378" fill="#333333" font-size="24.256801519796657" font-family="sans-serif" text-anchor="middle">bmi</text><path d="M 324.43724252918906 507.6949034692875 C 324.43724252918906 490.949076521401 343.67764797276925 477.3739015695417 367.4118908910335 477.3739015695417 C 391.1461338092978 477.3739015695417 410.38653925287804 490.949076521401 410.38653925287804 507.6949034692875 C 410.38653925287804 524.440730417174 391.1461338092978 538.0159053690334 367.4118908910335 538.0159053690334 C 343.67764797276925 538.0159053690334 324.43724252918906 524.440730417174 324.43724252918906 507.6949034692875 Z" fill="#cfcfcf" fill-opacity="1.0" stroke="#444444" stroke-width="3.307745661790453"/><text x="367.4118908910335" y="515.9422159860184" fill="#333333" font-size="24.256801519796657" font-family="sans-serif" text-anchor="middle">bp</text><path d="M 318.98098149298494 654.2862039924681 C 318.98098149298494 637.5403770445816 340.6642382115458 623.9652020927223 367.4118908910335 623.9652020927223 C 394.15954357052124 623.9652020927223 415.842800289082 637.5403770445816 415.842800289082 654.2862039924681 C 415.842800289082 671.0320309403546 394.15954357052124 684.6072058922139 367.4118908910335 684.6072058922139 C 340.6642382115458 684.6072058922139 318.98098149298494 671.0320309403546 318.98098149298494 654.2862039924681 Z" fill="#cfcfcf" fill-opacity="1.0" stroke="#444444" stroke-width="3.307745661790453"/><text x="367.4118908910335" y="662.533516509199" fill="#333333" font-size="24.256801519796657" font-family="sans-serif" text-anchor="middle">chd</text></svg>