<svg xmlns="http://www.w3.org/2000/svg" width="624" height="384" viewBox="0 0 624 384"><rect x="0.0" y="0.0" width="624.0" height="384.0" fill="#ffffff" fill-opacity="1.0" stroke="none"/><text x="42.093333333333334" y="21.413333333333334" fill="#333333" font-size="17.599999999999998" font-family="sans-serif" text-anchor="start">DecisionTree</text><line x1="344.55085070195815" y1="91.65641025641025" x2="309.96472626061757" y2="147.39362917237645" stroke="#444444" stroke-width="3.6856643356643355"/><path d="M 297.00938239827485 168.2717948717949 L 302.65736826582116 142.85925882055653 L 317.27208425541403 151.9279995241964 Z" fill="#444444" fill-opacity="1.0" stroke="none"/><line x1="378.6022272841165" y1="91.65641025641025" x2="415.5864723270529" y2="149.50531970985918" stroke="#444444" stroke-width="3.6856643356643355"/><path d="M 428.8216951322107 170.20719438008513 L 408.3408161924738 154.1376476916644 L 422.832128461632 144.87299172805393 Z" fill="#444444" fill-opacity="1.0" stroke="none"/><line x1="266.51561232470027" y1="222.32820512820513" x2="238.09659090644874" y2="278.3043120570096" stroke="#444444" stroke-width="3.6856643356643355"/><path d="M 226.97332463433554 300.21348102809526 L 230.4283817665688 274.41116886177 L 245.76480004632873 282.19745525224926 Z" fill="#444444" fill-opacity="1.0" stroke="none"/><line x1="293.96000539091744" y1="222.32820512820513" x2="322.3790268091689" y2="278.3043120570096" stroke="#444444" stroke-width="3.6856643356643355"/><path d="M 333.5022930812821 300.21348102809526 L 314.710817669289 282.19745525224926 L 330.0472359490489 274.41116886177 Z" fill="#444444" fill-opacity="1.0" stroke="none"/><rect x="284.6360349650349" y="37.599999999999994" width="153.37277855477853" height="54.05641025641026" fill="#dddddd" fill-opacity="1.0" stroke="#444444" stroke-width="2.9485314685314687"/><text x="361.32242424242423" y="71.97987692307692" fill="#333333" font-size="21.622564102564105" font-family="sans-serif" text-anchor="middle">f1 ≤ 3.50</text><rect x="203.55141958041958" y="168.2717948717949" width="153.37277855477853" height="54.05641025641026" fill="#dddddd" fill-opacity="1.0" stroke="#444444" stroke-width="2.9485314685314687"/><text x="280.23780885780883" y="202.6516717948718" fill="#333333" font-size="21.622564102564105" font-family="sans-serif" text-anchor="middle">f2 ≤ 6.50</text><path d="M 170.72443589743585 325.9717948717949 C 170.72443589743585 311.04452936502105 190.05293672912205 298.94358974358977 213.8958508158508 298.94358974358977 C 237.73876490257956 298.94358974358977 257.06726573426573 311.04452936502105 257.06726573426573 325.9717948717949 C 257.06726573426573 340.8990603785687 237.73876490257956 353.00000000000006 213.8958508158508 353.00000000000006 C 190.05293672912205 353.00000000000006 170.72443589743585 340.8990603785687 170.72443589743585 325.9717948717949 Z" fill="#cfcfcf" fill-opacity="1.0" stroke="#444444" stroke-width="2.9485314685314687"/><text x="213.8958508158508" y="333.32346666666666" fill="#333333" font-size="21.622564102564105" font-family="sans-serif" text-anchor="middle">y=0</text><path d="M 303.408351981352 325.9717948717949 C 303.408351981352 311.04452936502105 322.7368528130381 298.94358974358977 346.57976689976687 298.94358974358977 C 370.42268098649566 298.94358974358977 389.7511818181818 311.04452936502105 389.7511818181818 325.9717948717949 C 389.7511818181818 340.8990603785687 370.42268098649566 353.00000000000006 346.57976689976687 353.00000000000006 C 322.7368528130381 353.00000000000006 303.408351981352 340.8990603785687 303.408351981352 325.9717948717949 Z" fill="#cfcfcf" fill-opacity="1.0" stroke="#444444" stroke-width="2.9485314685314687"/><text x="346.57976689976687" y="333.32346666666666" fill="#333333" font-size="21.622564102564105" font-family="sans-serif" text-anchor="middle">y=1</text><path d="M 401.6927342657342 195.3 C 401.6927342657342 180.37273449322618 421.02123509742034 168.2717948717949 444.86414918414914 168.2717948717949 C 468.70706327087794 168.2717948717949 488.0355641025641 180.37273449322618 488.0355641025641 195.3 C 488.0355641025641 210.22726550677385 468.70706327087794 222.32820512820513 444.86414918414914 222.32820512820513 C 421.02123509742034 222.32820512820513 401.6927342657342 210.22726550677385 401.6927342657342 195.3 Z" fill="#cfcfcf" fill-opacity="1.0" stroke="#444444" stroke-width="2.9485314685314687"/><text x="444.86414918414914" y="202.6516717948718" fill="#333333" font-size="21.622564102564105" font-family="sans-serif" text-anchor="middle">y=1</text></svg>