<svg xmlns="http://www.w3.org/2000/svg" width="624" height="384" viewBox="0 0 624 384"><rect x="0.0" y="0.0" width="624.0" height="384.0" fill="#ffffff" fill-opacity="1.0" stroke="none"/><line x1="92.736331738437" y1="355.9866666666667" x2="92.736331738437" y2="359.6533333333333" stroke="transparent" stroke-width="1.3333333333333333"/><text x="92.736331738437" y="367.28" fill="#333333" font-size="11.733333333333334" font-family="sans-serif" text-anchor="end" transform="rotate(-90.0 92.736331738437 367.28)">2</text><line x1="126.84637958532694" y1="355.9866666666667" x2="126.84637958532694" y2="359.6533333333333" stroke="transparent" stroke-width="1.3333333333333333"/><text x="126.84637958532694" y="367.28" fill="#333333" font-size="11.733333333333334" font-family="sans-serif" text-anchor="end" transform="rotate(-90.0 126.84637958532694 367.28)">4</text><line x1="160.95642743221688" y1="355.9866666666667" x2="160.95642743221688" y2="359.6533333333333" stroke="transparent" stroke-width="1.3333333333333333"/><text x="160.95642743221688" y="367.28" fill="#333333" font-size="11.733333333333334" font-family="sans-serif" text-anchor="end" transform="rotate(-90.0 160.95642743221688 367.28)">1</text><line x1="195.06647527910684" y1="355.9866666666667" x2="195.06647527910684" y2="359.6533333333333" stroke="transparent" stroke-width="1.3333333333333333"/><text x="195.06647527910684" y="367.28" fill="#333333" font-size="11.733333333333334" font-family="sans-serif" text-anchor="end" transform="rotate(-90.0 195.06647527910684 367.28)">0</text><line x1="229.17652312599682" y1="355.9866666666667" x2="229.17652312599682" y2="359.6533333333333" stroke="transparent" stroke-width="1.3333333333333333"/><text x="229.17652312599682" y="367.28" fill="#333333" font-size="11.733333333333334" font-family="sans-serif" text-anchor="end" transform="rotate(-90.0 229.17652312599682 367.28)">3</text><line x1="263.2865709728867" y1="355.9866666666667" x2="263.2865709728867" y2="359.6533333333333" stroke="transparent" stroke-width="1.3333333333333333"/><text x="263.2865709728867" y="367.28" fill="#333333" font-size="11.733333333333334" font-family="sans-serif" text-anchor="end" transform="rotate(-90.0 263.2865709728867 367.28)">6</text><line x1="297.3966188197767" y1="355.9866666666667" x2="297.3966188197767" y2="359.6533333333333" stroke="transparent" stroke-width="1.3333333333333333"/><text x="297.3966188197767" y="367.28" fill="#333333" font-size="11.733333333333334" font-family="sans-serif" text-anchor="end" transform="rotate(-90.0 297.3966188197767 367.28)">5</text><line x1="331.50666666666666" y1="355.9866666666667" x2="331.50666666666666" y2="359.6533333333333" stroke="transparent" stroke-width="1.3333333333333333"/><text x="331.50666666666666" y="367.28" fill="#333333" font-size="11.733333333333334" font-family="sans-serif" text-anchor="end" transform="rotate(-90.0 331.50666666666666 367.28)">8</text><line x1="365.61671451355664" y1="355.9866666666667" x2="365.61671451355664" y2="359.6533333333333" stroke="transparent" stroke-width="1.3333333333333333"/><text x="365.61671451355664" y="367.28" fill="#333333" font-size="11.733333333333334" font-family="sans-serif" text-anchor="end" transform="rotate(-90.0 365.61671451355664 367.28)">7</text><line x1="399.7267623604465" y1="355.9866666666667" x2="399.7267623604465" y2="359.6533333333333" stroke="transparent" stroke-width="1.3333333333333333"/><text x="399.7267623604465" y="367.28" fill="#333333" font-size="11.733333333333334" font-family="sans-serif" text-anchor="end" transform="rotate(-90.0 399.7267623604465 367.28)">9</text><line x1="433.8368102073365" y1="355.9866666666667" x2="433.8368102073365" y2="359.6533333333333" stroke="transparent" stroke-width="1.3333333333333333"/><text x="433.8368102073365" y="367.28" fill="#333333" font-size="11.733333333333334" font-family="sans-serif" text-anchor="end" transform="rotate(-90.0 433.8368102073365 367.28)">12</text><line x1="467.9468580542265" y1="355.9866666666667" x2="467.9468580542265" y2="359.6533333333333" stroke="transparent" stroke-width="1.3333333333333333"/><text x="467.9468580542265" y="367.28" fill="#333333" font-size="11.733333333333334" font-family="sans-serif" text-anchor="end" transform="rotate(-90.0 467.9468580542265 367.28)">14</text><line x1="502.0569059011164" y1="355.9866666666667" x2="502.0569059011164" y2="359.6533333333333" stroke="transparent" stroke-width="1.3333333333333333"/><text x="502.0569059011164" y="367.28" fill="#333333" font-size="11.733333333333334" font-family="sans-serif" text-anchor="end" transform="rotate(-90.0 502.0569059011164 367.28)">10</text><line x1="536.1669537480063" y1="355.9866666666667" x2="536.1669537480063" y2="359.6533333333333" stroke="transparent" stroke-width="1.3333333333333333"/><text x="536.1669537480063" y="367.28" fill="#333333" font-size="11.733333333333334" font-family="sans-serif" text-anchor="end" transform="rotate(-90.0 536.1669537480063 367.28)">13</text><line x1="570.2770015948963" y1="355.9866666666667" x2="570.2770015948963" y2="359.6533333333333" stroke="transparent" stroke-width="1.3333333333333333"/><text x="570.2770015948963" y="367.28" fill="#333333" font-size="11.733333333333334" font-family="sans-serif" text-anchor="end" transform="rotate(-90.0 570.2770015948963 367.28)">11</text><line x1="46.346666666666664" y1="341.2721212121212" x2="42.67999999999999" y2="341.2721212121212" stroke="transparent" stroke-width="1.3333333333333333"/><text x="39.74666666666666" y="345.3787878787879" fill="#333333" font-size="11.733333333333334" font-family="sans-serif" text-anchor="end">0</text><line x1="46.346666666666664" y1="268.4540059619658" x2="42.67999999999999" y2="268.4540059619658" stroke="transparent" stroke-width="1.3333333333333333"/><text x="39.74666666666666" y="272.56067262863246" fill="#333333" font-size="11.733333333333334" font-family="sans-serif" text-anchor="end">3</text><line x1="46.346666666666664" y1="195.63589071181036" x2="42.67999999999999" y2="195.63589071181036" stroke="transparent" stroke-width="1.3333333333333333"/><text x="39.74666666666666" y="199.74255737847704" fill="#333333" font-size="11.733333333333334" font-family="sans-serif" text-anchor="end">6</text><line x1="46.346666666666664" y1="122.81777546165486" x2="42.67999999999999" y2="122.81777546165486" stroke="transparent" stroke-width="1.3333333333333333"/><text x="39.74666666666666" y="126.92444212832153" fill="#333333" font-size="11.733333333333334" font-family="sans-serif" text-anchor="end">9</text><line x1="46.346666666666664" y1="49.99966021149945" x2="42.67999999999999" y2="49.99966021149945" stroke="transparent" stroke-width="1.3333333333333333"/><text x="39.74666666666666" y="54.106326878166115" fill="#333333" font-size="11.733333333333334" font-family="sans-serif" text-anchor="end">12</text><text x="46.346666666666664" y="21.413333333333334" fill="#333333" font-size="17.599999999999998" font-family="sans-serif" text-anchor="start">Hierarchical clustering (Ward) dendrogram</text><text x="17.599999999999998" y="194.12666666666667" fill="#333333" font-size="14.666666666666666" font-family="sans-serif" text-anchor="middle" transform="rotate(-90.0 17.599999999999998 194.12666666666667)">height</text><line x1="433.8368102073365" y1="341.2721212121212" x2="433.8368102073365" y2="330.41703749927046" stroke="#F8766D" stroke-width="1.5999999999999999"/><line x1="433.8368102073365" y1="330.41703749927046" x2="467.9468580542265" y2="330.41703749927046" stroke="#F8766D" stroke-width="1.5999999999999999"/><line x1="467.9468580542265" y1="330.41703749927046" x2="467.9468580542265" y2="341.2721212121212" stroke="#F8766D" stroke-width="1.5999999999999999"/><line x1="92.736331738437" y1="341.2721212121212" x2="92.736331738437" y2="330.41703749927046" stroke="#619CFF" stroke-width="1.5999999999999999"/><line x1="92.736331738437" y1="330.41703749927046" x2="126.84637958532694" y2="330.41703749927046" stroke="#619CFF" stroke-width="1.5999999999999999"/><line x1="126.84637958532694" y1="330.41703749927046" x2="126.84637958532694" y2="341.2721212121212" stroke="#619CFF" stroke-width="1.5999999999999999"/><line x1="365.61671451355664" y1="341.2721212121212" x2="365.61671451355664" y2="330.41703749927046" stroke="#00BA38" stroke-width="1.5999999999999999"/><line x1="365.61671451355664" y1="330.41703749927046" x2="399.7267623604465" y2="330.41703749927046" stroke="#00BA38" stroke-width="1.5999999999999999"/><line x1="399.7267623604465" y1="330.41703749927046" x2="399.7267623604465" y2="341.2721212121212" stroke="#00BA38" stroke-width="1.5999999999999999"/><line x1="195.06647527910684" y1="341.2721212121212" x2="195.06647527910684" y2="328.8954215253348" stroke="#619CFF" stroke-width="1.5999999999999999"/><line x1="195.06647527910684" y1="328.8954215253348" x2="229.17652312599682" y2="328.8954215253348" stroke="#619CFF" stroke-width="1.5999999999999999"/><line x1="229.17652312599682" y1="328.8954215253348" x2="229.17652312599682" y2="341.2721212121212" stroke="#619CFF" stroke-width="1.5999999999999999"/><line x1="502.0569059011164" y1="341.2721212121212" x2="502.0569059011164" y2="328.8954215253348" stroke="#F8766D" stroke-width="1.5999999999999999"/><line x1="502.0569059011164" y1="328.8954215253348" x2="536.1669537480063" y2="328.8954215253348" stroke="#F8766D" stroke-width="1.5999999999999999"/><line x1="536.1669537480063" y1="328.8954215253348" x2="536.1669537480063" y2="341.2721212121212" stroke="#F8766D" stroke-width="1.5999999999999999"/><line x1="297.3966188197767" y1="341.2721212121212" x2="297.3966188197767" y2="328.8954215253348" stroke="#00BA38" stroke-width="1.5999999999999999"/><line x1="297.3966188197767" y1="328.8954215253348" x2="331.50666666666666" y2="328.8954215253348" stroke="#00BA38" stroke-width="1.5999999999999999"/><line x1="331.50666666666666" y1="328.8954215253348" x2="331.50666666666666" y2="341.2721212121212" stroke="#00BA38" stroke-width="1.5999999999999999"/><line x1="519.1119298245613" y1="328.8954215253348" x2="519.1119298245613" y2="319.4716824306251" stroke="#F8766D" stroke-width="1.5999999999999999"/><line x1="519.1119298245613" y1="319.4716824306251" x2="570.2770015948963" y2="319.4716824306251" stroke="#F8766D" stroke-width="1.5999999999999999"/><line x1="570.2770015948963" y1="319.4716824306251" x2="570.2770015948963" y2="341.2721212121212" stroke="#F8766D" stroke-width="1.5999999999999999"/><line x1="160.95642743221688" y1="341.2721212121212" x2="160.95642743221688" y2="319.4716824306251" stroke="#619CFF" stroke-width="1.5999999999999999"/><line x1="160.95642743221688" y1="319.4716824306251" x2="212.12149920255183" y2="319.4716824306251" stroke="#619CFF" stroke-width="1.5999999999999999"/><line x1="212.12149920255183" y1="319.4716824306251" x2="212.12149920255183" y2="328.8954215253348" stroke="#619CFF" stroke-width="1.5999999999999999"/><line x1="263.2865709728867" y1="341.2721212121212" x2="263.2865709728867" y2="319.4716824306251" stroke="#00BA38" stroke-width="1.5999999999999999"/><line x1="263.2865709728867" y1="319.4716824306251" x2="314.45164274322167" y2="319.4716824306251" stroke="#00BA38" stroke-width="1.5999999999999999"/><line x1="314.45164274322167" y1="319.4716824306251" x2="314.45164274322167" y2="328.8954215253348" stroke="#00BA38" stroke-width="1.5999999999999999"/><line x1="109.79135566188197" y1="330.41703749927046" x2="109.79135566188197" y2="311.68994341894313" stroke="#619CFF" stroke-width="1.5999999999999999"/><line x1="109.79135566188197" y1="311.68994341894313" x2="186.53896331738434" y2="311.68994341894313" stroke="#619CFF" stroke-width="1.5999999999999999"/><line x1="186.53896331738434" y1="311.68994341894313" x2="186.53896331738434" y2="319.4716824306251" stroke="#619CFF" stroke-width="1.5999999999999999"/><line x1="288.8691068580542" y1="319.4716824306251" x2="288.8691068580542" y2="311.68994341894313" stroke="#00BA38" stroke-width="1.5999999999999999"/><line x1="288.8691068580542" y1="311.68994341894313" x2="382.6717384370016" y2="311.68994341894313" stroke="#00BA38" stroke-width="1.5999999999999999"/><line x1="382.6717384370016" y1="311.68994341894313" x2="382.6717384370016" y2="330.41703749927046" stroke="#00BA38" stroke-width="1.5999999999999999"/><line x1="450.89183413078155" y1="330.41703749927046" x2="450.89183413078155" y2="311.6899434189431" stroke="#F8766D" stroke-width="1.5999999999999999"/><line x1="450.89183413078155" y1="311.6899434189431" x2="544.6944657097289" y2="311.6899434189431" stroke="#F8766D" stroke-width="1.5999999999999999"/><line x1="544.6944657097289" y1="311.6899434189431" x2="544.6944657097289" y2="319.4716824306251" stroke="#F8766D" stroke-width="1.5999999999999999"/><line x1="335.7704226475279" y1="311.68994341894313" x2="335.7704226475279" y2="124.17044695510567" stroke="#4C4C4C" stroke-width="1.5999999999999999"/><line x1="335.7704226475279" y1="124.17044695510567" x2="497.79314992025525" y2="124.17044695510567" stroke="#4C4C4C" stroke-width="1.5999999999999999"/><line x1="497.79314992025525" y1="124.17044695510567" x2="497.79314992025525" y2="311.6899434189431" stroke="#4C4C4C" stroke-width="1.5999999999999999"/><line x1="148.16515948963314" y1="311.68994341894313" x2="148.16515948963314" y2="60.995064935064946" stroke="#4C4C4C" stroke-width="1.5999999999999999"/><line x1="148.16515948963314" y1="60.995064935064946" x2="416.78178628389156" y2="60.995064935064946" stroke="#4C4C4C" stroke-width="1.5999999999999999"/><line x1="416.78178628389156" y1="60.995064935064946" x2="416.78178628389156" y2="124.17044695510567" stroke="#4C4C4C" stroke-width="1.5999999999999999"/><line x1="46.346666666666664" y1="355.9866666666667" x2="46.346666666666664" y2="32.266666666666666" stroke="#333333" stroke-width="1.3333333333333333"/></svg>