<svg xmlns="http://www.w3.org/2000/svg" width="624" height="384" viewBox="0 0 624 384"><rect x="0.0" y="0.0" width="624.0" height="384.0" fill="#ffffff" fill-opacity="1.0" stroke="none"/><line x1="35.05333333333333" y1="318.81010101010054" x2="616.6666666666666" y2="318.81010101010054" stroke="#dddddd" stroke-width="0.6666666666666666"/><line x1="35.05333333333333" y1="269.40606060606" x2="616.6666666666666" y2="269.40606060606" stroke="#dddddd" stroke-width="0.6666666666666666"/><line x1="35.05333333333333" y1="220.00202020201982" x2="616.6666666666666" y2="220.00202020201982" stroke="#dddddd" stroke-width="0.6666666666666666"/><line x1="35.05333333333333" y1="170.59797979797924" x2="616.6666666666666" y2="170.59797979797924" stroke="#dddddd" stroke-width="0.6666666666666666"/><line x1="35.05333333333333" y1="121.1939393939391" x2="616.6666666666666" y2="121.1939393939391" stroke="#dddddd" stroke-width="0.6666666666666666"/><line x1="35.05333333333333" y1="71.78989898989894" x2="616.6666666666666" y2="71.78989898989894" stroke="#dddddd" stroke-width="0.6666666666666666"/><line x1="35.05333333333333" y1="343.51212121212063" x2="616.6666666666666" y2="343.51212121212063" stroke="#dddddd" stroke-width="1.3333333333333333"/><line x1="35.05333333333333" y1="294.1080808080805" x2="616.6666666666666" y2="294.1080808080805" stroke="#dddddd" stroke-width="1.3333333333333333"/><line x1="35.05333333333333" y1="244.70404040403992" x2="616.6666666666666" y2="244.70404040403992" stroke="#dddddd" stroke-width="1.3333333333333333"/><line x1="35.05333333333333" y1="195.29999999999978" x2="616.6666666666666" y2="195.29999999999978" stroke="#dddddd" stroke-width="1.3333333333333333"/><line x1="35.05333333333333" y1="145.8959595959592" x2="616.6666666666666" y2="145.8959595959592" stroke="#dddddd" stroke-width="1.3333333333333333"/><line x1="35.05333333333333" y1="96.49191919191901" x2="616.6666666666666" y2="96.49191919191901" stroke="#dddddd" stroke-width="1.3333333333333333"/><line x1="35.05333333333333" y1="47.08787878787886" x2="616.6666666666666" y2="47.08787878787886" stroke="#dddddd" stroke-width="1.3333333333333333"/><rect x="35.05333333333333" y="32.266666666666666" width="581.6133333333332" height="326.06666666666666" fill="#ffffff" fill-opacity="0.0" stroke="#444444" stroke-width="1.3333333333333333"/><line x1="35.05333333333333" y1="343.51212121212063" x2="31.386666666666663" y2="343.51212121212063" stroke="#444444" stroke-width="1.3333333333333333"/><text x="28.453333333333333" y="347.6187878787873" fill="#333333" font-size="11.733333333333334" font-family="sans-serif" text-anchor="end">4.8</text><line x1="35.05333333333333" y1="294.1080808080805" x2="31.386666666666663" y2="294.1080808080805" stroke="#444444" stroke-width="1.3333333333333333"/><text x="28.453333333333333" y="298.2147474747472" fill="#333333" font-size="11.733333333333334" font-family="sans-serif" text-anchor="end">4.9</text><line x1="35.05333333333333" y1="244.70404040403992" x2="31.386666666666663" y2="244.70404040403992" stroke="#444444" stroke-width="1.3333333333333333"/><text x="28.453333333333333" y="248.8107070707066" fill="#333333" font-size="11.733333333333334" font-family="sans-serif" text-anchor="end">5.0</text><line x1="35.05333333333333" y1="195.29999999999978" x2="31.386666666666663" y2="195.29999999999978" stroke="#444444" stroke-width="1.3333333333333333"/><text x="28.453333333333333" y="199.40666666666647" fill="#333333" font-size="11.733333333333334" font-family="sans-serif" text-anchor="end">5.1</text><line x1="35.05333333333333" y1="145.8959595959592" x2="31.386666666666663" y2="145.8959595959592" stroke="#444444" stroke-width="1.3333333333333333"/><text x="28.453333333333333" y="150.00262626262585" fill="#333333" font-size="11.733333333333334" font-family="sans-serif" text-anchor="end">5.2</text><line x1="35.05333333333333" y1="96.49191919191901" x2="31.386666666666663" y2="96.49191919191901" stroke="#444444" stroke-width="1.3333333333333333"/><text x="28.453333333333333" y="100.59858585858566" fill="#333333" font-size="11.733333333333334" font-family="sans-serif" text-anchor="end">5.3</text><line x1="35.05333333333333" y1="47.08787878787886" x2="31.386666666666663" y2="47.08787878787886" stroke="#444444" stroke-width="1.3333333333333333"/><text x="28.453333333333333" y="51.19454545454552" fill="#333333" font-size="11.733333333333334" font-family="sans-serif" text-anchor="end">5.4</text><text x="35.05333333333333" y="21.413333333333334" fill="#333333" font-size="17.599999999999998" font-family="sans-serif" text-anchor="start">describe: distribution box</text><rect x="180.45666666666662" y="133.54494949494978" width="290.8066666666666" height="123.51010101010081" fill="#ffffff" fill-opacity="1.0" stroke="#333333" stroke-width="1.3333333333333333"/><line x1="180.45666666666662" y1="195.30000000000018" x2="471.2633333333333" y2="195.30000000000018" stroke="#333333" stroke-width="2.6666666666666665"/><line x1="325.85999999999996" y1="257.0550505050506" x2="325.85999999999996" y2="343.5121212121211" stroke="#333333" stroke-width="1.3333333333333333"/><line x1="325.85999999999996" y1="133.54494949494978" x2="325.85999999999996" y2="47.08787878787886" stroke="#333333" stroke-width="1.3333333333333333"/><line x1="253.1583333333333" y1="343.5121212121211" x2="398.5616666666666" y2="343.5121212121211" stroke="#333333" stroke-width="1.3333333333333333"/><line x1="253.1583333333333" y1="47.08787878787886" x2="398.5616666666666" y2="47.08787878787886" stroke="#333333" stroke-width="1.3333333333333333"/></svg>