<svg xmlns="http://www.w3.org/2000/svg" width="1013" height="827" viewBox="0 0 1013 827"><rect x="0.0" y="0.0" width="1013.3333333333333" height="826.6666666666666" fill="#ffffff" fill-opacity="1.0" stroke="none"/><text x="60.72" y="21.413333333333334" fill="#333333" font-size="17.599999999999998" font-family="sans-serif" text-anchor="start">DOE prediction profiler (行=応答 × 列=因子・予測線+CI+実測)</text><rect x="0.0" y="0.0" width="0.0" height="0.0" fill="#ffffff" fill-opacity="1.0" stroke="none"/><line x1="91.79712881546362" y1="39.599999999999994" x2="91.79712881546362" y2="378.13333333333327" stroke="#dddddd" stroke-width="0.6666666666666666"/><line x1="184.99523107439848" y1="39.599999999999994" x2="184.99523107439848" y2="378.13333333333327" stroke="#dddddd" stroke-width="0.6666666666666666"/><line x1="278.19333333333327" y1="39.599999999999994" x2="278.19333333333327" y2="378.13333333333327" stroke="#dddddd" stroke-width="0.6666666666666666"/><line x1="371.3914355922682" y1="39.599999999999994" x2="371.3914355922682" y2="378.13333333333327" stroke="#dddddd" stroke-width="0.6666666666666666"/><line x1="464.58953785120303" y1="39.599999999999994" x2="464.58953785120303" y2="378.13333333333327" stroke="#dddddd" stroke-width="0.6666666666666666"/><line x1="138.39617994493102" y1="39.599999999999994" x2="138.39617994493102" y2="378.13333333333327" stroke="#dddddd" stroke-width="1.3333333333333333"/><line x1="231.59428220386587" y1="39.599999999999994" x2="231.59428220386587" y2="378.13333333333327" stroke="#dddddd" stroke-width="1.3333333333333333"/><line x1="324.7923844628007" y1="39.599999999999994" x2="324.7923844628007" y2="378.13333333333327" stroke="#dddddd" stroke-width="1.3333333333333333"/><line x1="417.99048672173564" y1="39.599999999999994" x2="417.99048672173564" y2="378.13333333333327" stroke="#dddddd" stroke-width="1.3333333333333333"/><line x1="60.72" y1="311.16174553795014" x2="495.66666666666663" y2="311.16174553795014" stroke="#dddddd" stroke-width="0.6666666666666666"/><line x1="60.72" y1="220.31994881806668" x2="495.66666666666663" y2="220.31994881806668" stroke="#dddddd" stroke-width="0.6666666666666666"/><line x1="60.72" y1="129.4781520981832" x2="495.66666666666663" y2="129.4781520981832" stroke="#dddddd" stroke-width="0.6666666666666666"/><line x1="60.72" y1="356.5826438978919" x2="495.66666666666663" y2="356.5826438978919" stroke="#dddddd" stroke-width="1.3333333333333333"/><line x1="60.72" y1="265.7408471780084" x2="495.66666666666663" y2="265.7408471780084" stroke="#dddddd" stroke-width="1.3333333333333333"/><line x1="60.72" y1="174.89905045812492" x2="495.66666666666663" y2="174.89905045812492" stroke="#dddddd" stroke-width="1.3333333333333333"/><line x1="60.72" y1="84.05725373824141" x2="495.66666666666663" y2="84.05725373824141" stroke="#dddddd" stroke-width="1.3333333333333333"/><rect x="60.72" y="39.599999999999994" width="434.9466666666666" height="338.5333333333333" fill="#ffffff" fill-opacity="0.0" stroke="#444444" stroke-width="1.3333333333333333"/><line x1="138.39617994493102" y1="378.13333333333327" x2="138.39617994493102" y2="381.79999999999995" stroke="#444444" stroke-width="1.3333333333333333"/><text x="138.39617994493102" y="394.11999999999995" fill="#333333" font-size="11.733333333333334" font-family="sans-serif" text-anchor="middle">150</text><line x1="231.59428220386587" y1="378.13333333333327" x2="231.59428220386587" y2="381.79999999999995" stroke="#444444" stroke-width="1.3333333333333333"/><text x="231.59428220386587" y="394.11999999999995" fill="#333333" font-size="11.733333333333334" font-family="sans-serif" text-anchor="middle">160</text><line x1="324.7923844628007" y1="378.13333333333327" x2="324.7923844628007" y2="381.79999999999995" stroke="#444444" stroke-width="1.3333333333333333"/><text x="324.7923844628007" y="394.11999999999995" fill="#333333" font-size="11.733333333333334" font-family="sans-serif" text-anchor="middle">170</text><line x1="417.99048672173564" y1="378.13333333333327" x2="417.99048672173564" y2="381.79999999999995" stroke="#444444" stroke-width="1.3333333333333333"/><text x="417.99048672173564" y="394.11999999999995" fill="#333333" font-size="11.733333333333334" font-family="sans-serif" text-anchor="middle">180</text><line x1="60.72" y1="356.5826438978919" x2="57.05333333333333" y2="356.5826438978919" stroke="#444444" stroke-width="1.3333333333333333"/><text x="54.11999999999999" y="360.6893105645586" fill="#333333" font-size="11.733333333333334" font-family="sans-serif" text-anchor="end">150</text><line x1="60.72" y1="265.7408471780084" x2="57.05333333333333" y2="265.7408471780084" stroke="#444444" stroke-width="1.3333333333333333"/><text x="54.11999999999999" y="269.84751384467506" fill="#333333" font-size="11.733333333333334" font-family="sans-serif" text-anchor="end">160</text><line x1="60.72" y1="174.89905045812492" x2="57.05333333333333" y2="174.89905045812492" stroke="#444444" stroke-width="1.3333333333333333"/><text x="54.11999999999999" y="179.0057171247916" fill="#333333" font-size="11.733333333333334" font-family="sans-serif" text-anchor="end">170</text><line x1="60.72" y1="84.05725373824141" x2="57.05333333333333" y2="84.05725373824141" stroke="#444444" stroke-width="1.3333333333333333"/><text x="54.11999999999999" y="88.16392040490808" fill="#333333" font-size="11.733333333333334" font-family="sans-serif" text-anchor="end">180</text><text x="278.19333333333327" y="411.8666666666666" fill="#333333" font-size="14.666666666666666" font-family="sans-serif" text-anchor="middle">temp</text><text x="24.93333333333333" y="208.86666666666662" fill="#333333" font-size="14.666666666666666" font-family="sans-serif" text-anchor="middle" transform="rotate(-90.0 24.93333333333333 208.86666666666662)">strength</text><circle cx="138.39617994493102" cy="346.5900462587048" r="3.1181102362204727" fill="#1f77b4" fill-opacity="0.85" stroke="none"><title>(150, 151.1)</title></circle><circle cx="138.39617994493102" cy="220.31994881806668" r="3.1181102362204727" fill="#1f77b4" fill-opacity="0.85" stroke="none"><title>(150, 165)</title></circle><circle cx="417.99048672173564" cy="184.89164809731204" r="3.1181102362204727" fill="#1f77b4" fill-opacity="0.85" stroke="none"><title>(180, 168.9)</title></circle><circle cx="417.99048672173564" cy="54.987878787878834" r="3.1181102362204727" fill="#1f77b4" fill-opacity="0.85" stroke="none"><title>(180, 183.2)</title></circle><circle cx="80.49030303030293" cy="356.83629292007896" r="3.1181102362204727" fill="#1f77b4" fill-opacity="0.85" stroke="none"><title>(143.786796564404, 149.972077938642)</title></circle><circle cx="475.89636363636373" cy="128.31608510879735" r="3.1181102362204727" fill="#1f77b4" fill-opacity="0.85" stroke="none"><title>(186.213203435596, 175.127922061358)</title></circle><circle cx="278.19333333333327" cy="252.17454886064866" r="3.1181102362204727" fill="#1f77b4" fill-opacity="0.85" stroke="none"><title>(165, 161.493398282202)</title></circle><circle cx="278.19333333333327" cy="69.46259507243735" r="3.1181102362204727" fill="#1f77b4" fill-opacity="0.85" stroke="none"><title>(165, 181.606601717798)</title></circle><circle cx="278.19333333333327" cy="157.63910908134702" r="3.1181102362204727" fill="#1f77b4" fill-opacity="0.85" stroke="none"><title>(165, 171.9)</title></circle><circle cx="278.19333333333327" cy="163.99803485173902" r="3.1181102362204727" fill="#1f77b4" fill-opacity="0.85" stroke="none"><title>(165, 171.2)</title></circle><path d="M 80.49030303030293 362.74545454545444 L 87.19210066769384 353.13076723368005 L 93.89389830508478 343.73288852050297 L 100.59569594247543 334.5526808746315 L 107.29749357986636 325.59071186259814 L 113.99929121725728 316.8471391110262 L 120.70108885464822 308.3216074328079 L 127.40288649203887 300.01317886109416 L 134.10468412942978 291.9203138757621 L 140.8064817668207 284.0409130137132 L 147.50827940421163 276.3724147316391 L 154.2100770416023 268.9119328063716 L 160.9118746789932 261.6564095321082 L 167.6136723163841 254.6027614430186 L 174.31546995377508 247.74800065193145 L 181.01726759116573 241.0893235926916 L 187.71906522855662 234.6241666983575 L 194.42086286594753 228.35023361163098 L 201.1226605033385 222.26550075350852 L 207.8244581407294 216.36820820817562 L 214.52625577812006 210.65684185683895 L 221.228053415511 205.13011126066377 L 227.9298510529019 199.78692640650993 L 234.63164869029256 194.62637529388275 L 241.33344632768348 189.6477035046211 L 248.03524396507441 184.85029632884806 L 254.73704160246533 180.233663662512 L 261.43883923985624 175.79742768630788 L 268.14063687724695 171.5413132328381 L 274.84243451463783 167.46514071323077 L 281.5442321520287 163.5688214799776 L 288.24602978941965 159.85235553307012 L 294.94782742681036 156.3158315200409 L 301.64962506420125 152.95942902972962 L 308.3514227015922 149.78342322956 L 315.0532203389831 146.78819193882592 L 321.755017976374 143.9742252615761 L 328.45681561376466 141.34213790769493 L 335.1586132511556 138.89268429533502 L 341.86041088854654 136.62677642500128 L 348.56220852593725 134.54550430982238 L 355.26400616332813 132.65015838865546 L 361.9658038007191 130.94225278026437 L 368.66760143810995 129.42354740048927 L 375.36939907550095 128.09606582831012 L 382.0711967128916 126.96210442104059 L 388.7729943502825 126.02422674561576 L 395.4747919876734 125.28523636819007 L 402.1765896250641 124.74812117595081 L 408.878387262455 124.41596463470519 L 415.5801848998459 124.2918244502717 L 422.2819825372369 124.37858684581047 L 428.9837801746278 124.6788133646404 L 435.6855778120185 125.19460346983888 L 442.3873754494094 125.92749668154829 L 449.0891730868003 126.87843096661443 L 455.7909707241912 128.04776151213736 L 462.49276836158185 129.4353306915002 L 469.19456599897285 131.04057093816348 L 475.89636363636373 132.8626197834339 L 475.89636363636373 122.4069234834216 L 469.19456599897285 121.12372676468362 L 462.49276836158185 119.99951055184272 L 455.7909707241912 119.03341237620239 L 449.0891730868003 118.22486467122019 L 442.3873754494094 117.5737098102843 L 435.6855778120185 117.0803029804897 L 428.9837801746278 116.7455821486836 L 422.2819825372369 116.57108683501167 L 415.5801848998459 116.558916502547 L 408.878387262455 116.71163269461279 L 402.1765896250641 117.03212163436592 L 395.4747919876734 117.52344102762648 L 388.7729943502825 118.18867434020117 L 382.0711967128916 119.03080945927675 L 375.36939907550095 120.05264995100927 L 368.66760143810995 121.25675938233174 L 361.9658038007191 122.64543411055922 L 355.26400616332813 124.22069771467132 L 348.56220852593725 125.98431011050505 L 341.86041088854654 127.93778541683301 L 335.1586132511556 130.08241407250367 L 328.45681561376466 132.4192860906491 L 321.755017976374 134.94931347177243 L 315.0532203389831 137.67325063402967 L 308.3514227015922 140.5917122873022 L 301.64962506420125 143.70518853563968 L 294.94782742681036 147.01405719833613 L 288.24602978941965 150.51859344281462 L 281.5442321520287 154.21897685791652 L 274.84243451463783 158.1152960911707 L 268.14063687724695 162.2075511425733 L 261.43883923985624 166.49565336461401 L 254.73704160246533 170.97942316842048 L 248.03524396507441 175.65858538659654 L 241.33344632768348 180.53276219983573 L 234.63164869029256 185.60146350408678 L 227.9298510529019 190.86407458947343 L 221.228053415511 196.31984103783398 L 214.52625577812006 201.96785084867273 L 207.8244581407294 207.80701400884845 L 201.1226605033385 213.83604007953113 L 194.42086286594753 220.05341494192376 L 187.71906522855662 226.4573786802144 L 181.01726759116573 233.045907715397 L 174.31546995377508 239.8167056901744 L 167.6136723163841 246.76720903760557 L 160.9118746789932 253.8946141915333 L 154.2100770416023 261.19593326478986 L 147.50827940421163 268.6680827915404 L 140.8064817668207 276.3080050659864 L 134.10468412942978 284.11281386495654 L 127.40288649203887 292.07994764514666 L 120.70108885464822 300.2073069434557 L 113.99929121725728 308.4933522397597 L 107.29749357986636 316.9371455672106 L 100.59569594247543 325.53833173870123 L 93.89389830508478 334.29706838085167 L 87.19210066769384 343.2139230601997 L 80.49030303030293 352.28975824545034 Z" fill="#1f77b4" fill-opacity="0.2" stroke="none"/><line x1="80.49030303030293" y1="357.5176063954524" x2="87.19210066769384" y2="348.17234514693985" stroke="#1f77b4" stroke-width="1.4211023622047245"/><line x1="87.19210066769384" y1="348.17234514693985" x2="93.89389830508478" y2="339.0149784506773" stroke="#1f77b4" stroke-width="1.4211023622047245"/><line x1="93.89389830508478" y1="339.0149784506773" x2="100.59569594247543" y2="330.04550630666637" stroke="#1f77b4" stroke-width="1.4211023622047245"/><line x1="100.59569594247543" y1="330.04550630666637" x2="107.29749357986636" y2="321.2639287149044" stroke="#1f77b4" stroke-width="1.4211023622047245"/><line x1="107.29749357986636" y1="321.2639287149044" x2="113.99929121725728" y2="312.67024567539295" stroke="#1f77b4" stroke-width="1.4211023622047245"/><line x1="113.99929121725728" y1="312.67024567539295" x2="120.70108885464822" y2="304.2644571881318" stroke="#1f77b4" stroke-width="1.4211023622047245"/><line x1="120.70108885464822" y1="304.2644571881318" x2="127.40288649203887" y2="296.04656325312044" stroke="#1f77b4" stroke-width="1.4211023622047245"/><line x1="127.40288649203887" y1="296.04656325312044" x2="134.10468412942978" y2="288.01656387035933" stroke="#1f77b4" stroke-width="1.4211023622047245"/><line x1="134.10468412942978" y1="288.01656387035933" x2="140.8064817668207" y2="280.1744590398498" stroke="#1f77b4" stroke-width="1.4211023622047245"/><line x1="140.8064817668207" y1="280.1744590398498" x2="147.50827940421163" y2="272.52024876158976" stroke="#1f77b4" stroke-width="1.4211023622047245"/><line x1="147.50827940421163" y1="272.52024876158976" x2="154.2100770416023" y2="265.05393303558077" stroke="#1f77b4" stroke-width="1.4211023622047245"/><line x1="154.2100770416023" y1="265.05393303558077" x2="160.9118746789932" y2="257.77551186182075" stroke="#1f77b4" stroke-width="1.4211023622047245"/><line x1="160.9118746789932" y1="257.77551186182075" x2="167.6136723163841" y2="250.68498524031207" stroke="#1f77b4" stroke-width="1.4211023622047245"/><line x1="167.6136723163841" y1="250.68498524031207" x2="174.31546995377508" y2="243.78235317105293" stroke="#1f77b4" stroke-width="1.4211023622047245"/><line x1="174.31546995377508" y1="243.78235317105293" x2="181.01726759116573" y2="237.06761565404432" stroke="#1f77b4" stroke-width="1.4211023622047245"/><line x1="181.01726759116573" y1="237.06761565404432" x2="187.71906522855662" y2="230.54077268928592" stroke="#1f77b4" stroke-width="1.4211023622047245"/><line x1="187.71906522855662" y1="230.54077268928592" x2="194.42086286594753" y2="224.20182427677733" stroke="#1f77b4" stroke-width="1.4211023622047245"/><line x1="194.42086286594753" y1="224.20182427677733" x2="201.1226605033385" y2="218.0507704165198" stroke="#1f77b4" stroke-width="1.4211023622047245"/><line x1="201.1226605033385" y1="218.0507704165198" x2="207.8244581407294" y2="212.08761110851202" stroke="#1f77b4" stroke-width="1.4211023622047245"/><line x1="207.8244581407294" y1="212.08761110851202" x2="214.52625577812006" y2="206.3123463527558" stroke="#1f77b4" stroke-width="1.4211023622047245"/><line x1="214.52625577812006" y1="206.3123463527558" x2="221.228053415511" y2="200.72497614924887" stroke="#1f77b4" stroke-width="1.4211023622047245"/><line x1="221.228053415511" y1="200.72497614924887" x2="227.9298510529019" y2="195.3255004979917" stroke="#1f77b4" stroke-width="1.4211023622047245"/><line x1="227.9298510529019" y1="195.3255004979917" x2="234.63164869029256" y2="190.11391939898476" stroke="#1f77b4" stroke-width="1.4211023622047245"/><line x1="234.63164869029256" y1="190.11391939898476" x2="241.33344632768348" y2="185.0902328522284" stroke="#1f77b4" stroke-width="1.4211023622047245"/><line x1="241.33344632768348" y1="185.0902328522284" x2="248.03524396507441" y2="180.25444085772233" stroke="#1f77b4" stroke-width="1.4211023622047245"/><line x1="248.03524396507441" y1="180.25444085772233" x2="254.73704160246533" y2="175.6065434154662" stroke="#1f77b4" stroke-width="1.4211023622047245"/><line x1="254.73704160246533" y1="175.6065434154662" x2="261.43883923985624" y2="171.14654052546098" stroke="#1f77b4" stroke-width="1.4211023622047245"/><line x1="261.43883923985624" y1="171.14654052546098" x2="268.14063687724695" y2="166.8744321877057" stroke="#1f77b4" stroke-width="1.4211023622047245"/><line x1="268.14063687724695" y1="166.8744321877057" x2="274.84243451463783" y2="162.79021840220074" stroke="#1f77b4" stroke-width="1.4211023622047245"/><line x1="274.84243451463783" y1="162.79021840220074" x2="281.5442321520287" y2="158.8938991689471" stroke="#1f77b4" stroke-width="1.4211023622047245"/><line x1="281.5442321520287" y1="158.8938991689471" x2="288.24602978941965" y2="155.18547448794237" stroke="#1f77b4" stroke-width="1.4211023622047245"/><line x1="288.24602978941965" y1="155.18547448794237" x2="294.94782742681036" y2="151.6649443591885" stroke="#1f77b4" stroke-width="1.4211023622047245"/><line x1="294.94782742681036" y1="151.6649443591885" x2="301.64962506420125" y2="148.33230878268466" stroke="#1f77b4" stroke-width="1.4211023622047245"/><line x1="301.64962506420125" y1="148.33230878268466" x2="308.3514227015922" y2="145.1875677584311" stroke="#1f77b4" stroke-width="1.4211023622047245"/><line x1="308.3514227015922" y1="145.1875677584311" x2="315.0532203389831" y2="142.23072128642778" stroke="#1f77b4" stroke-width="1.4211023622047245"/><line x1="315.0532203389831" y1="142.23072128642778" x2="321.755017976374" y2="139.46176936667422" stroke="#1f77b4" stroke-width="1.4211023622047245"/><line x1="321.755017976374" y1="139.46176936667422" x2="328.45681561376466" y2="136.88071199917206" stroke="#1f77b4" stroke-width="1.4211023622047245"/><line x1="328.45681561376466" y1="136.88071199917206" x2="335.1586132511556" y2="134.48754918391936" stroke="#1f77b4" stroke-width="1.4211023622047245"/><line x1="335.1586132511556" y1="134.48754918391936" x2="341.86041088854654" y2="132.28228092091712" stroke="#1f77b4" stroke-width="1.4211023622047245"/><line x1="341.86041088854654" y1="132.28228092091712" x2="348.56220852593725" y2="130.2649072101637" stroke="#1f77b4" stroke-width="1.4211023622047245"/><line x1="348.56220852593725" y1="130.2649072101637" x2="355.26400616332813" y2="128.4354280516634" stroke="#1f77b4" stroke-width="1.4211023622047245"/><line x1="355.26400616332813" y1="128.4354280516634" x2="361.9658038007191" y2="126.79384344541177" stroke="#1f77b4" stroke-width="1.4211023622047245"/><line x1="361.9658038007191" y1="126.79384344541177" x2="368.66760143810995" y2="125.34015339141047" stroke="#1f77b4" stroke-width="1.4211023622047245"/><line x1="368.66760143810995" y1="125.34015339141047" x2="375.36939907550095" y2="124.07435788965968" stroke="#1f77b4" stroke-width="1.4211023622047245"/><line x1="375.36939907550095" y1="124.07435788965968" x2="382.0711967128916" y2="122.99645694015865" stroke="#1f77b4" stroke-width="1.4211023622047245"/><line x1="382.0711967128916" y1="122.99645694015865" x2="388.7729943502825" y2="122.10645054290849" stroke="#1f77b4" stroke-width="1.4211023622047245"/><line x1="388.7729943502825" y1="122.10645054290849" x2="395.4747919876734" y2="121.40433869790827" stroke="#1f77b4" stroke-width="1.4211023622047245"/><line x1="395.4747919876734" y1="121.40433869790827" x2="402.1765896250641" y2="120.89012140515834" stroke="#1f77b4" stroke-width="1.4211023622047245"/><line x1="402.1765896250641" y1="120.89012140515834" x2="408.878387262455" y2="120.56379866465898" stroke="#1f77b4" stroke-width="1.4211023622047245"/><line x1="408.878387262455" y1="120.56379866465898" x2="415.5801848998459" y2="120.42537047640936" stroke="#1f77b4" stroke-width="1.4211023622047245"/><line x1="415.5801848998459" y1="120.42537047640936" x2="422.2819825372369" y2="120.47483684041109" stroke="#1f77b4" stroke-width="1.4211023622047245"/><line x1="422.2819825372369" y1="120.47483684041109" x2="428.9837801746278" y2="120.71219775666198" stroke="#1f77b4" stroke-width="1.4211023622047245"/><line x1="428.9837801746278" y1="120.71219775666198" x2="435.6855778120185" y2="121.13745322516425" stroke="#1f77b4" stroke-width="1.4211023622047245"/><line x1="435.6855778120185" y1="121.13745322516425" x2="442.3873754494094" y2="121.7506032459163" stroke="#1f77b4" stroke-width="1.4211023622047245"/><line x1="442.3873754494094" y1="121.7506032459163" x2="449.0891730868003" y2="122.55164781891733" stroke="#1f77b4" stroke-width="1.4211023622047245"/><line x1="449.0891730868003" y1="122.55164781891733" x2="455.7909707241912" y2="123.54058694416986" stroke="#1f77b4" stroke-width="1.4211023622047245"/><line x1="455.7909707241912" y1="123.54058694416986" x2="462.49276836158185" y2="124.71742062167144" stroke="#1f77b4" stroke-width="1.4211023622047245"/><line x1="462.49276836158185" y1="124.71742062167144" x2="469.19456599897285" y2="126.08214885142357" stroke="#1f77b4" stroke-width="1.4211023622047245"/><line x1="469.19456599897285" y1="126.08214885142357" x2="475.89636363636373" y2="127.63477163342773" stroke="#1f77b4" stroke-width="1.4211023622047245"/><rect x="0.0" y="0.0" width="0.0" height="0.0" fill="#ffffff" fill-opacity="1.0" stroke="none"/><line x1="641.3961799449311" y1="39.599999999999994" x2="641.3961799449311" y2="378.13333333333327" stroke="#dddddd" stroke-width="0.6666666666666666"/><line x1="753.2339026556529" y1="39.599999999999994" x2="753.2339026556529" y2="378.13333333333327" stroke="#dddddd" stroke-width="0.6666666666666666"/><line x1="865.0716253663746" y1="39.599999999999994" x2="865.0716253663746" y2="378.13333333333327" stroke="#dddddd" stroke-width="0.6666666666666666"/><line x1="976.9093480770964" y1="39.599999999999994" x2="976.9093480770964" y2="378.13333333333327" stroke="#dddddd" stroke-width="0.6666666666666666"/><line x1="585.4773185895702" y1="39.599999999999994" x2="585.4773185895702" y2="378.13333333333327" stroke="#dddddd" stroke-width="1.3333333333333333"/><line x1="697.315041300292" y1="39.599999999999994" x2="697.315041300292" y2="378.13333333333327" stroke="#dddddd" stroke-width="1.3333333333333333"/><line x1="809.1527640110137" y1="39.599999999999994" x2="809.1527640110137" y2="378.13333333333327" stroke="#dddddd" stroke-width="1.3333333333333333"/><line x1="920.9904867217356" y1="39.599999999999994" x2="920.9904867217356" y2="378.13333333333327" stroke="#dddddd" stroke-width="1.3333333333333333"/><line x1="563.72" y1="316.1767554301691" x2="998.6666666666666" y2="316.1767554301691" stroke="#dddddd" stroke-width="0.6666666666666666"/><line x1="563.72" y1="223.5565864080803" x2="998.6666666666666" y2="223.5565864080803" stroke="#dddddd" stroke-width="0.6666666666666666"/><line x1="563.72" y1="130.9364173859915" x2="998.6666666666666" y2="130.9364173859915" stroke="#dddddd" stroke-width="0.6666666666666666"/><line x1="563.72" y1="362.48683994121353" x2="998.6666666666666" y2="362.48683994121353" stroke="#dddddd" stroke-width="1.3333333333333333"/><line x1="563.72" y1="269.8666709191247" x2="998.6666666666666" y2="269.8666709191247" stroke="#dddddd" stroke-width="1.3333333333333333"/><line x1="563.72" y1="177.24650189703587" x2="998.6666666666666" y2="177.24650189703587" stroke="#dddddd" stroke-width="1.3333333333333333"/><line x1="563.72" y1="84.62633287494702" x2="998.6666666666666" y2="84.62633287494702" stroke="#dddddd" stroke-width="1.3333333333333333"/><rect x="563.72" y="39.599999999999994" width="434.9466666666666" height="338.5333333333333" fill="#ffffff" fill-opacity="0.0" stroke="#444444" stroke-width="1.3333333333333333"/><line x1="585.4773185895702" y1="378.13333333333327" x2="585.4773185895702" y2="381.79999999999995" stroke="#444444" stroke-width="1.3333333333333333"/><text x="585.4773185895702" y="394.11999999999995" fill="#333333" font-size="11.733333333333334" font-family="sans-serif" text-anchor="middle">8</text><line x1="697.315041300292" y1="378.13333333333327" x2="697.315041300292" y2="381.79999999999995" stroke="#444444" stroke-width="1.3333333333333333"/><text x="697.315041300292" y="394.11999999999995" fill="#333333" font-size="11.733333333333334" font-family="sans-serif" text-anchor="middle">12</text><line x1="809.1527640110137" y1="378.13333333333327" x2="809.1527640110137" y2="381.79999999999995" stroke="#444444" stroke-width="1.3333333333333333"/><text x="809.1527640110137" y="394.11999999999995" fill="#333333" font-size="11.733333333333334" font-family="sans-serif" text-anchor="middle">16</text><line x1="920.9904867217356" y1="378.13333333333327" x2="920.9904867217356" y2="381.79999999999995" stroke="#444444" stroke-width="1.3333333333333333"/><text x="920.9904867217356" y="394.11999999999995" fill="#333333" font-size="11.733333333333334" font-family="sans-serif" text-anchor="middle">20</text><line x1="563.72" y1="362.48683994121353" x2="560.0533333333333" y2="362.48683994121353" stroke="#444444" stroke-width="1.3333333333333333"/><text x="557.12" y="366.59350660788016" fill="#333333" font-size="11.733333333333334" font-family="sans-serif" text-anchor="end">150</text><line x1="563.72" y1="269.8666709191247" x2="560.0533333333333" y2="269.8666709191247" stroke="#444444" stroke-width="1.3333333333333333"/><text x="557.12" y="273.9733375857914" fill="#333333" font-size="11.733333333333334" font-family="sans-serif" text-anchor="end">160</text><line x1="563.72" y1="177.24650189703587" x2="560.0533333333333" y2="177.24650189703587" stroke="#444444" stroke-width="1.3333333333333333"/><text x="557.12" y="181.35316856370255" fill="#333333" font-size="11.733333333333334" font-family="sans-serif" text-anchor="end">170</text><line x1="563.72" y1="84.62633287494702" x2="560.0533333333333" y2="84.62633287494702" stroke="#444444" stroke-width="1.3333333333333333"/><text x="557.12" y="88.73299954161368" fill="#333333" font-size="11.733333333333334" font-family="sans-serif" text-anchor="end">180</text><text x="781.1933333333333" y="411.8666666666666" fill="#333333" font-size="14.666666666666666" font-family="sans-serif" text-anchor="middle">time</text><text x="527.9333333333333" y="208.86666666666662" fill="#333333" font-size="14.666666666666666" font-family="sans-serif" text-anchor="middle" transform="rotate(-90.0 527.9333333333333 208.86666666666662)">strength</text><circle cx="641.3961799449311" cy="352.29862134878385" r="3.1181102362204727" fill="#1f77b4" fill-opacity="0.85" stroke="none"><title>(10, 151.1)</title></circle><circle cx="920.9904867217356" cy="223.5565864080803" r="3.1181102362204727" fill="#1f77b4" fill-opacity="0.85" stroke="none"><title>(20, 165)</title></circle><circle cx="641.3961799449311" cy="187.4347204894656" r="3.1181102362204727" fill="#1f77b4" fill-opacity="0.85" stroke="none"><title>(10, 168.9)</title></circle><circle cx="920.9904867217356" cy="54.98787878787872" r="3.1181102362204727" fill="#1f77b4" fill-opacity="0.85" stroke="none"><title>(20, 183.2)</title></circle><circle cx="781.1933333333333" cy="362.74545454545455" r="3.1181102362204727" fill="#1f77b4" fill-opacity="0.85" stroke="none"><title>(15, 149.972077938642)</title></circle><circle cx="781.1933333333333" cy="129.7516010915296" r="3.1181102362204727" fill="#1f77b4" fill-opacity="0.85" stroke="none"><title>(15, 175.127922061358)</title></circle><circle cx="583.490303030303" cy="256.0347907876421" r="3.1181102362204727" fill="#1f77b4" fill-opacity="0.85" stroke="none"><title>(7.928932188135, 161.493398282202)</title></circle><circle cx="978.8963636363635" cy="69.74596060958216" r="3.1181102362204727" fill="#1f77b4" fill-opacity="0.85" stroke="none"><title>(22.071067811865, 181.606601717798)</title></circle><circle cx="781.1933333333333" cy="159.64866978283897" r="3.1181102362204727" fill="#1f77b4" fill-opacity="0.85" stroke="none"><title>(15, 171.9)</title></circle><circle cx="781.1933333333333" cy="166.13208161438536" r="3.1181102362204727" fill="#1f77b4" fill-opacity="0.85" stroke="none"><title>(15, 171.2)</title></circle><path d="M 583.490303030303 260.96488127629925 L 590.1921006676939 257.54630571934246 L 596.8938983050848 254.15721024706 L 603.5956959424756 250.798474212363 L 610.2974935798665 247.47067629279155 L 616.9992912172572 244.17397720076065 L 623.7010888546481 240.9080147958266 L 630.402886492039 237.67183274893551 L 637.1046841294299 234.46386140141237 L 643.8064817668208 231.2819601898456 L 650.5082794042116 228.12351742465125 L 657.2100770416025 224.98559038026042 L 663.9118746789934 221.8650614914308 L 670.6136723163842 218.75878692860957 L 677.315469953775 215.66372031196548 L 684.0172675911659 212.57700319110475 L 690.7190652285568 209.49602181319898 L 697.4208628659476 206.41843486609562 L 704.1226605033385 203.34217915603807 L 710.8244581407293 200.26546031406247 L 717.5262557781202 197.18673458009374 L 724.2280534155111 194.10468625291014 L 730.929851052902 191.01820398064194 L 737.6316486902926 187.92635790893695 L 744.3334463276835 184.8283788506979 L 751.0352439650744 181.72364006212342 L 757.7370416024653 178.61164184460404 L 764.4388392398562 175.49199898241105 L 771.1406368772471 172.3644309213169 L 777.842434514638 169.22875455672127 L 784.5442321520287 166.0848795056885 L 791.2460297894196 162.93280576821707 L 797.9478274268105 159.77262372723436 L 804.6496250642014 156.60451648734866 L 811.3514227015922 153.4287646028012 L 818.053220338983 150.24575328930183 L 824.7550179763739 147.05598224547714 L 831.4568156137649 143.86007821511265 L 838.1586132511557 140.65881038530406 L 844.8604108885465 137.45310861041187 L 851.5622085259374 134.24408424230637 L 858.2640061633283 131.03305298221886 L 864.9658038007192 127.82155859021273 L 871.6676014381101 124.61139543523348 L 878.3693990755007 121.40462671107164 L 885.0711967128916 118.20359372985288 L 891.7729943502825 115.01091024443909 L 898.4747919876734 111.82943470518849 L 905.1765896250641 108.66221349194282 L 911.878387262455 105.51239043426267 L 918.5801848998459 102.38308309738116 L 925.2819825372368 99.27723420687562 L 931.9837801746277 96.1974554523338 L 938.6855778120186 93.14588739715278 L 945.3873754494094 90.12409970001734 L 952.0891730868003 87.13304868997378 L 958.7909707241911 84.17309650747343 L 965.492768361582 81.24408244009672 L 972.1945659989728 78.34542781030737 L 978.8963636363635 75.47625326519847 L 978.8963636363635 64.81587012092473 L 972.1945659989728 68.23444567788547 L 965.492768361582 71.62354115016849 L 958.7909707241911 74.98227718486415 L 952.0891730868003 78.31007510443354 L 945.3873754494094 81.60677419646231 L 938.6855778120186 84.87273660139715 L 931.9837801746277 88.10891864828798 L 925.2819825372368 91.3168899958185 L 918.5801848998459 94.49879120738319 L 911.878387262455 97.65723397257139 L 905.1765896250641 100.79516101696363 L 898.4747919876734 103.91568990579029 L 891.7729943502825 107.02196446860944 L 885.0711967128916 110.11703108526592 L 878.3693990755007 113.20374820611951 L 871.6676014381101 116.28472958402952 L 864.9658038007192 119.3623165311205 L 858.2640061633283 122.43857224118672 L 851.5622085259374 125.51529108316893 L 844.8604108885465 128.59401681713578 L 838.1586132511557 131.67606514431594 L 831.4568156137649 134.7625474165776 L 824.7550179763739 137.85439348828282 L 818.053220338983 140.95237254653057 L 811.3514227015922 144.0571113351035 L 804.6496250642014 147.1691095526263 L 797.9478274268105 150.28875241481242 L 791.2460297894196 153.41632047589997 L 784.5442321520287 156.55199684050092 L 777.842434514638 159.69587189154052 L 771.1406368772471 162.84794562901453 L 764.4388392398562 166.0081276699907 L 757.7370416024653 169.17623490987216 L 751.0352439650744 172.35198679442306 L 744.3334463276835 175.53499810791826 L 737.6316486902926 178.72476915175162 L 730.929851052902 181.92067318211687 L 724.2280534155111 185.121941011921 L 717.5262557781202 188.32764278680978 L 710.8244581407293 191.53666715491082 L 704.1226605033385 194.7476984150054 L 697.4208628659476 197.95919280702233 L 690.7190652285568 201.1693559619892 L 684.0172675911659 204.37612468615373 L 677.315469953775 207.5771576673627 L 670.6136723163842 210.7698411527931 L 663.9118746789934 213.9513166920421 L 657.2100770416025 217.11853790528278 L 650.5082794042116 220.2683609629642 L 643.8064817668208 223.3976682998397 L 637.1046841294299 226.5035171903452 L 630.402886492039 229.58329594489445 L 623.7010888546481 232.6348640000736 L 616.9992912172572 235.65665169720984 L 610.2974935798665 238.64770270725342 L 603.5956959424756 241.60765488975213 L 596.8938983050848 244.5366689571249 L 590.1921006676939 247.43532358691482 L 583.490303030303 250.3044981320282 Z" fill="#1f77b4" fill-opacity="0.2" stroke="none"/><line x1="583.490303030303" y1="255.63468970416375" x2="590.1921006676939" y2="252.49081465312864" stroke="#1f77b4" stroke-width="1.4211023622047245"/><line x1="590.1921006676939" y1="252.49081465312864" x2="596.8938983050848" y2="249.34693960209245" stroke="#1f77b4" stroke-width="1.4211023622047245"/><line x1="596.8938983050848" y1="249.34693960209245" x2="603.5956959424756" y2="246.20306455105757" stroke="#1f77b4" stroke-width="1.4211023622047245"/><line x1="603.5956959424756" y1="246.20306455105757" x2="610.2974935798665" y2="243.05918950002246" stroke="#1f77b4" stroke-width="1.4211023622047245"/><line x1="610.2974935798665" y1="243.05918950002246" x2="616.9992912172572" y2="239.91531444898524" stroke="#1f77b4" stroke-width="1.4211023622047245"/><line x1="616.9992912172572" y1="239.91531444898524" x2="623.7010888546481" y2="236.7714393979501" stroke="#1f77b4" stroke-width="1.4211023622047245"/><line x1="623.7010888546481" y1="236.7714393979501" x2="630.402886492039" y2="233.62756434691497" stroke="#1f77b4" stroke-width="1.4211023622047245"/><line x1="630.402886492039" y1="233.62756434691497" x2="637.1046841294299" y2="230.4836892958788" stroke="#1f77b4" stroke-width="1.4211023622047245"/><line x1="637.1046841294299" y1="230.4836892958788" x2="643.8064817668208" y2="227.33981424484264" stroke="#1f77b4" stroke-width="1.4211023622047245"/><line x1="643.8064817668208" y1="227.33981424484264" x2="650.5082794042116" y2="224.19593919380776" stroke="#1f77b4" stroke-width="1.4211023622047245"/><line x1="650.5082794042116" y1="224.19593919380776" x2="657.2100770416025" y2="221.05206414277157" stroke="#1f77b4" stroke-width="1.4211023622047245"/><line x1="657.2100770416025" y1="221.05206414277157" x2="663.9118746789934" y2="217.90818909173646" stroke="#1f77b4" stroke-width="1.4211023622047245"/><line x1="663.9118746789934" y1="217.90818909173646" x2="670.6136723163842" y2="214.76431404070132" stroke="#1f77b4" stroke-width="1.4211023622047245"/><line x1="670.6136723163842" y1="214.76431404070132" x2="677.315469953775" y2="211.62043898966408" stroke="#1f77b4" stroke-width="1.4211023622047245"/><line x1="677.315469953775" y1="211.62043898966408" x2="684.0172675911659" y2="208.47656393862923" stroke="#1f77b4" stroke-width="1.4211023622047245"/><line x1="684.0172675911659" y1="208.47656393862923" x2="690.7190652285568" y2="205.33268888759414" stroke="#1f77b4" stroke-width="1.4211023622047245"/><line x1="690.7190652285568" y1="205.33268888759414" x2="697.4208628659476" y2="202.188813836559" stroke="#1f77b4" stroke-width="1.4211023622047245"/><line x1="697.4208628659476" y1="202.188813836559" x2="704.1226605033385" y2="199.04493878552174" stroke="#1f77b4" stroke-width="1.4211023622047245"/><line x1="704.1226605033385" y1="199.04493878552174" x2="710.8244581407293" y2="195.9010637344866" stroke="#1f77b4" stroke-width="1.4211023622047245"/><line x1="710.8244581407293" y1="195.9010637344866" x2="717.5262557781202" y2="192.75718868345172" stroke="#1f77b4" stroke-width="1.4211023622047245"/><line x1="717.5262557781202" y1="192.75718868345172" x2="724.2280534155111" y2="189.6133136324156" stroke="#1f77b4" stroke-width="1.4211023622047245"/><line x1="724.2280534155111" y1="189.6133136324156" x2="730.929851052902" y2="186.4694385813794" stroke="#1f77b4" stroke-width="1.4211023622047245"/><line x1="730.929851052902" y1="186.4694385813794" x2="737.6316486902926" y2="183.32556353034425" stroke="#1f77b4" stroke-width="1.4211023622047245"/><line x1="737.6316486902926" y1="183.32556353034425" x2="744.3334463276835" y2="180.18168847930806" stroke="#1f77b4" stroke-width="1.4211023622047245"/><line x1="744.3334463276835" y1="180.18168847930806" x2="751.0352439650744" y2="177.03781342827327" stroke="#1f77b4" stroke-width="1.4211023622047245"/><line x1="751.0352439650744" y1="177.03781342827327" x2="757.7370416024653" y2="173.89393837723813" stroke="#1f77b4" stroke-width="1.4211023622047245"/><line x1="757.7370416024653" y1="173.89393837723813" x2="764.4388392398562" y2="170.75006332620086" stroke="#1f77b4" stroke-width="1.4211023622047245"/><line x1="764.4388392398562" y1="170.75006332620086" x2="771.1406368772471" y2="167.60618827516572" stroke="#1f77b4" stroke-width="1.4211023622047245"/><line x1="771.1406368772471" y1="167.60618827516572" x2="777.842434514638" y2="164.46231322413087" stroke="#1f77b4" stroke-width="1.4211023622047245"/><line x1="777.842434514638" y1="164.46231322413087" x2="784.5442321520287" y2="161.31843817309473" stroke="#1f77b4" stroke-width="1.4211023622047245"/><line x1="784.5442321520287" y1="161.31843817309473" x2="791.2460297894196" y2="158.17456312205854" stroke="#1f77b4" stroke-width="1.4211023622047245"/><line x1="791.2460297894196" y1="158.17456312205854" x2="797.9478274268105" y2="155.0306880710234" stroke="#1f77b4" stroke-width="1.4211023622047245"/><line x1="797.9478274268105" y1="155.0306880710234" x2="804.6496250642014" y2="151.88681301998747" stroke="#1f77b4" stroke-width="1.4211023622047245"/><line x1="804.6496250642014" y1="151.88681301998747" x2="811.3514227015922" y2="148.74293796895233" stroke="#1f77b4" stroke-width="1.4211023622047245"/><line x1="811.3514227015922" y1="148.74293796895233" x2="818.053220338983" y2="145.5990629179162" stroke="#1f77b4" stroke-width="1.4211023622047245"/><line x1="818.053220338983" y1="145.5990629179162" x2="824.7550179763739" y2="142.45518786688" stroke="#1f77b4" stroke-width="1.4211023622047245"/><line x1="824.7550179763739" y1="142.45518786688" x2="831.4568156137649" y2="139.31131281584513" stroke="#1f77b4" stroke-width="1.4211023622047245"/><line x1="831.4568156137649" y1="139.31131281584513" x2="838.1586132511557" y2="136.16743776481" stroke="#1f77b4" stroke-width="1.4211023622047245"/><line x1="838.1586132511557" y1="136.16743776481" x2="844.8604108885465" y2="133.02356271377383" stroke="#1f77b4" stroke-width="1.4211023622047245"/><line x1="844.8604108885465" y1="133.02356271377383" x2="851.5622085259374" y2="129.87968766273767" stroke="#1f77b4" stroke-width="1.4211023622047245"/><line x1="851.5622085259374" y1="129.87968766273767" x2="858.2640061633283" y2="126.7358126117028" stroke="#1f77b4" stroke-width="1.4211023622047245"/><line x1="858.2640061633283" y1="126.7358126117028" x2="864.9658038007192" y2="123.5919375606666" stroke="#1f77b4" stroke-width="1.4211023622047245"/><line x1="864.9658038007192" y1="123.5919375606666" x2="871.6676014381101" y2="120.44806250963146" stroke="#1f77b4" stroke-width="1.4211023622047245"/><line x1="871.6676014381101" y1="120.44806250963146" x2="878.3693990755007" y2="117.30418745859556" stroke="#1f77b4" stroke-width="1.4211023622047245"/><line x1="878.3693990755007" y1="117.30418745859556" x2="885.0711967128916" y2="114.1603124075594" stroke="#1f77b4" stroke-width="1.4211023622047245"/><line x1="885.0711967128916" y1="114.1603124075594" x2="891.7729943502825" y2="111.01643735652426" stroke="#1f77b4" stroke-width="1.4211023622047245"/><line x1="891.7729943502825" y1="111.01643735652426" x2="898.4747919876734" y2="107.8725623054894" stroke="#1f77b4" stroke-width="1.4211023622047245"/><line x1="898.4747919876734" y1="107.8725623054894" x2="905.1765896250641" y2="104.72868725445323" stroke="#1f77b4" stroke-width="1.4211023622047245"/><line x1="905.1765896250641" y1="104.72868725445323" x2="911.878387262455" y2="101.58481220341707" stroke="#1f77b4" stroke-width="1.4211023622047245"/><line x1="911.878387262455" y1="101.58481220341707" x2="918.5801848998459" y2="98.44093715238219" stroke="#1f77b4" stroke-width="1.4211023622047245"/><line x1="918.5801848998459" y1="98.44093715238219" x2="925.2819825372368" y2="95.29706210134705" stroke="#1f77b4" stroke-width="1.4211023622047245"/><line x1="925.2819825372368" y1="95.29706210134705" x2="931.9837801746277" y2="92.15318705031086" stroke="#1f77b4" stroke-width="1.4211023622047245"/><line x1="931.9837801746277" y1="92.15318705031086" x2="938.6855778120186" y2="89.00931199927496" stroke="#1f77b4" stroke-width="1.4211023622047245"/><line x1="938.6855778120186" y1="89.00931199927496" x2="945.3873754494094" y2="85.86543694823986" stroke="#1f77b4" stroke-width="1.4211023622047245"/><line x1="945.3873754494094" y1="85.86543694823986" x2="952.0891730868003" y2="82.72156189720366" stroke="#1f77b4" stroke-width="1.4211023622047245"/><line x1="952.0891730868003" y1="82.72156189720366" x2="958.7909707241911" y2="79.57768684616879" stroke="#1f77b4" stroke-width="1.4211023622047245"/><line x1="958.7909707241911" y1="79.57768684616879" x2="965.492768361582" y2="76.43381179513258" stroke="#1f77b4" stroke-width="1.4211023622047245"/><line x1="965.492768361582" y1="76.43381179513258" x2="972.1945659989728" y2="73.28993674409642" stroke="#1f77b4" stroke-width="1.4211023622047245"/><line x1="972.1945659989728" y1="73.28993674409642" x2="978.8963636363635" y2="70.1460616930616" stroke="#1f77b4" stroke-width="1.4211023622047245"/><rect x="0.0" y="0.0" width="0.0" height="0.0" fill="#ffffff" fill-opacity="1.0" stroke="none"/><line x1="91.79712881546362" y1="436.79999999999995" x2="91.79712881546362" y2="775.3333333333333" stroke="#dddddd" stroke-width="0.6666666666666666"/><line x1="184.99523107439848" y1="436.79999999999995" x2="184.99523107439848" y2="775.3333333333333" stroke="#dddddd" stroke-width="0.6666666666666666"/><line x1="278.19333333333327" y1="436.79999999999995" x2="278.19333333333327" y2="775.3333333333333" stroke="#dddddd" stroke-width="0.6666666666666666"/><line x1="371.3914355922682" y1="436.79999999999995" x2="371.3914355922682" y2="775.3333333333333" stroke="#dddddd" stroke-width="0.6666666666666666"/><line x1="464.58953785120303" y1="436.79999999999995" x2="464.58953785120303" y2="775.3333333333333" stroke="#dddddd" stroke-width="0.6666666666666666"/><line x1="138.39617994493102" y1="436.79999999999995" x2="138.39617994493102" y2="775.3333333333333" stroke="#dddddd" stroke-width="1.3333333333333333"/><line x1="231.59428220386587" y1="436.79999999999995" x2="231.59428220386587" y2="775.3333333333333" stroke="#dddddd" stroke-width="1.3333333333333333"/><line x1="324.7923844628007" y1="436.79999999999995" x2="324.7923844628007" y2="775.3333333333333" stroke="#dddddd" stroke-width="1.3333333333333333"/><line x1="417.99048672173564" y1="436.79999999999995" x2="417.99048672173564" y2="775.3333333333333" stroke="#dddddd" stroke-width="1.3333333333333333"/><line x1="60.72" y1="723.6839879154078" x2="495.66666666666663" y2="723.6839879154078" stroke="#dddddd" stroke-width="0.6666666666666666"/><line x1="60.72" y1="649.3014922640299" x2="495.66666666666663" y2="649.3014922640299" stroke="#dddddd" stroke-width="0.6666666666666666"/><line x1="60.72" y1="574.918996612652" x2="495.66666666666663" y2="574.918996612652" stroke="#dddddd" stroke-width="0.6666666666666666"/><line x1="60.72" y1="500.5365009612742" x2="495.66666666666663" y2="500.5365009612742" stroke="#dddddd" stroke-width="0.6666666666666666"/><line x1="60.72" y1="760.8752357410967" x2="495.66666666666663" y2="760.8752357410967" stroke="#dddddd" stroke-width="1.3333333333333333"/><line x1="60.72" y1="686.4927400897188" x2="495.66666666666663" y2="686.4927400897188" stroke="#dddddd" stroke-width="1.3333333333333333"/><line x1="60.72" y1="612.1102444383409" x2="495.66666666666663" y2="612.1102444383409" stroke="#dddddd" stroke-width="1.3333333333333333"/><line x1="60.72" y1="537.727748786963" x2="495.66666666666663" y2="537.727748786963" stroke="#dddddd" stroke-width="1.3333333333333333"/><line x1="60.72" y1="463.34525313558527" x2="495.66666666666663" y2="463.34525313558527" stroke="#dddddd" stroke-width="1.3333333333333333"/><rect x="60.72" y="436.79999999999995" width="434.9466666666666" height="338.53333333333336" fill="#ffffff" fill-opacity="0.0" stroke="#444444" stroke-width="1.3333333333333333"/><line x1="138.39617994493102" y1="775.3333333333333" x2="138.39617994493102" y2="779.0" stroke="#444444" stroke-width="1.3333333333333333"/><text x="138.39617994493102" y="791.3199999999999" fill="#333333" font-size="11.733333333333334" font-family="sans-serif" text-anchor="middle">150</text><line x1="231.59428220386587" y1="775.3333333333333" x2="231.59428220386587" y2="779.0" stroke="#444444" stroke-width="1.3333333333333333"/><text x="231.59428220386587" y="791.3199999999999" fill="#333333" font-size="11.733333333333334" font-family="sans-serif" text-anchor="middle">160</text><line x1="324.7923844628007" y1="775.3333333333333" x2="324.7923844628007" y2="779.0" stroke="#444444" stroke-width="1.3333333333333333"/><text x="324.7923844628007" y="791.3199999999999" fill="#333333" font-size="11.733333333333334" font-family="sans-serif" text-anchor="middle">170</text><line x1="417.99048672173564" y1="775.3333333333333" x2="417.99048672173564" y2="779.0" stroke="#444444" stroke-width="1.3333333333333333"/><text x="417.99048672173564" y="791.3199999999999" fill="#333333" font-size="11.733333333333334" font-family="sans-serif" text-anchor="middle">180</text><line x1="60.72" y1="760.8752357410967" x2="57.05333333333333" y2="760.8752357410967" stroke="#444444" stroke-width="1.3333333333333333"/><text x="54.11999999999999" y="764.9819024077634" fill="#333333" font-size="11.733333333333334" font-family="sans-serif" text-anchor="end">72</text><line x1="60.72" y1="686.4927400897188" x2="57.05333333333333" y2="686.4927400897188" stroke="#444444" stroke-width="1.3333333333333333"/><text x="54.11999999999999" y="690.5994067563856" fill="#333333" font-size="11.733333333333334" font-family="sans-serif" text-anchor="end">76</text><line x1="60.72" y1="612.1102444383409" x2="57.05333333333333" y2="612.1102444383409" stroke="#444444" stroke-width="1.3333333333333333"/><text x="54.11999999999999" y="616.2169111050076" fill="#333333" font-size="11.733333333333334" font-family="sans-serif" text-anchor="end">80</text><line x1="60.72" y1="537.727748786963" x2="57.05333333333333" y2="537.727748786963" stroke="#444444" stroke-width="1.3333333333333333"/><text x="54.11999999999999" y="541.8344154536297" fill="#333333" font-size="11.733333333333334" font-family="sans-serif" text-anchor="end">84</text><line x1="60.72" y1="463.34525313558527" x2="57.05333333333333" y2="463.34525313558527" stroke="#444444" stroke-width="1.3333333333333333"/><text x="54.11999999999999" y="467.45191980225195" fill="#333333" font-size="11.733333333333334" font-family="sans-serif" text-anchor="end">88</text><text x="278.19333333333327" y="809.0666666666666" fill="#333333" font-size="14.666666666666666" font-family="sans-serif" text-anchor="middle">temp</text><text x="31.973333333333333" y="606.0666666666666" fill="#333333" font-size="14.666666666666666" font-family="sans-serif" text-anchor="middle" transform="rotate(-90.0 31.973333333333333 606.0666666666666)">yield</text><circle cx="138.39617994493102" cy="759.9454545454546" r="3.1181102362204727" fill="#1f77b4" fill-opacity="0.85" stroke="none"><title>(150, 72.05)</title></circle><circle cx="138.39617994493102" cy="620.4782751991211" r="3.1181102362204727" fill="#1f77b4" fill-opacity="0.85" stroke="none"><title>(150, 79.55)</title></circle><circle cx="417.99048672173564" cy="593.5146205254965" r="3.1181102362204727" fill="#1f77b4" fill-opacity="0.85" stroke="none"><title>(180, 81)</title></circle><circle cx="417.99048672173564" cy="452.18787878787873" r="3.1181102362204727" fill="#1f77b4" fill-opacity="0.85" stroke="none"><title>(180, 88.6)</title></circle><circle cx="80.49030303030293" cy="700.6990721002932" r="3.1181102362204727" fill="#1f77b4" fill-opacity="0.85" stroke="none"><title>(143.786796564404, 75.236038969321)</title></circle><circle cx="475.89636363636373" cy="466.8047638422132" r="3.1181102362204727" fill="#1f77b4" fill-opacity="0.85" stroke="none"><title>(186.213203435596, 87.813961030679)</title></circle><circle cx="278.19333333333327" cy="730.3199153306684" r="3.1181102362204727" fill="#1f77b4" fill-opacity="0.85" stroke="none"><title>(165, 73.643145750508)</title></circle><circle cx="278.19333333333327" cy="529.232258980418" r="3.1181102362204727" fill="#1f77b4" fill-opacity="0.85" stroke="none"><title>(165, 84.456854249492)</title></circle><circle cx="278.19333333333327" cy="579.5679025908631" r="3.1181102362204727" fill="#1f77b4" fill-opacity="0.85" stroke="none"><title>(165, 81.75)</title></circle><circle cx="278.19333333333327" cy="587.006152156001" r="3.1181102362204727" fill="#1f77b4" fill-opacity="0.85" stroke="none"><title>(165, 81.35)</title></circle><path d="M 80.49030303030293 707.4227018354497 L 87.19210066769384 703.0949501139166 L 93.89389830508478 698.8019725677968 L 100.59569594247543 694.5447825639874 L 107.29749357986636 690.3240469709001 L 113.99929121725728 686.139950993633 L 120.70108885464822 681.992077301268 L 127.40288649203887 677.8793238195549 L 134.10468412942978 673.7998816727433 L 140.8064817668207 669.7512840740545 L 147.50827940421163 665.7305213105907 L 154.2100770416023 661.7342021833556 L 160.9118746789932 657.7587340079873 L 167.6136723163841 653.8004938330953 L 174.31546995377508 649.8559710084714 L 181.01726759116573 645.9218714538662 L 187.71906522855662 641.9951830786916 L 194.42086286594753 638.0732077532091 L 201.1226605033385 634.153567851473 L 207.8244581407294 630.2341955414443 L 214.52625577812006 626.3133117929381 L 221.228053415511 622.3894003909493 L 227.9298510529019 618.4611806127991 L 234.63164869029256 614.5275808936838 L 241.33344632768348 610.5877148218586 L 248.03524396507441 606.6408601373352 L 254.73704160246533 602.686440987078 L 261.43883923985624 598.7240134482261 L 268.14063687724695 594.7532542098825 L 274.84243451463783 590.773952262167 L 281.5442321520287 586.786003447735 L 288.24602978941965 582.789407766578 L 294.94782742681036 578.7842693760686 L 301.64962506420125 574.7707992860478 L 308.3514227015922 570.7493208074434 L 315.0532203389831 566.7202778631042 L 321.755017976374 562.6842463060614 L 328.45681561376466 558.6419483963123 L 335.1586132511556 554.5942705455925 L 341.86041088854654 550.5422843187157 L 348.56220852593725 546.4872704383497 L 355.26400616332813 542.4307451195223 L 361.9658038007191 538.3744873923872 L 368.66760143810995 534.3205650890144 L 375.36939907550095 530.271355835318 L 382.0711967128916 526.2295577610585 L 388.7729943502825 522.1981829568135 L 395.4747919876734 518.1805255028319 L 402.1765896250641 514.1800960493435 L 408.878387262455 510.2005175477075 L 415.5801848998459 506.2453826823076 L 422.2819825372369 502.3180826521284 L 428.9837801746278 498.4216271700835 L 435.6855778120185 494.5584830229239 L 442.3873754494094 490.7304590864233 L 449.0891730868003 486.93865743483036 L 455.7909707241912 483.1834953990507 L 462.49276836158185 479.4647877739958 L 469.19456599897285 475.7818676912457 L 475.89636363636373 472.1337217839184 L 475.89636363636373 459.84868880816794 L 469.19456599897285 464.1299648250122 L 462.49276836158185 468.37806927694 L 455.7909707241912 472.59198879706935 L 449.0891730868003 476.77105651698093 L 442.3873754494094 480.9150872315855 L 435.6855778120185 485.02449827179 L 428.9837801746278 489.1003917118417 L 422.2819825372369 493.14457642751415 L 415.5801848998459 497.1595192055602 L 408.878387262455 501.1482297588919 L 402.1765896250641 505.11409928649425 L 395.4747919876734 509.0607204727504 L 388.7729943502825 512.9917162690207 L 382.0711967128916 516.9105973255339 L 375.36939907550095 520.820657722539 L 368.66760143810995 524.7249095506152 L 361.9658038007191 528.6260509395197 L 355.26400616332813 532.5264595151705 L 348.56220852593725 536.4282031096348 L 341.86041088854654 540.3330607530673 L 335.1586132511556 544.2425486604961 L 328.45681561376466 548.1579475545877 L 321.755017976374 552.0803290001569 L 315.0532203389831 556.0105794089397 L 308.3514227015922 559.9494210409327 L 301.64962506420125 563.8974297491674 L 294.94782742681036 567.8550494564921 L 288.24602978941965 571.8226034738343 L 281.5442321520287 575.8003028110367 L 274.84243451463783 579.7882516254704 L 268.14063687724695 583.7864499171275 L 261.43883923985624 587.7947935286627 L 254.73704160246533 591.813071450196 L 248.03524396507441 595.8409603708321 L 241.33344632768348 599.8780163677073 L 234.63164869029256 603.9236635877883 L 227.9298510529019 607.9771797710853 L 221.228053415511 612.0376785058545 L 214.52625577812006 616.1040882272919 L 207.8244581407294 620.1751282127184 L 201.1226605033385 624.2492822471286 L 194.42086286594753 628.324771300339 L 187.71906522855662 632.3995275403092 L 181.01726759116573 636.4711733410945 L 174.31546995377508 640.5370105729553 L 167.6136723163841 644.5940271453046 L 160.9118746789932 648.6389289778924 L 154.2100770416023 652.6682054205099 L 147.50827940421163 656.6782335217677 L 140.8064817668207 660.6654205973044 L 134.10468412942978 664.6263754481217 L 127.40288649203887 668.558088361324 L 120.70108885464822 672.4580925501302 L 113.99929121725728 676.324579138792 L 107.29749357986636 680.1564460530585 L 100.59569594247543 683.9532759620113 L 93.89389830508478 687.7152540707477 L 87.19210066769384 691.443047247682 L 80.49030303030293 695.1376688597089 Z" fill="#1f77b4" fill-opacity="0.2" stroke="none"/><line x1="80.49030303030293" y1="701.2801853475794" x2="87.19210066769384" y2="697.2689986807992" stroke="#1f77b4" stroke-width="1.4211023622047245"/><line x1="87.19210066769384" y1="697.2689986807992" x2="93.89389830508478" y2="693.2586133192723" stroke="#1f77b4" stroke-width="1.4211023622047245"/><line x1="93.89389830508478" y1="693.2586133192723" x2="100.59569594247543" y2="689.2490292629993" stroke="#1f77b4" stroke-width="1.4211023622047245"/><line x1="100.59569594247543" y1="689.2490292629993" x2="107.29749357986636" y2="685.2402465119794" stroke="#1f77b4" stroke-width="1.4211023622047245"/><line x1="107.29749357986636" y1="685.2402465119794" x2="113.99929121725728" y2="681.2322650662124" stroke="#1f77b4" stroke-width="1.4211023622047245"/><line x1="113.99929121725728" y1="681.2322650662124" x2="120.70108885464822" y2="677.2250849256991" stroke="#1f77b4" stroke-width="1.4211023622047245"/><line x1="120.70108885464822" y1="677.2250849256991" x2="127.40288649203887" y2="673.2187060904395" stroke="#1f77b4" stroke-width="1.4211023622047245"/><line x1="127.40288649203887" y1="673.2187060904395" x2="134.10468412942978" y2="669.2131285604324" stroke="#1f77b4" stroke-width="1.4211023622047245"/><line x1="134.10468412942978" y1="669.2131285604324" x2="140.8064817668207" y2="665.2083523356795" stroke="#1f77b4" stroke-width="1.4211023622047245"/><line x1="140.8064817668207" y1="665.2083523356795" x2="147.50827940421163" y2="661.2043774161791" stroke="#1f77b4" stroke-width="1.4211023622047245"/><line x1="147.50827940421163" y1="661.2043774161791" x2="154.2100770416023" y2="657.2012038019327" stroke="#1f77b4" stroke-width="1.4211023622047245"/><line x1="154.2100770416023" y1="657.2012038019327" x2="160.9118746789932" y2="653.1988314929399" stroke="#1f77b4" stroke-width="1.4211023622047245"/><line x1="160.9118746789932" y1="653.1988314929399" x2="167.6136723163841" y2="649.1972604891998" stroke="#1f77b4" stroke-width="1.4211023622047245"/><line x1="167.6136723163841" y1="649.1972604891998" x2="174.31546995377508" y2="645.1964907907134" stroke="#1f77b4" stroke-width="1.4211023622047245"/><line x1="174.31546995377508" y1="645.1964907907134" x2="181.01726759116573" y2="641.1965223974803" stroke="#1f77b4" stroke-width="1.4211023622047245"/><line x1="181.01726759116573" y1="641.1965223974803" x2="187.71906522855662" y2="637.1973553095004" stroke="#1f77b4" stroke-width="1.4211023622047245"/><line x1="187.71906522855662" y1="637.1973553095004" x2="194.42086286594753" y2="633.1989895267741" stroke="#1f77b4" stroke-width="1.4211023622047245"/><line x1="194.42086286594753" y1="633.1989895267741" x2="201.1226605033385" y2="629.2014250493008" stroke="#1f77b4" stroke-width="1.4211023622047245"/><line x1="201.1226605033385" y1="629.2014250493008" x2="207.8244581407294" y2="625.2046618770813" stroke="#1f77b4" stroke-width="1.4211023622047245"/><line x1="207.8244581407294" y1="625.2046618770813" x2="214.52625577812006" y2="621.208700010115" stroke="#1f77b4" stroke-width="1.4211023622047245"/><line x1="214.52625577812006" y1="621.208700010115" x2="221.228053415511" y2="617.2135394484019" stroke="#1f77b4" stroke-width="1.4211023622047245"/><line x1="221.228053415511" y1="617.2135394484019" x2="227.9298510529019" y2="613.2191801919422" stroke="#1f77b4" stroke-width="1.4211023622047245"/><line x1="227.9298510529019" y1="613.2191801919422" x2="234.63164869029256" y2="609.225622240736" stroke="#1f77b4" stroke-width="1.4211023622047245"/><line x1="234.63164869029256" y1="609.225622240736" x2="241.33344632768348" y2="605.232865594783" stroke="#1f77b4" stroke-width="1.4211023622047245"/><line x1="241.33344632768348" y1="605.232865594783" x2="248.03524396507441" y2="601.2409102540837" stroke="#1f77b4" stroke-width="1.4211023622047245"/><line x1="248.03524396507441" y1="601.2409102540837" x2="254.73704160246533" y2="597.249756218637" stroke="#1f77b4" stroke-width="1.4211023622047245"/><line x1="254.73704160246533" y1="597.249756218637" x2="261.43883923985624" y2="593.2594034884444" stroke="#1f77b4" stroke-width="1.4211023622047245"/><line x1="261.43883923985624" y1="593.2594034884444" x2="268.14063687724695" y2="589.2698520635049" stroke="#1f77b4" stroke-width="1.4211023622047245"/><line x1="268.14063687724695" y1="589.2698520635049" x2="274.84243451463783" y2="585.2811019438186" stroke="#1f77b4" stroke-width="1.4211023622047245"/><line x1="274.84243451463783" y1="585.2811019438186" x2="281.5442321520287" y2="581.2931531293858" stroke="#1f77b4" stroke-width="1.4211023622047245"/><line x1="281.5442321520287" y1="581.2931531293858" x2="288.24602978941965" y2="577.3060056202062" stroke="#1f77b4" stroke-width="1.4211023622047245"/><line x1="288.24602978941965" y1="577.3060056202062" x2="294.94782742681036" y2="573.3196594162803" stroke="#1f77b4" stroke-width="1.4211023622047245"/><line x1="294.94782742681036" y1="573.3196594162803" x2="301.64962506420125" y2="569.3341145176075" stroke="#1f77b4" stroke-width="1.4211023622047245"/><line x1="301.64962506420125" y1="569.3341145176075" x2="308.3514227015922" y2="565.3493709241881" stroke="#1f77b4" stroke-width="1.4211023622047245"/><line x1="308.3514227015922" y1="565.3493709241881" x2="315.0532203389831" y2="561.365428636022" stroke="#1f77b4" stroke-width="1.4211023622047245"/><line x1="315.0532203389831" y1="561.365428636022" x2="321.755017976374" y2="557.3822876531092" stroke="#1f77b4" stroke-width="1.4211023622047245"/><line x1="321.755017976374" y1="557.3822876531092" x2="328.45681561376466" y2="553.39994797545" stroke="#1f77b4" stroke-width="1.4211023622047245"/><line x1="328.45681561376466" y1="553.39994797545" x2="335.1586132511556" y2="549.4184096030442" stroke="#1f77b4" stroke-width="1.4211023622047245"/><line x1="335.1586132511556" y1="549.4184096030442" x2="341.86041088854654" y2="545.4376725358916" stroke="#1f77b4" stroke-width="1.4211023622047245"/><line x1="341.86041088854654" y1="545.4376725358916" x2="348.56220852593725" y2="541.4577367739922" stroke="#1f77b4" stroke-width="1.4211023622047245"/><line x1="348.56220852593725" y1="541.4577367739922" x2="355.26400616332813" y2="537.4786023173463" stroke="#1f77b4" stroke-width="1.4211023622047245"/><line x1="355.26400616332813" y1="537.4786023173463" x2="361.9658038007191" y2="533.5002691659535" stroke="#1f77b4" stroke-width="1.4211023622047245"/><line x1="361.9658038007191" y1="533.5002691659535" x2="368.66760143810995" y2="529.5227373198147" stroke="#1f77b4" stroke-width="1.4211023622047245"/><line x1="368.66760143810995" y1="529.5227373198147" x2="375.36939907550095" y2="525.5460067789285" stroke="#1f77b4" stroke-width="1.4211023622047245"/><line x1="375.36939907550095" y1="525.5460067789285" x2="382.0711967128916" y2="521.5700775432962" stroke="#1f77b4" stroke-width="1.4211023622047245"/><line x1="382.0711967128916" y1="521.5700775432962" x2="388.7729943502825" y2="517.594949612917" stroke="#1f77b4" stroke-width="1.4211023622047245"/><line x1="388.7729943502825" y1="517.594949612917" x2="395.4747919876734" y2="513.6206229877912" stroke="#1f77b4" stroke-width="1.4211023622047245"/><line x1="395.4747919876734" y1="513.6206229877912" x2="402.1765896250641" y2="509.64709766791896" stroke="#1f77b4" stroke-width="1.4211023622047245"/><line x1="402.1765896250641" y1="509.64709766791896" x2="408.878387262455" y2="505.6743736532997" stroke="#1f77b4" stroke-width="1.4211023622047245"/><line x1="408.878387262455" y1="505.6743736532997" x2="415.5801848998459" y2="501.70245094393385" stroke="#1f77b4" stroke-width="1.4211023622047245"/><line x1="415.5801848998459" y1="501.70245094393385" x2="422.2819825372369" y2="497.7313295398213" stroke="#1f77b4" stroke-width="1.4211023622047245"/><line x1="422.2819825372369" y1="497.7313295398213" x2="428.9837801746278" y2="493.76100944096265" stroke="#1f77b4" stroke-width="1.4211023622047245"/><line x1="428.9837801746278" y1="493.76100944096265" x2="435.6855778120185" y2="489.7914906473569" stroke="#1f77b4" stroke-width="1.4211023622047245"/><line x1="435.6855778120185" y1="489.7914906473569" x2="442.3873754494094" y2="485.8227731590044" stroke="#1f77b4" stroke-width="1.4211023622047245"/><line x1="442.3873754494094" y1="485.8227731590044" x2="449.0891730868003" y2="481.8548569759056" stroke="#1f77b4" stroke-width="1.4211023622047245"/><line x1="449.0891730868003" y1="481.8548569759056" x2="455.7909707241912" y2="477.8877420980601" stroke="#1f77b4" stroke-width="1.4211023622047245"/><line x1="455.7909707241912" y1="477.8877420980601" x2="462.49276836158185" y2="473.92142852546783" stroke="#1f77b4" stroke-width="1.4211023622047245"/><line x1="462.49276836158185" y1="473.92142852546783" x2="469.19456599897285" y2="469.95591625812887" stroke="#1f77b4" stroke-width="1.4211023622047245"/><line x1="469.19456599897285" y1="469.95591625812887" x2="475.89636363636373" y2="465.9912052960431" stroke="#1f77b4" stroke-width="1.4211023622047245"/><rect x="0.0" y="0.0" width="0.0" height="0.0" fill="#ffffff" fill-opacity="1.0" stroke="none"/><line x1="641.3961799449311" y1="436.79999999999995" x2="641.3961799449311" y2="775.3333333333333" stroke="#dddddd" stroke-width="0.6666666666666666"/><line x1="753.2339026556529" y1="436.79999999999995" x2="753.2339026556529" y2="775.3333333333333" stroke="#dddddd" stroke-width="0.6666666666666666"/><line x1="865.0716253663746" y1="436.79999999999995" x2="865.0716253663746" y2="775.3333333333333" stroke="#dddddd" stroke-width="0.6666666666666666"/><line x1="976.9093480770964" y1="436.79999999999995" x2="976.9093480770964" y2="775.3333333333333" stroke="#dddddd" stroke-width="0.6666666666666666"/><line x1="585.4773185895702" y1="436.79999999999995" x2="585.4773185895702" y2="775.3333333333333" stroke="#dddddd" stroke-width="1.3333333333333333"/><line x1="697.315041300292" y1="436.79999999999995" x2="697.315041300292" y2="775.3333333333333" stroke="#dddddd" stroke-width="1.3333333333333333"/><line x1="809.1527640110137" y1="436.79999999999995" x2="809.1527640110137" y2="775.3333333333333" stroke="#dddddd" stroke-width="1.3333333333333333"/><line x1="920.9904867217356" y1="436.79999999999995" x2="920.9904867217356" y2="775.3333333333333" stroke="#dddddd" stroke-width="1.3333333333333333"/><line x1="563.72" y1="723.6839879154078" x2="998.6666666666666" y2="723.6839879154078" stroke="#dddddd" stroke-width="0.6666666666666666"/><line x1="563.72" y1="649.3014922640299" x2="998.6666666666666" y2="649.3014922640299" stroke="#dddddd" stroke-width="0.6666666666666666"/><line x1="563.72" y1="574.918996612652" x2="998.6666666666666" y2="574.918996612652" stroke="#dddddd" stroke-width="0.6666666666666666"/><line x1="563.72" y1="500.5365009612742" x2="998.6666666666666" y2="500.5365009612742" stroke="#dddddd" stroke-width="0.6666666666666666"/><line x1="563.72" y1="760.8752357410967" x2="998.6666666666666" y2="760.8752357410967" stroke="#dddddd" stroke-width="1.3333333333333333"/><line x1="563.72" y1="686.4927400897188" x2="998.6666666666666" y2="686.4927400897188" stroke="#dddddd" stroke-width="1.3333333333333333"/><line x1="563.72" y1="612.1102444383409" x2="998.6666666666666" y2="612.1102444383409" stroke="#dddddd" stroke-width="1.3333333333333333"/><line x1="563.72" y1="537.727748786963" x2="998.6666666666666" y2="537.727748786963" stroke="#dddddd" stroke-width="1.3333333333333333"/><line x1="563.72" y1="463.34525313558527" x2="998.6666666666666" y2="463.34525313558527" stroke="#dddddd" stroke-width="1.3333333333333333"/><rect x="563.72" y="436.79999999999995" width="434.9466666666666" height="338.53333333333336" fill="#ffffff" fill-opacity="0.0" stroke="#444444" stroke-width="1.3333333333333333"/><line x1="585.4773185895702" y1="775.3333333333333" x2="585.4773185895702" y2="779.0" stroke="#444444" stroke-width="1.3333333333333333"/><text x="585.4773185895702" y="791.3199999999999" fill="#333333" font-size="11.733333333333334" font-family="sans-serif" text-anchor="middle">8</text><line x1="697.315041300292" y1="775.3333333333333" x2="697.315041300292" y2="779.0" stroke="#444444" stroke-width="1.3333333333333333"/><text x="697.315041300292" y="791.3199999999999" fill="#333333" font-size="11.733333333333334" font-family="sans-serif" text-anchor="middle">12</text><line x1="809.1527640110137" y1="775.3333333333333" x2="809.1527640110137" y2="779.0" stroke="#444444" stroke-width="1.3333333333333333"/><text x="809.1527640110137" y="791.3199999999999" fill="#333333" font-size="11.733333333333334" font-family="sans-serif" text-anchor="middle">16</text><line x1="920.9904867217356" y1="775.3333333333333" x2="920.9904867217356" y2="779.0" stroke="#444444" stroke-width="1.3333333333333333"/><text x="920.9904867217356" y="791.3199999999999" fill="#333333" font-size="11.733333333333334" font-family="sans-serif" text-anchor="middle">20</text><line x1="563.72" y1="760.8752357410967" x2="560.0533333333333" y2="760.8752357410967" stroke="#444444" stroke-width="1.3333333333333333"/><text x="557.12" y="764.9819024077634" fill="#333333" font-size="11.733333333333334" font-family="sans-serif" text-anchor="end">72</text><line x1="563.72" y1="686.4927400897188" x2="560.0533333333333" y2="686.4927400897188" stroke="#444444" stroke-width="1.3333333333333333"/><text x="557.12" y="690.5994067563856" fill="#333333" font-size="11.733333333333334" font-family="sans-serif" text-anchor="end">76</text><line x1="563.72" y1="612.1102444383409" x2="560.0533333333333" y2="612.1102444383409" stroke="#444444" stroke-width="1.3333333333333333"/><text x="557.12" y="616.2169111050076" fill="#333333" font-size="11.733333333333334" font-family="sans-serif" text-anchor="end">80</text><line x1="563.72" y1="537.727748786963" x2="560.0533333333333" y2="537.727748786963" stroke="#444444" stroke-width="1.3333333333333333"/><text x="557.12" y="541.8344154536297" fill="#333333" font-size="11.733333333333334" font-family="sans-serif" text-anchor="end">84</text><line x1="563.72" y1="463.34525313558527" x2="560.0533333333333" y2="463.34525313558527" stroke="#444444" stroke-width="1.3333333333333333"/><text x="557.12" y="467.45191980225195" fill="#333333" font-size="11.733333333333334" font-family="sans-serif" text-anchor="end">88</text><text x="781.1933333333333" y="809.0666666666666" fill="#333333" font-size="14.666666666666666" font-family="sans-serif" text-anchor="middle">time</text><text x="534.9733333333334" y="606.0666666666666" fill="#333333" font-size="14.666666666666666" font-family="sans-serif" text-anchor="middle" transform="rotate(-90.0 534.9733333333334 606.0666666666666)">yield</text><circle cx="641.3961799449311" cy="759.9454545454546" r="3.1181102362204727" fill="#1f77b4" fill-opacity="0.85" stroke="none"><title>(10, 72.05)</title></circle><circle cx="920.9904867217356" cy="620.4782751991211" r="3.1181102362204727" fill="#1f77b4" fill-opacity="0.85" stroke="none"><title>(20, 79.55)</title></circle><circle cx="641.3961799449311" cy="593.5146205254965" r="3.1181102362204727" fill="#1f77b4" fill-opacity="0.85" stroke="none"><title>(10, 81)</title></circle><circle cx="920.9904867217356" cy="452.18787878787873" r="3.1181102362204727" fill="#1f77b4" fill-opacity="0.85" stroke="none"><title>(20, 88.6)</title></circle><circle cx="781.1933333333333" cy="700.6990721002932" r="3.1181102362204727" fill="#1f77b4" fill-opacity="0.85" stroke="none"><title>(15, 75.236038969321)</title></circle><circle cx="781.1933333333333" cy="466.8047638422132" r="3.1181102362204727" fill="#1f77b4" fill-opacity="0.85" stroke="none"><title>(15, 87.813961030679)</title></circle><circle cx="583.490303030303" cy="730.3199153306684" r="3.1181102362204727" fill="#1f77b4" fill-opacity="0.85" stroke="none"><title>(7.928932188135, 73.643145750508)</title></circle><circle cx="978.8963636363635" cy="529.232258980418" r="3.1181102362204727" fill="#1f77b4" fill-opacity="0.85" stroke="none"><title>(22.071067811865, 84.456854249492)</title></circle><circle cx="781.1933333333333" cy="579.5679025908631" r="3.1181102362204727" fill="#1f77b4" fill-opacity="0.85" stroke="none"><title>(15, 81.75)</title></circle><circle cx="781.1933333333333" cy="587.006152156001" r="3.1181102362204727" fill="#1f77b4" fill-opacity="0.85" stroke="none"><title>(15, 81.35)</title></circle><path d="M 583.490303030303 735.7121165101132 L 590.1921006676939 728.9181463977152 L 596.8938983050848 722.2647227541684 L 603.5956959424756 715.7528589463786 L 610.2974935798665 709.3832218427485 L 616.9992912172572 703.1559966483798 L 623.7010888546481 697.0707660323679 L 630.402886492039 691.1264279204449 L 637.1046841294299 685.3211734368602 L 643.8064817668208 679.6525357948435 L 650.5082794042116 674.1175052814929 L 657.2100770416025 668.7126906978131 L 663.9118746789934 663.4344993594392 L 670.6136723163842 658.2793083150027 L 677.315469953775 653.2436069142614 L 684.0172675911659 648.3241010769818 L 690.7190652285568 643.5177787125831 L 697.4208628659476 638.8219416913065 L 704.1226605033385 634.2342123872287 L 710.8244581407293 629.752522968299 L 717.5262557781202 625.3750944043322 L 724.2280534155111 621.1004104803228 L 730.929851052902 616.9271904735995 L 737.6316486902926 612.8543628193565 L 744.3334463276835 608.8810411058487 L 751.0352439650744 605.0065030730791 L 757.7370416024653 601.2301728680231 L 764.4388392398562 597.5516065678086 L 771.1406368772471 593.9704808615426 L 777.842434514638 590.4865847393586 L 784.5442321520287 587.0998140438994 L 791.2460297894196 583.8101687751629 L 797.9478274268105 580.6177530904952 L 804.6496250642014 577.5227779997779 L 811.3514227015922 574.5255668139117 L 818.053220338983 571.6265634557526 L 824.7550179763739 568.826343778345 L 831.4568156137649 566.1256300416624 L 838.1586132511557 563.5253086574537 L 844.8604108885465 561.0264511905336 L 851.5622085259374 558.630338363571 L 858.2640061633283 556.338486391583 L 864.9658038007192 554.1526743047459 L 871.6676014381101 552.0749699350829 L 878.3693990755007 550.1077509085602 L 885.0711967128916 548.2537153549044 L 891.7729943502825 546.5158753647364 L 898.4747919876734 544.8975250182457 L 905.1765896250641 543.4021749656888 L 911.878387262455 542.033448158445 L 918.5801848998459 540.7949372808619 L 925.2819825372368 539.6900335319524 L 931.9837801746277 538.7217466246193 L 938.6855778120186 537.8925433456156 L 945.3873754494094 537.2042325707031 L 952.0891730868003 536.6579163741449 L 958.7909707241911 536.2540120868466 L 965.492768361582 535.9923345037081 L 972.1945659989728 535.8722167563297 L 978.8963636363635 535.892645477807 L 978.8963636363635 523.6076125020888 L 972.1945659989728 524.2203138901158 L 965.492768361582 524.9056160066798 L 958.7909707241911 525.6625054848748 L 952.0891730868003 526.4903154563043 L 945.3873754494094 527.3888607158648 L 938.6855778120186 528.3585585944631 L 931.9837801746277 529.4005111663623 L 925.2819825372368 530.5165273073254 L 918.5801848998459 531.7090738041034 L 911.878387262455 532.9811603696013 L 905.1765896250641 534.3361782028294 L 898.4747919876734 535.7777199881377 L 891.7729943502825 537.3094086769034 L 885.0711967128916 538.9347549193851 L 878.3693990755007 540.657052795771 L 871.6676014381101 542.4793143966822 L 864.9658038007192 544.4042378518452 L 858.2640061633283 546.4342007872266 L 851.5622085259374 548.5712710348487 L 844.8604108885465 550.8172276248902 L 838.1586132511557 553.1735867723648 L 831.4568156137649 555.6416291999437 L 824.7550179763739 558.2224264724409 L 818.053220338983 560.9168650016055 L 811.3514227015922 563.7256670474101 L 804.6496250642014 566.6494084629006 L 797.9478274268105 569.6885331709324 L 791.2460297894196 572.8433644824064 L 784.5442321520287 576.1141134072027 L 777.842434514638 579.5008841026694 L 771.1406368772471 583.0036765688029 L 764.4388392398562 586.6223866482474 L 757.7370416024653 590.3568033311353 L 751.0352439650744 594.2066033065744 L 744.3334463276835 598.1713426516915 L 737.6316486902926 602.2504455134631 L 730.929851052902 606.4431896318914 L 724.2280534155111 610.7486885952327 L 717.5262557781202 615.1658708386791 L 710.8244581407293 619.6934556395609 L 704.1226605033385 624.3299267828716 L 697.4208628659476 629.0735052384268 L 690.7190652285568 633.9221231741753 L 684.0172675911659 638.8734029641943 L 677.315469953775 643.9246464787242 L 670.6136723163842 649.0728416271852 L 663.9118746789934 654.3146943293428 L 657.2100770416025 659.6466939349558 L 650.5082794042116 665.0652174926546 L 643.8064817668208 670.5666723180755 L 637.1046841294299 676.1476672122224 L 630.402886492039 681.8051924621932 L 623.7010888546481 687.5367812812185 L 616.9992912172572 693.3406247935461 L 610.2974935798665 699.2156209249102 L 603.5956959424756 705.1613523444053 L 596.8938983050848 711.1780042571327 L 590.1921006676939 717.2662435314949 L 583.490303030303 723.4270835343982 Z" fill="#1f77b4" fill-opacity="0.2" stroke="none"/><line x1="583.490303030303" y1="729.5696000222557" x2="590.1921006676939" y2="723.092194964605" stroke="#1f77b4" stroke-width="1.4211023622047245"/><line x1="590.1921006676939" y1="723.092194964605" x2="596.8938983050848" y2="716.7213635056505" stroke="#1f77b4" stroke-width="1.4211023622047245"/><line x1="596.8938983050848" y1="716.7213635056505" x2="603.5956959424756" y2="710.457105645392" stroke="#1f77b4" stroke-width="1.4211023622047245"/><line x1="603.5956959424756" y1="710.457105645392" x2="610.2974935798665" y2="704.2994213838293" stroke="#1f77b4" stroke-width="1.4211023622047245"/><line x1="610.2974935798665" y1="704.2994213838293" x2="616.9992912172572" y2="698.248310720963" stroke="#1f77b4" stroke-width="1.4211023622047245"/><line x1="616.9992912172572" y1="698.248310720963" x2="623.7010888546481" y2="692.3037736567932" stroke="#1f77b4" stroke-width="1.4211023622047245"/><line x1="623.7010888546481" y1="692.3037736567932" x2="630.402886492039" y2="686.4658101913192" stroke="#1f77b4" stroke-width="1.4211023622047245"/><line x1="630.402886492039" y1="686.4658101913192" x2="637.1046841294299" y2="680.7344203245414" stroke="#1f77b4" stroke-width="1.4211023622047245"/><line x1="637.1046841294299" y1="680.7344203245414" x2="643.8064817668208" y2="675.1096040564595" stroke="#1f77b4" stroke-width="1.4211023622047245"/><line x1="643.8064817668208" y1="675.1096040564595" x2="650.5082794042116" y2="669.5913613870737" stroke="#1f77b4" stroke-width="1.4211023622047245"/><line x1="650.5082794042116" y1="669.5913613870737" x2="657.2100770416025" y2="664.1796923163845" stroke="#1f77b4" stroke-width="1.4211023622047245"/><line x1="657.2100770416025" y1="664.1796923163845" x2="663.9118746789934" y2="658.874596844391" stroke="#1f77b4" stroke-width="1.4211023622047245"/><line x1="663.9118746789934" y1="658.874596844391" x2="670.6136723163842" y2="653.676074971094" stroke="#1f77b4" stroke-width="1.4211023622047245"/><line x1="670.6136723163842" y1="653.676074971094" x2="677.315469953775" y2="648.5841266964928" stroke="#1f77b4" stroke-width="1.4211023622047245"/><line x1="677.315469953775" y1="648.5841266964928" x2="684.0172675911659" y2="643.5987520205881" stroke="#1f77b4" stroke-width="1.4211023622047245"/><line x1="684.0172675911659" y1="643.5987520205881" x2="690.7190652285568" y2="638.7199509433792" stroke="#1f77b4" stroke-width="1.4211023622047245"/><line x1="690.7190652285568" y1="638.7199509433792" x2="697.4208628659476" y2="633.9477234648667" stroke="#1f77b4" stroke-width="1.4211023622047245"/><line x1="697.4208628659476" y1="633.9477234648667" x2="704.1226605033385" y2="629.2820695850501" stroke="#1f77b4" stroke-width="1.4211023622047245"/><line x1="704.1226605033385" y1="629.2820695850501" x2="710.8244581407293" y2="624.7229893039299" stroke="#1f77b4" stroke-width="1.4211023622047245"/><line x1="710.8244581407293" y1="624.7229893039299" x2="717.5262557781202" y2="620.2704826215056" stroke="#1f77b4" stroke-width="1.4211023622047245"/><line x1="717.5262557781202" y1="620.2704826215056" x2="724.2280534155111" y2="615.9245495377777" stroke="#1f77b4" stroke-width="1.4211023622047245"/><line x1="724.2280534155111" y1="615.9245495377777" x2="730.929851052902" y2="611.6851900527454" stroke="#1f77b4" stroke-width="1.4211023622047245"/><line x1="730.929851052902" y1="611.6851900527454" x2="737.6316486902926" y2="607.5524041664098" stroke="#1f77b4" stroke-width="1.4211023622047245"/><line x1="737.6316486902926" y1="607.5524041664098" x2="744.3334463276835" y2="603.5261918787701" stroke="#1f77b4" stroke-width="1.4211023622047245"/><line x1="744.3334463276835" y1="603.5261918787701" x2="751.0352439650744" y2="599.6065531898267" stroke="#1f77b4" stroke-width="1.4211023622047245"/><line x1="751.0352439650744" y1="599.6065531898267" x2="757.7370416024653" y2="595.7934880995792" stroke="#1f77b4" stroke-width="1.4211023622047245"/><line x1="757.7370416024653" y1="595.7934880995792" x2="764.4388392398562" y2="592.0869966080279" stroke="#1f77b4" stroke-width="1.4211023622047245"/><line x1="764.4388392398562" y1="592.0869966080279" x2="771.1406368772471" y2="588.4870787151727" stroke="#1f77b4" stroke-width="1.4211023622047245"/><line x1="771.1406368772471" y1="588.4870787151727" x2="777.842434514638" y2="584.993734421014" stroke="#1f77b4" stroke-width="1.4211023622047245"/><line x1="777.842434514638" y1="584.993734421014" x2="784.5442321520287" y2="581.606963725551" stroke="#1f77b4" stroke-width="1.4211023622047245"/><line x1="784.5442321520287" y1="581.606963725551" x2="791.2460297894196" y2="578.3267666287845" stroke="#1f77b4" stroke-width="1.4211023622047245"/><line x1="791.2460297894196" y1="578.3267666287845" x2="797.9478274268105" y2="575.1531431307137" stroke="#1f77b4" stroke-width="1.4211023622047245"/><line x1="797.9478274268105" y1="575.1531431307137" x2="804.6496250642014" y2="572.0860932313392" stroke="#1f77b4" stroke-width="1.4211023622047245"/><line x1="804.6496250642014" y1="572.0860932313392" x2="811.3514227015922" y2="569.125616930661" stroke="#1f77b4" stroke-width="1.4211023622047245"/><line x1="811.3514227015922" y1="569.125616930661" x2="818.053220338983" y2="566.271714228679" stroke="#1f77b4" stroke-width="1.4211023622047245"/><line x1="818.053220338983" y1="566.271714228679" x2="824.7550179763739" y2="563.5243851253929" stroke="#1f77b4" stroke-width="1.4211023622047245"/><line x1="824.7550179763739" y1="563.5243851253929" x2="831.4568156137649" y2="560.883629620803" stroke="#1f77b4" stroke-width="1.4211023622047245"/><line x1="831.4568156137649" y1="560.883629620803" x2="838.1586132511557" y2="558.3494477149093" stroke="#1f77b4" stroke-width="1.4211023622047245"/><line x1="838.1586132511557" y1="558.3494477149093" x2="844.8604108885465" y2="555.9218394077119" stroke="#1f77b4" stroke-width="1.4211023622047245"/><line x1="844.8604108885465" y1="555.9218394077119" x2="851.5622085259374" y2="553.6008046992099" stroke="#1f77b4" stroke-width="1.4211023622047245"/><line x1="851.5622085259374" y1="553.6008046992099" x2="858.2640061633283" y2="551.3863435894048" stroke="#1f77b4" stroke-width="1.4211023622047245"/><line x1="858.2640061633283" y1="551.3863435894048" x2="864.9658038007192" y2="549.2784560782957" stroke="#1f77b4" stroke-width="1.4211023622047245"/><line x1="864.9658038007192" y1="549.2784560782957" x2="871.6676014381101" y2="547.2771421658825" stroke="#1f77b4" stroke-width="1.4211023622047245"/><line x1="871.6676014381101" y1="547.2771421658825" x2="878.3693990755007" y2="545.3824018521656" stroke="#1f77b4" stroke-width="1.4211023622047245"/><line x1="878.3693990755007" y1="545.3824018521656" x2="885.0711967128916" y2="543.5942351371448" stroke="#1f77b4" stroke-width="1.4211023622047245"/><line x1="885.0711967128916" y1="543.5942351371448" x2="891.7729943502825" y2="541.9126420208199" stroke="#1f77b4" stroke-width="1.4211023622047245"/><line x1="891.7729943502825" y1="541.9126420208199" x2="898.4747919876734" y2="540.3376225031917" stroke="#1f77b4" stroke-width="1.4211023622047245"/><line x1="898.4747919876734" y1="540.3376225031917" x2="905.1765896250641" y2="538.8691765842591" stroke="#1f77b4" stroke-width="1.4211023622047245"/><line x1="905.1765896250641" y1="538.8691765842591" x2="911.878387262455" y2="537.5073042640231" stroke="#1f77b4" stroke-width="1.4211023622047245"/><line x1="911.878387262455" y1="537.5073042640231" x2="918.5801848998459" y2="536.2520055424825" stroke="#1f77b4" stroke-width="1.4211023622047245"/><line x1="918.5801848998459" y1="536.2520055424825" x2="925.2819825372368" y2="535.1032804196388" stroke="#1f77b4" stroke-width="1.4211023622047245"/><line x1="925.2819825372368" y1="535.1032804196388" x2="931.9837801746277" y2="534.0611288954908" stroke="#1f77b4" stroke-width="1.4211023622047245"/><line x1="931.9837801746277" y1="534.0611288954908" x2="938.6855778120186" y2="533.1255509700395" stroke="#1f77b4" stroke-width="1.4211023622047245"/><line x1="938.6855778120186" y1="533.1255509700395" x2="945.3873754494094" y2="532.2965466432839" stroke="#1f77b4" stroke-width="1.4211023622047245"/><line x1="945.3873754494094" y1="532.2965466432839" x2="952.0891730868003" y2="531.5741159152245" stroke="#1f77b4" stroke-width="1.4211023622047245"/><line x1="952.0891730868003" y1="531.5741159152245" x2="958.7909707241911" y2="530.9582587858608" stroke="#1f77b4" stroke-width="1.4211023622047245"/><line x1="958.7909707241911" y1="530.9582587858608" x2="965.492768361582" y2="530.448975255194" stroke="#1f77b4" stroke-width="1.4211023622047245"/><line x1="965.492768361582" y1="530.448975255194" x2="972.1945659989728" y2="530.0462653232228" stroke="#1f77b4" stroke-width="1.4211023622047245"/><line x1="972.1945659989728" y1="530.0462653232228" x2="978.8963636363635" y2="529.7501289899479" stroke="#1f77b4" stroke-width="1.4211023622047245"/></svg>