<svg xmlns="http://www.w3.org/2000/svg" width="1013" height="827" viewBox="0 0 1013 827"><rect x="0.0" y="0.0" width="1013.3333333333333" height="826.6666666666666" fill="#ffffff" fill-opacity="1.0" stroke="none"/><text x="60.72" y="21.413333333333334" fill="#333333" font-size="17.599999999999998" font-family="sans-serif" text-anchor="start">DOE profiler (GP 版・designModelGP・帯 = GP 事後予測帯)</text><rect x="0.0" y="0.0" width="0.0" height="0.0" fill="#ffffff" fill-opacity="1.0" stroke="none"/><line x1="91.79712881546362" y1="39.599999999999994" x2="91.79712881546362" y2="378.13333333333327" stroke="#dddddd" stroke-width="0.6666666666666666"/><line x1="184.99523107439848" y1="39.599999999999994" x2="184.99523107439848" y2="378.13333333333327" stroke="#dddddd" stroke-width="0.6666666666666666"/><line x1="278.19333333333327" y1="39.599999999999994" x2="278.19333333333327" y2="378.13333333333327" stroke="#dddddd" stroke-width="0.6666666666666666"/><line x1="371.3914355922682" y1="39.599999999999994" x2="371.3914355922682" y2="378.13333333333327" stroke="#dddddd" stroke-width="0.6666666666666666"/><line x1="464.58953785120303" y1="39.599999999999994" x2="464.58953785120303" y2="378.13333333333327" stroke="#dddddd" stroke-width="0.6666666666666666"/><line x1="138.39617994493102" y1="39.599999999999994" x2="138.39617994493102" y2="378.13333333333327" stroke="#dddddd" stroke-width="1.3333333333333333"/><line x1="231.59428220386587" y1="39.599999999999994" x2="231.59428220386587" y2="378.13333333333327" stroke="#dddddd" stroke-width="1.3333333333333333"/><line x1="324.7923844628007" y1="39.599999999999994" x2="324.7923844628007" y2="378.13333333333327" stroke="#dddddd" stroke-width="1.3333333333333333"/><line x1="417.99048672173564" y1="39.599999999999994" x2="417.99048672173564" y2="378.13333333333327" stroke="#dddddd" stroke-width="1.3333333333333333"/><line x1="60.72" y1="311.19975474723725" x2="495.66666666666663" y2="311.19975474723725" stroke="#dddddd" stroke-width="0.6666666666666666"/><line x1="60.72" y1="220.34447958434413" x2="495.66666666666663" y2="220.34447958434413" stroke="#dddddd" stroke-width="0.6666666666666666"/><line x1="60.72" y1="129.489204421451" x2="495.66666666666663" y2="129.489204421451" stroke="#dddddd" stroke-width="0.6666666666666666"/><line x1="60.72" y1="356.6273923286838" x2="495.66666666666663" y2="356.6273923286838" stroke="#dddddd" stroke-width="1.3333333333333333"/><line x1="60.72" y1="265.7721171657907" x2="495.66666666666663" y2="265.7721171657907" stroke="#dddddd" stroke-width="1.3333333333333333"/><line x1="60.72" y1="174.91684200289757" x2="495.66666666666663" y2="174.91684200289757" stroke="#dddddd" stroke-width="1.3333333333333333"/><line x1="60.72" y1="84.06156684000446" x2="495.66666666666663" y2="84.06156684000446" stroke="#dddddd" stroke-width="1.3333333333333333"/><rect x="60.72" y="39.599999999999994" width="434.9466666666666" height="338.5333333333333" fill="#ffffff" fill-opacity="0.0" stroke="#444444" stroke-width="1.3333333333333333"/><line x1="138.39617994493102" y1="378.13333333333327" x2="138.39617994493102" y2="381.79999999999995" stroke="#444444" stroke-width="1.3333333333333333"/><text x="138.39617994493102" y="394.11999999999995" fill="#333333" font-size="11.733333333333334" font-family="sans-serif" text-anchor="middle">150</text><line x1="231.59428220386587" y1="378.13333333333327" x2="231.59428220386587" y2="381.79999999999995" stroke="#444444" stroke-width="1.3333333333333333"/><text x="231.59428220386587" y="394.11999999999995" fill="#333333" font-size="11.733333333333334" font-family="sans-serif" text-anchor="middle">160</text><line x1="324.7923844628007" y1="378.13333333333327" x2="324.7923844628007" y2="381.79999999999995" stroke="#444444" stroke-width="1.3333333333333333"/><text x="324.7923844628007" y="394.11999999999995" fill="#333333" font-size="11.733333333333334" font-family="sans-serif" text-anchor="middle">170</text><line x1="417.99048672173564" y1="378.13333333333327" x2="417.99048672173564" y2="381.79999999999995" stroke="#444444" stroke-width="1.3333333333333333"/><text x="417.99048672173564" y="394.11999999999995" fill="#333333" font-size="11.733333333333334" font-family="sans-serif" text-anchor="middle">180</text><line x1="60.72" y1="356.6273923286838" x2="57.05333333333333" y2="356.6273923286838" stroke="#444444" stroke-width="1.3333333333333333"/><text x="54.11999999999999" y="360.73405899535044" fill="#333333" font-size="11.733333333333334" font-family="sans-serif" text-anchor="end">150</text><line x1="60.72" y1="265.7721171657907" x2="57.05333333333333" y2="265.7721171657907" stroke="#444444" stroke-width="1.3333333333333333"/><text x="54.11999999999999" y="269.8787838324574" fill="#333333" font-size="11.733333333333334" font-family="sans-serif" text-anchor="end">160</text><line x1="60.72" y1="174.91684200289757" x2="57.05333333333333" y2="174.91684200289757" stroke="#444444" stroke-width="1.3333333333333333"/><text x="54.11999999999999" y="179.02350866956425" fill="#333333" font-size="11.733333333333334" font-family="sans-serif" text-anchor="end">170</text><line x1="60.72" y1="84.06156684000446" x2="57.05333333333333" y2="84.06156684000446" stroke="#444444" stroke-width="1.3333333333333333"/><text x="54.11999999999999" y="88.16823350667113" fill="#333333" font-size="11.733333333333334" font-family="sans-serif" text-anchor="end">180</text><text x="278.19333333333327" y="411.8666666666666" fill="#333333" font-size="14.666666666666666" font-family="sans-serif" text-anchor="middle">temp</text><text x="24.93333333333333" y="208.86666666666662" fill="#333333" font-size="14.666666666666666" font-family="sans-serif" text-anchor="middle" transform="rotate(-90.0 24.93333333333333 208.86666666666662)">strength</text><circle cx="138.39617994493102" cy="346.6333120607656" r="3.1181102362204727" fill="#1f77b4" fill-opacity="0.85" stroke="none"><title>(150, 151.1)</title></circle><circle cx="138.39617994493102" cy="220.34447958434413" r="3.1181102362204727" fill="#1f77b4" fill-opacity="0.85" stroke="none"><title>(150, 165)</title></circle><circle cx="417.99048672173564" cy="184.91092227081577" r="3.1181102362204727" fill="#1f77b4" fill-opacity="0.85" stroke="none"><title>(180, 168.9)</title></circle><circle cx="417.99048672173564" cy="54.9878787878788" r="3.1181102362204727" fill="#1f77b4" fill-opacity="0.85" stroke="none"><title>(180, 183.2)</title></circle><circle cx="80.49030303030293" cy="356.88107898546207" r="3.1181102362204727" fill="#1f77b4" fill-opacity="0.85" stroke="none"><title>(143.786796564404, 149.972077938642)</title></circle><circle cx="475.89636363636373" cy="128.32696501304383" r="3.1181102362204727" fill="#1f77b4" fill-opacity="0.85" stroke="none"><title>(186.213203435596, 175.127922061358)</title></circle><circle cx="278.19333333333327" cy="252.20380598006722" r="3.1181102362204727" fill="#1f77b4" fill-opacity="0.85" stroke="none"><title>(165, 161.493398282202)</title></circle><circle cx="278.19333333333327" cy="69.46474272523115" r="3.1181102362204727" fill="#1f77b4" fill-opacity="0.85" stroke="none"><title>(165, 181.606601717798)</title></circle><circle cx="278.19333333333327" cy="157.65433972194785" r="3.1181102362204727" fill="#1f77b4" fill-opacity="0.85" stroke="none"><title>(165, 171.9)</title></circle><circle cx="278.19333333333327" cy="164.01420898335053" r="3.1181102362204727" fill="#1f77b4" fill-opacity="0.85" stroke="none"><title>(165, 171.2)</title></circle><path d="M 80.49030303030293 362.74545454545444 L 87.19210066769384 353.45804732965945 L 93.89389830508478 344.3733074606922 L 100.59569594247543 335.4874883322388 L 107.29749357986636 326.7965359744004 L 113.99929121725728 318.2963565368692 L 120.70108885464822 309.9830585753028 L 127.40288649203887 301.85314257594007 L 134.10468412942978 293.90362623936375 L 140.8064817668207 286.1321079067014 L 147.50827940421163 278.5367791111146 L 154.2100770416023 271.11640041014186 L 160.9118746789932 263.87025402037824 L 167.6136723163841 256.79808420118803 L 174.31546995377508 249.90003321421187 L 181.01726759116573 243.17657791178354 L 187.71906522855662 236.6284698102899 L 194.42086286594753 230.25667999880835 L 201.1226605033385 224.06234926895246 L 207.8244581407294 218.04674328515787 L 214.52625577812006 212.21121237075153 L 221.228053415511 206.55715538370936 L 227.9298510529019 201.08598720904595 L 234.63164869029256 195.79910948634213 L 241.33344632768348 190.69788431264251 L 248.03524396507441 185.78361081146886 L 254.73704160246533 181.05750457384207 L 261.43883923985624 176.52068006048503 L 268.14063687724695 172.17413615035542 L 274.84243451463783 168.01874502686556 L 281.5442321520287 164.0552445937127 L 288.24602978941965 160.28423456535057 L 294.94782742681036 156.70617632058193 L 301.64962506420125 153.3213965074607 L 308.3514227015922 150.13009433103915 L 315.0532203389831 147.13235236935446 L 321.755017976374 144.32815072714135 L 328.45681561376466 141.71738433198817 L 335.1586132511556 139.29988319774864 L 341.86041088854654 137.07543556390547 L 348.56220852593725 135.04381388911173 L 355.26400616332813 133.20480383324366 L 361.9658038007191 131.5582364708228 L 368.66760143810995 130.1040241200838 L 375.36939907550095 128.84220026897268 L 382.0711967128916 127.77296411055752 L 388.7729943502825 126.89673012698984 L 395.4747919876734 126.2141828919634 L 402.1765896250641 125.72633671121119 L 408.878387262455 125.43459875040806 L 415.5801848998459 125.34083279315033 L 422.2819825372369 125.44741857632565 L 428.9837801746278 125.75729887663643 L 435.6855778120185 126.27400340125428 L 442.3873754494094 127.00163596402732 L 449.0891730868003 127.94481078265815 L 455.7909707241912 129.10852692946608 L 462.49276836158185 130.49797853762573 L 469.19456599897285 132.1183122478352 L 475.89636363636373 133.97435946644285 L 475.89636363636373 121.67744910671857 L 469.19456599897285 120.22323826839943 L 462.49276836158185 118.91499362714542 L 455.7909707241912 117.7587176897629 L 449.0891730868003 116.76064602517631 L 442.3873754494094 115.92697911013013 L 435.6855778120185 115.2636393953334 L 428.9837801746278 114.77608115204134 L 422.2819825372369 114.46916459084294 L 415.5801848998459 114.3470918511355 L 408.878387262455 114.41339389607765 L 402.1765896250641 114.6709541495082 L 395.4747919876734 115.12205534968673 L 388.7729943502825 115.76843868520874 L 382.0711967128916 116.61136737304392 L 375.36939907550095 117.65168963593142 L 368.66760143810995 118.8898982201194 L 361.9658038007191 120.32618509763047 L 355.26400616332813 121.96049097926871 L 348.56220852593725 123.79254980659994 L 341.86041088854654 125.82192865694321 L 335.1586132511556 128.0480635817841 L 328.45681561376466 130.47029185536923 L 321.755017976374 133.08788101703263 L 315.0532203389831 135.9000549535248 L 308.3514227015922 138.90601715200924 L 301.64962506420125 142.10497110525307 L 294.94782742681036 145.49613777423542 L 288.24602978941965 149.07876993779203 L 281.5442321520287 152.85216322678107 L 274.84243451463783 156.815663659934 L 268.14063687724695 160.96867152156156 L 261.43883923985624 165.31064151352132 L 254.73704160246533 169.84107917204554 L 248.03524396507441 174.55953363264453 L 241.33344632768348 179.4655868961967 L 234.63164869029256 184.5588397762334 L 227.9298510529019 189.83889473365826 L 221.228053415511 195.30533576753982 L 214.52625577812006 200.9577054635843 L 207.8244581407294 206.7954792026461 L 201.1226605033385 212.81803641518255 L 194.42086286594753 219.0246286260266 L 187.71906522855662 225.414343910531 L 181.01726759116573 231.98606727956712 L 174.31546995377508 238.73843647690492 L 167.6136723163841 245.66979275961458 L 160.9118746789932 252.77812647851783 L 154.2100770416023 260.0610178488562 L 147.50827940421163 267.51557425720296 L 140.8064817668207 275.13836696468655 L 134.10468412942978 282.92537225430146 L 127.40288649203887 290.87192485176536 L 120.70108885464822 298.9726945689631 L 113.99929121725728 307.2216996831802 L 107.29749357986636 315.612371216712 L 100.59569594247543 324.1376790919262 L 93.89389830508478 332.7903225504113 L 87.19210066769384 341.5629733502236 L 80.49030303030293 350.4485441859177 Z" fill="#1f77b4" fill-opacity="0.2" stroke="none"/><line x1="80.49030303030293" y1="356.5969993656861" x2="87.19210066769384" y2="347.5105103399415" stroke="#1f77b4" stroke-width="1.4211023622047245"/><line x1="87.19210066769384" y1="347.5105103399415" x2="93.89389830508478" y2="338.5818150055518" stroke="#1f77b4" stroke-width="1.4211023622047245"/><line x1="93.89389830508478" y1="338.5818150055518" x2="100.59569594247543" y2="329.81258371208247" stroke="#1f77b4" stroke-width="1.4211023622047245"/><line x1="100.59569594247543" y1="329.81258371208247" x2="107.29749357986636" y2="321.2044535955562" stroke="#1f77b4" stroke-width="1.4211023622047245"/><line x1="107.29749357986636" y1="321.2044535955562" x2="113.99929121725728" y2="312.7590281100247" stroke="#1f77b4" stroke-width="1.4211023622047245"/><line x1="113.99929121725728" y1="312.7590281100247" x2="120.70108885464822" y2="304.4778765721329" stroke="#1f77b4" stroke-width="1.4211023622047245"/><line x1="120.70108885464822" y1="304.4778765721329" x2="127.40288649203887" y2="296.3625337138527" stroke="#1f77b4" stroke-width="1.4211023622047245"/><line x1="127.40288649203887" y1="296.3625337138527" x2="134.10468412942978" y2="288.4144992468326" stroke="#1f77b4" stroke-width="1.4211023622047245"/><line x1="134.10468412942978" y1="288.4144992468326" x2="140.8064817668207" y2="280.63523743569397" stroke="#1f77b4" stroke-width="1.4211023622047245"/><line x1="140.8064817668207" y1="280.63523743569397" x2="147.50827940421163" y2="273.0261766841588" stroke="#1f77b4" stroke-width="1.4211023622047245"/><line x1="147.50827940421163" y1="273.0261766841588" x2="154.2100770416023" y2="265.588709129499" stroke="#1f77b4" stroke-width="1.4211023622047245"/><line x1="154.2100770416023" y1="265.588709129499" x2="160.9118746789932" y2="258.32419024944807" stroke="#1f77b4" stroke-width="1.4211023622047245"/><line x1="160.9118746789932" y1="258.32419024944807" x2="167.6136723163841" y2="251.23393848040132" stroke="#1f77b4" stroke-width="1.4211023622047245"/><line x1="167.6136723163841" y1="251.23393848040132" x2="174.31546995377508" y2="244.3192348455584" stroke="#1f77b4" stroke-width="1.4211023622047245"/><line x1="174.31546995377508" y1="244.3192348455584" x2="181.01726759116573" y2="237.5813225956753" stroke="#1f77b4" stroke-width="1.4211023622047245"/><line x1="181.01726759116573" y1="237.5813225956753" x2="187.71906522855662" y2="231.02140686041042" stroke="#1f77b4" stroke-width="1.4211023622047245"/><line x1="187.71906522855662" y1="231.02140686041042" x2="194.42086286594753" y2="224.64065431241752" stroke="#1f77b4" stroke-width="1.4211023622047245"/><line x1="194.42086286594753" y1="224.64065431241752" x2="201.1226605033385" y2="218.44019284206752" stroke="#1f77b4" stroke-width="1.4211023622047245"/><line x1="201.1226605033385" y1="218.44019284206752" x2="207.8244581407294" y2="212.42111124390198" stroke="#1f77b4" stroke-width="1.4211023622047245"/><line x1="207.8244581407294" y1="212.42111124390198" x2="214.52625577812006" y2="206.58445891716792" stroke="#1f77b4" stroke-width="1.4211023622047245"/><line x1="214.52625577812006" y1="206.58445891716792" x2="221.228053415511" y2="200.9312455756246" stroke="#1f77b4" stroke-width="1.4211023622047245"/><line x1="221.228053415511" y1="200.9312455756246" x2="227.9298510529019" y2="195.46244097135212" stroke="#1f77b4" stroke-width="1.4211023622047245"/><line x1="227.9298510529019" y1="195.46244097135212" x2="234.63164869029256" y2="190.17897463128776" stroke="#1f77b4" stroke-width="1.4211023622047245"/><line x1="234.63164869029256" y1="190.17897463128776" x2="241.33344632768348" y2="185.08173560441963" stroke="#1f77b4" stroke-width="1.4211023622047245"/><line x1="241.33344632768348" y1="185.08173560441963" x2="248.03524396507441" y2="180.17157222205668" stroke="#1f77b4" stroke-width="1.4211023622047245"/><line x1="248.03524396507441" y1="180.17157222205668" x2="254.73704160246533" y2="175.44929187294383" stroke="#1f77b4" stroke-width="1.4211023622047245"/><line x1="254.73704160246533" y1="175.44929187294383" x2="261.43883923985624" y2="170.9156607870032" stroke="#1f77b4" stroke-width="1.4211023622047245"/><line x1="261.43883923985624" y1="170.9156607870032" x2="268.14063687724695" y2="166.57140383595848" stroke="#1f77b4" stroke-width="1.4211023622047245"/><line x1="268.14063687724695" y1="166.57140383595848" x2="274.84243451463783" y2="162.41720434339982" stroke="#1f77b4" stroke-width="1.4211023622047245"/><line x1="274.84243451463783" y1="162.41720434339982" x2="281.5442321520287" y2="158.4537039102469" stroke="#1f77b4" stroke-width="1.4211023622047245"/><line x1="281.5442321520287" y1="158.4537039102469" x2="288.24602978941965" y2="154.68150225157132" stroke="#1f77b4" stroke-width="1.4211023622047245"/><line x1="288.24602978941965" y1="154.68150225157132" x2="294.94782742681036" y2="151.10115704740866" stroke="#1f77b4" stroke-width="1.4211023622047245"/><line x1="294.94782742681036" y1="151.10115704740866" x2="301.64962506420125" y2="147.71318380635685" stroke="#1f77b4" stroke-width="1.4211023622047245"/><line x1="301.64962506420125" y1="147.71318380635685" x2="308.3514227015922" y2="144.51805574152422" stroke="#1f77b4" stroke-width="1.4211023622047245"/><line x1="308.3514227015922" y1="144.51805574152422" x2="315.0532203389831" y2="141.51620366143965" stroke="#1f77b4" stroke-width="1.4211023622047245"/><line x1="315.0532203389831" y1="141.51620366143965" x2="321.755017976374" y2="138.708015872087" stroke="#1f77b4" stroke-width="1.4211023622047245"/><line x1="321.755017976374" y1="138.708015872087" x2="328.45681561376466" y2="136.0938380936787" stroke="#1f77b4" stroke-width="1.4211023622047245"/><line x1="328.45681561376466" y1="136.0938380936787" x2="335.1586132511556" y2="133.6739733897664" stroke="#1f77b4" stroke-width="1.4211023622047245"/><line x1="335.1586132511556" y1="133.6739733897664" x2="341.86041088854654" y2="131.44868211042433" stroke="#1f77b4" stroke-width="1.4211023622047245"/><line x1="341.86041088854654" y1="131.44868211042433" x2="348.56220852593725" y2="129.41818184785586" stroke="#1f77b4" stroke-width="1.4211023622047245"/><line x1="348.56220852593725" y1="129.41818184785586" x2="355.26400616332813" y2="127.58264740625619" stroke="#1f77b4" stroke-width="1.4211023622047245"/><line x1="355.26400616332813" y1="127.58264740625619" x2="361.9658038007191" y2="125.94221078422666" stroke="#1f77b4" stroke-width="1.4211023622047245"/><line x1="361.9658038007191" y1="125.94221078422666" x2="368.66760143810995" y2="124.4969611701016" stroke="#1f77b4" stroke-width="1.4211023622047245"/><line x1="368.66760143810995" y1="124.4969611701016" x2="375.36939907550095" y2="123.24694495245205" stroke="#1f77b4" stroke-width="1.4211023622047245"/><line x1="375.36939907550095" y1="123.24694495245205" x2="382.0711967128916" y2="122.19216574180071" stroke="#1f77b4" stroke-width="1.4211023622047245"/><line x1="382.0711967128916" y1="122.19216574180071" x2="388.7729943502825" y2="121.33258440609927" stroke="#1f77b4" stroke-width="1.4211023622047245"/><line x1="388.7729943502825" y1="121.33258440609927" x2="395.4747919876734" y2="120.66811912082505" stroke="#1f77b4" stroke-width="1.4211023622047245"/><line x1="395.4747919876734" y1="120.66811912082505" x2="402.1765896250641" y2="120.19864543035972" stroke="#1f77b4" stroke-width="1.4211023622047245"/><line x1="402.1765896250641" y1="120.19864543035972" x2="408.878387262455" y2="119.92399632324285" stroke="#1f77b4" stroke-width="1.4211023622047245"/><line x1="408.878387262455" y1="119.92399632324285" x2="415.5801848998459" y2="119.84396232214294" stroke="#1f77b4" stroke-width="1.4211023622047245"/><line x1="415.5801848998459" y1="119.84396232214294" x2="422.2819825372369" y2="119.95829158358431" stroke="#1f77b4" stroke-width="1.4211023622047245"/><line x1="422.2819825372369" y1="119.95829158358431" x2="428.9837801746278" y2="120.2666900143389" stroke="#1f77b4" stroke-width="1.4211023622047245"/><line x1="428.9837801746278" y1="120.2666900143389" x2="435.6855778120185" y2="120.76882139829384" stroke="#1f77b4" stroke-width="1.4211023622047245"/><line x1="435.6855778120185" y1="120.76882139829384" x2="442.3873754494094" y2="121.46430753707875" stroke="#1f77b4" stroke-width="1.4211023622047245"/><line x1="442.3873754494094" y1="121.46430753707875" x2="449.0891730868003" y2="122.35272840391724" stroke="#1f77b4" stroke-width="1.4211023622047245"/><line x1="449.0891730868003" y1="122.35272840391724" x2="455.7909707241912" y2="123.43362230961452" stroke="#1f77b4" stroke-width="1.4211023622047245"/><line x1="455.7909707241912" y1="123.43362230961452" x2="462.49276836158185" y2="124.7064860823856" stroke="#1f77b4" stroke-width="1.4211023622047245"/><line x1="462.49276836158185" y1="124.7064860823856" x2="469.19456599897285" y2="126.17077525811733" stroke="#1f77b4" stroke-width="1.4211023622047245"/><line x1="469.19456599897285" y1="126.17077525811733" x2="475.89636363636373" y2="127.82590428658071" stroke="#1f77b4" stroke-width="1.4211023622047245"/><rect x="0.0" y="0.0" width="0.0" height="0.0" fill="#ffffff" fill-opacity="1.0" stroke="none"/><line x1="641.3961799449311" y1="39.599999999999994" x2="641.3961799449311" y2="378.13333333333327" stroke="#dddddd" stroke-width="0.6666666666666666"/><line x1="753.2339026556529" y1="39.599999999999994" x2="753.2339026556529" y2="378.13333333333327" stroke="#dddddd" stroke-width="0.6666666666666666"/><line x1="865.0716253663746" y1="39.599999999999994" x2="865.0716253663746" y2="378.13333333333327" stroke="#dddddd" stroke-width="0.6666666666666666"/><line x1="976.9093480770964" y1="39.599999999999994" x2="976.9093480770964" y2="378.13333333333327" stroke="#dddddd" stroke-width="0.6666666666666666"/><line x1="585.4773185895702" y1="39.599999999999994" x2="585.4773185895702" y2="378.13333333333327" stroke="#dddddd" stroke-width="1.3333333333333333"/><line x1="697.315041300292" y1="39.599999999999994" x2="697.315041300292" y2="378.13333333333327" stroke="#dddddd" stroke-width="1.3333333333333333"/><line x1="809.1527640110137" y1="39.599999999999994" x2="809.1527640110137" y2="378.13333333333327" stroke="#dddddd" stroke-width="1.3333333333333333"/><line x1="920.9904867217356" y1="39.599999999999994" x2="920.9904867217356" y2="378.13333333333327" stroke="#dddddd" stroke-width="1.3333333333333333"/><line x1="563.72" y1="316.1767554301691" x2="998.6666666666666" y2="316.1767554301691" stroke="#dddddd" stroke-width="0.6666666666666666"/><line x1="563.72" y1="223.5565864080803" x2="998.6666666666666" y2="223.5565864080803" stroke="#dddddd" stroke-width="0.6666666666666666"/><line x1="563.72" y1="130.9364173859915" x2="998.6666666666666" y2="130.9364173859915" stroke="#dddddd" stroke-width="0.6666666666666666"/><line x1="563.72" y1="362.48683994121353" x2="998.6666666666666" y2="362.48683994121353" stroke="#dddddd" stroke-width="1.3333333333333333"/><line x1="563.72" y1="269.8666709191247" x2="998.6666666666666" y2="269.8666709191247" stroke="#dddddd" stroke-width="1.3333333333333333"/><line x1="563.72" y1="177.24650189703587" x2="998.6666666666666" y2="177.24650189703587" stroke="#dddddd" stroke-width="1.3333333333333333"/><line x1="563.72" y1="84.62633287494702" x2="998.6666666666666" y2="84.62633287494702" stroke="#dddddd" stroke-width="1.3333333333333333"/><rect x="563.72" y="39.599999999999994" width="434.9466666666666" height="338.5333333333333" fill="#ffffff" fill-opacity="0.0" stroke="#444444" stroke-width="1.3333333333333333"/><line x1="585.4773185895702" y1="378.13333333333327" x2="585.4773185895702" y2="381.79999999999995" stroke="#444444" stroke-width="1.3333333333333333"/><text x="585.4773185895702" y="394.11999999999995" fill="#333333" font-size="11.733333333333334" font-family="sans-serif" text-anchor="middle">8</text><line x1="697.315041300292" y1="378.13333333333327" x2="697.315041300292" y2="381.79999999999995" stroke="#444444" stroke-width="1.3333333333333333"/><text x="697.315041300292" y="394.11999999999995" fill="#333333" font-size="11.733333333333334" font-family="sans-serif" text-anchor="middle">12</text><line x1="809.1527640110137" y1="378.13333333333327" x2="809.1527640110137" y2="381.79999999999995" stroke="#444444" stroke-width="1.3333333333333333"/><text x="809.1527640110137" y="394.11999999999995" fill="#333333" font-size="11.733333333333334" font-family="sans-serif" text-anchor="middle">16</text><line x1="920.9904867217356" y1="378.13333333333327" x2="920.9904867217356" y2="381.79999999999995" stroke="#444444" stroke-width="1.3333333333333333"/><text x="920.9904867217356" y="394.11999999999995" fill="#333333" font-size="11.733333333333334" font-family="sans-serif" text-anchor="middle">20</text><line x1="563.72" y1="362.48683994121353" x2="560.0533333333333" y2="362.48683994121353" stroke="#444444" stroke-width="1.3333333333333333"/><text x="557.12" y="366.59350660788016" fill="#333333" font-size="11.733333333333334" font-family="sans-serif" text-anchor="end">150</text><line x1="563.72" y1="269.8666709191247" x2="560.0533333333333" y2="269.8666709191247" stroke="#444444" stroke-width="1.3333333333333333"/><text x="557.12" y="273.9733375857914" fill="#333333" font-size="11.733333333333334" font-family="sans-serif" text-anchor="end">160</text><line x1="563.72" y1="177.24650189703587" x2="560.0533333333333" y2="177.24650189703587" stroke="#444444" stroke-width="1.3333333333333333"/><text x="557.12" y="181.35316856370255" fill="#333333" font-size="11.733333333333334" font-family="sans-serif" text-anchor="end">170</text><line x1="563.72" y1="84.62633287494702" x2="560.0533333333333" y2="84.62633287494702" stroke="#444444" stroke-width="1.3333333333333333"/><text x="557.12" y="88.73299954161368" fill="#333333" font-size="11.733333333333334" font-family="sans-serif" text-anchor="end">180</text><text x="781.1933333333333" y="411.8666666666666" fill="#333333" font-size="14.666666666666666" font-family="sans-serif" text-anchor="middle">time</text><text x="527.9333333333333" y="208.86666666666662" fill="#333333" font-size="14.666666666666666" font-family="sans-serif" text-anchor="middle" transform="rotate(-90.0 527.9333333333333 208.86666666666662)">strength</text><circle cx="641.3961799449311" cy="352.29862134878385" r="3.1181102362204727" fill="#1f77b4" fill-opacity="0.85" stroke="none"><title>(10, 151.1)</title></circle><circle cx="920.9904867217356" cy="223.5565864080803" r="3.1181102362204727" fill="#1f77b4" fill-opacity="0.85" stroke="none"><title>(20, 165)</title></circle><circle cx="641.3961799449311" cy="187.4347204894656" r="3.1181102362204727" fill="#1f77b4" fill-opacity="0.85" stroke="none"><title>(10, 168.9)</title></circle><circle cx="920.9904867217356" cy="54.98787878787872" r="3.1181102362204727" fill="#1f77b4" fill-opacity="0.85" stroke="none"><title>(20, 183.2)</title></circle><circle cx="781.1933333333333" cy="362.74545454545455" r="3.1181102362204727" fill="#1f77b4" fill-opacity="0.85" stroke="none"><title>(15, 149.972077938642)</title></circle><circle cx="781.1933333333333" cy="129.7516010915296" r="3.1181102362204727" fill="#1f77b4" fill-opacity="0.85" stroke="none"><title>(15, 175.127922061358)</title></circle><circle cx="583.490303030303" cy="256.0347907876421" r="3.1181102362204727" fill="#1f77b4" fill-opacity="0.85" stroke="none"><title>(7.928932188135, 161.493398282202)</title></circle><circle cx="978.8963636363635" cy="69.74596060958216" r="3.1181102362204727" fill="#1f77b4" fill-opacity="0.85" stroke="none"><title>(22.071067811865, 181.606601717798)</title></circle><circle cx="781.1933333333333" cy="159.64866978283897" r="3.1181102362204727" fill="#1f77b4" fill-opacity="0.85" stroke="none"><title>(15, 171.9)</title></circle><circle cx="781.1933333333333" cy="166.13208161438536" r="3.1181102362204727" fill="#1f77b4" fill-opacity="0.85" stroke="none"><title>(15, 171.2)</title></circle><path d="M 583.490303030303 262.44240817220697 L 590.1921006676939 259.14742154202526 L 596.8938983050848 255.86513849280647 L 603.5956959424756 252.59504970426997 L 610.2974935798665 249.33658281747717 L 616.9992912172572 246.08911046360674 L 623.7010888546481 242.8519598030006 L 630.402886492039 239.62442310061425 L 637.1046841294299 236.40576883128278 L 643.8064817668208 233.19525282590033 L 650.5082794042116 229.9921289976046 L 657.2100770416025 226.7956592902326 L 663.9118746789934 223.60512257373506 L 670.6136723163842 220.4198223093029 L 677.315469953775 217.23909291893725 L 684.0172675911659 214.06230485856136 L 690.7190652285568 210.88886846968796 L 697.4208628659476 207.71823672322046 L 704.1226605033385 204.5499070015542 L 710.8244581407293 201.38342207374677 L 717.5262557781202 198.21837042724474 L 724.2280534155111 195.05438609443922 L 730.929851052902 191.89114812392506 L 737.6316486902926 188.7283798120409 L 744.3334463276835 185.5658477952002 L 751.0352439650744 182.40336109527703 L 757.7370416024653 179.24077018537565 L 764.4388392398562 176.07796613861478 L 771.1406368772471 172.91487989232934 L 777.842434514638 169.75148167524446 L 784.5442321520287 166.58778060791207 L 791.2460297894196 163.42382450223823 L 797.9478274268105 160.25969985888986 L 804.6496250642014 157.0955320686154 L 811.3514227015922 153.93148580595803 L 818.053220338983 150.76776560251108 L 824.7550179763739 147.60461657720634 L 831.4568156137649 144.44232528889017 L 838.1586132511557 141.2812206646752 L 844.8604108885465 138.12167495611953 L 851.5622085259374 134.9641046389045 L 858.2640061633283 131.80897118357146 L 864.9658038007192 128.6567815808565 L 871.6676014381101 125.50808851190573 L 878.3693990755007 122.3634900135753 L 885.0711967128916 119.22362850222626 L 891.7729943502825 116.08918898964801 L 898.4747919876734 112.96089633410497 L 905.1765896250641 109.83951139030542 L 911.878387262455 106.72582592946586 L 918.5801848998459 103.62065627163747 L 925.2819825372368 100.52483561380473 L 931.9837801746277 97.4392051365642 L 938.6855778120186 94.36460405121552 L 945.3873754494094 91.30185886863576 L 952.0891730868003 88.25177225522368 L 958.7909707241911 85.21511192250239 L 965.492768361582 82.19260004949656 L 972.1945659989728 79.1849037445487 L 978.8963636363635 76.19262700688951 L 978.8963636363635 63.97201767557215 L 972.1945659989728 67.16706254712793 L 965.492768361582 70.35288679537135 L 958.7909707241911 73.52999588844996 L 952.0891730868003 76.69895847157957 L 945.3873754494094 79.8603983334087 L 938.6855778120186 83.0149848707523 L 931.9837801746277 86.16342251104766 L 925.2819825372368 89.3064396075828 L 918.5801848998459 92.44477729557127 L 911.878387262455 95.57917876470347 L 905.1765896250641 98.71037930877799 L 898.4747919876734 101.83909743494851 L 891.7729943502825 104.96602719457246 L 885.0711967128916 108.09183181638949 L 878.3693990755007 111.21713863235493 L 871.6676014381101 114.34253522686011 L 864.9658038007192 117.46856669302049 L 858.2640061633283 120.59573384814465 L 851.5622085259374 123.72449226265549 L 844.8604108885465 126.85525192750086 L 838.1586132511557 129.98837742470607 L 831.4568156137649 133.12418845879137 L 824.7550179763739 136.26296062708428 L 818.053220338983 139.40492632146848 L 811.3514227015922 142.5502756901189 L 804.6496250642014 145.69915756615268 L 797.9478274268105 148.85168032294854 L 791.2460297894196 152.0079126062442 L 784.5442321520287 155.16788391168316 L 777.842434514638 158.33158497943566 L 771.1406368772471 161.49896799717558 L 764.4388392398562 164.66994660267346 L 757.7370416024653 167.84439568291293 L 751.0352439650744 171.02215097943795 L 744.3334463276835 174.20300851457984 L 737.6316486902926 177.38672386170722 L 730.929851052902 180.5730112944617 L 724.2280534155111 183.76154285404573 L 717.5262557781202 186.951947398626 L 710.8244581407293 190.14380969749777 L 704.1226605033385 193.33666966569993 L 697.4208628659476 196.530021834313 L 690.7190652285568 199.72331518464233 L 684.0172675911659 202.9159534771262 L 677.315469953775 206.1072962326698 L 670.6136723163842 209.29666051379675 L 663.9118746789934 212.48332367371623 L 657.2100770416025 215.66652720827398 L 650.5082794042116 218.84548183219675 L 643.8064817668208 222.01937385026318 L 637.1046841294299 225.18737282463337 L 630.402886492039 228.34864047424736 L 623.7010888546481 231.50234062253736 L 616.9992912172572 234.64764992858915 L 610.2974935798665 237.78376903404046 L 603.5956959424756 240.90993367042284 L 596.8938983050848 244.0254252380737 L 590.1921006676939 247.12958034500357 L 583.490303030303 250.22179884088962 Z" fill="#1f77b4" fill-opacity="0.2" stroke="none"/><line x1="583.490303030303" y1="256.33210350654826" x2="590.1921006676939" y2="253.13850094351443" stroke="#1f77b4" stroke-width="1.4211023622047245"/><line x1="590.1921006676939" y1="253.13850094351443" x2="596.8938983050848" y2="249.94528186544008" stroke="#1f77b4" stroke-width="1.4211023622047245"/><line x1="596.8938983050848" y1="249.94528186544008" x2="603.5956959424756" y2="246.7524916873464" stroke="#1f77b4" stroke-width="1.4211023622047245"/><line x1="603.5956959424756" y1="246.7524916873464" x2="610.2974935798665" y2="243.5601759257588" stroke="#1f77b4" stroke-width="1.4211023622047245"/><line x1="610.2974935798665" y1="243.5601759257588" x2="616.9992912172572" y2="240.36838019609797" stroke="#1f77b4" stroke-width="1.4211023622047245"/><line x1="616.9992912172572" y1="240.36838019609797" x2="623.7010888546481" y2="237.177150212769" stroke="#1f77b4" stroke-width="1.4211023622047245"/><line x1="623.7010888546481" y1="237.177150212769" x2="630.402886492039" y2="233.9865317874308" stroke="#1f77b4" stroke-width="1.4211023622047245"/><line x1="630.402886492039" y1="233.9865317874308" x2="637.1046841294299" y2="230.79657082795805" stroke="#1f77b4" stroke-width="1.4211023622047245"/><line x1="637.1046841294299" y1="230.79657082795805" x2="643.8064817668208" y2="227.60731333808178" stroke="#1f77b4" stroke-width="1.4211023622047245"/><line x1="643.8064817668208" y1="227.60731333808178" x2="650.5082794042116" y2="224.4188054149007" stroke="#1f77b4" stroke-width="1.4211023622047245"/><line x1="650.5082794042116" y1="224.4188054149007" x2="657.2100770416025" y2="221.2310932492533" stroke="#1f77b4" stroke-width="1.4211023622047245"/><line x1="657.2100770416025" y1="221.2310932492533" x2="663.9118746789934" y2="218.04422312372563" stroke="#1f77b4" stroke-width="1.4211023622047245"/><line x1="663.9118746789934" y1="218.04422312372563" x2="670.6136723163842" y2="214.8582414115498" stroke="#1f77b4" stroke-width="1.4211023622047245"/><line x1="670.6136723163842" y1="214.8582414115498" x2="677.315469953775" y2="211.67319457580356" stroke="#1f77b4" stroke-width="1.4211023622047245"/><line x1="677.315469953775" y1="211.67319457580356" x2="684.0172675911659" y2="208.48912916784377" stroke="#1f77b4" stroke-width="1.4211023622047245"/><line x1="684.0172675911659" y1="208.48912916784377" x2="690.7190652285568" y2="205.30609182716515" stroke="#1f77b4" stroke-width="1.4211023622047245"/><line x1="690.7190652285568" y1="205.30609182716515" x2="697.4208628659476" y2="202.1241292787667" stroke="#1f77b4" stroke-width="1.4211023622047245"/><line x1="697.4208628659476" y1="202.1241292787667" x2="704.1226605033385" y2="198.94328833362707" stroke="#1f77b4" stroke-width="1.4211023622047245"/><line x1="704.1226605033385" y1="198.94328833362707" x2="710.8244581407293" y2="195.76361588562227" stroke="#1f77b4" stroke-width="1.4211023622047245"/><line x1="710.8244581407293" y1="195.76361588562227" x2="717.5262557781202" y2="192.58515891293536" stroke="#1f77b4" stroke-width="1.4211023622047245"/><line x1="717.5262557781202" y1="192.58515891293536" x2="724.2280534155111" y2="189.40796447424248" stroke="#1f77b4" stroke-width="1.4211023622047245"/><line x1="724.2280534155111" y1="189.40796447424248" x2="730.929851052902" y2="186.23207970919333" stroke="#1f77b4" stroke-width="1.4211023622047245"/><line x1="730.929851052902" y1="186.23207970919333" x2="737.6316486902926" y2="183.05755183687407" stroke="#1f77b4" stroke-width="1.4211023622047245"/><line x1="737.6316486902926" y1="183.05755183687407" x2="744.3334463276835" y2="179.88442815489" stroke="#1f77b4" stroke-width="1.4211023622047245"/><line x1="744.3334463276835" y1="179.88442815489" x2="751.0352439650744" y2="176.71275603735754" stroke="#1f77b4" stroke-width="1.4211023622047245"/><line x1="751.0352439650744" y1="176.71275603735754" x2="757.7370416024653" y2="173.54258293414426" stroke="#1f77b4" stroke-width="1.4211023622047245"/><line x1="757.7370416024653" y1="173.54258293414426" x2="764.4388392398562" y2="170.37395637064412" stroke="#1f77b4" stroke-width="1.4211023622047245"/><line x1="764.4388392398562" y1="170.37395637064412" x2="771.1406368772471" y2="167.20692394475248" stroke="#1f77b4" stroke-width="1.4211023622047245"/><line x1="771.1406368772471" y1="167.20692394475248" x2="777.842434514638" y2="164.0415333273401" stroke="#1f77b4" stroke-width="1.4211023622047245"/><line x1="777.842434514638" y1="164.0415333273401" x2="784.5442321520287" y2="160.87783225979766" stroke="#1f77b4" stroke-width="1.4211023622047245"/><line x1="784.5442321520287" y1="160.87783225979766" x2="791.2460297894196" y2="157.7158685542412" stroke="#1f77b4" stroke-width="1.4211023622047245"/><line x1="791.2460297894196" y1="157.7158685542412" x2="797.9478274268105" y2="154.5556900909192" stroke="#1f77b4" stroke-width="1.4211023622047245"/><line x1="797.9478274268105" y1="154.5556900909192" x2="804.6496250642014" y2="151.39734481738404" stroke="#1f77b4" stroke-width="1.4211023622047245"/><line x1="804.6496250642014" y1="151.39734481738404" x2="811.3514227015922" y2="148.24088074803848" stroke="#1f77b4" stroke-width="1.4211023622047245"/><line x1="811.3514227015922" y1="148.24088074803848" x2="818.053220338983" y2="145.08634596198976" stroke="#1f77b4" stroke-width="1.4211023622047245"/><line x1="818.053220338983" y1="145.08634596198976" x2="824.7550179763739" y2="141.93378860214528" stroke="#1f77b4" stroke-width="1.4211023622047245"/><line x1="824.7550179763739" y1="141.93378860214528" x2="831.4568156137649" y2="138.78325687384077" stroke="#1f77b4" stroke-width="1.4211023622047245"/><line x1="831.4568156137649" y1="138.78325687384077" x2="838.1586132511557" y2="135.63479904469062" stroke="#1f77b4" stroke-width="1.4211023622047245"/><line x1="838.1586132511557" y1="135.63479904469062" x2="844.8604108885465" y2="132.48846344181018" stroke="#1f77b4" stroke-width="1.4211023622047245"/><line x1="844.8604108885465" y1="132.48846344181018" x2="851.5622085259374" y2="129.34429845078" stroke="#1f77b4" stroke-width="1.4211023622047245"/><line x1="851.5622085259374" y1="129.34429845078" x2="858.2640061633283" y2="126.20235251585805" stroke="#1f77b4" stroke-width="1.4211023622047245"/><line x1="858.2640061633283" y1="126.20235251585805" x2="864.9658038007192" y2="123.06267413693854" stroke="#1f77b4" stroke-width="1.4211023622047245"/><line x1="864.9658038007192" y1="123.06267413693854" x2="871.6676014381101" y2="119.92531186938291" stroke="#1f77b4" stroke-width="1.4211023622047245"/><line x1="871.6676014381101" y1="119.92531186938291" x2="878.3693990755007" y2="116.79031432296509" stroke="#1f77b4" stroke-width="1.4211023622047245"/><line x1="878.3693990755007" y1="116.79031432296509" x2="885.0711967128916" y2="113.65773015930786" stroke="#1f77b4" stroke-width="1.4211023622047245"/><line x1="885.0711967128916" y1="113.65773015930786" x2="891.7729943502825" y2="110.52760809211023" stroke="#1f77b4" stroke-width="1.4211023622047245"/><line x1="891.7729943502825" y1="110.52760809211023" x2="898.4747919876734" y2="107.39999688452674" stroke="#1f77b4" stroke-width="1.4211023622047245"/><line x1="898.4747919876734" y1="107.39999688452674" x2="905.1765896250641" y2="104.2749453495417" stroke="#1f77b4" stroke-width="1.4211023622047245"/><line x1="905.1765896250641" y1="104.2749453495417" x2="911.878387262455" y2="101.15250234708465" stroke="#1f77b4" stroke-width="1.4211023622047245"/><line x1="911.878387262455" y1="101.15250234708465" x2="918.5801848998459" y2="98.03271678360434" stroke="#1f77b4" stroke-width="1.4211023622047245"/><line x1="918.5801848998459" y1="98.03271678360434" x2="925.2819825372368" y2="94.91563761069376" stroke="#1f77b4" stroke-width="1.4211023622047245"/><line x1="925.2819825372368" y1="94.91563761069376" x2="931.9837801746277" y2="91.80131382380594" stroke="#1f77b4" stroke-width="1.4211023622047245"/><line x1="931.9837801746277" y1="91.80131382380594" x2="938.6855778120186" y2="88.68979446098388" stroke="#1f77b4" stroke-width="1.4211023622047245"/><line x1="938.6855778120186" y1="88.68979446098388" x2="945.3873754494094" y2="85.58112860102221" stroke="#1f77b4" stroke-width="1.4211023622047245"/><line x1="945.3873754494094" y1="85.58112860102221" x2="952.0891730868003" y2="82.47536536340161" stroke="#1f77b4" stroke-width="1.4211023622047245"/><line x1="952.0891730868003" y1="82.47536536340161" x2="958.7909707241911" y2="79.37255390547614" stroke="#1f77b4" stroke-width="1.4211023622047245"/><line x1="958.7909707241911" y1="79.37255390547614" x2="965.492768361582" y2="76.27274342243398" stroke="#1f77b4" stroke-width="1.4211023622047245"/><line x1="965.492768361582" y1="76.27274342243398" x2="972.1945659989728" y2="73.17598314583832" stroke="#1f77b4" stroke-width="1.4211023622047245"/><line x1="972.1945659989728" y1="73.17598314583832" x2="978.8963636363635" y2="70.08232234123082" stroke="#1f77b4" stroke-width="1.4211023622047245"/><rect x="0.0" y="0.0" width="0.0" height="0.0" fill="#ffffff" fill-opacity="1.0" stroke="none"/><line x1="91.79712881546362" y1="436.79999999999995" x2="91.79712881546362" y2="775.3333333333333" stroke="#dddddd" stroke-width="0.6666666666666666"/><line x1="184.99523107439848" y1="436.79999999999995" x2="184.99523107439848" y2="775.3333333333333" stroke="#dddddd" stroke-width="0.6666666666666666"/><line x1="278.19333333333327" y1="436.79999999999995" x2="278.19333333333327" y2="775.3333333333333" stroke="#dddddd" stroke-width="0.6666666666666666"/><line x1="371.3914355922682" y1="436.79999999999995" x2="371.3914355922682" y2="775.3333333333333" stroke="#dddddd" stroke-width="0.6666666666666666"/><line x1="464.58953785120303" y1="436.79999999999995" x2="464.58953785120303" y2="775.3333333333333" stroke="#dddddd" stroke-width="0.6666666666666666"/><line x1="138.39617994493102" y1="436.79999999999995" x2="138.39617994493102" y2="775.3333333333333" stroke="#dddddd" stroke-width="1.3333333333333333"/><line x1="231.59428220386587" y1="436.79999999999995" x2="231.59428220386587" y2="775.3333333333333" stroke="#dddddd" stroke-width="1.3333333333333333"/><line x1="324.7923844628007" y1="436.79999999999995" x2="324.7923844628007" y2="775.3333333333333" stroke="#dddddd" stroke-width="1.3333333333333333"/><line x1="417.99048672173564" y1="436.79999999999995" x2="417.99048672173564" y2="775.3333333333333" stroke="#dddddd" stroke-width="1.3333333333333333"/><line x1="60.72" y1="723.6839879154078" x2="495.66666666666663" y2="723.6839879154078" stroke="#dddddd" stroke-width="0.6666666666666666"/><line x1="60.72" y1="649.3014922640299" x2="495.66666666666663" y2="649.3014922640299" stroke="#dddddd" stroke-width="0.6666666666666666"/><line x1="60.72" y1="574.918996612652" x2="495.66666666666663" y2="574.918996612652" stroke="#dddddd" stroke-width="0.6666666666666666"/><line x1="60.72" y1="500.5365009612742" x2="495.66666666666663" y2="500.5365009612742" stroke="#dddddd" stroke-width="0.6666666666666666"/><line x1="60.72" y1="760.8752357410967" x2="495.66666666666663" y2="760.8752357410967" stroke="#dddddd" stroke-width="1.3333333333333333"/><line x1="60.72" y1="686.4927400897188" x2="495.66666666666663" y2="686.4927400897188" stroke="#dddddd" stroke-width="1.3333333333333333"/><line x1="60.72" y1="612.1102444383409" x2="495.66666666666663" y2="612.1102444383409" stroke="#dddddd" stroke-width="1.3333333333333333"/><line x1="60.72" y1="537.727748786963" x2="495.66666666666663" y2="537.727748786963" stroke="#dddddd" stroke-width="1.3333333333333333"/><line x1="60.72" y1="463.34525313558527" x2="495.66666666666663" y2="463.34525313558527" stroke="#dddddd" stroke-width="1.3333333333333333"/><rect x="60.72" y="436.79999999999995" width="434.9466666666666" height="338.53333333333336" fill="#ffffff" fill-opacity="0.0" stroke="#444444" stroke-width="1.3333333333333333"/><line x1="138.39617994493102" y1="775.3333333333333" x2="138.39617994493102" y2="779.0" stroke="#444444" stroke-width="1.3333333333333333"/><text x="138.39617994493102" y="791.3199999999999" fill="#333333" font-size="11.733333333333334" font-family="sans-serif" text-anchor="middle">150</text><line x1="231.59428220386587" y1="775.3333333333333" x2="231.59428220386587" y2="779.0" stroke="#444444" stroke-width="1.3333333333333333"/><text x="231.59428220386587" y="791.3199999999999" fill="#333333" font-size="11.733333333333334" font-family="sans-serif" text-anchor="middle">160</text><line x1="324.7923844628007" y1="775.3333333333333" x2="324.7923844628007" y2="779.0" stroke="#444444" stroke-width="1.3333333333333333"/><text x="324.7923844628007" y="791.3199999999999" fill="#333333" font-size="11.733333333333334" font-family="sans-serif" text-anchor="middle">170</text><line x1="417.99048672173564" y1="775.3333333333333" x2="417.99048672173564" y2="779.0" stroke="#444444" stroke-width="1.3333333333333333"/><text x="417.99048672173564" y="791.3199999999999" fill="#333333" font-size="11.733333333333334" font-family="sans-serif" text-anchor="middle">180</text><line x1="60.72" y1="760.8752357410967" x2="57.05333333333333" y2="760.8752357410967" stroke="#444444" stroke-width="1.3333333333333333"/><text x="54.11999999999999" y="764.9819024077634" fill="#333333" font-size="11.733333333333334" font-family="sans-serif" text-anchor="end">72</text><line x1="60.72" y1="686.4927400897188" x2="57.05333333333333" y2="686.4927400897188" stroke="#444444" stroke-width="1.3333333333333333"/><text x="54.11999999999999" y="690.5994067563856" fill="#333333" font-size="11.733333333333334" font-family="sans-serif" text-anchor="end">76</text><line x1="60.72" y1="612.1102444383409" x2="57.05333333333333" y2="612.1102444383409" stroke="#444444" stroke-width="1.3333333333333333"/><text x="54.11999999999999" y="616.2169111050076" fill="#333333" font-size="11.733333333333334" font-family="sans-serif" text-anchor="end">80</text><line x1="60.72" y1="537.727748786963" x2="57.05333333333333" y2="537.727748786963" stroke="#444444" stroke-width="1.3333333333333333"/><text x="54.11999999999999" y="541.8344154536297" fill="#333333" font-size="11.733333333333334" font-family="sans-serif" text-anchor="end">84</text><line x1="60.72" y1="463.34525313558527" x2="57.05333333333333" y2="463.34525313558527" stroke="#444444" stroke-width="1.3333333333333333"/><text x="54.11999999999999" y="467.45191980225195" fill="#333333" font-size="11.733333333333334" font-family="sans-serif" text-anchor="end">88</text><text x="278.19333333333327" y="809.0666666666666" fill="#333333" font-size="14.666666666666666" font-family="sans-serif" text-anchor="middle">temp</text><text x="31.973333333333333" y="606.0666666666666" fill="#333333" font-size="14.666666666666666" font-family="sans-serif" text-anchor="middle" transform="rotate(-90.0 31.973333333333333 606.0666666666666)">yield</text><circle cx="138.39617994493102" cy="759.9454545454546" r="3.1181102362204727" fill="#1f77b4" fill-opacity="0.85" stroke="none"><title>(150, 72.05)</title></circle><circle cx="138.39617994493102" cy="620.4782751991211" r="3.1181102362204727" fill="#1f77b4" fill-opacity="0.85" stroke="none"><title>(150, 79.55)</title></circle><circle cx="417.99048672173564" cy="593.5146205254965" r="3.1181102362204727" fill="#1f77b4" fill-opacity="0.85" stroke="none"><title>(180, 81)</title></circle><circle cx="417.99048672173564" cy="452.18787878787873" r="3.1181102362204727" fill="#1f77b4" fill-opacity="0.85" stroke="none"><title>(180, 88.6)</title></circle><circle cx="80.49030303030293" cy="700.6990721002932" r="3.1181102362204727" fill="#1f77b4" fill-opacity="0.85" stroke="none"><title>(143.786796564404, 75.236038969321)</title></circle><circle cx="475.89636363636373" cy="466.8047638422132" r="3.1181102362204727" fill="#1f77b4" fill-opacity="0.85" stroke="none"><title>(186.213203435596, 87.813961030679)</title></circle><circle cx="278.19333333333327" cy="730.3199153306684" r="3.1181102362204727" fill="#1f77b4" fill-opacity="0.85" stroke="none"><title>(165, 73.643145750508)</title></circle><circle cx="278.19333333333327" cy="529.232258980418" r="3.1181102362204727" fill="#1f77b4" fill-opacity="0.85" stroke="none"><title>(165, 84.456854249492)</title></circle><circle cx="278.19333333333327" cy="579.5679025908631" r="3.1181102362204727" fill="#1f77b4" fill-opacity="0.85" stroke="none"><title>(165, 81.75)</title></circle><circle cx="278.19333333333327" cy="587.006152156001" r="3.1181102362204727" fill="#1f77b4" fill-opacity="0.85" stroke="none"><title>(165, 81.35)</title></circle><path d="M 80.49030303030293 712.3298040170148 L 87.19210066769384 707.9320181597739 L 93.89389830508478 703.7369597505583 L 100.59569594247543 699.7093146718845 L 107.29749357986636 695.8097350259328 L 113.99929121725728 691.999457916299 L 120.70108885464822 688.2438304447649 L 127.40288649203887 684.5141170332219 L 134.10468412942978 680.7878423679083 L 140.8064817668207 677.0482569381625 L 147.50827940421163 673.2834416900292 L 154.2100770416023 669.4853700479298 L 160.9118746789932 665.6490761469818 L 167.6136723163841 661.7719752184755 L 174.31546995377508 657.8533320510821 L 181.01726759116573 653.8938544558468 L 187.71906522855662 649.8953847670583 L 194.42086286594753 645.8606646277603 L 201.1226605033385 641.7931522363137 L 207.8244581407294 637.6968750635644 L 214.52625577812006 633.5763042701994 L 221.228053415511 629.436239616919 L 227.9298510529019 625.2816958316489 L 234.63164869029256 621.1177835273287 L 241.33344632768348 616.9495802174529 L 248.03524396507441 612.7819899565379 L 254.73704160246533 608.6195937971099 L 261.43883923985624 604.4664972216856 L 268.14063687724695 600.3261845389629 L 274.84243451463783 596.2013928303444 L 281.5442321520287 592.094018550031 L 288.24602978941965 588.0050677462375 L 294.94782742681036 583.9346561525731 L 301.64962506420125 579.8820591401395 L 308.3514227015922 575.8458052860638 L 315.0532203389831 571.8238025986117 L 321.755017976374 567.8134842795796 L 328.45681561376466 563.811961430968 L 335.1586132511556 559.8161727365366 L 341.86041088854654 555.823024936431 L 348.56220852593725 551.8295219115614 L 355.26400616332813 547.8328838415221 L 361.9658038007191 543.8306608921317 L 368.66760143810995 539.8208483403118 L 375.36939907550095 535.8020121560331 L 382.0711967128916 531.7734362584822 L 388.7729943502825 527.7353052192377 L 395.4747919876734 523.6889393833936 L 402.1765896250641 519.6371032461484 L 408.878387262455 515.5844118285581 L 415.5801848998459 511.53786202352177 L 422.2819825372369 507.5075119702554 L 428.9837801746278 503.50731254660633 L 435.6855778120185 499.5560450354742 L 442.3873754494094 495.67821610990825 L 449.0891730868003 491.9045918880847 L 455.7909707241912 488.2718545516765 L 462.49276836158185 484.82079452578165 L 469.19456599897285 481.59278494832563 L 475.89636363636373 478.6251623080496 L 475.89636363636373 456.88497777300904 L 469.19456599897285 460.93026638125804 L 462.49276836158185 464.82898109713267 L 455.7909707241912 468.61209516597876 L 449.0891730868003 472.31471990121395 L 442.3873754494094 475.9714911554 L 435.6855778120185 479.61304942601384 L 428.9837801746278 483.26423748577815 L 422.2819825372369 486.9437622524006 L 415.5801848998459 490.6647338895052 L 408.878387262455 494.43556563774774 L 402.1765896250641 498.260916107889 L 395.4747919876734 502.1425251922683 L 388.7729943502825 506.07989763282677 L 382.0711967128916 510.07083835102964 L 375.36939907550095 514.1118625710136 L 368.66760143810995 518.1985077243393 L 361.9658038007191 522.3255718697404 L 355.26400616332813 526.4872994625487 L 348.56220852593725 530.677531445322 L 341.86041088854654 534.8898334366083 L 335.1586132511556 539.1176132182675 L 328.45681561376466 543.3542365599603 L 321.755017976374 547.5931482785135 L 315.0532203389831 551.8280029808767 L 308.3514227015922 556.0528069739727 L 301.64962506420125 560.2620691393743 L 294.94782742681036 564.4509546048849 L 288.24602978941965 568.6154312385298 L 281.5442321520287 572.7523963739079 L 274.84243451463783 576.8597706542214 L 268.14063687724695 580.9365480297595 L 261.43883923985624 584.9827956722612 L 254.73704160246533 588.9996037962215 L 248.03524396507441 592.9889916451795 L 241.33344632768348 596.9537805980261 L 234.63164869029256 600.8974475261431 L 227.9298510529019 604.8239709617042 L 221.228053415511 608.7376800982995 L 214.52625577812006 612.6431127701458 L 207.8244581407294 616.5448845972107 L 201.1226605033385 620.4475678579064 L 194.42086286594753 624.3555756055936 L 187.71906522855662 628.2730441507506 L 181.01726759116573 632.2037048718299 L 174.31546995377508 636.1507341440752 L 167.6136723163841 640.1165676319531 L 160.9118746789932 644.1026619558563 L 154.2100770416023 648.1091829108002 L 147.50827940421163 652.1345954994472 L 140.8064817668207 656.1751288039143 L 134.10468412942978 660.2240926508764 L 127.40288649203887 664.2710419733487 L 120.70108885464822 668.3008348346989 L 113.99929121725728 672.2927329626486 L 107.29749357986636 676.2198630380753 L 100.59569594247543 680.0495552854491 L 93.89389830508478 683.7451463225135 L 87.19210066769384 687.2694995936417 L 80.49030303030293 690.5896194819741 Z" fill="#1f77b4" fill-opacity="0.2" stroke="none"/><line x1="80.49030303030293" y1="701.4597117494945" x2="87.19210066769384" y2="697.6007588767079" stroke="#1f77b4" stroke-width="1.4211023622047245"/><line x1="87.19210066769384" y1="697.6007588767079" x2="93.89389830508478" y2="693.741053036536" stroke="#1f77b4" stroke-width="1.4211023622047245"/><line x1="93.89389830508478" y1="693.741053036536" x2="100.59569594247543" y2="689.8794349786668" stroke="#1f77b4" stroke-width="1.4211023622047245"/><line x1="100.59569594247543" y1="689.8794349786668" x2="107.29749357986636" y2="686.014799032004" stroke="#1f77b4" stroke-width="1.4211023622047245"/><line x1="107.29749357986636" y1="686.014799032004" x2="113.99929121725728" y2="682.1460954394738" stroke="#1f77b4" stroke-width="1.4211023622047245"/><line x1="113.99929121725728" y1="682.1460954394738" x2="120.70108885464822" y2="678.2723326397319" stroke="#1f77b4" stroke-width="1.4211023622047245"/><line x1="120.70108885464822" y1="678.2723326397319" x2="127.40288649203887" y2="674.3925795032853" stroke="#1f77b4" stroke-width="1.4211023622047245"/><line x1="127.40288649203887" y1="674.3925795032853" x2="134.10468412942978" y2="670.5059675093923" stroke="#1f77b4" stroke-width="1.4211023622047245"/><line x1="134.10468412942978" y1="670.5059675093923" x2="140.8064817668207" y2="666.6116928710384" stroke="#1f77b4" stroke-width="1.4211023622047245"/><line x1="140.8064817668207" y1="666.6116928710384" x2="147.50827940421163" y2="662.7090185947382" stroke="#1f77b4" stroke-width="1.4211023622047245"/><line x1="147.50827940421163" y1="662.7090185947382" x2="154.2100770416023" y2="658.797276479365" stroke="#1f77b4" stroke-width="1.4211023622047245"/><line x1="154.2100770416023" y1="658.797276479365" x2="160.9118746789932" y2="654.8758690514189" stroke="#1f77b4" stroke-width="1.4211023622047245"/><line x1="160.9118746789932" y1="654.8758690514189" x2="167.6136723163841" y2="650.9442714252143" stroke="#1f77b4" stroke-width="1.4211023622047245"/><line x1="167.6136723163841" y1="650.9442714252143" x2="174.31546995377508" y2="647.0020330975785" stroke="#1f77b4" stroke-width="1.4211023622047245"/><line x1="174.31546995377508" y1="647.0020330975785" x2="181.01726759116573" y2="643.0487796638384" stroke="#1f77b4" stroke-width="1.4211023622047245"/><line x1="181.01726759116573" y1="643.0487796638384" x2="187.71906522855662" y2="639.0842144589044" stroke="#1f77b4" stroke-width="1.4211023622047245"/><line x1="187.71906522855662" y1="639.0842144589044" x2="194.42086286594753" y2="635.1081201166769" stroke="#1f77b4" stroke-width="1.4211023622047245"/><line x1="194.42086286594753" y1="635.1081201166769" x2="201.1226605033385" y2="631.12036004711" stroke="#1f77b4" stroke-width="1.4211023622047245"/><line x1="201.1226605033385" y1="631.12036004711" x2="207.8244581407294" y2="627.1208798303876" stroke="#1f77b4" stroke-width="1.4211023622047245"/><line x1="207.8244581407294" y1="627.1208798303876" x2="214.52625577812006" y2="623.1097085201725" stroke="#1f77b4" stroke-width="1.4211023622047245"/><line x1="214.52625577812006" y1="623.1097085201725" x2="221.228053415511" y2="619.0869598576093" stroke="#1f77b4" stroke-width="1.4211023622047245"/><line x1="221.228053415511" y1="619.0869598576093" x2="227.9298510529019" y2="615.0528333966765" stroke="#1f77b4" stroke-width="1.4211023622047245"/><line x1="227.9298510529019" y1="615.0528333966765" x2="234.63164869029256" y2="611.0076155267359" stroke="#1f77b4" stroke-width="1.4211023622047245"/><line x1="234.63164869029256" y1="611.0076155267359" x2="241.33344632768348" y2="606.9516804077396" stroke="#1f77b4" stroke-width="1.4211023622047245"/><line x1="241.33344632768348" y1="606.9516804077396" x2="248.03524396507441" y2="602.8854908008586" stroke="#1f77b4" stroke-width="1.4211023622047245"/><line x1="248.03524396507441" y1="602.8854908008586" x2="254.73704160246533" y2="598.8095987966657" stroke="#1f77b4" stroke-width="1.4211023622047245"/><line x1="254.73704160246533" y1="598.8095987966657" x2="261.43883923985624" y2="594.7246464469733" stroke="#1f77b4" stroke-width="1.4211023622047245"/><line x1="261.43883923985624" y1="594.7246464469733" x2="268.14063687724695" y2="590.6313662843611" stroke="#1f77b4" stroke-width="1.4211023622047245"/><line x1="268.14063687724695" y1="590.6313662843611" x2="274.84243451463783" y2="586.5305817422828" stroke="#1f77b4" stroke-width="1.4211023622047245"/><line x1="274.84243451463783" y1="586.5305817422828" x2="281.5442321520287" y2="582.4232074619695" stroke="#1f77b4" stroke-width="1.4211023622047245"/><line x1="281.5442321520287" y1="582.4232074619695" x2="288.24602978941965" y2="578.3102494923837" stroke="#1f77b4" stroke-width="1.4211023622047245"/><line x1="288.24602978941965" y1="578.3102494923837" x2="294.94782742681036" y2="574.1928053787291" stroke="#1f77b4" stroke-width="1.4211023622047245"/><line x1="294.94782742681036" y1="574.1928053787291" x2="301.64962506420125" y2="570.0720641397569" stroke="#1f77b4" stroke-width="1.4211023622047245"/><line x1="301.64962506420125" y1="570.0720641397569" x2="308.3514227015922" y2="565.9493061300183" stroke="#1f77b4" stroke-width="1.4211023622047245"/><line x1="308.3514227015922" y1="565.9493061300183" x2="315.0532203389831" y2="561.8259027897442" stroke="#1f77b4" stroke-width="1.4211023622047245"/><line x1="315.0532203389831" y1="561.8259027897442" x2="321.755017976374" y2="557.7033162790465" stroke="#1f77b4" stroke-width="1.4211023622047245"/><line x1="321.755017976374" y1="557.7033162790465" x2="328.45681561376466" y2="553.5830989954643" stroke="#1f77b4" stroke-width="1.4211023622047245"/><line x1="328.45681561376466" y1="553.5830989954643" x2="335.1586132511556" y2="549.466892977402" stroke="#1f77b4" stroke-width="1.4211023622047245"/><line x1="335.1586132511556" y1="549.466892977402" x2="341.86041088854654" y2="545.3564291865197" stroke="#1f77b4" stroke-width="1.4211023622047245"/><line x1="341.86041088854654" y1="545.3564291865197" x2="348.56220852593725" y2="541.2535266784416" stroke="#1f77b4" stroke-width="1.4211023622047245"/><line x1="348.56220852593725" y1="541.2535266784416" x2="355.26400616332813" y2="537.1600916520355" stroke="#1f77b4" stroke-width="1.4211023622047245"/><line x1="355.26400616332813" y1="537.1600916520355" x2="361.9658038007191" y2="533.0781163809361" stroke="#1f77b4" stroke-width="1.4211023622047245"/><line x1="361.9658038007191" y1="533.0781163809361" x2="368.66760143810995" y2="529.0096780323256" stroke="#1f77b4" stroke-width="1.4211023622047245"/><line x1="368.66760143810995" y1="529.0096780323256" x2="375.36939907550095" y2="524.9569373635234" stroke="#1f77b4" stroke-width="1.4211023622047245"/><line x1="375.36939907550095" y1="524.9569373635234" x2="382.0711967128916" y2="520.9221373047559" stroke="#1f77b4" stroke-width="1.4211023622047245"/><line x1="382.0711967128916" y1="520.9221373047559" x2="388.7729943502825" y2="516.9076014260322" stroke="#1f77b4" stroke-width="1.4211023622047245"/><line x1="388.7729943502825" y1="516.9076014260322" x2="395.4747919876734" y2="512.9157322878309" stroke="#1f77b4" stroke-width="1.4211023622047245"/><line x1="395.4747919876734" y1="512.9157322878309" x2="402.1765896250641" y2="508.9490096770187" stroke="#1f77b4" stroke-width="1.4211023622047245"/><line x1="402.1765896250641" y1="508.9490096770187" x2="408.878387262455" y2="505.00998873315285" stroke="#1f77b4" stroke-width="1.4211023622047245"/><line x1="408.878387262455" y1="505.00998873315285" x2="415.5801848998459" y2="501.10129795651346" stroke="#1f77b4" stroke-width="1.4211023622047245"/><line x1="415.5801848998459" y1="501.10129795651346" x2="422.2819825372369" y2="497.22563711132796" stroke="#1f77b4" stroke-width="1.4211023622047245"/><line x1="422.2819825372369" y1="497.22563711132796" x2="428.9837801746278" y2="493.38577501619227" stroke="#1f77b4" stroke-width="1.4211023622047245"/><line x1="428.9837801746278" y1="493.38577501619227" x2="435.6855778120185" y2="489.584547230744" stroke="#1f77b4" stroke-width="1.4211023622047245"/><line x1="435.6855778120185" y1="489.584547230744" x2="442.3873754494094" y2="485.82485363265414" stroke="#1f77b4" stroke-width="1.4211023622047245"/><line x1="442.3873754494094" y1="485.82485363265414" x2="449.0891730868003" y2="482.10965589464934" stroke="#1f77b4" stroke-width="1.4211023622047245"/><line x1="449.0891730868003" y1="482.10965589464934" x2="455.7909707241912" y2="478.4419748588276" stroke="#1f77b4" stroke-width="1.4211023622047245"/><line x1="455.7909707241912" y1="478.4419748588276" x2="462.49276836158185" y2="474.82488781145713" stroke="#1f77b4" stroke-width="1.4211023622047245"/><line x1="462.49276836158185" y1="474.82488781145713" x2="469.19456599897285" y2="471.26152566479186" stroke="#1f77b4" stroke-width="1.4211023622047245"/><line x1="469.19456599897285" y1="471.26152566479186" x2="475.89636363636373" y2="467.75507004052935" stroke="#1f77b4" stroke-width="1.4211023622047245"/><rect x="0.0" y="0.0" width="0.0" height="0.0" fill="#ffffff" fill-opacity="1.0" stroke="none"/><line x1="641.3961799449311" y1="436.79999999999995" x2="641.3961799449311" y2="775.3333333333333" stroke="#dddddd" stroke-width="0.6666666666666666"/><line x1="753.2339026556529" y1="436.79999999999995" x2="753.2339026556529" y2="775.3333333333333" stroke="#dddddd" stroke-width="0.6666666666666666"/><line x1="865.0716253663746" y1="436.79999999999995" x2="865.0716253663746" y2="775.3333333333333" stroke="#dddddd" stroke-width="0.6666666666666666"/><line x1="976.9093480770964" y1="436.79999999999995" x2="976.9093480770964" y2="775.3333333333333" stroke="#dddddd" stroke-width="0.6666666666666666"/><line x1="585.4773185895702" y1="436.79999999999995" x2="585.4773185895702" y2="775.3333333333333" stroke="#dddddd" stroke-width="1.3333333333333333"/><line x1="697.315041300292" y1="436.79999999999995" x2="697.315041300292" y2="775.3333333333333" stroke="#dddddd" stroke-width="1.3333333333333333"/><line x1="809.1527640110137" y1="436.79999999999995" x2="809.1527640110137" y2="775.3333333333333" stroke="#dddddd" stroke-width="1.3333333333333333"/><line x1="920.9904867217356" y1="436.79999999999995" x2="920.9904867217356" y2="775.3333333333333" stroke="#dddddd" stroke-width="1.3333333333333333"/><line x1="563.72" y1="723.6839879154078" x2="998.6666666666666" y2="723.6839879154078" stroke="#dddddd" stroke-width="0.6666666666666666"/><line x1="563.72" y1="649.3014922640299" x2="998.6666666666666" y2="649.3014922640299" stroke="#dddddd" stroke-width="0.6666666666666666"/><line x1="563.72" y1="574.918996612652" x2="998.6666666666666" y2="574.918996612652" stroke="#dddddd" stroke-width="0.6666666666666666"/><line x1="563.72" y1="500.5365009612742" x2="998.6666666666666" y2="500.5365009612742" stroke="#dddddd" stroke-width="0.6666666666666666"/><line x1="563.72" y1="760.8752357410967" x2="998.6666666666666" y2="760.8752357410967" stroke="#dddddd" stroke-width="1.3333333333333333"/><line x1="563.72" y1="686.4927400897188" x2="998.6666666666666" y2="686.4927400897188" stroke="#dddddd" stroke-width="1.3333333333333333"/><line x1="563.72" y1="612.1102444383409" x2="998.6666666666666" y2="612.1102444383409" stroke="#dddddd" stroke-width="1.3333333333333333"/><line x1="563.72" y1="537.727748786963" x2="998.6666666666666" y2="537.727748786963" stroke="#dddddd" stroke-width="1.3333333333333333"/><line x1="563.72" y1="463.34525313558527" x2="998.6666666666666" y2="463.34525313558527" stroke="#dddddd" stroke-width="1.3333333333333333"/><rect x="563.72" y="436.79999999999995" width="434.9466666666666" height="338.53333333333336" fill="#ffffff" fill-opacity="0.0" stroke="#444444" stroke-width="1.3333333333333333"/><line x1="585.4773185895702" y1="775.3333333333333" x2="585.4773185895702" y2="779.0" stroke="#444444" stroke-width="1.3333333333333333"/><text x="585.4773185895702" y="791.3199999999999" fill="#333333" font-size="11.733333333333334" font-family="sans-serif" text-anchor="middle">8</text><line x1="697.315041300292" y1="775.3333333333333" x2="697.315041300292" y2="779.0" stroke="#444444" stroke-width="1.3333333333333333"/><text x="697.315041300292" y="791.3199999999999" fill="#333333" font-size="11.733333333333334" font-family="sans-serif" text-anchor="middle">12</text><line x1="809.1527640110137" y1="775.3333333333333" x2="809.1527640110137" y2="779.0" stroke="#444444" stroke-width="1.3333333333333333"/><text x="809.1527640110137" y="791.3199999999999" fill="#333333" font-size="11.733333333333334" font-family="sans-serif" text-anchor="middle">16</text><line x1="920.9904867217356" y1="775.3333333333333" x2="920.9904867217356" y2="779.0" stroke="#444444" stroke-width="1.3333333333333333"/><text x="920.9904867217356" y="791.3199999999999" fill="#333333" font-size="11.733333333333334" font-family="sans-serif" text-anchor="middle">20</text><line x1="563.72" y1="760.8752357410967" x2="560.0533333333333" y2="760.8752357410967" stroke="#444444" stroke-width="1.3333333333333333"/><text x="557.12" y="764.9819024077634" fill="#333333" font-size="11.733333333333334" font-family="sans-serif" text-anchor="end">72</text><line x1="563.72" y1="686.4927400897188" x2="560.0533333333333" y2="686.4927400897188" stroke="#444444" stroke-width="1.3333333333333333"/><text x="557.12" y="690.5994067563856" fill="#333333" font-size="11.733333333333334" font-family="sans-serif" text-anchor="end">76</text><line x1="563.72" y1="612.1102444383409" x2="560.0533333333333" y2="612.1102444383409" stroke="#444444" stroke-width="1.3333333333333333"/><text x="557.12" y="616.2169111050076" fill="#333333" font-size="11.733333333333334" font-family="sans-serif" text-anchor="end">80</text><line x1="563.72" y1="537.727748786963" x2="560.0533333333333" y2="537.727748786963" stroke="#444444" stroke-width="1.3333333333333333"/><text x="557.12" y="541.8344154536297" fill="#333333" font-size="11.733333333333334" font-family="sans-serif" text-anchor="end">84</text><line x1="563.72" y1="463.34525313558527" x2="560.0533333333333" y2="463.34525313558527" stroke="#444444" stroke-width="1.3333333333333333"/><text x="557.12" y="467.45191980225195" fill="#333333" font-size="11.733333333333334" font-family="sans-serif" text-anchor="end">88</text><text x="781.1933333333333" y="809.0666666666666" fill="#333333" font-size="14.666666666666666" font-family="sans-serif" text-anchor="middle">time</text><text x="534.9733333333334" y="606.0666666666666" fill="#333333" font-size="14.666666666666666" font-family="sans-serif" text-anchor="middle" transform="rotate(-90.0 534.9733333333334 606.0666666666666)">yield</text><circle cx="641.3961799449311" cy="759.9454545454546" r="3.1181102362204727" fill="#1f77b4" fill-opacity="0.85" stroke="none"><title>(10, 72.05)</title></circle><circle cx="920.9904867217356" cy="620.4782751991211" r="3.1181102362204727" fill="#1f77b4" fill-opacity="0.85" stroke="none"><title>(20, 79.55)</title></circle><circle cx="641.3961799449311" cy="593.5146205254965" r="3.1181102362204727" fill="#1f77b4" fill-opacity="0.85" stroke="none"><title>(10, 81)</title></circle><circle cx="920.9904867217356" cy="452.18787878787873" r="3.1181102362204727" fill="#1f77b4" fill-opacity="0.85" stroke="none"><title>(20, 88.6)</title></circle><circle cx="781.1933333333333" cy="700.6990721002932" r="3.1181102362204727" fill="#1f77b4" fill-opacity="0.85" stroke="none"><title>(15, 75.236038969321)</title></circle><circle cx="781.1933333333333" cy="466.8047638422132" r="3.1181102362204727" fill="#1f77b4" fill-opacity="0.85" stroke="none"><title>(15, 87.813961030679)</title></circle><circle cx="583.490303030303" cy="730.3199153306684" r="3.1181102362204727" fill="#1f77b4" fill-opacity="0.85" stroke="none"><title>(7.928932188135, 73.643145750508)</title></circle><circle cx="978.8963636363635" cy="529.232258980418" r="3.1181102362204727" fill="#1f77b4" fill-opacity="0.85" stroke="none"><title>(22.071067811865, 84.456854249492)</title></circle><circle cx="781.1933333333333" cy="579.5679025908631" r="3.1181102362204727" fill="#1f77b4" fill-opacity="0.85" stroke="none"><title>(15, 81.75)</title></circle><circle cx="781.1933333333333" cy="587.006152156001" r="3.1181102362204727" fill="#1f77b4" fill-opacity="0.85" stroke="none"><title>(15, 81.35)</title></circle><path d="M 583.490303030303 740.7803540326536 L 590.1921006676939 734.2313950616799 L 596.8938983050848 727.8020786601998 L 603.5956959424756 721.4917029155952 L 610.2974935798665 715.2994324088286 L 616.9992912172572 709.2243136958165 L 623.7010888546481 703.2652944962166 L 630.402886492039 697.4212455650211 L 637.1046841294299 691.6909840675072 L 643.8064817668208 686.0732972670619 L 650.5082794042116 680.566965415137 L 657.2100770416025 675.17078290617 L 663.9118746789934 669.8835770343665 L 670.6136723163842 664.70422389111 L 677.315469953775 659.6316612286171 L 684.0172675911659 654.6648983144537 L 690.7190652285568 649.8030229604517 L 697.4208628659476 645.0452060345402 L 704.1226605033385 640.3907038002653 L 710.8244581407293 635.8388585201806 L 717.5262557781202 631.3890976673099 L 724.2280534155111 627.0409321358217 L 730.929851052902 622.7939537742345 L 737.6316486902926 618.6478325173073 L 744.3334463276835 614.602313355035 L 751.0352439650744 610.6572133388096 L 757.7370416024653 606.8124187731083 L 764.4388392398562 603.0678827127429 L 771.1406368772471 599.4236228638327 L 777.842434514638 595.8797199503683 L 784.5442321520287 592.4363165924458 L 791.2460297894196 589.0936167269098 L 797.9478274268105 585.8518855936896 L 804.6496250642014 582.7114502676528 L 811.3514227015922 579.6727007396235 L 818.053220338983 576.7360915105714 L 824.7550179763739 573.9021436523262 L 831.4568156137649 571.1714472686945 L 838.1586132511557 568.5446642586369 L 844.8604108885465 566.0225312809816 L 851.5622085259374 563.6058627367706 L 858.2640061633283 561.2955535986837 L 864.9658038007192 559.0925818410333 L 871.6676014381101 556.9980101893436 L 878.3693990755007 555.0129868568108 L 885.0711967128916 553.1387449223471 L 891.7729943502825 551.3765999343211 L 898.4747919876734 549.7279453658863 L 905.1765896250641 548.1942455465955 L 911.878387262455 546.7770257668867 L 918.5801848998459 545.4778593761891 L 925.2819825372368 544.2983518403229 L 931.9837801746277 543.2401219586179 L 938.6855778120186 542.3047806578663 L 945.3873754494094 541.4939080684685 L 952.0891730868003 540.8090297969395 L 958.7909707241911 540.2515935133565 L 965.492768361582 539.8229470396094 L 972.1945659989728 539.5243191232337 L 978.8963636363635 539.3568039166022 L 978.8963636363635 517.7591202644835 L 972.1945659989728 518.3780118872528 L 965.492768361582 519.0762776925924 L 958.7909707241911 519.8551912657267 L 952.0891730868003 520.7161399875661 L 945.3873754494094 521.6606094700417 L 938.6855778120186 522.6901642945977 L 931.9837801746277 523.8064260743589 L 925.2819825372368 525.0110500056685 L 918.5801848998459 526.3057011198607 L 911.878387262455 527.6920313331966 L 905.1765896250641 529.1716582225029 L 898.4747919876734 530.7461462225401 L 891.7729943502825 532.4169906677942 L 885.0711967128916 534.1856048836607 L 878.3693990755007 536.0533102762818 L 871.6676014381101 538.0213292629243 L 864.9658038007192 540.0907807193659 L 858.2640061633283 542.2626775894328 L 851.5622085259374 544.5379262599254 L 844.8604108885465 546.9173273054345 L 838.1586132511557 549.4015772473819 L 831.4568156137649 551.9912709912822 L 824.7550179763739 554.6869046745148 L 818.053220338983 557.4888786673597 L 811.3514227015922 560.3975005511045 L 804.6496250642014 563.4129879090906 L 797.9478274268105 566.5354708123652 L 791.2460297894196 569.7649939097365 L 784.5442321520287 573.101518053209 L 777.842434514638 576.5449214126314 L 771.1406368772471 580.0950000480348 L 764.4388392398562 583.7514679316685 L 757.7370416024653 587.5139564145461 L 751.0352439650744 591.3820131504158 L 744.3334463276835 595.355100511698 L 737.6316486902926 599.4325935396216 L 730.929851052902 603.6137774979559 L 724.2280534155111 607.8978451244403 L 717.5262557781202 612.2838936921421 L 710.8244581407293 616.7709220435888 L 704.1226605033385 621.3578277892368 L 697.4208628659476 626.0434049102028 L 690.7190652285568 630.8263420349233 L 684.0172675911659 635.7052217336692 L 677.315469953775 640.6785211892934 L 670.6136723163842 645.7446146245832 L 663.9118746789934 650.901777889238 L 657.2100770416025 656.1481955805532 L 650.5082794042116 661.4819709799274 L 643.8064817668208 666.9011390114897 L 637.1046841294299 672.4036822319761 L 630.402886492039 677.9875496792702 L 623.7010888546481 683.6506781328246 L 616.9992912172572 689.3910150975113 L 610.2974935798665 695.206542599816 L 603.5956959424756 701.0953006677285 L 596.8938983050848 707.0554093110866 L 590.1921006676939 713.085087826156 L 583.490303030303 719.182670380535 Z" fill="#1f77b4" fill-opacity="0.2" stroke="none"/><line x1="583.490303030303" y1="729.9815122065943" x2="590.1921006676939" y2="723.6582414439179" stroke="#1f77b4" stroke-width="1.4211023622047245"/><line x1="590.1921006676939" y1="723.6582414439179" x2="596.8938983050848" y2="717.4287439856432" stroke="#1f77b4" stroke-width="1.4211023622047245"/><line x1="596.8938983050848" y1="717.4287439856432" x2="603.5956959424756" y2="711.2935017916618" stroke="#1f77b4" stroke-width="1.4211023622047245"/><line x1="603.5956959424756" y1="711.2935017916618" x2="610.2974935798665" y2="705.2529875043222" stroke="#1f77b4" stroke-width="1.4211023622047245"/><line x1="610.2974935798665" y1="705.2529875043222" x2="616.9992912172572" y2="699.3076643966639" stroke="#1f77b4" stroke-width="1.4211023622047245"/><line x1="616.9992912172572" y1="699.3076643966639" x2="623.7010888546481" y2="693.4579863145206" stroke="#1f77b4" stroke-width="1.4211023622047245"/><line x1="623.7010888546481" y1="693.4579863145206" x2="630.402886492039" y2="687.7043976221455" stroke="#1f77b4" stroke-width="1.4211023622047245"/><line x1="630.402886492039" y1="687.7043976221455" x2="637.1046841294299" y2="682.0473331497416" stroke="#1f77b4" stroke-width="1.4211023622047245"/><line x1="637.1046841294299" y1="682.0473331497416" x2="643.8064817668208" y2="676.4872181392758" stroke="#1f77b4" stroke-width="1.4211023622047245"/><line x1="643.8064817668208" y1="676.4872181392758" x2="650.5082794042116" y2="671.0244681975322" stroke="#1f77b4" stroke-width="1.4211023622047245"/><line x1="650.5082794042116" y1="671.0244681975322" x2="657.2100770416025" y2="665.6594892433616" stroke="#1f77b4" stroke-width="1.4211023622047245"/><line x1="657.2100770416025" y1="665.6594892433616" x2="663.9118746789934" y2="660.3926774618022" stroke="#1f77b4" stroke-width="1.4211023622047245"/><line x1="663.9118746789934" y1="660.3926774618022" x2="670.6136723163842" y2="655.2244192578466" stroke="#1f77b4" stroke-width="1.4211023622047245"/><line x1="670.6136723163842" y1="655.2244192578466" x2="677.315469953775" y2="650.1550912089552" stroke="#1f77b4" stroke-width="1.4211023622047245"/><line x1="677.315469953775" y1="650.1550912089552" x2="684.0172675911659" y2="645.1850600240614" stroke="#1f77b4" stroke-width="1.4211023622047245"/><line x1="684.0172675911659" y1="645.1850600240614" x2="690.7190652285568" y2="640.3146824976875" stroke="#1f77b4" stroke-width="1.4211023622047245"/><line x1="690.7190652285568" y1="640.3146824976875" x2="697.4208628659476" y2="635.5443054723714" stroke="#1f77b4" stroke-width="1.4211023622047245"/><line x1="697.4208628659476" y1="635.5443054723714" x2="704.1226605033385" y2="630.8742657947511" stroke="#1f77b4" stroke-width="1.4211023622047245"/><line x1="704.1226605033385" y1="630.8742657947511" x2="710.8244581407293" y2="626.3048902818847" stroke="#1f77b4" stroke-width="1.4211023622047245"/><line x1="710.8244581407293" y1="626.3048902818847" x2="717.5262557781202" y2="621.836495679726" stroke="#1f77b4" stroke-width="1.4211023622047245"/><line x1="717.5262557781202" y1="621.836495679726" x2="724.2280534155111" y2="617.469388630131" stroke="#1f77b4" stroke-width="1.4211023622047245"/><line x1="724.2280534155111" y1="617.469388630131" x2="730.929851052902" y2="613.2038656360952" stroke="#1f77b4" stroke-width="1.4211023622047245"/><line x1="730.929851052902" y1="613.2038656360952" x2="737.6316486902926" y2="609.0402130284644" stroke="#1f77b4" stroke-width="1.4211023622047245"/><line x1="737.6316486902926" y1="609.0402130284644" x2="744.3334463276835" y2="604.9787069333665" stroke="#1f77b4" stroke-width="1.4211023622047245"/><line x1="744.3334463276835" y1="604.9787069333665" x2="751.0352439650744" y2="601.0196132446127" stroke="#1f77b4" stroke-width="1.4211023622047245"/><line x1="751.0352439650744" y1="601.0196132446127" x2="757.7370416024653" y2="597.1631875938273" stroke="#1f77b4" stroke-width="1.4211023622047245"/><line x1="757.7370416024653" y1="597.1631875938273" x2="764.4388392398562" y2="593.4096753222057" stroke="#1f77b4" stroke-width="1.4211023622047245"/><line x1="764.4388392398562" y1="593.4096753222057" x2="771.1406368772471" y2="589.7593114559338" stroke="#1f77b4" stroke-width="1.4211023622047245"/><line x1="771.1406368772471" y1="589.7593114559338" x2="777.842434514638" y2="586.2123206814999" stroke="#1f77b4" stroke-width="1.4211023622047245"/><line x1="777.842434514638" y1="586.2123206814999" x2="784.5442321520287" y2="582.7689173228274" stroke="#1f77b4" stroke-width="1.4211023622047245"/><line x1="784.5442321520287" y1="582.7689173228274" x2="791.2460297894196" y2="579.429305318323" stroke="#1f77b4" stroke-width="1.4211023622047245"/><line x1="791.2460297894196" y1="579.429305318323" x2="797.9478274268105" y2="576.1936782030275" stroke="#1f77b4" stroke-width="1.4211023622047245"/><line x1="797.9478274268105" y1="576.1936782030275" x2="804.6496250642014" y2="573.0622190883716" stroke="#1f77b4" stroke-width="1.4211023622047245"/><line x1="804.6496250642014" y1="573.0622190883716" x2="811.3514227015922" y2="570.035100645364" stroke="#1f77b4" stroke-width="1.4211023622047245"/><line x1="811.3514227015922" y1="570.035100645364" x2="818.053220338983" y2="567.1124850889655" stroke="#1f77b4" stroke-width="1.4211023622047245"/><line x1="818.053220338983" y1="567.1124850889655" x2="824.7550179763739" y2="564.2945241634205" stroke="#1f77b4" stroke-width="1.4211023622047245"/><line x1="824.7550179763739" y1="564.2945241634205" x2="831.4568156137649" y2="561.5813591299884" stroke="#1f77b4" stroke-width="1.4211023622047245"/><line x1="831.4568156137649" y1="561.5813591299884" x2="838.1586132511557" y2="558.9731207530094" stroke="#1f77b4" stroke-width="1.4211023622047245"/><line x1="838.1586132511557" y1="558.9731207530094" x2="844.8604108885465" y2="556.469929293208" stroke="#1f77b4" stroke-width="1.4211023622047245"/><line x1="844.8604108885465" y1="556.469929293208" x2="851.5622085259374" y2="554.071894498348" stroke="#1f77b4" stroke-width="1.4211023622047245"/><line x1="851.5622085259374" y1="554.071894498348" x2="858.2640061633283" y2="551.7791155940582" stroke="#1f77b4" stroke-width="1.4211023622047245"/><line x1="858.2640061633283" y1="551.7791155940582" x2="864.9658038007192" y2="549.5916812801995" stroke="#1f77b4" stroke-width="1.4211023622047245"/><line x1="864.9658038007192" y1="549.5916812801995" x2="871.6676014381101" y2="547.509669726134" stroke="#1f77b4" stroke-width="1.4211023622047245"/><line x1="871.6676014381101" y1="547.509669726134" x2="878.3693990755007" y2="545.5331485665463" stroke="#1f77b4" stroke-width="1.4211023622047245"/><line x1="878.3693990755007" y1="545.5331485665463" x2="885.0711967128916" y2="543.6621749030039" stroke="#1f77b4" stroke-width="1.4211023622047245"/><line x1="885.0711967128916" y1="543.6621749030039" x2="891.7729943502825" y2="541.8967953010576" stroke="#1f77b4" stroke-width="1.4211023622047245"/><line x1="891.7729943502825" y1="541.8967953010576" x2="898.4747919876734" y2="540.2370457942131" stroke="#1f77b4" stroke-width="1.4211023622047245"/><line x1="898.4747919876734" y1="540.2370457942131" x2="905.1765896250641" y2="538.6829518845492" stroke="#1f77b4" stroke-width="1.4211023622047245"/><line x1="905.1765896250641" y1="538.6829518845492" x2="911.878387262455" y2="537.2345285500417" stroke="#1f77b4" stroke-width="1.4211023622047245"/><line x1="911.878387262455" y1="537.2345285500417" x2="918.5801848998459" y2="535.8917802480249" stroke="#1f77b4" stroke-width="1.4211023622047245"/><line x1="918.5801848998459" y1="535.8917802480249" x2="925.2819825372368" y2="534.6547009229957" stroke="#1f77b4" stroke-width="1.4211023622047245"/><line x1="925.2819825372368" y1="534.6547009229957" x2="931.9837801746277" y2="533.5232740164884" stroke="#1f77b4" stroke-width="1.4211023622047245"/><line x1="931.9837801746277" y1="533.5232740164884" x2="938.6855778120186" y2="532.497472476232" stroke="#1f77b4" stroke-width="1.4211023622047245"/><line x1="938.6855778120186" y1="532.497472476232" x2="945.3873754494094" y2="531.5772587692551" stroke="#1f77b4" stroke-width="1.4211023622047245"/><line x1="945.3873754494094" y1="531.5772587692551" x2="952.0891730868003" y2="530.7625848922528" stroke="#1f77b4" stroke-width="1.4211023622047245"/><line x1="952.0891730868003" y1="530.7625848922528" x2="958.7909707241911" y2="530.0533923895416" stroke="#1f77b4" stroke-width="1.4211023622047245"/><line x1="958.7909707241911" y1="530.0533923895416" x2="965.492768361582" y2="529.4496123661008" stroke="#1f77b4" stroke-width="1.4211023622047245"/><line x1="965.492768361582" y1="529.4496123661008" x2="972.1945659989728" y2="528.9511655052434" stroke="#1f77b4" stroke-width="1.4211023622047245"/><line x1="972.1945659989728" y1="528.9511655052434" x2="978.8963636363635" y2="528.5579620905428" stroke="#1f77b4" stroke-width="1.4211023622047245"/></svg>