<svg xmlns="http://www.w3.org/2000/svg" width="1013" height="827" viewBox="0 0 1013 827"><rect x="0.0" y="0.0" width="1013.3333333333333" height="826.6666666666666" fill="#ffffff" fill-opacity="1.0" stroke="none"/><text x="67.75999999999999" y="21.413333333333334" fill="#333333" font-size="17.599999999999998" font-family="sans-serif" text-anchor="start">DOE profiler (偏残差版・fⱼ(xⱼ)+残差で点が予測線に乗る)</text><rect x="0.0" y="0.0" width="0.0" height="0.0" fill="#ffffff" fill-opacity="1.0" stroke="none"/><line x1="98.33411774852621" y1="39.599999999999994" x2="98.33411774852621" y2="378.13333333333327" stroke="#dddddd" stroke-width="0.6666666666666666"/><line x1="190.02372554092977" y1="39.599999999999994" x2="190.02372554092977" y2="378.13333333333327" stroke="#dddddd" stroke-width="0.6666666666666666"/><line x1="281.7133333333333" y1="39.599999999999994" x2="281.7133333333333" y2="378.13333333333327" stroke="#dddddd" stroke-width="0.6666666666666666"/><line x1="373.40294112573685" y1="39.599999999999994" x2="373.40294112573685" y2="378.13333333333327" stroke="#dddddd" stroke-width="0.6666666666666666"/><line x1="465.09254891814044" y1="39.599999999999994" x2="465.09254891814044" y2="378.13333333333327" stroke="#dddddd" stroke-width="0.6666666666666666"/><line x1="144.178921644728" y1="39.599999999999994" x2="144.178921644728" y2="378.13333333333327" stroke="#dddddd" stroke-width="1.3333333333333333"/><line x1="235.86852943713157" y1="39.599999999999994" x2="235.86852943713157" y2="378.13333333333327" stroke="#dddddd" stroke-width="1.3333333333333333"/><line x1="327.5581372295351" y1="39.599999999999994" x2="327.5581372295351" y2="378.13333333333327" stroke="#dddddd" stroke-width="1.3333333333333333"/><line x1="419.2477450219386" y1="39.599999999999994" x2="419.2477450219386" y2="378.13333333333327" stroke="#dddddd" stroke-width="1.3333333333333333"/><line x1="67.75999999999999" y1="326.6510177034547" x2="495.66666666666663" y2="326.6510177034547" stroke="#dddddd" stroke-width="0.6666666666666666"/><line x1="67.75999999999999" y1="269.87039241373805" x2="495.66666666666663" y2="269.87039241373805" stroke="#dddddd" stroke-width="0.6666666666666666"/><line x1="67.75999999999999" y1="213.0897671240213" x2="495.66666666666663" y2="213.0897671240213" stroke="#dddddd" stroke-width="0.6666666666666666"/><line x1="67.75999999999999" y1="156.30914183430463" x2="495.66666666666663" y2="156.30914183430463" stroke="#dddddd" stroke-width="0.6666666666666666"/><line x1="67.75999999999999" y1="99.52851654458792" x2="495.66666666666663" y2="99.52851654458792" stroke="#dddddd" stroke-width="0.6666666666666666"/><line x1="67.75999999999999" y1="42.74789125487116" x2="495.66666666666663" y2="42.74789125487116" stroke="#dddddd" stroke-width="0.6666666666666666"/><line x1="67.75999999999999" y1="355.04133034831307" x2="495.66666666666663" y2="355.04133034831307" stroke="#dddddd" stroke-width="1.3333333333333333"/><line x1="67.75999999999999" y1="298.2607050585964" x2="495.66666666666663" y2="298.2607050585964" stroke="#dddddd" stroke-width="1.3333333333333333"/><line x1="67.75999999999999" y1="241.4800797688797" x2="495.66666666666663" y2="241.4800797688797" stroke="#dddddd" stroke-width="1.3333333333333333"/><line x1="67.75999999999999" y1="184.69945447916297" x2="495.66666666666663" y2="184.69945447916297" stroke="#dddddd" stroke-width="1.3333333333333333"/><line x1="67.75999999999999" y1="127.91882918944626" x2="495.66666666666663" y2="127.91882918944626" stroke="#dddddd" stroke-width="1.3333333333333333"/><line x1="67.75999999999999" y1="71.13820389972958" x2="495.66666666666663" y2="71.13820389972958" stroke="#dddddd" stroke-width="1.3333333333333333"/><rect x="67.75999999999999" y="39.599999999999994" width="427.90666666666664" height="338.5333333333333" fill="#ffffff" fill-opacity="0.0" stroke="#444444" stroke-width="1.3333333333333333"/><line x1="144.178921644728" y1="378.13333333333327" x2="144.178921644728" y2="381.79999999999995" stroke="#444444" stroke-width="1.3333333333333333"/><text x="144.178921644728" y="394.11999999999995" fill="#333333" font-size="11.733333333333334" font-family="sans-serif" text-anchor="middle">150</text><line x1="235.86852943713157" y1="378.13333333333327" x2="235.86852943713157" y2="381.79999999999995" stroke="#444444" stroke-width="1.3333333333333333"/><text x="235.86852943713157" y="394.11999999999995" fill="#333333" font-size="11.733333333333334" font-family="sans-serif" text-anchor="middle">160</text><line x1="327.5581372295351" y1="378.13333333333327" x2="327.5581372295351" y2="381.79999999999995" stroke="#444444" stroke-width="1.3333333333333333"/><text x="327.5581372295351" y="394.11999999999995" fill="#333333" font-size="11.733333333333334" font-family="sans-serif" text-anchor="middle">170</text><line x1="419.2477450219386" y1="378.13333333333327" x2="419.2477450219386" y2="381.79999999999995" stroke="#444444" stroke-width="1.3333333333333333"/><text x="419.2477450219386" y="394.11999999999995" fill="#333333" font-size="11.733333333333334" font-family="sans-serif" text-anchor="middle">180</text><line x1="67.75999999999999" y1="355.04133034831307" x2="64.09333333333333" y2="355.04133034831307" stroke="#444444" stroke-width="1.3333333333333333"/><text x="61.16" y="359.1479970149797" fill="#333333" font-size="11.733333333333334" font-family="sans-serif" text-anchor="end">150</text><line x1="67.75999999999999" y1="298.2607050585964" x2="64.09333333333333" y2="298.2607050585964" stroke="#444444" stroke-width="1.3333333333333333"/><text x="61.16" y="302.36737172526307" fill="#333333" font-size="11.733333333333334" font-family="sans-serif" text-anchor="end">155</text><line x1="67.75999999999999" y1="241.4800797688797" x2="64.09333333333333" y2="241.4800797688797" stroke="#444444" stroke-width="1.3333333333333333"/><text x="61.16" y="245.5867464355464" fill="#333333" font-size="11.733333333333334" font-family="sans-serif" text-anchor="end">160</text><line x1="67.75999999999999" y1="184.69945447916297" x2="64.09333333333333" y2="184.69945447916297" stroke="#444444" stroke-width="1.3333333333333333"/><text x="61.16" y="188.80612114582965" fill="#333333" font-size="11.733333333333334" font-family="sans-serif" text-anchor="end">165</text><line x1="67.75999999999999" y1="127.91882918944626" x2="64.09333333333333" y2="127.91882918944626" stroke="#444444" stroke-width="1.3333333333333333"/><text x="61.16" y="132.0254958561129" fill="#333333" font-size="11.733333333333334" font-family="sans-serif" text-anchor="end">170</text><line x1="67.75999999999999" y1="71.13820389972958" x2="64.09333333333333" y2="71.13820389972958" stroke="#444444" stroke-width="1.3333333333333333"/><text x="61.16" y="75.24487056639624" fill="#333333" font-size="11.733333333333334" font-family="sans-serif" text-anchor="end">175</text><text x="281.7133333333333" y="411.8666666666666" fill="#333333" font-size="14.666666666666666" font-family="sans-serif" text-anchor="middle">temp</text><text x="31.973333333333333" y="208.86666666666662" fill="#333333" font-size="14.666666666666666" font-family="sans-serif" text-anchor="middle" transform="rotate(-90.0 31.973333333333333 208.86666666666662)">partial: strength</text><circle cx="144.178921644728" cy="263.2776435788845" r="3.1181102362204727" fill="#1f77b4" fill-opacity="0.85" stroke="none"><title>(150, 158.080545635172)</title></circle><circle cx="144.178921644728" cy="263.9714036848523" r="3.1181102362204727" fill="#1f77b4" fill-opacity="0.85" stroke="none"><title>(150, 158.019454364828)</title></circle><circle cx="419.2477450219386" cy="58.867392535908905" r="3.1181102362204727" fill="#1f77b4" fill-opacity="0.85" stroke="none"><title>(180, 176.080545635171)</title></circle><circle cx="419.2477450219386" cy="59.56115264186765" r="3.1181102362204727" fill="#1f77b4" fill-opacity="0.85" stroke="none"><title>(180, 176.019454364829)</title></circle><circle cx="87.21030303030292" cy="355.3584167689685" r="3.1181102362204727" fill="#1f77b4" fill-opacity="0.85" stroke="none"><title>(143.786796564404, 149.972077938642)</title></circle><circle cx="476.2163636363637" cy="69.6855049732799" r="3.1181102362204727" fill="#1f77b4" fill-opacity="0.85" stroke="none"><title>(186.213203435596, 175.127922061358)</title></circle><circle cx="281.7133333333333" cy="110.80739782514748" r="3.1181102362204727" fill="#1f77b4" fill-opacity="0.85" stroke="none"><title>(165, 171.506801948463)</title></circle><circle cx="281.7133333333333" cy="109.82627287411847" r="3.1181102362204727" fill="#1f77b4" fill-opacity="0.85" stroke="none"><title>(165, 171.593198051537)</title></circle><circle cx="281.7133333333333" cy="106.34219157935384" r="3.1181102362204727" fill="#1f77b4" fill-opacity="0.85" stroke="none"><title>(165, 171.9)</title></circle><circle cx="281.7133333333333" cy="114.29147911991438" r="3.1181102362204727" fill="#1f77b4" fill-opacity="0.85" stroke="none"><title>(165, 171.2)</title></circle><path d="M 87.21030303030292 362.74545454545444 L 93.80362609142267 350.72614235128776 L 100.3969491525424 338.9778623964877 L 106.99027221366188 327.50169285243186 L 113.58359527478162 316.2983432335457 L 120.17691833590136 305.3680105887332 L 126.7702413970211 294.7102508989017 L 133.36356445814056 284.3238916125139 L 139.9568875192603 274.20700817681166 L 146.55021058038005 264.3569760548128 L 153.14353364149977 254.77059306346933 L 159.73685670261924 245.44425113772468 L 166.330179763739 236.37412784223073 L 172.92350282485873 227.55636853905173 L 179.51682588597845 218.98723807304964 L 186.1101489470979 210.6632317086274 L 192.70347200821766 202.58114473299486 L 199.29679506933738 194.73810647190328 L 205.89011813045715 187.13158725101133 L 212.48344119157687 179.75938700109936 L 219.07676425269634 172.61961292358902 L 225.6700873138161 165.7106518420223 L 232.26341037493583 159.03114113192663 L 238.8567334360553 152.5799407022817 L 245.450056497175 146.35610745560453 L 252.04337955829476 140.35887294361603 L 258.63670261941445 134.58762448766996 L 265.23002568053425 129.041889776184 L 271.8233487416537 123.72132482263505 L 278.4166718027734 118.62570512313155 L 285.0099948638932 113.75491985950107 L 291.6033179250129 109.10896903173291 L 298.19664098613237 104.68796345802987 L 304.78996404725217 100.49212764224353 L 311.38328710837186 96.52180557092925 L 317.9766101694916 92.77746955565578 L 324.56993323061135 89.25973227506543 L 331.1632562917308 85.96936217744681 L 337.75657935285057 82.90730236027214 L 344.3499024139703 80.0746929145746 L 350.94322547508983 77.4728964648123 L 357.5365485362095 75.10352618747132 L 364.12987159732927 72.96847488109324 L 370.72319465844896 71.0699426149296 L 377.31651771956876 69.41045906329244 L 383.9098407806882 67.99289490044983 L 390.503163841808 66.82045483918382 L 397.09648690292767 65.89664361509051 L 403.68980996404713 65.22519638332793 L 410.2831330251669 64.80996778180318 L 416.87645608628657 64.65478024588404 L 423.46977914740637 64.76324184061703 L 430.0631022085261 65.13855474906347 L 436.6564252696456 65.78334350817893 L 443.24974833076527 66.69953267074621 L 449.843071391885 67.88829478829837 L 456.4363944530048 69.35007387991837 L 463.0297175141242 71.08467289671026 L 469.62304057524403 73.09138232423993 L 476.2163636363637 75.36912399114854 L 476.2163636363637 62.29846719679362 L 469.62304057524403 60.69434410168738 L 463.0297175141242 59.28896239787146 L 456.4363944530048 58.081243913983215 L 449.843071391885 57.07047913558453 L 443.24974833076527 56.25647101378604 L 436.6564252696456 55.639663567664186 L 430.0631022085261 55.22122934875396 L 423.46977914740637 55.00309290984201 L 416.87645608628657 54.987878787878834 L 410.2831330251669 55.17878916593084 L 403.68980996404713 55.57943210904068 L 397.09648690292767 56.193630052578136 L 390.503163841808 57.02523763444962 L 383.9098407806882 58.07799000981246 L 377.31651771956876 59.35539191426475 L 370.72319465844896 60.860648060585916 L 364.12987159732927 62.596629123046036 L 357.5365485362095 64.56586477595647 L 350.94322547508983 66.77055508856486 L 344.3499024139703 69.21259285942381 L 337.75657935285057 71.89359126500842 L 331.1632562917308 74.81491292978129 L 324.56993323061135 77.97769794477293 L 317.9766101694916 81.38288940746031 L 311.38328710837186 85.03125576612793 L 304.78996404725217 88.92340969941952 L 298.19664098613237 93.0598235189038 L 291.6033179250129 97.44084121113553 L 285.0099948638932 102.06668727996816 L 278.4166718027734 106.93747254359994 L 271.8233487416537 112.05319700202608 L 265.23002568053425 117.41374983707149 L 258.63670261941445 123.01890654484403 L 252.04337955829476 128.8683231388225 L 245.450056497175 134.9615273074226 L 238.8567334360553 141.29790637199886 L 232.26341037493583 147.8766918842727 L 225.6700873138161 154.69694074676056 L 219.07676425269634 161.7575128684408 L 212.48344119157687 169.05704562483965 L 205.89011813045715 176.59392583950483 L 199.29679506933738 184.36626071385348 L 192.70347200821766 192.3718501786692 L 186.1101489470979 200.60816455960742 L 179.51682588597845 209.07233318242066 L 172.92350282485873 217.7611513343195 L 166.330179763739 226.67111427970417 L 159.73685670261924 235.79848686344127 L 153.14353364149977 245.13941444758922 L 146.55021058038005 254.69007459680498 L 139.9568875192603 264.4468592460282 L 133.36356445814056 274.40656621221603 L 126.7702413970211 284.566570958383 L 120.17691833590136 294.9249489317698 L 113.58359527478162 305.48052758084026 L 106.99027221366188 316.2328628865025 L 100.3969491525424 327.18215189765664 L 93.80362609142267 338.32910412873457 L 87.21030303030292 349.6747977511098 Z" fill="#1f77b4" fill-opacity="0.2" stroke="none"/><line x1="87.21030303030292" y1="356.21012614828214" x2="93.80362609142267" y2="344.5276232400111" stroke="#1f77b4" stroke-width="1.4211023622047245"/><line x1="93.80362609142267" y1="344.5276232400111" x2="100.3969491525424" y2="333.08000714707214" stroke="#1f77b4" stroke-width="1.4211023622047245"/><line x1="100.3969491525424" y1="333.08000714707214" x2="106.99027221366188" y2="321.8672778694672" stroke="#1f77b4" stroke-width="1.4211023622047245"/><line x1="106.99027221366188" y1="321.8672778694672" x2="113.58359527478162" y2="310.889435407193" stroke="#1f77b4" stroke-width="1.4211023622047245"/><line x1="113.58359527478162" y1="310.889435407193" x2="120.17691833590136" y2="300.1464797602515" stroke="#1f77b4" stroke-width="1.4211023622047245"/><line x1="120.17691833590136" y1="300.1464797602515" x2="126.7702413970211" y2="289.6384109286424" stroke="#1f77b4" stroke-width="1.4211023622047245"/><line x1="126.7702413970211" y1="289.6384109286424" x2="133.36356445814056" y2="279.36522891236496" stroke="#1f77b4" stroke-width="1.4211023622047245"/><line x1="133.36356445814056" y1="279.36522891236496" x2="139.9568875192603" y2="269.3269337114199" stroke="#1f77b4" stroke-width="1.4211023622047245"/><line x1="139.9568875192603" y1="269.3269337114199" x2="146.55021058038005" y2="259.5235253258089" stroke="#1f77b4" stroke-width="1.4211023622047245"/><line x1="146.55021058038005" y1="259.5235253258089" x2="153.14353364149977" y2="249.95500375552925" stroke="#1f77b4" stroke-width="1.4211023622047245"/><line x1="153.14353364149977" y1="249.95500375552925" x2="159.73685670261924" y2="240.621369000583" stroke="#1f77b4" stroke-width="1.4211023622047245"/><line x1="159.73685670261924" y1="240.621369000583" x2="166.330179763739" y2="231.52262106096742" stroke="#1f77b4" stroke-width="1.4211023622047245"/><line x1="166.330179763739" y1="231.52262106096742" x2="172.92350282485873" y2="222.6587599366856" stroke="#1f77b4" stroke-width="1.4211023622047245"/><line x1="172.92350282485873" y1="222.6587599366856" x2="179.51682588597845" y2="214.02978562773515" stroke="#1f77b4" stroke-width="1.4211023622047245"/><line x1="179.51682588597845" y1="214.02978562773515" x2="186.1101489470979" y2="205.63569813411738" stroke="#1f77b4" stroke-width="1.4211023622047245"/><line x1="186.1101489470979" y1="205.63569813411738" x2="192.70347200821766" y2="197.47649745583203" stroke="#1f77b4" stroke-width="1.4211023622047245"/><line x1="192.70347200821766" y1="197.47649745583203" x2="199.29679506933738" y2="189.55218359287838" stroke="#1f77b4" stroke-width="1.4211023622047245"/><line x1="199.29679506933738" y1="189.55218359287838" x2="205.89011813045715" y2="181.86275654525804" stroke="#1f77b4" stroke-width="1.4211023622047245"/><line x1="205.89011813045715" y1="181.86275654525804" x2="212.48344119157687" y2="174.4082163129695" stroke="#1f77b4" stroke-width="1.4211023622047245"/><line x1="212.48344119157687" y1="174.4082163129695" x2="219.07676425269634" y2="167.18856289601493" stroke="#1f77b4" stroke-width="1.4211023622047245"/><line x1="219.07676425269634" y1="167.18856289601493" x2="225.6700873138161" y2="160.20379629439145" stroke="#1f77b4" stroke-width="1.4211023622047245"/><line x1="225.6700873138161" y1="160.20379629439145" x2="232.26341037493583" y2="153.45391650809964" stroke="#1f77b4" stroke-width="1.4211023622047245"/><line x1="232.26341037493583" y1="153.45391650809964" x2="238.8567334360553" y2="146.93892353714025" stroke="#1f77b4" stroke-width="1.4211023622047245"/><line x1="238.8567334360553" y1="146.93892353714025" x2="245.450056497175" y2="140.6588173815136" stroke="#1f77b4" stroke-width="1.4211023622047245"/><line x1="245.450056497175" y1="140.6588173815136" x2="252.04337955829476" y2="134.61359804121926" stroke="#1f77b4" stroke-width="1.4211023622047245"/><line x1="252.04337955829476" y1="134.61359804121926" x2="258.63670261941445" y2="128.80326551625697" stroke="#1f77b4" stroke-width="1.4211023622047245"/><line x1="258.63670261941445" y1="128.80326551625697" x2="265.23002568053425" y2="123.22781980662776" stroke="#1f77b4" stroke-width="1.4211023622047245"/><line x1="265.23002568053425" y1="123.22781980662776" x2="271.8233487416537" y2="117.88726091233055" stroke="#1f77b4" stroke-width="1.4211023622047245"/><line x1="271.8233487416537" y1="117.88726091233055" x2="278.4166718027734" y2="112.78158883336573" stroke="#1f77b4" stroke-width="1.4211023622047245"/><line x1="278.4166718027734" y1="112.78158883336573" x2="285.0099948638932" y2="107.9108035697346" stroke="#1f77b4" stroke-width="1.4211023622047245"/><line x1="285.0099948638932" y1="107.9108035697346" x2="291.6033179250129" y2="103.2749051214342" stroke="#1f77b4" stroke-width="1.4211023622047245"/><line x1="291.6033179250129" y1="103.2749051214342" x2="298.19664098613237" y2="98.87389348846682" stroke="#1f77b4" stroke-width="1.4211023622047245"/><line x1="298.19664098613237" y1="98.87389348846682" x2="304.78996404725217" y2="94.70776867083157" stroke="#1f77b4" stroke-width="1.4211023622047245"/><line x1="304.78996404725217" y1="94.70776867083157" x2="311.38328710837186" y2="90.77653066852861" stroke="#1f77b4" stroke-width="1.4211023622047245"/><line x1="311.38328710837186" y1="90.77653066852861" x2="317.9766101694916" y2="87.08017948155805" stroke="#1f77b4" stroke-width="1.4211023622047245"/><line x1="317.9766101694916" y1="87.08017948155805" x2="324.56993323061135" y2="83.61871510991921" stroke="#1f77b4" stroke-width="1.4211023622047245"/><line x1="324.56993323061135" y1="83.61871510991921" x2="331.1632562917308" y2="80.39213755361405" stroke="#1f77b4" stroke-width="1.4211023622047245"/><line x1="331.1632562917308" y1="80.39213755361405" x2="337.75657935285057" y2="77.40044681264028" stroke="#1f77b4" stroke-width="1.4211023622047245"/><line x1="337.75657935285057" y1="77.40044681264028" x2="344.3499024139703" y2="74.64364288699922" stroke="#1f77b4" stroke-width="1.4211023622047245"/><line x1="344.3499024139703" y1="74.64364288699922" x2="350.94322547508983" y2="72.12172577668858" stroke="#1f77b4" stroke-width="1.4211023622047245"/><line x1="350.94322547508983" y1="72.12172577668858" x2="357.5365485362095" y2="69.83469548171391" stroke="#1f77b4" stroke-width="1.4211023622047245"/><line x1="357.5365485362095" y1="69.83469548171391" x2="364.12987159732927" y2="67.78255200206964" stroke="#1f77b4" stroke-width="1.4211023622047245"/><line x1="364.12987159732927" y1="67.78255200206964" x2="370.72319465844896" y2="65.96529533775777" stroke="#1f77b4" stroke-width="1.4211023622047245"/><line x1="370.72319465844896" y1="65.96529533775777" x2="377.31651771956876" y2="64.3829254887786" stroke="#1f77b4" stroke-width="1.4211023622047245"/><line x1="377.31651771956876" y1="64.3829254887786" x2="383.9098407806882" y2="63.03544245513115" stroke="#1f77b4" stroke-width="1.4211023622047245"/><line x1="383.9098407806882" y1="63.03544245513115" x2="390.503163841808" y2="61.9228462368167" stroke="#1f77b4" stroke-width="1.4211023622047245"/><line x1="390.503163841808" y1="61.9228462368167" x2="397.09648690292767" y2="61.04513683383432" stroke="#1f77b4" stroke-width="1.4211023622047245"/><line x1="397.09648690292767" y1="61.04513683383432" x2="403.68980996404713" y2="60.402314246184346" stroke="#1f77b4" stroke-width="1.4211023622047245"/><line x1="403.68980996404713" y1="60.402314246184346" x2="410.2831330251669" y2="59.99437847386703" stroke="#1f77b4" stroke-width="1.4211023622047245"/><line x1="410.2831330251669" y1="59.99437847386703" x2="416.87645608628657" y2="59.82132951688144" stroke="#1f77b4" stroke-width="1.4211023622047245"/><line x1="416.87645608628657" y1="59.82132951688144" x2="423.46977914740637" y2="59.88316737522954" stroke="#1f77b4" stroke-width="1.4211023622047245"/><line x1="423.46977914740637" y1="59.88316737522954" x2="430.0631022085261" y2="60.17989204890871" stroke="#1f77b4" stroke-width="1.4211023622047245"/><line x1="430.0631022085261" y1="60.17989204890871" x2="436.6564252696456" y2="60.711503537921544" stroke="#1f77b4" stroke-width="1.4211023622047245"/><line x1="436.6564252696456" y1="60.711503537921544" x2="443.24974833076527" y2="61.478001842266124" stroke="#1f77b4" stroke-width="1.4211023622047245"/><line x1="443.24974833076527" y1="61.478001842266124" x2="449.843071391885" y2="62.479386961941486" stroke="#1f77b4" stroke-width="1.4211023622047245"/><line x1="449.843071391885" y1="62.479386961941486" x2="456.4363944530048" y2="63.71565889695076" stroke="#1f77b4" stroke-width="1.4211023622047245"/><line x1="456.4363944530048" y1="63.71565889695076" x2="463.0297175141242" y2="65.18681764729084" stroke="#1f77b4" stroke-width="1.4211023622047245"/><line x1="463.0297175141242" y1="65.18681764729084" x2="469.62304057524403" y2="66.89286321296368" stroke="#1f77b4" stroke-width="1.4211023622047245"/><line x1="469.62304057524403" y1="66.89286321296368" x2="476.2163636363637" y2="68.83379559397106" stroke="#1f77b4" stroke-width="1.4211023622047245"/><rect x="0.0" y="0.0" width="0.0" height="0.0" fill="#ffffff" fill-opacity="1.0" stroke="none"/><line x1="647.178921644728" y1="39.599999999999994" x2="647.178921644728" y2="378.13333333333327" stroke="#dddddd" stroke-width="0.6666666666666666"/><line x1="757.2064509956123" y1="39.599999999999994" x2="757.2064509956123" y2="378.13333333333327" stroke="#dddddd" stroke-width="0.6666666666666666"/><line x1="867.2339803464965" y1="39.599999999999994" x2="867.2339803464965" y2="378.13333333333327" stroke="#dddddd" stroke-width="0.6666666666666666"/><line x1="977.2615096973807" y1="39.599999999999994" x2="977.2615096973807" y2="378.13333333333327" stroke="#dddddd" stroke-width="0.6666666666666666"/><line x1="592.1651569692859" y1="39.599999999999994" x2="592.1651569692859" y2="378.13333333333327" stroke="#dddddd" stroke-width="1.3333333333333333"/><line x1="702.1926863201702" y1="39.599999999999994" x2="702.1926863201702" y2="378.13333333333327" stroke="#dddddd" stroke-width="1.3333333333333333"/><line x1="812.2202156710543" y1="39.599999999999994" x2="812.2202156710543" y2="378.13333333333327" stroke="#dddddd" stroke-width="1.3333333333333333"/><line x1="922.2477450219385" y1="39.599999999999994" x2="922.2477450219385" y2="378.13333333333327" stroke="#dddddd" stroke-width="1.3333333333333333"/><line x1="570.76" y1="340.38211738201005" x2="998.6666666666666" y2="340.38211738201005" stroke="#dddddd" stroke-width="0.6666666666666666"/><line x1="570.76" y1="267.7216473735331" x2="998.6666666666666" y2="267.7216473735331" stroke="#dddddd" stroke-width="0.6666666666666666"/><line x1="570.76" y1="195.0611773650562" x2="998.6666666666666" y2="195.0611773650562" stroke="#dddddd" stroke-width="0.6666666666666666"/><line x1="570.76" y1="122.40070735657923" x2="998.6666666666666" y2="122.40070735657923" stroke="#dddddd" stroke-width="0.6666666666666666"/><line x1="570.76" y1="49.74023734810229" x2="998.6666666666666" y2="49.74023734810229" stroke="#dddddd" stroke-width="0.6666666666666666"/><line x1="570.76" y1="376.71235238624854" x2="998.6666666666666" y2="376.71235238624854" stroke="#dddddd" stroke-width="1.3333333333333333"/><line x1="570.76" y1="304.05188237777156" x2="998.6666666666666" y2="304.05188237777156" stroke="#dddddd" stroke-width="1.3333333333333333"/><line x1="570.76" y1="231.39141236929464" x2="998.6666666666666" y2="231.39141236929464" stroke="#dddddd" stroke-width="1.3333333333333333"/><line x1="570.76" y1="158.73094236081772" x2="998.6666666666666" y2="158.73094236081772" stroke="#dddddd" stroke-width="1.3333333333333333"/><line x1="570.76" y1="86.07047235234077" x2="998.6666666666666" y2="86.07047235234077" stroke="#dddddd" stroke-width="1.3333333333333333"/><rect x="570.76" y="39.599999999999994" width="427.90666666666664" height="338.5333333333333" fill="#ffffff" fill-opacity="0.0" stroke="#444444" stroke-width="1.3333333333333333"/><line x1="592.1651569692859" y1="378.13333333333327" x2="592.1651569692859" y2="381.79999999999995" stroke="#444444" stroke-width="1.3333333333333333"/><text x="592.1651569692859" y="394.11999999999995" fill="#333333" font-size="11.733333333333334" font-family="sans-serif" text-anchor="middle">8</text><line x1="702.1926863201702" y1="378.13333333333327" x2="702.1926863201702" y2="381.79999999999995" stroke="#444444" stroke-width="1.3333333333333333"/><text x="702.1926863201702" y="394.11999999999995" fill="#333333" font-size="11.733333333333334" font-family="sans-serif" text-anchor="middle">12</text><line x1="812.2202156710543" y1="378.13333333333327" x2="812.2202156710543" y2="381.79999999999995" stroke="#444444" stroke-width="1.3333333333333333"/><text x="812.2202156710543" y="394.11999999999995" fill="#333333" font-size="11.733333333333334" font-family="sans-serif" text-anchor="middle">16</text><line x1="922.2477450219385" y1="378.13333333333327" x2="922.2477450219385" y2="381.79999999999995" stroke="#444444" stroke-width="1.3333333333333333"/><text x="922.2477450219385" y="394.11999999999995" fill="#333333" font-size="11.733333333333334" font-family="sans-serif" text-anchor="middle">20</text><line x1="570.76" y1="376.71235238624854" x2="567.0933333333332" y2="376.71235238624854" stroke="#444444" stroke-width="1.3333333333333333"/><text x="564.16" y="380.81901905291517" fill="#333333" font-size="11.733333333333334" font-family="sans-serif" text-anchor="end">160</text><line x1="570.76" y1="304.05188237777156" x2="567.0933333333332" y2="304.05188237777156" stroke="#444444" stroke-width="1.3333333333333333"/><text x="564.16" y="308.15854904443825" fill="#333333" font-size="11.733333333333334" font-family="sans-serif" text-anchor="end">165</text><line x1="570.76" y1="231.39141236929464" x2="567.0933333333332" y2="231.39141236929464" stroke="#444444" stroke-width="1.3333333333333333"/><text x="564.16" y="235.49807903596133" fill="#333333" font-size="11.733333333333334" font-family="sans-serif" text-anchor="end">170</text><line x1="570.76" y1="158.73094236081772" x2="567.0933333333332" y2="158.73094236081772" stroke="#444444" stroke-width="1.3333333333333333"/><text x="564.16" y="162.83760902748438" fill="#333333" font-size="11.733333333333334" font-family="sans-serif" text-anchor="end">175</text><line x1="570.76" y1="86.07047235234077" x2="567.0933333333332" y2="86.07047235234077" stroke="#444444" stroke-width="1.3333333333333333"/><text x="564.16" y="90.17713901900744" fill="#333333" font-size="11.733333333333334" font-family="sans-serif" text-anchor="end">180</text><text x="784.7133333333333" y="411.8666666666666" fill="#333333" font-size="14.666666666666666" font-family="sans-serif" text-anchor="middle">time</text><text x="534.9733333333332" y="208.86666666666662" fill="#333333" font-size="14.666666666666666" font-family="sans-serif" text-anchor="middle" transform="rotate(-90.0 534.9733333333332 208.86666666666662)">partial: strength</text><circle cx="647.178921644728" cy="312.088610044656" r="3.1181102362204727" fill="#1f77b4" fill-opacity="0.85" stroke="none"><title>(10, 164.446966991409)</title></circle><circle cx="922.2477450219385" cy="107.18608462075527" r="3.1181102362204727" fill="#1f77b4" fill-opacity="0.85" stroke="none"><title>(20, 178.546966991409)</title></circle><circle cx="647.178921644728" cy="310.5472487125829" r="3.1181102362204727" fill="#1f77b4" fill-opacity="0.85" stroke="none"><title>(10, 164.553033008591)</title></circle><circle cx="922.2477450219385" cy="105.64472328867066" r="3.1181102362204727" fill="#1f77b4" fill-opacity="0.85" stroke="none"><title>(20, 178.653033008591)</title></circle><circle cx="784.7133333333334" cy="207.7767596165801" r="3.1181102362204727" fill="#1f77b4" fill-opacity="0.85" stroke="none"><title>(15, 171.624999999997)</title></circle><circle cx="784.7133333333334" cy="209.9565737167461" r="3.1181102362204727" fill="#1f77b4" fill-opacity="0.85" stroke="none"><title>(15, 171.475000000003)</title></circle><circle cx="590.2103030303031" cy="355.01014816732186" r="3.1181102362204727" fill="#1f77b4" fill-opacity="0.85" stroke="none"><title>(7.928932188135, 161.493398282202)</title></circle><circle cx="979.2163636363636" cy="62.723185166011866" r="3.1181102362204727" fill="#1f77b4" fill-opacity="0.85" stroke="none"><title>(22.071067811865, 181.606601717798)</title></circle><circle cx="784.7133333333334" cy="203.78043376607332" r="3.1181102362204727" fill="#1f77b4" fill-opacity="0.85" stroke="none"><title>(15, 171.9)</title></circle><circle cx="784.7133333333334" cy="213.95289956726037" r="3.1181102362204727" fill="#1f77b4" fill-opacity="0.85" stroke="none"><title>(15, 171.2)</title></circle><path d="M 590.2103030303031 362.74545454545466 L 596.8036260914226 357.38171337869574 L 603.3969491525423 352.0642264313135 L 609.990272213662 346.7943734070271 L 616.5835952747816 341.57306225023933 L 623.1769183359013 336.40054511854726 L 629.770241397021 331.2762538140059 L 636.3635644581407 326.1986878574155 L 642.9568875192604 321.1653844560976 L 649.55021058038 316.1729850684902 L 656.1435336414997 311.21739195660206 L 662.7368567026194 306.29398798735696 L 669.3301797637391 301.39788170443035 L 675.9235028248587 296.5241404428237 L 682.5168258859784 291.66798443604137 L 689.1101489470981 286.8249287786615 L 695.7034720082177 281.9908724954645 L 702.2967950693375 277.1621420703418 L 708.890118130457 272.33550035463225 L 715.4834411915768 267.50813198546916 L 722.0767642526964 262.67761480504794 L 728.6700873138161 257.8418844796456 L 735.2634103749358 252.99919729944077 L 741.8567334360555 248.14809432401063 L 748.4500564971752 243.2873686996732 L 755.0433795582949 238.41603706611562 L 761.6367026194145 233.53331539678734 L 768.230025680534 228.63859928864736 L 774.8233487416538 223.73144855243132 L 781.4166718027734 218.81157589722903 L 788.0099948638932 213.87883951231734 L 794.6033179250128 208.9332393976938 L 801.1966409861325 203.97491736406863 L 807.7899640472522 199.00416070236457 L 814.3832871083719 194.0214096018674 L 820.9766101694914 189.0272684655883 L 827.5699332306112 184.02252132010528 L 834.1632562917309 179.00815152570578 L 840.7565793528506 173.9853659360695 L 847.3499024139703 168.9556234916323 L 853.94322547509 163.92066790221648 L 860.5365485362096 158.8825635015599 L 867.1298715973292 153.84373244744896 L 873.723194658449 148.8069901027214 L 880.3165177195685 143.77557361609175 L 886.9098407806883 138.75315650362631 L 893.5031638418079 133.7438397405972 L 900.0964869029276 128.75210823237052 L 906.6898099640473 123.78274174545848 L 913.283133025167 118.8406729448715 L 919.8764560862866 113.93079328692018 L 926.4697791474064 109.05771990469341 L 933.063102208526 104.22555053618876 L 939.6564252696455 99.43764372294538 L 946.2497483307652 94.69646225765719 L 952.8430713918849 90.0035066195118 L 959.4363944530047 85.3593450064662 L 966.0297175141243 80.76372526091646 L 972.623040575244 76.21573943846536 L 979.2163636363636 71.71400783540051 L 979.2163636363636 54.98787878787857 L 972.623040575244 60.35161995464371 L 966.0297175141243 65.66910690202674 L 959.4363944530047 70.93895992631117 L 952.8430713918849 76.16027108309557 L 946.2497483307652 81.3327882147843 L 939.6564252696455 86.45707951932695 L 933.063102208526 91.53464547591693 L 926.4697791474064 96.56794887724632 L 919.8764560862866 101.56034826485043 L 913.283133025167 106.5159413767291 L 906.6898099640473 111.43934534597629 L 900.0964869029276 116.33545162889841 L 893.5031638418079 121.20919289050167 L 886.9098407806883 126.06534889730347 L 880.3165177195685 130.90840455467213 L 873.723194658449 135.7424608378758 L 867.1298715973292 140.57119126297908 L 860.5365485362096 145.39783297870224 L 853.94322547509 150.2252013478757 L 847.3499024139703 155.055718528294 L 840.7565793528506 159.89144885369092 L 834.1632562917309 164.73413603388548 L 827.5699332306112 169.58523900931598 L 820.9766101694914 174.44596463366707 L 814.3832871083719 179.31729626722216 L 807.7899640472522 184.2000179365558 L 801.1966409861325 189.09473404468508 L 794.6033179250128 194.00188478089075 L 788.0099948638932 198.92175743610133 L 781.4166718027734 203.8544938210238 L 774.8233487416538 208.80009393565143 L 768.230025680534 213.75841596926628 L 761.6367026194145 218.72917263096372 L 755.0433795582949 223.7119237314663 L 748.4500564971752 228.70606486773875 L 741.8567334360555 233.71081201323545 L 735.2634103749358 238.72518180763615 L 728.6700873138161 243.7479673972654 L 722.0767642526964 248.7777098416973 L 715.4834411915768 253.812665431106 L 708.890118130457 258.85076983177373 L 702.2967950693375 263.88960088590164 L 695.7034720082177 268.9263432306098 L 689.1101489470981 273.9577597172436 L 682.5168258859784 278.98017682969373 L 675.9235028248587 283.9894935927489 L 669.3301797637391 288.98122510097306 L 662.7368567026194 293.9505915878773 L 656.1435336414997 298.8926603884663 L 649.55021058038 303.8025400464081 L 642.9568875192604 308.67561342863485 L 636.3635644581407 313.5077827971511 L 629.770241397021 318.2956896103916 L 623.1769183359013 323.036871075681 L 616.5835952747816 327.72982671382636 L 609.990272213662 332.3739883268695 L 603.3969491525423 336.96960807241305 L 596.8036260914226 341.51759389486494 L 590.2103030303031 346.01932549793685 Z" fill="#1f77b4" fill-opacity="0.2" stroke="none"/><line x1="590.2103030303031" y1="354.38239002169576" x2="596.8036260914226" y2="349.4496536367804" stroke="#1f77b4" stroke-width="1.4211023622047245"/><line x1="596.8036260914226" y1="349.4496536367804" x2="603.3969491525423" y2="344.51691725186333" stroke="#1f77b4" stroke-width="1.4211023622047245"/><line x1="603.3969491525423" y1="344.51691725186333" x2="609.990272213662" y2="339.58418086694826" stroke="#1f77b4" stroke-width="1.4211023622047245"/><line x1="609.990272213662" y1="339.58418086694826" x2="616.5835952747816" y2="334.65144448203284" stroke="#1f77b4" stroke-width="1.4211023622047245"/><line x1="616.5835952747816" y1="334.65144448203284" x2="623.1769183359013" y2="329.71870809711413" stroke="#1f77b4" stroke-width="1.4211023622047245"/><line x1="623.1769183359013" y1="329.71870809711413" x2="629.770241397021" y2="324.7859717121987" stroke="#1f77b4" stroke-width="1.4211023622047245"/><line x1="629.770241397021" y1="324.7859717121987" x2="636.3635644581407" y2="319.8532353272833" stroke="#1f77b4" stroke-width="1.4211023622047245"/><line x1="636.3635644581407" y1="319.8532353272833" x2="642.9568875192604" y2="314.92049894236624" stroke="#1f77b4" stroke-width="1.4211023622047245"/><line x1="642.9568875192604" y1="314.92049894236624" x2="649.55021058038" y2="309.9877625574492" stroke="#1f77b4" stroke-width="1.4211023622047245"/><line x1="649.55021058038" y1="309.9877625574492" x2="656.1435336414997" y2="305.05502617253416" stroke="#1f77b4" stroke-width="1.4211023622047245"/><line x1="656.1435336414997" y1="305.05502617253416" x2="662.7368567026194" y2="300.1222897876171" stroke="#1f77b4" stroke-width="1.4211023622047245"/><line x1="662.7368567026194" y1="300.1222897876171" x2="669.3301797637391" y2="295.1895534027017" stroke="#1f77b4" stroke-width="1.4211023622047245"/><line x1="669.3301797637391" y1="295.1895534027017" x2="675.9235028248587" y2="290.25681701778626" stroke="#1f77b4" stroke-width="1.4211023622047245"/><line x1="675.9235028248587" y1="290.25681701778626" x2="682.5168258859784" y2="285.32408063286755" stroke="#1f77b4" stroke-width="1.4211023622047245"/><line x1="682.5168258859784" y1="285.32408063286755" x2="689.1101489470981" y2="280.39134424795253" stroke="#1f77b4" stroke-width="1.4211023622047245"/><line x1="689.1101489470981" y1="280.39134424795253" x2="695.7034720082177" y2="275.4586078630371" stroke="#1f77b4" stroke-width="1.4211023622047245"/><line x1="695.7034720082177" y1="275.4586078630371" x2="702.2967950693375" y2="270.5258714781217" stroke="#1f77b4" stroke-width="1.4211023622047245"/><line x1="702.2967950693375" y1="270.5258714781217" x2="708.890118130457" y2="265.593135093203" stroke="#1f77b4" stroke-width="1.4211023622047245"/><line x1="708.890118130457" y1="265.593135093203" x2="715.4834411915768" y2="260.6603987082876" stroke="#1f77b4" stroke-width="1.4211023622047245"/><line x1="715.4834411915768" y1="260.6603987082876" x2="722.0767642526964" y2="255.72766232337258" stroke="#1f77b4" stroke-width="1.4211023622047245"/><line x1="722.0767642526964" y1="255.72766232337258" x2="728.6700873138161" y2="250.7949259384555" stroke="#1f77b4" stroke-width="1.4211023622047245"/><line x1="728.6700873138161" y1="250.7949259384555" x2="735.2634103749358" y2="245.86218955353846" stroke="#1f77b4" stroke-width="1.4211023622047245"/><line x1="735.2634103749358" y1="245.86218955353846" x2="741.8567334360555" y2="240.92945316862304" stroke="#1f77b4" stroke-width="1.4211023622047245"/><line x1="741.8567334360555" y1="240.92945316862304" x2="748.4500564971752" y2="235.996716783706" stroke="#1f77b4" stroke-width="1.4211023622047245"/><line x1="748.4500564971752" y1="235.996716783706" x2="755.0433795582949" y2="231.06398039879096" stroke="#1f77b4" stroke-width="1.4211023622047245"/><line x1="755.0433795582949" y1="231.06398039879096" x2="761.6367026194145" y2="226.13124401387554" stroke="#1f77b4" stroke-width="1.4211023622047245"/><line x1="761.6367026194145" y1="226.13124401387554" x2="768.230025680534" y2="221.1985076289568" stroke="#1f77b4" stroke-width="1.4211023622047245"/><line x1="768.230025680534" y1="221.1985076289568" x2="774.8233487416538" y2="216.2657712440414" stroke="#1f77b4" stroke-width="1.4211023622047245"/><line x1="774.8233487416538" y1="216.2657712440414" x2="781.4166718027734" y2="211.33303485912643" stroke="#1f77b4" stroke-width="1.4211023622047245"/><line x1="781.4166718027734" y1="211.33303485912643" x2="788.0099948638932" y2="206.40029847420934" stroke="#1f77b4" stroke-width="1.4211023622047245"/><line x1="788.0099948638932" y1="206.40029847420934" x2="794.6033179250128" y2="201.46756208929224" stroke="#1f77b4" stroke-width="1.4211023622047245"/><line x1="794.6033179250128" y1="201.46756208929224" x2="801.1966409861325" y2="196.53482570437683" stroke="#1f77b4" stroke-width="1.4211023622047245"/><line x1="801.1966409861325" y1="196.53482570437683" x2="807.7899640472522" y2="191.60208931946022" stroke="#1f77b4" stroke-width="1.4211023622047245"/><line x1="807.7899640472522" y1="191.60208931946022" x2="814.3832871083719" y2="186.6693529345448" stroke="#1f77b4" stroke-width="1.4211023622047245"/><line x1="814.3832871083719" y1="186.6693529345448" x2="820.9766101694914" y2="181.7366165496277" stroke="#1f77b4" stroke-width="1.4211023622047245"/><line x1="820.9766101694914" y1="181.7366165496277" x2="827.5699332306112" y2="176.80388016471068" stroke="#1f77b4" stroke-width="1.4211023622047245"/><line x1="827.5699332306112" y1="176.80388016471068" x2="834.1632562917309" y2="171.87114377979563" stroke="#1f77b4" stroke-width="1.4211023622047245"/><line x1="834.1632562917309" y1="171.87114377979563" x2="840.7565793528506" y2="166.93840739488022" stroke="#1f77b4" stroke-width="1.4211023622047245"/><line x1="840.7565793528506" y1="166.93840739488022" x2="847.3499024139703" y2="162.00567100996318" stroke="#1f77b4" stroke-width="1.4211023622047245"/><line x1="847.3499024139703" y1="162.00567100996318" x2="853.94322547509" y2="157.07293462504606" stroke="#1f77b4" stroke-width="1.4211023622047245"/><line x1="853.94322547509" y1="157.07293462504606" x2="860.5365485362096" y2="152.14019824013104" stroke="#1f77b4" stroke-width="1.4211023622047245"/><line x1="860.5365485362096" y1="152.14019824013104" x2="867.1298715973292" y2="147.207461855214" stroke="#1f77b4" stroke-width="1.4211023622047245"/><line x1="867.1298715973292" y1="147.207461855214" x2="873.723194658449" y2="142.2747254702986" stroke="#1f77b4" stroke-width="1.4211023622047245"/><line x1="873.723194658449" y1="142.2747254702986" x2="880.3165177195685" y2="137.34198908538193" stroke="#1f77b4" stroke-width="1.4211023622047245"/><line x1="880.3165177195685" y1="137.34198908538193" x2="886.9098407806883" y2="132.40925270046483" stroke="#1f77b4" stroke-width="1.4211023622047245"/><line x1="886.9098407806883" y1="132.40925270046483" x2="893.5031638418079" y2="127.47651631554943" stroke="#1f77b4" stroke-width="1.4211023622047245"/><line x1="893.5031638418079" y1="127.47651631554943" x2="900.0964869029276" y2="122.54377993063443" stroke="#1f77b4" stroke-width="1.4211023622047245"/><line x1="900.0964869029276" y1="122.54377993063443" x2="906.6898099640473" y2="117.6110435457174" stroke="#1f77b4" stroke-width="1.4211023622047245"/><line x1="906.6898099640473" y1="117.6110435457174" x2="913.283133025167" y2="112.6783071608003" stroke="#1f77b4" stroke-width="1.4211023622047245"/><line x1="913.283133025167" y1="112.6783071608003" x2="919.8764560862866" y2="107.74557077588531" stroke="#1f77b4" stroke-width="1.4211023622047245"/><line x1="919.8764560862866" y1="107.74557077588531" x2="926.4697791474064" y2="102.8128343909699" stroke="#1f77b4" stroke-width="1.4211023622047245"/><line x1="926.4697791474064" y1="102.8128343909699" x2="933.063102208526" y2="97.88009800605285" stroke="#1f77b4" stroke-width="1.4211023622047245"/><line x1="933.063102208526" y1="97.88009800605285" x2="939.6564252696455" y2="92.94736162113618" stroke="#1f77b4" stroke-width="1.4211023622047245"/><line x1="939.6564252696455" y1="92.94736162113618" x2="946.2497483307652" y2="88.01462523622077" stroke="#1f77b4" stroke-width="1.4211023622047245"/><line x1="946.2497483307652" y1="88.01462523622077" x2="952.8430713918849" y2="83.08188885130369" stroke="#1f77b4" stroke-width="1.4211023622047245"/><line x1="952.8430713918849" y1="83.08188885130369" x2="959.4363944530047" y2="78.14915246638868" stroke="#1f77b4" stroke-width="1.4211023622047245"/><line x1="959.4363944530047" y1="78.14915246638868" x2="966.0297175141243" y2="73.21641608147164" stroke="#1f77b4" stroke-width="1.4211023622047245"/><line x1="966.0297175141243" y1="73.21641608147164" x2="972.623040575244" y2="68.28367969655456" stroke="#1f77b4" stroke-width="1.4211023622047245"/><line x1="972.623040575244" y1="68.28367969655456" x2="979.2163636363636" y2="63.35094331163956" stroke="#1f77b4" stroke-width="1.4211023622047245"/><rect x="0.0" y="0.0" width="0.0" height="0.0" fill="#ffffff" fill-opacity="1.0" stroke="none"/><line x1="98.33411774852621" y1="436.79999999999995" x2="98.33411774852621" y2="775.3333333333333" stroke="#dddddd" stroke-width="0.6666666666666666"/><line x1="190.02372554092977" y1="436.79999999999995" x2="190.02372554092977" y2="775.3333333333333" stroke="#dddddd" stroke-width="0.6666666666666666"/><line x1="281.7133333333333" y1="436.79999999999995" x2="281.7133333333333" y2="775.3333333333333" stroke="#dddddd" stroke-width="0.6666666666666666"/><line x1="373.40294112573685" y1="436.79999999999995" x2="373.40294112573685" y2="775.3333333333333" stroke="#dddddd" stroke-width="0.6666666666666666"/><line x1="465.09254891814044" y1="436.79999999999995" x2="465.09254891814044" y2="775.3333333333333" stroke="#dddddd" stroke-width="0.6666666666666666"/><line x1="144.178921644728" y1="436.79999999999995" x2="144.178921644728" y2="775.3333333333333" stroke="#dddddd" stroke-width="1.3333333333333333"/><line x1="235.86852943713157" y1="436.79999999999995" x2="235.86852943713157" y2="775.3333333333333" stroke="#dddddd" stroke-width="1.3333333333333333"/><line x1="327.5581372295351" y1="436.79999999999995" x2="327.5581372295351" y2="775.3333333333333" stroke="#dddddd" stroke-width="1.3333333333333333"/><line x1="419.2477450219386" y1="436.79999999999995" x2="419.2477450219386" y2="775.3333333333333" stroke="#dddddd" stroke-width="1.3333333333333333"/><line x1="67.75999999999999" y1="728.1485376352913" x2="495.66666666666663" y2="728.1485376352913" stroke="#dddddd" stroke-width="0.6666666666666666"/><line x1="67.75999999999999" y1="670.3583028572377" x2="495.66666666666663" y2="670.3583028572377" stroke="#dddddd" stroke-width="0.6666666666666666"/><line x1="67.75999999999999" y1="612.5680680791841" x2="495.66666666666663" y2="612.5680680791841" stroke="#dddddd" stroke-width="0.6666666666666666"/><line x1="67.75999999999999" y1="554.7778333011304" x2="495.66666666666663" y2="554.7778333011304" stroke="#dddddd" stroke-width="0.6666666666666666"/><line x1="67.75999999999999" y1="496.9875985230767" x2="495.66666666666663" y2="496.9875985230767" stroke="#dddddd" stroke-width="0.6666666666666666"/><line x1="67.75999999999999" y1="439.1973637450231" x2="495.66666666666663" y2="439.1973637450231" stroke="#dddddd" stroke-width="0.6666666666666666"/><line x1="67.75999999999999" y1="757.0436550243181" x2="495.66666666666663" y2="757.0436550243181" stroke="#dddddd" stroke-width="1.3333333333333333"/><line x1="67.75999999999999" y1="699.2534202462645" x2="495.66666666666663" y2="699.2534202462645" stroke="#dddddd" stroke-width="1.3333333333333333"/><line x1="67.75999999999999" y1="641.4631854682109" x2="495.66666666666663" y2="641.4631854682109" stroke="#dddddd" stroke-width="1.3333333333333333"/><line x1="67.75999999999999" y1="583.6729506901572" x2="495.66666666666663" y2="583.6729506901572" stroke="#dddddd" stroke-width="1.3333333333333333"/><line x1="67.75999999999999" y1="525.8827159121035" x2="495.66666666666663" y2="525.8827159121035" stroke="#dddddd" stroke-width="1.3333333333333333"/><line x1="67.75999999999999" y1="468.09248113404993" x2="495.66666666666663" y2="468.09248113404993" stroke="#dddddd" stroke-width="1.3333333333333333"/><rect x="67.75999999999999" y="436.79999999999995" width="427.90666666666664" height="338.53333333333336" fill="#ffffff" fill-opacity="0.0" stroke="#444444" stroke-width="1.3333333333333333"/><line x1="144.178921644728" y1="775.3333333333333" x2="144.178921644728" y2="779.0" stroke="#444444" stroke-width="1.3333333333333333"/><text x="144.178921644728" y="791.3199999999999" fill="#333333" font-size="11.733333333333334" font-family="sans-serif" text-anchor="middle">150</text><line x1="235.86852943713157" y1="775.3333333333333" x2="235.86852943713157" y2="779.0" stroke="#444444" stroke-width="1.3333333333333333"/><text x="235.86852943713157" y="791.3199999999999" fill="#333333" font-size="11.733333333333334" font-family="sans-serif" text-anchor="middle">160</text><line x1="327.5581372295351" y1="775.3333333333333" x2="327.5581372295351" y2="779.0" stroke="#444444" stroke-width="1.3333333333333333"/><text x="327.5581372295351" y="791.3199999999999" fill="#333333" font-size="11.733333333333334" font-family="sans-serif" text-anchor="middle">170</text><line x1="419.2477450219386" y1="775.3333333333333" x2="419.2477450219386" y2="779.0" stroke="#444444" stroke-width="1.3333333333333333"/><text x="419.2477450219386" y="791.3199999999999" fill="#333333" font-size="11.733333333333334" font-family="sans-serif" text-anchor="middle">180</text><line x1="67.75999999999999" y1="757.0436550243181" x2="64.09333333333333" y2="757.0436550243181" stroke="#444444" stroke-width="1.3333333333333333"/><text x="61.16" y="761.1503216909848" fill="#333333" font-size="11.733333333333334" font-family="sans-serif" text-anchor="end">75.0</text><line x1="67.75999999999999" y1="699.2534202462645" x2="64.09333333333333" y2="699.2534202462645" stroke="#444444" stroke-width="1.3333333333333333"/><text x="61.16" y="703.3600869129311" fill="#333333" font-size="11.733333333333334" font-family="sans-serif" text-anchor="end">77.5</text><line x1="67.75999999999999" y1="641.4631854682109" x2="64.09333333333333" y2="641.4631854682109" stroke="#444444" stroke-width="1.3333333333333333"/><text x="61.16" y="645.5698521348775" fill="#333333" font-size="11.733333333333334" font-family="sans-serif" text-anchor="end">80.0</text><line x1="67.75999999999999" y1="583.6729506901572" x2="64.09333333333333" y2="583.6729506901572" stroke="#444444" stroke-width="1.3333333333333333"/><text x="61.16" y="587.7796173568238" fill="#333333" font-size="11.733333333333334" font-family="sans-serif" text-anchor="end">82.5</text><line x1="67.75999999999999" y1="525.8827159121035" x2="64.09333333333333" y2="525.8827159121035" stroke="#444444" stroke-width="1.3333333333333333"/><text x="61.16" y="529.9893825787701" fill="#333333" font-size="11.733333333333334" font-family="sans-serif" text-anchor="end">85.0</text><line x1="67.75999999999999" y1="468.09248113404993" x2="64.09333333333333" y2="468.09248113404993" stroke="#444444" stroke-width="1.3333333333333333"/><text x="61.16" y="472.19914780071656" fill="#333333" font-size="11.733333333333334" font-family="sans-serif" text-anchor="end">87.5</text><text x="281.7133333333333" y="809.0666666666666" fill="#333333" font-size="14.666666666666666" font-family="sans-serif" text-anchor="middle">temp</text><text x="24.93333333333333" y="606.0666666666666" fill="#333333" font-size="14.666666666666666" font-family="sans-serif" text-anchor="middle" transform="rotate(-90.0 24.93333333333333 606.0666666666666)">partial: yield</text><circle cx="144.178921644728" cy="709.170533079681" r="3.1181102362204727" fill="#1f77b4" fill-opacity="0.85" stroke="none"><title>(150, 77.070986652351)</title></circle><circle cx="144.178921644728" cy="710.2852675198912" r="3.1181102362204727" fill="#1f77b4" fill-opacity="0.85" stroke="none"><title>(150, 77.022763347649)</title></circle><circle cx="419.2477450219386" cy="501.1256878786906" r="3.1181102362204727" fill="#1f77b4" fill-opacity="0.85" stroke="none"><title>(180, 86.070986652351)</title></circle><circle cx="419.2477450219386" cy="502.2404223188952" r="3.1181102362204727" fill="#1f77b4" fill-opacity="0.85" stroke="none"><title>(180, 86.022763347649)</title></circle><circle cx="87.21030303030292" cy="751.5873560427844" r="3.1181102362204727" fill="#1f77b4" fill-opacity="0.85" stroke="none"><title>(143.786796564404, 75.236038969321)</title></circle><circle cx="476.2163636363637" cy="460.834928464412" r="3.1181102362204727" fill="#1f77b4" fill-opacity="0.85" stroke="none"><title>(186.213203435596, 87.813961030679)</title></circle><circle cx="281.7133333333333" cy="606.5659517746906" r="3.1181102362204727" fill="#1f77b4" fill-opacity="0.85" stroke="none"><title>(165, 81.509650974232)</title></circle><circle cx="281.7133333333333" cy="604.989479210834" r="3.1181102362204727" fill="#1f77b4" fill-opacity="0.85" stroke="none"><title>(165, 81.577849025768)</title></circle><circle cx="281.7133333333333" cy="601.0100211235733" r="3.1181102362204727" fill="#1f77b4" fill-opacity="0.85" stroke="none"><title>(165, 81.75)</title></circle><circle cx="281.7133333333333" cy="610.2564586880619" r="3.1181102362204727" fill="#1f77b4" fill-opacity="0.85" stroke="none"><title>(165, 81.35)</title></circle><path d="M 87.21030303030292 759.9454545454546 L 93.80362609142267 754.5656557450327 L 100.3969491525424 749.2290844861183 L 106.99027221366188 743.9370004782245 L 113.58359527478162 738.6902327009493 L 120.17691833590136 733.4890113814932 L 126.7702413970211 728.3328177386243 L 133.36356445814056 723.220281791319 L 139.9568875192603 718.1491549384064 L 146.55021058038005 713.116370733979 L 153.14353364149977 708.1181878243551 L 159.73685670261924 703.1503906330724 L 166.330179763739 698.2085131185778 L 172.92350282485873 693.2880516145799 L 179.51682588597845 688.3846420556256 L 186.1101489470979 683.4941895929074 L 192.70347200821766 678.6129499170535 L 199.29679506933738 673.7375690012925 L 205.89011813045715 668.8650912349447 L 212.48344119157687 663.9929461100326 L 219.07676425269634 659.1189221262046 L 225.6700873138161 654.2411344868754 L 232.26341037493583 649.3579911343732 L 238.8567334360553 644.4681600137611 L 245.450056497175 639.5705392326138 L 252.04337955829476 634.6642309544404 L 258.63670261941445 629.7485193402398 L 265.23002568053425 624.8228525525153 L 271.8233487416537 619.886828685685 L 278.4166718027734 614.9401854347985 L 285.0099948638932 609.9827933225672 L 291.6033179250129 605.0146523489809 L 298.19664098613237 600.0358919913621 L 304.78996404725217 595.0467745546132 L 311.38328710837186 590.0477019443542 L 317.9766101694916 585.0392259980669 L 324.56993323061135 580.0220625547466 L 331.1632562917308 574.9971094508954 L 337.75657935285057 569.9654685789278 L 344.3499024139703 564.9284719937924 L 350.94322547508983 559.8877117531476 L 357.5365485362095 554.8450726536071 L 364.12987159732927 549.8027661954835 L 370.72319465844896 544.7633628867926 L 377.31651771956876 539.7298183381754 L 383.9098407806882 534.70548657643 L 390.503163841808 529.6941119109157 L 397.09648690292767 524.6997891904392 L 403.68980996404713 519.7268824804805 L 410.2831330251669 514.7798954472917 L 416.87645608628657 509.8632941324534 L 423.46977914740637 504.98129411241325 L 430.0631022085261 500.1376367408728 L 436.6564252696456 495.3353884637045 L 443.24974833076527 490.5767978821091 L 449.843071391885 485.86323497710737 L 456.4363944530048 481.19521852991625 L 463.0297175141242 476.5725183133471 L 469.62304057524403 471.99430534779174 L 476.2163636363637 467.4593199237552 L 476.2163636363637 452.18787878787873 L 469.62304057524403 457.50990395514793 L 463.0297175141242 462.790693775145 L 456.4363944530048 468.02898853837456 L 449.843071391885 473.2239592652294 L 443.24974833076527 478.37537572852 L 436.6564252696456 483.4837567094647 L 430.0631022085261 488.55047218908305 L 423.46977914740637 493.577770768575 L 416.87645608628657 498.56871889381574 L 410.2831330251669 503.5270579185047 L 403.68980996404713 508.45700341909014 L 397.09648690292767 513.3630214371517 L 390.503163841808 518.2496156389434 L 383.9098407806882 523.1211500899436 L 377.31651771956876 527.981719638959 L 370.72319465844896 532.8350685953513 L 364.12987159732927 537.6845509859144 L 357.5365485362095 542.5331224212938 L 350.94322547508983 547.383353409502 L 344.3499024139703 552.2374554508533 L 337.75657935285057 557.0973133419609 L 331.1632562917308 561.9645191404821 L 324.56993323061135 566.840404901367 L 317.9766101694916 571.7260725170305 L 311.38328710837186 576.6224198239735 L 304.78996404725217 581.5301626611919 L 298.19664098613237 586.4498528661668 L 291.6033179250129 591.3818923445184 L 285.0099948638932 596.3265434011502 L 278.4166718027734 601.2839355133834 L 271.8233487416537 606.2540686812087 L 265.23002568053425 611.2368134273365 L 258.63670261941445 616.2319074468165 L 252.04337955829476 621.2389488340689 L 245.450056497175 626.2573857515938 L 238.8567334360553 631.2865023603927 L 232.26341037493583 636.325400823973 L 225.6700873138161 641.3729792499105 L 219.07676425269634 646.4279055832681 L 212.48344119157687 651.4885877663731 L 205.89011813045715 656.5531410026406 L 199.29679506933738 661.6193537917202 L 192.70347200821766 666.6846556256332 L 186.1101489470979 671.7460908937003 L 179.51682588597845 676.8003055691497 L 172.92350282485873 681.8435553426101 L 166.330179763739 686.8717453652739 L 159.73685670261924 691.8805115716868 L 153.14353364149977 696.865350295559 L 146.55021058038005 701.821795495338 L 139.9568875192603 706.745631594559 L 133.36356445814056 711.6331172395431 L 126.7702413970211 716.4811859843799 L 120.17691833590136 721.2875892279004 L 113.58359527478162 726.0509569890812 L 106.99027221366188 730.7707704866893 L 100.3969491525424 735.4472599479246 L 93.80362609142267 740.0812543523876 L 87.21030303030292 744.6740134095899 Z" fill="#1f77b4" fill-opacity="0.2" stroke="none"/><line x1="87.21030303030292" y1="752.3097339775222" x2="93.80362609142267" y2="747.3234550487101" stroke="#1f77b4" stroke-width="1.4211023622047245"/><line x1="93.80362609142267" y1="747.3234550487101" x2="100.3969491525424" y2="742.3381722170213" stroke="#1f77b4" stroke-width="1.4211023622047245"/><line x1="100.3969491525424" y1="742.3381722170213" x2="106.99027221366188" y2="737.3538854824569" stroke="#1f77b4" stroke-width="1.4211023622047245"/><line x1="106.99027221366188" y1="737.3538854824569" x2="113.58359527478162" y2="732.3705948450153" stroke="#1f77b4" stroke-width="1.4211023622047245"/><line x1="113.58359527478162" y1="732.3705948450153" x2="120.17691833590136" y2="727.3883003046968" stroke="#1f77b4" stroke-width="1.4211023622047245"/><line x1="120.17691833590136" y1="727.3883003046968" x2="126.7702413970211" y2="722.4070018615021" stroke="#1f77b4" stroke-width="1.4211023622047245"/><line x1="126.7702413970211" y1="722.4070018615021" x2="133.36356445814056" y2="717.426699515431" stroke="#1f77b4" stroke-width="1.4211023622047245"/><line x1="133.36356445814056" y1="717.426699515431" x2="139.9568875192603" y2="712.4473932664828" stroke="#1f77b4" stroke-width="1.4211023622047245"/><line x1="139.9568875192603" y1="712.4473932664828" x2="146.55021058038005" y2="707.4690831146586" stroke="#1f77b4" stroke-width="1.4211023622047245"/><line x1="146.55021058038005" y1="707.4690831146586" x2="153.14353364149977" y2="702.4917690599569" stroke="#1f77b4" stroke-width="1.4211023622047245"/><line x1="153.14353364149977" y1="702.4917690599569" x2="159.73685670261924" y2="697.5154511023795" stroke="#1f77b4" stroke-width="1.4211023622047245"/><line x1="159.73685670261924" y1="697.5154511023795" x2="166.330179763739" y2="692.5401292419258" stroke="#1f77b4" stroke-width="1.4211023622047245"/><line x1="166.330179763739" y1="692.5401292419258" x2="172.92350282485873" y2="687.565803478595" stroke="#1f77b4" stroke-width="1.4211023622047245"/><line x1="172.92350282485873" y1="687.565803478595" x2="179.51682588597845" y2="682.5924738123877" stroke="#1f77b4" stroke-width="1.4211023622047245"/><line x1="179.51682588597845" y1="682.5924738123877" x2="186.1101489470979" y2="677.6201402433039" stroke="#1f77b4" stroke-width="1.4211023622047245"/><line x1="186.1101489470979" y1="677.6201402433039" x2="192.70347200821766" y2="672.6488027713433" stroke="#1f77b4" stroke-width="1.4211023622047245"/><line x1="192.70347200821766" y1="672.6488027713433" x2="199.29679506933738" y2="667.6784613965065" stroke="#1f77b4" stroke-width="1.4211023622047245"/><line x1="199.29679506933738" y1="667.6784613965065" x2="205.89011813045715" y2="662.7091161187927" stroke="#1f77b4" stroke-width="1.4211023622047245"/><line x1="205.89011813045715" y1="662.7091161187927" x2="212.48344119157687" y2="657.7407669382028" stroke="#1f77b4" stroke-width="1.4211023622047245"/><line x1="212.48344119157687" y1="657.7407669382028" x2="219.07676425269634" y2="652.7734138547362" stroke="#1f77b4" stroke-width="1.4211023622047245"/><line x1="219.07676425269634" y1="652.7734138547362" x2="225.6700873138161" y2="647.8070568683929" stroke="#1f77b4" stroke-width="1.4211023622047245"/><line x1="225.6700873138161" y1="647.8070568683929" x2="232.26341037493583" y2="642.8416959791731" stroke="#1f77b4" stroke-width="1.4211023622047245"/><line x1="232.26341037493583" y1="642.8416959791731" x2="238.8567334360553" y2="637.8773311870768" stroke="#1f77b4" stroke-width="1.4211023622047245"/><line x1="238.8567334360553" y1="637.8773311870768" x2="245.450056497175" y2="632.9139624921038" stroke="#1f77b4" stroke-width="1.4211023622047245"/><line x1="245.450056497175" y1="632.9139624921038" x2="252.04337955829476" y2="627.9515898942548" stroke="#1f77b4" stroke-width="1.4211023622047245"/><line x1="252.04337955829476" y1="627.9515898942548" x2="258.63670261941445" y2="622.9902133935282" stroke="#1f77b4" stroke-width="1.4211023622047245"/><line x1="258.63670261941445" y1="622.9902133935282" x2="265.23002568053425" y2="618.0298329899258" stroke="#1f77b4" stroke-width="1.4211023622047245"/><line x1="265.23002568053425" y1="618.0298329899258" x2="271.8233487416537" y2="613.0704486834468" stroke="#1f77b4" stroke-width="1.4211023622047245"/><line x1="271.8233487416537" y1="613.0704486834468" x2="278.4166718027734" y2="608.112060474091" stroke="#1f77b4" stroke-width="1.4211023622047245"/><line x1="278.4166718027734" y1="608.112060474091" x2="285.0099948638932" y2="603.1546683618586" stroke="#1f77b4" stroke-width="1.4211023622047245"/><line x1="285.0099948638932" y1="603.1546683618586" x2="291.6033179250129" y2="598.1982723467496" stroke="#1f77b4" stroke-width="1.4211023622047245"/><line x1="291.6033179250129" y1="598.1982723467496" x2="298.19664098613237" y2="593.2428724287645" stroke="#1f77b4" stroke-width="1.4211023622047245"/><line x1="298.19664098613237" y1="593.2428724287645" x2="304.78996404725217" y2="588.2884686079025" stroke="#1f77b4" stroke-width="1.4211023622047245"/><line x1="304.78996404725217" y1="588.2884686079025" x2="311.38328710837186" y2="583.3350608841638" stroke="#1f77b4" stroke-width="1.4211023622047245"/><line x1="311.38328710837186" y1="583.3350608841638" x2="317.9766101694916" y2="578.3826492575487" stroke="#1f77b4" stroke-width="1.4211023622047245"/><line x1="317.9766101694916" y1="578.3826492575487" x2="324.56993323061135" y2="573.4312337280568" stroke="#1f77b4" stroke-width="1.4211023622047245"/><line x1="324.56993323061135" y1="573.4312337280568" x2="331.1632562917308" y2="568.4808142956888" stroke="#1f77b4" stroke-width="1.4211023622047245"/><line x1="331.1632562917308" y1="568.4808142956888" x2="337.75657935285057" y2="563.5313909604444" stroke="#1f77b4" stroke-width="1.4211023622047245"/><line x1="337.75657935285057" y1="563.5313909604444" x2="344.3499024139703" y2="558.5829637223228" stroke="#1f77b4" stroke-width="1.4211023622047245"/><line x1="344.3499024139703" y1="558.5829637223228" x2="350.94322547508983" y2="553.6355325813248" stroke="#1f77b4" stroke-width="1.4211023622047245"/><line x1="350.94322547508983" y1="553.6355325813248" x2="357.5365485362095" y2="548.6890975374505" stroke="#1f77b4" stroke-width="1.4211023622047245"/><line x1="357.5365485362095" y1="548.6890975374505" x2="364.12987159732927" y2="543.7436585906989" stroke="#1f77b4" stroke-width="1.4211023622047245"/><line x1="364.12987159732927" y1="543.7436585906989" x2="370.72319465844896" y2="538.799215741072" stroke="#1f77b4" stroke-width="1.4211023622047245"/><line x1="370.72319465844896" y1="538.799215741072" x2="377.31651771956876" y2="533.8557689885672" stroke="#1f77b4" stroke-width="1.4211023622047245"/><line x1="377.31651771956876" y1="533.8557689885672" x2="383.9098407806882" y2="528.9133183331867" stroke="#1f77b4" stroke-width="1.4211023622047245"/><line x1="383.9098407806882" y1="528.9133183331867" x2="390.503163841808" y2="523.9718637749295" stroke="#1f77b4" stroke-width="1.4211023622047245"/><line x1="390.503163841808" y1="523.9718637749295" x2="397.09648690292767" y2="519.0314053137955" stroke="#1f77b4" stroke-width="1.4211023622047245"/><line x1="397.09648690292767" y1="519.0314053137955" x2="403.68980996404713" y2="514.0919429497853" stroke="#1f77b4" stroke-width="1.4211023622047245"/><line x1="403.68980996404713" y1="514.0919429497853" x2="410.2831330251669" y2="509.1534766828982" stroke="#1f77b4" stroke-width="1.4211023622047245"/><line x1="410.2831330251669" y1="509.1534766828982" x2="416.87645608628657" y2="504.2160065131346" stroke="#1f77b4" stroke-width="1.4211023622047245"/><line x1="416.87645608628657" y1="504.2160065131346" x2="423.46977914740637" y2="499.27953244049405" stroke="#1f77b4" stroke-width="1.4211023622047245"/><line x1="423.46977914740637" y1="499.27953244049405" x2="430.0631022085261" y2="494.34405446497794" stroke="#1f77b4" stroke-width="1.4211023622047245"/><line x1="430.0631022085261" y1="494.34405446497794" x2="436.6564252696456" y2="489.40957258658455" stroke="#1f77b4" stroke-width="1.4211023622047245"/><line x1="436.6564252696456" y1="489.40957258658455" x2="443.24974833076527" y2="484.47608680531454" stroke="#1f77b4" stroke-width="1.4211023622047245"/><line x1="443.24974833076527" y1="484.47608680531454" x2="449.843071391885" y2="479.5435971211683" stroke="#1f77b4" stroke-width="1.4211023622047245"/><line x1="449.843071391885" y1="479.5435971211683" x2="456.4363944530048" y2="474.6121035341454" stroke="#1f77b4" stroke-width="1.4211023622047245"/><line x1="456.4363944530048" y1="474.6121035341454" x2="463.0297175141242" y2="469.6816060442461" stroke="#1f77b4" stroke-width="1.4211023622047245"/><line x1="463.0297175141242" y1="469.6816060442461" x2="469.62304057524403" y2="464.7521046514699" stroke="#1f77b4" stroke-width="1.4211023622047245"/><line x1="469.62304057524403" y1="464.7521046514699" x2="476.2163636363637" y2="459.823599355817" stroke="#1f77b4" stroke-width="1.4211023622047245"/><rect x="0.0" y="0.0" width="0.0" height="0.0" fill="#ffffff" fill-opacity="1.0" stroke="none"/><line x1="647.178921644728" y1="436.79999999999995" x2="647.178921644728" y2="775.3333333333333" stroke="#dddddd" stroke-width="0.6666666666666666"/><line x1="757.2064509956123" y1="436.79999999999995" x2="757.2064509956123" y2="775.3333333333333" stroke="#dddddd" stroke-width="0.6666666666666666"/><line x1="867.2339803464965" y1="436.79999999999995" x2="867.2339803464965" y2="775.3333333333333" stroke="#dddddd" stroke-width="0.6666666666666666"/><line x1="977.2615096973807" y1="436.79999999999995" x2="977.2615096973807" y2="775.3333333333333" stroke="#dddddd" stroke-width="0.6666666666666666"/><line x1="592.1651569692859" y1="436.79999999999995" x2="592.1651569692859" y2="775.3333333333333" stroke="#dddddd" stroke-width="1.3333333333333333"/><line x1="702.1926863201702" y1="436.79999999999995" x2="702.1926863201702" y2="775.3333333333333" stroke="#dddddd" stroke-width="1.3333333333333333"/><line x1="812.2202156710543" y1="436.79999999999995" x2="812.2202156710543" y2="775.3333333333333" stroke="#dddddd" stroke-width="1.3333333333333333"/><line x1="922.2477450219385" y1="436.79999999999995" x2="922.2477450219385" y2="775.3333333333333" stroke="#dddddd" stroke-width="1.3333333333333333"/><line x1="570.76" y1="749.238413344001" x2="998.6666666666666" y2="749.238413344001" stroke="#dddddd" stroke-width="0.6666666666666666"/><line x1="570.76" y1="681.7841157339404" x2="998.6666666666666" y2="681.7841157339404" stroke="#dddddd" stroke-width="0.6666666666666666"/><line x1="570.76" y1="614.3298181238799" x2="998.6666666666666" y2="614.3298181238799" stroke="#dddddd" stroke-width="0.6666666666666666"/><line x1="570.76" y1="546.8755205138195" x2="998.6666666666666" y2="546.8755205138195" stroke="#dddddd" stroke-width="0.6666666666666666"/><line x1="570.76" y1="479.42122290375903" x2="998.6666666666666" y2="479.42122290375903" stroke="#dddddd" stroke-width="0.6666666666666666"/><line x1="570.76" y1="715.5112645389706" x2="998.6666666666666" y2="715.5112645389706" stroke="#dddddd" stroke-width="1.3333333333333333"/><line x1="570.76" y1="648.0569669289102" x2="998.6666666666666" y2="648.0569669289102" stroke="#dddddd" stroke-width="1.3333333333333333"/><line x1="570.76" y1="580.6026693188497" x2="998.6666666666666" y2="580.6026693188497" stroke="#dddddd" stroke-width="1.3333333333333333"/><line x1="570.76" y1="513.1483717087892" x2="998.6666666666666" y2="513.1483717087892" stroke="#dddddd" stroke-width="1.3333333333333333"/><line x1="570.76" y1="445.69407409872883" x2="998.6666666666666" y2="445.69407409872883" stroke="#dddddd" stroke-width="1.3333333333333333"/><rect x="570.76" y="436.79999999999995" width="427.90666666666664" height="338.53333333333336" fill="#ffffff" fill-opacity="0.0" stroke="#444444" stroke-width="1.3333333333333333"/><line x1="592.1651569692859" y1="775.3333333333333" x2="592.1651569692859" y2="779.0" stroke="#444444" stroke-width="1.3333333333333333"/><text x="592.1651569692859" y="791.3199999999999" fill="#333333" font-size="11.733333333333334" font-family="sans-serif" text-anchor="middle">8</text><line x1="702.1926863201702" y1="775.3333333333333" x2="702.1926863201702" y2="779.0" stroke="#444444" stroke-width="1.3333333333333333"/><text x="702.1926863201702" y="791.3199999999999" fill="#333333" font-size="11.733333333333334" font-family="sans-serif" text-anchor="middle">12</text><line x1="812.2202156710543" y1="775.3333333333333" x2="812.2202156710543" y2="779.0" stroke="#444444" stroke-width="1.3333333333333333"/><text x="812.2202156710543" y="791.3199999999999" fill="#333333" font-size="11.733333333333334" font-family="sans-serif" text-anchor="middle">16</text><line x1="922.2477450219385" y1="775.3333333333333" x2="922.2477450219385" y2="779.0" stroke="#444444" stroke-width="1.3333333333333333"/><text x="922.2477450219385" y="791.3199999999999" fill="#333333" font-size="11.733333333333334" font-family="sans-serif" text-anchor="middle">20</text><line x1="570.76" y1="715.5112645389706" x2="567.0933333333332" y2="715.5112645389706" stroke="#444444" stroke-width="1.3333333333333333"/><text x="564.16" y="719.6179312056374" fill="#333333" font-size="11.733333333333334" font-family="sans-serif" text-anchor="end">75.0</text><line x1="570.76" y1="648.0569669289102" x2="567.0933333333332" y2="648.0569669289102" stroke="#444444" stroke-width="1.3333333333333333"/><text x="564.16" y="652.1636335955768" fill="#333333" font-size="11.733333333333334" font-family="sans-serif" text-anchor="end">77.5</text><line x1="570.76" y1="580.6026693188497" x2="567.0933333333332" y2="580.6026693188497" stroke="#444444" stroke-width="1.3333333333333333"/><text x="564.16" y="584.7093359855164" fill="#333333" font-size="11.733333333333334" font-family="sans-serif" text-anchor="end">80.0</text><line x1="570.76" y1="513.1483717087892" x2="567.0933333333332" y2="513.1483717087892" stroke="#444444" stroke-width="1.3333333333333333"/><text x="564.16" y="517.2550383754559" fill="#333333" font-size="11.733333333333334" font-family="sans-serif" text-anchor="end">82.5</text><line x1="570.76" y1="445.69407409872883" x2="567.0933333333332" y2="445.69407409872883" stroke="#444444" stroke-width="1.3333333333333333"/><text x="564.16" y="449.80074076539546" fill="#333333" font-size="11.733333333333334" font-family="sans-serif" text-anchor="end">85.0</text><text x="784.7133333333333" y="809.0666666666666" fill="#333333" font-size="14.666666666666666" font-family="sans-serif" text-anchor="middle">time</text><text x="527.9333333333333" y="606.0666666666666" fill="#333333" font-size="14.666666666666666" font-family="sans-serif" text-anchor="middle" transform="rotate(-90.0 527.9333333333333 606.0666666666666)">partial: yield</text><circle cx="647.178921644728" cy="674.8266502497017" r="3.1181102362204727" fill="#1f77b4" fill-opacity="0.85" stroke="none"><title>(10, 76.507858495705)</title></circle><circle cx="922.2477450219385" cy="471.11467146732264" r="3.1181102362204727" fill="#1f77b4" fill-opacity="0.85" stroke="none"><title>(20, 84.057858495705)</title></circle><circle cx="647.178921644728" cy="673.3957285118898" r="3.1181102362204727" fill="#1f77b4" fill-opacity="0.85" stroke="none"><title>(10, 76.560891504295)</title></circle><circle cx="922.2477450219385" cy="469.68374972950426" r="3.1181102362204727" fill="#1f77b4" fill-opacity="0.85" stroke="none"><title>(20, 84.110891504295)</title></circle><circle cx="784.7133333333334" cy="537.937826080492" r="3.1181102362204727" fill="#1f77b4" fill-opacity="0.85" stroke="none"><title>(15, 81.58125)</title></circle><circle cx="784.7133333333334" cy="539.9614550087836" r="3.1181102362204727" fill="#1f77b4" fill-opacity="0.85" stroke="none"><title>(15, 81.50625)</title></circle><circle cx="590.2103030303031" cy="752.1215246824645" r="3.1181102362204727" fill="#1f77b4" fill-opacity="0.85" stroke="none"><title>(7.928932188135, 73.643145750508)</title></circle><circle cx="979.2163636363636" cy="460.34908013888116" r="3.1181102362204727" fill="#1f77b4" fill-opacity="0.85" stroke="none"><title>(22.071067811865, 84.456854249492)</title></circle><circle cx="784.7133333333334" cy="533.3846609918074" r="3.1181102362204727" fill="#1f77b4" fill-opacity="0.85" stroke="none"><title>(15, 81.75)</title></circle><circle cx="784.7133333333334" cy="544.1773486094173" r="3.1181102362204727" fill="#1f77b4" fill-opacity="0.85" stroke="none"><title>(15, 81.35)</title></circle><path d="M 590.2103030303031 759.9454545454544 L 596.8036260914226 750.087598007519 L 603.3969491525423 740.4336703806513 L 609.990272213662 730.9851420312816 L 616.5835952747816 721.7429805664099 L 623.1769183359013 712.7074547133476 L 629.770241397021 703.8779589368753 L 636.3635644581407 695.2528941587152 L 642.9568875192604 686.8296357518299 L 649.55021058038 678.6046044790888 L 656.1435336414997 670.5734333330554 L 662.7368567026194 662.7312017808694 L 669.3301797637391 655.0726969401559 L 675.9235028248587 647.5926620119824 L 682.5168258859784 640.2860031431424 L 689.1101489470981 633.1479407173244 L 695.7034720082177 626.1741042771475 L 702.2967950693375 619.3605789134143 L 708.890118130457 612.7039147588353 L 715.4834411915768 606.2011114481804 L 722.0767642526964 599.8495876594757 L 728.6700873138161 593.6471434080643 L 735.2634103749358 587.5919204019391 L 741.8567334360555 581.68236383118 L 748.4500564971752 575.9171875376683 L 755.0433795582949 570.2953435427827 L 761.6367026194145 564.8159963002361 L 768.230025680534 559.4785016906226 L 774.8233487416538 554.2823905990738 L 781.4166718027734 549.2273568563015 L 788.0099948638932 544.3132493329559 L 794.6033179250128 539.5400680290338 L 801.1966409861325 534.9079640738692 L 807.7899640472522 530.4172436367719 L 814.3832871083719 526.068375832622 L 820.9766101694914 521.8620047808014 L 827.5699332306112 517.7989660276262 L 834.1632562917309 513.8803075516837 L 840.7565793528506 510.10731551109814 L 847.3499024139703 506.4815447158022 L 853.94322547509 503.00485345779964 L 860.5365485362096 499.6794417217644 L 867.1298715973292 496.5078908296572 L 873.723194658449 493.4932011466686 L 880.3165177195685 490.6388225401496 L 886.9098407806883 487.94866991925164 L 893.5031638418079 485.42711374141373 L 900.0964869029276 483.07893362288326 L 906.6898099640473 480.90922341688747 L 913.283133025167 478.9232399223746 L 919.8764560862866 477.1261960216946 L 926.4697791474064 475.52301224773305 L 933.063102208526 474.1180556079281 L 939.6564252696455 472.9149053393853 L 946.2497483307652 471.91618606915745 L 952.8430713918849 471.1234968755159 L 959.4363944530047 470.5374432936822 L 966.0297175141243 470.15775659634653 L 972.623040575244 469.983469176513 L 979.2163636363636 470.01311066775384 L 979.2163636363636 452.18787878787873 L 972.623040575244 453.0768909978002 L 966.0297175141243 454.07124479071786 L 959.4363944530047 455.16946980020157 L 952.8430713918849 456.3705984192591 L 946.2497483307652 457.67436192057704 L 939.6564252696455 459.08136583937824 L 933.063102208526 460.5932092539336 L 926.4697791474064 462.212516791298 L 919.8764560862866 463.9428676885739 L 913.283133025167 465.78862895320344 L 906.6898099640473 467.75472111806744 L 900.0964869029276 469.8463570655199 L 893.5031638418079 472.0687935945057 L 886.9098407806883 474.4271245582552 L 880.3165177195685 476.9261295730137 L 873.723194658449 479.57017909622084 L 867.1298715973292 482.3631880370281 L 860.5365485362096 485.3086062627865 L 853.94322547509 488.4094341386857 L 847.3499024139703 491.66825298668965 L 840.7565793528506 495.0872627914676 L 834.1632562917309 498.66832184502647 L 827.5699332306112 502.4129849572979 L 820.9766101694914 506.3225382864065 L 814.3832871083719 510.3980298109385 L 807.7899640472522 514.6402950772118 L 801.1966409861325 519.0499782046074 L 794.6033179250128 523.627548308006 L 788.0099948638932 528.3733115567155 L 781.4166718027734 533.2874190800718 L 774.8233487416538 538.3698708780705 L 768.230025680534 543.620515821363 L 761.6367026194145 549.0390477406606 L 755.0433795582949 554.6249975210947 L 748.4500564971752 560.3777210432588 L 741.8567334360555 566.2963827608671 L 735.2634103749358 572.3799346952972 L 728.6700873138161 578.6270906884322 L 722.0767642526964 585.0362959303493 L 715.4834411915768 591.6056921290435 L 708.890118130457 598.3330792998565 L 702.2967950693375 605.2158761208159 L 695.7034720082177 612.25108222669 L 689.1101489470981 619.4352477501908 L 682.5168258859784 626.7644577821197 L 675.9235028248587 634.2343418650967 L 669.3301797637391 641.8401203828093 L 662.7368567026194 649.5766994820524 L 656.1435336414997 657.4388223638919 L 649.55021058038 665.4212761459543 L 642.9568875192604 673.5191402953789 L 636.3635644581407 681.7280478047282 L 629.770241397021 690.044419436873 L 623.1769183359013 698.4656305647741 L 616.5835952747816 706.9900821101561 L 609.990272213662 715.6171685377986 L 603.3969491525423 724.3471585750119 L 596.8036260914226 733.1810198287969 L 590.2103030303031 742.1202226655839 Z" fill="#1f77b4" fill-opacity="0.2" stroke="none"/><line x1="590.2103030303031" y1="751.0328386055191" x2="596.8036260914226" y2="741.634308918158" stroke="#1f77b4" stroke-width="1.4211023622047245"/><line x1="596.8036260914226" y1="741.634308918158" x2="603.3969491525423" y2="732.3904144778317" stroke="#1f77b4" stroke-width="1.4211023622047245"/><line x1="603.3969491525423" y1="732.3904144778317" x2="609.990272213662" y2="723.3011552845401" stroke="#1f77b4" stroke-width="1.4211023622047245"/><line x1="609.990272213662" y1="723.3011552845401" x2="616.5835952747816" y2="714.366531338283" stroke="#1f77b4" stroke-width="1.4211023622047245"/><line x1="616.5835952747816" y1="714.366531338283" x2="623.1769183359013" y2="705.5865426390608" stroke="#1f77b4" stroke-width="1.4211023622047245"/><line x1="623.1769183359013" y1="705.5865426390608" x2="629.770241397021" y2="696.9611891868742" stroke="#1f77b4" stroke-width="1.4211023622047245"/><line x1="629.770241397021" y1="696.9611891868742" x2="636.3635644581407" y2="688.4904709817216" stroke="#1f77b4" stroke-width="1.4211023622047245"/><line x1="636.3635644581407" y1="688.4904709817216" x2="642.9568875192604" y2="680.1743880236044" stroke="#1f77b4" stroke-width="1.4211023622047245"/><line x1="642.9568875192604" y1="680.1743880236044" x2="649.55021058038" y2="672.0129403125216" stroke="#1f77b4" stroke-width="1.4211023622047245"/><line x1="649.55021058038" y1="672.0129403125216" x2="656.1435336414997" y2="664.0061278484736" stroke="#1f77b4" stroke-width="1.4211023622047245"/><line x1="656.1435336414997" y1="664.0061278484736" x2="662.7368567026194" y2="656.1539506314608" stroke="#1f77b4" stroke-width="1.4211023622047245"/><line x1="662.7368567026194" y1="656.1539506314608" x2="669.3301797637391" y2="648.4564086614826" stroke="#1f77b4" stroke-width="1.4211023622047245"/><line x1="669.3301797637391" y1="648.4564086614826" x2="675.9235028248587" y2="640.9135019385395" stroke="#1f77b4" stroke-width="1.4211023622047245"/><line x1="675.9235028248587" y1="640.9135019385395" x2="682.5168258859784" y2="633.525230462631" stroke="#1f77b4" stroke-width="1.4211023622047245"/><line x1="682.5168258859784" y1="633.525230462631" x2="689.1101489470981" y2="626.2915942337577" stroke="#1f77b4" stroke-width="1.4211023622047245"/><line x1="689.1101489470981" y1="626.2915942337577" x2="695.7034720082177" y2="619.2125932519187" stroke="#1f77b4" stroke-width="1.4211023622047245"/><line x1="695.7034720082177" y1="619.2125932519187" x2="702.2967950693375" y2="612.2882275171152" stroke="#1f77b4" stroke-width="1.4211023622047245"/><line x1="702.2967950693375" y1="612.2882275171152" x2="708.890118130457" y2="605.518497029346" stroke="#1f77b4" stroke-width="1.4211023622047245"/><line x1="708.890118130457" y1="605.518497029346" x2="715.4834411915768" y2="598.903401788612" stroke="#1f77b4" stroke-width="1.4211023622047245"/><line x1="715.4834411915768" y1="598.903401788612" x2="722.0767642526964" y2="592.4429417949125" stroke="#1f77b4" stroke-width="1.4211023622047245"/><line x1="722.0767642526964" y1="592.4429417949125" x2="728.6700873138161" y2="586.1371170482482" stroke="#1f77b4" stroke-width="1.4211023622047245"/><line x1="728.6700873138161" y1="586.1371170482482" x2="735.2634103749358" y2="579.9859275486181" stroke="#1f77b4" stroke-width="1.4211023622047245"/><line x1="735.2634103749358" y1="579.9859275486181" x2="741.8567334360555" y2="573.9893732960236" stroke="#1f77b4" stroke-width="1.4211023622047245"/><line x1="741.8567334360555" y1="573.9893732960236" x2="748.4500564971752" y2="568.1474542904635" stroke="#1f77b4" stroke-width="1.4211023622047245"/><line x1="748.4500564971752" y1="568.1474542904635" x2="755.0433795582949" y2="562.4601705319387" stroke="#1f77b4" stroke-width="1.4211023622047245"/><line x1="755.0433795582949" y1="562.4601705319387" x2="761.6367026194145" y2="556.9275220204484" stroke="#1f77b4" stroke-width="1.4211023622047245"/><line x1="761.6367026194145" y1="556.9275220204484" x2="768.230025680534" y2="551.5495087559927" stroke="#1f77b4" stroke-width="1.4211023622047245"/><line x1="768.230025680534" y1="551.5495087559927" x2="774.8233487416538" y2="546.3261307385721" stroke="#1f77b4" stroke-width="1.4211023622047245"/><line x1="774.8233487416538" y1="546.3261307385721" x2="781.4166718027734" y2="541.2573879681867" stroke="#1f77b4" stroke-width="1.4211023622047245"/><line x1="781.4166718027734" y1="541.2573879681867" x2="788.0099948638932" y2="536.3432804448357" stroke="#1f77b4" stroke-width="1.4211023622047245"/><line x1="788.0099948638932" y1="536.3432804448357" x2="794.6033179250128" y2="531.5838081685199" stroke="#1f77b4" stroke-width="1.4211023622047245"/><line x1="794.6033179250128" y1="531.5838081685199" x2="801.1966409861325" y2="526.9789711392383" stroke="#1f77b4" stroke-width="1.4211023622047245"/><line x1="801.1966409861325" y1="526.9789711392383" x2="807.7899640472522" y2="522.5287693569919" stroke="#1f77b4" stroke-width="1.4211023622047245"/><line x1="807.7899640472522" y1="522.5287693569919" x2="814.3832871083719" y2="518.2332028217803" stroke="#1f77b4" stroke-width="1.4211023622047245"/><line x1="814.3832871083719" y1="518.2332028217803" x2="820.9766101694914" y2="514.0922715336039" stroke="#1f77b4" stroke-width="1.4211023622047245"/><line x1="820.9766101694914" y1="514.0922715336039" x2="827.5699332306112" y2="510.10597549246205" stroke="#1f77b4" stroke-width="1.4211023622047245"/><line x1="827.5699332306112" y1="510.10597549246205" x2="834.1632562917309" y2="506.27431469835506" stroke="#1f77b4" stroke-width="1.4211023622047245"/><line x1="834.1632562917309" y1="506.27431469835506" x2="840.7565793528506" y2="502.5972891512829" stroke="#1f77b4" stroke-width="1.4211023622047245"/><line x1="840.7565793528506" y1="502.5972891512829" x2="847.3499024139703" y2="499.07489885124596" stroke="#1f77b4" stroke-width="1.4211023622047245"/><line x1="847.3499024139703" y1="499.07489885124596" x2="853.94322547509" y2="495.7071437982427" stroke="#1f77b4" stroke-width="1.4211023622047245"/><line x1="853.94322547509" y1="495.7071437982427" x2="860.5365485362096" y2="492.4940239922754" stroke="#1f77b4" stroke-width="1.4211023622047245"/><line x1="860.5365485362096" y1="492.4940239922754" x2="867.1298715973292" y2="489.4355394333427" stroke="#1f77b4" stroke-width="1.4211023622047245"/><line x1="867.1298715973292" y1="489.4355394333427" x2="873.723194658449" y2="486.53169012144474" stroke="#1f77b4" stroke-width="1.4211023622047245"/><line x1="873.723194658449" y1="486.53169012144474" x2="880.3165177195685" y2="483.78247605658163" stroke="#1f77b4" stroke-width="1.4211023622047245"/><line x1="880.3165177195685" y1="483.78247605658163" x2="886.9098407806883" y2="481.1878972387534" stroke="#1f77b4" stroke-width="1.4211023622047245"/><line x1="886.9098407806883" y1="481.1878972387534" x2="893.5031638418079" y2="478.7479536679596" stroke="#1f77b4" stroke-width="1.4211023622047245"/><line x1="893.5031638418079" y1="478.7479536679596" x2="900.0964869029276" y2="476.4626453442015" stroke="#1f77b4" stroke-width="1.4211023622047245"/><line x1="900.0964869029276" y1="476.4626453442015" x2="906.6898099640473" y2="474.33197226747745" stroke="#1f77b4" stroke-width="1.4211023622047245"/><line x1="906.6898099640473" y1="474.33197226747745" x2="913.283133025167" y2="472.3559344377891" stroke="#1f77b4" stroke-width="1.4211023622047245"/><line x1="913.283133025167" y1="472.3559344377891" x2="919.8764560862866" y2="470.5345318551343" stroke="#1f77b4" stroke-width="1.4211023622047245"/><line x1="919.8764560862866" y1="470.5345318551343" x2="926.4697791474064" y2="468.86776451951556" stroke="#1f77b4" stroke-width="1.4211023622047245"/><line x1="926.4697791474064" y1="468.86776451951556" x2="933.063102208526" y2="467.3556324309309" stroke="#1f77b4" stroke-width="1.4211023622047245"/><line x1="933.063102208526" y1="467.3556324309309" x2="939.6564252696455" y2="465.9981355893818" stroke="#1f77b4" stroke-width="1.4211023622047245"/><line x1="939.6564252696455" y1="465.9981355893818" x2="946.2497483307652" y2="464.7952739948672" stroke="#1f77b4" stroke-width="1.4211023622047245"/><line x1="946.2497483307652" y1="464.7952739948672" x2="952.8430713918849" y2="463.74704764738755" stroke="#1f77b4" stroke-width="1.4211023622047245"/><line x1="952.8430713918849" y1="463.74704764738755" x2="959.4363944530047" y2="462.85345654694186" stroke="#1f77b4" stroke-width="1.4211023622047245"/><line x1="959.4363944530047" y1="462.85345654694186" x2="966.0297175141243" y2="462.1145006935322" stroke="#1f77b4" stroke-width="1.4211023622047245"/><line x1="966.0297175141243" y1="462.1145006935322" x2="972.623040575244" y2="461.5301800871566" stroke="#1f77b4" stroke-width="1.4211023622047245"/><line x1="972.623040575244" y1="461.5301800871566" x2="979.2163636363636" y2="461.10049472781634" stroke="#1f77b4" stroke-width="1.4211023622047245"/></svg>