<svg xmlns="http://www.w3.org/2000/svg" width="1013" height="613" viewBox="0 0 1013 613"><rect x="0.0" y="0.0" width="1013.3333333333333" height="613.3333333333333" fill="#ffffff" fill-opacity="1.0" stroke="none"/><text x="60.72" y="21.413333333333334" fill="#333333" font-size="17.599999999999998" font-family="sans-serif" text-anchor="start">DOE profiler (HBM 版・designModelHBM・帯 = 階層ベイズ事後予測帯・lot 変量切片)</text><rect x="0.0" y="0.0" width="0.0" height="0.0" fill="#ffffff" fill-opacity="1.0" stroke="none"/><line x1="290.688487969948" y1="39.599999999999994" x2="290.688487969948" y2="562.0" stroke="#dddddd" stroke-width="0.6666666666666666"/><line x1="529.6933333333334" y1="39.599999999999994" x2="529.6933333333334" y2="562.0" stroke="#dddddd" stroke-width="0.6666666666666666"/><line x1="768.6981786967186" y1="39.599999999999994" x2="768.6981786967186" y2="562.0" stroke="#dddddd" stroke-width="0.6666666666666666"/><line x1="171.18606528825535" y1="39.599999999999994" x2="171.18606528825535" y2="562.0" stroke="#dddddd" stroke-width="1.3333333333333333"/><line x1="410.1909106516407" y1="39.599999999999994" x2="410.1909106516407" y2="562.0" stroke="#dddddd" stroke-width="1.3333333333333333"/><line x1="649.195756015026" y1="39.599999999999994" x2="649.195756015026" y2="562.0" stroke="#dddddd" stroke-width="1.3333333333333333"/><line x1="888.2006013784113" y1="39.599999999999994" x2="888.2006013784113" y2="562.0" stroke="#dddddd" stroke-width="1.3333333333333333"/><line x1="60.72" y1="544.9229606627838" x2="998.6666666666666" y2="544.9229606627838" stroke="#dddddd" stroke-width="0.6666666666666666"/><line x1="60.72" y1="428.7573656769744" x2="998.6666666666666" y2="428.7573656769744" stroke="#dddddd" stroke-width="0.6666666666666666"/><line x1="60.72" y1="312.59177069116504" x2="998.6666666666666" y2="312.59177069116504" stroke="#dddddd" stroke-width="0.6666666666666666"/><line x1="60.72" y1="196.42617570535572" x2="998.6666666666666" y2="196.42617570535572" stroke="#dddddd" stroke-width="0.6666666666666666"/><line x1="60.72" y1="80.26058071954631" x2="998.6666666666666" y2="80.26058071954631" stroke="#dddddd" stroke-width="0.6666666666666666"/><line x1="60.72" y1="486.84016316987913" x2="998.6666666666666" y2="486.84016316987913" stroke="#dddddd" stroke-width="1.3333333333333333"/><line x1="60.72" y1="370.6745681840698" x2="998.6666666666666" y2="370.6745681840698" stroke="#dddddd" stroke-width="1.3333333333333333"/><line x1="60.72" y1="254.5089731982604" x2="998.6666666666666" y2="254.5089731982604" stroke="#dddddd" stroke-width="1.3333333333333333"/><line x1="60.72" y1="138.343378212451" x2="998.6666666666666" y2="138.343378212451" stroke="#dddddd" stroke-width="1.3333333333333333"/><rect x="60.72" y="39.599999999999994" width="937.9466666666667" height="522.4" fill="#ffffff" fill-opacity="0.0" stroke="#444444" stroke-width="1.3333333333333333"/><line x1="171.18606528825535" y1="562.0" x2="171.18606528825535" y2="565.6666666666666" stroke="#444444" stroke-width="1.3333333333333333"/><text x="171.18606528825535" y="577.9866666666667" fill="#333333" font-size="11.733333333333334" font-family="sans-serif" text-anchor="middle">150</text><line x1="410.1909106516407" y1="562.0" x2="410.1909106516407" y2="565.6666666666666" stroke="#444444" stroke-width="1.3333333333333333"/><text x="410.1909106516407" y="577.9866666666667" fill="#333333" font-size="11.733333333333334" font-family="sans-serif" text-anchor="middle">160</text><line x1="649.195756015026" y1="562.0" x2="649.195756015026" y2="565.6666666666666" stroke="#444444" stroke-width="1.3333333333333333"/><text x="649.195756015026" y="577.9866666666667" fill="#333333" font-size="11.733333333333334" font-family="sans-serif" text-anchor="middle">170</text><line x1="888.2006013784113" y1="562.0" x2="888.2006013784113" y2="565.6666666666666" stroke="#444444" stroke-width="1.3333333333333333"/><text x="888.2006013784113" y="577.9866666666667" fill="#333333" font-size="11.733333333333334" font-family="sans-serif" text-anchor="middle">180</text><line x1="60.72" y1="486.84016316987913" x2="57.05333333333333" y2="486.84016316987913" stroke="#444444" stroke-width="1.3333333333333333"/><text x="54.11999999999999" y="490.94682983654576" fill="#333333" font-size="11.733333333333334" font-family="sans-serif" text-anchor="end">140</text><line x1="60.72" y1="370.6745681840698" x2="57.05333333333333" y2="370.6745681840698" stroke="#444444" stroke-width="1.3333333333333333"/><text x="54.11999999999999" y="374.78123485073644" fill="#333333" font-size="11.733333333333334" font-family="sans-serif" text-anchor="end">150</text><line x1="60.72" y1="254.5089731982604" x2="57.05333333333333" y2="254.5089731982604" stroke="#444444" stroke-width="1.3333333333333333"/><text x="54.11999999999999" y="258.61563986492706" fill="#333333" font-size="11.733333333333334" font-family="sans-serif" text-anchor="end">160</text><line x1="60.72" y1="138.343378212451" x2="57.05333333333333" y2="138.343378212451" stroke="#444444" stroke-width="1.3333333333333333"/><text x="54.11999999999999" y="142.45004487911768" fill="#333333" font-size="11.733333333333334" font-family="sans-serif" text-anchor="end">170</text><text x="529.6933333333334" y="595.7333333333333" fill="#333333" font-size="14.666666666666666" font-family="sans-serif" text-anchor="middle">temp</text><text x="24.93333333333333" y="300.79999999999995" fill="#333333" font-size="14.666666666666666" font-family="sans-serif" text-anchor="middle" transform="rotate(-90.0 24.93333333333333 300.79999999999995)">y</text><circle cx="171.18606528825535" cy="417.14080617839346" r="3.1181102362204727" fill="#1f77b4" fill-opacity="0.85" stroke="none"><title>(150, 146)</title></circle><circle cx="888.2006013784113" cy="218.49763875265958" r="3.1181102362204727" fill="#1f77b4" fill-opacity="0.85" stroke="none"><title>(180, 163.1)</title></circle><circle cx="103.35393939393926" cy="460.8983536748833" r="3.1181102362204727" fill="#1f77b4" fill-opacity="0.85" stroke="none"><title>(147.161893274959, 142.233174934297)</title></circle><circle cx="956.0327272727274" cy="218.04571968800565" r="3.1181102362204727" fill="#1f77b4" fill-opacity="0.85" stroke="none"><title>(182.838106725041, 163.138903004346)</title></circle><circle cx="529.6933333333334" cy="264.96387674698326" r="3.1181102362204727" fill="#1f77b4" fill-opacity="0.85" stroke="none"><title>(165, 159.1)</title></circle><circle cx="171.18606528825535" cy="424.11074187754195" r="3.1181102362204727" fill="#1f77b4" fill-opacity="0.85" stroke="none"><title>(150, 145.4)</title></circle><circle cx="888.2006013784113" cy="211.527703053511" r="3.1181102362204727" fill="#1f77b4" fill-opacity="0.85" stroke="none"><title>(180, 163.7)</title></circle><circle cx="103.35393939393926" cy="467.8682893740321" r="3.1181102362204727" fill="#1f77b4" fill-opacity="0.85" stroke="none"><title>(147.161893274959, 141.633174934297)</title></circle><circle cx="956.0327272727274" cy="211.07578398885713" r="3.1181102362204727" fill="#1f77b4" fill-opacity="0.85" stroke="none"><title>(182.838106725041, 163.738903004346)</title></circle><circle cx="529.6933333333334" cy="271.93381244613175" r="3.1181102362204727" fill="#1f77b4" fill-opacity="0.85" stroke="none"><title>(165, 158.5)</title></circle><circle cx="171.18606528825535" cy="324.208330189746" r="3.1181102362204727" fill="#1f77b4" fill-opacity="0.85" stroke="none"><title>(150, 154)</title></circle><circle cx="888.2006013784113" cy="125.5651627640121" r="3.1181102362204727" fill="#1f77b4" fill-opacity="0.85" stroke="none"><title>(180, 171.1)</title></circle><circle cx="103.35393939393926" cy="367.9658776862358" r="3.1181102362204727" fill="#1f77b4" fill-opacity="0.85" stroke="none"><title>(147.161893274959, 150.233174934297)</title></circle><circle cx="956.0327272727274" cy="125.11324369935815" r="3.1181102362204727" fill="#1f77b4" fill-opacity="0.85" stroke="none"><title>(182.838106725041, 171.138903004346)</title></circle><circle cx="529.6933333333334" cy="172.03140075833585" r="3.1181102362204727" fill="#1f77b4" fill-opacity="0.85" stroke="none"><title>(165, 167.1)</title></circle><circle cx="171.18606528825535" cy="331.1782658888945" r="3.1181102362204727" fill="#1f77b4" fill-opacity="0.85" stroke="none"><title>(150, 153.4)</title></circle><circle cx="888.2006013784113" cy="118.5952270648636" r="3.1181102362204727" fill="#1f77b4" fill-opacity="0.85" stroke="none"><title>(180, 171.7)</title></circle><circle cx="103.35393939393926" cy="374.9358133853846" r="3.1181102362204727" fill="#1f77b4" fill-opacity="0.85" stroke="none"><title>(147.161893274959, 149.633174934297)</title></circle><circle cx="956.0327272727274" cy="118.14330800020964" r="3.1181102362204727" fill="#1f77b4" fill-opacity="0.85" stroke="none"><title>(182.838106725041, 171.738903004346)</title></circle><circle cx="529.6933333333334" cy="179.00133645748429" r="3.1181102362204727" fill="#1f77b4" fill-opacity="0.85" stroke="none"><title>(165, 166.5)</title></circle><circle cx="171.18606528825535" cy="486.84016316987913" r="3.1181102362204727" fill="#1f77b4" fill-opacity="0.85" stroke="none"><title>(150, 140)</title></circle><circle cx="888.2006013784113" cy="288.1969957441451" r="3.1181102362204727" fill="#1f77b4" fill-opacity="0.85" stroke="none"><title>(180, 157.1)</title></circle><circle cx="103.35393939393926" cy="530.5977106663688" r="3.1181102362204727" fill="#1f77b4" fill-opacity="0.85" stroke="none"><title>(147.161893274959, 136.233174934297)</title></circle><circle cx="956.0327272727274" cy="287.74507667949126" r="3.1181102362204727" fill="#1f77b4" fill-opacity="0.85" stroke="none"><title>(182.838106725041, 157.138903004346)</title></circle><circle cx="529.6933333333334" cy="334.6632337384689" r="3.1181102362204727" fill="#1f77b4" fill-opacity="0.85" stroke="none"><title>(165, 153.1)</title></circle><circle cx="171.18606528825535" cy="493.8100988690276" r="3.1181102362204727" fill="#1f77b4" fill-opacity="0.85" stroke="none"><title>(150, 139.4)</title></circle><circle cx="888.2006013784113" cy="281.2270600449967" r="3.1181102362204727" fill="#1f77b4" fill-opacity="0.85" stroke="none"><title>(180, 157.7)</title></circle><circle cx="103.35393939393926" cy="537.5676463655177" r="3.1181102362204727" fill="#1f77b4" fill-opacity="0.85" stroke="none"><title>(147.161893274959, 135.633174934297)</title></circle><circle cx="956.0327272727274" cy="280.77514098034277" r="3.1181102362204727" fill="#1f77b4" fill-opacity="0.85" stroke="none"><title>(182.838106725041, 157.738903004346)</title></circle><circle cx="529.6933333333334" cy="341.6331694376173" r="3.1181102362204727" fill="#1f77b4" fill-opacity="0.85" stroke="none"><title>(165, 152.5)</title></circle><path d="M 103.35393939393926 538.2545454545453 L 117.8061222393425 533.5635842722204 L 132.25830508474576 528.8911664915465 L 146.710487930149 524.2372793810611 L 161.16267077555224 519.6019117568055 L 175.6148536209555 514.9850539775689 L 190.06703646635805 510.3866979405514 L 204.5192193117613 505.80683707724467 L 218.97140215716456 501.24546634979924 L 233.4235850025678 496.7025822476326 L 247.87576784797105 492.1781827843557 L 262.3279506933743 487.67226749519 L 276.78013353877753 483.184837434521 L 291.23231638418076 478.7158951739548 L 305.684499229584 474.265444800667 L 320.1366820749873 469.83349191601957 L 334.5888649203905 465.42004363460023 L 349.0410477657938 461.0251085835605 L 363.4932306111964 456.64869690226215 L 377.94541345659957 452.29082024223555 L 392.3975963020028 447.95149176752557 L 406.8497791474061 443.63072615524385 L 421.30196199280937 439.3285395965145 L 435.7541448382126 435.04494979765064 L 450.2063276836159 430.7799759816853 L 464.65851052901917 426.53363889009756 L 479.11069337442234 422.3059607849198 L 493.56287621982557 418.0969654509839 L 508.01505906522885 413.9066781985796 L 522.4672419106314 409.7351258661665 L 536.9194247560354 405.5823368234793 L 551.371607601438 401.4483409747701 L 565.8237904468411 397.3331697623063 L 580.2759732922443 393.23685616999944 L 594.7281561376476 389.15943472729964 L 609.1803389830509 385.1009415131672 L 623.6325218284541 381.0614141602785 L 638.0847046738575 377.04089185931764 L 652.5368875192606 373.0394153633959 L 666.9890703646638 369.0570269925843 L 681.4412532100671 365.09377063852236 L 695.8934360554704 361.14969176910324 L 710.345618900873 357.2248374331534 L 724.7978017462761 353.3192562652098 L 739.2499845916793 349.4329984902659 L 753.7021674370826 345.5661159284713 L 768.1543502824858 341.7186619998015 L 782.606533127889 337.8906917286877 L 797.0587159732924 334.0822617485247 L 811.5108988186955 330.2934303060624 L 825.9630816640988 326.5242572656259 L 840.4152645095021 322.7748041132304 L 854.8674473549054 319.0451339603917 L 869.319630200308 315.3353115478056 L 883.7718130457117 311.64540324864004 L 898.2239958911143 307.9754770716522 L 912.6761787365176 304.32560266389754 L 927.1283615819208 300.6958513130828 L 941.580544427324 297.08629594953754 L 956.0327272727274 293.4970111477045 L 956.0327272727274 63.34545454545453 L 941.580544427324 66.89603039690678 L 927.1283615819208 70.4666982932878 L 912.6761787365176 74.05753280907561 L 898.2239958911143 77.66860687458643 L 883.7718130457117 81.29999177752764 L 869.319630200308 84.95175716494487 L 854.8674473549054 88.6239710455906 L 840.4152645095021 92.31669979266849 L 825.9630816640988 96.03000814683726 L 811.5108988186955 99.76395921963467 L 797.0587159732924 103.51861449704884 L 782.606533127889 107.29403384343436 L 768.1543502824858 111.0902755055281 L 753.7021674370826 114.90739611672014 L 739.2499845916793 118.74545070144381 L 724.7978017462761 122.60449267969298 L 710.345618900873 126.48457387160943 L 695.8934360554704 130.3857445021646 L 681.4412532100671 134.30805320590162 L 666.9890703646638 138.25154703167465 L 652.5368875192606 142.21627144735368 L 638.0847046738575 146.20227034457895 L 623.6325218284541 150.20958604342468 L 609.1803389830509 154.2382592970069 L 594.7281561376476 158.28832929600495 L 580.2759732922443 162.35983367308864 L 565.8237904468411 166.45280850724026 L 551.371607601438 170.56728832788522 L 536.9194247560354 174.70330611895375 L 522.4672419106314 178.86089332268995 L 508.01505906522885 183.04007984336067 L 493.56287621982557 187.24089405069913 L 479.11069337442234 191.46336278319723 L 464.65851052901917 195.7075113510829 L 450.2063276836159 199.97336353923333 L 435.7541448382126 204.26094160965323 L 421.30196199280937 208.57026630384954 L 406.8497791474061 212.9013568448294 L 392.3975963020028 217.2542309389211 L 377.94541345659957 221.62890477723755 L 363.4932306111964 226.02539303690912 L 349.0410477657938 230.44370888195255 L 334.5888649203905 234.8838639639288 L 320.1366820749873 239.34586842218908 L 305.684499229584 243.82973088387098 L 291.23231638418076 248.33545846357282 L 276.78013353877753 252.86305676267432 L 262.3279506933743 257.41252986831563 L 247.87576784797105 261.98388035211445 L 233.4235850025678 266.5771092684909 L 218.97140215716456 271.19221615260824 L 204.5192193117613 275.82919901813074 L 190.06703646635805 280.48805435444694 L 175.6148536209555 285.16877712369023 L 161.16267077555224 289.8713607574 L 146.710487930149 294.59579715273713 L 132.25830508474576 299.3420766685152 L 117.8061222393425 304.11018812075656 L 103.35393939393926 308.9001187780151 Z" fill="#1f77b4" fill-opacity="0.2" stroke="none"/><line x1="103.35393939393926" y1="423.5773321162802" x2="117.8061222393425" y2="418.8368861964885" stroke="#1f77b4" stroke-width="1.4211023622047245"/><line x1="117.8061222393425" y1="418.8368861964885" x2="132.25830508474576" y2="414.1166215800309" stroke="#1f77b4" stroke-width="1.4211023622047245"/><line x1="132.25830508474576" y1="414.1166215800309" x2="146.710487930149" y2="409.4165382668991" stroke="#1f77b4" stroke-width="1.4211023622047245"/><line x1="146.710487930149" y1="409.4165382668991" x2="161.16267077555224" y2="404.7366362571027" stroke="#1f77b4" stroke-width="1.4211023622047245"/><line x1="161.16267077555224" y1="404.7366362571027" x2="175.6148536209555" y2="400.0769155506296" stroke="#1f77b4" stroke-width="1.4211023622047245"/><line x1="175.6148536209555" y1="400.0769155506296" x2="190.06703646635805" y2="395.4373761474992" stroke="#1f77b4" stroke-width="1.4211023622047245"/><line x1="190.06703646635805" y1="395.4373761474992" x2="204.5192193117613" y2="390.8180180476877" stroke="#1f77b4" stroke-width="1.4211023622047245"/><line x1="204.5192193117613" y1="390.8180180476877" x2="218.97140215716456" y2="386.2188412512037" stroke="#1f77b4" stroke-width="1.4211023622047245"/><line x1="218.97140215716456" y1="386.2188412512037" x2="233.4235850025678" y2="381.63984575806177" stroke="#1f77b4" stroke-width="1.4211023622047245"/><line x1="233.4235850025678" y1="381.63984575806177" x2="247.87576784797105" y2="377.0810315682352" stroke="#1f77b4" stroke-width="1.4211023622047245"/><line x1="247.87576784797105" y1="377.0810315682352" x2="262.3279506933743" y2="372.54239868175284" stroke="#1f77b4" stroke-width="1.4211023622047245"/><line x1="262.3279506933743" y1="372.54239868175284" x2="276.78013353877753" y2="368.02394709859766" stroke="#1f77b4" stroke-width="1.4211023622047245"/><line x1="276.78013353877753" y1="368.02394709859766" x2="291.23231638418076" y2="363.5256768187638" stroke="#1f77b4" stroke-width="1.4211023622047245"/><line x1="291.23231638418076" y1="363.5256768187638" x2="305.684499229584" y2="359.04758784226897" stroke="#1f77b4" stroke-width="1.4211023622047245"/><line x1="305.684499229584" y1="359.04758784226897" x2="320.1366820749873" y2="354.5896801691043" stroke="#1f77b4" stroke-width="1.4211023622047245"/><line x1="320.1366820749873" y1="354.5896801691043" x2="334.5888649203905" y2="350.1519537992645" stroke="#1f77b4" stroke-width="1.4211023622047245"/><line x1="334.5888649203905" y1="350.1519537992645" x2="349.0410477657938" y2="345.7344087327565" stroke="#1f77b4" stroke-width="1.4211023622047245"/><line x1="349.0410477657938" y1="345.7344087327565" x2="363.4932306111964" y2="341.33704496958563" stroke="#1f77b4" stroke-width="1.4211023622047245"/><line x1="363.4932306111964" y1="341.33704496958563" x2="377.94541345659957" y2="336.9598625097366" stroke="#1f77b4" stroke-width="1.4211023622047245"/><line x1="377.94541345659957" y1="336.9598625097366" x2="392.3975963020028" y2="332.6028613532234" stroke="#1f77b4" stroke-width="1.4211023622047245"/><line x1="392.3975963020028" y1="332.6028613532234" x2="406.8497791474061" y2="328.26604150003664" stroke="#1f77b4" stroke-width="1.4211023622047245"/><line x1="406.8497791474061" y1="328.26604150003664" x2="421.30196199280937" y2="323.949402950182" stroke="#1f77b4" stroke-width="1.4211023622047245"/><line x1="421.30196199280937" y1="323.949402950182" x2="435.7541448382126" y2="319.65294570365194" stroke="#1f77b4" stroke-width="1.4211023622047245"/><line x1="435.7541448382126" y1="319.65294570365194" x2="450.2063276836159" y2="315.3766697604593" stroke="#1f77b4" stroke-width="1.4211023622047245"/><line x1="450.2063276836159" y1="315.3766697604593" x2="464.65851052901917" y2="311.1205751205902" stroke="#1f77b4" stroke-width="1.4211023622047245"/><line x1="464.65851052901917" y1="311.1205751205902" x2="479.11069337442234" y2="306.88466178405855" stroke="#1f77b4" stroke-width="1.4211023622047245"/><line x1="479.11069337442234" y1="306.88466178405855" x2="493.56287621982557" y2="302.66892975084147" stroke="#1f77b4" stroke-width="1.4211023622047245"/><line x1="493.56287621982557" y1="302.66892975084147" x2="508.01505906522885" y2="298.4733790209701" stroke="#1f77b4" stroke-width="1.4211023622047245"/><line x1="508.01505906522885" y1="298.4733790209701" x2="522.4672419106314" y2="294.29800959442827" stroke="#1f77b4" stroke-width="1.4211023622047245"/><line x1="522.4672419106314" y1="294.29800959442827" x2="536.9194247560354" y2="290.1428214712165" stroke="#1f77b4" stroke-width="1.4211023622047245"/><line x1="536.9194247560354" y1="290.1428214712165" x2="551.371607601438" y2="286.00781465132764" stroke="#1f77b4" stroke-width="1.4211023622047245"/><line x1="551.371607601438" y1="286.00781465132764" x2="565.8237904468411" y2="281.89298913477325" stroke="#1f77b4" stroke-width="1.4211023622047245"/><line x1="565.8237904468411" y1="281.89298913477325" x2="580.2759732922443" y2="277.79834492154407" stroke="#1f77b4" stroke-width="1.4211023622047245"/><line x1="580.2759732922443" y1="277.79834492154407" x2="594.7281561376476" y2="273.72388201165234" stroke="#1f77b4" stroke-width="1.4211023622047245"/><line x1="594.7281561376476" y1="273.72388201165234" x2="609.1803389830509" y2="269.669600405087" stroke="#1f77b4" stroke-width="1.4211023622047245"/><line x1="609.1803389830509" y1="269.669600405087" x2="623.6325218284541" y2="265.6355001018516" stroke="#1f77b4" stroke-width="1.4211023622047245"/><line x1="623.6325218284541" y1="265.6355001018516" x2="638.0847046738575" y2="261.62158110194827" stroke="#1f77b4" stroke-width="1.4211023622047245"/><line x1="638.0847046738575" y1="261.62158110194827" x2="652.5368875192606" y2="257.6278434053748" stroke="#1f77b4" stroke-width="1.4211023622047245"/><line x1="652.5368875192606" y1="257.6278434053748" x2="666.9890703646638" y2="253.65428701212954" stroke="#1f77b4" stroke-width="1.4211023622047245"/><line x1="666.9890703646638" y1="253.65428701212954" x2="681.4412532100671" y2="249.70091192221201" stroke="#1f77b4" stroke-width="1.4211023622047245"/><line x1="681.4412532100671" y1="249.70091192221201" x2="695.8934360554704" y2="245.7677181356339" stroke="#1f77b4" stroke-width="1.4211023622047245"/><line x1="695.8934360554704" y1="245.7677181356339" x2="710.345618900873" y2="241.85470565238137" stroke="#1f77b4" stroke-width="1.4211023622047245"/><line x1="710.345618900873" y1="241.85470565238137" x2="724.7978017462761" y2="237.96187447245137" stroke="#1f77b4" stroke-width="1.4211023622047245"/><line x1="724.7978017462761" y1="237.96187447245137" x2="739.2499845916793" y2="234.08922459585483" stroke="#1f77b4" stroke-width="1.4211023622047245"/><line x1="739.2499845916793" y1="234.08922459585483" x2="753.7021674370826" y2="230.23675602259573" stroke="#1f77b4" stroke-width="1.4211023622047245"/><line x1="753.7021674370826" y1="230.23675602259573" x2="768.1543502824858" y2="226.4044687526648" stroke="#1f77b4" stroke-width="1.4211023622047245"/><line x1="768.1543502824858" y1="226.4044687526648" x2="782.606533127889" y2="222.59236278606105" stroke="#1f77b4" stroke-width="1.4211023622047245"/><line x1="782.606533127889" y1="222.59236278606105" x2="797.0587159732924" y2="218.80043812278677" stroke="#1f77b4" stroke-width="1.4211023622047245"/><line x1="797.0587159732924" y1="218.80043812278677" x2="811.5108988186955" y2="215.02869476284854" stroke="#1f77b4" stroke-width="1.4211023622047245"/><line x1="811.5108988186955" y1="215.02869476284854" x2="825.9630816640988" y2="211.27713270623167" stroke="#1f77b4" stroke-width="1.4211023622047245"/><line x1="825.9630816640988" y1="211.27713270623167" x2="840.4152645095021" y2="207.54575195294947" stroke="#1f77b4" stroke-width="1.4211023622047245"/><line x1="840.4152645095021" y1="207.54575195294947" x2="854.8674473549054" y2="203.83455250299113" stroke="#1f77b4" stroke-width="1.4211023622047245"/><line x1="854.8674473549054" y1="203.83455250299113" x2="869.319630200308" y2="200.14353435637523" stroke="#1f77b4" stroke-width="1.4211023622047245"/><line x1="869.319630200308" y1="200.14353435637523" x2="883.7718130457117" y2="196.47269751308386" stroke="#1f77b4" stroke-width="1.4211023622047245"/><line x1="883.7718130457117" y1="196.47269751308386" x2="898.2239958911143" y2="192.82204197311927" stroke="#1f77b4" stroke-width="1.4211023622047245"/><line x1="898.2239958911143" y1="192.82204197311927" x2="912.6761787365176" y2="189.1915677364866" stroke="#1f77b4" stroke-width="1.4211023622047245"/><line x1="912.6761787365176" y1="189.1915677364866" x2="927.1283615819208" y2="185.58127480318535" stroke="#1f77b4" stroke-width="1.4211023622047245"/><line x1="927.1283615819208" y1="185.58127480318535" x2="941.580544427324" y2="181.9911631732221" stroke="#1f77b4" stroke-width="1.4211023622047245"/><line x1="941.580544427324" y1="181.9911631732221" x2="956.0327272727274" y2="178.42123284657947" stroke="#1f77b4" stroke-width="1.4211023622047245"/></svg>