<svg xmlns="http://www.w3.org/2000/svg" width="624" height="384" viewBox="0 0 624 384"><rect x="0.0" y="0.0" width="624.0" height="384.0" fill="#ffffff" fill-opacity="1.0" stroke="none"/><line x1="111.38860502164502" y1="32.266666666666666" x2="111.38860502164502" y2="358.3333333333333" stroke="#dddddd" stroke-width="0.6666666666666666"/><line x1="278.82429333333334" y1="32.266666666666666" x2="278.82429333333334" y2="358.3333333333333" stroke="#dddddd" stroke-width="0.6666666666666666"/><line x1="446.25998164502164" y1="32.266666666666666" x2="446.25998164502164" y2="358.3333333333333" stroke="#dddddd" stroke-width="0.6666666666666666"/><line x1="27.670760865800865" y1="32.266666666666666" x2="27.670760865800865" y2="358.3333333333333" stroke="#dddddd" stroke-width="1.3333333333333333"/><line x1="195.10644917748917" y1="32.266666666666666" x2="195.10644917748917" y2="358.3333333333333" stroke="#dddddd" stroke-width="1.3333333333333333"/><line x1="362.54213748917743" y1="32.266666666666666" x2="362.54213748917743" y2="358.3333333333333" stroke="#dddddd" stroke-width="1.3333333333333333"/><line x1="529.9778258008657" y1="32.266666666666666" x2="529.9778258008657" y2="358.3333333333333" stroke="#dddddd" stroke-width="1.3333333333333333"/><line x1="20.973333333333333" y1="342.58618755332736" x2="536.6752533333333" y2="342.58618755332736" stroke="#dddddd" stroke-width="0.6666666666666666"/><line x1="20.973333333333333" y1="291.02612305655043" x2="536.6752533333333" y2="291.02612305655043" stroke="#dddddd" stroke-width="0.6666666666666666"/><line x1="20.973333333333333" y1="239.46605855977344" x2="536.6752533333333" y2="239.46605855977344" stroke="#dddddd" stroke-width="0.6666666666666666"/><line x1="20.973333333333333" y1="187.90599406299648" x2="536.6752533333333" y2="187.90599406299648" stroke="#dddddd" stroke-width="0.6666666666666666"/><line x1="20.973333333333333" y1="136.34592956621952" x2="536.6752533333333" y2="136.34592956621952" stroke="#dddddd" stroke-width="0.6666666666666666"/><line x1="20.973333333333333" y1="84.78586506944255" x2="536.6752533333333" y2="84.78586506944255" stroke="#dddddd" stroke-width="0.6666666666666666"/><line x1="20.973333333333333" y1="33.22580057266562" x2="536.6752533333333" y2="33.22580057266562" stroke="#dddddd" stroke-width="0.6666666666666666"/><line x1="20.973333333333333" y1="316.8061553049389" x2="536.6752533333333" y2="316.8061553049389" stroke="#dddddd" stroke-width="1.3333333333333333"/><line x1="20.973333333333333" y1="265.2460908081619" x2="536.6752533333333" y2="265.2460908081619" stroke="#dddddd" stroke-width="1.3333333333333333"/><line x1="20.973333333333333" y1="213.68602631138498" x2="536.6752533333333" y2="213.68602631138498" stroke="#dddddd" stroke-width="1.3333333333333333"/><line x1="20.973333333333333" y1="162.12596181460802" x2="536.6752533333333" y2="162.12596181460802" stroke="#dddddd" stroke-width="1.3333333333333333"/><line x1="20.973333333333333" y1="110.56589731783106" x2="536.6752533333333" y2="110.56589731783106" stroke="#dddddd" stroke-width="1.3333333333333333"/><line x1="20.973333333333333" y1="59.005832821054085" x2="536.6752533333333" y2="59.005832821054085" stroke="#dddddd" stroke-width="1.3333333333333333"/><rect x="20.973333333333333" y="32.266666666666666" width="515.70192" height="326.06666666666666" fill="#ffffff" fill-opacity="0.0" stroke="#444444" stroke-width="1.3333333333333333"/><line x1="27.670760865800865" y1="358.3333333333333" x2="27.670760865800865" y2="362.0" stroke="#444444" stroke-width="1.3333333333333333"/><text x="27.670760865800865" y="374.32" fill="#333333" font-size="11.733333333333334" font-family="sans-serif" text-anchor="middle">0</text><line x1="195.10644917748917" y1="358.3333333333333" x2="195.10644917748917" y2="362.0" stroke="#444444" stroke-width="1.3333333333333333"/><text x="195.10644917748917" y="374.32" fill="#333333" font-size="11.733333333333334" font-family="sans-serif" text-anchor="middle">10</text><line x1="362.54213748917743" y1="358.3333333333333" x2="362.54213748917743" y2="362.0" stroke="#444444" stroke-width="1.3333333333333333"/><text x="362.54213748917743" y="374.32" fill="#333333" font-size="11.733333333333334" font-family="sans-serif" text-anchor="middle">20</text><line x1="529.9778258008657" y1="358.3333333333333" x2="529.9778258008657" y2="362.0" stroke="#444444" stroke-width="1.3333333333333333"/><text x="529.9778258008657" y="374.32" fill="#333333" font-size="11.733333333333334" font-family="sans-serif" text-anchor="middle">30</text><line x1="20.973333333333333" y1="316.8061553049389" x2="17.306666666666665" y2="316.8061553049389" stroke="#444444" stroke-width="1.3333333333333333"/><text x="14.373333333333335" y="320.9128219716056" fill="#333333" font-size="11.733333333333334" font-family="sans-serif" text-anchor="end">0</text><line x1="20.973333333333333" y1="265.2460908081619" x2="17.306666666666665" y2="265.2460908081619" stroke="#444444" stroke-width="1.3333333333333333"/><text x="14.373333333333335" y="269.3527574748286" fill="#333333" font-size="11.733333333333334" font-family="sans-serif" text-anchor="end">1</text><line x1="20.973333333333333" y1="213.68602631138498" x2="17.306666666666665" y2="213.68602631138498" stroke="#444444" stroke-width="1.3333333333333333"/><text x="14.373333333333335" y="217.79269297805166" fill="#333333" font-size="11.733333333333334" font-family="sans-serif" text-anchor="end">2</text><line x1="20.973333333333333" y1="162.12596181460802" x2="17.306666666666665" y2="162.12596181460802" stroke="#444444" stroke-width="1.3333333333333333"/><text x="14.373333333333335" y="166.23262848127467" fill="#333333" font-size="11.733333333333334" font-family="sans-serif" text-anchor="end">3</text><line x1="20.973333333333333" y1="110.56589731783106" x2="17.306666666666665" y2="110.56589731783106" stroke="#444444" stroke-width="1.3333333333333333"/><text x="14.373333333333335" y="114.67256398449771" fill="#333333" font-size="11.733333333333334" font-family="sans-serif" text-anchor="end">4</text><line x1="20.973333333333333" y1="59.005832821054085" x2="17.306666666666665" y2="59.005832821054085" stroke="#444444" stroke-width="1.3333333333333333"/><text x="14.373333333333335" y="63.112499487720754" fill="#333333" font-size="11.733333333333334" font-family="sans-serif" text-anchor="end">5</text><text x="20.973333333333333" y="21.413333333333334" fill="#333333" font-size="17.599999999999998" font-family="sans-serif" text-anchor="start">FDA: mean + eigenfunctions</text><line x1="44.4143296969697" y1="316.8061553049389" x2="61.15789852813853" y2="316.8061553049389" stroke="#C77CFF" stroke-width="1.4211023622047245"/><line x1="61.15789852813853" y1="316.8061553049389" x2="77.90146735930736" y2="316.8061553049389" stroke="#C77CFF" stroke-width="1.4211023622047245"/><line x1="77.90146735930736" y1="316.8061553049389" x2="94.64503619047619" y2="316.8061553049389" stroke="#C77CFF" stroke-width="1.4211023622047245"/><line x1="94.64503619047619" y1="316.8061553049389" x2="111.38860502164502" y2="275.58310677853535" stroke="#C77CFF" stroke-width="1.4211023622047245"/><line x1="111.38860502164502" y1="275.58310677853535" x2="128.13217385281388" y2="280.2327058043452" stroke="#C77CFF" stroke-width="1.4211023622047245"/><line x1="128.13217385281388" y1="280.2327058043452" x2="144.87574268398268" y2="285.083404022795" stroke="#C77CFF" stroke-width="1.4211023622047245"/><line x1="144.87574268398268" y1="285.083404022795" x2="161.61931151515154" y2="289.8340228035343" stroke="#C77CFF" stroke-width="1.4211023622047245"/><line x1="161.61931151515154" y1="289.8340228035343" x2="178.36288034632037" y2="294.1833835162126" stroke="#C77CFF" stroke-width="1.4211023622047245"/><line x1="178.36288034632037" y1="294.1833835162126" x2="195.10644917748917" y2="297.82730149881525" stroke="#C77CFF" stroke-width="1.4211023622047245"/><line x1="195.10644917748917" y1="297.82730149881525" x2="211.85001800865803" y2="300.4495679626721" stroke="#C77CFF" stroke-width="1.4211023622047245"/><line x1="211.85001800865803" y1="300.4495679626721" x2="228.59358683982683" y2="301.7309680874491" stroke="#C77CFF" stroke-width="1.4211023622047245"/><line x1="228.59358683982683" y1="301.7309680874491" x2="245.33715567099563" y2="301.3522870528121" stroke="#C77CFF" stroke-width="1.4211023622047245"/><line x1="245.33715567099563" y1="301.3522870528121" x2="262.08072450216446" y2="299.0649613332471" stroke="#C77CFF" stroke-width="1.4211023622047245"/><line x1="262.08072450216446" y1="299.0649613332471" x2="278.82429333333334" y2="294.9030325825207" stroke="#C77CFF" stroke-width="1.4211023622047245"/><line x1="278.82429333333334" y1="294.9030325825207" x2="295.5678621645021" y2="288.97119374922" stroke="#C77CFF" stroke-width="1.4211023622047245"/><line x1="295.5678621645021" y1="288.97119374922" x2="312.31143099567095" y2="281.3741377819317" stroke="#C77CFF" stroke-width="1.4211023622047245"/><line x1="312.31143099567095" y1="281.3741377819317" x2="329.0549998268398" y2="272.25245052107" stroke="#C77CFF" stroke-width="1.4211023622047245"/><line x1="329.0549998268398" y1="272.25245052107" x2="345.79856865800866" y2="261.8902893743584" stroke="#C77CFF" stroke-width="1.4211023622047245"/><line x1="345.79856865800866" y1="261.8902893743584" x2="362.54213748917743" y2="250.60770464134774" stroke="#C77CFF" stroke-width="1.4211023622047245"/><line x1="362.54213748917743" y1="250.60770464134774" x2="379.2857063203463" y2="238.72474662158862" stroke="#C77CFF" stroke-width="1.4211023622047245"/><line x1="379.2857063203463" y1="238.72474662158862" x2="396.02927515151515" y2="226.59802706683337" stroke="#C77CFF" stroke-width="1.4211023622047245"/><line x1="396.02927515151515" y1="226.59802706683337" x2="412.772843982684" y2="214.73040353763992" stroke="#C77CFF" stroke-width="1.4211023622047245"/><line x1="412.772843982684" y1="214.73040353763992" x2="429.51641281385287" y2="203.6612950467676" stroke="#C77CFF" stroke-width="1.4211023622047245"/><line x1="429.51641281385287" y1="203.6612950467676" x2="446.25998164502164" y2="193.93012060697583" stroke="#C77CFF" stroke-width="1.4211023622047245"/><line x1="446.25998164502164" y1="193.93012060697583" x2="463.00355047619047" y2="186.076299231024" stroke="#C77CFF" stroke-width="1.4211023622047245"/><line x1="463.00355047619047" y1="186.076299231024" x2="479.7471193073593" y2="180.63924993167137" stroke="#C77CFF" stroke-width="1.4211023622047245"/><line x1="479.7471193073593" y1="180.63924993167137" x2="496.4906881385282" y2="178.1583917216775" stroke="#C77CFF" stroke-width="1.4211023622047245"/><line x1="496.4906881385282" y1="178.1583917216775" x2="513.234256969697" y2="179.1731436138016" stroke="#C77CFF" stroke-width="1.4211023622047245"/><line x1="44.4143296969697" y1="316.8061553049389" x2="61.15789852813853" y2="316.8061553049389" stroke="#F8766D" stroke-width="1.4211023622047245"/><line x1="61.15789852813853" y1="316.8061553049389" x2="77.90146735930736" y2="316.8061553049389" stroke="#F8766D" stroke-width="1.4211023622047245"/><line x1="77.90146735930736" y1="316.8061553049389" x2="94.64503619047619" y2="316.8061553049389" stroke="#F8766D" stroke-width="1.4211023622047245"/><line x1="94.64503619047619" y1="316.8061553049389" x2="111.38860502164502" y2="332.37042982987504" stroke="#F8766D" stroke-width="1.4211023622047245"/><line x1="111.38860502164502" y1="332.37042982987504" x2="128.13217385281388" y2="336.4383930064819" stroke="#F8766D" stroke-width="1.4211023622047245"/><line x1="128.13217385281388" y1="336.4383930064819" x2="144.87574268398268" y2="338.44827488942957" stroke="#F8766D" stroke-width="1.4211023622047245"/><line x1="144.87574268398268" y1="338.44827488942957" x2="161.61931151515154" y2="338.7471935351515" stroke="#F8766D" stroke-width="1.4211023622047245"/><line x1="161.61931151515154" y1="338.7471935351515" x2="178.36288034632037" y2="337.6822670000811" stroke="#F8766D" stroke-width="1.4211023622047245"/><line x1="178.36288034632037" y1="337.6822670000811" x2="195.10644917748917" y2="335.56211501597954" stroke="#F8766D" stroke-width="1.4211023622047245"/><line x1="195.10644917748917" y1="335.56211501597954" x2="211.85001800865803" y2="332.5413640159195" stroke="#F8766D" stroke-width="1.4211023622047245"/><line x1="211.85001800865803" y1="332.5413640159195" x2="228.59358683982683" y2="328.7361421083013" stroke="#F8766D" stroke-width="1.4211023622047245"/><line x1="228.59358683982683" y1="328.7361421083013" x2="245.33715567099563" y2="324.2625774015255" stroke="#F8766D" stroke-width="1.4211023622047245"/><line x1="245.33715567099563" y1="324.2625774015255" x2="262.08072450216446" y2="319.2738227654695" stroke="#F8766D" stroke-width="1.4211023622047245"/><line x1="262.08072450216446" y1="319.2738227654695" x2="278.82429333333334" y2="314.071130115918" stroke="#F8766D" stroke-width="1.4211023622047245"/><line x1="278.82429333333334" y1="314.071130115918" x2="295.5678621645021" y2="308.9927761301328" stroke="#F8766D" stroke-width="1.4211023622047245"/><line x1="295.5678621645021" y1="308.9927761301328" x2="312.31143099567095" y2="304.3770374853757" stroke="#F8766D" stroke-width="1.4211023622047245"/><line x1="312.31143099567095" y1="304.3770374853757" x2="329.0549998268398" y2="300.53147683018807" stroke="#F8766D" stroke-width="1.4211023622047245"/><line x1="329.0549998268398" y1="300.53147683018807" x2="345.79856865800866" y2="297.64080069823" stroke="#F8766D" stroke-width="1.4211023622047245"/><line x1="345.79856865800866" y1="297.64080069823" x2="362.54213748917743" y2="295.85900159444117" stroke="#F8766D" stroke-width="1.4211023622047245"/><line x1="362.54213748917743" y1="295.85900159444117" x2="379.2857063203463" y2="295.3400720237613" stroke="#F8766D" stroke-width="1.4211023622047245"/><line x1="379.2857063203463" y1="295.3400720237613" x2="396.02927515151515" y2="296.18487633758707" stroke="#F8766D" stroke-width="1.4211023622047245"/><line x1="396.02927515151515" y1="296.18487633758707" x2="412.772843982684" y2="298.2817662731435" stroke="#F8766D" stroke-width="1.4211023622047245"/><line x1="412.772843982684" y1="298.2817662731435" x2="429.51641281385287" y2="301.4659654141124" stroke="#F8766D" stroke-width="1.4211023622047245"/><line x1="429.51641281385287" y1="301.4659654141124" x2="446.25998164502164" y2="305.57269734417565" stroke="#F8766D" stroke-width="1.4211023622047245"/><line x1="446.25998164502164" y1="305.57269734417565" x2="463.00355047619047" y2="310.43718564701516" stroke="#F8766D" stroke-width="1.4211023622047245"/><line x1="463.00355047619047" y1="310.43718564701516" x2="479.7471193073593" y2="315.89465390631284" stroke="#F8766D" stroke-width="1.4211023622047245"/><line x1="479.7471193073593" y1="315.89465390631284" x2="496.4906881385282" y2="321.78032570575056" stroke="#F8766D" stroke-width="1.4211023622047245"/><line x1="496.4906881385282" y1="321.78032570575056" x2="513.234256969697" y2="327.92942462901027" stroke="#F8766D" stroke-width="1.4211023622047245"/><line x1="44.4143296969697" y1="316.8061553049389" x2="61.15789852813853" y2="316.8061553049389" stroke="#7CAE00" stroke-width="1.4211023622047245"/><line x1="61.15789852813853" y1="316.8061553049389" x2="77.90146735930736" y2="316.8061553049389" stroke="#7CAE00" stroke-width="1.4211023622047245"/><line x1="77.90146735930736" y1="316.8061553049389" x2="94.64503619047619" y2="316.8061553049389" stroke="#7CAE00" stroke-width="1.4211023622047245"/><line x1="94.64503619047619" y1="316.8061553049389" x2="111.38860502164502" y2="337.1603725741994" stroke="#7CAE00" stroke-width="1.4211023622047245"/><line x1="111.38860502164502" y1="337.1603725741994" x2="128.13217385281388" y2="330.5335731481758" stroke="#7CAE00" stroke-width="1.4211023622047245"/><line x1="128.13217385281388" y1="330.5335731481758" x2="144.87574268398268" y2="323.8764459009619" stroke="#7CAE00" stroke-width="1.4211023622047245"/><line x1="144.87574268398268" y1="323.8764459009619" x2="161.61931151515154" y2="317.37046399818087" stroke="#7CAE00" stroke-width="1.4211023622047245"/><line x1="161.61931151515154" y1="317.37046399818087" x2="178.36288034632037" y2="311.19710060545566" stroke="#7CAE00" stroke-width="1.4211023622047245"/><line x1="178.36288034632037" y1="311.19710060545566" x2="195.10644917748917" y2="305.544672846949" stroke="#7CAE00" stroke-width="1.4211023622047245"/><line x1="195.10644917748917" y1="305.544672846949" x2="211.85001800865803" y2="300.62887368098205" stroke="#7CAE00" stroke-width="1.4211023622047245"/><line x1="211.85001800865803" y1="300.62887368098205" x2="228.59358683982683" y2="296.6722400244154" stroke="#7CAE00" stroke-width="1.4211023622047245"/><line x1="228.59358683982683" y1="296.6722400244154" x2="245.33715567099563" y2="293.89730879410985" stroke="#7CAE00" stroke-width="1.4211023622047245"/><line x1="245.33715567099563" y1="293.89730879410985" x2="262.08072450216446" y2="292.4839380348581" stroke="#7CAE00" stroke-width="1.4211023622047245"/><line x1="262.08072450216446" y1="292.4839380348581" x2="278.82429333333334" y2="292.44127030318094" stroke="#7CAE00" stroke-width="1.4211023622047245"/><line x1="278.82429333333334" y1="292.44127030318094" x2="295.5678621645021" y2="293.7357692835311" stroke="#7CAE00" stroke-width="1.4211023622047245"/><line x1="295.5678621645021" y1="293.7357692835311" x2="312.31143099567095" y2="296.33389866036157" stroke="#7CAE00" stroke-width="1.4211023622047245"/><line x1="312.31143099567095" y1="296.33389866036157" x2="329.0549998268398" y2="300.1638195336869" stroke="#7CAE00" stroke-width="1.4211023622047245"/><line x1="329.0549998268398" y1="300.1638195336869" x2="345.79856865800866" y2="305.0004826657689" stroke="#7CAE00" stroke-width="1.4211023622047245"/><line x1="345.79856865800866" y1="305.0004826657689" x2="362.54213748917743" y2="310.5805362344315" stroke="#7CAE00" stroke-width="1.4211023622047245"/><line x1="362.54213748917743" y1="310.5805362344315" x2="379.2857063203463" y2="316.6406284174984" stroke="#7CAE00" stroke-width="1.4211023622047245"/><line x1="379.2857063203463" y1="316.6406284174984" x2="396.02927515151515" y2="322.89508253555084" stroke="#7CAE00" stroke-width="1.4211023622047245"/><line x1="396.02927515151515" y1="322.89508253555084" x2="412.772843982684" y2="328.96892248019947" stroke="#7CAE00" stroke-width="1.4211023622047245"/><line x1="412.772843982684" y1="328.96892248019947" x2="429.51641281385287" y2="334.46484728581265" stroke="#7CAE00" stroke-width="1.4211023622047245"/><line x1="429.51641281385287" y1="334.46484728581265" x2="446.25998164502164" y2="338.9855559867585" stroke="#7CAE00" stroke-width="1.4211023622047245"/><line x1="446.25998164502164" y1="338.9855559867585" x2="463.00355047619047" y2="342.13374761740533" stroke="#7CAE00" stroke-width="1.4211023622047245"/><line x1="463.00355047619047" y1="342.13374761740533" x2="479.7471193073593" y2="343.5121212121212" stroke="#7CAE00" stroke-width="1.4211023622047245"/><line x1="479.7471193073593" y1="343.5121212121212" x2="496.4906881385282" y2="342.72337580527443" stroke="#7CAE00" stroke-width="1.4211023622047245"/><line x1="496.4906881385282" y1="342.72337580527443" x2="513.234256969697" y2="339.3702104312332" stroke="#7CAE00" stroke-width="1.4211023622047245"/><line x1="44.4143296969697" y1="316.8061553049389" x2="61.15789852813853" y2="316.8061553049389" stroke="#00BFC4" stroke-width="1.4211023622047245"/><line x1="61.15789852813853" y1="316.8061553049389" x2="77.90146735930736" y2="316.8061553049389" stroke="#00BFC4" stroke-width="1.4211023622047245"/><line x1="77.90146735930736" y1="316.8061553049389" x2="94.64503619047619" y2="316.8061553049389" stroke="#00BFC4" stroke-width="1.4211023622047245"/><line x1="94.64503619047619" y1="316.8061553049389" x2="111.38860502164502" y2="332.1747903321482" stroke="#00BFC4" stroke-width="1.4211023622047245"/><line x1="111.38860502164502" y1="332.1747903321482" x2="128.13217385281388" y2="312.24871424492306" stroke="#00BFC4" stroke-width="1.4211023622047245"/><line x1="128.13217385281388" y1="312.24871424492306" x2="144.87574268398268" y2="302.9619516436171" stroke="#00BFC4" stroke-width="1.4211023622047245"/><line x1="144.87574268398268" y1="302.9619516436171" x2="161.61931151515154" y2="300.9327400010015" stroke="#00BFC4" stroke-width="1.4211023622047245"/><line x1="161.61931151515154" y1="300.9327400010015" x2="178.36288034632037" y2="302.77931678984726" stroke="#00BFC4" stroke-width="1.4211023622047245"/><line x1="178.36288034632037" y1="302.77931678984726" x2="195.10644917748917" y2="305.56640516906316" stroke="#00BFC4" stroke-width="1.4211023622047245"/><line x1="195.10644917748917" y1="305.56640516906316" x2="211.85001800865803" y2="308.14467104210735" stroke="#00BFC4" stroke-width="1.4211023622047245"/><line x1="211.85001800865803" y1="308.14467104210735" x2="228.59358683982683" y2="309.8112659985758" stroke="#00BFC4" stroke-width="1.4211023622047245"/><line x1="228.59358683982683" y1="309.8112659985758" x2="245.33715567099563" y2="309.8633416280641" stroke="#00BFC4" stroke-width="1.4211023622047245"/><line x1="245.33715567099563" y1="309.8633416280641" x2="262.08072450216446" y2="307.9455412656231" stroke="#00BFC4" stroke-width="1.4211023622047245"/><line x1="262.08072450216446" y1="307.9455412656231" x2="278.82429333333334" y2="305.0924752281228" stroke="#00BFC4" stroke-width="1.4211023622047245"/><line x1="278.82429333333334" y1="305.0924752281228" x2="295.5678621645021" y2="302.68624557788814" stroke="#00BFC4" stroke-width="1.4211023622047245"/><line x1="295.5678621645021" y1="302.68624557788814" x2="312.31143099567095" y2="302.1089543772442" stroke="#00BFC4" stroke-width="1.4211023622047245"/><line x1="312.31143099567095" y1="302.1089543772442" x2="329.0549998268398" y2="304.28461971322105" stroke="#00BFC4" stroke-width="1.4211023622047245"/><line x1="329.0549998268398" y1="304.28461971322105" x2="345.79856865800866" y2="308.30492377166996" stroke="#00BFC4" stroke-width="1.4211023622047245"/><line x1="345.79856865800866" y1="308.30492377166996" x2="362.54213748917743" y2="312.80346476314736" stroke="#00BFC4" stroke-width="1.4211023622047245"/><line x1="362.54213748917743" y1="312.80346476314736" x2="379.2857063203463" y2="316.4138408982097" stroke="#00BFC4" stroke-width="1.4211023622047245"/><line x1="379.2857063203463" y1="316.4138408982097" x2="396.02927515151515" y2="317.5699105014238" stroke="#00BFC4" stroke-width="1.4211023622047245"/><line x1="396.02927515151515" y1="317.5699105014238" x2="412.772843982684" y2="313.9065723533983" stroke="#00BFC4" stroke-width="1.4211023622047245"/><line x1="412.772843982684" y1="313.9065723533983" x2="429.51641281385287" y2="302.8589853487522" stroke="#00BFC4" stroke-width="1.4211023622047245"/><line x1="429.51641281385287" y1="302.8589853487522" x2="446.25998164502164" y2="281.8623083821045" stroke="#00BFC4" stroke-width="1.4211023622047245"/><line x1="446.25998164502164" y1="281.8623083821045" x2="463.00355047619047" y2="248.3517003480744" stroke="#00BFC4" stroke-width="1.4211023622047245"/><line x1="463.00355047619047" y1="248.3517003480744" x2="479.7471193073593" y2="199.76232014128067" stroke="#00BFC4" stroke-width="1.4211023622047245"/><line x1="479.7471193073593" y1="199.76232014128067" x2="496.4906881385282" y2="133.52932665634245" stroke="#00BFC4" stroke-width="1.4211023622047245"/><line x1="496.4906881385282" y1="133.52932665634245" x2="513.234256969697" y2="47.08787878787874" stroke="#00BFC4" stroke-width="1.4211023622047245"/><rect x="551.34192" y="149.07184" width="23.114079999999994" height="92.45631999999998" fill="#ffffff" fill-opacity="1.0" stroke="none"/><rect x="552.2868018897638" y="150.01672188976377" width="21.224316220472435" height="21.224316220472435" fill="#F8766D" fill-opacity="0.0" stroke="#F8766D" stroke-width="1.3333333333333333"/><text x="578.1226666666666" y="164.38354666666666" fill="#333333" font-size="11.733333333333334" font-family="sans-serif" text-anchor="start">PC1</text><rect x="552.2868018897638" y="173.13080188976375" width="21.224316220472435" height="21.224316220472435" fill="#7CAE00" fill-opacity="0.0" stroke="#7CAE00" stroke-width="1.3333333333333333"/><text x="578.1226666666666" y="187.49762666666666" fill="#333333" font-size="11.733333333333334" font-family="sans-serif" text-anchor="start">PC2</text><rect x="552.2868018897638" y="196.24488188976375" width="21.224316220472435" height="21.224316220472435" fill="#00BFC4" fill-opacity="0.0" stroke="#00BFC4" stroke-width="1.3333333333333333"/><text x="578.1226666666666" y="210.61170666666663" fill="#333333" font-size="11.733333333333334" font-family="sans-serif" text-anchor="start">PC3</text><rect x="552.2868018897638" y="219.3589618897638" width="21.224316220472435" height="21.224316220472435" fill="#C77CFF" fill-opacity="0.0" stroke="#C77CFF" stroke-width="1.3333333333333333"/><text x="578.1226666666666" y="233.72578666666666" fill="#333333" font-size="11.733333333333334" font-family="sans-serif" text-anchor="start">mean</text></svg>