<svg xmlns="http://www.w3.org/2000/svg" width="624" height="384" viewBox="0 0 624 384"><rect x="0.0" y="0.0" width="624.0" height="384.0" fill="#ffffff" fill-opacity="1.0" stroke="none"/><line x1="127.58272727272723" y1="7.333333333333333" x2="127.58272727272723" y2="358.3333333333333" stroke="#dddddd" stroke-width="0.6666666666666666"/><line x1="259.7675757575757" y1="7.333333333333333" x2="259.7675757575757" y2="358.3333333333333" stroke="#dddddd" stroke-width="0.6666666666666666"/><line x1="391.9524242424243" y1="7.333333333333333" x2="391.9524242424243" y2="358.3333333333333" stroke="#dddddd" stroke-width="0.6666666666666666"/><line x1="524.1372727272726" y1="7.333333333333333" x2="524.1372727272726" y2="358.3333333333333" stroke="#dddddd" stroke-width="0.6666666666666666"/><line x1="61.490303030303025" y1="7.333333333333333" x2="61.490303030303025" y2="358.3333333333333" stroke="#dddddd" stroke-width="1.3333333333333333"/><line x1="193.6751515151515" y1="7.333333333333333" x2="193.6751515151515" y2="358.3333333333333" stroke="#dddddd" stroke-width="1.3333333333333333"/><line x1="325.85999999999996" y1="7.333333333333333" x2="325.85999999999996" y2="358.3333333333333" stroke="#dddddd" stroke-width="1.3333333333333333"/><line x1="458.0448484848485" y1="7.333333333333333" x2="458.0448484848485" y2="358.3333333333333" stroke="#dddddd" stroke-width="1.3333333333333333"/><line x1="590.2296969696969" y1="7.333333333333333" x2="590.2296969696969" y2="358.3333333333333" stroke="#dddddd" stroke-width="1.3333333333333333"/><line x1="35.05333333333333" y1="333.5225512362688" x2="616.6666666666666" y2="333.5225512362688" stroke="#dddddd" stroke-width="0.6666666666666666"/><line x1="35.05333333333333" y1="271.8671181773837" x2="616.6666666666666" y2="271.8671181773837" stroke="#dddddd" stroke-width="0.6666666666666666"/><line x1="35.05333333333333" y1="210.21168511849874" x2="616.6666666666666" y2="210.21168511849874" stroke="#dddddd" stroke-width="0.6666666666666666"/><line x1="35.05333333333333" y1="148.55625205961366" x2="616.6666666666666" y2="148.55625205961366" stroke="#dddddd" stroke-width="0.6666666666666666"/><line x1="35.05333333333333" y1="86.90081900072869" x2="616.6666666666666" y2="86.90081900072869" stroke="#dddddd" stroke-width="0.6666666666666666"/><line x1="35.05333333333333" y1="25.2453859418437" x2="616.6666666666666" y2="25.2453859418437" stroke="#dddddd" stroke-width="0.6666666666666666"/><line x1="35.05333333333333" y1="302.6948347068262" x2="616.6666666666666" y2="302.6948347068262" stroke="#dddddd" stroke-width="1.3333333333333333"/><line x1="35.05333333333333" y1="241.03940164794122" x2="616.6666666666666" y2="241.03940164794122" stroke="#dddddd" stroke-width="1.3333333333333333"/><line x1="35.05333333333333" y1="179.3839685890562" x2="616.6666666666666" y2="179.3839685890562" stroke="#dddddd" stroke-width="1.3333333333333333"/><line x1="35.05333333333333" y1="117.72853553017117" x2="616.6666666666666" y2="117.72853553017117" stroke="#dddddd" stroke-width="1.3333333333333333"/><line x1="35.05333333333333" y1="56.07310247128619" x2="616.6666666666666" y2="56.07310247128619" stroke="#dddddd" stroke-width="1.3333333333333333"/><rect x="35.05333333333333" y="7.333333333333333" width="581.6133333333332" height="351.0" fill="#ffffff" fill-opacity="0.0" stroke="#444444" stroke-width="1.3333333333333333"/><line x1="61.490303030303025" y1="358.3333333333333" x2="61.490303030303025" y2="362.0" stroke="#444444" stroke-width="1.3333333333333333"/><text x="61.490303030303025" y="374.32" fill="#333333" font-size="11.733333333333334" font-family="sans-serif" text-anchor="middle">0</text><line x1="193.6751515151515" y1="358.3333333333333" x2="193.6751515151515" y2="362.0" stroke="#444444" stroke-width="1.3333333333333333"/><text x="193.6751515151515" y="374.32" fill="#333333" font-size="11.733333333333334" font-family="sans-serif" text-anchor="middle">2</text><line x1="325.85999999999996" y1="358.3333333333333" x2="325.85999999999996" y2="362.0" stroke="#444444" stroke-width="1.3333333333333333"/><text x="325.85999999999996" y="374.32" fill="#333333" font-size="11.733333333333334" font-family="sans-serif" text-anchor="middle">4</text><line x1="458.0448484848485" y1="358.3333333333333" x2="458.0448484848485" y2="362.0" stroke="#444444" stroke-width="1.3333333333333333"/><text x="458.0448484848485" y="374.32" fill="#333333" font-size="11.733333333333334" font-family="sans-serif" text-anchor="middle">6</text><line x1="590.2296969696969" y1="358.3333333333333" x2="590.2296969696969" y2="362.0" stroke="#444444" stroke-width="1.3333333333333333"/><text x="590.2296969696969" y="374.32" fill="#333333" font-size="11.733333333333334" font-family="sans-serif" text-anchor="middle">8</text><line x1="35.05333333333333" y1="302.6948347068262" x2="31.386666666666663" y2="302.6948347068262" stroke="#444444" stroke-width="1.3333333333333333"/><text x="28.453333333333333" y="306.8015013734929" fill="#333333" font-size="11.733333333333334" font-family="sans-serif" text-anchor="end">0.0</text><line x1="35.05333333333333" y1="241.03940164794122" x2="31.386666666666663" y2="241.03940164794122" stroke="#444444" stroke-width="1.3333333333333333"/><text x="28.453333333333333" y="245.1460683146079" fill="#333333" font-size="11.733333333333334" font-family="sans-serif" text-anchor="end">0.5</text><line x1="35.05333333333333" y1="179.3839685890562" x2="31.386666666666663" y2="179.3839685890562" stroke="#444444" stroke-width="1.3333333333333333"/><text x="28.453333333333333" y="183.49063525572288" fill="#333333" font-size="11.733333333333334" font-family="sans-serif" text-anchor="end">1.0</text><line x1="35.05333333333333" y1="117.72853553017117" x2="31.386666666666663" y2="117.72853553017117" stroke="#444444" stroke-width="1.3333333333333333"/><text x="28.453333333333333" y="121.83520219683784" fill="#333333" font-size="11.733333333333334" font-family="sans-serif" text-anchor="end">1.5</text><line x1="35.05333333333333" y1="56.07310247128619" x2="31.386666666666663" y2="56.07310247128619" stroke="#444444" stroke-width="1.3333333333333333"/><text x="28.453333333333333" y="60.17976913795286" fill="#333333" font-size="11.733333333333334" font-family="sans-serif" text-anchor="end">2.0</text><circle cx="61.490303030303025" cy="290.36374809504923" r="3.1181102362204727" fill="#1f77b4" fill-opacity="0.85" stroke="none"><title>(0, 0.1)</title></circle><circle cx="87.92727272727271" cy="242.8084048126332" r="3.1181102362204727" fill="#1f77b4" fill-opacity="0.85" stroke="none"><title>(0.4, 0.485654117756)</title></circle><circle cx="114.36424242424243" cy="208.5325956623351" r="3.1181102362204727" fill="#1f77b4" fill-opacity="0.85" stroke="none"><title>(0.8, 0.763616719345)</title></circle><circle cx="140.8012121212121" cy="176.62633756105055" r="3.1181102362204727" fill="#1f77b4" fill-opacity="0.85" stroke="none"><title>(1.2, 1.022363244334)</title></circle><circle cx="167.23818181818177" cy="148.76298255581912" r="3.1181102362204727" fill="#1f77b4" fill-opacity="0.85" stroke="none"><title>(1.6, 1.248323501385)</title></circle><circle cx="193.6751515151515" cy="141.73537864422036" r="3.1181102362204727" fill="#1f77b4" fill-opacity="0.85" stroke="none"><title>(2, 1.305314455491)</title></circle><circle cx="220.11212121212117" cy="167.50934033011734" r="3.1181102362204727" fill="#1f77b4" fill-opacity="0.85" stroke="none"><title>(2.4, 1.096298312004)</title></circle><circle cx="246.5490909090909" cy="215.99998537287456" r="3.1181102362204727" fill="#1f77b4" fill-opacity="0.85" stroke="none"><title>(2.8, 0.703059284744)</title></circle><circle cx="272.98606060606056" cy="262.8460563905968" r="3.1181102362204727" fill="#1f77b4" fill-opacity="0.85" stroke="none"><title>(3.2, 0.323157070993)</title></circle><circle cx="299.42303030303026" cy="293.07084504849746" r="3.1181102362204727" fill="#1f77b4" fill-opacity="0.85" stroke="none"><title>(3.6, 0.07804656606)</title></circle><circle cx="325.85999999999996" cy="311.6246499598532" r="3.1181102362204727" fill="#1f77b4" fill-opacity="0.85" stroke="none"><title>(4, -0.072417099435)</title></circle><circle cx="352.2969696969697" cy="328.7151141191744" r="3.1181102362204727" fill="#1f77b4" fill-opacity="0.85" stroke="none"><title>(4.4, -0.211013678125)</title></circle><circle cx="378.7339393939394" cy="339.95276213616364" r="3.1181102362204727" fill="#1f77b4" fill-opacity="0.85" stroke="none"><title>(4.8, -0.302146344457)</title></circle><circle cx="405.17090909090905" cy="327.7112083112264" r="3.1181102362204727" fill="#1f77b4" fill-opacity="0.85" stroke="none"><title>(5.2, -0.202872418239)</title></circle><circle cx="431.6078787878788" cy="282.63641059674853" r="3.1181102362204727" fill="#1f77b4" fill-opacity="0.85" stroke="none"><title>(5.6, 0.162665503387)</title></circle><circle cx="458.0448484848485" cy="218.02759976990978" r="3.1181102362204727" fill="#1f77b4" fill-opacity="0.85" stroke="none"><title>(6, 0.686616172625)</title></circle><circle cx="484.4818181818182" cy="158.36301239565287" r="3.1181102362204727" fill="#1f77b4" fill-opacity="0.85" stroke="none"><title>(6.4, 1.17047123952)</title></circle><circle cx="510.91878787878784" cy="115.73725796569946" r="3.1181102362204727" fill="#1f77b4" fill-opacity="0.85" stroke="none"><title>(6.8, 1.516148435472)</title></circle><circle cx="537.3557575757575" cy="83.05096912516433" r="3.1181102362204727" fill="#1f77b4" fill-opacity="0.85" stroke="none"><title>(7.2, 1.781220686358)</title></circle><circle cx="563.7927272727272" cy="51.277951736076716" r="3.1181102362204727" fill="#1f77b4" fill-opacity="0.85" stroke="none"><title>(7.6, 2.038886684411)</title></circle><circle cx="590.2296969696969" cy="27.49258499524459" r="3.1181102362204727" fill="#1f77b4" fill-opacity="0.85" stroke="none"><title>(8, 2.231776147357)</title></circle><path d="M 61.490303030303025 313.9742434446721 L 66.8311049892868 296.36907683604414 L 72.17190694827057 284.0331188425602 L 77.51270890725436 275.43275524029127 L 82.85351086623812 268.7279517384093 L 88.19431282522191 262.6061182121524 L 93.53511478420569 256.4304729533602 L 98.87591674318946 250.02783381557663 L 104.21671870217324 243.48750543487077 L 109.55752066115703 237.0342995556669 L 114.89832262014079 230.9417382429091 L 120.23912457912456 225.45409094766592 L 125.57992653810834 220.7104557503012 L 130.9207284970921 216.69220678684178 L 136.2615304560759 213.22316780993995 L 141.60233241505966 210.0450580901773 L 146.94313437404347 207.02383578530345 L 152.2839363330272 204.15977321532878 L 157.624738292011 201.5226711163998 L 162.96554025099476 199.22298711172712 L 168.30634220997857 197.38870450327218 L 173.64714416896234 196.1439966092852 L 178.9879461279461 195.58873997464138 L 184.32874808692986 195.78142004979333 L 189.66955004591364 196.7299599130156 L 195.01035200489744 198.3935132265407 L 200.35115396388122 200.69407129131514 L 205.691955922865 203.5334318364417 L 211.03275788184874 206.81126137893085 L 216.3735598408325 210.4451812630166 L 221.7143617998163 214.4080626595699 L 227.0551637588001 218.72126595935464 L 232.39596571778387 223.42892386266521 L 237.73676767676764 228.5833838426137 L 243.0775696357514 234.22967872208778 L 248.41837159473516 240.38838803789656 L 253.75917355371897 247.03967710725206 L 259.0999755127027 254.11360060745963 L 264.4407774716865 261.4906783440595 L 269.78157943067026 269.0123694187596 L 275.12238138965404 276.49698972431634 L 280.4631833486378 283.75608055319844 L 285.8039853076216 290.60878530469483 L 291.14478726660536 296.9000170779505 L 296.48558922558914 302.59236662044015 L 301.8263911845729 307.75086858663553 L 307.16719314355674 312.46240650217146 L 312.50799510254046 316.8206228317582 L 317.8487970615243 320.91142494088103 L 323.18959902050807 324.79643148722937 L 328.53040097949184 328.4970624714937 L 333.8712029384757 331.98442303659044 L 339.21200489745945 335.1793034676622 L 344.55280685644317 337.9622953928525 L 349.89360881542694 340.18970173250915 L 355.2344107744107 341.7100903077549 L 360.57521273339455 342.3787878787879 L 365.9160146923783 342.07316264021495 L 371.25681665136204 340.7793884127207 L 376.5976186103458 338.6089835352868 L 381.93842056932965 335.6996924929632 L 387.2792225283134 332.19686187762034 L 392.6200244872972 328.2390636808402 L 397.960826446281 323.94172668525425 L 403.30162840526475 319.38121896966084 L 408.6424303642485 314.5843737410939 L 413.9832323232323 309.5279135666799 L 419.3240342822161 304.1481467939486 L 424.66483624119985 298.3569284843518 L 430.0056382001836 292.05879904911563 L 435.3464401591674 285.166513672285 L 440.6872421181512 277.6161255866147 L 446.02804407713495 269.43798227078537 L 451.3688460361187 260.7983819942025 L 456.7096479951025 251.8897925281779 L 462.0504499540863 242.9025504319314 L 467.39125191307005 234.00679869283888 L 472.7320538720538 225.33551793699 L 478.0728558310376 216.97291937443293 L 483.4136577900214 208.9526518430373 L 488.75445974900515 201.2669730862505 L 494.09526170798904 193.8838440741446 L 499.4360636669727 186.76741579308066 L 504.7768656259565 179.8993649081704 L 510.11766758494025 173.30202497158987 L 515.458469543924 167.06717274985527 L 520.7992715029079 161.37761665950657 L 526.1400734618916 156.4268300105275 L 531.4808754208753 152.30777804295064 L 536.8216773798591 148.95587561343393 L 542.1624793388429 146.14881363429845 L 547.5032812978268 143.55911164716048 L 552.8440832568104 140.83003657976082 L 558.1848852157943 137.65356568036026 L 563.525687174778 133.8571833055743 L 568.8664891337618 129.53086059454404 L 574.2072910927457 125.22816824811476 L 579.5480930517293 122.17848538373326 L 584.8888950107131 122.13863528491231 L 590.2296969696969 126.55902116826579 L 590.2296969696969 23.28787878787879 L 584.8888950107131 37.93108369463319 L 579.5480930517293 47.216630469189 L 574.2072910927457 52.75574282109244 L 568.8664891337618 56.466064526788614 L 563.525687174778 59.73779519665682 L 558.1848852157943 63.285326024474514 L 552.8440832568104 67.35944864231529 L 547.5032812978268 71.94846789972696 L 542.1624793388429 76.90518153790268 L 536.8216773798591 82.0336769775154 L 531.4808754208753 87.16729425311405 L 526.1400734618916 92.24454476995182 L 520.7992715029079 97.36166387761912 L 515.458469543924 102.77243730908101 L 510.11766758494025 108.79995618273622 L 504.7768656259565 115.56408571214524 L 499.4360636669727 123.02027536948033 L 494.09526170798904 131.05438695570064 L 488.75445974900515 139.51162538470152 L 483.4136577900214 148.21966989162712 L 478.0728558310376 157.01000969533294 L 472.7320538720538 165.73843078804953 L 467.39125191307005 174.30211025643007 L 462.0504499540863 182.64878755930556 L 456.7096479951025 190.77497157154937 L 451.3688460361187 198.71433352932073 L 446.02804407713495 206.52073824062245 L 440.6872421181512 214.25018172554996 L 435.3464401591674 221.93801671741858 L 430.0056382001836 229.53793469622588 L 424.66483624119985 236.94014707159093 L 419.3240342822161 244.01192088219037 L 413.9832323232323 250.61230839388318 L 408.6424303642485 256.60767652275297 L 403.30162840526475 261.8888454709618 L 397.960826446281 266.3870496602688 L 392.6200244872972 270.0836341523397 L 387.2792225283134 273.00947888060546 L 381.93842056932965 275.23452448232945 L 376.5976186103458 276.85185480372616 L 371.25681665136204 277.9613282912982 L 365.9160146923783 278.6552012847277 L 360.57521273339455 279.00271572836266 L 355.2344107744107 279.00171642386084 L 349.89360881542694 278.58600632265535 L 344.55280685644317 277.6687018991113 L 339.21200489745945 276.15616068851847 L 333.8712029384757 273.96247532539155 L 328.53040097949184 271.02602715204125 L 323.18959902050807 267.32539616777694 L 317.8487970615243 262.8894772296822 L 312.50799510254046 257.7974800526145 L 307.16719314355674 252.16881300843022 L 301.8263911845729 246.14717317678173 L 296.48558922558914 239.88399273654613 L 291.14478726660536 233.52394492752538 L 285.8039853076216 227.19082394920753 L 280.4631833486378 220.93802043177587 L 275.12238138965404 214.73986099275567 L 269.78157943067026 208.54720140812574 L 264.4407774716865 202.30329534704472 L 259.0999755127027 195.95817107895914 L 253.75917355371897 189.48500008226665 L 248.41837159473516 182.89601453919752 L 243.0775696357514 176.25298150374692 L 237.73676767676764 169.66777866981704 L 232.39596571778387 163.29269795090687 L 227.0551637588001 157.3044845465938 L 221.7143617998163 151.88719830668015 L 216.3735598408325 147.2166843081501 L 211.03275788184874 143.44531751786613 L 205.691955922865 140.61618780627873 L 200.35115396388122 138.61002282643335 L 195.01035200489744 137.27869226991214 L 189.66955004591364 136.47619704038974 L 184.32874808692986 136.0767316133845 L 178.9879461279461 135.99165282570095 L 173.64714416896234 136.18108693018524 L 168.30634220997857 136.65572255186203 L 162.96554025099476 137.46763941017815 L 157.624738292011 138.69321399795587 L 152.2839363330272 140.4126327917285 L 146.94313437404347 142.68855658927828 L 141.60233241505966 145.5429893013237 L 136.2615304560759 148.92843236916568 L 130.9207284970921 152.67625400495433 L 125.57992653810834 156.52817050972547 L 120.23912457912456 160.31360715782935 L 114.89832262014079 164.01953960699063 L 109.55752066115703 167.79066745927116 L 104.21671870217324 171.87686168743727 L 98.87591674318946 176.55724587813108 L 93.53511478420569 182.06223329747456 L 88.19431282522191 188.48673010323492 L 82.85351086623812 195.66315567065385 L 77.51270890725436 202.96032981326886 L 72.17190694827057 209.07126392801595 L 66.8311049892868 212.16152524576506 L 61.490303030303025 210.7031010642851 Z" fill="#1f77b4" fill-opacity="0.2" stroke="none"/><line x1="61.490303030303025" y1="262.3386722544786" x2="66.8311049892868" y2="254.2653010409046" stroke="#1f77b4" stroke-width="1.4211023622047245"/><line x1="66.8311049892868" y1="254.2653010409046" x2="72.17190694827057" y2="246.5521913852881" stroke="#1f77b4" stroke-width="1.4211023622047245"/><line x1="72.17190694827057" y1="246.5521913852881" x2="77.51270890725436" y2="239.19654252678006" stroke="#1f77b4" stroke-width="1.4211023622047245"/><line x1="77.51270890725436" y1="239.19654252678006" x2="82.85351086623812" y2="232.1955537045316" stroke="#1f77b4" stroke-width="1.4211023622047245"/><line x1="82.85351086623812" y1="232.1955537045316" x2="88.19431282522191" y2="225.54642415769368" stroke="#1f77b4" stroke-width="1.4211023622047245"/><line x1="88.19431282522191" y1="225.54642415769368" x2="93.53511478420569" y2="219.24635312541741" stroke="#1f77b4" stroke-width="1.4211023622047245"/><line x1="93.53511478420569" y1="219.24635312541741" x2="98.87591674318946" y2="213.29253984685386" stroke="#1f77b4" stroke-width="1.4211023622047245"/><line x1="98.87591674318946" y1="213.29253984685386" x2="104.21671870217324" y2="207.68218356115403" stroke="#1f77b4" stroke-width="1.4211023622047245"/><line x1="104.21671870217324" y1="207.68218356115403" x2="109.55752066115703" y2="202.41248350746903" stroke="#1f77b4" stroke-width="1.4211023622047245"/><line x1="109.55752066115703" y1="202.41248350746903" x2="114.89832262014079" y2="197.4806389249499" stroke="#1f77b4" stroke-width="1.4211023622047245"/><line x1="114.89832262014079" y1="197.4806389249499" x2="120.23912457912456" y2="192.88384905274762" stroke="#1f77b4" stroke-width="1.4211023622047245"/><line x1="120.23912457912456" y1="192.88384905274762" x2="125.57992653810834" y2="188.61931313001332" stroke="#1f77b4" stroke-width="1.4211023622047245"/><line x1="125.57992653810834" y1="188.61931313001332" x2="130.9207284970921" y2="184.68423039589803" stroke="#1f77b4" stroke-width="1.4211023622047245"/><line x1="130.9207284970921" y1="184.68423039589803" x2="136.2615304560759" y2="181.0758000895528" stroke="#1f77b4" stroke-width="1.4211023622047245"/><line x1="136.2615304560759" y1="181.0758000895528" x2="141.60233241505966" y2="177.79402369575047" stroke="#1f77b4" stroke-width="1.4211023622047245"/><line x1="141.60233241505966" y1="177.79402369575047" x2="146.94313437404347" y2="174.85619618729086" stroke="#1f77b4" stroke-width="1.4211023622047245"/><line x1="146.94313437404347" y1="174.85619618729086" x2="152.2839363330272" y2="172.28620300352864" stroke="#1f77b4" stroke-width="1.4211023622047245"/><line x1="152.2839363330272" y1="172.28620300352864" x2="157.624738292011" y2="170.10794255717784" stroke="#1f77b4" stroke-width="1.4211023622047245"/><line x1="157.624738292011" y1="170.10794255717784" x2="162.96554025099476" y2="168.34531326095265" stroke="#1f77b4" stroke-width="1.4211023622047245"/><line x1="162.96554025099476" y1="168.34531326095265" x2="168.30634220997857" y2="167.0222135275671" stroke="#1f77b4" stroke-width="1.4211023622047245"/><line x1="168.30634220997857" y1="167.0222135275671" x2="173.64714416896234" y2="166.1625417697352" stroke="#1f77b4" stroke-width="1.4211023622047245"/><line x1="173.64714416896234" y1="166.1625417697352" x2="178.9879461279461" y2="165.79019640017117" stroke="#1f77b4" stroke-width="1.4211023622047245"/><line x1="178.9879461279461" y1="165.79019640017117" x2="184.32874808692986" y2="165.92907583158893" stroke="#1f77b4" stroke-width="1.4211023622047245"/><line x1="184.32874808692986" y1="165.92907583158893" x2="189.66955004591364" y2="166.60307847670268" stroke="#1f77b4" stroke-width="1.4211023622047245"/><line x1="189.66955004591364" y1="166.60307847670268" x2="195.01035200489744" y2="167.83610274822644" stroke="#1f77b4" stroke-width="1.4211023622047245"/><line x1="195.01035200489744" y1="167.83610274822644" x2="200.35115396388122" y2="169.65204705887425" stroke="#1f77b4" stroke-width="1.4211023622047245"/><line x1="200.35115396388122" y1="169.65204705887425" x2="205.691955922865" y2="172.07480982136022" stroke="#1f77b4" stroke-width="1.4211023622047245"/><line x1="205.691955922865" y1="172.07480982136022" x2="211.03275788184874" y2="175.1282894483985" stroke="#1f77b4" stroke-width="1.4211023622047245"/><line x1="211.03275788184874" y1="175.1282894483985" x2="216.3735598408325" y2="178.83093278558331" stroke="#1f77b4" stroke-width="1.4211023622047245"/><line x1="216.3735598408325" y1="178.83093278558331" x2="221.7143617998163" y2="183.14763048312503" stroke="#1f77b4" stroke-width="1.4211023622047245"/><line x1="221.7143617998163" y1="183.14763048312503" x2="227.0551637588001" y2="188.01287525297425" stroke="#1f77b4" stroke-width="1.4211023622047245"/><line x1="227.0551637588001" y1="188.01287525297425" x2="232.39596571778387" y2="193.36081090678604" stroke="#1f77b4" stroke-width="1.4211023622047245"/><line x1="232.39596571778387" y1="193.36081090678604" x2="237.73676767676764" y2="199.12558125621536" stroke="#1f77b4" stroke-width="1.4211023622047245"/><line x1="237.73676767676764" y1="199.12558125621536" x2="243.0775696357514" y2="205.24133011291738" stroke="#1f77b4" stroke-width="1.4211023622047245"/><line x1="243.0775696357514" y1="205.24133011291738" x2="248.41837159473516" y2="211.642201288547" stroke="#1f77b4" stroke-width="1.4211023622047245"/><line x1="248.41837159473516" y1="211.642201288547" x2="253.75917355371897" y2="218.26233859475934" stroke="#1f77b4" stroke-width="1.4211023622047245"/><line x1="253.75917355371897" y1="218.26233859475934" x2="259.0999755127027" y2="225.03588584320937" stroke="#1f77b4" stroke-width="1.4211023622047245"/><line x1="259.0999755127027" y1="225.03588584320937" x2="264.4407774716865" y2="231.89698684555214" stroke="#1f77b4" stroke-width="1.4211023622047245"/><line x1="264.4407774716865" y1="231.89698684555214" x2="269.78157943067026" y2="238.77978541344265" stroke="#1f77b4" stroke-width="1.4211023622047245"/><line x1="269.78157943067026" y1="238.77978541344265" x2="275.12238138965404" y2="245.61842535853603" stroke="#1f77b4" stroke-width="1.4211023622047245"/><line x1="275.12238138965404" y1="245.61842535853603" x2="280.4631833486378" y2="252.34705049248714" stroke="#1f77b4" stroke-width="1.4211023622047245"/><line x1="280.4631833486378" y1="252.34705049248714" x2="285.8039853076216" y2="258.89980462695115" stroke="#1f77b4" stroke-width="1.4211023622047245"/><line x1="285.8039853076216" y1="258.89980462695115" x2="291.14478726660536" y2="265.21198100273796" stroke="#1f77b4" stroke-width="1.4211023622047245"/><line x1="291.14478726660536" y1="265.21198100273796" x2="296.48558922558914" y2="271.2381796784931" stroke="#1f77b4" stroke-width="1.4211023622047245"/><line x1="296.48558922558914" y1="271.2381796784931" x2="301.8263911845729" y2="276.94902088170863" stroke="#1f77b4" stroke-width="1.4211023622047245"/><line x1="301.8263911845729" y1="276.94902088170863" x2="307.16719314355674" y2="282.31560975530084" stroke="#1f77b4" stroke-width="1.4211023622047245"/><line x1="307.16719314355674" y1="282.31560975530084" x2="312.50799510254046" y2="287.3090514421864" stroke="#1f77b4" stroke-width="1.4211023622047245"/><line x1="312.50799510254046" y1="287.3090514421864" x2="317.8487970615243" y2="291.90045108528165" stroke="#1f77b4" stroke-width="1.4211023622047245"/><line x1="317.8487970615243" y1="291.90045108528165" x2="323.18959902050807" y2="296.06091382750316" stroke="#1f77b4" stroke-width="1.4211023622047245"/><line x1="323.18959902050807" y1="296.06091382750316" x2="328.53040097949184" y2="299.76154481176746" stroke="#1f77b4" stroke-width="1.4211023622047245"/><line x1="328.53040097949184" y1="299.76154481176746" x2="333.8712029384757" y2="302.973449180991" stroke="#1f77b4" stroke-width="1.4211023622047245"/><line x1="333.8712029384757" y1="302.973449180991" x2="339.21200489745945" y2="305.66773207809035" stroke="#1f77b4" stroke-width="1.4211023622047245"/><line x1="339.21200489745945" y1="305.66773207809035" x2="344.55280685644317" y2="307.8154986459819" stroke="#1f77b4" stroke-width="1.4211023622047245"/><line x1="344.55280685644317" y1="307.8154986459819" x2="349.89360881542694" y2="309.38785402758225" stroke="#1f77b4" stroke-width="1.4211023622047245"/><line x1="349.89360881542694" y1="309.38785402758225" x2="355.2344107744107" y2="310.3559033658079" stroke="#1f77b4" stroke-width="1.4211023622047245"/><line x1="355.2344107744107" y1="310.3559033658079" x2="360.57521273339455" y2="310.69075180357527" stroke="#1f77b4" stroke-width="1.4211023622047245"/><line x1="360.57521273339455" y1="310.69075180357527" x2="365.9160146923783" y2="310.3641819624713" stroke="#1f77b4" stroke-width="1.4211023622047245"/><line x1="365.9160146923783" y1="310.3641819624713" x2="371.25681665136204" y2="309.3703583520094" stroke="#1f77b4" stroke-width="1.4211023622047245"/><line x1="371.25681665136204" y1="309.3703583520094" x2="376.5976186103458" y2="307.7304191695065" stroke="#1f77b4" stroke-width="1.4211023622047245"/><line x1="376.5976186103458" y1="307.7304191695065" x2="381.93842056932965" y2="305.4671084876463" stroke="#1f77b4" stroke-width="1.4211023622047245"/><line x1="381.93842056932965" y1="305.4671084876463" x2="387.2792225283134" y2="302.6031703791129" stroke="#1f77b4" stroke-width="1.4211023622047245"/><line x1="387.2792225283134" y1="302.6031703791129" x2="392.6200244872972" y2="299.16134891659" stroke="#1f77b4" stroke-width="1.4211023622047245"/><line x1="392.6200244872972" y1="299.16134891659" x2="397.960826446281" y2="295.1643881727615" stroke="#1f77b4" stroke-width="1.4211023622047245"/><line x1="397.960826446281" y1="295.1643881727615" x2="403.30162840526475" y2="290.63503222031136" stroke="#1f77b4" stroke-width="1.4211023622047245"/><line x1="403.30162840526475" y1="290.63503222031136" x2="408.6424303642485" y2="285.5960251319234" stroke="#1f77b4" stroke-width="1.4211023622047245"/><line x1="408.6424303642485" y1="285.5960251319234" x2="413.9832323232323" y2="280.0701109802815" stroke="#1f77b4" stroke-width="1.4211023622047245"/><line x1="413.9832323232323" y1="280.0701109802815" x2="419.3240342822161" y2="274.0800338380695" stroke="#1f77b4" stroke-width="1.4211023622047245"/><line x1="419.3240342822161" y1="274.0800338380695" x2="424.66483624119985" y2="267.64853777797134" stroke="#1f77b4" stroke-width="1.4211023622047245"/><line x1="424.66483624119985" y1="267.64853777797134" x2="430.0056382001836" y2="260.7983668726707" stroke="#1f77b4" stroke-width="1.4211023622047245"/><line x1="430.0056382001836" y1="260.7983668726707" x2="435.3464401591674" y2="253.5522651948518" stroke="#1f77b4" stroke-width="1.4211023622047245"/><line x1="435.3464401591674" y1="253.5522651948518" x2="440.6872421181512" y2="245.9331536560823" stroke="#1f77b4" stroke-width="1.4211023622047245"/><line x1="440.6872421181512" y1="245.9331536560823" x2="446.02804407713495" y2="237.9793602557039" stroke="#1f77b4" stroke-width="1.4211023622047245"/><line x1="446.02804407713495" y1="237.9793602557039" x2="451.3688460361187" y2="229.7563577617616" stroke="#1f77b4" stroke-width="1.4211023622047245"/><line x1="451.3688460361187" y1="229.7563577617616" x2="456.7096479951025" y2="221.3323820498636" stroke="#1f77b4" stroke-width="1.4211023622047245"/><line x1="456.7096479951025" y1="221.3323820498636" x2="462.0504499540863" y2="212.77566899561845" stroke="#1f77b4" stroke-width="1.4211023622047245"/><line x1="462.0504499540863" y1="212.77566899561845" x2="467.39125191307005" y2="204.15445447463446" stroke="#1f77b4" stroke-width="1.4211023622047245"/><line x1="467.39125191307005" y1="204.15445447463446" x2="472.7320538720538" y2="195.53697436251974" stroke="#1f77b4" stroke-width="1.4211023622047245"/><line x1="472.7320538720538" y1="195.53697436251974" x2="478.0728558310376" y2="186.99146453488294" stroke="#1f77b4" stroke-width="1.4211023622047245"/><line x1="478.0728558310376" y1="186.99146453488294" x2="483.4136577900214" y2="178.5861608673322" stroke="#1f77b4" stroke-width="1.4211023622047245"/><line x1="483.4136577900214" y1="178.5861608673322" x2="488.75445974900515" y2="170.389299235476" stroke="#1f77b4" stroke-width="1.4211023622047245"/><line x1="488.75445974900515" y1="170.389299235476" x2="494.09526170798904" y2="162.4691155149226" stroke="#1f77b4" stroke-width="1.4211023622047245"/><line x1="494.09526170798904" y1="162.4691155149226" x2="499.4360636669727" y2="154.89384558128046" stroke="#1f77b4" stroke-width="1.4211023622047245"/><line x1="499.4360636669727" y1="154.89384558128046" x2="504.7768656259565" y2="147.73172531015783" stroke="#1f77b4" stroke-width="1.4211023622047245"/><line x1="504.7768656259565" y1="147.73172531015783" x2="510.11766758494025" y2="141.05099057716305" stroke="#1f77b4" stroke-width="1.4211023622047245"/><line x1="510.11766758494025" y1="141.05099057716305" x2="515.458469543924" y2="134.91980502946814" stroke="#1f77b4" stroke-width="1.4211023622047245"/><line x1="515.458469543924" y1="134.91980502946814" x2="520.7992715029079" y2="129.36964026856282" stroke="#1f77b4" stroke-width="1.4211023622047245"/><line x1="520.7992715029079" y1="129.36964026856282" x2="526.1400734618916" y2="124.33568739023966" stroke="#1f77b4" stroke-width="1.4211023622047245"/><line x1="526.1400734618916" y1="124.33568739023966" x2="531.4808754208753" y2="119.73753614803236" stroke="#1f77b4" stroke-width="1.4211023622047245"/><line x1="531.4808754208753" y1="119.73753614803236" x2="536.8216773798591" y2="115.49477629547467" stroke="#1f77b4" stroke-width="1.4211023622047245"/><line x1="536.8216773798591" y1="115.49477629547467" x2="542.1624793388429" y2="111.52699758610056" stroke="#1f77b4" stroke-width="1.4211023622047245"/><line x1="542.1624793388429" y1="111.52699758610056" x2="547.5032812978268" y2="107.75378977344374" stroke="#1f77b4" stroke-width="1.4211023622047245"/><line x1="547.5032812978268" y1="107.75378977344374" x2="552.8440832568104" y2="104.09474261103806" stroke="#1f77b4" stroke-width="1.4211023622047245"/><line x1="552.8440832568104" y1="104.09474261103806" x2="558.1848852157943" y2="100.46944585241745" stroke="#1f77b4" stroke-width="1.4211023622047245"/><line x1="558.1848852157943" y1="100.46944585241745" x2="563.525687174778" y2="96.79748925111554" stroke="#1f77b4" stroke-width="1.4211023622047245"/><line x1="563.525687174778" y1="96.79748925111554" x2="568.8664891337618" y2="92.99846256066633" stroke="#1f77b4" stroke-width="1.4211023622047245"/><line x1="568.8664891337618" y1="92.99846256066633" x2="574.2072910927457" y2="88.99195553460359" stroke="#1f77b4" stroke-width="1.4211023622047245"/><line x1="574.2072910927457" y1="88.99195553460359" x2="579.5480930517293" y2="84.69755792646117" stroke="#1f77b4" stroke-width="1.4211023622047245"/><line x1="579.5480930517293" y1="84.69755792646117" x2="584.8888950107131" y2="80.03485948977273" stroke="#1f77b4" stroke-width="1.4211023622047245"/><line x1="584.8888950107131" y1="80.03485948977273" x2="590.2296969696969" y2="74.92344997807227" stroke="#1f77b4" stroke-width="1.4211023622047245"/></svg>