<svg xmlns="http://www.w3.org/2000/svg" width="624" height="384" viewBox="0 0 624 384"><rect x="0.0" y="0.0" width="624.0" height="384.0" fill="#ffffff" fill-opacity="1.0" stroke="none"/><line x1="107.68882060606059" y1="7.333333333333333" x2="107.68882060606059" y2="358.3333333333333" stroke="#dddddd" stroke-width="0.6666666666666666"/><line x1="211.45380242424238" y1="7.333333333333333" x2="211.45380242424238" y2="358.3333333333333" stroke="#dddddd" stroke-width="0.6666666666666666"/><line x1="315.21878424242425" y1="7.333333333333333" x2="315.21878424242425" y2="358.3333333333333" stroke="#dddddd" stroke-width="0.6666666666666666"/><line x1="418.98376606060606" y1="7.333333333333333" x2="418.98376606060606" y2="358.3333333333333" stroke="#dddddd" stroke-width="0.6666666666666666"/><line x1="55.8063296969697" y1="7.333333333333333" x2="55.8063296969697" y2="358.3333333333333" stroke="#dddddd" stroke-width="1.3333333333333333"/><line x1="159.5713115151515" y1="7.333333333333333" x2="159.5713115151515" y2="358.3333333333333" stroke="#dddddd" stroke-width="1.3333333333333333"/><line x1="263.3362933333333" y1="7.333333333333333" x2="263.3362933333333" y2="358.3333333333333" stroke="#dddddd" stroke-width="1.3333333333333333"/><line x1="367.1012751515152" y1="7.333333333333333" x2="367.1012751515152" y2="358.3333333333333" stroke="#dddddd" stroke-width="1.3333333333333333"/><line x1="470.86625696969696" y1="7.333333333333333" x2="470.86625696969696" y2="358.3333333333333" stroke="#dddddd" stroke-width="1.3333333333333333"/><line x1="35.05333333333333" y1="335.834962664262" x2="491.61925333333335" y2="335.834962664262" stroke="#dddddd" stroke-width="0.6666666666666666"/><line x1="35.05333333333333" y1="273.090150131" x2="491.61925333333335" y2="273.090150131" stroke="#dddddd" stroke-width="0.6666666666666666"/><line x1="35.05333333333333" y1="210.345337597738" x2="491.61925333333335" y2="210.345337597738" stroke="#dddddd" stroke-width="0.6666666666666666"/><line x1="35.05333333333333" y1="147.60052506447596" x2="491.61925333333335" y2="147.60052506447596" stroke="#dddddd" stroke-width="0.6666666666666666"/><line x1="35.05333333333333" y1="84.85571253121391" x2="491.61925333333335" y2="84.85571253121391" stroke="#dddddd" stroke-width="0.6666666666666666"/><line x1="35.05333333333333" y1="22.110899997951908" x2="491.61925333333335" y2="22.110899997951908" stroke="#dddddd" stroke-width="0.6666666666666666"/><line x1="35.05333333333333" y1="304.462556397631" x2="491.61925333333335" y2="304.462556397631" stroke="#dddddd" stroke-width="1.3333333333333333"/><line x1="35.05333333333333" y1="241.71774386436897" x2="491.61925333333335" y2="241.71774386436897" stroke="#dddddd" stroke-width="1.3333333333333333"/><line x1="35.05333333333333" y1="178.97293133110693" x2="491.61925333333335" y2="178.97293133110693" stroke="#dddddd" stroke-width="1.3333333333333333"/><line x1="35.05333333333333" y1="116.22811879784493" x2="491.61925333333335" y2="116.22811879784493" stroke="#dddddd" stroke-width="1.3333333333333333"/><line x1="35.05333333333333" y1="53.48330626458293" x2="491.61925333333335" y2="53.48330626458293" stroke="#dddddd" stroke-width="1.3333333333333333"/><rect x="35.05333333333333" y="7.333333333333333" width="456.56592" height="351.0" fill="#ffffff" fill-opacity="0.0" stroke="#444444" stroke-width="1.3333333333333333"/><line x1="55.8063296969697" y1="358.3333333333333" x2="55.8063296969697" y2="362.0" stroke="#444444" stroke-width="1.3333333333333333"/><text x="55.8063296969697" y="374.32" fill="#333333" font-size="11.733333333333334" font-family="sans-serif" text-anchor="middle">0</text><line x1="159.5713115151515" y1="358.3333333333333" x2="159.5713115151515" y2="362.0" stroke="#444444" stroke-width="1.3333333333333333"/><text x="159.5713115151515" y="374.32" fill="#333333" font-size="11.733333333333334" font-family="sans-serif" text-anchor="middle">2</text><line x1="263.3362933333333" y1="358.3333333333333" x2="263.3362933333333" y2="362.0" stroke="#444444" stroke-width="1.3333333333333333"/><text x="263.3362933333333" y="374.32" fill="#333333" font-size="11.733333333333334" font-family="sans-serif" text-anchor="middle">4</text><line x1="367.1012751515152" y1="358.3333333333333" x2="367.1012751515152" y2="362.0" stroke="#444444" stroke-width="1.3333333333333333"/><text x="367.1012751515152" y="374.32" fill="#333333" font-size="11.733333333333334" font-family="sans-serif" text-anchor="middle">6</text><line x1="470.86625696969696" y1="358.3333333333333" x2="470.86625696969696" y2="362.0" stroke="#444444" stroke-width="1.3333333333333333"/><text x="470.86625696969696" y="374.32" fill="#333333" font-size="11.733333333333334" font-family="sans-serif" text-anchor="middle">8</text><line x1="35.05333333333333" y1="304.462556397631" x2="31.386666666666663" y2="304.462556397631" stroke="#444444" stroke-width="1.3333333333333333"/><text x="28.453333333333333" y="308.56922306429766" fill="#333333" font-size="11.733333333333334" font-family="sans-serif" text-anchor="end">0.0</text><line x1="35.05333333333333" y1="241.71774386436897" x2="31.386666666666663" y2="241.71774386436897" stroke="#444444" stroke-width="1.3333333333333333"/><text x="28.453333333333333" y="245.82441053103565" fill="#333333" font-size="11.733333333333334" font-family="sans-serif" text-anchor="end">0.5</text><line x1="35.05333333333333" y1="178.97293133110693" x2="31.386666666666663" y2="178.97293133110693" stroke="#444444" stroke-width="1.3333333333333333"/><text x="28.453333333333333" y="183.07959799777362" fill="#333333" font-size="11.733333333333334" font-family="sans-serif" text-anchor="end">1.0</text><line x1="35.05333333333333" y1="116.22811879784493" x2="31.386666666666663" y2="116.22811879784493" stroke="#444444" stroke-width="1.3333333333333333"/><text x="28.453333333333333" y="120.3347854645116" fill="#333333" font-size="11.733333333333334" font-family="sans-serif" text-anchor="end">1.5</text><line x1="35.05333333333333" y1="53.48330626458293" x2="31.386666666666663" y2="53.48330626458293" stroke="#444444" stroke-width="1.3333333333333333"/><text x="28.453333333333333" y="57.58997293124959" fill="#333333" font-size="11.733333333333334" font-family="sans-serif" text-anchor="end">2.0</text><circle cx="55.8063296969697" cy="291.9135938909786" r="3.1181102362204727" fill="#1f77b4" fill-opacity="0.85" stroke="none"><title>(0, 0.1)</title></circle><circle cx="76.55932606060605" cy="243.51800324837714" r="3.1181102362204727" fill="#1f77b4" fill-opacity="0.85" stroke="none"><title>(0.4, 0.485654117756)</title></circle><circle cx="97.31232242424244" cy="208.6365805924479" r="3.1181102362204727" fill="#1f77b4" fill-opacity="0.85" stroke="none"><title>(0.8, 0.763616719345)</title></circle><circle cx="118.06531878787878" cy="176.16657618438586" r="3.1181102362204727" fill="#1f77b4" fill-opacity="0.85" stroke="none"><title>(1.2, 1.022363244334)</title></circle><circle cx="138.81831515151512" cy="147.8109082470404" r="3.1181102362204727" fill="#1f77b4" fill-opacity="0.85" stroke="none"><title>(1.6, 1.248323501385)</title></circle><circle cx="159.5713115151515" cy="140.6591347841868" r="3.1181102362204727" fill="#1f77b4" fill-opacity="0.85" stroke="none"><title>(2, 1.305314455491)</title></circle><circle cx="180.32430787878786" cy="166.88849226313863" r="3.1181102362204727" fill="#1f77b4" fill-opacity="0.85" stroke="none"><title>(2.4, 1.096298312004)</title></circle><circle cx="201.07730424242425" cy="216.23591035553824" r="3.1181102362204727" fill="#1f77b4" fill-opacity="0.85" stroke="none"><title>(2.8, 0.703059284744)</title></circle><circle cx="221.83030060606058" cy="263.90969672112243" r="3.1181102362204727" fill="#1f77b4" fill-opacity="0.85" stroke="none"><title>(3.2, 0.323157070993)</title></circle><circle cx="242.58329696969693" cy="294.6685220850803" r="3.1181102362204727" fill="#1f77b4" fill-opacity="0.85" stroke="none"><title>(3.6, 0.07804656606)</title></circle><circle cx="263.3362933333333" cy="313.55015105409404" r="3.1181102362204727" fill="#1f77b4" fill-opacity="0.85" stroke="none"><title>(4, -0.072417099435)</title></circle><circle cx="284.0892896969697" cy="330.9425837495045" r="3.1181102362204727" fill="#1f77b4" fill-opacity="0.85" stroke="none"><title>(4.4, -0.211013678125)</title></circle><circle cx="304.84228606060606" cy="342.3787878787879" r="3.1181102362204727" fill="#1f77b4" fill-opacity="0.85" stroke="none"><title>(4.8, -0.302146344457)</title></circle><circle cx="325.5952824242424" cy="329.92094009872375" r="3.1181102362204727" fill="#1f77b4" fill-opacity="0.85" stroke="none"><title>(5.2, -0.202872418239)</title></circle><circle cx="346.3482787878788" cy="284.0497233663963" r="3.1181102362204727" fill="#1f77b4" fill-opacity="0.85" stroke="none"><title>(5.6, 0.162665503387)</title></circle><circle cx="367.1012751515152" cy="218.29935033024753" r="3.1181102362204727" fill="#1f77b4" fill-opacity="0.85" stroke="none"><title>(6, 0.686616172625)</title></circle><circle cx="387.8542715151515" cy="157.5805593990939" r="3.1181102362204727" fill="#1f77b4" fill-opacity="0.85" stroke="none"><title>(6.4, 1.17047123952)</title></circle><circle cx="408.60726787878787" cy="114.2016576850807" r="3.1181102362204727" fill="#1f77b4" fill-opacity="0.85" stroke="none"><title>(6.8, 1.516148435472)</title></circle><circle cx="429.36026424242425" cy="80.93784030586144" r="3.1181102362204727" fill="#1f77b4" fill-opacity="0.85" stroke="none"><title>(7.2, 1.781220686358)</title></circle><circle cx="450.1132606060606" cy="48.60343081772494" r="3.1181102362204727" fill="#1f77b4" fill-opacity="0.85" stroke="none"><title>(7.6, 2.038886684411)</title></circle><circle cx="470.86625696969696" cy="24.397804433379406" r="3.1181102362204727" fill="#1f77b4" fill-opacity="0.85" stroke="none"><title>(8, 2.231776147357)</title></circle><line x1="55.8063296969697" y1="292.05020279843916" x2="59.99885421487603" y2="279.0788946315132" stroke="#0000ff" stroke-width="1.4211023622047245"/><line x1="59.99885421487603" y1="279.0788946315132" x2="64.19137873278237" y2="267.7929509166423" stroke="#0000ff" stroke-width="1.4211023622047245"/><line x1="64.19137873278237" y1="267.7929509166423" x2="68.38390325068869" y2="257.962327256076" stroke="#0000ff" stroke-width="1.4211023622047245"/><line x1="68.38390325068869" y1="257.962327256076" x2="72.57642776859504" y2="249.3569792520637" stroke="#0000ff" stroke-width="1.4211023622047245"/><line x1="72.57642776859504" y1="249.3569792520637" x2="76.76895228650137" y2="241.746862506855" stroke="#0000ff" stroke-width="1.4211023622047245"/><line x1="76.76895228650137" y1="241.746862506855" x2="80.96147680440771" y2="234.90193262269946" stroke="#0000ff" stroke-width="1.4211023622047245"/><line x1="80.96147680440771" y1="234.90193262269946" x2="85.15400132231404" y2="228.59214520184665" stroke="#0000ff" stroke-width="1.4211023622047245"/><line x1="85.15400132231404" y1="228.59214520184665" x2="89.34652584022038" y2="222.58745584654594" stroke="#0000ff" stroke-width="1.4211023622047245"/><line x1="89.34652584022038" y1="222.58745584654594" x2="93.53905035812673" y2="216.65782015904702" stroke="#0000ff" stroke-width="1.4211023622047245"/><line x1="93.53905035812673" y1="216.65782015904702" x2="97.73157487603305" y2="210.57319374159934" stroke="#0000ff" stroke-width="1.4211023622047245"/><line x1="97.73157487603305" y1="210.57319374159934" x2="101.92409939393937" y2="204.10353219645245" stroke="#0000ff" stroke-width="1.4211023622047245"/><line x1="101.92409939393937" y1="204.10353219645245" x2="106.1166239118457" y2="197.09176316972938" stroke="#0000ff" stroke-width="1.4211023622047245"/><line x1="106.1166239118457" y1="197.09176316972938" x2="110.30914842975206" y2="189.6727024830471" stroke="#0000ff" stroke-width="1.4211023622047245"/><line x1="110.30914842975206" y1="189.6727024830471" x2="114.5016729476584" y2="182.0541380018961" stroke="#0000ff" stroke-width="1.4211023622047245"/><line x1="114.5016729476584" y1="182.0541380018961" x2="118.69419746556471" y2="174.44385759176674" stroke="#0000ff" stroke-width="1.4211023622047245"/><line x1="118.69419746556471" y1="174.44385759176674" x2="122.88672198347106" y2="167.04964911814955" stroke="#0000ff" stroke-width="1.4211023622047245"/><line x1="122.88672198347106" y1="167.04964911814955" x2="127.07924650137738" y2="160.079300446535" stroke="#0000ff" stroke-width="1.4211023622047245"/><line x1="127.07924650137738" y1="160.079300446535" x2="131.27177101928373" y2="153.7405994424135" stroke="#0000ff" stroke-width="1.4211023622047245"/><line x1="131.27177101928373" y1="153.7405994424135" x2="135.46429553719008" y2="148.24133397127554" stroke="#0000ff" stroke-width="1.4211023622047245"/><line x1="135.46429553719008" y1="148.24133397127554" x2="139.65682005509643" y2="143.78929189861154" stroke="#0000ff" stroke-width="1.4211023622047245"/><line x1="139.65682005509643" y1="143.78929189861154" x2="143.84934457300272" y2="140.59226108991197" stroke="#0000ff" stroke-width="1.4211023622047245"/><line x1="143.84934457300272" y1="140.59226108991197" x2="148.04186909090905" y2="138.8580294106673" stroke="#0000ff" stroke-width="1.4211023622047245"/><line x1="148.04186909090905" y1="138.8580294106673" x2="152.2343936088154" y2="138.73698937416614" stroke="#0000ff" stroke-width="1.4211023622047245"/><line x1="152.2343936088154" y1="138.73698937416614" x2="156.42691812672174" y2="140.14995208488972" stroke="#0000ff" stroke-width="1.4211023622047245"/><line x1="156.42691812672174" y1="140.14995208488972" x2="160.6194426446281" y2="142.9603332951174" stroke="#0000ff" stroke-width="1.4211023622047245"/><line x1="160.6194426446281" y1="142.9603332951174" x2="164.81196716253444" y2="147.03154875712846" stroke="#0000ff" stroke-width="1.4211023622047245"/><line x1="164.81196716253444" y1="147.03154875712846" x2="169.00449168044076" y2="152.2270142232024" stroke="#0000ff" stroke-width="1.4211023622047245"/><line x1="169.00449168044076" y1="152.2270142232024" x2="173.19701619834706" y2="158.4101454456185" stroke="#0000ff" stroke-width="1.4211023622047245"/><line x1="173.19701619834706" y1="158.4101454456185" x2="177.3895407162534" y2="165.44435817665615" stroke="#0000ff" stroke-width="1.4211023622047245"/><line x1="177.3895407162534" y1="165.44435817665615" x2="181.58206523415976" y2="173.19306816859472" stroke="#0000ff" stroke-width="1.4211023622047245"/><line x1="181.58206523415976" y1="173.19306816859472" x2="185.7745897520661" y2="181.5196911737136" stroke="#0000ff" stroke-width="1.4211023622047245"/><line x1="185.7745897520661" y1="181.5196911737136" x2="189.96711426997243" y2="190.28764294429212" stroke="#0000ff" stroke-width="1.4211023622047245"/><line x1="189.96711426997243" y1="190.28764294429212" x2="194.15963878787878" y2="199.36033923260953" stroke="#0000ff" stroke-width="1.4211023622047245"/><line x1="194.15963878787878" y1="199.36033923260953" x2="198.3521633057851" y2="208.61048451282187" stroke="#0000ff" stroke-width="1.4211023622047245"/><line x1="198.3521633057851" y1="208.61048451282187" x2="202.54468782369145" y2="217.9479381465905" stroke="#0000ff" stroke-width="1.4211023622047245"/><line x1="202.54468782369145" y1="217.9479381465905" x2="206.73721234159774" y2="227.29184821745335" stroke="#0000ff" stroke-width="1.4211023622047245"/><line x1="206.73721234159774" y1="227.29184821745335" x2="210.9297368595041" y2="236.5613628089483" stroke="#0000ff" stroke-width="1.4211023622047245"/><line x1="210.9297368595041" y1="236.5613628089483" x2="215.1222613774104" y2="245.67563000461325" stroke="#0000ff" stroke-width="1.4211023622047245"/><line x1="215.1222613774104" y1="245.67563000461325" x2="219.31478589531676" y2="254.55379788798624" stroke="#0000ff" stroke-width="1.4211023622047245"/><line x1="219.31478589531676" y1="254.55379788798624" x2="223.5073104132231" y2="263.115014542605" stroke="#0000ff" stroke-width="1.4211023622047245"/><line x1="223.5073104132231" y1="263.115014542605" x2="227.69983493112943" y2="271.2784280520077" stroke="#0000ff" stroke-width="1.4211023622047245"/><line x1="227.69983493112943" y1="271.2784280520077" x2="231.89235944903578" y2="278.96318649973205" stroke="#0000ff" stroke-width="1.4211023622047245"/><line x1="231.89235944903578" y1="278.96318649973205" x2="236.08488396694213" y2="286.088437969316" stroke="#0000ff" stroke-width="1.4211023622047245"/><line x1="236.08488396694213" y1="286.088437969316" x2="240.27740848484842" y2="292.5733305442974" stroke="#0000ff" stroke-width="1.4211023622047245"/><line x1="240.27740848484842" y1="292.5733305442974" x2="244.46993300275477" y2="298.36171255895187" stroke="#0000ff" stroke-width="1.4211023622047245"/><line x1="244.46993300275477" y1="298.36171255895187" x2="248.66245752066112" y2="303.4962333505043" stroke="#0000ff" stroke-width="1.4211023622047245"/><line x1="248.66245752066112" y1="303.4962333505043" x2="252.85498203856744" y2="308.04424250691756" stroke="#0000ff" stroke-width="1.4211023622047245"/><line x1="252.85498203856744" y1="308.04424250691756" x2="257.0475065564738" y2="312.0730896161541" stroke="#0000ff" stroke-width="1.4211023622047245"/><line x1="257.0475065564738" y1="312.0730896161541" x2="261.2400310743801" y2="315.65012426617665" stroke="#0000ff" stroke-width="1.4211023622047245"/><line x1="261.2400310743801" y1="315.65012426617665" x2="265.43255559228646" y2="318.84269604494784" stroke="#0000ff" stroke-width="1.4211023622047245"/><line x1="265.43255559228646" y1="318.84269604494784" x2="269.6250801101928" y2="321.7181545404302" stroke="#0000ff" stroke-width="1.4211023622047245"/><line x1="269.6250801101928" y1="321.7181545404302" x2="273.81760462809916" y2="324.34384934058653" stroke="#0000ff" stroke-width="1.4211023622047245"/><line x1="273.81760462809916" y1="324.34384934058653" x2="278.01012914600545" y2="326.7871300333793" stroke="#0000ff" stroke-width="1.4211023622047245"/><line x1="278.01012914600545" y1="326.7871300333793" x2="282.2026536639118" y2="329.11534620677116" stroke="#0000ff" stroke-width="1.4211023622047245"/><line x1="282.2026536639118" y1="329.11534620677116" x2="286.39517818181815" y2="331.3958474487249" stroke="#0000ff" stroke-width="1.4211023622047245"/><line x1="286.39517818181815" y1="331.3958474487249" x2="290.5877026997245" y2="333.6564852543135" stroke="#0000ff" stroke-width="1.4211023622047245"/><line x1="290.5877026997245" y1="333.6564852543135" x2="294.78022721763085" y2="335.76711874705256" stroke="#0000ff" stroke-width="1.4211023622047245"/><line x1="294.78022721763085" y1="335.76711874705256" x2="298.97275173553714" y2="337.5581089575679" stroke="#0000ff" stroke-width="1.4211023622047245"/><line x1="298.97275173553714" y1="337.5581089575679" x2="303.1652762534435" y2="338.8598169164855" stroke="#0000ff" stroke-width="1.4211023622047245"/><line x1="303.1652762534435" y1="338.8598169164855" x2="307.35780077134984" y2="339.50260365443137" stroke="#0000ff" stroke-width="1.4211023622047245"/><line x1="307.35780077134984" y1="339.50260365443137" x2="311.5503252892562" y2="339.3168302020315" stroke="#0000ff" stroke-width="1.4211023622047245"/><line x1="311.5503252892562" y1="339.3168302020315" x2="315.74284980716254" y2="338.13285758991174" stroke="#0000ff" stroke-width="1.4211023622047245"/><line x1="315.74284980716254" y1="338.13285758991174" x2="319.9353743250689" y2="335.7810468486982" stroke="#0000ff" stroke-width="1.4211023622047245"/><line x1="319.9353743250689" y1="335.7810468486982" x2="324.1278988429752" y2="332.09175900901664" stroke="#0000ff" stroke-width="1.4211023622047245"/><line x1="324.1278988429752" y1="332.09175900901664" x2="328.3204233608815" y2="326.89535510149335" stroke="#0000ff" stroke-width="1.4211023622047245"/><line x1="328.3204233608815" y1="326.89535510149335" x2="332.5129478787878" y2="320.022196156754" stroke="#0000ff" stroke-width="1.4211023622047245"/><line x1="332.5129478787878" y1="320.022196156754" x2="336.7054723966942" y2="311.3747432411397" stroke="#0000ff" stroke-width="1.4211023622047245"/><line x1="336.7054723966942" y1="311.3747432411397" x2="340.8979969146005" y2="301.1438575638524" stroke="#0000ff" stroke-width="1.4211023622047245"/><line x1="340.8979969146005" y1="301.1438575638524" x2="345.09052143250693" y2="289.5925003698087" stroke="#0000ff" stroke-width="1.4211023622047245"/><line x1="345.09052143250693" y1="289.5925003698087" x2="349.2830459504132" y2="276.9836329039257" stroke="#0000ff" stroke-width="1.4211023622047245"/><line x1="349.2830459504132" y1="276.9836329039257" x2="353.4755704683196" y2="263.58021641112015" stroke="#0000ff" stroke-width="1.4211023622047245"/><line x1="353.4755704683196" y1="263.58021641112015" x2="357.6680949862259" y2="249.64521213630874" stroke="#0000ff" stroke-width="1.4211023622047245"/><line x1="357.6680949862259" y1="249.64521213630874" x2="361.8606195041323" y2="235.44158132440873" stroke="#0000ff" stroke-width="1.4211023622047245"/><line x1="361.8606195041323" y1="235.44158132440873" x2="366.0531440220386" y2="221.23228522033656" stroke="#0000ff" stroke-width="1.4211023622047245"/><line x1="366.0531440220386" y1="221.23228522033656" x2="370.24566853994486" y2="207.28028506900944" stroke="#0000ff" stroke-width="1.4211023622047245"/><line x1="370.24566853994486" y1="207.28028506900944" x2="374.4381930578512" y2="193.84854211534406" stroke="#0000ff" stroke-width="1.4211023622047245"/><line x1="374.4381930578512" y1="193.84854211534406" x2="378.63071757575756" y2="181.2000176042572" stroke="#0000ff" stroke-width="1.4211023622047245"/><line x1="378.63071757575756" y1="181.2000176042572" x2="382.8232420936639" y2="169.5371047322481" stroke="#0000ff" stroke-width="1.4211023622047245"/><line x1="382.8232420936639" y1="169.5371047322481" x2="387.01576661157026" y2="158.81992450214426" stroke="#0000ff" stroke-width="1.4211023622047245"/><line x1="387.01576661157026" y1="158.81992450214426" x2="391.2082911294766" y2="148.94802986835572" stroke="#0000ff" stroke-width="1.4211023622047245"/><line x1="391.2082911294766" y1="148.94802986835572" x2="395.40081564738296" y2="139.82097378529218" stroke="#0000ff" stroke-width="1.4211023622047245"/><line x1="395.40081564738296" y1="139.82097378529218" x2="399.59334016528925" y2="131.33830920736364" stroke="#0000ff" stroke-width="1.4211023622047245"/><line x1="399.59334016528925" y1="131.33830920736364" x2="403.7858646831956" y2="123.39958908897984" stroke="#0000ff" stroke-width="1.4211023622047245"/><line x1="403.7858646831956" y1="123.39958908897984" x2="407.97838920110195" y2="115.90436638455063" stroke="#0000ff" stroke-width="1.4211023622047245"/><line x1="407.97838920110195" y1="115.90436638455063" x2="412.1709137190083" y2="108.75219404848602" stroke="#0000ff" stroke-width="1.4211023622047245"/><line x1="412.1709137190083" y1="108.75219404848602" x2="416.36343823691465" y2="101.8426250351957" stroke="#0000ff" stroke-width="1.4211023622047245"/><line x1="416.36343823691465" y1="101.8426250351957" x2="420.55596275482094" y2="95.07521229908964" stroke="#0000ff" stroke-width="1.4211023622047245"/><line x1="420.55596275482094" y1="95.07521229908964" x2="424.7484872727273" y2="88.34950879457763" stroke="#0000ff" stroke-width="1.4211023622047245"/><line x1="424.7484872727273" y1="88.34950879457763" x2="428.94101179063364" y2="81.59222231851993" stroke="#0000ff" stroke-width="1.4211023622047245"/><line x1="428.94101179063364" y1="81.59222231851993" x2="433.13353630854" y2="74.83868003757811" stroke="#0000ff" stroke-width="1.4211023622047245"/><line x1="433.13353630854" y1="74.83868003757811" x2="437.32606082644634" y2="68.15136396086396" stroke="#0000ff" stroke-width="1.4211023622047245"/><line x1="437.32606082644634" y1="68.15136396086396" x2="441.5185853443526" y2="61.59275609748958" stroke="#0000ff" stroke-width="1.4211023622047245"/><line x1="441.5185853443526" y1="61.59275609748958" x2="445.71110986225904" y2="55.22533845656676" stroke="#0000ff" stroke-width="1.4211023622047245"/><line x1="445.71110986225904" y1="55.22533845656676" x2="449.9036343801653" y2="49.111593047207364" stroke="#0000ff" stroke-width="1.4211023622047245"/><line x1="449.9036343801653" y1="49.111593047207364" x2="454.0961588980716" y2="43.31400187852353" stroke="#0000ff" stroke-width="1.4211023622047245"/><line x1="454.0961588980716" y1="43.31400187852353" x2="458.28868341597797" y2="37.89504695962686" stroke="#0000ff" stroke-width="1.4211023622047245"/><line x1="458.28868341597797" y1="37.89504695962686" x2="462.48120793388426" y2="32.91721029962946" stroke="#0000ff" stroke-width="1.4211023622047245"/><line x1="462.48120793388426" y1="32.91721029962946" x2="466.6737324517906" y2="28.44297390764317" stroke="#0000ff" stroke-width="1.4211023622047245"/><line x1="466.6737324517906" y1="28.44297390764317" x2="470.86625696969696" y2="24.534819792779974" stroke="#0000ff" stroke-width="1.4211023622047245"/><line x1="55.8063296969697" y1="289.0403711604419" x2="59.99885421487603" y2="280.94215486295593" stroke="#00ff00" stroke-width="1.4211023622047245"/><line x1="59.99885421487603" y1="280.94215486295593" x2="64.19137873278237" y2="272.84643518845434" stroke="#00ff00" stroke-width="1.4211023622047245"/><line x1="64.19137873278237" y1="272.84643518845434" x2="68.38390325068869" y2="264.75570875992173" stroke="#00ff00" stroke-width="1.4211023622047245"/><line x1="68.38390325068869" y1="264.75570875992173" x2="72.57642776859504" y2="256.67247220034255" stroke="#00ff00" stroke-width="1.4211023622047245"/><line x1="72.57642776859504" y1="256.67247220034255" x2="76.76895228650137" y2="248.5992221327012" stroke="#00ff00" stroke-width="1.4211023622047245"/><line x1="76.76895228650137" y1="248.5992221327012" x2="80.96147680440771" y2="240.5384551799822" stroke="#00ff00" stroke-width="1.4211023622047245"/><line x1="80.96147680440771" y1="240.5384551799822" x2="85.15400132231404" y2="232.49266796517003" stroke="#00ff00" stroke-width="1.4211023622047245"/><line x1="85.15400132231404" y1="232.49266796517003" x2="89.34652584022038" y2="224.46435711124914" stroke="#00ff00" stroke-width="1.4211023622047245"/><line x1="89.34652584022038" y1="224.46435711124914" x2="93.53905035812673" y2="216.45601924120402" stroke="#00ff00" stroke-width="1.4211023622047245"/><line x1="93.53905035812673" y1="216.45601924120402" x2="97.73157487603305" y2="208.47015097801912" stroke="#00ff00" stroke-width="1.4211023622047245"/><line x1="97.73157487603305" y1="208.47015097801912" x2="101.92409939393937" y2="200.50924894467892" stroke="#00ff00" stroke-width="1.4211023622047245"/><line x1="101.92409939393937" y1="200.50924894467892" x2="106.1166239118457" y2="192.59538662199716" stroke="#00ff00" stroke-width="1.4211023622047245"/><line x1="106.1166239118457" y1="192.59538662199716" x2="110.30914842975206" y2="184.82894492210522" stroke="#00ff00" stroke-width="1.4211023622047245"/><line x1="110.30914842975206" y1="184.82894492210522" x2="114.5016729476584" y2="177.32988161496354" stroke="#00ff00" stroke-width="1.4211023622047245"/><line x1="114.5016729476584" y1="177.32988161496354" x2="118.69419746556471" y2="170.2181544705328" stroke="#00ff00" stroke-width="1.4211023622047245"/><line x1="118.69419746556471" y1="170.2181544705328" x2="122.88672198347106" y2="163.61372125877347" stroke="#00ff00" stroke-width="1.4211023622047245"/><line x1="122.88672198347106" y1="163.61372125877347" x2="127.07924650137738" y2="157.63653974964623" stroke="#00ff00" stroke-width="1.4211023622047245"/><line x1="127.07924650137738" y1="157.63653974964623" x2="131.27177101928373" y2="152.40656771311154" stroke="#00ff00" stroke-width="1.4211023622047245"/><line x1="131.27177101928373" y1="152.40656771311154" x2="135.46429553719008" y2="148.04376291913013" stroke="#00ff00" stroke-width="1.4211023622047245"/><line x1="135.46429553719008" y1="148.04376291913013" x2="139.65682005509643" y2="144.66808313766242" stroke="#00ff00" stroke-width="1.4211023622047245"/><line x1="139.65682005509643" y1="144.66808313766242" x2="143.84934457300272" y2="142.3994861386691" stroke="#00ff00" stroke-width="1.4211023622047245"/><line x1="143.84934457300272" y1="142.3994861386691" x2="148.04186909090905" y2="141.35792969211064" stroke="#00ff00" stroke-width="1.4211023622047245"/><line x1="148.04186909090905" y1="141.35792969211064" x2="152.2343936088154" y2="141.62797208533203" stroke="#00ff00" stroke-width="1.4211023622047245"/><line x1="152.2343936088154" y1="141.62797208533203" x2="156.42691812672174" y2="143.1525736752151" stroke="#00ff00" stroke-width="1.4211023622047245"/><line x1="156.42691812672174" y1="143.1525736752151" x2="160.6194426446281" y2="145.83929533602625" stroke="#00ff00" stroke-width="1.4211023622047245"/><line x1="160.6194426446281" y1="145.83929533602625" x2="164.81196716253444" y2="149.59569794203165" stroke="#00ff00" stroke-width="1.4211023622047245"/><line x1="164.81196716253444" y1="149.59569794203165" x2="169.00449168044076" y2="154.32934236749747" stroke="#00ff00" stroke-width="1.4211023622047245"/><line x1="169.00449168044076" y1="154.32934236749747" x2="173.19701619834706" y2="159.94778948669014" stroke="#00ff00" stroke-width="1.4211023622047245"/><line x1="173.19701619834706" y1="159.94778948669014" x2="177.3895407162534" y2="166.35860017387589" stroke="#00ff00" stroke-width="1.4211023622047245"/><line x1="177.3895407162534" y1="166.35860017387589" x2="181.58206523415976" y2="173.4693353033208" stroke="#00ff00" stroke-width="1.4211023622047245"/><line x1="181.58206523415976" y1="173.4693353033208" x2="185.7745897520661" y2="181.18755574929128" stroke="#00ff00" stroke-width="1.4211023622047245"/><line x1="185.7745897520661" y1="181.18755574929128" x2="189.96711426997243" y2="189.42082238605354" stroke="#00ff00" stroke-width="1.4211023622047245"/><line x1="189.96711426997243" y1="189.42082238605354" x2="194.15963878787878" y2="198.07669608787387" stroke="#00ff00" stroke-width="1.4211023622047245"/><line x1="194.15963878787878" y1="198.07669608787387" x2="198.3521633057851" y2="207.0613557020995" stroke="#00ff00" stroke-width="1.4211023622047245"/><line x1="198.3521633057851" y1="207.0613557020995" x2="202.54468782369145" y2="216.27545196840143" stroke="#00ff00" stroke-width="1.4211023622047245"/><line x1="202.54468782369145" y1="216.27545196840143" x2="206.73721234159774" y2="225.61825359953178" stroke="#00ff00" stroke-width="1.4211023622047245"/><line x1="206.73721234159774" y1="225.61825359953178" x2="210.9297368595041" y2="234.9890293082426" stroke="#00ff00" stroke-width="1.4211023622047245"/><line x1="210.9297368595041" y1="234.9890293082426" x2="215.1222613774104" y2="244.28704780728586" stroke="#00ff00" stroke-width="1.4211023622047245"/><line x1="215.1222613774104" y1="244.28704780728586" x2="219.31478589531676" y2="253.4115778094138" stroke="#00ff00" stroke-width="1.4211023622047245"/><line x1="219.31478589531676" y1="253.4115778094138" x2="223.5073104132231" y2="262.2618880273784" stroke="#00ff00" stroke-width="1.4211023622047245"/><line x1="223.5073104132231" y1="262.2618880273784" x2="227.69983493112943" y2="270.73724717393173" stroke="#00ff00" stroke-width="1.4211023622047245"/><line x1="227.69983493112943" y1="270.73724717393173" x2="231.89235944903578" y2="278.7369239618258" stroke="#00ff00" stroke-width="1.4211023622047245"/><line x1="231.89235944903578" y1="278.7369239618258" x2="236.08488396694213" y2="286.16018710381263" stroke="#00ff00" stroke-width="1.4211023622047245"/><line x1="236.08488396694213" y1="286.16018710381263" x2="240.27740848484842" y2="292.90630531264435" stroke="#00ff00" stroke-width="1.4211023622047245"/><line x1="240.27740848484842" y1="292.90630531264435" x2="244.46993300275477" y2="298.90322281805237" stroke="#00ff00" stroke-width="1.4211023622047245"/><line x1="244.46993300275477" y1="298.90322281805237" x2="248.66245752066112" y2="304.1935859176849" stroke="#00ff00" stroke-width="1.4211023622047245"/><line x1="248.66245752066112" y1="304.1935859176849" x2="252.85498203856744" y2="308.84871642616946" stroke="#00ff00" stroke-width="1.4211023622047245"/><line x1="252.85498203856744" y1="308.84871642616946" x2="257.0475065564738" y2="312.93993615813395" stroke="#00ff00" stroke-width="1.4211023622047245"/><line x1="257.0475065564738" y1="312.93993615813395" x2="261.2400310743801" y2="316.53856692820597" stroke="#00ff00" stroke-width="1.4211023622047245"/><line x1="261.2400310743801" y1="316.53856692820597" x2="265.43255559228646" y2="319.71593055101306" stroke="#00ff00" stroke-width="1.4211023622047245"/><line x1="265.43255559228646" y1="319.71593055101306" x2="269.6250801101928" y2="322.5433488411828" stroke="#00ff00" stroke-width="1.4211023622047245"/><line x1="269.6250801101928" y1="322.5433488411828" x2="273.81760462809916" y2="325.09214361334307" stroke="#00ff00" stroke-width="1.4211023622047245"/><line x1="273.81760462809916" y1="325.09214361334307" x2="278.01012914600545" y2="327.43363668212066" stroke="#00ff00" stroke-width="1.4211023622047245"/><line x1="278.01012914600545" y1="327.43363668212066" x2="282.2026536639118" y2="329.6391498621442" stroke="#00ff00" stroke-width="1.4211023622047245"/><line x1="282.2026536639118" y1="329.6391498621442" x2="286.39517818181815" y2="331.7800049680411" stroke="#00ff00" stroke-width="1.4211023622047245"/><line x1="286.39517818181815" y1="331.7800049680411" x2="290.5877026997245" y2="333.8884666475998" stroke="#00ff00" stroke-width="1.4211023622047245"/><line x1="290.5877026997245" y1="333.8884666475998" x2="294.78022721763085" y2="335.8405708812543" stroke="#00ff00" stroke-width="1.4211023622047245"/><line x1="294.78022721763085" y1="335.8405708812543" x2="298.97275173553714" y2="337.4732964825977" stroke="#00ff00" stroke-width="1.4211023622047245"/><line x1="298.97275173553714" y1="337.4732964825977" x2="303.1652762534435" y2="338.62362226522487" stroke="#00ff00" stroke-width="1.4211023622047245"/><line x1="303.1652762534435" y1="338.62362226522487" x2="307.35780077134984" y2="339.12852704273064" stroke="#00ff00" stroke-width="1.4211023622047245"/><line x1="307.35780077134984" y1="339.12852704273064" x2="311.5503252892562" y2="338.8249896287084" stroke="#00ff00" stroke-width="1.4211023622047245"/><line x1="311.5503252892562" y1="338.8249896287084" x2="315.74284980716254" y2="337.54998883675427" stroke="#00ff00" stroke-width="1.4211023622047245"/><line x1="315.74284980716254" y1="337.54998883675427" x2="319.9353743250689" y2="335.1405034804625" stroke="#00ff00" stroke-width="1.4211023622047245"/><line x1="319.9353743250689" y1="335.1405034804625" x2="324.1278988429752" y2="331.43351237342506" stroke="#00ff00" stroke-width="1.4211023622047245"/><line x1="324.1278988429752" y1="331.43351237342506" x2="328.3204233608815" y2="326.26599432923547" stroke="#00ff00" stroke-width="1.4211023622047245"/><line x1="328.3204233608815" y1="326.26599432923547" x2="332.5129478787878" y2="319.474928161495" stroke="#00ff00" stroke-width="1.4211023622047245"/><line x1="332.5129478787878" y1="319.474928161495" x2="336.7054723966942" y2="310.96570836437684" stroke="#00ff00" stroke-width="1.4211023622047245"/><line x1="336.7054723966942" y1="310.96570836437684" x2="340.8979969146005" y2="300.9173921544039" stroke="#00ff00" stroke-width="1.4211023622047245"/><line x1="340.8979969146005" y1="300.9173921544039" x2="345.09052143250693" y2="289.57745242868646" stroke="#00ff00" stroke-width="1.4211023622047245"/><line x1="345.09052143250693" y1="289.57745242868646" x2="349.2830459504132" y2="277.19336208433754" stroke="#00ff00" stroke-width="1.4211023622047245"/><line x1="349.2830459504132" y1="277.19336208433754" x2="353.4755704683196" y2="264.012594018453" stroke="#00ff00" stroke-width="1.4211023622047245"/><line x1="353.4755704683196" y1="264.012594018453" x2="357.6680949862259" y2="250.28262112815162" stroke="#00ff00" stroke-width="1.4211023622047245"/><line x1="357.6680949862259" y1="250.28262112815162" x2="361.8606195041323" y2="236.25091631053976" stroke="#00ff00" stroke-width="1.4211023622047245"/><line x1="361.8606195041323" y1="236.25091631053976" x2="366.0531440220386" y2="222.16495246272189" stroke="#00ff00" stroke-width="1.4211023622047245"/><line x1="366.0531440220386" y1="222.16495246272189" x2="370.24566853994486" y2="208.2722024818069" stroke="#00ff00" stroke-width="1.4211023622047245"/><line x1="370.24566853994486" y1="208.2722024818069" x2="374.4381930578512" y2="194.8201392649088" stroke="#00ff00" stroke-width="1.4211023622047245"/><line x1="374.4381930578512" y1="194.8201392649088" x2="378.63071757575756" y2="182.05623570912707" stroke="#00ff00" stroke-width="1.4211023622047245"/><line x1="378.63071757575756" y1="182.05623570912707" x2="382.8232420936639" y2="170.17483574194773" stroke="#00ff00" stroke-width="1.4211023622047245"/><line x1="382.8232420936639" y1="170.17483574194773" x2="387.01576661157026" y2="159.1577674123511" stroke="#00ff00" stroke-width="1.4211023622047245"/><line x1="387.01576661157026" y1="159.1577674123511" x2="391.2082911294766" y2="148.9337297996989" stroke="#00ff00" stroke-width="1.4211023622047245"/><line x1="391.2082911294766" y1="148.9337297996989" x2="395.40081564738296" y2="139.43142198333294" stroke="#00ff00" stroke-width="1.4211023622047245"/><line x1="395.40081564738296" y1="139.43142198333294" x2="399.59334016528925" y2="130.579543042615" stroke="#00ff00" stroke-width="1.4211023622047245"/><line x1="399.59334016528925" y1="130.579543042615" x2="403.7858646831956" y2="122.30679205690383" stroke="#00ff00" stroke-width="1.4211023622047245"/><line x1="403.7858646831956" y1="122.30679205690383" x2="407.97838920110195" y2="114.54186810554643" stroke="#00ff00" stroke-width="1.4211023622047245"/><line x1="407.97838920110195" y1="114.54186810554643" x2="412.1709137190083" y2="107.21347026789745" stroke="#00ff00" stroke-width="1.4211023622047245"/><line x1="412.1709137190083" y1="107.21347026789745" x2="416.36343823691465" y2="100.25029762331658" stroke="#00ff00" stroke-width="1.4211023622047245"/><line x1="416.36343823691465" y1="100.25029762331658" x2="420.55596275482094" y2="93.58104925116061" stroke="#00ff00" stroke-width="1.4211023622047245"/><line x1="420.55596275482094" y1="93.58104925116061" x2="424.7484872727273" y2="87.13442423077257" stroke="#00ff00" stroke-width="1.4211023622047245"/><line x1="424.7484872727273" y1="87.13442423077257" x2="428.94101179063364" y2="80.84871236418572" stroke="#00ff00" stroke-width="1.4211023622047245"/><line x1="428.94101179063364" y1="80.84871236418572" x2="433.13353630854" y2="74.70056634408479" stroke="#00ff00" stroke-width="1.4211023622047245"/><line x1="433.13353630854" y1="74.70056634408479" x2="437.32606082644634" y2="68.6762295858144" stroke="#00ff00" stroke-width="1.4211023622047245"/><line x1="437.32606082644634" y1="68.6762295858144" x2="441.5185853443526" y2="62.76194550472803" stroke="#00ff00" stroke-width="1.4211023622047245"/><line x1="441.5185853443526" y1="62.76194550472803" x2="445.71110986225904" y2="56.94395751617715" stroke="#00ff00" stroke-width="1.4211023622047245"/><line x1="445.71110986225904" y1="56.94395751617715" x2="449.9036343801653" y2="51.20850903552741" stroke="#00ff00" stroke-width="1.4211023622047245"/><line x1="449.9036343801653" y1="51.20850903552741" x2="454.0961588980716" y2="45.5418434781039" stroke="#00ff00" stroke-width="1.4211023622047245"/><line x1="454.0961588980716" y1="45.5418434781039" x2="458.28868341597797" y2="39.93020425927659" stroke="#00ff00" stroke-width="1.4211023622047245"/><line x1="458.28868341597797" y1="39.93020425927659" x2="462.48120793388426" y2="34.3598347944043" stroke="#00ff00" stroke-width="1.4211023622047245"/><line x1="462.48120793388426" y1="34.3598347944043" x2="466.6737324517906" y2="28.816978498818685" stroke="#00ff00" stroke-width="1.4211023622047245"/><line x1="466.6737324517906" y1="28.816978498818685" x2="470.86625696969696" y2="23.287878787878828" stroke="#00ff00" stroke-width="1.4211023622047245"/><line x1="55.8063296969697" y1="288.26344313145114" x2="59.99885421487603" y2="280.6778467219966" stroke="#ff0000" stroke-width="1.4211023622047245"/><line x1="59.99885421487603" y1="280.6778467219966" x2="64.19137873278237" y2="272.8957293304983" stroke="#ff0000" stroke-width="1.4211023622047245"/><line x1="64.19137873278237" y1="272.8957293304983" x2="68.38390325068869" y2="264.9490598200142" stroke="#ff0000" stroke-width="1.4211023622047245"/><line x1="68.38390325068869" y1="264.9490598200142" x2="72.57642776859504" y2="256.87186869021855" stroke="#ff0000" stroke-width="1.4211023622047245"/><line x1="72.57642776859504" y1="256.87186869021855" x2="76.76895228650137" y2="248.70012752843448" stroke="#ff0000" stroke-width="1.4211023622047245"/><line x1="76.76895228650137" y1="248.70012752843448" x2="80.96147680440771" y2="240.4717042936567" stroke="#ff0000" stroke-width="1.4211023622047245"/><line x1="80.96147680440771" y1="240.4717042936567" x2="85.15400132231404" y2="232.2264096535561" stroke="#ff0000" stroke-width="1.4211023622047245"/><line x1="85.15400132231404" y1="232.2264096535561" x2="89.34652584022038" y2="224.00614431293062" stroke="#ff0000" stroke-width="1.4211023622047245"/><line x1="89.34652584022038" y1="224.00614431293062" x2="93.53905035812673" y2="215.85514967894022" stroke="#ff0000" stroke-width="1.4211023622047245"/><line x1="93.53905035812673" y1="215.85514967894022" x2="97.73157487603305" y2="207.82035430667648" stroke="#ff0000" stroke-width="1.4211023622047245"/><line x1="97.73157487603305" y1="207.82035430667648" x2="101.92409939393937" y2="199.95179660244548" stroke="#ff0000" stroke-width="1.4211023622047245"/><line x1="101.92409939393937" y1="199.95179660244548" x2="106.1166239118457" y2="192.3030907561763" stroke="#ff0000" stroke-width="1.4211023622047245"/><line x1="106.1166239118457" y1="192.3030907561763" x2="110.30914842975206" y2="184.93188865098278" stroke="#ff0000" stroke-width="1.4211023622047245"/><line x1="110.30914842975206" y1="184.93188865098278" x2="114.5016729476584" y2="177.9002766675939" stroke="#ff0000" stroke-width="1.4211023622047245"/><line x1="114.5016729476584" y1="177.9002766675939" x2="118.69419746556471" y2="171.27503422170525" stroke="#ff0000" stroke-width="1.4211023622047245"/><line x1="118.69419746556471" y1="171.27503422170525" x2="122.88672198347106" y2="165.12767207338212" stroke="#ff0000" stroke-width="1.4211023622047245"/><line x1="122.88672198347106" y1="165.12767207338212" x2="127.07924650137738" y2="159.53416452421973" stroke="#ff0000" stroke-width="1.4211023622047245"/><line x1="127.07924650137738" y1="159.53416452421973" x2="131.27177101928373" y2="154.57429209141372" stroke="#ff0000" stroke-width="1.4211023622047245"/><line x1="131.27177101928373" y1="154.57429209141372" x2="135.46429553719008" y2="150.3305214044166" stroke="#ff0000" stroke-width="1.4211023622047245"/><line x1="135.46429553719008" y1="150.3305214044166" x2="139.65682005509643" y2="146.8863677852379" stroke="#ff0000" stroke-width="1.4211023622047245"/><line x1="139.65682005509643" y1="146.8863677852379" x2="143.84934457300272" y2="144.32421353820467" stroke="#ff0000" stroke-width="1.4211023622047245"/><line x1="143.84934457300272" y1="144.32421353820467" x2="148.04186909090905" y2="142.7225909377069" stroke="#ff0000" stroke-width="1.4211023622047245"/><line x1="148.04186909090905" y1="142.7225909377069" x2="152.2343936088154" y2="142.1529819512242" stroke="#ff0000" stroke-width="1.4211023622047245"/><line x1="152.2343936088154" y1="142.1529819512242" x2="156.42691812672174" y2="142.67623463851027" stroke="#ff0000" stroke-width="1.4211023622047245"/><line x1="156.42691812672174" y1="142.67623463851027" x2="160.6194426446281" y2="144.33874579592663" stroke="#ff0000" stroke-width="1.4211023622047245"/><line x1="160.6194426446281" y1="144.33874579592663" x2="164.81196716253444" y2="147.16860685388713" stroke="#ff0000" stroke-width="1.4211023622047245"/><line x1="164.81196716253444" y1="147.16860685388713" x2="169.00449168044076" y2="151.17195080709803" stroke="#ff0000" stroke-width="1.4211023622047245"/><line x1="169.00449168044076" y1="151.17195080709803" x2="173.19701619834706" y2="156.32976734007798" stroke="#ff0000" stroke-width="1.4211023622047245"/><line x1="173.19701619834706" y1="156.32976734007798" x2="177.3895407162534" y2="162.5954667473132" stroke="#ff0000" stroke-width="1.4211023622047245"/><line x1="177.3895407162534" y1="162.5954667473132" x2="181.58206523415976" y2="169.89346681452838" stroke="#ff0000" stroke-width="1.4211023622047245"/><line x1="181.58206523415976" y1="169.89346681452838" x2="185.7745897520661" y2="178.11904772294486" stroke="#ff0000" stroke-width="1.4211023622047245"/><line x1="185.7745897520661" y1="178.11904772294486" x2="189.96711426997243" y2="187.13966704127682" stroke="#ff0000" stroke-width="1.4211023622047245"/><line x1="189.96711426997243" y1="187.13966704127682" x2="194.15963878787878" y2="196.79785071601478" stroke="#ff0000" stroke-width="1.4211023622047245"/><line x1="194.15963878787878" y1="196.79785071601478" x2="198.3521633057851" y2="206.91567958747174" stroke="#ff0000" stroke-width="1.4211023622047245"/><line x1="198.3521633057851" y1="206.91567958747174" x2="202.54468782369145" y2="217.3007795193871" stroke="#ff0000" stroke-width="1.4211023622047245"/><line x1="202.54468782369145" y1="217.3007795193871" x2="206.73721234159774" y2="227.753603983369" stroke="#ff0000" stroke-width="1.4211023622047245"/><line x1="206.73721234159774" y1="227.753603983369" x2="210.9297368595041" y2="238.07567981652133" stroke="#ff0000" stroke-width="1.4211023622047245"/><line x1="210.9297368595041" y1="238.07567981652133" x2="215.1222613774104" y2="248.07837986637867" stroke="#ff0000" stroke-width="1.4211023622047245"/><line x1="215.1222613774104" y1="248.07837986637867" x2="219.31478589531676" y2="257.5917006136574" stroke="#ff0000" stroke-width="1.4211023622047245"/><line x1="219.31478589531676" y1="257.5917006136574" x2="223.5073104132231" y2="266.472468229435" stroke="#ff0000" stroke-width="1.4211023622047245"/><line x1="223.5073104132231" y1="266.472468229435" x2="227.69983493112943" y2="274.6113808748917" stroke="#ff0000" stroke-width="1.4211023622047245"/><line x1="227.69983493112943" y1="274.6113808748917" x2="231.89235944903578" y2="281.93832386144567" stroke="#ff0000" stroke-width="1.4211023622047245"/><line x1="231.89235944903578" y1="281.93832386144567" x2="236.08488396694213" y2="288.42546974458475" stroke="#ff0000" stroke-width="1.4211023622047245"/><line x1="236.08488396694213" y1="288.42546974458475" x2="240.27740848484842" y2="294.0877959023634" stroke="#ff0000" stroke-width="1.4211023622047245"/><line x1="240.27740848484842" y1="294.0877959023634" x2="244.46993300275477" y2="298.980811997642" stroke="#ff0000" stroke-width="1.4211023622047245"/><line x1="244.46993300275477" y1="298.980811997642" x2="248.66245752066112" y2="303.1954794008492" stroke="#ff0000" stroke-width="1.4211023622047245"/><line x1="248.66245752066112" y1="303.1954794008492" x2="252.85498203856744" y2="306.8505112381821" stroke="#ff0000" stroke-width="1.4211023622047245"/><line x1="252.85498203856744" y1="306.8505112381821" x2="257.0475065564738" y2="310.0824497936179" stroke="#ff0000" stroke-width="1.4211023622047245"/><line x1="257.0475065564738" y1="310.0824497936179" x2="261.2400310743801" y2="313.0341107396461" stroke="#ff0000" stroke-width="1.4211023622047245"/><line x1="261.2400310743801" y1="313.0341107396461" x2="265.43255559228646" y2="315.84214431946566" stroke="#ff0000" stroke-width="1.4211023622047245"/><line x1="265.43255559228646" y1="315.84214431946566" x2="269.6250801101928" y2="318.6245768451504" stroke="#ff0000" stroke-width="1.4211023622047245"/><line x1="269.6250801101928" y1="318.6245768451504" x2="273.81760462809916" y2="321.4692493105557" stroke="#ff0000" stroke-width="1.4211023622047245"/><line x1="273.81760462809916" y1="321.4692493105557" x2="278.01012914600545" y2="324.42405531549247" stroke="#ff0000" stroke-width="1.4211023622047245"/><line x1="278.01012914600545" y1="324.42405531549247" x2="282.2026536639118" y2="327.4897947782878" stroke="#ff0000" stroke-width="1.4211023622047245"/><line x1="282.2026536639118" y1="327.4897947782878" x2="286.39517818181815" y2="330.6163057256523" stroke="#ff0000" stroke-width="1.4211023622047245"/><line x1="286.39517818181815" y1="330.6163057256523" x2="290.5877026997245" y2="333.7023222796107" stroke="#ff0000" stroke-width="1.4211023622047245"/><line x1="290.5877026997245" y1="333.7023222796107" x2="294.78022721763085" y2="336.59924674349924" stroke="#ff0000" stroke-width="1.4211023622047245"/><line x1="294.78022721763085" y1="336.59924674349924" x2="298.97275173553714" y2="339.11873590761934" stroke="#ff0000" stroke-width="1.4211023622047245"/><line x1="298.97275173553714" y1="339.11873590761934" x2="303.1652762534435" y2="341.0437080529747" stroke="#ff0000" stroke-width="1.4211023622047245"/><line x1="303.1652762534435" y1="341.0437080529747" x2="307.35780077134984" y2="342.14210086884407" stroke="#ff0000" stroke-width="1.4211023622047245"/><line x1="307.35780077134984" y1="342.14210086884407" x2="311.5503252892562" y2="342.1824745004872" stroke="#ff0000" stroke-width="1.4211023622047245"/><line x1="311.5503252892562" y1="342.1824745004872" x2="315.74284980716254" y2="340.950378785055" stroke="#ff0000" stroke-width="1.4211023622047245"/><line x1="315.74284980716254" y1="340.950378785055" x2="319.9353743250689" y2="338.2643058546881" stroke="#ff0000" stroke-width="1.4211023622047245"/><line x1="319.9353743250689" y1="338.2643058546881" x2="324.1278988429752" y2="333.9900394309314" stroke="#ff0000" stroke-width="1.4211023622047245"/><line x1="324.1278988429752" y1="333.9900394309314" x2="328.3204233608815" y2="328.05229423392177" stroke="#ff0000" stroke-width="1.4211023622047245"/><line x1="328.3204233608815" y1="328.05229423392177" x2="332.5129478787878" y2="320.44270952154284" stroke="#ff0000" stroke-width="1.4211023622047245"/><line x1="332.5129478787878" y1="320.44270952154284" x2="336.7054723966942" y2="311.22350904449576" stroke="#ff0000" stroke-width="1.4211023622047245"/><line x1="336.7054723966942" y1="311.22350904449576" x2="340.8979969146005" y2="300.52644816201246" stroke="#ff0000" stroke-width="1.4211023622047245"/><line x1="340.8979969146005" y1="300.52644816201246" x2="345.09052143250693" y2="288.54701461020846" stroke="#ff0000" stroke-width="1.4211023622047245"/><line x1="345.09052143250693" y1="288.54701461020846" x2="349.2830459504132" y2="275.53420591238535" stroke="#ff0000" stroke-width="1.4211023622047245"/><line x1="349.2830459504132" y1="275.53420591238535" x2="353.4755704683196" y2="261.7765456188356" stroke="#ff0000" stroke-width="1.4211023622047245"/><line x1="353.4755704683196" y1="261.7765456188356" x2="357.6680949862259" y2="247.58529521150277" stroke="#ff0000" stroke-width="1.4211023622047245"/><line x1="357.6680949862259" y1="247.58529521150277" x2="361.8606195041323" y2="233.27604444222408" stroke="#ff0000" stroke-width="1.4211023622047245"/><line x1="361.8606195041323" y1="233.27604444222408" x2="366.0531440220386" y2="219.15000108514883" stroke="#ff0000" stroke-width="1.4211023622047245"/><line x1="366.0531440220386" y1="219.15000108514883" x2="370.24566853994486" y2="205.47633938801374" stroke="#ff0000" stroke-width="1.4211023622047245"/><line x1="370.24566853994486" y1="205.47633938801374" x2="374.4381930578512" y2="192.4769006440847" stroke="#ff0000" stroke-width="1.4211023622047245"/><line x1="374.4381930578512" y1="192.4769006440847" x2="378.63071757575756" y2="180.31437338991282" stroke="#ff0000" stroke-width="1.4211023622047245"/><line x1="378.63071757575756" y1="180.31437338991282" x2="382.8232420936639" y2="169.08482698688388" stroke="#ff0000" stroke-width="1.4211023622047245"/><line x1="382.8232420936639" y1="169.08482698688388" x2="387.01576661157026" y2="158.81515014857" stroke="#ff0000" stroke-width="1.4211023622047245"/><line x1="387.01576661157026" y1="158.81515014857" x2="391.2082911294766" y2="149.46558030794588" stroke="#ff0000" stroke-width="1.4211023622047245"/><line x1="391.2082911294766" y1="149.46558030794588" x2="395.40081564738296" y2="140.93712910943978" stroke="#ff0000" stroke-width="1.4211023622047245"/><line x1="395.40081564738296" y1="140.93712910943978" x2="399.59334016528925" y2="133.08334350198393" stroke="#ff0000" stroke-width="1.4211023622047245"/><line x1="399.59334016528925" y1="133.08334350198393" x2="403.7858646831956" y2="125.72551940911833" stroke="#ff0000" stroke-width="1.4211023622047245"/><line x1="403.7858646831956" y1="125.72551940911833" x2="407.97838920110195" y2="118.67023070296268" stroke="#ff0000" stroke-width="1.4211023622047245"/><line x1="407.97838920110195" y1="118.67023070296268" x2="412.1709137190083" y2="111.72786956312673" stroke="#ff0000" stroke-width="1.4211023622047245"/><line x1="412.1709137190083" y1="111.72786956312673" x2="416.36343823691465" y2="104.73082748063692" stroke="#ff0000" stroke-width="1.4211023622047245"/><line x1="416.36343823691465" y1="104.73082748063692" x2="420.55596275482094" y2="97.54998332836044" stroke="#ff0000" stroke-width="1.4211023622047245"/><line x1="420.55596275482094" y1="97.54998332836044" x2="424.7484872727273" y2="90.10830190863112" stroke="#ff0000" stroke-width="1.4211023622047245"/><line x1="424.7484872727273" y1="90.10830190863112" x2="428.94101179063364" y2="82.3905711882552" stroke="#ff0000" stroke-width="1.4211023622047245"/><line x1="428.94101179063364" y1="82.3905711882552" x2="433.13353630854" y2="74.44860026037486" stroke="#ff0000" stroke-width="1.4211023622047245"/><line x1="433.13353630854" y1="74.44860026037486" x2="437.32606082644634" y2="66.4015390374118" stroke="#ff0000" stroke-width="1.4211023622047245"/><line x1="437.32606082644634" y1="66.4015390374118" x2="441.5185853443526" y2="58.431337819439364" stroke="#ff0000" stroke-width="1.4211023622047245"/><line x1="441.5185853443526" y1="58.431337819439364" x2="445.71110986225904" y2="50.77371243822495" stroke="#ff0000" stroke-width="1.4211023622047245"/><line x1="445.71110986225904" y1="50.77371243822495" x2="449.9036343801653" y2="43.70529237505487" stroke="#ff0000" stroke-width="1.4211023622047245"/><line x1="449.9036343801653" y1="43.70529237505487" x2="454.0961588980716" y2="37.5278824096016" stroke="#ff0000" stroke-width="1.4211023622047245"/><line x1="454.0961588980716" y1="37.5278824096016" x2="458.28868341597797" y2="32.550945640600006" stroke="#ff0000" stroke-width="1.4211023622047245"/><line x1="458.28868341597797" y1="32.550945640600006" x2="462.48120793388426" y2="29.073506383584835" stroke="#ff0000" stroke-width="1.4211023622047245"/><line x1="462.48120793388426" y1="29.073506383584835" x2="466.6737324517906" y2="27.366671998880292" stroke="#ff0000" stroke-width="1.4211023622047245"/><line x1="466.6737324517906" y1="27.366671998880292" x2="470.86625696969696" y2="27.65788689627186" stroke="#ff0000" stroke-width="1.4211023622047245"/><rect x="506.28592000000003" y="148.16221333333334" width="23.114079999999994" height="69.34223999999998" fill="#ffffff" fill-opacity="1.0" stroke="none"/><rect x="507.2308018897638" y="149.1070952230971" width="21.224316220472435" height="21.224316220472435" fill="#0000ff" fill-opacity="0.0" stroke="#0000ff" stroke-width="1.3333333333333333"/><text x="533.0666666666666" y="163.47392" fill="#333333" font-size="11.733333333333334" font-family="sans-serif" text-anchor="start">B-spline</text><rect x="507.2308018897638" y="172.22117522309713" width="21.224316220472435" height="21.224316220472435" fill="#00ff00" fill-opacity="0.0" stroke="#00ff00" stroke-width="1.3333333333333333"/><text x="533.0666666666666" y="186.588" fill="#333333" font-size="11.733333333333334" font-family="sans-serif" text-anchor="start">Natural cubic</text><rect x="507.2308018897638" y="195.3352552230971" width="21.224316220472435" height="21.224316220472435" fill="#ff0000" fill-opacity="0.0" stroke="#ff0000" stroke-width="1.3333333333333333"/><text x="533.0666666666666" y="209.70207999999997" fill="#333333" font-size="11.733333333333334" font-family="sans-serif" text-anchor="start">RBF</text></svg>