<svg xmlns="http://www.w3.org/2000/svg" width="624" height="384" viewBox="0 0 624 384"><rect x="0.0" y="0.0" width="624.0" height="384.0" fill="#ffffff" fill-opacity="1.0" stroke="none"/><line x1="133.26709447415328" y1="32.266666666666666" x2="133.26709447415328" y2="340.0" stroke="#dddddd" stroke-width="0.6666666666666666"/><line x1="263.9745047109753" y1="32.266666666666666" x2="263.9745047109753" y2="340.0" stroke="#dddddd" stroke-width="0.6666666666666666"/><line x1="394.6819149477973" y1="32.266666666666666" x2="394.6819149477973" y2="340.0" stroke="#dddddd" stroke-width="0.6666666666666666"/><line x1="525.3893251846192" y1="32.266666666666666" x2="525.3893251846192" y2="340.0" stroke="#dddddd" stroke-width="0.6666666666666666"/><line x1="67.91338935574228" y1="32.266666666666666" x2="67.91338935574228" y2="340.0" stroke="#dddddd" stroke-width="1.3333333333333333"/><line x1="198.6207995925643" y1="32.266666666666666" x2="198.6207995925643" y2="340.0" stroke="#dddddd" stroke-width="1.3333333333333333"/><line x1="329.3282098293863" y1="32.266666666666666" x2="329.3282098293863" y2="340.0" stroke="#dddddd" stroke-width="1.3333333333333333"/><line x1="460.03562006620825" y1="32.266666666666666" x2="460.03562006620825" y2="340.0" stroke="#dddddd" stroke-width="1.3333333333333333"/><line x1="590.7430303030302" y1="32.266666666666666" x2="590.7430303030302" y2="340.0" stroke="#dddddd" stroke-width="1.3333333333333333"/><line x1="46.346666666666664" y1="311.9791476477239" x2="616.6666666666666" y2="311.9791476477239" stroke="#dddddd" stroke-width="0.6666666666666666"/><line x1="46.346666666666664" y1="227.925850536864" x2="616.6666666666666" y2="227.925850536864" stroke="#dddddd" stroke-width="0.6666666666666666"/><line x1="46.346666666666664" y1="143.87255342600412" x2="616.6666666666666" y2="143.87255342600412" stroke="#dddddd" stroke-width="0.6666666666666666"/><line x1="46.346666666666664" y1="59.81925631514423" x2="616.6666666666666" y2="59.81925631514423" stroke="#dddddd" stroke-width="0.6666666666666666"/><line x1="46.346666666666664" y1="269.9524990922939" x2="616.6666666666666" y2="269.9524990922939" stroke="#dddddd" stroke-width="1.3333333333333333"/><line x1="46.346666666666664" y1="185.8992019814341" x2="616.6666666666666" y2="185.8992019814341" stroke="#dddddd" stroke-width="1.3333333333333333"/><line x1="46.346666666666664" y1="101.84590487057417" x2="616.6666666666666" y2="101.84590487057417" stroke="#dddddd" stroke-width="1.3333333333333333"/><rect x="46.346666666666664" y="32.266666666666666" width="570.3199999999999" height="307.73333333333335" fill="#ffffff" fill-opacity="0.0" stroke="#444444" stroke-width="1.3333333333333333"/><line x1="67.91338935574228" y1="340.0" x2="67.91338935574228" y2="343.66666666666663" stroke="#444444" stroke-width="1.3333333333333333"/><text x="67.91338935574228" y="355.9866666666667" fill="#333333" font-size="11.733333333333334" font-family="sans-serif" text-anchor="middle">0</text><line x1="198.6207995925643" y1="340.0" x2="198.6207995925643" y2="343.66666666666663" stroke="#444444" stroke-width="1.3333333333333333"/><text x="198.6207995925643" y="355.9866666666667" fill="#333333" font-size="11.733333333333334" font-family="sans-serif" text-anchor="middle">30</text><line x1="329.3282098293863" y1="340.0" x2="329.3282098293863" y2="343.66666666666663" stroke="#444444" stroke-width="1.3333333333333333"/><text x="329.3282098293863" y="355.9866666666667" fill="#333333" font-size="11.733333333333334" font-family="sans-serif" text-anchor="middle">60</text><line x1="460.03562006620825" y1="340.0" x2="460.03562006620825" y2="343.66666666666663" stroke="#444444" stroke-width="1.3333333333333333"/><text x="460.03562006620825" y="355.9866666666667" fill="#333333" font-size="11.733333333333334" font-family="sans-serif" text-anchor="middle">90</text><line x1="590.7430303030302" y1="340.0" x2="590.7430303030302" y2="343.66666666666663" stroke="#444444" stroke-width="1.3333333333333333"/><text x="590.7430303030302" y="355.9866666666667" fill="#333333" font-size="11.733333333333334" font-family="sans-serif" text-anchor="middle">120</text><line x1="46.346666666666664" y1="269.9524990922939" x2="42.67999999999999" y2="269.9524990922939" stroke="#444444" stroke-width="1.3333333333333333"/><text x="39.74666666666666" y="274.0591657589606" fill="#333333" font-size="11.733333333333334" font-family="sans-serif" text-anchor="end">-2</text><line x1="46.346666666666664" y1="185.8992019814341" x2="42.67999999999999" y2="185.8992019814341" stroke="#444444" stroke-width="1.3333333333333333"/><text x="39.74666666666666" y="190.00586864810077" fill="#333333" font-size="11.733333333333334" font-family="sans-serif" text-anchor="end">0</text><line x1="46.346666666666664" y1="101.84590487057417" x2="42.67999999999999" y2="101.84590487057417" stroke="#444444" stroke-width="1.3333333333333333"/><text x="39.74666666666666" y="105.95257153724084" fill="#333333" font-size="11.733333333333334" font-family="sans-serif" text-anchor="end">2</text><text x="46.346666666666664" y="21.413333333333334" fill="#333333" font-size="17.599999999999998" font-family="sans-serif" text-anchor="start">GARCH conditional volatility band</text><text x="331.50666666666666" y="373.73333333333335" fill="#333333" font-size="14.666666666666666" font-family="sans-serif" text-anchor="middle">t</text><text x="17.599999999999998" y="186.13333333333333" fill="#333333" font-size="14.666666666666666" font-family="sans-serif" text-anchor="middle" transform="rotate(-90.0 17.599999999999998 186.13333333333333)">y</text><path d="M 72.27030303030303 272.77403287546554 L 76.62721670486376 258.71182271318105 L 80.98413037942449 243.57658447963126 L 85.34104405398523 238.9757005669423 L 89.69795772854596 234.65600866744322 L 94.05487140310669 229.60278971349345 L 98.41178507766742 233.7258214247533 L 102.76869875222815 226.80761620807345 L 107.12561242678888 231.5095623094576 L 111.48252610134962 228.4874068763304 L 115.83943977591036 228.1280172745856 L 120.1963534504711 231.83679905309026 L 124.5532671250318 225.84302536970213 L 128.91018079959252 231.87542879805838 L 133.26709447415328 226.96012354758753 L 137.624008148714 229.47060320084915 L 141.98092182327474 230.73016766977486 L 146.3378354978355 226.292168235006 L 150.69474917239623 232.08013795231568 L 155.05166284695696 225.98815585805497 L 159.40857652151766 230.82076976841205 L 163.76549019607842 270.58766637690724 L 168.12240387063915 277.6793805976637 L 172.47931754519988 315.6131071288157 L 176.83623121976063 282.8055895523244 L 181.19314489432134 320.9256329232518 L 185.55005856888206 300.11216619262467 L 189.9069722434428 305.6663223700127 L 194.26388591800358 319.18127550123546 L 198.6207995925643 289.93536633333673 L 202.977713267125 325.9057113665624 L 207.33462694168577 294.4406822857718 L 211.6915406162465 314.0908750391589 L 216.04845429080723 312.81787730703957 L 220.40536796536793 295.1853311574506 L 224.76228163992872 325.7855196196045 L 229.11919531448942 289.9953077985971 L 233.47610898905015 320.48012000858665 L 237.8330226636109 304.9548167176786 L 242.18993633817163 302.54436460689647 L 246.54685001273234 322.6385828108355 L 250.90376368729306 287.65389586370986 L 255.26067736185382 267.97681087159754 L 259.6175910364145 250.13757291329847 L 263.9745047109753 242.35431188605696 L 268.33141838553604 237.7561693243028 L 272.68833206009674 230.5170650365617 L 277.04524573465744 234.08545679709033 L 281.40215940921826 227.21297694576924 L 285.75907308377896 231.40848323916111 L 290.11598675833966 229.6893201492096 L 294.47290043290036 227.48312565901017 L 298.8298141074612 231.82086213625578 L 303.1867277820219 225.64077066543237 L 307.5436414565826 231.8740591356922 L 311.90055513114334 227.96611635668788 L 316.2574688057041 228.62982398783112 L 320.6143824802648 230.88693633278905 L 324.97129615482555 225.85722433209912 L 329.3282098293863 232.38911178840004 L 333.685123503947 226.73543588441862 L 338.04203717850777 291.31952992868185 L 342.3989508530685 301.1815449152025 L 346.7558645276292 288.20235907124294 L 351.11277820219 322.95394530237934 L 355.4696918767507 287.9810351233568 L 359.8266055513114 319.6906184215922 L 364.18351922587215 304.43813417526485 L 368.54043290043296 302.31688179226296 L 372.89734657499366 322.5030369788858 L 377.25426024955436 289.1545019078959 L 381.61117392411506 324.52938832745775 L 385.9680875986758 297.21628379078504 L 390.3250012732366 310.6177002866554 L 394.6819149477973 316.91868315518343 L 399.038828622358 292.42959525062395 L 403.3957422969188 325.78460195168026 L 407.7526559714795 291.3602985893777 L 412.1095696460402 317.89814363183154 L 416.4664833206009 309.4861432069175 L 420.8233969951617 298.68332724081523 L 425.1803106697224 274.8371271445622 L 429.5372243442831 254.03836047953737 L 433.8941380188438 246.9764848557169 L 438.25105169340463 237.11026385640866 L 442.60796536796533 233.61436477000237 L 446.96487904252604 233.4500614868826 L 451.3217927170868 227.39952229787787 L 455.67870639164755 233.09607063403328 L 460.03562006620825 227.15658585172605 L 464.39253374076895 230.1922385673327 L 468.74944741532977 229.75900689590551 L 473.10636108989047 226.7952306958972 L 477.4632747644512 232.38775871068475 L 481.82018843901193 225.98129925486347 L 486.1771021135727 231.13575031743153 L 490.5340157881334 228.25250921241178 L 494.8909294626941 228.02977873762816 L 499.2478431372549 231.7704040767591 L 503.6047568118156 225.81111628164035 L 507.96167048637636 231.86589291034093 L 512.318584160937 243.83259247830534 L 516.6754978354978 289.8340772186699 L 521.0324115100585 306.9270590343739 L 525.3893251846192 286.03707164047063 L 529.74623885918 323.26249267807384 L 534.1031525337407 289.57776514105063 L 538.4600662083014 317.18566253003485 L 542.8169798828621 309.03737554603794 L 547.173893557423 298.47279497178846 L 551.5308072319837 323.9023358654483 L 555.8877209065444 288.69319206268034 L 560.2446345811051 323.2561609039593 L 564.6015482556659 301.44187042371084 L 568.9584619302266 306.4840505536139 L 573.3153756047873 319.45221188501387 L 577.672289279348 290.20812274771237 L 582.0292029539088 326.0121212121212 L 586.3861166284695 294.4284387132598 L 590.7430303030302 314.2071981557875 L 590.7430303030302 58.05946851087913 L 586.3861166284695 77.8382279534068 L 582.0292029539088 46.25454545454545 L 577.672289279348 82.05854391895426 L 573.3153756047873 52.81445478165274 L 568.9584619302266 65.78261611305277 L 564.6015482556659 70.82479624295577 L 560.2446345811051 49.01050576270734 L 555.8877209065444 83.57347460398628 L 551.5308072319837 48.364330801218365 L 547.173893557423 73.79387169487816 L 542.8169798828621 63.22929112062866 L 538.4600662083014 55.081004136631805 L 534.1031525337407 82.68890152561599 L 529.74623885918 49.00417398859277 L 525.3893251846192 86.229595026196 L 521.0324115100585 65.33960763229268 L 516.6754978354978 82.43258944799675 L 512.318584160937 128.43407418836128 L 507.96167048637636 140.40077375632575 L 503.6047568118156 146.4555503850263 L 499.2478431372549 140.49626258990762 L 494.8909294626941 144.23688792903846 L 490.5340157881334 144.01415745425487 L 486.1771021135727 141.13091634923512 L 481.82018843901193 146.28536741180318 L 477.4632747644512 139.8789079559819 L 473.10636108989047 145.47143597076945 L 468.74944741532977 142.50765977076117 L 464.39253374076895 142.07442809933391 L 460.03562006620825 145.11008081494063 L 455.67870639164755 139.17059603263334 L 451.3217927170868 144.86714436878881 L 446.96487904252604 138.81660517978406 L 442.60796536796533 138.6523018966643 L 438.25105169340463 135.15640281025802 L 433.8941380188438 125.29018181094969 L 429.5372243442831 118.22830618712926 L 425.1803106697224 97.42953952210442 L 420.8233969951617 73.58333942585136 L 416.4664833206009 62.78052345974913 L 412.1095696460402 54.36852303483511 L 407.7526559714795 80.90636807728897 L 403.3957422969188 46.48206471498637 L 399.038828622358 79.8370714160427 L 394.6819149477973 55.34798351148318 L 390.3250012732366 61.648966380011224 L 385.9680875986758 75.05038287588161 L 381.61117392411506 47.73727833920888 L 377.25426024955436 83.11216475877075 L 372.89734657499366 49.76362968778085 L 368.54043290043296 69.94978487440365 L 364.18351922587215 67.8285324914018 L 359.8266055513114 52.576048245074425 L 355.4696918767507 84.28563154330985 L 351.11277820219 49.31272136428731 L 346.7558645276292 84.06430759542373 L 342.3989508530685 71.08512175146411 L 338.04203717850777 80.94713673798472 L 333.685123503947 145.53123078224803 L 329.3282098293863 139.8775548782666 L 324.97129615482555 146.40944233456753 L 320.6143824802648 141.37973033387757 L 316.2574688057041 143.63684267883554 L 311.90055513114334 144.30055030997875 L 307.5436414565826 140.3926075309745 L 303.1867277820219 146.62589600123425 L 298.8298141074612 140.4458045304109 L 294.47290043290036 144.78354100765648 L 290.11598675833966 142.57734651745704 L 285.75907308377896 140.85818342750557 L 281.40215940921826 145.0536897208974 L 277.04524573465744 138.1812098695763 L 272.68833206009674 141.74960163010496 L 268.33141838553604 134.51049734236386 L 263.9745047109753 129.91235478060972 L 259.6175910364145 122.12909375336815 L 255.26067736185382 104.28985579506912 L 250.90376368729306 84.61277080295679 L 246.54685001273234 49.628083855831164 L 242.18993633817163 69.72230205977014 L 237.8330226636109 67.311849948988 L 233.47610898905015 51.78654665807998 L 229.11919531448942 82.27135886806953 L 224.76228163992872 46.481147047062144 L 220.40536796536793 77.081335509216 L 216.04845429080723 59.44878935962704 L 211.6915406162465 58.17579162750773 L 207.33462694168577 77.82598438089488 L 202.977713267125 46.36095530010425 L 198.6207995925643 82.33130033332989 L 194.26388591800358 53.08539116543113 L 189.9069722434428 66.60034429665389 L 185.55005856888206 72.15450047404195 L 181.19314489432134 51.34103374341487 L 176.83623121976063 89.4610771143422 L 172.47931754519988 56.65355953785088 L 168.12240387063915 94.58728606900293 L 163.76549019607842 101.67900028975941 L 159.40857652151766 141.44589689825457 L 155.05166284695696 146.2785108086117 L 150.69474917239623 140.18652871435103 L 146.3378354978355 145.9744984316607 L 141.98092182327474 141.53649899689177 L 137.624008148714 142.7960634658175 L 133.26709447415328 145.3065431190791 L 128.91018079959252 140.3912378686083 L 124.5532671250318 146.42364129696455 L 120.1963534504711 140.42986761357636 L 115.83943977591036 144.13864939208102 L 111.48252610134962 143.77925979033625 L 107.12561242678888 140.75710435720907 L 102.76869875222815 145.45905045859323 L 98.41178507766742 138.54084524191333 L 94.05487140310669 142.6638769531732 L 89.69795772854596 137.6106579992234 L 85.34104405398523 133.29096609972433 L 80.98413037942449 128.6900821870354 L 76.62721670486376 113.55484395348556 L 72.27030303030303 99.49263379120107 Z" fill="#1f77b4" fill-opacity="0.25" stroke="none"/><line x1="72.27030303030303" y1="164.8858777037191" x2="76.62721670486376" y2="180.2781623516367" stroke="#1f77b4" stroke-width="1.4211023622047245"/><line x1="76.62721670486376" y1="180.2781623516367" x2="80.98413037942449" y2="203.90528322590268" stroke="#1f77b4" stroke-width="1.4211023622047245"/><line x1="80.98413037942449" y1="203.90528322590268" x2="85.34104405398523" y2="201.15345289326046" stroke="#1f77b4" stroke-width="1.4211023622047245"/><line x1="85.34104405398523" y1="201.15345289326046" x2="89.69795772854596" y2="176.05410923788364" stroke="#1f77b4" stroke-width="1.4211023622047245"/><line x1="89.69795772854596" y1="176.05410923788364" x2="94.05487140310669" y2="165.37784951640737" stroke="#1f77b4" stroke-width="1.4211023622047245"/><line x1="94.05487140310669" y1="165.37784951640737" x2="98.41178507766742" y2="184.76541923261064" stroke="#1f77b4" stroke-width="1.4211023622047245"/><line x1="98.41178507766742" y1="184.76541923261064" x2="102.76869875222815" y2="205.81398333201065" stroke="#1f77b4" stroke-width="1.4211023622047245"/><line x1="102.76869875222815" y1="205.81398333201065" x2="107.12561242678888" y2="197.68734609744553" stroke="#1f77b4" stroke-width="1.4211023622047245"/><line x1="107.12561242678888" y1="197.68734609744553" x2="111.48252610134962" y2="172.2910501162392" stroke="#1f77b4" stroke-width="1.4211023622047245"/><line x1="111.48252610134962" y1="172.2910501162392" x2="115.83943977591036" y2="166.83072849805234" stroke="#1f77b4" stroke-width="1.4211023622047245"/><line x1="115.83943977591036" y1="166.83072849805234" x2="120.1963534504711" y2="189.30576520570168" stroke="#1f77b4" stroke-width="1.4211023622047245"/><line x1="120.1963534504711" y1="189.30576520570168" x2="124.5532671250318" y2="206.79017880907014" stroke="#1f77b4" stroke-width="1.4211023622047245"/><line x1="124.5532671250318" y1="206.79017880907014" x2="128.91018079959252" y2="193.66926241759853" stroke="#1f77b4" stroke-width="1.4211023622047245"/><line x1="128.91018079959252" y1="193.66926241759853" x2="133.26709447415328" y2="169.1651892838305" stroke="#1f77b4" stroke-width="1.4211023622047245"/><line x1="133.26709447415328" y1="169.1651892838305" x2="137.624008148714" y2="169.1764839556737" stroke="#1f77b4" stroke-width="1.4211023622047245"/><line x1="137.624008148714" y1="169.1764839556737" x2="141.98092182327474" y2="193.68659971241732" stroke="#1f77b4" stroke-width="1.4211023622047245"/><line x1="141.98092182327474" y1="193.68659971241732" x2="146.3378354978355" y2="206.788159549338" stroke="#1f77b4" stroke-width="1.4211023622047245"/><line x1="146.3378354978355" y1="206.788159549338" x2="150.69474917239623" y2="189.2873476116568" stroke="#1f77b4" stroke-width="1.4211023622047245"/><line x1="150.69474917239623" y1="189.2873476116568" x2="155.05166284695696" y2="166.82289438811839" stroke="#1f77b4" stroke-width="1.4211023622047245"/><line x1="155.05166284695696" y1="166.82289438811839" x2="159.40857652151766" y2="131.5234999749887" stroke="#1f77b4" stroke-width="1.4211023622047245"/><line x1="159.40857652151766" y1="131.5234999749887" x2="163.76549019607842" y2="233.11355916996945" stroke="#1f77b4" stroke-width="1.4211023622047245"/><line x1="163.76549019607842" y1="233.11355916996945" x2="168.12240387063915" y2="265.5344744722715" stroke="#1f77b4" stroke-width="1.4211023622047245"/><line x1="168.12240387063915" y1="265.5344744722715" x2="172.47931754519988" y2="181.28952900989626" stroke="#1f77b4" stroke-width="1.4211023622047245"/><line x1="172.47931754519988" y1="181.28952900989626" x2="176.83623121976063" y2="103.79776525013907" stroke="#1f77b4" stroke-width="1.4211023622047245"/><line x1="176.83623121976063" y1="103.79776525013907" x2="181.19314489432134" y2="146.58479864493756" stroke="#1f77b4" stroke-width="1.4211023622047245"/><line x1="181.19314489432134" y1="146.58479864493756" x2="185.55005856888206" y2="246.9675250315545" stroke="#1f77b4" stroke-width="1.4211023622047245"/><line x1="185.55005856888206" y1="246.9675250315545" x2="189.9069722434428" y2="257.88501508188057" stroke="#1f77b4" stroke-width="1.4211023622047245"/><line x1="189.9069722434428" y1="257.88501508188057" x2="194.26388591800358" y2="163.34312029522994" stroke="#1f77b4" stroke-width="1.4211023622047245"/><line x1="194.26388591800358" y1="163.34312029522994" x2="198.6207995925643" y2="101.84593802214718" stroke="#1f77b4" stroke-width="1.4211023622047245"/><line x1="198.6207995925643" y1="101.84593802214718" x2="202.977713267125" y2="163.48698436527334" stroke="#1f77b4" stroke-width="1.4211023622047245"/><line x1="202.977713267125" y1="163.48698436527334" x2="207.33462694168577" y2="257.9619820223164" stroke="#1f77b4" stroke-width="1.4211023622047245"/><line x1="207.33462694168577" y1="257.9619820223164" x2="211.6915406162465" y2="246.8648380943293" stroke="#1f77b4" stroke-width="1.4211023622047245"/><line x1="211.6915406162465" y1="246.8648380943293" x2="216.04845429080723" y2="146.45289443365658" stroke="#1f77b4" stroke-width="1.4211023622047245"/><line x1="216.04845429080723" y1="146.45289443365658" x2="220.40536796536793" y2="103.82988374334737" stroke="#1f77b4" stroke-width="1.4211023622047245"/><line x1="220.40536796536793" y1="103.82988374334737" x2="224.76228163992872" y2="181.43861653979823" stroke="#1f77b4" stroke-width="1.4211023622047245"/><line x1="224.76228163992872" y1="181.43861653979823" x2="229.11919531448942" y2="265.58211745828595" stroke="#1f77b4" stroke-width="1.4211023622047245"/><line x1="229.11919531448942" y1="265.58211745828595" x2="233.47610898905015" y2="232.98996052596954" stroke="#1f77b4" stroke-width="1.4211023622047245"/><line x1="233.47610898905015" y1="232.98996052596954" x2="237.8330226636109" y2="131.4097320039954" stroke="#1f77b4" stroke-width="1.4211023622047245"/><line x1="237.8330226636109" y1="131.4097320039954" x2="242.18993633817163" y2="109.65670465421965" stroke="#1f77b4" stroke-width="1.4211023622047245"/><line x1="242.18993633817163" y1="109.65670465421965" x2="246.54685001273234" y2="189.32418011257215" stroke="#1f77b4" stroke-width="1.4211023622047245"/><line x1="246.54685001273234" y1="189.32418011257215" x2="250.90376368729306" y2="206.79218158952622" stroke="#1f77b4" stroke-width="1.4211023622047245"/><line x1="250.90376368729306" y1="206.79218158952622" x2="255.26067736185382" y2="193.65191899358" stroke="#1f77b4" stroke-width="1.4211023622047245"/><line x1="255.26067736185382" y1="193.65191899358" x2="259.6175910364145" y2="169.15390781215584" stroke="#1f77b4" stroke-width="1.4211023622047245"/><line x1="259.6175910364145" y1="169.15390781215584" x2="263.9745047109753" y2="169.18779181877596" stroke="#1f77b4" stroke-width="1.4211023622047245"/><line x1="263.9745047109753" y1="169.18779181877596" x2="268.33141838553604" y2="193.70393086436016" stroke="#1f77b4" stroke-width="1.4211023622047245"/><line x1="268.33141838553604" y1="193.70393086436016" x2="272.68833206009674" y2="206.7861238119226" stroke="#1f77b4" stroke-width="1.4211023622047245"/><line x1="272.68833206009674" y1="206.7861238119226" x2="277.04524573465744" y2="189.26892734496596" stroke="#1f77b4" stroke-width="1.4211023622047245"/><line x1="277.04524573465744" y1="189.26892734496596" x2="281.40215940921826" y2="166.81507532600816" stroke="#1f77b4" stroke-width="1.4211023622047245"/><line x1="281.40215940921826" y1="166.81507532600816" x2="285.75907308377896" y2="172.31951356660284" stroke="#1f77b4" stroke-width="1.4211023622047245"/><line x1="285.75907308377896" y1="172.31951356660284" x2="290.11598675833966" y2="197.71822714875145" stroke="#1f77b4" stroke-width="1.4211023622047245"/><line x1="290.11598675833966" y1="197.71822714875145" x2="294.47290043290036" y2="205.80204117174918" stroke="#1f77b4" stroke-width="1.4211023622047245"/><line x1="294.47290043290036" y1="205.80204117174918" x2="298.8298141074612" y2="184.72814915354218" stroke="#1f77b4" stroke-width="1.4211023622047245"/><line x1="298.8298141074612" y1="184.72814915354218" x2="303.1867277820219" y2="165.36985227168182" stroke="#1f77b4" stroke-width="1.4211023622047245"/><line x1="303.1867277820219" y1="165.36985227168182" x2="307.5436414565826" y2="176.0871008097594" stroke="#1f77b4" stroke-width="1.4211023622047245"/><line x1="307.5436414565826" y1="176.0871008097594" x2="311.90055513114334" y2="201.1791005516484" stroke="#1f77b4" stroke-width="1.4211023622047245"/><line x1="311.90055513114334" y1="201.1791005516484" x2="316.2574688057041" y2="203.8860130911785" stroke="#1f77b4" stroke-width="1.4211023622047245"/><line x1="316.2574688057041" y1="203.8860130911785" x2="320.6143824802648" y2="180.24220521631622" stroke="#1f77b4" stroke-width="1.4211023622047245"/><line x1="320.6143824802648" y1="180.24220521631622" x2="324.97129615482555" y2="164.88591085528554" stroke="#1f77b4" stroke-width="1.4211023622047245"/><line x1="324.97129615482555" y1="164.88591085528554" x2="329.3282098293863" y2="180.31413722296747" stroke="#1f77b4" stroke-width="1.4211023622047245"/><line x1="329.3282098293863" y1="180.31413722296747" x2="333.685123503947" y2="258.0003802405697" stroke="#1f77b4" stroke-width="1.4211023622047245"/><line x1="333.685123503947" y1="258.0003802405697" x2="338.04203717850777" y2="246.81342246884367" stroke="#1f77b4" stroke-width="1.4211023622047245"/><line x1="338.04203717850777" y1="246.81342246884367" x2="342.3989508530685" y2="146.38698897622152" stroke="#1f77b4" stroke-width="1.4211023622047245"/><line x1="342.3989508530685" y1="146.38698897622152" x2="346.7558645276292" y2="103.846040103506" stroke="#1f77b4" stroke-width="1.4211023622047245"/><line x1="346.7558645276292" y1="103.846040103506" x2="351.11277820219" y2="181.51316561206733" stroke="#1f77b4" stroke-width="1.4211023622047245"/><line x1="351.11277820219" y1="181.51316561206733" x2="355.4696918767507" y2="265.6058446771412" stroke="#1f77b4" stroke-width="1.4211023622047245"/><line x1="355.4696918767507" y1="265.6058446771412" x2="359.8266055513114" y2="232.9281054602016" stroke="#1f77b4" stroke-width="1.4211023622047245"/><line x1="359.8266055513114" y1="232.9281054602016" x2="364.18351922587215" y2="131.35291246986446" stroke="#1f77b4" stroke-width="1.4211023622047245"/><line x1="364.18351922587215" y1="131.35291246986446" x2="368.54043290043296" y2="109.68816140234222" stroke="#1f77b4" stroke-width="1.4211023622047245"/><line x1="368.54043290043296" y1="109.68816140234222" x2="372.89734657499366" y2="199.67276332666734" stroke="#1f77b4" stroke-width="1.4211023622047245"/><line x1="372.89734657499366" y1="199.67276332666734" x2="377.25426024955436" y2="269.4790656122035" stroke="#1f77b4" stroke-width="1.4211023622047245"/><line x1="377.25426024955436" y1="269.4790656122035" x2="381.61117392411506" y2="216.84067187186844" stroke="#1f77b4" stroke-width="1.4211023622047245"/><line x1="381.61117392411506" y1="216.84067187186844" x2="385.9680875986758" y2="118.87295225389232" stroke="#1f77b4" stroke-width="1.4211023622047245"/><line x1="385.9680875986758" y1="118.87295225389232" x2="390.3250012732366" y2="119.09884551256744" stroke="#1f77b4" stroke-width="1.4211023622047245"/><line x1="390.3250012732366" y1="119.09884551256744" x2="394.6819149477973" y2="217.18741749472204" stroke="#1f77b4" stroke-width="1.4211023622047245"/><line x1="394.6819149477973" y1="217.18741749472204" x2="399.038828622358" y2="269.43868044941723" stroke="#1f77b4" stroke-width="1.4211023622047245"/><line x1="399.038828622358" y1="269.43868044941723" x2="403.3957422969188" y2="199.3044117363354" stroke="#1f77b4" stroke-width="1.4211023622047245"/><line x1="403.3957422969188" y1="199.3044117363354" x2="407.7526559714795" y2="109.53147932725645" stroke="#1f77b4" stroke-width="1.4211023622047245"/><line x1="407.7526559714795" y1="109.53147932725645" x2="412.1095696460402" y2="131.6374395170937" stroke="#1f77b4" stroke-width="1.4211023622047245"/><line x1="412.1095696460402" y1="131.6374395170937" x2="416.4664833206009" y2="233.23700883897806" stroke="#1f77b4" stroke-width="1.4211023622047245"/><line x1="416.4664833206009" y1="233.23700883897806" x2="420.8233969951617" y2="205.7960465395442" stroke="#1f77b4" stroke-width="1.4211023622047245"/><line x1="420.8233969951617" y1="205.7960465395442" x2="425.1803106697224" y2="184.70951549228806" stroke="#1f77b4" stroke-width="1.4211023622047245"/><line x1="425.1803106697224" y1="184.70951549228806" x2="429.5372243442831" y2="165.36587793876976" stroke="#1f77b4" stroke-width="1.4211023622047245"/><line x1="429.5372243442831" y1="165.36587793876976" x2="433.8941380188438" y2="176.10360821221667" stroke="#1f77b4" stroke-width="1.4211023622047245"/><line x1="433.8941380188438" y1="176.10360821221667" x2="438.25105169340463" y2="201.19190630620238" stroke="#1f77b4" stroke-width="1.4211023622047245"/><line x1="438.25105169340463" y1="201.19190630620238" x2="442.60796536796533" y2="203.87635673740692" stroke="#1f77b4" stroke-width="1.4211023622047245"/><line x1="442.60796536796533" y1="203.87635673740692" x2="446.96487904252604" y2="180.22423333511716" stroke="#1f77b4" stroke-width="1.4211023622047245"/><line x1="446.96487904252604" y1="180.22423333511716" x2="451.3217927170868" y2="164.88595229471915" stroke="#1f77b4" stroke-width="1.4211023622047245"/><line x1="451.3217927170868" y1="164.88595229471915" x2="455.67870639164755" y2="180.33213127416667" stroke="#1f77b4" stroke-width="1.4211023622047245"/><line x1="455.67870639164755" y1="180.33213127416667" x2="460.03562006620825" y2="203.9340818820204" stroke="#1f77b4" stroke-width="1.4211023622047245"/><line x1="460.03562006620825" y1="203.9340818820204" x2="464.39253374076895" y2="201.11489118428545" stroke="#1f77b4" stroke-width="1.4211023622047245"/><line x1="464.39253374076895" y1="201.11489118428545" x2="468.74944741532977" y2="176.0046801578049" stroke="#1f77b4" stroke-width="1.4211023622047245"/><line x1="468.74944741532977" y1="176.0046801578049" x2="473.10636108989047" y2="165.38996678334016" stroke="#1f77b4" stroke-width="1.4211023622047245"/><line x1="473.10636108989047" y1="165.38996678334016" x2="477.4632747644512" y2="184.82133102211085" stroke="#1f77b4" stroke-width="1.4211023622047245"/><line x1="477.4632747644512" y1="184.82133102211085" x2="481.82018843901193" y2="205.8317787414731" stroke="#1f77b4" stroke-width="1.4211023622047245"/><line x1="481.82018843901193" y1="205.8317787414731" x2="486.1771021135727" y2="197.6409548103176" stroke="#1f77b4" stroke-width="1.4211023622047245"/><line x1="486.1771021135727" y1="197.6409548103176" x2="490.5340157881334" y2="172.24843547684645" stroke="#1f77b4" stroke-width="1.4211023622047245"/><line x1="490.5340157881334" y1="172.24843547684645" x2="494.8909294626941" y2="166.85432105294083" stroke="#1f77b4" stroke-width="1.4211023622047245"/><line x1="494.8909294626941" y1="166.85432105294083" x2="499.2478431372549" y2="189.3610018066882" stroke="#1f77b4" stroke-width="1.4211023622047245"/><line x1="499.2478431372549" y1="189.3610018066882" x2="503.6047568118156" y2="206.7961377063039" stroke="#1f77b4" stroke-width="1.4211023622047245"/><line x1="503.6047568118156" y1="206.7961377063039" x2="507.96167048637636" y2="216.7712493063857" stroke="#1f77b4" stroke-width="1.4211023622047245"/><line x1="507.96167048637636" y1="216.7712493063857" x2="512.318584160937" y2="118.82793207528891" stroke="#1f77b4" stroke-width="1.4211023622047245"/><line x1="512.318584160937" y1="118.82793207528891" x2="516.6754978354978" y2="119.14418238796777" stroke="#1f77b4" stroke-width="1.4211023622047245"/><line x1="516.6754978354978" y1="119.14418238796777" x2="521.0324115100585" y2="217.25669279545195" stroke="#1f77b4" stroke-width="1.4211023622047245"/><line x1="521.0324115100585" y1="217.25669279545195" x2="525.3893251846192" y2="269.43040569761183" stroke="#1f77b4" stroke-width="1.4211023622047245"/><line x1="525.3893251846192" y1="269.43040569761183" x2="529.74623885918" y2="199.2307094627754" stroke="#1f77b4" stroke-width="1.4211023622047245"/><line x1="529.74623885918" y1="199.2307094627754" x2="534.1031525337407" y2="109.5003235353732" stroke="#1f77b4" stroke-width="1.4211023622047245"/><line x1="534.1031525337407" y1="109.5003235353732" x2="538.4600662083014" y2="131.69447351498553" stroke="#1f77b4" stroke-width="1.4211023622047245"/><line x1="538.4600662083014" y1="131.69447351498553" x2="542.8169798828621" y2="233.29867768611751" stroke="#1f77b4" stroke-width="1.4211023622047245"/><line x1="542.8169798828621" y1="233.29867768611751" x2="547.173893557423" y2="265.46253890472633" stroke="#1f77b4" stroke-width="1.4211023622047245"/><line x1="547.173893557423" y1="265.46253890472633" x2="551.5308072319837" y2="181.06592513363938" stroke="#1f77b4" stroke-width="1.4211023622047245"/><line x1="551.5308072319837" y1="181.06592513363938" x2="555.8877209065444" y2="103.75007326773428" stroke="#1f77b4" stroke-width="1.4211023622047245"/><line x1="555.8877209065444" y1="103.75007326773428" x2="560.2446345811051" y2="146.78288742233815" stroke="#1f77b4" stroke-width="1.4211023622047245"/><line x1="560.2446345811051" y1="146.78288742233815" x2="564.6015482556659" y2="247.12119404579607" stroke="#1f77b4" stroke-width="1.4211023622047245"/><line x1="564.6015482556659" y1="247.12119404579607" x2="568.9584619302266" y2="257.76913886708985" stroke="#1f77b4" stroke-width="1.4211023622047245"/><line x1="568.9584619302266" y1="257.76913886708985" x2="573.3153756047873" y2="163.12745777754472" stroke="#1f77b4" stroke-width="1.4211023622047245"/><line x1="573.3153756047873" y1="163.12745777754472" x2="577.672289279348" y2="101.84643529521921" stroke="#1f77b4" stroke-width="1.4211023622047245"/><line x1="577.672289279348" y1="101.84643529521921" x2="582.0292029539088" y2="163.70291292288653" stroke="#1f77b4" stroke-width="1.4211023622047245"/><line x1="582.0292029539088" y1="163.70291292288653" x2="586.3861166284695" y2="258.077006021701" stroke="#1f77b4" stroke-width="1.4211023622047245"/><line x1="586.3861166284695" y1="258.077006021701" x2="590.7430303030302" y2="246.71044710691285" stroke="#1f77b4" stroke-width="1.4211023622047245"/></svg>