<svg xmlns="http://www.w3.org/2000/svg" width="624" height="384" viewBox="0 0 624 384"><rect x="0.0" y="0.0" width="624.0" height="384.0" fill="#ffffff" fill-opacity="1.0" stroke="none"/><line x1="54.770303030303026" y1="7.333333333333333" x2="54.770303030303026" y2="358.3333333333333" stroke="#dddddd" stroke-width="0.6666666666666666"/><line x1="207.66727272727275" y1="7.333333333333333" x2="207.66727272727275" y2="358.3333333333333" stroke="#dddddd" stroke-width="0.6666666666666666"/><line x1="360.5642424242424" y1="7.333333333333333" x2="360.5642424242424" y2="358.3333333333333" stroke="#dddddd" stroke-width="0.6666666666666666"/><line x1="513.461212121212" y1="7.333333333333333" x2="513.461212121212" y2="358.3333333333333" stroke="#dddddd" stroke-width="0.6666666666666666"/><line x1="131.2187878787879" y1="7.333333333333333" x2="131.2187878787879" y2="358.3333333333333" stroke="#dddddd" stroke-width="1.3333333333333333"/><line x1="284.1157575757576" y1="7.333333333333333" x2="284.1157575757576" y2="358.3333333333333" stroke="#dddddd" stroke-width="1.3333333333333333"/><line x1="437.0127272727273" y1="7.333333333333333" x2="437.0127272727273" y2="358.3333333333333" stroke="#dddddd" stroke-width="1.3333333333333333"/><line x1="589.9096969696969" y1="7.333333333333333" x2="589.9096969696969" y2="358.3333333333333" stroke="#dddddd" stroke-width="1.3333333333333333"/><line x1="28.01333333333333" y1="296.55435054252666" x2="616.6666666666666" y2="296.55435054252666" stroke="#dddddd" stroke-width="0.6666666666666666"/><line x1="28.01333333333333" y1="194.76633644569148" x2="616.6666666666666" y2="194.76633644569148" stroke="#dddddd" stroke-width="0.6666666666666666"/><line x1="28.01333333333333" y1="92.97832234885621" x2="616.6666666666666" y2="92.97832234885621" stroke="#dddddd" stroke-width="0.6666666666666666"/><line x1="28.01333333333333" y1="347.4483575909443" x2="616.6666666666666" y2="347.4483575909443" stroke="#dddddd" stroke-width="1.3333333333333333"/><line x1="28.01333333333333" y1="245.66034349410907" x2="616.6666666666666" y2="245.66034349410907" stroke="#dddddd" stroke-width="1.3333333333333333"/><line x1="28.01333333333333" y1="143.87232939727386" x2="616.6666666666666" y2="143.87232939727386" stroke="#dddddd" stroke-width="1.3333333333333333"/><line x1="28.01333333333333" y1="42.08431530043863" x2="616.6666666666666" y2="42.08431530043863" stroke="#dddddd" stroke-width="1.3333333333333333"/><rect x="28.01333333333333" y="7.333333333333333" width="588.6533333333333" height="351.0" fill="#ffffff" fill-opacity="0.0" stroke="#444444" stroke-width="1.3333333333333333"/><line x1="131.2187878787879" y1="358.3333333333333" x2="131.2187878787879" y2="362.0" stroke="#444444" stroke-width="1.3333333333333333"/><text x="131.2187878787879" y="374.32" fill="#333333" font-size="11.733333333333334" font-family="sans-serif" text-anchor="middle">2</text><line x1="284.1157575757576" y1="358.3333333333333" x2="284.1157575757576" y2="362.0" stroke="#444444" stroke-width="1.3333333333333333"/><text x="284.1157575757576" y="374.32" fill="#333333" font-size="11.733333333333334" font-family="sans-serif" text-anchor="middle">4</text><line x1="437.0127272727273" y1="358.3333333333333" x2="437.0127272727273" y2="362.0" stroke="#444444" stroke-width="1.3333333333333333"/><text x="437.0127272727273" y="374.32" fill="#333333" font-size="11.733333333333334" font-family="sans-serif" text-anchor="middle">6</text><line x1="589.9096969696969" y1="358.3333333333333" x2="589.9096969696969" y2="362.0" stroke="#444444" stroke-width="1.3333333333333333"/><text x="589.9096969696969" y="374.32" fill="#333333" font-size="11.733333333333334" font-family="sans-serif" text-anchor="middle">8</text><line x1="28.01333333333333" y1="347.4483575909443" x2="24.346666666666664" y2="347.4483575909443" stroke="#444444" stroke-width="1.3333333333333333"/><text x="21.41333333333333" y="351.55502425761097" fill="#333333" font-size="11.733333333333334" font-family="sans-serif" text-anchor="end">0</text><line x1="28.01333333333333" y1="245.66034349410907" x2="24.346666666666664" y2="245.66034349410907" stroke="#444444" stroke-width="1.3333333333333333"/><text x="21.41333333333333" y="249.76701016077575" fill="#333333" font-size="11.733333333333334" font-family="sans-serif" text-anchor="end">10</text><line x1="28.01333333333333" y1="143.87232939727386" x2="24.346666666666664" y2="143.87232939727386" stroke="#444444" stroke-width="1.3333333333333333"/><text x="21.41333333333333" y="147.97899606394054" fill="#333333" font-size="11.733333333333334" font-family="sans-serif" text-anchor="end">20</text><line x1="28.01333333333333" y1="42.08431530043863" x2="24.346666666666664" y2="42.08431530043863" stroke="#444444" stroke-width="1.3333333333333333"/><text x="21.41333333333333" y="46.1909819671053" fill="#333333" font-size="11.733333333333334" font-family="sans-serif" text-anchor="end">30</text><circle cx="54.770303030303026" cy="337.2695561812608" r="3.1181102362204727" fill="#1f77b4" fill-opacity="0.85" stroke="none"><title>(1, 1)</title></circle><circle cx="131.2187878787879" cy="337.2695561812608" r="3.1181102362204727" fill="#1f77b4" fill-opacity="0.85" stroke="none"><title>(2, 1)</title></circle><circle cx="207.66727272727275" cy="316.9119533618937" r="3.1181102362204727" fill="#1f77b4" fill-opacity="0.85" stroke="none"><title>(3, 3)</title></circle><circle cx="284.1157575757576" cy="306.7331519522102" r="3.1181102362204727" fill="#1f77b4" fill-opacity="0.85" stroke="none"><title>(4, 4)</title></circle><circle cx="360.5642424242424" cy="276.19674772315966" r="3.1181102362204727" fill="#1f77b4" fill-opacity="0.85" stroke="none"><title>(5, 7)</title></circle><circle cx="437.0127272727273" cy="245.66034349410907" r="3.1181102362204727" fill="#1f77b4" fill-opacity="0.85" stroke="none"><title>(6, 10)</title></circle><circle cx="513.461212121212" cy="194.76633644569148" r="3.1181102362204727" fill="#1f77b4" fill-opacity="0.85" stroke="none"><title>(7, 15)</title></circle><circle cx="589.9096969696969" cy="123.51472657790683" r="3.1181102362204727" fill="#1f77b4" fill-opacity="0.85" stroke="none"><title>(8, 22)</title></circle><path d="M 54.770303030303026 342.3787878787879 L 60.17575145393329 342.17189911067874 L 65.58119987756352 341.95663441521583 L 70.98664830119375 341.7326600154639 L 76.392096724824 341.4996292872047 L 81.79754514845425 341.2571823063306 L 87.2029935720845 341.00494538455473 L 92.60844199571473 340.7425305936312 L 98.01389041934499 340.46953527836195 L 103.41933884297521 340.1855415587545 L 108.82478726660545 339.89011582179796 L 114.23023569023567 339.5828082034389 L 119.63568411386593 339.2631520614722 L 125.0411325374962 338.9306634402096 L 130.44658096112644 338.5848405279562 L 135.85202938475666 338.2251631085169 L 141.2574778083869 337.85109200816873 L 146.66292623201713 337.4620685397759 L 152.06837465564735 337.0575139459969 L 157.47382307927765 336.63682884384116 L 162.8792715029079 336.1993926731734 L 168.28471992653812 335.74456315215343 L 173.69016835016834 335.2716757430301 L 179.0956167737986 334.7800431321951 L 184.50106519742886 334.2689547289443 L 189.90651362105908 333.7376761880023 L 195.3119620446893 333.18544896154185 L 200.71741046831954 332.611489887187 L 206.12285889194985 332.014990819326 L 211.52830731558007 331.3951183119939 L 216.93375573921028 330.75101336261764 L 222.33920416284053 330.0817912270559 L 227.74465258647075 329.3865413176237 L 233.15010101010105 328.6643271971732 L 238.55554943373127 327.91418668380544 L 243.96099785736152 327.1351320824332 L 249.36644628099174 326.3261505611859 L 254.771894704622 325.4862046925528 L 260.17734312825223 324.61423318118796 L 265.58279155188245 323.7091518024348 L 270.98823997551267 322.76985457784536 L 276.3936883991429 321.7952152162305 L 281.7991368227732 320.7840888510319 L 287.2045852464034 319.73531410697944 L 292.61003367003366 318.6477155309851 L 298.0154820936639 317.5201064239102 L 303.42093051729415 316.3512921110369 L 308.8263789409244 315.1400736895863 L 314.2318273645547 313.8852522911675 L 319.63727578818487 312.5856338953031 L 325.0427242118152 311.24003472674667 L 330.44817263544536 309.8472872637339 L 335.8536210590755 308.4062468760385 L 341.2590694827058 306.91579910015133 L 346.6645179063361 305.37486754339653 L 352.06996632996635 303.78242238869126 L 357.4754147535966 302.137489446309 L 362.88086317722684 300.4391596678955 L 368.2863116008571 298.6865990008155 L 373.6917600244874 296.87905841771425 L 379.0972084481175 295.01588390753835 L 384.5026568717477 293.0965261614507 L 389.908105295378 291.1205496322998 L 395.31355371900827 289.0876405928571 L 400.7190021426386 286.9976137704279 L 406.1244505662688 284.8504170993871 L 411.5298989898991 282.6461341154044 L 416.9353474135292 280.3849835228765 L 422.3407958371595 278.06731550740943 L 427.7462442607897 275.69360444385467 L 433.15169268441997 273.2644377705417 L 438.55714110805025 270.7805009611689 L 443.96258953168046 268.24255872138383 L 449.36803795531074 265.65143275574104 L 454.7734863789411 263.00797667535096 L 460.1789348025712 260.3130488258729 L 465.58438322620145 257.5674839867123 L 470.9898316498317 254.77206500415542 L 476.39528007346195 251.92749545776317 L 481.8007284970922 249.03437441298468 L 487.20617692072244 246.09317418604593 L 492.6116253443527 243.10422185223547 L 498.0170737679828 240.06768498651402 L 503.4225221916131 236.98356186163596 L 508.8279706152433 233.8516760702389 L 514.2334190388735 230.67167530717214 L 519.6388674625039 227.44303386414737 L 525.0443158861341 224.16505826049024 L 530.4497643097643 220.83689536350235 L 535.8552127333946 217.45754233533194 L 541.2606611570247 214.0258577712806 L 546.666109580655 210.54057345563606 L 552.0715580042852 207.00030624340587 L 557.4770064279155 203.40356966871747 L 562.8824548515458 199.74878497408645 L 568.2879032751761 196.0342913425249 L 573.6933516988063 192.2583551922192 L 579.0988001224366 188.4191784589509 L 584.5042485460667 184.51490584392644 L 589.9096969696969 180.54363104470383 L 589.9096969696969 23.287878787878867 L 584.5042485460667 35.10429875918646 L 579.0988001224366 46.43795997363145 L 573.6933516988063 57.30717171555136 L 568.2879032751761 67.72952571345061 L 562.8824548515458 77.72193215317125 L 557.4770064279155 87.3006555416576 L 552.0715580042852 96.4813504849416 L 546.666109580655 105.27909740213093 L 541.2606611570247 113.70843814295577 L 535.8552127333946 121.78341140930809 L 530.4497643097643 129.51758780183994 L 525.0443158861341 136.92410422337483 L 519.6388674625039 144.0156972759683 L 514.2334190388735 150.80473519463797 L 508.8279706152433 157.30324777712724 L 503.4225221916131 163.52295370659328 L 498.0170737679828 169.47528463482183 L 492.6116253443527 175.17140540896312 L 487.20617692072244 180.6222298938934 L 481.8007284970922 185.8384319694943 L 476.39528007346195 190.83045146525015 L 470.9898316498317 195.6084950237246 L 465.58438322620145 200.18253214221295 L 460.1789348025712 204.56228690465787 L 454.7734863789411 208.75722615719633 L 449.36803795531074 212.77654507476143 L 443.96258953168046 216.62915119222453 L 438.55714110805025 220.32364801911604 L 433.15169268441997 223.86831931959603 L 427.7462442607897 227.27111502672557 L 422.3407958371595 230.5396395881675 L 416.9353474135292 233.68114333041353 L 411.5298989898991 236.7025172033504 L 406.1244505662688 239.61029104768477 L 400.7190021426386 242.41063533156398 L 395.31355371900827 245.10936614132882 L 389.908105295378 247.71195309062892 L 384.5026568717477 250.22352973293133 L 379.0972084481175 252.6489060216069 L 373.6917600244874 254.9925823535291 L 368.2863116008571 257.2587647494245 L 362.88086317722684 259.45138075981055 L 357.4754147535966 261.5740957325212 L 352.06996632996635 263.63032913084146 L 346.6645179063361 265.6232706456426 L 341.2590694827058 267.5558958973229 L 335.8536210590755 269.43098157162467 L 330.44817263544536 271.25111987623154 L 325.0427242118152 273.0187322418711 L 319.63727578818487 274.73608222242854 L 314.2318273645547 276.4052875735996 L 308.8263789409244 278.02833150941547 L 303.42093051729415 279.6070731511761 L 298.0154820936639 281.14325719460146 L 292.61003367003366 282.6385228290054 L 287.2045852464034 284.0944119476113 L 281.7991368227732 285.5123766913034 L 276.3936883991429 286.89378636960953 L 270.98823997551267 288.23993380293217 L 265.58279155188245 289.5520411293155 L 260.17734312825223 290.83126511762185 L 254.771894704622 292.078702027105 L 249.36644628099174 293.2953920511799 L 243.96099785736152 294.4823233808255 L 238.55554943373127 295.64043592062274 L 233.15010101010105 296.77062468799096 L 227.74465258647075 297.8737429238013 L 222.33920416284053 298.95060494025154 L 216.93375573921028 300.0019887297009 L 211.52830731558007 301.0286383561125 L 206.12285889194985 302.03126614883405 L 200.71741046831954 303.01055471666666 L 195.3119620446893 303.9671587985354 L 189.90651362105908 304.90170696556595 L 184.50106519742886 305.8148031879931 L 179.0956167737986 306.7070282790708 L 173.69016835016834 307.57894122700526 L 168.28471992653812 308.4310804248944 L 162.8792715029079 309.2639648077127 L 157.47382307927765 310.0780949045251 L 152.06837465564735 310.8739538133419 L 146.66292623201713 311.65200810532616 L 141.2574778083869 312.41270866443267 L 135.85202938475666 313.15649146799154 L 130.44658096112644 313.88377831322816 L 125.0411325374962 314.5949774942519 L 119.63568411386593 315.29048443362365 L 114.23023569023567 315.9706822722351 L 108.82478726660545 316.63594242088857 L 103.41933884297521 317.2866250766623 L 98.01389041934499 317.92307970686113 L 92.60844199571473 318.545645503107 L 87.2029935720845 319.1546518078909 L 81.79754514845425 319.7504185157069 L 76.392096724824 320.3332564506984 L 70.98664830119375 320.90346772258243 L 65.58119987756352 321.4613460624614 L 60.17575145393329 322.0071771399976 L 54.770303030303026 322.54123886329705 Z" fill="#1f77b4" fill-opacity="0.2" stroke="none"/><line x1="54.770303030303026" y1="336.2114374293179" x2="60.17575145393329" y2="335.8621877174113" stroke="#1f77b4" stroke-width="1.4211023622047245"/><line x1="60.17575145393329" y1="335.8621877174113" x2="65.58119987756352" y2="335.50208313072477" stroke="#1f77b4" stroke-width="1.4211023622047245"/><line x1="65.58119987756352" y1="335.50208313072477" x2="70.98664830119375" y2="335.13078629372876" stroke="#1f77b4" stroke-width="1.4211023622047245"/><line x1="70.98664830119375" y1="335.13078629372876" x2="76.392096724824" y2="334.7479493450751" stroke="#1f77b4" stroke-width="1.4211023622047245"/><line x1="76.392096724824" y1="334.7479493450751" x2="81.79754514845425" y2="334.3532136116921" stroke="#1f77b4" stroke-width="1.4211023622047245"/><line x1="81.79754514845425" y1="334.3532136116921" x2="87.2029935720845" y2="333.94620927274985" stroke="#1f77b4" stroke-width="1.4211023622047245"/><line x1="87.2029935720845" y1="333.94620927274985" x2="92.60844199571473" y2="333.5265550131821" stroke="#1f77b4" stroke-width="1.4211023622047245"/><line x1="92.60844199571473" y1="333.5265550131821" x2="98.01389041934499" y2="333.09385766643857" stroke="#1f77b4" stroke-width="1.4211023622047245"/><line x1="98.01389041934499" y1="333.09385766643857" x2="103.41933884297521" y2="332.6477118461348" stroke="#1f77b4" stroke-width="1.4211023622047245"/><line x1="103.41933884297521" y1="332.6477118461348" x2="108.82478726660545" y2="332.1876995662524" stroke="#1f77b4" stroke-width="1.4211023622047245"/><line x1="108.82478726660545" y1="332.1876995662524" x2="114.23023569023567" y2="331.71338984953576" stroke="#1f77b4" stroke-width="1.4211023622047245"/><line x1="114.23023569023567" y1="331.71338984953576" x2="119.63568411386593" y2="331.224338323717" stroke="#1f77b4" stroke-width="1.4211023622047245"/><line x1="119.63568411386593" y1="331.224338323717" x2="125.0411325374962" y2="330.72008680519184" stroke="#1f77b4" stroke-width="1.4211023622047245"/><line x1="125.0411325374962" y1="330.72008680519184" x2="130.44658096112644" y2="330.2001628697552" stroke="#1f77b4" stroke-width="1.4211023622047245"/><line x1="130.44658096112644" y1="330.2001628697552" x2="135.85202938475666" y2="329.6640794099959" stroke="#1f77b4" stroke-width="1.4211023622047245"/><line x1="135.85202938475666" y1="329.6640794099959" x2="141.2574778083869" y2="329.11133417893393" stroke="#1f77b4" stroke-width="1.4211023622047245"/><line x1="141.2574778083869" y1="329.11133417893393" x2="146.66292623201713" y2="328.5414093194747" stroke="#1f77b4" stroke-width="1.4211023622047245"/><line x1="146.66292623201713" y1="328.5414093194747" x2="152.06837465564735" y2="327.95377087923794" stroke="#1f77b4" stroke-width="1.4211023622047245"/><line x1="152.06837465564735" y1="327.95377087923794" x2="157.47382307927765" y2="327.3478683103069" stroke="#1f77b4" stroke-width="1.4211023622047245"/><line x1="157.47382307927765" y1="327.3478683103069" x2="162.8792715029079" y2="326.7231339534306" stroke="#1f77b4" stroke-width="1.4211023622047245"/><line x1="162.8792715029079" y1="326.7231339534306" x2="168.28471992653812" y2="326.0789825061933" stroke="#1f77b4" stroke-width="1.4211023622047245"/><line x1="168.28471992653812" y1="326.0789825061933" x2="173.69016835016834" y2="325.4148104746557" stroke="#1f77b4" stroke-width="1.4211023622047245"/><line x1="173.69016835016834" y1="325.4148104746557" x2="179.0956167737986" y2="324.729995607952" stroke="#1f77b4" stroke-width="1.4211023622047245"/><line x1="179.0956167737986" y1="324.729995607952" x2="184.50106519742886" y2="324.02389631531435" stroke="#1f77b4" stroke-width="1.4211023622047245"/><line x1="184.50106519742886" y1="324.02389631531435" x2="189.90651362105908" y2="323.29585106497797" stroke="#1f77b4" stroke-width="1.4211023622047245"/><line x1="189.90651362105908" y1="323.29585106497797" x2="195.3119620446893" y2="322.5451777644039" stroke="#1f77b4" stroke-width="1.4211023622047245"/><line x1="195.3119620446893" y1="322.5451777644039" x2="200.71741046831954" y2="321.77117312123846" stroke="#1f77b4" stroke-width="1.4211023622047245"/><line x1="200.71741046831954" y1="321.77117312123846" x2="206.12285889194985" y2="320.97311198441184" stroke="#1f77b4" stroke-width="1.4211023622047245"/><line x1="206.12285889194985" y1="320.97311198441184" x2="211.52830731558007" y2="320.15024666475654" stroke="#1f77b4" stroke-width="1.4211023622047245"/><line x1="211.52830731558007" y1="320.15024666475654" x2="216.93375573921028" y2="319.301806234511" stroke="#1f77b4" stroke-width="1.4211023622047245"/><line x1="216.93375573921028" y1="319.301806234511" x2="222.33920416284053" y2="318.4269958050511" stroke="#1f77b4" stroke-width="1.4211023622047245"/><line x1="222.33920416284053" y1="318.4269958050511" x2="227.74465258647075" y2="317.5249957821735" stroke="#1f77b4" stroke-width="1.4211023622047245"/><line x1="227.74465258647075" y1="317.5249957821735" x2="233.15010101010105" y2="316.5949610982324" stroke="#1f77b4" stroke-width="1.4211023622047245"/><line x1="233.15010101010105" y1="316.5949610982324" x2="238.55554943373127" y2="315.63602042041055" stroke="#1f77b4" stroke-width="1.4211023622047245"/><line x1="238.55554943373127" y1="315.63602042041055" x2="243.96099785736152" y2="314.6472753343836" stroke="#1f77b4" stroke-width="1.4211023622047245"/><line x1="243.96099785736152" y1="314.6472753343836" x2="249.36644628099174" y2="313.62779950261177" stroke="#1f77b4" stroke-width="1.4211023622047245"/><line x1="249.36644628099174" y1="313.62779950261177" x2="254.771894704622" y2="312.57663779647027" stroke="#1f77b4" stroke-width="1.4211023622047245"/><line x1="254.771894704622" y1="312.57663779647027" x2="260.17734312825223" y2="311.4928054014072" stroke="#1f77b4" stroke-width="1.4211023622047245"/><line x1="260.17734312825223" y1="311.4928054014072" x2="265.58279155188245" y2="310.375286894288" stroke="#1f77b4" stroke-width="1.4211023622047245"/><line x1="265.58279155188245" y1="310.375286894288" x2="270.98823997551267" y2="309.22303529206374" stroke="#1f77b4" stroke-width="1.4211023622047245"/><line x1="270.98823997551267" y1="309.22303529206374" x2="276.3936883991429" y2="308.03497107087156" stroke="#1f77b4" stroke-width="1.4211023622047245"/><line x1="276.3936883991429" y1="308.03497107087156" x2="281.7991368227732" y2="306.80998115464826" stroke="#1f77b4" stroke-width="1.4211023622047245"/><line x1="281.7991368227732" y1="306.80998115464826" x2="287.2045852464034" y2="305.546917872309" stroke="#1f77b4" stroke-width="1.4211023622047245"/><line x1="287.2045852464034" y1="305.546917872309" x2="292.61003367003366" y2="304.24459788251494" stroke="#1f77b4" stroke-width="1.4211023622047245"/><line x1="292.61003367003366" y1="304.24459788251494" x2="298.0154820936639" y2="302.9018010650223" stroke="#1f77b4" stroke-width="1.4211023622047245"/><line x1="298.0154820936639" y1="302.9018010650223" x2="303.42093051729415" y2="301.51726937757303" stroke="#1f77b4" stroke-width="1.4211023622047245"/><line x1="303.42093051729415" y1="301.51726937757303" x2="308.8263789409244" y2="300.08970567725794" stroke="#1f77b4" stroke-width="1.4211023622047245"/><line x1="308.8263789409244" y1="300.08970567725794" x2="314.2318273645547" y2="298.61777250524665" stroke="#1f77b4" stroke-width="1.4211023622047245"/><line x1="314.2318273645547" y1="298.61777250524665" x2="319.63727578818487" y2="297.10009083374655" stroke="#1f77b4" stroke-width="1.4211023622047245"/><line x1="319.63727578818487" y1="297.10009083374655" x2="325.0427242118152" y2="295.5352387740161" stroke="#1f77b4" stroke-width="1.4211023622047245"/><line x1="325.0427242118152" y1="295.5352387740161" x2="330.44817263544536" y2="293.92175024422295" stroke="#1f77b4" stroke-width="1.4211023622047245"/><line x1="330.44817263544536" y1="293.92175024422295" x2="335.8536210590755" y2="292.2581135958983" stroke="#1f77b4" stroke-width="1.4211023622047245"/><line x1="335.8536210590755" y1="292.2581135958983" x2="341.2590694827058" y2="290.5427701977002" stroke="#1f77b4" stroke-width="1.4211023622047245"/><line x1="341.2590694827058" y1="290.5427701977002" x2="346.6645179063361" y2="288.7741129751601" stroke="#1f77b4" stroke-width="1.4211023622047245"/><line x1="346.6645179063361" y1="288.7741129751601" x2="352.06996632996635" y2="286.9504849050436" stroke="#1f77b4" stroke-width="1.4211023622047245"/><line x1="352.06996632996635" y1="286.9504849050436" x2="357.4754147535966" y2="285.0701774629148" stroke="#1f77b4" stroke-width="1.4211023622047245"/><line x1="357.4754147535966" y1="285.0701774629148" x2="362.88086317722684" y2="283.13142902245073" stroke="#1f77b4" stroke-width="1.4211023622047245"/><line x1="362.88086317722684" y1="283.13142902245073" x2="368.2863116008571" y2="281.13242320500507" stroke="#1f77b4" stroke-width="1.4211023622047245"/><line x1="368.2863116008571" y1="281.13242320500507" x2="373.6917600244874" y2="279.0712871778755" stroke="#1f77b4" stroke-width="1.4211023622047245"/><line x1="373.6917600244874" y1="279.0712871778755" x2="379.0972084481175" y2="276.94608989968066" stroke="#1f77b4" stroke-width="1.4211023622047245"/><line x1="379.0972084481175" y1="276.94608989968066" x2="384.5026568717477" y2="274.7548403112016" stroke="#1f77b4" stroke-width="1.4211023622047245"/><line x1="384.5026568717477" y1="274.7548403112016" x2="389.908105295378" y2="272.49548546999455" stroke="#1f77b4" stroke-width="1.4211023622047245"/><line x1="389.908105295378" y1="272.49548546999455" x2="395.31355371900827" y2="270.1659086270257" stroke="#1f77b4" stroke-width="1.4211023622047245"/><line x1="395.31355371900827" y1="270.1659086270257" x2="400.7190021426386" y2="267.7639272435273" stroke="#1f77b4" stroke-width="1.4211023622047245"/><line x1="400.7190021426386" y1="267.7639272435273" x2="406.1244505662688" y2="265.2872909462156" stroke="#1f77b4" stroke-width="1.4211023622047245"/><line x1="406.1244505662688" y1="265.2872909462156" x2="411.5298989898991" y2="262.7336794189573" stroke="#1f77b4" stroke-width="1.4211023622047245"/><line x1="411.5298989898991" y1="262.7336794189573" x2="416.9353474135292" y2="260.1007002289063" stroke="#1f77b4" stroke-width="1.4211023622047245"/><line x1="416.9353474135292" y1="260.1007002289063" x2="422.3407958371595" y2="257.3858865850766" stroke="#1f77b4" stroke-width="1.4211023622047245"/><line x1="422.3407958371595" y1="257.3858865850766" x2="427.7462442607897" y2="254.58669502725002" stroke="#1f77b4" stroke-width="1.4211023622047245"/><line x1="427.7462442607897" y1="254.58669502725002" x2="433.15169268441997" y2="251.70050304305383" stroke="#1f77b4" stroke-width="1.4211023622047245"/><line x1="433.15169268441997" y1="251.70050304305383" x2="438.55714110805025" y2="248.72460661097614" stroke="#1f77b4" stroke-width="1.4211023622047245"/><line x1="438.55714110805025" y1="248.72460661097614" x2="443.96258953168046" y2="245.6562176670164" stroke="#1f77b4" stroke-width="1.4211023622047245"/><line x1="443.96258953168046" y1="245.6562176670164" x2="449.36803795531074" y2="242.4924614925983" stroke="#1f77b4" stroke-width="1.4211023622047245"/><line x1="449.36803795531074" y1="242.4924614925983" x2="454.7734863789411" y2="239.23037402129768" stroke="#1f77b4" stroke-width="1.4211023622047245"/><line x1="454.7734863789411" y1="239.23037402129768" x2="460.1789348025712" y2="235.86689906186166" stroke="#1f77b4" stroke-width="1.4211023622047245"/><line x1="460.1789348025712" y1="235.86689906186166" x2="465.58438322620145" y2="232.39888543491784" stroke="#1f77b4" stroke-width="1.4211023622047245"/><line x1="465.58438322620145" y1="232.39888543491784" x2="470.9898316498317" y2="228.82308402069089" stroke="#1f77b4" stroke-width="1.4211023622047245"/><line x1="470.9898316498317" y1="228.82308402069089" x2="476.39528007346195" y2="225.13614471496066" stroke="#1f77b4" stroke-width="1.4211023622047245"/><line x1="476.39528007346195" y1="225.13614471496066" x2="481.8007284970922" y2="221.33461329040944" stroke="#1f77b4" stroke-width="1.4211023622047245"/><line x1="481.8007284970922" y1="221.33461329040944" x2="487.20617692072244" y2="217.41492816041833" stroke="#1f77b4" stroke-width="1.4211023622047245"/><line x1="487.20617692072244" y1="217.41492816041833" x2="492.6116253443527" y2="213.3734170422806" stroke="#1f77b4" stroke-width="1.4211023622047245"/><line x1="492.6116253443527" y1="213.3734170422806" x2="498.0170737679828" y2="209.20629351670613" stroke="#1f77b4" stroke-width="1.4211023622047245"/><line x1="498.0170737679828" y1="209.20629351670613" x2="503.4225221916131" y2="204.90965348039268" stroke="#1f77b4" stroke-width="1.4211023622047245"/><line x1="503.4225221916131" y1="204.90965348039268" x2="508.8279706152433" y2="200.47947148834183" stroke="#1f77b4" stroke-width="1.4211023622047245"/><line x1="508.8279706152433" y1="200.47947148834183" x2="514.2334190388735" y2="195.9115969824915" stroke="#1f77b4" stroke-width="1.4211023622047245"/><line x1="514.2334190388735" y1="195.9115969824915" x2="519.6388674625039" y2="191.20175040313302" stroke="#1f77b4" stroke-width="1.4211023622047245"/><line x1="519.6388674625039" y1="191.20175040313302" x2="525.0443158861341" y2="186.34551917946743" stroke="#1f77b4" stroke-width="1.4211023622047245"/><line x1="525.0443158861341" y1="186.34551917946743" x2="530.4497643097643" y2="181.33835359554814" stroke="#1f77b4" stroke-width="1.4211023622047245"/><line x1="530.4497643097643" y1="181.33835359554814" x2="535.8552127333946" y2="176.17556252773298" stroke="#1f77b4" stroke-width="1.4211023622047245"/><line x1="535.8552127333946" y1="176.17556252773298" x2="541.2606611570247" y2="170.85230904965488" stroke="#1f77b4" stroke-width="1.4211023622047245"/><line x1="541.2606611570247" y1="170.85230904965488" x2="546.666109580655" y2="165.36360590059178" stroke="#1f77b4" stroke-width="1.4211023622047245"/><line x1="546.666109580655" y1="165.36360590059178" x2="552.0715580042852" y2="159.7043108129921" stroke="#1f77b4" stroke-width="1.4211023622047245"/><line x1="552.0715580042852" y1="159.7043108129921" x2="557.4770064279155" y2="153.8691216947766" stroke="#1f77b4" stroke-width="1.4211023622047245"/><line x1="557.4770064279155" y1="153.8691216947766" x2="562.8824548515458" y2="147.85257166190257" stroke="#1f77b4" stroke-width="1.4211023622047245"/><line x1="562.8824548515458" y1="147.85257166190257" x2="568.2879032751761" y2="141.6490239165388" stroke="#1f77b4" stroke-width="1.4211023622047245"/><line x1="568.2879032751761" y1="141.6490239165388" x2="573.6933516988063" y2="135.25266646605087" stroke="#1f77b4" stroke-width="1.4211023622047245"/><line x1="573.6933516988063" y1="135.25266646605087" x2="579.0988001224366" y2="128.65750667784917" stroke="#1f77b4" stroke-width="1.4211023622047245"/><line x1="579.0988001224366" y1="128.65750667784917" x2="584.5042485460667" y2="121.85736566499902" stroke="#1f77b4" stroke-width="1.4211023622047245"/><line x1="584.5042485460667" y1="121.85736566499902" x2="589.9096969696969" y2="114.84587249733222" stroke="#1f77b4" stroke-width="1.4211023622047245"/></svg>