<svg xmlns="http://www.w3.org/2000/svg" width="624" height="384" viewBox="0 0 624 384"><rect x="0.0" y="0.0" width="624.0" height="384.0" fill="#ffffff" fill-opacity="1.0" stroke="none"/><line x1="111.73858585858586" y1="7.333333333333333" x2="111.73858585858586" y2="358.3333333333333" stroke="#dddddd" stroke-width="0.6666666666666666"/><line x1="198.79515151515153" y1="7.333333333333333" x2="198.79515151515153" y2="358.3333333333333" stroke="#dddddd" stroke-width="0.6666666666666666"/><line x1="285.85171717171715" y1="7.333333333333333" x2="285.85171717171715" y2="358.3333333333333" stroke="#dddddd" stroke-width="0.6666666666666666"/><line x1="372.90828282828284" y1="7.333333333333333" x2="372.90828282828284" y2="358.3333333333333" stroke="#dddddd" stroke-width="0.6666666666666666"/><line x1="459.9648484848485" y1="7.333333333333333" x2="459.9648484848485" y2="358.3333333333333" stroke="#dddddd" stroke-width="0.6666666666666666"/><line x1="547.0214141414141" y1="7.333333333333333" x2="547.0214141414141" y2="358.3333333333333" stroke="#dddddd" stroke-width="0.6666666666666666"/><line x1="68.21030303030304" y1="7.333333333333333" x2="68.21030303030304" y2="358.3333333333333" stroke="#dddddd" stroke-width="1.3333333333333333"/><line x1="155.2668686868687" y1="7.333333333333333" x2="155.2668686868687" y2="358.3333333333333" stroke="#dddddd" stroke-width="1.3333333333333333"/><line x1="242.32343434343431" y1="7.333333333333333" x2="242.32343434343431" y2="358.3333333333333" stroke="#dddddd" stroke-width="1.3333333333333333"/><line x1="329.38" y1="7.333333333333333" x2="329.38" y2="358.3333333333333" stroke="#dddddd" stroke-width="1.3333333333333333"/><line x1="416.4365656565656" y1="7.333333333333333" x2="416.4365656565656" y2="358.3333333333333" stroke="#dddddd" stroke-width="1.3333333333333333"/><line x1="503.4931313131313" y1="7.333333333333333" x2="503.4931313131313" y2="358.3333333333333" stroke="#dddddd" stroke-width="1.3333333333333333"/><line x1="590.5496969696969" y1="7.333333333333333" x2="590.5496969696969" y2="358.3333333333333" stroke="#dddddd" stroke-width="1.3333333333333333"/><line x1="42.093333333333334" y1="289.46795614985126" x2="616.6666666666666" y2="289.46795614985126" stroke="#dddddd" stroke-width="0.6666666666666666"/><line x1="42.093333333333334" y1="219.63382596090696" x2="616.6666666666666" y2="219.63382596090696" stroke="#dddddd" stroke-width="0.6666666666666666"/><line x1="42.093333333333334" y1="149.79969577196258" x2="616.6666666666666" y2="149.79969577196258" stroke="#dddddd" stroke-width="0.6666666666666666"/><line x1="42.093333333333334" y1="79.96556558301828" x2="616.6666666666666" y2="79.96556558301828" stroke="#dddddd" stroke-width="0.6666666666666666"/><line x1="42.093333333333334" y1="10.131435394073984" x2="616.6666666666666" y2="10.131435394073984" stroke="#dddddd" stroke-width="0.6666666666666666"/><line x1="42.093333333333334" y1="324.3850212443234" x2="616.6666666666666" y2="324.3850212443234" stroke="#dddddd" stroke-width="1.3333333333333333"/><line x1="42.093333333333334" y1="254.5508910553791" x2="616.6666666666666" y2="254.5508910553791" stroke="#dddddd" stroke-width="1.3333333333333333"/><line x1="42.093333333333334" y1="184.71676086643475" x2="616.6666666666666" y2="184.71676086643475" stroke="#dddddd" stroke-width="1.3333333333333333"/><line x1="42.093333333333334" y1="114.88263067749043" x2="616.6666666666666" y2="114.88263067749043" stroke="#dddddd" stroke-width="1.3333333333333333"/><line x1="42.093333333333334" y1="45.0485004885461" x2="616.6666666666666" y2="45.0485004885461" stroke="#dddddd" stroke-width="1.3333333333333333"/><rect x="42.093333333333334" y="7.333333333333333" width="574.5733333333333" height="351.0" fill="#ffffff" fill-opacity="0.0" stroke="#444444" stroke-width="1.3333333333333333"/><line x1="68.21030303030304" y1="358.3333333333333" x2="68.21030303030304" y2="362.0" stroke="#444444" stroke-width="1.3333333333333333"/><text x="68.21030303030304" y="374.32" fill="#333333" font-size="11.733333333333334" font-family="sans-serif" text-anchor="middle">0</text><line x1="155.2668686868687" y1="358.3333333333333" x2="155.2668686868687" y2="362.0" stroke="#444444" stroke-width="1.3333333333333333"/><text x="155.2668686868687" y="374.32" fill="#333333" font-size="11.733333333333334" font-family="sans-serif" text-anchor="middle">1</text><line x1="242.32343434343431" y1="358.3333333333333" x2="242.32343434343431" y2="362.0" stroke="#444444" stroke-width="1.3333333333333333"/><text x="242.32343434343431" y="374.32" fill="#333333" font-size="11.733333333333334" font-family="sans-serif" text-anchor="middle">2</text><line x1="329.38" y1="358.3333333333333" x2="329.38" y2="362.0" stroke="#444444" stroke-width="1.3333333333333333"/><text x="329.38" y="374.32" fill="#333333" font-size="11.733333333333334" font-family="sans-serif" text-anchor="middle">3</text><line x1="416.4365656565656" y1="358.3333333333333" x2="416.4365656565656" y2="362.0" stroke="#444444" stroke-width="1.3333333333333333"/><text x="416.4365656565656" y="374.32" fill="#333333" font-size="11.733333333333334" font-family="sans-serif" text-anchor="middle">4</text><line x1="503.4931313131313" y1="358.3333333333333" x2="503.4931313131313" y2="362.0" stroke="#444444" stroke-width="1.3333333333333333"/><text x="503.4931313131313" y="374.32" fill="#333333" font-size="11.733333333333334" font-family="sans-serif" text-anchor="middle">5</text><line x1="590.5496969696969" y1="358.3333333333333" x2="590.5496969696969" y2="362.0" stroke="#444444" stroke-width="1.3333333333333333"/><text x="590.5496969696969" y="374.32" fill="#333333" font-size="11.733333333333334" font-family="sans-serif" text-anchor="middle">6</text><line x1="42.093333333333334" y1="324.3850212443234" x2="38.42666666666666" y2="324.3850212443234" stroke="#444444" stroke-width="1.3333333333333333"/><text x="35.49333333333333" y="328.4916879109901" fill="#333333" font-size="11.733333333333334" font-family="sans-serif" text-anchor="end">-1.0</text><line x1="42.093333333333334" y1="254.5508910553791" x2="38.42666666666666" y2="254.5508910553791" stroke="#444444" stroke-width="1.3333333333333333"/><text x="35.49333333333333" y="258.6575577220458" fill="#333333" font-size="11.733333333333334" font-family="sans-serif" text-anchor="end">-0.5</text><line x1="42.093333333333334" y1="184.71676086643475" x2="38.42666666666666" y2="184.71676086643475" stroke="#444444" stroke-width="1.3333333333333333"/><text x="35.49333333333333" y="188.82342753310144" fill="#333333" font-size="11.733333333333334" font-family="sans-serif" text-anchor="end">0.0</text><line x1="42.093333333333334" y1="114.88263067749043" x2="38.42666666666666" y2="114.88263067749043" stroke="#444444" stroke-width="1.3333333333333333"/><text x="35.49333333333333" y="118.9892973441571" fill="#333333" font-size="11.733333333333334" font-family="sans-serif" text-anchor="end">0.5</text><line x1="42.093333333333334" y1="45.0485004885461" x2="38.42666666666666" y2="45.0485004885461" stroke="#444444" stroke-width="1.3333333333333333"/><text x="35.49333333333333" y="49.15516715521276" fill="#333333" font-size="11.733333333333334" font-family="sans-serif" text-anchor="end">1.0</text><circle cx="68.21030303030304" cy="160.49263167101776" r="3.1181102362204727" fill="#1f77b4" fill-opacity="0.85" stroke="none"><title>(0, 0.173440473375)</title></circle><circle cx="111.73858585858586" cy="129.99418589957975" r="3.1181102362204727" fill="#1f77b4" fill-opacity="0.85" stroke="none"><title>(0.5, 0.391803941846)</title></circle><circle cx="155.2668686868687" cy="74.21455803993884" r="3.1181102362204727" fill="#1f77b4" fill-opacity="0.85" stroke="none"><title>(1, 0.791176195132)</title></circle><circle cx="198.79515151515153" cy="23.287878787878828" r="3.1181102362204727" fill="#1f77b4" fill-opacity="0.85" stroke="none"><title>(1.5, 1.15580219616)</title></circle><circle cx="242.32343434343431" cy="81.76684983262676" r="3.1181102362204727" fill="#1f77b4" fill-opacity="0.85" stroke="none"><title>(2, 0.737103123897)</title></circle><circle cx="285.85171717171715" cy="89.4390805268296" r="3.1181102362204727" fill="#1f77b4" fill-opacity="0.85" stroke="none"><title>(2.5, 0.682171311376)</title></circle><circle cx="329.38" cy="157.38629239264975" r="3.1181102362204727" fill="#1f77b4" fill-opacity="0.85" stroke="none"><title>(3, 0.195681312274)</title></circle><circle cx="372.90828282828284" cy="256.1101864643767" r="3.1181102362204727" fill="#1f77b4" fill-opacity="0.85" stroke="none"><title>(3.5, -0.511164278876)</title></circle><circle cx="416.4365656565656" cy="266.5567852835489" r="3.1181102362204727" fill="#1f77b4" fill-opacity="0.85" stroke="none"><title>(4, -0.585960075651)</title></circle><circle cx="459.9648484848485" cy="332.3817933038473" r="3.1181102362204727" fill="#1f77b4" fill-opacity="0.85" stroke="none"><title>(4.5, -1.057255471199)</title></circle><circle cx="503.4931313131313" cy="326.8597469142086" r="3.1181102362204727" fill="#1f77b4" fill-opacity="0.85" stroke="none"><title>(5, -1.017718597362)</title></circle><circle cx="547.0214141414141" cy="260.5823102998739" r="3.1181102362204727" fill="#1f77b4" fill-opacity="0.85" stroke="none"><title>(5.5, -0.543183893235)</title></circle><circle cx="590.5496969696969" cy="247.40003698005853" r="3.1181102362204727" fill="#1f77b4" fill-opacity="0.85" stroke="none"><title>(6, -0.448801151701)</title></circle><path d="M 68.21030303030304 197.17025290957068 L 73.48645852464034 189.97303895989694 L 78.76261401897766 182.93523873735546 L 84.03876951331497 176.07509516067321 L 89.31492500765228 169.40333226447558 L 94.59108050198958 162.92277049138045 L 99.8672359963269 156.62918939465433 L 105.14339149066423 150.51339029726503 L 110.41954698500152 144.5640276293692 L 115.69570247933885 138.77056937413377 L 120.97185797367615 133.12580292912781 L 126.24801346801348 127.62754538895679 L 131.52416896235076 122.27949198838806 L 136.8003244566881 117.09132871929485 L 142.0764799510254 112.0783154266934 L 147.35263544536272 107.2605427058742 L 152.62879093970002 102.6620229067305 L 157.90494643403736 98.30972473821899 L 163.18110192837463 94.23261844808246 L 168.45725742271196 90.46076884228319 L 173.7334129170493 87.02449525204463 L 179.0095684113866 83.95360783510189 L 184.2857239057239 81.27672520433464 L 189.56187940006126 79.02067684647223 L 194.83803489439856 77.20999337247852 L 200.11419038873584 75.86648718614208 L 205.39034588307314 75.00892502538704 L 210.66650137741047 74.6527917985915 L 215.9426568717478 74.81014232997332 L 221.2188123660851 75.4895344253024 L 226.49496786042238 76.69603358849872 L 231.77112335475968 78.43127727349159 L 237.047278849097 80.69358512523877 L 242.32343434343431 83.47810141908712 L 247.59958983777165 86.77695679261345 L 252.87574533210892 90.57943814189744 L 258.15190082644625 94.8721578893956 L 263.4280563207835 99.6392163761657 L 268.7042118151209 104.86235359642008 L 273.98036730945825 110.52108867831873 L 279.2565228037956 116.59284731932738 L 284.53267829813285 123.05307878446024 L 289.8088337924702 129.87536510037333 L 295.08498928680746 137.03152578037907 L 300.3611447811448 144.49172184912953 L 305.63730027548206 152.22456314246588 L 310.9134557698194 160.19722286103945 L 316.1896112641567 168.37556316277227 L 321.46576675849406 176.72427518664153 L 326.74192225283133 185.20703630629467 L 332.0180777471686 193.78668662372786 L 337.29423324150594 202.42542575421658 L 342.5703887358432 211.08502986622585 L 347.8465442301806 219.72708778315905 L 353.12269972451793 228.3132537961265 L 358.39885521885526 236.80551374736902 L 363.6750107131926 245.16645998236322 L 368.9511662075298 253.35956997874456 L 374.2273217018672 261.34948286738995 L 379.50347719620447 269.10226767465764 L 384.7796326905418 276.5856769352283 L 390.0557881848791 283.76937935260344 L 395.33194367921635 290.6251654291332 L 400.60809917355374 297.1271204757704 L 405.884254667891 303.2517601879284 L 411.16041016222835 308.9781250947457 L 416.4365656565656 314.28783170985747 L 421.7127211509029 319.1650801634678 L 426.9888766452403 323.59662045658115 L 432.26503213957756 327.57168214730945 L 437.5411876339149 331.081875057321 L 442.81734312825216 334.1210711824176 L 448.09349862258955 336.68528005652587 L 453.3696541169268 338.77253101540333 L 458.6458096112641 340.38277589539445 L 463.9219651056015 341.517824623917 L 469.19812059993876 342.18132407772674 L 474.47427609427615 342.3787878787878 L 479.7504315886134 342.1176819726826 L 485.02658708295064 341.40756840199253 L 490.30274257728803 340.2603080221995 L 495.5788980716253 338.6903221286186 L 500.8550535659627 336.7149128400848 L 506.1312090602999 334.3546419697867 L 511.4073645546373 331.6337668565105 L 516.6835200489745 328.58072747192534 L 521.9596755433118 325.22866959161956 L 527.2358310376492 321.6159708079971 L 532.5119865319864 317.7867065496726 L 537.7881420263238 313.7909507991364 L 543.0642975206611 309.6847553785297 L 548.3404530149985 305.5296085943278 L 553.6166085093358 301.39117093137367 L 558.892764003673 297.33716560901775 L 564.1689194980104 293.4344938663454 L 569.4450749923477 289.74591931021985 L 574.721230486685 286.326908048648 L 579.9973859810223 283.2232668616545 L 585.2735414753597 280.4700129896308 L 590.5496969696969 278.0915248888814 L 590.5496969696969 207.6204249341526 L 585.2735414753597 214.4622947850951 L 579.9973859810223 221.03931779559645 L 574.721230486685 227.33134688313072 L 569.4450749923477 233.3262412456607 L 564.1689194980104 239.02027706018808 L 558.892764003673 244.41730772655242 L 553.6166085093358 249.52672082319978 L 548.3404530149985 254.3606227945524 L 543.0642975206611 258.930890714711 L 537.7881420263238 263.2466746312169 L 532.5119865319864 267.31269133336457 L 527.2358310376492 271.128375697506 L 521.9596755433118 274.6877635309202 L 516.6835200489745 277.9798995881163 L 511.4073645546373 280.9895674613441 L 506.1312090602999 283.6981811072961 L 500.8550535659627 286.0847286284526 L 495.5788980716253 288.1267014870289 L 490.30274257728803 289.8009720795401 L 485.02658708295064 291.08460079311726 L 479.7504315886134 291.9555634191955 L 474.47427609427615 292.3933942229888 L 469.19812059993876 292.3797415228565 L 463.9219651056015 291.8988330754723 L 458.6458096112641 290.9378490338696 L 453.3696541169268 289.4872013887803 L 448.09349862258955 287.5407208424927 L 442.81734312825216 285.0957548746079 L 437.5411876339149 282.1531839593452 L 432.26503213957756 278.7173659679886 L 426.9888766452403 274.7960212256703 L 421.7127211509029 270.4000721080961 L 416.4365656565656 265.543451291505 L 411.16041016222835 260.24289186468945 L 405.884254667891 254.51771071257872 L 400.60809917355374 248.38959422282005 L 395.33194367921635 241.88239279742544 L 390.0557881848791 235.02192816222205 L 384.7796326905418 227.8358152569536 L 379.50347719620447 220.35329866109913 L 374.2273217018672 212.60510208814418 L 368.9511662075298 204.62328843534465 L 363.6750107131926 196.44112715454696 L 358.39885521885526 188.09296525831746 L 353.12269972451793 179.6140980532007 L 347.8465442301806 171.0406356750828 L 342.5703887358432 162.40936168332786 L 337.29423324150594 153.7575803529033 L 332.0180777471686 145.1229498892435 L 326.74192225283133 136.54329957181028 L 321.46576675849406 128.05642978532796 L 316.1896112641567 119.69989497987459 L 310.9134557698194 111.51077075296321 L 305.63730027548206 103.52540739954016 L 300.3611447811448 95.77917336007798 L 295.08498928680746 88.30619295256315 L 289.8088337924702 81.13908355697306 L 284.53267829813285 74.3086980052141 L 279.2565228037956 67.84387830576884 L 273.98036730945825 61.771227000043304 L 268.7042118151209 56.11490240603863 L 263.4280563207835 50.89644374445761 L 258.15190082644625 46.13463163644492 L 252.87574533210892 41.84538866654774 L 247.59958983777165 38.041723562557536 L 242.32343434343431 34.733721000734626 L 237.047278849097 31.928577069866414 L 231.77112335475968 29.630678042581128 L 226.49496786042238 27.841717409177853 L 221.2188123660851 26.560843327326626 L 215.9426568717478 25.78482602216392 L 210.66650137741047 25.508232584558336 L 205.39034588307314 25.72359539876436 L 200.11419038873584 26.421560324617076 L 194.83803489439856 27.591001824033885 L 189.56187940006126 29.21909429160208 L 184.2857239057239 31.291331548535897 L 179.0095684113866 33.79148928161468 L 173.7334129170493 36.701527643169506 L 168.45725742271196 40.00143289962364 L 163.18110192837463 43.66899780649294 L 157.90494643403736 47.67954052658698 L 152.62879093970002 52.00556204424038 L 147.35263544536272 56.616343310708274 L 142.0764799510254 61.47748754288364 L 136.8003244566881 66.5504226585955 L 131.52416896235076 71.79189687789665 L 126.24801346801348 77.15353017264847 L 120.97185797367615 82.58152676120847 L 115.69570247933885 88.01670471031505 L 110.41954698500152 93.39504182959338 L 105.14339149066423 98.64894018909129 L 99.8672359963269 103.70933151218904 L 94.59108050198958 108.50855368522278 L 89.31492500765228 112.9836541999164 L 84.03876951331497 117.0795339951558 L 78.76261401897766 120.75128967129731 L 73.48645852464034 123.96532075536113 L 68.21030303030304 126.6991529548419 Z" fill="#1f77b4" fill-opacity="0.2" stroke="none"/><line x1="68.21030303030304" y1="161.9347029322063" x2="73.48645852464034" y2="156.96917985762903" stroke="#1f77b4" stroke-width="1.4211023622047245"/><line x1="73.48645852464034" y1="156.96917985762903" x2="78.76261401897766" y2="151.84326420432637" stroke="#1f77b4" stroke-width="1.4211023622047245"/><line x1="78.76261401897766" y1="151.84326420432637" x2="84.03876951331497" y2="146.57731457791448" stroke="#1f77b4" stroke-width="1.4211023622047245"/><line x1="84.03876951331497" y1="146.57731457791448" x2="89.31492500765228" y2="141.19349323219598" stroke="#1f77b4" stroke-width="1.4211023622047245"/><line x1="89.31492500765228" y1="141.19349323219598" x2="94.59108050198958" y2="135.71566208830166" stroke="#1f77b4" stroke-width="1.4211023622047245"/><line x1="94.59108050198958" y1="135.71566208830166" x2="99.8672359963269" y2="130.16926045342169" stroke="#1f77b4" stroke-width="1.4211023622047245"/><line x1="99.8672359963269" y1="130.16926045342169" x2="105.14339149066423" y2="124.58116524317816" stroke="#1f77b4" stroke-width="1.4211023622047245"/><line x1="105.14339149066423" y1="124.58116524317816" x2="110.41954698500152" y2="118.97953472948134" stroke="#1f77b4" stroke-width="1.4211023622047245"/><line x1="110.41954698500152" y1="118.97953472948134" x2="115.69570247933885" y2="113.39363704222444" stroke="#1f77b4" stroke-width="1.4211023622047245"/><line x1="115.69570247933885" y1="113.39363704222444" x2="120.97185797367615" y2="107.85366484516817" stroke="#1f77b4" stroke-width="1.4211023622047245"/><line x1="120.97185797367615" y1="107.85366484516817" x2="126.24801346801348" y2="102.39053778080259" stroke="#1f77b4" stroke-width="1.4211023622047245"/><line x1="126.24801346801348" y1="102.39053778080259" x2="131.52416896235076" y2="97.03569443314234" stroke="#1f77b4" stroke-width="1.4211023622047245"/><line x1="131.52416896235076" y1="97.03569443314234" x2="136.8003244566881" y2="91.8208756889452" stroke="#1f77b4" stroke-width="1.4211023622047245"/><line x1="136.8003244566881" y1="91.8208756889452" x2="142.0764799510254" y2="86.77790148478849" stroke="#1f77b4" stroke-width="1.4211023622047245"/><line x1="142.0764799510254" y1="86.77790148478849" x2="147.35263544536272" y2="81.9384430082913" stroke="#1f77b4" stroke-width="1.4211023622047245"/><line x1="147.35263544536272" y1="81.9384430082913" x2="152.62879093970002" y2="77.33379247548547" stroke="#1f77b4" stroke-width="1.4211023622047245"/><line x1="152.62879093970002" y1="77.33379247548547" x2="157.90494643403736" y2="72.99463263240291" stroke="#1f77b4" stroke-width="1.4211023622047245"/><line x1="157.90494643403736" y1="72.99463263240291" x2="163.18110192837463" y2="68.9508081272877" stroke="#1f77b4" stroke-width="1.4211023622047245"/><line x1="163.18110192837463" y1="68.9508081272877" x2="168.45725742271196" y2="65.23110087095336" stroke="#1f77b4" stroke-width="1.4211023622047245"/><line x1="168.45725742271196" y1="65.23110087095336" x2="173.7334129170493" y2="61.86301144760712" stroke="#1f77b4" stroke-width="1.4211023622047245"/><line x1="173.7334129170493" y1="61.86301144760712" x2="179.0095684113866" y2="58.87254855835829" stroke="#1f77b4" stroke-width="1.4211023622047245"/><line x1="179.0095684113866" y1="58.87254855835829" x2="184.2857239057239" y2="56.284028376435266" stroke="#1f77b4" stroke-width="1.4211023622047245"/><line x1="184.2857239057239" y1="56.284028376435266" x2="189.56187940006126" y2="54.11988556903714" stroke="#1f77b4" stroke-width="1.4211023622047245"/><line x1="189.56187940006126" y1="54.11988556903714" x2="194.83803489439856" y2="52.40049759825622" stroke="#1f77b4" stroke-width="1.4211023622047245"/><line x1="194.83803489439856" y1="52.40049759825622" x2="200.11419038873584" y2="51.14402375537952" stroke="#1f77b4" stroke-width="1.4211023622047245"/><line x1="200.11419038873584" y1="51.14402375537952" x2="205.39034588307314" y2="50.36626021207568" stroke="#1f77b4" stroke-width="1.4211023622047245"/><line x1="205.39034588307314" y1="50.36626021207568" x2="210.66650137741047" y2="50.08051219157494" stroke="#1f77b4" stroke-width="1.4211023622047245"/><line x1="210.66650137741047" y1="50.08051219157494" x2="215.9426568717478" y2="50.297484176068636" stroke="#1f77b4" stroke-width="1.4211023622047245"/><line x1="215.9426568717478" y1="50.297484176068636" x2="221.2188123660851" y2="51.02518887631451" stroke="#1f77b4" stroke-width="1.4211023622047245"/><line x1="221.2188123660851" y1="51.02518887631451" x2="226.49496786042238" y2="52.268875498838305" stroke="#1f77b4" stroke-width="1.4211023622047245"/><line x1="226.49496786042238" y1="52.268875498838305" x2="231.77112335475968" y2="54.03097765803632" stroke="#1f77b4" stroke-width="1.4211023622047245"/><line x1="231.77112335475968" y1="54.03097765803632" x2="237.047278849097" y2="56.311081097552574" stroke="#1f77b4" stroke-width="1.4211023622047245"/><line x1="237.047278849097" y1="56.311081097552574" x2="242.32343434343431" y2="59.10591120991087" stroke="#1f77b4" stroke-width="1.4211023622047245"/><line x1="242.32343434343431" y1="59.10591120991087" x2="247.59958983777165" y2="62.40934017758548" stroke="#1f77b4" stroke-width="1.4211023622047245"/><line x1="247.59958983777165" y1="62.40934017758548" x2="252.87574533210892" y2="66.21241340422264" stroke="#1f77b4" stroke-width="1.4211023622047245"/><line x1="252.87574533210892" y1="66.21241340422264" x2="258.15190082644625" y2="70.50339476292022" stroke="#1f77b4" stroke-width="1.4211023622047245"/><line x1="258.15190082644625" y1="70.50339476292022" x2="263.4280563207835" y2="75.26783006031167" stroke="#1f77b4" stroke-width="1.4211023622047245"/><line x1="263.4280563207835" y1="75.26783006031167" x2="268.7042118151209" y2="80.48862800122936" stroke="#1f77b4" stroke-width="1.4211023622047245"/><line x1="268.7042118151209" y1="80.48862800122936" x2="273.98036730945825" y2="86.146157839181" stroke="#1f77b4" stroke-width="1.4211023622047245"/><line x1="273.98036730945825" y1="86.146157839181" x2="279.2565228037956" y2="92.2183628125481" stroke="#1f77b4" stroke-width="1.4211023622047245"/><line x1="279.2565228037956" y1="92.2183628125481" x2="284.53267829813285" y2="98.68088839483717" stroke="#1f77b4" stroke-width="1.4211023622047245"/><line x1="284.53267829813285" y1="98.68088839483717" x2="289.8088337924702" y2="105.50722432867322" stroke="#1f77b4" stroke-width="1.4211023622047245"/><line x1="289.8088337924702" y1="105.50722432867322" x2="295.08498928680746" y2="112.66885936647111" stroke="#1f77b4" stroke-width="1.4211023622047245"/><line x1="295.08498928680746" y1="112.66885936647111" x2="300.3611447811448" y2="120.13544760460373" stroke="#1f77b4" stroke-width="1.4211023622047245"/><line x1="300.3611447811448" y1="120.13544760460373" x2="305.63730027548206" y2="127.87498527100304" stroke="#1f77b4" stroke-width="1.4211023622047245"/><line x1="305.63730027548206" y1="127.87498527100304" x2="310.9134557698194" y2="135.85399680700132" stroke="#1f77b4" stroke-width="1.4211023622047245"/><line x1="310.9134557698194" y1="135.85399680700132" x2="316.1896112641567" y2="144.03772907132344" stroke="#1f77b4" stroke-width="1.4211023622047245"/><line x1="316.1896112641567" y1="144.03772907132344" x2="321.46576675849406" y2="152.39035248598475" stroke="#1f77b4" stroke-width="1.4211023622047245"/><line x1="321.46576675849406" y1="152.39035248598475" x2="326.74192225283133" y2="160.87516793905243" stroke="#1f77b4" stroke-width="1.4211023622047245"/><line x1="326.74192225283133" y1="160.87516793905243" x2="332.0180777471686" y2="169.45481825648565" stroke="#1f77b4" stroke-width="1.4211023622047245"/><line x1="332.0180777471686" y1="169.45481825648565" x2="337.29423324150594" y2="178.09150305355996" stroke="#1f77b4" stroke-width="1.4211023622047245"/><line x1="337.29423324150594" y1="178.09150305355996" x2="342.5703887358432" y2="186.74719577477686" stroke="#1f77b4" stroke-width="1.4211023622047245"/><line x1="342.5703887358432" y1="186.74719577477686" x2="347.8465442301806" y2="195.38386172912092" stroke="#1f77b4" stroke-width="1.4211023622047245"/><line x1="347.8465442301806" y1="195.38386172912092" x2="353.12269972451793" y2="203.9636759246636" stroke="#1f77b4" stroke-width="1.4211023622047245"/><line x1="353.12269972451793" y1="203.9636759246636" x2="358.39885521885526" y2="212.44923950284328" stroke="#1f77b4" stroke-width="1.4211023622047245"/><line x1="358.39885521885526" y1="212.44923950284328" x2="363.6750107131926" y2="220.80379356845506" stroke="#1f77b4" stroke-width="1.4211023622047245"/><line x1="363.6750107131926" y1="220.80379356845506" x2="368.9511662075298" y2="228.99142920704458" stroke="#1f77b4" stroke-width="1.4211023622047245"/><line x1="368.9511662075298" y1="228.99142920704458" x2="374.2273217018672" y2="236.97729247776707" stroke="#1f77b4" stroke-width="1.4211023622047245"/><line x1="374.2273217018672" y1="236.97729247776707" x2="379.50347719620447" y2="244.72778316787836" stroke="#1f77b4" stroke-width="1.4211023622047245"/><line x1="379.50347719620447" y1="244.72778316787836" x2="384.7796326905418" y2="252.21074609609096" stroke="#1f77b4" stroke-width="1.4211023622047245"/><line x1="384.7796326905418" y1="252.21074609609096" x2="390.0557881848791" y2="259.39565375741273" stroke="#1f77b4" stroke-width="1.4211023622047245"/><line x1="390.0557881848791" y1="259.39565375741273" x2="395.33194367921635" y2="266.25377911327934" stroke="#1f77b4" stroke-width="1.4211023622047245"/><line x1="395.33194367921635" y1="266.25377911327934" x2="400.60809917355374" y2="272.75835734929524" stroke="#1f77b4" stroke-width="1.4211023622047245"/><line x1="400.60809917355374" y1="272.75835734929524" x2="405.884254667891" y2="278.8847354502536" stroke="#1f77b4" stroke-width="1.4211023622047245"/><line x1="405.884254667891" y1="278.8847354502536" x2="411.16041016222835" y2="284.61050847971757" stroke="#1f77b4" stroke-width="1.4211023622047245"/><line x1="411.16041016222835" y1="284.61050847971757" x2="416.4365656565656" y2="289.91564150068126" stroke="#1f77b4" stroke-width="1.4211023622047245"/><line x1="416.4365656565656" y1="289.91564150068126" x2="421.7127211509029" y2="294.78257613578194" stroke="#1f77b4" stroke-width="1.4211023622047245"/><line x1="421.7127211509029" y1="294.78257613578194" x2="426.9888766452403" y2="299.1963208411257" stroke="#1f77b4" stroke-width="1.4211023622047245"/><line x1="426.9888766452403" y1="299.1963208411257" x2="432.26503213957756" y2="303.14452405764905" stroke="#1f77b4" stroke-width="1.4211023622047245"/><line x1="432.26503213957756" y1="303.14452405764905" x2="437.5411876339149" y2="306.61752950833306" stroke="#1f77b4" stroke-width="1.4211023622047245"/><line x1="437.5411876339149" y1="306.61752950833306" x2="442.81734312825216" y2="309.6084130285127" stroke="#1f77b4" stroke-width="1.4211023622047245"/><line x1="442.81734312825216" y1="309.6084130285127" x2="448.09349862258955" y2="312.1130004495093" stroke="#1f77b4" stroke-width="1.4211023622047245"/><line x1="448.09349862258955" y1="312.1130004495093" x2="453.3696541169268" y2="314.1298662020918" stroke="#1f77b4" stroke-width="1.4211023622047245"/><line x1="453.3696541169268" y1="314.1298662020918" x2="458.6458096112641" y2="315.66031246463206" stroke="#1f77b4" stroke-width="1.4211023622047245"/><line x1="458.6458096112641" y1="315.66031246463206" x2="463.9219651056015" y2="316.7083288496946" stroke="#1f77b4" stroke-width="1.4211023622047245"/><line x1="463.9219651056015" y1="316.7083288496946" x2="469.19812059993876" y2="317.2805328002916" stroke="#1f77b4" stroke-width="1.4211023622047245"/><line x1="469.19812059993876" y1="317.2805328002916" x2="474.47427609427615" y2="317.3860910508883" stroke="#1f77b4" stroke-width="1.4211023622047245"/><line x1="474.47427609427615" y1="317.3860910508883" x2="479.7504315886134" y2="317.03662269593906" stroke="#1f77b4" stroke-width="1.4211023622047245"/><line x1="479.7504315886134" y1="317.03662269593906" x2="485.02658708295064" y2="316.2460845975549" stroke="#1f77b4" stroke-width="1.4211023622047245"/><line x1="485.02658708295064" y1="316.2460845975549" x2="490.30274257728803" y2="315.0306400508698" stroke="#1f77b4" stroke-width="1.4211023622047245"/><line x1="490.30274257728803" y1="315.0306400508698" x2="495.5788980716253" y2="313.4085118078238" stroke="#1f77b4" stroke-width="1.4211023622047245"/><line x1="495.5788980716253" y1="313.4085118078238" x2="500.8550535659627" y2="311.3998207342687" stroke="#1f77b4" stroke-width="1.4211023622047245"/><line x1="500.8550535659627" y1="311.3998207342687" x2="506.1312090602999" y2="309.02641153854137" stroke="#1f77b4" stroke-width="1.4211023622047245"/><line x1="506.1312090602999" y1="309.02641153854137" x2="511.4073645546373" y2="306.3116671589273" stroke="#1f77b4" stroke-width="1.4211023622047245"/><line x1="511.4073645546373" y1="306.3116671589273" x2="516.6835200489745" y2="303.28031353002086" stroke="#1f77b4" stroke-width="1.4211023622047245"/><line x1="516.6835200489745" y1="303.28031353002086" x2="521.9596755433118" y2="299.95821656126986" stroke="#1f77b4" stroke-width="1.4211023622047245"/><line x1="521.9596755433118" y1="299.95821656126986" x2="527.2358310376492" y2="296.3721732527515" stroke="#1f77b4" stroke-width="1.4211023622047245"/><line x1="527.2358310376492" y1="296.3721732527515" x2="532.5119865319864" y2="292.5496989415186" stroke="#1f77b4" stroke-width="1.4211023622047245"/><line x1="532.5119865319864" y1="292.5496989415186" x2="537.7881420263238" y2="288.51881271517664" stroke="#1f77b4" stroke-width="1.4211023622047245"/><line x1="537.7881420263238" y1="288.51881271517664" x2="543.0642975206611" y2="284.30782304662034" stroke="#1f77b4" stroke-width="1.4211023622047245"/><line x1="543.0642975206611" y1="284.30782304662034" x2="548.3404530149985" y2="279.9451156944401" stroke="#1f77b4" stroke-width="1.4211023622047245"/><line x1="548.3404530149985" y1="279.9451156944401" x2="553.6166085093358" y2="275.4589458772867" stroke="#1f77b4" stroke-width="1.4211023622047245"/><line x1="553.6166085093358" y1="275.4589458772867" x2="558.892764003673" y2="270.87723666778504" stroke="#1f77b4" stroke-width="1.4211023622047245"/><line x1="558.892764003673" y1="270.87723666778504" x2="564.1689194980104" y2="266.2273854632667" stroke="#1f77b4" stroke-width="1.4211023622047245"/><line x1="564.1689194980104" y1="266.2273854632667" x2="569.4450749923477" y2="261.5360802779403" stroke="#1f77b4" stroke-width="1.4211023622047245"/><line x1="569.4450749923477" y1="261.5360802779403" x2="574.721230486685" y2="256.82912746588937" stroke="#1f77b4" stroke-width="1.4211023622047245"/><line x1="574.721230486685" y1="256.82912746588937" x2="579.9973859810223" y2="252.13129232862548" stroke="#1f77b4" stroke-width="1.4211023622047245"/><line x1="579.9973859810223" y1="252.13129232862548" x2="585.2735414753597" y2="247.46615388736296" stroke="#1f77b4" stroke-width="1.4211023622047245"/><line x1="585.2735414753597" y1="247.46615388736296" x2="590.5496969696969" y2="242.85597491151702" stroke="#1f77b4" stroke-width="1.4211023622047245"/></svg>