<svg xmlns="http://www.w3.org/2000/svg" width="624" height="384" viewBox="0 0 624 384"><rect x="0.0" y="0.0" width="624.0" height="384.0" fill="#ffffff" fill-opacity="1.0" stroke="none"/><line x1="111.73858585858586" y1="7.333333333333333" x2="111.73858585858586" y2="358.3333333333333" stroke="#dddddd" stroke-width="0.6666666666666666"/><line x1="198.79515151515153" y1="7.333333333333333" x2="198.79515151515153" y2="358.3333333333333" stroke="#dddddd" stroke-width="0.6666666666666666"/><line x1="285.85171717171715" y1="7.333333333333333" x2="285.85171717171715" y2="358.3333333333333" stroke="#dddddd" stroke-width="0.6666666666666666"/><line x1="372.90828282828284" y1="7.333333333333333" x2="372.90828282828284" y2="358.3333333333333" stroke="#dddddd" stroke-width="0.6666666666666666"/><line x1="459.9648484848485" y1="7.333333333333333" x2="459.9648484848485" y2="358.3333333333333" stroke="#dddddd" stroke-width="0.6666666666666666"/><line x1="547.0214141414141" y1="7.333333333333333" x2="547.0214141414141" y2="358.3333333333333" stroke="#dddddd" stroke-width="0.6666666666666666"/><line x1="68.21030303030304" y1="7.333333333333333" x2="68.21030303030304" y2="358.3333333333333" stroke="#dddddd" stroke-width="1.3333333333333333"/><line x1="155.2668686868687" y1="7.333333333333333" x2="155.2668686868687" y2="358.3333333333333" stroke="#dddddd" stroke-width="1.3333333333333333"/><line x1="242.32343434343431" y1="7.333333333333333" x2="242.32343434343431" y2="358.3333333333333" stroke="#dddddd" stroke-width="1.3333333333333333"/><line x1="329.38" y1="7.333333333333333" x2="329.38" y2="358.3333333333333" stroke="#dddddd" stroke-width="1.3333333333333333"/><line x1="416.4365656565656" y1="7.333333333333333" x2="416.4365656565656" y2="358.3333333333333" stroke="#dddddd" stroke-width="1.3333333333333333"/><line x1="503.4931313131313" y1="7.333333333333333" x2="503.4931313131313" y2="358.3333333333333" stroke="#dddddd" stroke-width="1.3333333333333333"/><line x1="590.5496969696969" y1="7.333333333333333" x2="590.5496969696969" y2="358.3333333333333" stroke="#dddddd" stroke-width="1.3333333333333333"/><line x1="42.093333333333334" y1="298.0769926412747" x2="616.6666666666666" y2="298.0769926412747" stroke="#dddddd" stroke-width="0.6666666666666666"/><line x1="42.093333333333334" y1="225.984223935497" x2="616.6666666666666" y2="225.984223935497" stroke="#dddddd" stroke-width="0.6666666666666666"/><line x1="42.093333333333334" y1="153.89145522971933" x2="616.6666666666666" y2="153.89145522971933" stroke="#dddddd" stroke-width="0.6666666666666666"/><line x1="42.093333333333334" y1="81.7986865239416" x2="616.6666666666666" y2="81.7986865239416" stroke="#dddddd" stroke-width="0.6666666666666666"/><line x1="42.093333333333334" y1="9.705917818163849" x2="616.6666666666666" y2="9.705917818163849" stroke="#dddddd" stroke-width="0.6666666666666666"/><line x1="42.093333333333334" y1="334.1233769941636" x2="616.6666666666666" y2="334.1233769941636" stroke="#dddddd" stroke-width="1.3333333333333333"/><line x1="42.093333333333334" y1="262.03060828838585" x2="616.6666666666666" y2="262.03060828838585" stroke="#dddddd" stroke-width="1.3333333333333333"/><line x1="42.093333333333334" y1="189.93783958260815" x2="616.6666666666666" y2="189.93783958260815" stroke="#dddddd" stroke-width="1.3333333333333333"/><line x1="42.093333333333334" y1="117.84507087683046" x2="616.6666666666666" y2="117.84507087683046" stroke="#dddddd" stroke-width="1.3333333333333333"/><line x1="42.093333333333334" y1="45.752302171052705" x2="616.6666666666666" y2="45.752302171052705" stroke="#dddddd" stroke-width="1.3333333333333333"/><rect x="42.093333333333334" y="7.333333333333333" width="574.5733333333333" height="351.0" fill="#ffffff" fill-opacity="0.0" stroke="#444444" stroke-width="1.3333333333333333"/><line x1="68.21030303030304" y1="358.3333333333333" x2="68.21030303030304" y2="362.0" stroke="#444444" stroke-width="1.3333333333333333"/><text x="68.21030303030304" y="374.32" fill="#333333" font-size="11.733333333333334" font-family="sans-serif" text-anchor="middle">0</text><line x1="155.2668686868687" y1="358.3333333333333" x2="155.2668686868687" y2="362.0" stroke="#444444" stroke-width="1.3333333333333333"/><text x="155.2668686868687" y="374.32" fill="#333333" font-size="11.733333333333334" font-family="sans-serif" text-anchor="middle">1</text><line x1="242.32343434343431" y1="358.3333333333333" x2="242.32343434343431" y2="362.0" stroke="#444444" stroke-width="1.3333333333333333"/><text x="242.32343434343431" y="374.32" fill="#333333" font-size="11.733333333333334" font-family="sans-serif" text-anchor="middle">2</text><line x1="329.38" y1="358.3333333333333" x2="329.38" y2="362.0" stroke="#444444" stroke-width="1.3333333333333333"/><text x="329.38" y="374.32" fill="#333333" font-size="11.733333333333334" font-family="sans-serif" text-anchor="middle">3</text><line x1="416.4365656565656" y1="358.3333333333333" x2="416.4365656565656" y2="362.0" stroke="#444444" stroke-width="1.3333333333333333"/><text x="416.4365656565656" y="374.32" fill="#333333" font-size="11.733333333333334" font-family="sans-serif" text-anchor="middle">4</text><line x1="503.4931313131313" y1="358.3333333333333" x2="503.4931313131313" y2="362.0" stroke="#444444" stroke-width="1.3333333333333333"/><text x="503.4931313131313" y="374.32" fill="#333333" font-size="11.733333333333334" font-family="sans-serif" text-anchor="middle">5</text><line x1="590.5496969696969" y1="358.3333333333333" x2="590.5496969696969" y2="362.0" stroke="#444444" stroke-width="1.3333333333333333"/><text x="590.5496969696969" y="374.32" fill="#333333" font-size="11.733333333333334" font-family="sans-serif" text-anchor="middle">6</text><line x1="42.093333333333334" y1="334.1233769941636" x2="38.42666666666666" y2="334.1233769941636" stroke="#444444" stroke-width="1.3333333333333333"/><text x="35.49333333333333" y="338.2300436608303" fill="#333333" font-size="11.733333333333334" font-family="sans-serif" text-anchor="end">-1.0</text><line x1="42.093333333333334" y1="262.03060828838585" x2="38.42666666666666" y2="262.03060828838585" stroke="#444444" stroke-width="1.3333333333333333"/><text x="35.49333333333333" y="266.13727495505253" fill="#333333" font-size="11.733333333333334" font-family="sans-serif" text-anchor="end">-0.5</text><line x1="42.093333333333334" y1="189.93783958260815" x2="38.42666666666666" y2="189.93783958260815" stroke="#444444" stroke-width="1.3333333333333333"/><text x="35.49333333333333" y="194.04450624927483" fill="#333333" font-size="11.733333333333334" font-family="sans-serif" text-anchor="end">0.0</text><line x1="42.093333333333334" y1="117.84507087683046" x2="38.42666666666666" y2="117.84507087683046" stroke="#444444" stroke-width="1.3333333333333333"/><text x="35.49333333333333" y="121.95173754349713" fill="#333333" font-size="11.733333333333334" font-family="sans-serif" text-anchor="end">0.5</text><line x1="42.093333333333334" y1="45.752302171052705" x2="38.42666666666666" y2="45.752302171052705" stroke="#444444" stroke-width="1.3333333333333333"/><text x="35.49333333333333" y="49.858968837719374" fill="#333333" font-size="11.733333333333334" font-family="sans-serif" text-anchor="end">1.0</text><circle cx="68.21030303030304" cy="164.93023172010555" r="3.1181102362204727" fill="#1f77b4" fill-opacity="0.85" stroke="none"><title>(0, 0.173440473375)</title></circle><circle cx="111.73858585858586" cy="133.4453776675513" r="3.1181102362204727" fill="#1f77b4" fill-opacity="0.85" stroke="none"><title>(0.5, 0.391803941846)</title></circle><circle cx="155.2668686868687" cy="75.86167470025816" r="3.1181102362204727" fill="#1f77b4" fill-opacity="0.85" stroke="none"><title>(1, 0.791176195132)</title></circle><circle cx="198.79515151515153" cy="23.28787878787879" r="3.1181102362204727" fill="#1f77b4" fill-opacity="0.85" stroke="none"><title>(1.5, 1.15580219616)</title></circle><circle cx="242.32343434343431" cy="83.65822953577597" r="3.1181102362204727" fill="#1f77b4" fill-opacity="0.85" stroke="none"><title>(2, 0.737103123897)</title></circle><circle cx="285.85171717171715" cy="91.57860244509732" r="3.1181102362204727" fill="#1f77b4" fill-opacity="0.85" stroke="none"><title>(2.5, 0.682171311376)</title></circle><circle cx="329.38" cy="161.72342441096959" r="3.1181102362204727" fill="#1f77b4" fill-opacity="0.85" stroke="none"><title>(3, 0.195681312274)</title></circle><circle cx="372.90828282828284" cy="263.6403358379479" r="3.1181102362204727" fill="#1f77b4" fill-opacity="0.85" stroke="none"><title>(3.5, -0.511164278876)</title></circle><circle cx="416.4365656565656" cy="274.42480799210756" r="3.1181102362204727" fill="#1f77b4" fill-opacity="0.85" stroke="none"><title>(4, -0.585960075651)</title></circle><circle cx="459.9648484848485" cy="342.3787878787879" r="3.1181102362204727" fill="#1f77b4" fill-opacity="0.85" stroke="none"><title>(4.5, -1.057255471199)</title></circle><circle cx="503.4931313131313" cy="336.6781424769809" r="3.1181102362204727" fill="#1f77b4" fill-opacity="0.85" stroke="none"><title>(5, -1.017718597362)</title></circle><circle cx="547.0214141414141" cy="268.25710114201604" r="3.1181102362204727" fill="#1f77b4" fill-opacity="0.85" stroke="none"><title>(5.5, -0.543183893235)</title></circle><circle cx="590.5496969696969" cy="254.64847483149254" r="3.1181102362204727" fill="#1f77b4" fill-opacity="0.85" stroke="none"><title>(6, -0.448801151701)</title></circle><line x1="68.21030303030304" y1="166.41894375258636" x2="73.48645852464034" y2="161.29282124558085" stroke="#1f77b4" stroke-width="1.4211023622047245"/><line x1="73.48645852464034" y1="161.29282124558085" x2="78.76261401897766" y2="156.00111859819287" stroke="#1f77b4" stroke-width="1.4211023622047245"/><line x1="78.76261401897766" y1="156.00111859819287" x2="84.03876951331497" y2="150.56485287245053" stroke="#1f77b4" stroke-width="1.4211023622047245"/><line x1="84.03876951331497" y1="150.56485287245053" x2="89.31492500765228" y2="145.00690311378708" stroke="#1f77b4" stroke-width="1.4211023622047245"/><line x1="89.31492500765228" y1="145.00690311378708" x2="94.59108050198958" y2="139.35190300714004" stroke="#1f77b4" stroke-width="1.4211023622047245"/><line x1="94.59108050198958" y1="139.35190300714004" x2="99.8672359963269" y2="133.62611464075115" stroke="#1f77b4" stroke-width="1.4211023622047245"/><line x1="99.8672359963269" y1="133.62611464075115" x2="105.14339149066423" y2="127.85728420772416" stroke="#1f77b4" stroke-width="1.4211023622047245"/><line x1="105.14339149066423" y1="127.85728420772416" x2="110.41954698500152" y2="122.07448070023368" stroke="#1f77b4" stroke-width="1.4211023622047245"/><line x1="110.41954698500152" y1="122.07448070023368" x2="115.69570247933885" y2="116.30791886446673" stroke="#1f77b4" stroke-width="1.4211023622047245"/><line x1="115.69570247933885" y1="116.30791886446673" x2="120.97185797367615" y2="110.58876788258695" stroke="#1f77b4" stroke-width="1.4211023622047245"/><line x1="120.97185797367615" y1="110.58876788258695" x2="126.24801346801348" y2="104.94894742809045" stroke="#1f77b4" stroke-width="1.4211023622047245"/><line x1="126.24801346801348" y1="104.94894742809045" x2="131.52416896235076" y2="99.42091290007309" stroke="#1f77b4" stroke-width="1.4211023622047245"/><line x1="131.52416896235076" y1="99.42091290007309" x2="136.8003244566881" y2="94.03743177772245" stroke="#1f77b4" stroke-width="1.4211023622047245"/><line x1="136.8003244566881" y1="94.03743177772245" x2="142.0764799510254" y2="88.83135314674628" stroke="#1f77b4" stroke-width="1.4211023622047245"/><line x1="142.0764799510254" y1="88.83135314674628" x2="147.35263544536272" y2="83.83537253292081" stroke="#1f77b4" stroke-width="1.4211023622047245"/><line x1="147.35263544536272" y1="83.83537253292081" x2="152.62879093970002" y2="79.08179423339386" stroke="#1f77b4" stroke-width="1.4211023622047245"/><line x1="152.62879093970002" y1="79.08179423339386" x2="157.90494643403736" y2="74.60229336328396" stroke="#1f77b4" stroke-width="1.4211023622047245"/><line x1="157.90494643403736" y1="74.60229336328396" x2="163.18110192837463" y2="70.42767983340589" stroke="#1f77b4" stroke-width="1.4211023622047245"/><line x1="163.18110192837463" y1="70.42767983340589" x2="168.45725742271196" y2="66.58766644513051" stroke="#1f77b4" stroke-width="1.4211023622047245"/><line x1="168.45725742271196" y1="66.58766644513051" x2="173.7334129170493" y2="63.11064323139946" stroke="#1f77b4" stroke-width="1.4211023622047245"/><line x1="173.7334129170493" y1="63.11064323139946" x2="179.0095684113866" y2="60.02346009022589" stroke="#1f77b4" stroke-width="1.4211023622047245"/><line x1="179.0095684113866" y1="60.02346009022589" x2="184.2857239057239" y2="57.35121965047657" stroke="#1f77b4" stroke-width="1.4211023622047245"/><line x1="184.2857239057239" y1="57.35121965047657" x2="189.56187940006126" y2="55.11708218162153" stroke="#1f77b4" stroke-width="1.4211023622047245"/><line x1="189.56187940006126" y1="55.11708218162153" x2="194.83803489439856" y2="53.342084212038" stroke="#1f77b4" stroke-width="1.4211023622047245"/><line x1="194.83803489439856" y1="53.342084212038" x2="200.11419038873584" y2="52.044972357214455" stroke="#1f77b4" stroke-width="1.4211023622047245"/><line x1="200.11419038873584" y1="52.044972357214455" x2="205.39034588307314" y2="51.24205368287168" stroke="#1f77b4" stroke-width="1.4211023622047245"/><line x1="205.39034588307314" y1="51.24205368287168" x2="210.66650137741047" y2="50.947063741787545" stroke="#1f77b4" stroke-width="1.4211023622047245"/><line x1="210.66650137741047" y1="50.947063741787545" x2="215.9426568717478" y2="51.17105323018556" stroke="#1f77b4" stroke-width="1.4211023622047245"/><line x1="215.9426568717478" y1="51.17105323018556" x2="221.2188123660851" y2="51.922294013152126" stroke="#1f77b4" stroke-width="1.4211023622047245"/><line x1="221.2188123660851" y1="51.922294013152126" x2="226.49496786042238" y2="53.20620507179194" stroke="#1f77b4" stroke-width="1.4211023622047245"/><line x1="226.49496786042238" y1="53.20620507179194" x2="231.77112335475968" y2="55.02529873065627" stroke="#1f77b4" stroke-width="1.4211023622047245"/><line x1="231.77112335475968" y1="55.02529873065627" x2="237.047278849097" y2="57.3791473351359" stroke="#1f77b4" stroke-width="1.4211023622047245"/><line x1="237.047278849097" y1="57.3791473351359" x2="242.32343434343431" y2="60.26437036744176" stroke="#1f77b4" stroke-width="1.4211023622047245"/><line x1="242.32343434343431" y1="60.26437036744176" x2="247.59958983777165" y2="63.674641818638705" stroke="#1f77b4" stroke-width="1.4211023622047245"/><line x1="247.59958983777165" y1="63.674641818638705" x2="252.87574533210892" y2="67.6007174747295" stroke="#1f77b4" stroke-width="1.4211023622047245"/><line x1="252.87574533210892" y1="67.6007174747295" x2="258.15190082644625" y2="72.03048162839494" stroke="#1f77b4" stroke-width="1.4211023622047245"/><line x1="258.15190082644625" y1="72.03048162839494" x2="263.4280563207835" y2="76.94901259569068" stroke="#1f77b4" stroke-width="1.4211023622047245"/><line x1="263.4280563207835" y1="76.94901259569068" x2="268.7042118151209" y2="82.33866629934292" stroke="#1f77b4" stroke-width="1.4211023622047245"/><line x1="268.7042118151209" y1="82.33866629934292" x2="273.98036730945825" y2="88.17917707752477" stroke="#1f77b4" stroke-width="1.4211023622047245"/><line x1="273.98036730945825" y1="88.17917707752477" x2="279.2565228037956" y2="94.4477747889105" stroke="#1f77b4" stroke-width="1.4211023622047245"/><line x1="279.2565228037956" y1="94.4477747889105" x2="284.53267829813285" y2="101.1193172109123" stroke="#1f77b4" stroke-width="1.4211023622047245"/><line x1="284.53267829813285" y1="101.1193172109123" x2="289.8088337924702" y2="108.16643666746552" stroke="#1f77b4" stroke-width="1.4211023622047245"/><line x1="289.8088337924702" y1="108.16643666746552" x2="295.08498928680746" y2="115.55969977446264" stroke="#1f77b4" stroke-width="1.4211023622047245"/><line x1="295.08498928680746" y1="115.55969977446264" x2="300.3611447811448" y2="123.2677791536513" stroke="#1f77b4" stroke-width="1.4211023622047245"/><line x1="300.3611447811448" y1="123.2677791536513" x2="305.63730027548206" y2="131.2576359380594" stroke="#1f77b4" stroke-width="1.4211023622047245"/><line x1="305.63730027548206" y1="131.2576359380594" x2="310.9134557698194" y2="139.49471187226393" stroke="#1f77b4" stroke-width="1.4211023622047245"/><line x1="310.9134557698194" y1="139.49471187226393" x2="316.1896112641567" y2="147.94312979750342" stroke="#1f77b4" stroke-width="1.4211023622047245"/><line x1="316.1896112641567" y1="147.94312979750342" x2="321.46576675849406" y2="156.5659013032187" stroke="#1f77b4" stroke-width="1.4211023622047245"/><line x1="321.46576675849406" y1="156.5659013032187" x2="326.74192225283133" y2="165.3251403216501" stroke="#1f77b4" stroke-width="1.4211023622047245"/><line x1="326.74192225283133" y1="165.3251403216501" x2="332.0180777471686" y2="174.1822814392907" stroke="#1f77b4" stroke-width="1.4211023622047245"/><line x1="332.0180777471686" y1="174.1822814392907" x2="337.29423324150594" y2="183.0983016972298" stroke="#1f77b4" stroke-width="1.4211023622047245"/><line x1="337.29423324150594" y1="183.0983016972298" x2="342.5703887358432" y2="192.03394465076317" stroke="#1f77b4" stroke-width="1.4211023622047245"/><line x1="342.5703887358432" y1="192.03394465076317" x2="347.8465442301806" y2="200.94994545654347" stroke="#1f77b4" stroke-width="1.4211023622047245"/><line x1="347.8465442301806" y1="200.94994545654347" x2="353.12269972451793" y2="209.8072557525873" stroke="#1f77b4" stroke-width="1.4211023622047245"/><line x1="353.12269972451793" y1="209.8072557525873" x2="358.39885521885526" y2="218.5672670926688" stroke="#1f77b4" stroke-width="1.4211023622047245"/><line x1="358.39885521885526" y1="218.5672670926688" x2="363.6750107131926" y2="227.1920316921915" stroke="#1f77b4" stroke-width="1.4211023622047245"/><line x1="363.6750107131926" y1="227.1920316921915" x2="368.9511662075298" y2="235.6444792381547" stroke="#1f77b4" stroke-width="1.4211023622047245"/><line x1="368.9511662075298" y1="235.6444792381547" x2="374.2273217018672" y2="243.88862851207674" stroke="#1f77b4" stroke-width="1.4211023622047245"/><line x1="374.2273217018672" y1="243.88862851207674" x2="379.50347719620447" y2="251.88979257278322" stroke="#1f77b4" stroke-width="1.4211023622047245"/><line x1="379.50347719620447" y1="251.88979257278322" x2="384.7796326905418" y2="259.6147762470689" stroke="#1f77b4" stroke-width="1.4211023622047245"/><line x1="384.7796326905418" y1="259.6147762470689" x2="390.0557881848791" y2="267.03206468180116" stroke="#1f77b4" stroke-width="1.4211023622047245"/><line x1="390.0557881848791" y1="267.03206468180116" x2="395.33194367921635" y2="274.1120017225863" stroke="#1f77b4" stroke-width="1.4211023622047245"/><line x1="395.33194367921635" y1="274.1120017225863" x2="400.60809917355374" y2="280.8269569032262" stroke="#1f77b4" stroke-width="1.4211023622047245"/><line x1="400.60809917355374" y1="280.8269569032262" x2="405.884254667891" y2="287.15147985842805" stroke="#1f77b4" stroke-width="1.4211023622047245"/><line x1="405.884254667891" y1="287.15147985842805" x2="411.16041016222835" y2="293.06244101106336" stroke="#1f77b4" stroke-width="1.4211023622047245"/><line x1="411.16041016222835" y1="293.06244101106336" x2="416.4365656565656" y2="298.53915743609684" stroke="#1f77b4" stroke-width="1.4211023622047245"/><line x1="416.4365656565656" y1="298.53915743609684" x2="421.7127211509029" y2="303.56350286726536" stroke="#1f77b4" stroke-width="1.4211023622047245"/><line x1="421.7127211509029" y1="303.56350286726536" x2="426.9888766452403" y2="308.1200008906212" stroke="#1f77b4" stroke-width="1.4211023622047245"/><line x1="426.9888766452403" y1="308.1200008906212" x2="432.26503213957756" y2="312.1959004618209" stroke="#1f77b4" stroke-width="1.4211023622047245"/><line x1="432.26503213957756" y1="312.1959004618209" x2="437.5411876339149" y2="315.78123299181226" stroke="#1f77b4" stroke-width="1.4211023622047245"/><line x1="437.5411876339149" y1="315.78123299181226" x2="442.81734312825216" y2="318.8688503683421" stroke="#1f77b4" stroke-width="1.4211023622047245"/><line x1="442.81734312825216" y1="318.8688503683421" x2="448.09349862258955" y2="321.4544434179981" stroke="#1f77b4" stroke-width="1.4211023622047245"/><line x1="448.09349862258955" y1="321.4544434179981" x2="453.3696541169268" y2="323.5365404645015" stroke="#1f77b4" stroke-width="1.4211023622047245"/><line x1="453.3696541169268" y1="323.5365404645015" x2="458.6458096112641" y2="325.1164858024532" stroke="#1f77b4" stroke-width="1.4211023622047245"/><line x1="458.6458096112641" y1="325.1164858024532" x2="463.9219651056015" y2="326.19839808007106" stroke="#1f77b4" stroke-width="1.4211023622047245"/><line x1="463.9219651056015" y1="326.19839808007106" x2="469.19812059993876" y2="326.7891087676863" stroke="#1f77b4" stroke-width="1.4211023622047245"/><line x1="469.19812059993876" y1="326.7891087676863" x2="474.47427609427615" y2="326.89808107857016" stroke="#1f77b4" stroke-width="1.4211023622047245"/><line x1="474.47427609427615" y1="326.89808107857016" x2="479.7504315886134" y2="326.5373099024249" stroke="#1f77b4" stroke-width="1.4211023622047245"/><line x1="479.7504315886134" y1="326.5373099024249" x2="485.02658708295064" y2="325.7212035068027" stroke="#1f77b4" stroke-width="1.4211023622047245"/><line x1="485.02658708295064" y1="325.7212035068027" x2="490.30274257728803" y2="324.4664479547282" stroke="#1f77b4" stroke-width="1.4211023622047245"/><line x1="490.30274257728803" y1="324.4664479547282" x2="495.5788980716253" y2="322.79185537484466" stroke="#1f77b4" stroke-width="1.4211023622047245"/><line x1="495.5788980716253" y1="322.79185537484466" x2="500.8550535659627" y2="320.71819740022164" stroke="#1f77b4" stroke-width="1.4211023622047245"/><line x1="500.8550535659627" y1="320.71819740022164" x2="506.1312090602999" y2="318.26802526048436" stroke="#1f77b4" stroke-width="1.4211023622047245"/><line x1="506.1312090602999" y1="318.26802526048436" x2="511.4073645546373" y2="315.46547816602924" stroke="#1f77b4" stroke-width="1.4211023622047245"/><line x1="511.4073645546373" y1="315.46547816602924" x2="516.6835200489745" y2="312.3360817599612" stroke="#1f77b4" stroke-width="1.4211023622047245"/><line x1="516.6835200489745" y1="312.3360817599612" x2="521.9596755433118" y2="308.90653853033496" stroke="#1f77b4" stroke-width="1.4211023622047245"/><line x1="521.9596755433118" y1="308.90653853033496" x2="527.2358310376492" y2="305.2045121700089" stroke="#1f77b4" stroke-width="1.4211023622047245"/><line x1="527.2358310376492" y1="305.2045121700089" x2="532.5119865319864" y2="301.25840794192015" stroke="#1f77b4" stroke-width="1.4211023622047245"/><line x1="532.5119865319864" y1="301.25840794192015" x2="537.7881420263238" y2="297.09715115231415" stroke="#1f77b4" stroke-width="1.4211023622047245"/><line x1="537.7881420263238" y1="297.09715115231415" x2="543.0642975206611" y2="292.74996585228575" stroke="#1f77b4" stroke-width="1.4211023622047245"/><line x1="543.0642975206611" y1="292.74996585228575" x2="548.3404530149985" y2="288.24615587826935" stroke="#1f77b4" stroke-width="1.4211023622047245"/><line x1="548.3404530149985" y1="288.24615587826935" x2="553.6166085093358" y2="283.6148903047191" stroke="#1f77b4" stroke-width="1.4211023622047245"/><line x1="553.6166085093358" y1="283.6148903047191" x2="558.892764003673" y2="278.88499531749665" stroke="#1f77b4" stroke-width="1.4211023622047245"/><line x1="558.892764003673" y1="278.88499531749665" x2="564.1689194980104" y2="274.0847544253047" stroke="#1f77b4" stroke-width="1.4211023622047245"/><line x1="564.1689194980104" y1="274.0847544253047" x2="569.4450749923477" y2="269.2417188102138" stroke="#1f77b4" stroke-width="1.4211023622047245"/><line x1="569.4450749923477" y1="269.2417188102138" x2="574.721230486685" y2="264.38252947872104" stroke="#1f77b4" stroke-width="1.4211023622047245"/><line x1="574.721230486685" y1="264.38252947872104" x2="579.9973859810223" y2="259.5327527140888" stroke="#1f77b4" stroke-width="1.4211023622047245"/><line x1="579.9973859810223" y1="259.5327527140888" x2="585.2735414753597" y2="254.71673015153365" stroke="#1f77b4" stroke-width="1.4211023622047245"/><line x1="585.2735414753597" y1="254.71673015153365" x2="590.5496969696969" y2="249.9574446030681" stroke="#1f77b4" stroke-width="1.4211023622047245"/></svg>