<svg xmlns="http://www.w3.org/2000/svg" width="624" height="384" viewBox="0 0 624 384"><rect x="0.0" y="0.0" width="624.0" height="384.0" fill="#ffffff" fill-opacity="1.0" stroke="none"/><line x1="111.73858585858586" y1="7.333333333333333" x2="111.73858585858586" y2="358.3333333333333" stroke="#dddddd" stroke-width="0.6666666666666666"/><line x1="198.79515151515153" y1="7.333333333333333" x2="198.79515151515153" y2="358.3333333333333" stroke="#dddddd" stroke-width="0.6666666666666666"/><line x1="285.85171717171715" y1="7.333333333333333" x2="285.85171717171715" y2="358.3333333333333" stroke="#dddddd" stroke-width="0.6666666666666666"/><line x1="372.90828282828284" y1="7.333333333333333" x2="372.90828282828284" y2="358.3333333333333" stroke="#dddddd" stroke-width="0.6666666666666666"/><line x1="459.9648484848485" y1="7.333333333333333" x2="459.9648484848485" y2="358.3333333333333" stroke="#dddddd" stroke-width="0.6666666666666666"/><line x1="547.0214141414141" y1="7.333333333333333" x2="547.0214141414141" y2="358.3333333333333" stroke="#dddddd" stroke-width="0.6666666666666666"/><line x1="68.21030303030304" y1="7.333333333333333" x2="68.21030303030304" y2="358.3333333333333" stroke="#dddddd" stroke-width="1.3333333333333333"/><line x1="155.2668686868687" y1="7.333333333333333" x2="155.2668686868687" y2="358.3333333333333" stroke="#dddddd" stroke-width="1.3333333333333333"/><line x1="242.32343434343431" y1="7.333333333333333" x2="242.32343434343431" y2="358.3333333333333" stroke="#dddddd" stroke-width="1.3333333333333333"/><line x1="329.38" y1="7.333333333333333" x2="329.38" y2="358.3333333333333" stroke="#dddddd" stroke-width="1.3333333333333333"/><line x1="416.4365656565656" y1="7.333333333333333" x2="416.4365656565656" y2="358.3333333333333" stroke="#dddddd" stroke-width="1.3333333333333333"/><line x1="503.4931313131313" y1="7.333333333333333" x2="503.4931313131313" y2="358.3333333333333" stroke="#dddddd" stroke-width="1.3333333333333333"/><line x1="590.5496969696969" y1="7.333333333333333" x2="590.5496969696969" y2="358.3333333333333" stroke="#dddddd" stroke-width="1.3333333333333333"/><line x1="42.093333333333334" y1="357.9968232888144" x2="616.6666666666666" y2="357.9968232888144" stroke="#dddddd" stroke-width="0.6666666666666666"/><line x1="42.093333333333334" y1="288.43396707494264" x2="616.6666666666666" y2="288.43396707494264" stroke="#dddddd" stroke-width="0.6666666666666666"/><line x1="42.093333333333334" y1="218.87111086107097" x2="616.6666666666666" y2="218.87111086107097" stroke="#dddddd" stroke-width="0.6666666666666666"/><line x1="42.093333333333334" y1="149.3082546471992" x2="616.6666666666666" y2="149.3082546471992" stroke="#dddddd" stroke-width="0.6666666666666666"/><line x1="42.093333333333334" y1="79.74539843332748" x2="616.6666666666666" y2="79.74539843332748" stroke="#dddddd" stroke-width="0.6666666666666666"/><line x1="42.093333333333334" y1="10.182542219455701" x2="616.6666666666666" y2="10.182542219455701" stroke="#dddddd" stroke-width="0.6666666666666666"/><line x1="42.093333333333334" y1="323.21539518187853" x2="616.6666666666666" y2="323.21539518187853" stroke="#dddddd" stroke-width="1.3333333333333333"/><line x1="42.093333333333334" y1="253.65253896800678" x2="616.6666666666666" y2="253.65253896800678" stroke="#dddddd" stroke-width="1.3333333333333333"/><line x1="42.093333333333334" y1="184.08968275413503" x2="616.6666666666666" y2="184.08968275413503" stroke="#dddddd" stroke-width="1.3333333333333333"/><line x1="42.093333333333334" y1="114.5268265402633" x2="616.6666666666666" y2="114.5268265402633" stroke="#dddddd" stroke-width="1.3333333333333333"/><line x1="42.093333333333334" y1="44.96397032639159" x2="616.6666666666666" y2="44.96397032639159" stroke="#dddddd" stroke-width="1.3333333333333333"/><rect x="42.093333333333334" y="7.333333333333333" width="574.5733333333333" height="351.0" fill="#ffffff" fill-opacity="0.0" stroke="#444444" stroke-width="1.3333333333333333"/><line x1="68.21030303030304" y1="358.3333333333333" x2="68.21030303030304" y2="362.0" stroke="#444444" stroke-width="1.3333333333333333"/><text x="68.21030303030304" y="374.32" fill="#333333" font-size="11.733333333333334" font-family="sans-serif" text-anchor="middle">0</text><line x1="155.2668686868687" y1="358.3333333333333" x2="155.2668686868687" y2="362.0" stroke="#444444" stroke-width="1.3333333333333333"/><text x="155.2668686868687" y="374.32" fill="#333333" font-size="11.733333333333334" font-family="sans-serif" text-anchor="middle">1</text><line x1="242.32343434343431" y1="358.3333333333333" x2="242.32343434343431" y2="362.0" stroke="#444444" stroke-width="1.3333333333333333"/><text x="242.32343434343431" y="374.32" fill="#333333" font-size="11.733333333333334" font-family="sans-serif" text-anchor="middle">2</text><line x1="329.38" y1="358.3333333333333" x2="329.38" y2="362.0" stroke="#444444" stroke-width="1.3333333333333333"/><text x="329.38" y="374.32" fill="#333333" font-size="11.733333333333334" font-family="sans-serif" text-anchor="middle">3</text><line x1="416.4365656565656" y1="358.3333333333333" x2="416.4365656565656" y2="362.0" stroke="#444444" stroke-width="1.3333333333333333"/><text x="416.4365656565656" y="374.32" fill="#333333" font-size="11.733333333333334" font-family="sans-serif" text-anchor="middle">4</text><line x1="503.4931313131313" y1="358.3333333333333" x2="503.4931313131313" y2="362.0" stroke="#444444" stroke-width="1.3333333333333333"/><text x="503.4931313131313" y="374.32" fill="#333333" font-size="11.733333333333334" font-family="sans-serif" text-anchor="middle">5</text><line x1="590.5496969696969" y1="358.3333333333333" x2="590.5496969696969" y2="362.0" stroke="#444444" stroke-width="1.3333333333333333"/><text x="590.5496969696969" y="374.32" fill="#333333" font-size="11.733333333333334" font-family="sans-serif" text-anchor="middle">6</text><line x1="42.093333333333334" y1="323.21539518187853" x2="38.42666666666666" y2="323.21539518187853" stroke="#444444" stroke-width="1.3333333333333333"/><text x="35.49333333333333" y="327.3220618485452" fill="#333333" font-size="11.733333333333334" font-family="sans-serif" text-anchor="end">-1.0</text><line x1="42.093333333333334" y1="253.65253896800678" x2="38.42666666666666" y2="253.65253896800678" stroke="#444444" stroke-width="1.3333333333333333"/><text x="35.49333333333333" y="257.75920563467344" fill="#333333" font-size="11.733333333333334" font-family="sans-serif" text-anchor="end">-0.5</text><line x1="42.093333333333334" y1="184.08968275413503" x2="38.42666666666666" y2="184.08968275413503" stroke="#444444" stroke-width="1.3333333333333333"/><text x="35.49333333333333" y="188.1963494208017" fill="#333333" font-size="11.733333333333334" font-family="sans-serif" text-anchor="end">0.0</text><line x1="42.093333333333334" y1="114.5268265402633" x2="38.42666666666666" y2="114.5268265402633" stroke="#444444" stroke-width="1.3333333333333333"/><text x="35.49333333333333" y="118.63349320692996" fill="#333333" font-size="11.733333333333334" font-family="sans-serif" text-anchor="end">0.5</text><line x1="42.093333333333334" y1="44.96397032639159" x2="38.42666666666666" y2="44.96397032639159" stroke="#444444" stroke-width="1.3333333333333333"/><text x="35.49333333333333" y="49.07063699305826" fill="#333333" font-size="11.733333333333334" font-family="sans-serif" text-anchor="end">1.0</text><circle cx="68.21030303030304" cy="159.95965333201994" r="3.1181102362204727" fill="#1f77b4" fill-opacity="0.85" stroke="none"><title>(0, 0.173440473375)</title></circle><circle cx="111.73858585858586" cy="129.57968021278748" r="3.1181102362204727" fill="#1f77b4" fill-opacity="0.85" stroke="none"><title>(0.5, 0.391803941846)</title></circle><circle cx="155.2668686868687" cy="74.01673095051163" r="3.1181102362204727" fill="#1f77b4" fill-opacity="0.85" stroke="none"><title>(1, 0.791176195132)</title></circle><circle cx="198.79515151515153" cy="23.287878787878828" r="3.1181102362204727" fill="#1f77b4" fill-opacity="0.85" stroke="none"><title>(1.5, 1.15580219616)</title></circle><circle cx="242.32343434343431" cy="81.53968550924299" r="3.1181102362204727" fill="#1f77b4" fill-opacity="0.85" stroke="none"><title>(2, 0.737103123897)</title></circle><circle cx="285.85171717171715" cy="89.18211306116484" r="3.1181102362204727" fill="#1f77b4" fill-opacity="0.85" stroke="none"><title>(2.5, 0.682171311376)</title></circle><circle cx="329.38" cy="156.8653807752061" r="3.1181102362204727" fill="#1f77b4" fill-opacity="0.85" stroke="none"><title>(3, 0.195681312274)</title></circle><circle cx="372.90828282828284" cy="255.2057772203853" r="3.1181102362204727" fill="#1f77b4" fill-opacity="0.85" stroke="none"><title>(3.5, -0.511164278876)</title></circle><circle cx="416.4365656565656" cy="265.61179573333766" r="3.1181102362204727" fill="#1f77b4" fill-opacity="0.85" stroke="none"><title>(4, -0.585960075651)</title></circle><circle cx="459.9648484848485" cy="331.18110340286864" r="3.1181102362204727" fill="#1f77b4" fill-opacity="0.85" stroke="none"><title>(4.5, -1.057255471199)</title></circle><circle cx="503.4931313131313" cy="325.68050766308556" r="3.1181102362204727" fill="#1f77b4" fill-opacity="0.85" stroke="none"><title>(5, -1.017718597362)</title></circle><circle cx="547.0214141414141" cy="259.6605288797476" r="3.1181102362204727" fill="#1f77b4" fill-opacity="0.85" stroke="none"><title>(5.5, -0.543183893235)</title></circle><circle cx="590.5496969696969" cy="246.52946272288082" r="3.1181102362204727" fill="#1f77b4" fill-opacity="0.85" stroke="none"><title>(6, -0.448801151701)</title></circle><path d="M 68.21030303030304 197.049065337155 L 73.48645852464034 189.6891545463249 L 78.76261401897766 182.59444960096192 L 84.03876951331497 175.78087155089923 L 89.31492500765228 169.24356753699104 L 94.59108050198958 162.95830928805424 L 99.8672359963269 156.88704612611414 L 105.14339149066423 150.98605854878193 L 110.41954698500152 145.21426311153652 L 115.69570247933885 139.53966949733288 L 120.97185797367615 133.94317443040632 L 126.24801346801348 128.41990472549458 L 131.52416896235076 122.9787900028502 L 136.8003244566881 117.64105378084457 L 142.0764799510254 112.43811736613497 L 147.35263544536272 107.4092014976842 L 152.62879093970002 102.59876595809733 L 157.90494643403736 98.053861661824 L 163.18110192837463 93.82147075982091 L 168.45725742271196 89.94595552335127 L 173.7334129170493 86.46679573557446 L 179.0095684113866 83.41683037279623 L 184.2857239057239 80.82119969544374 L 189.56187940006126 78.69709672027784 L 194.83803489439856 77.05430350789261 L 200.11419038873584 75.89635459996634 L 205.39034588307314 75.22208447799217 L 210.66650137741047 75.02730009826098 L 215.9426568717478 75.30636300150275 L 221.2188123660851 76.05353823015066 L 226.49496786042238 77.26403899447521 L 231.77112335475968 78.9347481979853 L 237.047278849097 81.06462545315017 L 242.32343434343431 83.65481484948987 L 247.59958983777165 86.70846196085316 L 252.87574533210892 90.23023665909727 L 258.15190082644625 94.22554960908174 L 263.4280563207835 98.69945361553621 L 268.7042118151209 103.65524486586335 L 273.98036730945825 109.09282896132211 L 279.2565228037956 115.00698882570364 L 284.53267829813285 121.38576756299774 L 289.8088337924702 128.2092260381521 L 295.08498928680746 135.44881772252273 L 300.3611447811448 143.06752854460504 L 305.63730027548206 151.02078094410876 L 310.9134557698194 159.25795300785347 L 316.1896112641567 167.72426935788795 L 321.46576675849406 176.3628040507267 L 326.74192225283133 185.11638344500415 L 332.0180777471686 193.9292542370672 L 337.29423324150594 202.74845572842133 L 342.5703887358432 211.5248873637209 L 347.8465442301806 220.21408885301767 L 353.12269972451793 228.77675560008197 L 358.39885521885526 237.17900416321731 L 363.6750107131926 245.3923879776773 L 368.9511662075298 253.39364839739943 L 374.2273217018672 261.1641759740368 L 379.50347719620447 268.68915846814826 L 384.7796326905418 275.9564129838809 L 390.0557881848791 282.95494581952596 L 395.33194367921635 289.6733539327686 L 400.60809917355374 296.0982613304826 L 405.884254667891 302.21304155359576 L 411.16041016222835 307.9970773345557 L 416.4365656565656 313.42572998615174 L 421.7127211509029 318.4710495318618 L 426.9888766452403 323.1031020706225 L 432.26503213957756 327.2916810850717 L 437.5411876339149 331.0081365429221 L 442.81734312825216 334.22709305825987 L 448.09349862258955 336.92790344369166 L 453.3696541169268 339.09576151513295 L 458.6458096112641 340.7224561324277 L 463.9219651056015 341.80678121154557 L 469.19812059993876 342.35462832066344 L 474.47427609427615 342.3787878787878 L 479.7504315886134 341.8984801692401 L 485.02658708295064 340.9386350366193 L 490.30274257728803 339.5289442539486 L 495.5788980716253 337.7027263980925 L 500.8550535659627 335.49567143907734 L 506.1312090602999 332.9445679553559 L 511.4073645546373 330.08615150723057 L 516.6835200489745 326.95623508355663 L 521.9596755433118 323.58927751396254 L 527.2358310376492 320.01850446628225 L 532.5119865319864 316.276621176365 L 537.7881420263238 312.39705962960267 L 543.0642975206611 308.4156035428656 L 548.3404530149985 304.37214606856253 L 553.6166085093358 300.3122636992308 L 558.892764003673 296.2882399617033 L 564.1689194980104 292.3591609136374 L 569.4450749923477 288.5897692850206 L 574.721230486685 285.04795204724104 L 579.9973859810223 281.8010579345678 L 585.2735414753597 278.9116168383016 L 590.5496969696969 276.4332887674875 L 590.5496969696969 206.17439971891076 L 585.2735414753597 212.95831207048496 L 579.9973859810223 219.44213598200213 L 574.721230486685 225.63502515947076 L 569.4450749923477 231.5525189622674 L 564.1689194980104 237.2127297793279 L 558.892764003673 242.63232833905937 L 553.6166085093358 247.82315303473243 L 548.3404530149985 252.79001327282873 L 543.0642975206611 257.52988117130764 L 537.7881420263238 262.03234392652763 L 532.5119865319864 266.28100098387046 L 527.2358310376492 270.2554250989149 L 521.9596755433118 273.93331776185175 L 516.6835200489745 277.2925391871522 L 511.4073645546373 280.31276438611695 L 506.1312090602999 282.9766051731839 L 500.8550535659627 285.27013726900987 L 495.5788980716253 287.1828680686343 L 490.30274257728803 288.70725612941635 L 485.02658708295064 289.83793475615613 L 479.7504315886134 290.57079716972345 L 474.47427609427615 290.9020784836191 L 469.19812059993876 290.82753424740304 L 463.9219651056015 290.34177979622865 L 458.6458096112641 289.4378274948774 L 453.3696541169268 288.10684335767036 L 448.09349862258955 286.33813967689633 L 442.81734312825216 284.11942292756476 L 437.5411876339149 281.4373213330703 L 432.26503213957756 278.2782173961094 L 426.9888766452403 274.62939916096775 L 421.7127211509029 270.4805115677687 L 416.4365656565656 265.8252314900147 L 411.16041016222835 260.6630128695191 L 405.884254667891 255.00067365029514 L 400.60809917355374 248.85355914188722 L 395.33194367921635 242.24604963918557 L 390.0557881848791 235.21129023465338 L 384.7796326905418 227.79017558607507 L 379.50347719620447 220.0297642434587 L 374.2273217018672 211.981375928939 L 368.9511662075298 203.69862550511198 L 363.6750107131926 195.23558973032473 L 358.39885521885526 186.64522368562547 L 353.12269972451793 177.97807362087147 L 347.8465442301806 169.28128690665653 L 342.5703887358432 160.59789899260835 L 337.29423324150594 151.96637577583476 L 332.0180777471686 143.42039997271186 L 326.74192225283133 134.98890527801828 L 321.46576675849406 126.6963765823369 L 316.1896112641567 118.5634424745369 L 310.9134557698194 110.60778078041531 L 305.63730027548206 102.84533151898952 L 300.3611447811448 95.29175956306733 L 295.08498928680746 87.96403528232015 L 289.8088337924702 80.88192403868405 L 284.53267829813285 74.06912751905432 L 279.2565228037956 67.55383609702986 L 273.98036730945825 61.368545402627355 L 268.7042118151209 55.54913836353133 L 263.4280563207835 50.13338227717293 L 258.15190082644625 45.15908501749027 L 252.87574533210892 40.66217144880579 L 247.59958983777165 36.674894147422606 L 242.32343434343431 33.22431627676288 L 237.047278849097 30.331131991660186 L 231.77112335475968 28.008839626365138 L 226.49496786042238 26.263258777441894 L 221.2188123660851 25.09237883173879 L 215.9426568717478 24.486534922915098 L 210.66650137741047 24.428918968460113 L 205.39034588307314 24.89643997264981 L 200.11419038873584 25.86094091893066 L 194.83803489439856 27.29075183568337 L 189.56187940006126 29.152506244492237 L 184.2857239057239 31.413076300406374 L 179.0095684113866 34.041409022960465 L 173.7334129170493 37.01000241306326 L 168.45725742271196 40.29577592458213 L 163.18110192837463 43.88017509648485 L 157.90494643403736 47.748483143302224 L 152.62879093970002 51.88844574999003 L 147.35263544536272 56.28840239555723 L 142.0764799510254 60.93513714056856 L 136.8003244566881 65.81162572873643 L 131.52416896235076 70.8947968746811 L 126.24801346801348 76.1533803942458 L 120.97185797367615 81.54591383057254 L 115.69570247933885 87.01904497929725 L 110.41954698500152 92.50641252435794 L 105.14339149066423 97.92859654369025 L 99.8672359963269 103.19482503832694 L 94.59108050198958 108.2071145772024 L 89.31492500765228 112.86705504814563 L 84.03876951331497 117.08442102490824 L 78.76261401897766 120.78560865983532 L 73.48645852464034 123.91944703083607 L 68.21030303030304 126.45882841445014 Z" fill="#1f77b4" fill-opacity="0.2" stroke="none"/><line x1="68.21030303030304" y1="161.75394687580263" x2="73.48645852464034" y2="156.8043007885805" stroke="#1f77b4" stroke-width="1.4211023622047245"/><line x1="73.48645852464034" y1="156.8043007885805" x2="78.76261401897766" y2="151.6900291303986" stroke="#1f77b4" stroke-width="1.4211023622047245"/><line x1="78.76261401897766" y1="151.6900291303986" x2="84.03876951331497" y2="146.43264628790374" stroke="#1f77b4" stroke-width="1.4211023622047245"/><line x1="84.03876951331497" y1="146.43264628790374" x2="89.31492500765228" y2="141.05531129256832" stroke="#1f77b4" stroke-width="1.4211023622047245"/><line x1="89.31492500765228" y1="141.05531129256832" x2="94.59108050198958" y2="135.5827119326283" stroke="#1f77b4" stroke-width="1.4211023622047245"/><line x1="94.59108050198958" y1="135.5827119326283" x2="99.8672359963269" y2="130.04093558222047" stroke="#1f77b4" stroke-width="1.4211023622047245"/><line x1="99.8672359963269" y1="130.04093558222047" x2="105.14339149066423" y2="124.45732754623614" stroke="#1f77b4" stroke-width="1.4211023622047245"/><line x1="105.14339149066423" y1="124.45732754623614" x2="110.41954698500152" y2="118.86033781794723" stroke="#1f77b4" stroke-width="1.4211023622047245"/><line x1="110.41954698500152" y1="118.86033781794723" x2="115.69570247933885" y2="113.27935723831509" stroke="#1f77b4" stroke-width="1.4211023622047245"/><line x1="115.69570247933885" y1="113.27935723831509" x2="120.97185797367615" y2="107.74454413048946" stroke="#1f77b4" stroke-width="1.4211023622047245"/><line x1="120.97185797367615" y1="107.74454413048946" x2="126.24801346801348" y2="102.28664255987019" stroke="#1f77b4" stroke-width="1.4211023622047245"/><line x1="126.24801346801348" y1="102.28664255987019" x2="131.52416896235076" y2="96.93679343876568" stroke="#1f77b4" stroke-width="1.4211023622047245"/><line x1="131.52416896235076" y1="96.93679343876568" x2="136.8003244566881" y2="91.7263397547905" stroke="#1f77b4" stroke-width="1.4211023622047245"/><line x1="136.8003244566881" y1="91.7263397547905" x2="142.0764799510254" y2="86.68662725335176" stroke="#1f77b4" stroke-width="1.4211023622047245"/><line x1="142.0764799510254" y1="86.68662725335176" x2="147.35263544536272" y2="81.84880194662074" stroke="#1f77b4" stroke-width="1.4211023622047245"/><line x1="147.35263544536272" y1="81.84880194662074" x2="152.62879093970002" y2="77.24360585404364" stroke="#1f77b4" stroke-width="1.4211023622047245"/><line x1="152.62879093970002" y1="77.24360585404364" x2="157.90494643403736" y2="72.90117240256309" stroke="#1f77b4" stroke-width="1.4211023622047245"/><line x1="157.90494643403736" y1="72.90117240256309" x2="163.18110192837463" y2="68.8508229281529" stroke="#1f77b4" stroke-width="1.4211023622047245"/><line x1="163.18110192837463" y1="68.8508229281529" x2="168.45725742271196" y2="65.12086572396666" stroke="#1f77b4" stroke-width="1.4211023622047245"/><line x1="168.45725742271196" y1="65.12086572396666" x2="173.7334129170493" y2="61.7383990743189" stroke="#1f77b4" stroke-width="1.4211023622047245"/><line x1="173.7334129170493" y1="61.7383990743189" x2="179.0095684113866" y2="58.72911969787833" stroke="#1f77b4" stroke-width="1.4211023622047245"/><line x1="179.0095684113866" y1="58.72911969787833" x2="184.2857239057239" y2="56.11713799792498" stroke="#1f77b4" stroke-width="1.4211023622047245"/><line x1="184.2857239057239" y1="56.11713799792498" x2="189.56187940006126" y2="53.924801482385035" stroke="#1f77b4" stroke-width="1.4211023622047245"/><line x1="189.56187940006126" y1="53.924801482385035" x2="194.83803489439856" y2="52.172527671787975" stroke="#1f77b4" stroke-width="1.4211023622047245"/><line x1="194.83803489439856" y1="52.172527671787975" x2="200.11419038873584" y2="50.8786477594485" stroke="#1f77b4" stroke-width="1.4211023622047245"/><line x1="200.11419038873584" y1="50.8786477594485" x2="205.39034588307314" y2="50.05926222532097" stroke="#1f77b4" stroke-width="1.4211023622047245"/><line x1="205.39034588307314" y1="50.05926222532097" x2="210.66650137741047" y2="49.7281095333606" stroke="#1f77b4" stroke-width="1.4211023622047245"/><line x1="210.66650137741047" y1="49.7281095333606" x2="215.9426568717478" y2="49.896448962208936" stroke="#1f77b4" stroke-width="1.4211023622047245"/><line x1="215.9426568717478" y1="49.896448962208936" x2="221.2188123660851" y2="50.572958530944746" stroke="#1f77b4" stroke-width="1.4211023622047245"/><line x1="221.2188123660851" y1="50.572958530944746" x2="226.49496786042238" y2="51.76364888595852" stroke="#1f77b4" stroke-width="1.4211023622047245"/><line x1="226.49496786042238" y1="51.76364888595852" x2="231.77112335475968" y2="53.471793912175215" stroke="#1f77b4" stroke-width="1.4211023622047245"/><line x1="231.77112335475968" y1="53.471793912175215" x2="237.047278849097" y2="55.69787872240518" stroke="#1f77b4" stroke-width="1.4211023622047245"/><line x1="237.047278849097" y1="55.69787872240518" x2="242.32343434343431" y2="58.43956556312639" stroke="#1f77b4" stroke-width="1.4211023622047245"/><line x1="242.32343434343431" y1="58.43956556312639" x2="247.59958983777165" y2="61.69167805413788" stroke="#1f77b4" stroke-width="1.4211023622047245"/><line x1="247.59958983777165" y1="61.69167805413788" x2="252.87574533210892" y2="65.44620405395149" stroke="#1f77b4" stroke-width="1.4211023622047245"/><line x1="252.87574533210892" y1="65.44620405395149" x2="258.15190082644625" y2="69.69231731328594" stroke="#1f77b4" stroke-width="1.4211023622047245"/><line x1="258.15190082644625" y1="69.69231731328594" x2="263.4280563207835" y2="74.41641794635453" stroke="#1f77b4" stroke-width="1.4211023622047245"/><line x1="263.4280563207835" y1="74.41641794635453" x2="268.7042118151209" y2="79.60219161469732" stroke="#1f77b4" stroke-width="1.4211023622047245"/><line x1="268.7042118151209" y1="79.60219161469732" x2="273.98036730945825" y2="85.23068718197479" stroke="#1f77b4" stroke-width="1.4211023622047245"/><line x1="273.98036730945825" y1="85.23068718197479" x2="279.2565228037956" y2="91.28041246136675" stroke="#1f77b4" stroke-width="1.4211023622047245"/><line x1="279.2565228037956" y1="91.28041246136675" x2="284.53267829813285" y2="97.72744754102601" stroke="#1f77b4" stroke-width="1.4211023622047245"/><line x1="284.53267829813285" y1="97.72744754102601" x2="289.8088337924702" y2="104.54557503841806" stroke="#1f77b4" stroke-width="1.4211023622047245"/><line x1="289.8088337924702" y1="104.54557503841806" x2="295.08498928680746" y2="111.70642650242144" stroke="#1f77b4" stroke-width="1.4211023622047245"/><line x1="295.08498928680746" y1="111.70642650242144" x2="300.3611447811448" y2="119.17964405383618" stroke="#1f77b4" stroke-width="1.4211023622047245"/><line x1="300.3611447811448" y1="119.17964405383618" x2="305.63730027548206" y2="126.93305623154913" stroke="#1f77b4" stroke-width="1.4211023622047245"/><line x1="305.63730027548206" y1="126.93305623154913" x2="310.9134557698194" y2="134.93286689413438" stroke="#1f77b4" stroke-width="1.4211023622047245"/><line x1="310.9134557698194" y1="134.93286689413438" x2="316.1896112641567" y2="143.1438559162124" stroke="#1f77b4" stroke-width="1.4211023622047245"/><line x1="316.1896112641567" y1="143.1438559162124" x2="321.46576675849406" y2="151.52959031653177" stroke="#1f77b4" stroke-width="1.4211023622047245"/><line x1="321.46576675849406" y1="151.52959031653177" x2="326.74192225283133" y2="160.0526443615112" stroke="#1f77b4" stroke-width="1.4211023622047245"/><line x1="326.74192225283133" y1="160.0526443615112" x2="332.0180777471686" y2="168.67482710488952" stroke="#1f77b4" stroke-width="1.4211023622047245"/><line x1="332.0180777471686" y1="168.67482710488952" x2="337.29423324150594" y2="177.35741575212808" stroke="#1f77b4" stroke-width="1.4211023622047245"/><line x1="337.29423324150594" y1="177.35741575212808" x2="342.5703887358432" y2="186.06139317816462" stroke="#1f77b4" stroke-width="1.4211023622047245"/><line x1="342.5703887358432" y1="186.06139317816462" x2="347.8465442301806" y2="194.7476878798371" stroke="#1f77b4" stroke-width="1.4211023622047245"/><line x1="347.8465442301806" y1="194.7476878798371" x2="353.12269972451793" y2="203.3774146104767" stroke="#1f77b4" stroke-width="1.4211023622047245"/><line x1="353.12269972451793" y1="203.3774146104767" x2="358.39885521885526" y2="211.91211392442136" stroke="#1f77b4" stroke-width="1.4211023622047245"/><line x1="358.39885521885526" y1="211.91211392442136" x2="363.6750107131926" y2="220.313988854001" stroke="#1f77b4" stroke-width="1.4211023622047245"/><line x1="363.6750107131926" y1="220.313988854001" x2="368.9511662075298" y2="228.5461369512557" stroke="#1f77b4" stroke-width="1.4211023622047245"/><line x1="368.9511662075298" y1="228.5461369512557" x2="374.2273217018672" y2="236.5727759514879" stroke="#1f77b4" stroke-width="1.4211023622047245"/><line x1="374.2273217018672" y1="236.5727759514879" x2="379.50347719620447" y2="244.35946135580346" stroke="#1f77b4" stroke-width="1.4211023622047245"/><line x1="379.50347719620447" y1="244.35946135580346" x2="384.7796326905418" y2="251.87329428497793" stroke="#1f77b4" stroke-width="1.4211023622047245"/><line x1="384.7796326905418" y1="251.87329428497793" x2="390.0557881848791" y2="259.08311802708965" stroke="#1f77b4" stroke-width="1.4211023622047245"/><line x1="390.0557881848791" y1="259.08311802708965" x2="395.33194367921635" y2="265.9597017859771" stroke="#1f77b4" stroke-width="1.4211023622047245"/><line x1="395.33194367921635" y1="265.9597017859771" x2="400.60809917355374" y2="272.47591023618486" stroke="#1f77b4" stroke-width="1.4211023622047245"/><line x1="400.60809917355374" y1="272.47591023618486" x2="405.884254667891" y2="278.6068576019455" stroke="#1f77b4" stroke-width="1.4211023622047245"/><line x1="405.884254667891" y1="278.6068576019455" x2="411.16041016222835" y2="284.3300451020374" stroke="#1f77b4" stroke-width="1.4211023622047245"/><line x1="411.16041016222835" y1="284.3300451020374" x2="416.4365656565656" y2="289.6254807380832" stroke="#1f77b4" stroke-width="1.4211023622047245"/><line x1="416.4365656565656" y1="289.6254807380832" x2="421.7127211509029" y2="294.4757805498152" stroke="#1f77b4" stroke-width="1.4211023622047245"/><line x1="421.7127211509029" y1="294.4757805498152" x2="426.9888766452403" y2="298.86625061579514" stroke="#1f77b4" stroke-width="1.4211023622047245"/><line x1="426.9888766452403" y1="298.86625061579514" x2="432.26503213957756" y2="302.78494924059055" stroke="#1f77b4" stroke-width="1.4211023622047245"/><line x1="432.26503213957756" y1="302.78494924059055" x2="437.5411876339149" y2="306.2227289379962" stroke="#1f77b4" stroke-width="1.4211023622047245"/><line x1="437.5411876339149" y1="306.2227289379962" x2="442.81734312825216" y2="309.17325799291234" stroke="#1f77b4" stroke-width="1.4211023622047245"/><line x1="442.81734312825216" y1="309.17325799291234" x2="448.09349862258955" y2="311.633021560294" stroke="#1f77b4" stroke-width="1.4211023622047245"/><line x1="448.09349862258955" y1="311.633021560294" x2="453.3696541169268" y2="313.6013024364016" stroke="#1f77b4" stroke-width="1.4211023622047245"/><line x1="453.3696541169268" y1="313.6013024364016" x2="458.6458096112641" y2="315.0801418136526" stroke="#1f77b4" stroke-width="1.4211023622047245"/><line x1="458.6458096112641" y1="315.0801418136526" x2="463.9219651056015" y2="316.0742805038871" stroke="#1f77b4" stroke-width="1.4211023622047245"/><line x1="463.9219651056015" y1="316.0742805038871" x2="469.19812059993876" y2="316.59108128403324" stroke="#1f77b4" stroke-width="1.4211023622047245"/><line x1="469.19812059993876" y1="316.59108128403324" x2="474.47427609427615" y2="316.64043318120343" stroke="#1f77b4" stroke-width="1.4211023622047245"/><line x1="474.47427609427615" y1="316.64043318120343" x2="479.7504315886134" y2="316.2346386694818" stroke="#1f77b4" stroke-width="1.4211023622047245"/><line x1="479.7504315886134" y1="316.2346386694818" x2="485.02658708295064" y2="315.38828489638774" stroke="#1f77b4" stroke-width="1.4211023622047245"/><line x1="485.02658708295064" y1="315.38828489638774" x2="490.30274257728803" y2="314.1181001916825" stroke="#1f77b4" stroke-width="1.4211023622047245"/><line x1="490.30274257728803" y1="314.1181001916825" x2="495.5788980716253" y2="312.4427972333635" stroke="#1f77b4" stroke-width="1.4211023622047245"/><line x1="495.5788980716253" y1="312.4427972333635" x2="500.8550535659627" y2="310.3829043540436" stroke="#1f77b4" stroke-width="1.4211023622047245"/><line x1="500.8550535659627" y1="310.3829043540436" x2="506.1312090602999" y2="307.96058656426993" stroke="#1f77b4" stroke-width="1.4211023622047245"/><line x1="506.1312090602999" y1="307.96058656426993" x2="511.4073645546373" y2="305.19945794667376" stroke="#1f77b4" stroke-width="1.4211023622047245"/><line x1="511.4073645546373" y1="305.19945794667376" x2="516.6835200489745" y2="302.1243871353544" stroke="#1f77b4" stroke-width="1.4211023622047245"/><line x1="516.6835200489745" y1="302.1243871353544" x2="521.9596755433118" y2="298.76129763790715" stroke="#1f77b4" stroke-width="1.4211023622047245"/><line x1="521.9596755433118" y1="298.76129763790715" x2="527.2358310376492" y2="295.13696478259857" stroke="#1f77b4" stroke-width="1.4211023622047245"/><line x1="527.2358310376492" y1="295.13696478259857" x2="532.5119865319864" y2="291.27881108011775" stroke="#1f77b4" stroke-width="1.4211023622047245"/><line x1="532.5119865319864" y1="291.27881108011775" x2="537.7881420263238" y2="287.21470177806515" stroke="#1f77b4" stroke-width="1.4211023622047245"/><line x1="537.7881420263238" y1="287.21470177806515" x2="543.0642975206611" y2="282.97274235708664" stroke="#1f77b4" stroke-width="1.4211023622047245"/><line x1="543.0642975206611" y1="282.97274235708664" x2="548.3404530149985" y2="278.58107967069566" stroke="#1f77b4" stroke-width="1.4211023622047245"/><line x1="548.3404530149985" y1="278.58107967069566" x2="553.6166085093358" y2="274.0677083669816" stroke="#1f77b4" stroke-width="1.4211023622047245"/><line x1="553.6166085093358" y1="274.0677083669816" x2="558.892764003673" y2="269.4602841503813" stroke="#1f77b4" stroke-width="1.4211023622047245"/><line x1="558.892764003673" y1="269.4602841503813" x2="564.1689194980104" y2="264.7859453464826" stroke="#1f77b4" stroke-width="1.4211023622047245"/><line x1="564.1689194980104" y1="264.7859453464826" x2="569.4450749923477" y2="260.071144123644" stroke="#1f77b4" stroke-width="1.4211023622047245"/><line x1="569.4450749923477" y1="260.071144123644" x2="574.721230486685" y2="255.34148860335588" stroke="#1f77b4" stroke-width="1.4211023622047245"/><line x1="574.721230486685" y1="255.34148860335588" x2="579.9973859810223" y2="250.62159695828495" stroke="#1f77b4" stroke-width="1.4211023622047245"/><line x1="579.9973859810223" y1="250.62159695828495" x2="585.2735414753597" y2="245.93496445439328" stroke="#1f77b4" stroke-width="1.4211023622047245"/><line x1="585.2735414753597" y1="245.93496445439328" x2="590.5496969696969" y2="241.30384424319914" stroke="#1f77b4" stroke-width="1.4211023622047245"/></svg>