<svg xmlns="http://www.w3.org/2000/svg" width="624" height="680" viewBox="0 0 624 680"><rect x="0.0" y="0.0" width="624.0" height="680.0" fill="#ffffff" fill-opacity="1.0" stroke="none"/><text x="49.42666666666666" y="21.413333333333334" fill="#333333" font-size="17.599999999999998" font-family="sans-serif" text-anchor="start">autocorrOf (自己相関)</text><rect x="0.0" y="0.0" width="0.0" height="0.0" fill="#ffffff" fill-opacity="1.0" stroke="none"/><line x1="159.71131313131312" y1="64.53333333333333" x2="159.71131313131312" y2="196.84444444444443" stroke="#dddddd" stroke-width="0.6666666666666666"/><line x1="329.38" y1="64.53333333333333" x2="329.38" y2="196.84444444444443" stroke="#dddddd" stroke-width="0.6666666666666666"/><line x1="499.0486868686868" y1="64.53333333333333" x2="499.0486868686868" y2="196.84444444444443" stroke="#dddddd" stroke-width="0.6666666666666666"/><line x1="74.8769696969697" y1="64.53333333333333" x2="74.8769696969697" y2="196.84444444444443" stroke="#dddddd" stroke-width="1.3333333333333333"/><line x1="244.54565656565654" y1="64.53333333333333" x2="244.54565656565654" y2="196.84444444444443" stroke="#dddddd" stroke-width="1.3333333333333333"/><line x1="414.2143434343434" y1="64.53333333333333" x2="414.2143434343434" y2="196.84444444444443" stroke="#dddddd" stroke-width="1.3333333333333333"/><line x1="583.8830303030303" y1="64.53333333333333" x2="583.8830303030303" y2="196.84444444444443" stroke="#dddddd" stroke-width="1.3333333333333333"/><line x1="49.42666666666666" y1="170.90344535918442" x2="609.3333333333333" y2="170.90344535918442" stroke="#dddddd" stroke-width="0.6666666666666666"/><line x1="49.42666666666666" y1="142.23031089869596" x2="609.3333333333333" y2="142.23031089869596" stroke="#dddddd" stroke-width="0.6666666666666666"/><line x1="49.42666666666666" y1="113.55717643820748" x2="609.3333333333333" y2="113.55717643820748" stroke="#dddddd" stroke-width="0.6666666666666666"/><line x1="49.42666666666666" y1="84.884041977719" x2="609.3333333333333" y2="84.884041977719" stroke="#dddddd" stroke-width="0.6666666666666666"/><line x1="49.42666666666666" y1="185.24001258942863" x2="609.3333333333333" y2="185.24001258942863" stroke="#dddddd" stroke-width="1.3333333333333333"/><line x1="49.42666666666666" y1="156.56687812894017" x2="609.3333333333333" y2="156.56687812894017" stroke="#dddddd" stroke-width="1.3333333333333333"/><line x1="49.42666666666666" y1="127.8937436684517" x2="609.3333333333333" y2="127.8937436684517" stroke="#dddddd" stroke-width="1.3333333333333333"/><line x1="49.42666666666666" y1="99.22060920796322" x2="609.3333333333333" y2="99.22060920796322" stroke="#dddddd" stroke-width="1.3333333333333333"/><line x1="49.42666666666666" y1="70.54747474747474" x2="609.3333333333333" y2="70.54747474747474" stroke="#dddddd" stroke-width="1.3333333333333333"/><rect x="49.42666666666666" y="64.53333333333333" width="559.9066666666666" height="132.31111111111107" fill="#ffffff" fill-opacity="0.0" stroke="#444444" stroke-width="1.3333333333333333"/><line x1="74.8769696969697" y1="196.84444444444443" x2="74.8769696969697" y2="200.5111111111111" stroke="#444444" stroke-width="1.3333333333333333"/><text x="74.8769696969697" y="212.83111111111106" fill="#333333" font-size="11.733333333333334" font-family="sans-serif" text-anchor="middle">0</text><line x1="244.54565656565654" y1="196.84444444444443" x2="244.54565656565654" y2="200.5111111111111" stroke="#444444" stroke-width="1.3333333333333333"/><text x="244.54565656565654" y="212.83111111111106" fill="#333333" font-size="11.733333333333334" font-family="sans-serif" text-anchor="middle">10</text><line x1="414.2143434343434" y1="196.84444444444443" x2="414.2143434343434" y2="200.5111111111111" stroke="#444444" stroke-width="1.3333333333333333"/><text x="414.2143434343434" y="212.83111111111106" fill="#333333" font-size="11.733333333333334" font-family="sans-serif" text-anchor="middle">20</text><line x1="583.8830303030303" y1="196.84444444444443" x2="583.8830303030303" y2="200.5111111111111" stroke="#444444" stroke-width="1.3333333333333333"/><text x="583.8830303030303" y="212.83111111111106" fill="#333333" font-size="11.733333333333334" font-family="sans-serif" text-anchor="middle">30</text><line x1="49.42666666666666" y1="185.24001258942863" x2="45.76" y2="185.24001258942863" stroke="#444444" stroke-width="1.3333333333333333"/><text x="42.82666666666666" y="189.3466792560953" fill="#333333" font-size="11.733333333333334" font-family="sans-serif" text-anchor="end">0.00</text><line x1="49.42666666666666" y1="156.56687812894017" x2="45.76" y2="156.56687812894017" stroke="#444444" stroke-width="1.3333333333333333"/><text x="42.82666666666666" y="160.67354479560683" fill="#333333" font-size="11.733333333333334" font-family="sans-serif" text-anchor="end">0.25</text><line x1="49.42666666666666" y1="127.8937436684517" x2="45.76" y2="127.8937436684517" stroke="#444444" stroke-width="1.3333333333333333"/><text x="42.82666666666666" y="132.00041033511837" fill="#333333" font-size="11.733333333333334" font-family="sans-serif" text-anchor="end">0.50</text><line x1="49.42666666666666" y1="99.22060920796322" x2="45.76" y2="99.22060920796322" stroke="#444444" stroke-width="1.3333333333333333"/><text x="42.82666666666666" y="103.32727587462989" fill="#333333" font-size="11.733333333333334" font-family="sans-serif" text-anchor="end">0.75</text><line x1="49.42666666666666" y1="70.54747474747474" x2="45.76" y2="70.54747474747474" stroke="#444444" stroke-width="1.3333333333333333"/><text x="42.82666666666666" y="74.6541414141414" fill="#333333" font-size="11.733333333333334" font-family="sans-serif" text-anchor="end">1.00</text><text x="49.42666666666666" y="53.68000000000001" fill="#333333" font-size="17.599999999999998" font-family="sans-serif" text-anchor="start">a</text><text x="329.38" y="230.57777777777778" fill="#333333" font-size="14.666666666666666" font-family="sans-serif" text-anchor="middle">lag</text><rect x="69.45851808406647" y="70.54747474747474" width="10.836903225806452" height="114.6925378419539" fill="#1f77b4" fill-opacity="1.0" stroke="none"/><rect x="86.42538677093515" y="159.073248549675" width="10.836903225806452" height="26.166764039753634" fill="#1f77b4" fill-opacity="1.0" stroke="none"/><rect x="103.39225545780383" y="177.95631630956896" width="10.836903225806452" height="7.283696279859669" fill="#1f77b4" fill-opacity="1.0" stroke="none"/><rect x="120.3591241446725" y="183.87017845598885" width="10.836903225806452" height="1.369834133439781" fill="#1f77b4" fill-opacity="1.0" stroke="none"/><rect x="137.3259928315412" y="185.24001258942863" width="10.836903225806452" height="2.1387810241163834" fill="#1f77b4" fill-opacity="1.0" stroke="none"/><rect x="154.2928615184099" y="182.9555976668347" width="10.836903225806452" height="2.284414922593934" fill="#1f77b4" fill-opacity="1.0" stroke="none"/><rect x="171.25973020527857" y="184.81990244203627" width="10.836903225806452" height="0.4201101473923548" fill="#1f77b4" fill-opacity="1.0" stroke="none"/><rect x="188.22659889214725" y="185.24001258942863" width="10.836903225806452" height="3.1897135403603443" fill="#1f77b4" fill-opacity="1.0" stroke="none"/><rect x="205.193467579016" y="185.24001258942863" width="10.836903225806452" height="2.9498920681497034" fill="#1f77b4" fill-opacity="1.0" stroke="none"/><rect x="222.16033626588467" y="185.24001258942863" width="10.836903225806452" height="3.846220823295804" fill="#1f77b4" fill-opacity="1.0" stroke="none"/><rect x="239.12720495275335" y="185.24001258942863" width="10.836903225806452" height="0.38517752226668256" fill="#1f77b4" fill-opacity="1.0" stroke="none"/><rect x="256.094073639622" y="184.9546496117033" width="10.836903225806452" height="0.2853629777253369" fill="#1f77b4" fill-opacity="1.0" stroke="none"/><rect x="273.0609423264907" y="181.5155909622285" width="10.836903225806452" height="3.724421627200134" fill="#1f77b4" fill-opacity="1.0" stroke="none"/><rect x="290.0278110133594" y="182.09941013390636" width="10.836903225806452" height="3.1406024555222603" fill="#1f77b4" fill-opacity="1.0" stroke="none"/><rect x="306.99467970022806" y="184.22575371162316" width="10.836903225806452" height="1.0142588778054837" fill="#1f77b4" fill-opacity="1.0" stroke="none"/><rect x="323.96154838709674" y="185.24001258942863" width="10.836903225806452" height="1.4414182944935114" fill="#1f77b4" fill-opacity="1.0" stroke="none"/><rect x="340.9284170739654" y="185.24001258942863" width="10.836903225806452" height="4.294329764614493" fill="#1f77b4" fill-opacity="1.0" stroke="none"/><rect x="357.8952857608341" y="185.24001258942863" width="10.836903225806452" height="5.5902904408743925" fill="#1f77b4" fill-opacity="1.0" stroke="none"/><rect x="374.86215444770284" y="185.24001258942863" width="10.836903225806452" height="3.5099864657427133" fill="#1f77b4" fill-opacity="1.0" stroke="none"/><rect x="391.82902313457146" y="185.24001258942863" width="10.836903225806452" height="1.8739268339221553" fill="#1f77b4" fill-opacity="1.0" stroke="none"/><rect x="408.79589182144014" y="183.5380715570422" width="10.836903225806452" height="1.7019410323864197" fill="#1f77b4" fill-opacity="1.0" stroke="none"/><rect x="425.7627605083088" y="183.30538756943784" width="10.836903225806452" height="1.93462501999079" fill="#1f77b4" fill-opacity="1.0" stroke="none"/><rect x="442.72962919517755" y="184.40298476069967" width="10.836903225806452" height="0.8370278287289541" fill="#1f77b4" fill-opacity="1.0" stroke="none"/><rect x="459.6964978820462" y="185.24001258942863" width="10.836903225806452" height="0.7501651428523246" fill="#1f77b4" fill-opacity="1.0" stroke="none"/><rect x="476.6633665689149" y="183.35693343030238" width="10.836903225806452" height="1.8830791591262444" fill="#1f77b4" fill-opacity="1.0" stroke="none"/><rect x="493.63023525578353" y="183.8964313015531" width="10.836903225806452" height="1.3435812878755464" fill="#1f77b4" fill-opacity="1.0" stroke="none"/><rect x="510.59710394265227" y="184.99980085317532" width="10.836903225806452" height="0.24021173625332418" fill="#1f77b4" fill-opacity="1.0" stroke="none"/><rect x="527.563972629521" y="184.49761878084632" width="10.836903225806452" height="0.7423938085823162" fill="#1f77b4" fill-opacity="1.0" stroke="none"/><rect x="544.5308413163896" y="185.24001258942863" width="10.836903225806452" height="1.0986843178031525" fill="#1f77b4" fill-opacity="1.0" stroke="none"/><rect x="561.4977100032584" y="185.24001258942863" width="10.836903225806452" height="1.6016146562920994" fill="#1f77b4" fill-opacity="1.0" stroke="none"/><rect x="578.464578690127" y="184.33666520952363" width="10.836903225806452" height="0.9033473799050095" fill="#1f77b4" fill-opacity="1.0" stroke="none"/><rect x="0.0" y="0.0" width="0.0" height="0.0" fill="#ffffff" fill-opacity="1.0" stroke="none"/><line x1="159.71131313131312" y1="280.4444444444444" x2="159.71131313131312" y2="412.75555555555553" stroke="#dddddd" stroke-width="0.6666666666666666"/><line x1="329.38" y1="280.4444444444444" x2="329.38" y2="412.75555555555553" stroke="#dddddd" stroke-width="0.6666666666666666"/><line x1="499.0486868686868" y1="280.4444444444444" x2="499.0486868686868" y2="412.75555555555553" stroke="#dddddd" stroke-width="0.6666666666666666"/><line x1="74.8769696969697" y1="280.4444444444444" x2="74.8769696969697" y2="412.75555555555553" stroke="#dddddd" stroke-width="1.3333333333333333"/><line x1="244.54565656565654" y1="280.4444444444444" x2="244.54565656565654" y2="412.75555555555553" stroke="#dddddd" stroke-width="1.3333333333333333"/><line x1="414.2143434343434" y1="280.4444444444444" x2="414.2143434343434" y2="412.75555555555553" stroke="#dddddd" stroke-width="1.3333333333333333"/><line x1="583.8830303030303" y1="280.4444444444444" x2="583.8830303030303" y2="412.75555555555553" stroke="#dddddd" stroke-width="1.3333333333333333"/><line x1="49.42666666666666" y1="387.23299260025067" x2="609.3333333333333" y2="387.23299260025067" stroke="#dddddd" stroke-width="0.6666666666666666"/><line x1="49.42666666666666" y1="358.440304959775" x2="609.3333333333333" y2="358.440304959775" stroke="#dddddd" stroke-width="0.6666666666666666"/><line x1="49.42666666666666" y1="329.64761731929934" x2="609.3333333333333" y2="329.64761731929934" stroke="#dddddd" stroke-width="0.6666666666666666"/><line x1="49.42666666666666" y1="300.8549296788236" x2="609.3333333333333" y2="300.8549296788236" stroke="#dddddd" stroke-width="0.6666666666666666"/><line x1="49.42666666666666" y1="401.6293364204885" x2="609.3333333333333" y2="401.6293364204885" stroke="#dddddd" stroke-width="1.3333333333333333"/><line x1="49.42666666666666" y1="372.83664878001287" x2="609.3333333333333" y2="372.83664878001287" stroke="#dddddd" stroke-width="1.3333333333333333"/><line x1="49.42666666666666" y1="344.04396113953715" x2="609.3333333333333" y2="344.04396113953715" stroke="#dddddd" stroke-width="1.3333333333333333"/><line x1="49.42666666666666" y1="315.2512734990615" x2="609.3333333333333" y2="315.2512734990615" stroke="#dddddd" stroke-width="1.3333333333333333"/><line x1="49.42666666666666" y1="286.4585858585858" x2="609.3333333333333" y2="286.4585858585858" stroke="#dddddd" stroke-width="1.3333333333333333"/><rect x="49.42666666666666" y="280.4444444444444" width="559.9066666666666" height="132.31111111111113" fill="#ffffff" fill-opacity="0.0" stroke="#444444" stroke-width="1.3333333333333333"/><line x1="74.8769696969697" y1="412.75555555555553" x2="74.8769696969697" y2="416.4222222222222" stroke="#444444" stroke-width="1.3333333333333333"/><text x="74.8769696969697" y="428.7422222222222" fill="#333333" font-size="11.733333333333334" font-family="sans-serif" text-anchor="middle">0</text><line x1="244.54565656565654" y1="412.75555555555553" x2="244.54565656565654" y2="416.4222222222222" stroke="#444444" stroke-width="1.3333333333333333"/><text x="244.54565656565654" y="428.7422222222222" fill="#333333" font-size="11.733333333333334" font-family="sans-serif" text-anchor="middle">10</text><line x1="414.2143434343434" y1="412.75555555555553" x2="414.2143434343434" y2="416.4222222222222" stroke="#444444" stroke-width="1.3333333333333333"/><text x="414.2143434343434" y="428.7422222222222" fill="#333333" font-size="11.733333333333334" font-family="sans-serif" text-anchor="middle">20</text><line x1="583.8830303030303" y1="412.75555555555553" x2="583.8830303030303" y2="416.4222222222222" stroke="#444444" stroke-width="1.3333333333333333"/><text x="583.8830303030303" y="428.7422222222222" fill="#333333" font-size="11.733333333333334" font-family="sans-serif" text-anchor="middle">30</text><line x1="49.42666666666666" y1="401.6293364204885" x2="45.76" y2="401.6293364204885" stroke="#444444" stroke-width="1.3333333333333333"/><text x="42.82666666666666" y="405.73600308715515" fill="#333333" font-size="11.733333333333334" font-family="sans-serif" text-anchor="end">0.00</text><line x1="49.42666666666666" y1="372.83664878001287" x2="45.76" y2="372.83664878001287" stroke="#444444" stroke-width="1.3333333333333333"/><text x="42.82666666666666" y="376.9433154466795" fill="#333333" font-size="11.733333333333334" font-family="sans-serif" text-anchor="end">0.25</text><line x1="49.42666666666666" y1="344.04396113953715" x2="45.76" y2="344.04396113953715" stroke="#444444" stroke-width="1.3333333333333333"/><text x="42.82666666666666" y="348.15062780620383" fill="#333333" font-size="11.733333333333334" font-family="sans-serif" text-anchor="end">0.50</text><line x1="49.42666666666666" y1="315.2512734990615" x2="45.76" y2="315.2512734990615" stroke="#444444" stroke-width="1.3333333333333333"/><text x="42.82666666666666" y="319.35794016572817" fill="#333333" font-size="11.733333333333334" font-family="sans-serif" text-anchor="end">0.75</text><line x1="49.42666666666666" y1="286.4585858585858" x2="45.76" y2="286.4585858585858" stroke="#444444" stroke-width="1.3333333333333333"/><text x="42.82666666666666" y="290.5652525252525" fill="#333333" font-size="11.733333333333334" font-family="sans-serif" text-anchor="end">1.00</text><text x="49.42666666666666" y="269.5911111111111" fill="#333333" font-size="17.599999999999998" font-family="sans-serif" text-anchor="start">b</text><text x="329.38" y="446.4888888888889" fill="#333333" font-size="14.666666666666666" font-family="sans-serif" text-anchor="middle">lag</text><rect x="69.45851808406647" y="286.4585858585858" width="10.836903225806452" height="115.17075056190272" fill="#1f77b4" fill-opacity="1.0" stroke="none"/><rect x="86.42538677093515" y="375.12059484650337" width="10.836903225806452" height="26.508741573985162" fill="#1f77b4" fill-opacity="1.0" stroke="none"/><rect x="103.39225545780383" y="394.009147377846" width="10.836903225806452" height="7.620189042642551" fill="#1f77b4" fill-opacity="1.0" stroke="none"/><rect x="120.3591241446725" y="400.66297018148487" width="10.836903225806452" height="0.966366239003643" fill="#1f77b4" fill-opacity="1.0" stroke="none"/><rect x="137.3259928315412" y="401.6293364204885" width="10.836903225806452" height="0.5207154699054778" fill="#1f77b4" fill-opacity="1.0" stroke="none"/><rect x="154.2928615184099" y="400.5059592626011" width="10.836903225806452" height="1.1233771578874134" fill="#1f77b4" fill-opacity="1.0" stroke="none"/><rect x="171.25973020527857" y="400.71594541114325" width="10.836903225806452" height="0.9133910093452565" fill="#1f77b4" fill-opacity="1.0" stroke="none"/><rect x="188.22659889214725" y="401.6293364204885" width="10.836903225806452" height="5.112077720925602" fill="#1f77b4" fill-opacity="1.0" stroke="none"/><rect x="205.193467579016" y="401.6293364204885" width="10.836903225806452" height="3.6400142443899313" fill="#1f77b4" fill-opacity="1.0" stroke="none"/><rect x="222.16033626588467" y="401.6293364204885" width="10.836903225806452" height="3.9681534568596057" fill="#1f77b4" fill-opacity="1.0" stroke="none"/><rect x="239.12720495275335" y="401.5887244823929" width="10.836903225806452" height="4.061193809563216e-2" fill="#1f77b4" fill-opacity="1.0" stroke="none"/><rect x="256.094073639622" y="401.6293364204885" width="10.836903225806452" height="1.2731804818228434" fill="#1f77b4" fill-opacity="1.0" stroke="none"/><rect x="273.0609423264907" y="398.58943208285996" width="10.836903225806452" height="3.039904337628589" fill="#1f77b4" fill-opacity="1.0" stroke="none"/><rect x="290.0278110133594" y="399.9006586175385" width="10.836903225806452" height="1.7286778029500358" fill="#1f77b4" fill-opacity="1.0" stroke="none"/><rect x="306.99467970022806" y="401.6293364204885" width="10.836903225806452" height="0.43521857429739913" fill="#1f77b4" fill-opacity="1.0" stroke="none"/><rect x="323.96154838709674" y="401.0261334865514" width="10.836903225806452" height="0.6032029339371547" fill="#1f77b4" fill-opacity="1.0" stroke="none"/><rect x="340.9284170739654" y="401.6293364204885" width="10.836903225806452" height="4.856148938193883" fill="#1f77b4" fill-opacity="1.0" stroke="none"/><rect x="357.8952857608341" y="401.6293364204885" width="10.836903225806452" height="5.00441569354128" fill="#1f77b4" fill-opacity="1.0" stroke="none"/><rect x="374.86215444770284" y="401.6293364204885" width="10.836903225806452" height="4.023237912012442" fill="#1f77b4" fill-opacity="1.0" stroke="none"/><rect x="391.82902313457146" y="401.6293364204885" width="10.836903225806452" height="2.7971776082237434" fill="#1f77b4" fill-opacity="1.0" stroke="none"/><rect x="408.79589182144014" y="397.95994884872323" width="10.836903225806452" height="3.6693875717652795" fill="#1f77b4" fill-opacity="1.0" stroke="none"/><rect x="425.7627605083088" y="398.02910741474653" width="10.836903225806452" height="3.600229005741994" fill="#1f77b4" fill-opacity="1.0" stroke="none"/><rect x="442.72962919517755" y="399.51913648837404" width="10.836903225806452" height="2.110199932114483" fill="#1f77b4" fill-opacity="1.0" stroke="none"/><rect x="459.6964978820462" y="400.85743339009315" width="10.836903225806452" height="0.7719030303953787" fill="#1f77b4" fill-opacity="1.0" stroke="none"/><rect x="476.6633665689149" y="399.56836307303803" width="10.836903225806452" height="2.060973347450499" fill="#1f77b4" fill-opacity="1.0" stroke="none"/><rect x="493.63023525578353" y="399.611434914866" width="10.836903225806452" height="2.0179015056225276" fill="#1f77b4" fill-opacity="1.0" stroke="none"/><rect x="510.59710394265227" y="401.4921767424681" width="10.836903225806452" height="0.1371596780204527" fill="#1f77b4" fill-opacity="1.0" stroke="none"/><rect x="527.563972629521" y="400.4714470352627" width="10.836903225806452" height="1.1578893852257957" fill="#1f77b4" fill-opacity="1.0" stroke="none"/><rect x="544.5308413163896" y="401.6293364204885" width="10.836903225806452" height="0.5730892175688496" fill="#1f77b4" fill-opacity="1.0" stroke="none"/><rect x="561.4977100032584" y="401.6293364204885" width="10.836903225806452" height="0.6787134031521873" fill="#1f77b4" fill-opacity="1.0" stroke="none"/><rect x="578.464578690127" y="401.6293364204885" width="10.836903225806452" height="6.596824689525722e-2" fill="#1f77b4" fill-opacity="1.0" stroke="none"/><rect x="0.0" y="0.0" width="0.0" height="0.0" fill="#ffffff" fill-opacity="1.0" stroke="none"/><line x1="159.71131313131312" y1="496.3555555555555" x2="159.71131313131312" y2="628.6666666666666" stroke="#dddddd" stroke-width="0.6666666666666666"/><line x1="329.38" y1="496.3555555555555" x2="329.38" y2="628.6666666666666" stroke="#dddddd" stroke-width="0.6666666666666666"/><line x1="499.0486868686868" y1="496.3555555555555" x2="499.0486868686868" y2="628.6666666666666" stroke="#dddddd" stroke-width="0.6666666666666666"/><line x1="74.8769696969697" y1="496.3555555555555" x2="74.8769696969697" y2="628.6666666666666" stroke="#dddddd" stroke-width="1.3333333333333333"/><line x1="244.54565656565654" y1="496.3555555555555" x2="244.54565656565654" y2="628.6666666666666" stroke="#dddddd" stroke-width="1.3333333333333333"/><line x1="414.2143434343434" y1="496.3555555555555" x2="414.2143434343434" y2="628.6666666666666" stroke="#dddddd" stroke-width="1.3333333333333333"/><line x1="583.8830303030303" y1="496.3555555555555" x2="583.8830303030303" y2="628.6666666666666" stroke="#dddddd" stroke-width="1.3333333333333333"/><line x1="49.42666666666666" y1="603.9968129218248" x2="609.3333333333333" y2="603.9968129218248" stroke="#dddddd" stroke-width="0.6666666666666666"/><line x1="49.42666666666666" y1="574.9604940783597" x2="609.3333333333333" y2="574.9604940783597" stroke="#dddddd" stroke-width="0.6666666666666666"/><line x1="49.42666666666666" y1="545.9241752348946" x2="609.3333333333333" y2="545.9241752348946" stroke="#dddddd" stroke-width="0.6666666666666666"/><line x1="49.42666666666666" y1="516.8878563914295" x2="609.3333333333333" y2="516.8878563914295" stroke="#dddddd" stroke-width="0.6666666666666666"/><line x1="49.42666666666666" y1="618.5149723435574" x2="609.3333333333333" y2="618.5149723435574" stroke="#dddddd" stroke-width="1.3333333333333333"/><line x1="49.42666666666666" y1="589.4786535000922" x2="609.3333333333333" y2="589.4786535000922" stroke="#dddddd" stroke-width="1.3333333333333333"/><line x1="49.42666666666666" y1="560.442334656627" x2="609.3333333333333" y2="560.442334656627" stroke="#dddddd" stroke-width="1.3333333333333333"/><line x1="49.42666666666666" y1="531.406015813162" x2="609.3333333333333" y2="531.406015813162" stroke="#dddddd" stroke-width="1.3333333333333333"/><line x1="49.42666666666666" y1="502.3696969696969" x2="609.3333333333333" y2="502.3696969696969" stroke="#dddddd" stroke-width="1.3333333333333333"/><rect x="49.42666666666666" y="496.3555555555555" width="559.9066666666666" height="132.31111111111113" fill="#ffffff" fill-opacity="0.0" stroke="#444444" stroke-width="1.3333333333333333"/><line x1="74.8769696969697" y1="628.6666666666666" x2="74.8769696969697" y2="632.3333333333333" stroke="#444444" stroke-width="1.3333333333333333"/><text x="74.8769696969697" y="644.6533333333333" fill="#333333" font-size="11.733333333333334" font-family="sans-serif" text-anchor="middle">0</text><line x1="244.54565656565654" y1="628.6666666666666" x2="244.54565656565654" y2="632.3333333333333" stroke="#444444" stroke-width="1.3333333333333333"/><text x="244.54565656565654" y="644.6533333333333" fill="#333333" font-size="11.733333333333334" font-family="sans-serif" text-anchor="middle">10</text><line x1="414.2143434343434" y1="628.6666666666666" x2="414.2143434343434" y2="632.3333333333333" stroke="#444444" stroke-width="1.3333333333333333"/><text x="414.2143434343434" y="644.6533333333333" fill="#333333" font-size="11.733333333333334" font-family="sans-serif" text-anchor="middle">20</text><line x1="583.8830303030303" y1="628.6666666666666" x2="583.8830303030303" y2="632.3333333333333" stroke="#444444" stroke-width="1.3333333333333333"/><text x="583.8830303030303" y="644.6533333333333" fill="#333333" font-size="11.733333333333334" font-family="sans-serif" text-anchor="middle">30</text><line x1="49.42666666666666" y1="618.5149723435574" x2="45.76" y2="618.5149723435574" stroke="#444444" stroke-width="1.3333333333333333"/><text x="42.82666666666666" y="622.621639010224" fill="#333333" font-size="11.733333333333334" font-family="sans-serif" text-anchor="end">0.00</text><line x1="49.42666666666666" y1="589.4786535000922" x2="45.76" y2="589.4786535000922" stroke="#444444" stroke-width="1.3333333333333333"/><text x="42.82666666666666" y="593.5853201667588" fill="#333333" font-size="11.733333333333334" font-family="sans-serif" text-anchor="end">0.25</text><line x1="49.42666666666666" y1="560.442334656627" x2="45.76" y2="560.442334656627" stroke="#444444" stroke-width="1.3333333333333333"/><text x="42.82666666666666" y="564.5490013232937" fill="#333333" font-size="11.733333333333334" font-family="sans-serif" text-anchor="end">0.50</text><line x1="49.42666666666666" y1="531.406015813162" x2="45.76" y2="531.406015813162" stroke="#444444" stroke-width="1.3333333333333333"/><text x="42.82666666666666" y="535.5126824798286" fill="#333333" font-size="11.733333333333334" font-family="sans-serif" text-anchor="end">0.75</text><line x1="49.42666666666666" y1="502.3696969696969" x2="45.76" y2="502.3696969696969" stroke="#444444" stroke-width="1.3333333333333333"/><text x="42.82666666666666" y="506.47636363636354" fill="#333333" font-size="11.733333333333334" font-family="sans-serif" text-anchor="end">1.00</text><text x="49.42666666666666" y="485.5022222222222" fill="#333333" font-size="17.599999999999998" font-family="sans-serif" text-anchor="start">s</text><text x="329.38" y="662.4" fill="#333333" font-size="14.666666666666666" font-family="sans-serif" text-anchor="middle">lag</text><rect x="69.45851808406647" y="502.3696969696969" width="10.836903225806452" height="116.14527537386046" fill="#1f77b4" fill-opacity="1.0" stroke="none"/><rect x="86.42538677093515" y="584.964874723373" width="10.836903225806452" height="33.55009762018433" fill="#1f77b4" fill-opacity="1.0" stroke="none"/><rect x="103.39225545780383" y="603.4897401061072" width="10.836903225806452" height="15.025232237450155" fill="#1f77b4" fill-opacity="1.0" stroke="none"/><rect x="120.3591241446725" y="608.3321582166707" width="10.836903225806452" height="10.182814126886644" fill="#1f77b4" fill-opacity="1.0" stroke="none"/><rect x="137.3259928315412" y="614.3087705354678" width="10.836903225806452" height="4.206201808089569" fill="#1f77b4" fill-opacity="1.0" stroke="none"/><rect x="154.2928615184099" y="615.1403283294973" width="10.836903225806452" height="3.3746440140600953" fill="#1f77b4" fill-opacity="1.0" stroke="none"/><rect x="171.25973020527857" y="617.3084151689366" width="10.836903225806452" height="1.20655717462076" fill="#1f77b4" fill-opacity="1.0" stroke="none"/><rect x="188.22659889214725" y="616.8317253151869" width="10.836903225806452" height="1.683247028370488" fill="#1f77b4" fill-opacity="1.0" stroke="none"/><rect x="205.193467579016" y="618.4482504262681" width="10.836903225806452" height="6.672191728921462e-2" fill="#1f77b4" fill-opacity="1.0" stroke="none"/><rect x="222.16033626588467" y="618.5149723435574" width="10.836903225806452" height="0.6683863114142241" fill="#1f77b4" fill-opacity="1.0" stroke="none"/><rect x="239.12720495275335" y="618.5149723435574" width="10.836903225806452" height="2.525293180451399" fill="#1f77b4" fill-opacity="1.0" stroke="none"/><rect x="256.094073639622" y="618.5149723435574" width="10.836903225806452" height="1.5370076738307337" fill="#1f77b4" fill-opacity="1.0" stroke="none"/><rect x="273.0609423264907" y="618.5149723435574" width="10.836903225806452" height="0.7695838217548499" fill="#1f77b4" fill-opacity="1.0" stroke="none"/><rect x="290.0278110133594" y="617.7823669299344" width="10.836903225806452" height="0.7326054136229534" fill="#1f77b4" fill-opacity="1.0" stroke="none"/><rect x="306.99467970022806" y="618.5149723435574" width="10.836903225806452" height="1.1681203899332406" fill="#1f77b4" fill-opacity="1.0" stroke="none"/><rect x="323.96154838709674" y="618.5149723435574" width="10.836903225806452" height="1.819240815557426" fill="#1f77b4" fill-opacity="1.0" stroke="none"/><rect x="340.9284170739654" y="618.5149723435574" width="10.836903225806452" height="2.086103990255348" fill="#1f77b4" fill-opacity="1.0" stroke="none"/><rect x="357.8952857608341" y="618.5149723435574" width="10.836903225806452" height="4.023273020789626" fill="#1f77b4" fill-opacity="1.0" stroke="none"/><rect x="374.86215444770284" y="618.5149723435574" width="10.836903225806452" height="3.386334763113685" fill="#1f77b4" fill-opacity="1.0" stroke="none"/><rect x="391.82902313457146" y="618.5149723435574" width="10.836903225806452" height="4.137552908967867" fill="#1f77b4" fill-opacity="1.0" stroke="none"/><rect x="408.79589182144014" y="618.5149723435574" width="10.836903225806452" height="3.299919997533607" fill="#1f77b4" fill-opacity="1.0" stroke="none"/><rect x="425.7627605083088" y="618.3561170842385" width="10.836903225806452" height="0.15885525931889788" fill="#1f77b4" fill-opacity="1.0" stroke="none"/><rect x="442.72962919517755" y="618.5149723435574" width="10.836903225806452" height="0.8707254493549499" fill="#1f77b4" fill-opacity="1.0" stroke="none"/><rect x="459.6964978820462" y="618.5149723435574" width="10.836903225806452" height="1.9584108121053607" fill="#1f77b4" fill-opacity="1.0" stroke="none"/><rect x="476.6633665689149" y="618.5149723435574" width="10.836903225806452" height="2.5515047899907586" fill="#1f77b4" fill-opacity="1.0" stroke="none"/><rect x="493.63023525578353" y="618.5149723435574" width="10.836903225806452" height="0.15558142203432604" fill="#1f77b4" fill-opacity="1.0" stroke="none"/><rect x="510.59710394265227" y="618.5149723435574" width="10.836903225806452" height="1.0046301502794297" fill="#1f77b4" fill-opacity="1.0" stroke="none"/><rect x="527.563972629521" y="618.5149723435574" width="10.836903225806452" height="2.430439189910885" fill="#1f77b4" fill-opacity="1.0" stroke="none"/><rect x="544.5308413163896" y="618.5149723435574" width="10.836903225806452" height="0.855213054085804" fill="#1f77b4" fill-opacity="1.0" stroke="none"/><rect x="561.4977100032584" y="618.5149723435574" width="10.836903225806452" height="1.6645394862883525" fill="#1f77b4" fill-opacity="1.0" stroke="none"/><rect x="578.464578690127" y="618.5149723435574" width="10.836903225806452" height="2.6409798745757294" fill="#1f77b4" fill-opacity="1.0" stroke="none"/></svg>