<svg xmlns="http://www.w3.org/2000/svg" width="1280" height="384" viewBox="0 0 1280 384"><rect x="0.0" y="0.0" width="1280.0" height="384.0" fill="#ffffff" fill-opacity="1.0" stroke="none"/><rect x="0.0" y="0.0" width="0.0" height="0.0" fill="#ffffff" fill-opacity="1.0" stroke="none"/><line x1="62.32439955106622" y1="39.599999999999994" x2="62.32439955106622" y2="351.0" stroke="#dddddd" stroke-width="0.6666666666666666"/><line x1="158.67344556677892" y1="39.599999999999994" x2="158.67344556677892" y2="351.0" stroke="#dddddd" stroke-width="0.6666666666666666"/><line x1="255.02249158249165" y1="39.599999999999994" x2="255.02249158249165" y2="351.0" stroke="#dddddd" stroke-width="0.6666666666666666"/><line x1="351.37153759820427" y1="39.599999999999994" x2="351.37153759820427" y2="351.0" stroke="#dddddd" stroke-width="0.6666666666666666"/><line x1="110.49892255892257" y1="39.599999999999994" x2="110.49892255892257" y2="351.0" stroke="#dddddd" stroke-width="1.3333333333333333"/><line x1="206.84796857463527" y1="39.599999999999994" x2="206.84796857463527" y2="351.0" stroke="#dddddd" stroke-width="1.3333333333333333"/><line x1="303.197014590348" y1="39.599999999999994" x2="303.197014590348" y2="351.0" stroke="#dddddd" stroke-width="1.3333333333333333"/><line x1="399.5460606060606" y1="39.599999999999994" x2="399.5460606060606" y2="351.0" stroke="#dddddd" stroke-width="1.3333333333333333"/><line x1="35.346666666666664" y1="320.1817241635192" x2="416.8888888888889" y2="320.1817241635192" stroke="#dddddd" stroke-width="0.6666666666666666"/><line x1="35.346666666666664" y1="257.4888745913415" x2="416.8888888888889" y2="257.4888745913415" stroke="#dddddd" stroke-width="0.6666666666666666"/><line x1="35.346666666666664" y1="194.7960250191639" x2="416.8888888888889" y2="194.7960250191639" stroke="#dddddd" stroke-width="0.6666666666666666"/><line x1="35.346666666666664" y1="132.1031754469862" x2="416.8888888888889" y2="132.1031754469862" stroke="#dddddd" stroke-width="0.6666666666666666"/><line x1="35.346666666666664" y1="69.41032587480856" x2="416.8888888888889" y2="69.41032587480856" stroke="#dddddd" stroke-width="0.6666666666666666"/><line x1="35.346666666666664" y1="288.8352993774304" x2="416.8888888888889" y2="288.8352993774304" stroke="#dddddd" stroke-width="1.3333333333333333"/><line x1="35.346666666666664" y1="226.1424498052527" x2="416.8888888888889" y2="226.1424498052527" stroke="#dddddd" stroke-width="1.3333333333333333"/><line x1="35.346666666666664" y1="163.44960023307502" x2="416.8888888888889" y2="163.44960023307502" stroke="#dddddd" stroke-width="1.3333333333333333"/><line x1="35.346666666666664" y1="100.75675066089737" x2="416.8888888888889" y2="100.75675066089737" stroke="#dddddd" stroke-width="1.3333333333333333"/><rect x="35.346666666666664" y="39.599999999999994" width="381.5422222222222" height="311.4" fill="#ffffff" fill-opacity="0.0" stroke="#444444" stroke-width="1.3333333333333333"/><line x1="110.49892255892257" y1="351.0" x2="110.49892255892257" y2="354.66666666666663" stroke="#444444" stroke-width="1.3333333333333333"/><text x="110.49892255892257" y="366.9866666666667" fill="#333333" font-size="11.733333333333334" font-family="sans-serif" text-anchor="middle">2.5</text><line x1="206.84796857463527" y1="351.0" x2="206.84796857463527" y2="354.66666666666663" stroke="#444444" stroke-width="1.3333333333333333"/><text x="206.84796857463527" y="366.9866666666667" fill="#333333" font-size="11.733333333333334" font-family="sans-serif" text-anchor="middle">5.0</text><line x1="303.197014590348" y1="351.0" x2="303.197014590348" y2="354.66666666666663" stroke="#444444" stroke-width="1.3333333333333333"/><text x="303.197014590348" y="366.9866666666667" fill="#333333" font-size="11.733333333333334" font-family="sans-serif" text-anchor="middle">7.5</text><line x1="399.5460606060606" y1="351.0" x2="399.5460606060606" y2="354.66666666666663" stroke="#444444" stroke-width="1.3333333333333333"/><text x="399.5460606060606" y="366.9866666666667" fill="#333333" font-size="11.733333333333334" font-family="sans-serif" text-anchor="middle">10.0</text><line x1="35.346666666666664" y1="288.8352993774304" x2="31.679999999999996" y2="288.8352993774304" stroke="#444444" stroke-width="1.3333333333333333"/><text x="28.746666666666663" y="292.94196604409706" fill="#333333" font-size="11.733333333333334" font-family="sans-serif" text-anchor="end">5</text><line x1="35.346666666666664" y1="226.1424498052527" x2="31.679999999999996" y2="226.1424498052527" stroke="#444444" stroke-width="1.3333333333333333"/><text x="28.746666666666663" y="230.2491164719194" fill="#333333" font-size="11.733333333333334" font-family="sans-serif" text-anchor="end">10</text><line x1="35.346666666666664" y1="163.44960023307502" x2="31.679999999999996" y2="163.44960023307502" stroke="#444444" stroke-width="1.3333333333333333"/><text x="28.746666666666663" y="167.55626689974167" fill="#333333" font-size="11.733333333333334" font-family="sans-serif" text-anchor="end">15</text><line x1="35.346666666666664" y1="100.75675066089737" x2="31.679999999999996" y2="100.75675066089737" stroke="#444444" stroke-width="1.3333333333333333"/><text x="28.746666666666663" y="104.86341732756404" fill="#333333" font-size="11.733333333333334" font-family="sans-serif" text-anchor="end">20</text><text x="35.346666666666664" y="28.74666666666667" fill="#333333" font-size="17.599999999999998" font-family="sans-serif" text-anchor="start">CI (μ HDI)</text><path d="M 52.68949494949494 336.8454545454545 L 56.19309662279359 334.2129887588054 L 59.69669829609224 331.044494603199 L 63.200299969390876 328.3667884545002 L 66.70390164268953 325.6890823058013 L 70.20750331598816 325.05599709332796 L 73.71110498928681 322.4484142708591 L 77.21470666258546 319.54210074538867 L 80.7183083358841 316.86421110417365 L 84.22191000918275 314.33272345798366 L 87.7255116824814 311.7962991637902 L 91.22911335578002 309.1936412217492 L 94.73271502907866 305.20709232525024 L 98.23631670237731 302.5625393187693 L 101.73991837567594 299.9428341355899 L 105.24352004897459 297.2171194520407 L 108.74712172227325 294.48384179078437 L 112.2507233955719 292.0023764463599 L 115.75432506887057 288.87012368116535 L 119.25792674216919 285.9715884501665 L 122.76152841546782 283.0307386832359 L 126.26513008876648 280.4080775523565 L 129.7687317620651 279.01237037953786 L 133.27233343536378 276.07627090674293 L 136.7759351086624 273.71364807457365 L 140.27953678196104 270.84336854396963 L 143.78313845525966 269.20205270418967 L 147.28674012855834 266.5676615286652 L 150.79034180185695 263.91456194222565 L 154.29394347515557 260.96481595478787 L 157.79754514845425 258.5506850842575 L 161.30114682175292 255.84712898291724 L 164.80474849505154 253.73416075941418 L 168.30835016835022 251.39817470021768 L 171.81195184164883 249.1273488746981 L 175.31555351494745 246.62678544891105 L 178.81915518824616 243.89089037686153 L 182.32275686154475 241.33259976256141 L 185.82635853484342 239.3682551780194 L 189.32996020814204 236.94442562624232 L 192.83356188144072 234.17420621831357 L 196.3371635547393 231.50679649708414 L 199.840765228038 228.82272504713936 L 203.34436690133663 226.701058061251 L 206.84796857463527 223.9912833674153 L 210.3515702479339 221.7303343551081 L 213.85517192123257 219.51649014571854 L 217.3587735945312 217.2573050258075 L 220.8623752678298 214.60893288446454 L 224.36597694112848 213.22659876788808 L 227.86957861442716 210.31625230124 L 231.3731802877258 208.08503911917848 L 234.87678196102445 205.9367791698809 L 238.38038363432307 203.39731013296137 L 241.88398530762169 201.04050260025966 L 245.38758698092036 198.92101951796886 L 248.89118865421898 196.64994138632636 L 252.39479032751763 194.03413443224298 L 255.89839200081624 193.0545685485406 L 259.4019936741149 189.845135078367 L 262.90559534741357 187.74922381499493 L 266.4091970207122 185.6493054118003 L 269.91279869401086 183.13878887190586 L 273.4164003673095 180.85135045762718 L 276.92000204060815 178.72006240452134 L 280.4236037139068 176.3922997882212 L 283.9272053872054 174.2270057839901 L 287.4308070605041 172.59016681594701 L 290.9344087338027 170.87457638684523 L 294.4380104071014 168.26366887255054 L 297.9416120804 166.44768679954814 L 301.4452137536986 164.40362313941984 L 304.9488154269973 162.98120564252795 L 308.4524171002959 160.73255068285204 L 311.95601877359456 158.6750602853347 L 315.4596204468932 156.7865213471535 L 318.96322212019186 154.0256858793743 L 322.46682379349045 152.17324261428092 L 325.9704254667891 150.94803719260156 L 329.4740271400878 148.5611412004243 L 332.97762881338645 146.35064434004587 L 336.4812304866851 144.71732471923787 L 339.9848321599837 142.89976280844286 L 343.48843383328244 141.1743220426413 L 346.99203550658103 138.8384003653997 L 350.4956371798796 136.8275289012886 L 353.99923885317827 134.37745546994304 L 357.5028405264769 132.0399338873845 L 361.0064421997756 130.01229199110668 L 364.51004387307427 128.2102361213147 L 368.01364554637286 128.36866000658893 L 371.5172472196715 124.79996276685779 L 375.0208488929701 123.00310911036561 L 378.5244505662688 121.44417145815547 L 382.02805223956744 118.95544950527895 L 385.53165391286603 117.01270022071893 L 389.0352555861647 114.4974534751864 L 392.5388572594634 112.84670592840465 L 396.042458932762 111.29618318424971 L 399.5460606060606 108.82390660828733 L 399.5460606060606 53.75454545454541 L 396.042458932762 57.05417773179654 L 392.5388572594634 59.507837597290475 L 389.0352555861647 61.97870920342249 L 385.53165391286603 65.24993005068609 L 382.02805223956744 67.87003787882402 L 378.5244505662688 70.95514825784801 L 375.0208488929701 73.2898620197318 L 371.5172472196715 75.85753690017278 L 368.01364554637286 80.1972012180187 L 364.51004387307427 80.82643837418303 L 361.0064421997756 83.47805824111481 L 357.5028405264769 86.25653933878675 L 353.99923885317827 89.26409862424532 L 350.4956371798796 92.51386837058365 L 346.99203550658103 95.26254464029867 L 343.48843383328244 98.3296139350364 L 339.9848321599837 100.69627556227101 L 336.4812304866851 103.26817279740881 L 332.97762881338645 105.56809862822134 L 329.4740271400878 108.39450132635821 L 325.9704254667891 111.29833804171672 L 322.46682379349045 113.22493921473172 L 318.96322212019186 115.68263700447255 L 315.4596204468932 118.99809314830925 L 311.95601877359456 121.60389303141342 L 308.4524171002959 124.2386831148583 L 304.9488154269973 126.98743404723803 L 301.4452137536986 129.0617174601416 L 297.9416120804 131.6664197691482 L 294.4380104071014 134.02614397110528 L 290.9344087338027 137.12012005160153 L 287.4308070605041 139.35858386102566 L 283.9272053872054 141.42669334794124 L 280.4236037139068 143.99763149282882 L 276.92000204060815 146.71612473522202 L 273.4164003673095 149.25108255649565 L 269.91279869401086 151.83813886868694 L 266.4091970207122 154.7024278494069 L 262.90559534741357 157.0499864479774 L 259.4019936741149 159.47671272057397 L 255.89839200081624 163.03532143861912 L 252.39479032751763 164.30517669761994 L 248.89118865421898 167.26222514588017 L 245.38758698092036 169.75176323931254 L 241.88398530762169 172.23587926834284 L 238.38038363432307 174.68828573202293 L 234.87678196102445 177.285682702935 L 231.3731802877258 179.42404628794978 L 227.86957861442716 181.7400605389784 L 224.36597694112848 184.58769228999245 L 220.8623752678298 186.06974253377388 L 217.3587735945312 188.6730494790428 L 213.85517192123257 191.01102387005704 L 210.3515702479339 193.11434484081738 L 206.84796857463527 195.27067526306737 L 203.34436690133663 197.91877661594344 L 199.840765228038 199.9371870187994 L 196.3371635547393 202.32050558583924 L 192.83356188144072 204.57456746839392 L 189.32996020814204 207.02418887306504 L 185.82635853484342 209.01926954924653 L 182.32275686154475 210.7596879479982 L 178.81915518824616 212.86248682784804 L 175.31555351494745 215.2806831624097 L 171.81195184164883 217.49872295366117 L 168.30835016835022 219.30578141384308 L 164.80474849505154 221.35335191472444 L 161.30114682175292 222.94584858835776 L 157.79754514845425 225.23666630590503 L 154.29394347515557 227.1955309651392 L 150.79034180185695 229.77137852475698 L 147.28674012855834 231.81085688485445 L 143.78313845525966 233.84857463330786 L 140.27953678196104 234.95963092988555 L 136.7759351086624 237.28501360286387 L 133.27233343536378 239.03773091915667 L 129.7687317620651 241.40322961044382 L 126.26513008876648 242.2014109709727 L 122.76152841546782 244.08303524408362 L 119.25792674216919 246.38821573050737 L 115.75432506887057 248.7793159063155 L 112.2507233955719 251.22975584746555 L 108.74712172227325 253.01862281226377 L 105.24352004897459 255.11154236858567 L 101.73991837567594 257.0585674122756 L 98.23631670237731 258.9956434081994 L 94.73271502907866 260.86521033220833 L 91.22911335578002 264.11687906855343 L 87.7255116824814 266.04250351531323 L 84.22191000918275 267.8326894614569 L 80.7183083358841 269.56409312967605 L 77.21470666258546 271.4731753532857 L 73.71110498928681 273.59031587466944 L 70.20750331598816 275.5323912175568 L 66.70390164268953 275.51885210252675 L 63.200299969390876 277.61981409117107 L 59.69669829609224 279.40417985264753 L 56.19309662279359 281.71331617782425 L 52.68949494949494 283.55675900923416 Z" fill="#1f77b4" fill-opacity="0.2" stroke="none"/><line x1="52.68949494949494" y1="311.5013388116915" x2="56.19309662279359" y2="309.18613603272115" stroke="#1f77b4" stroke-width="1.4211023622047245"/><line x1="56.19309662279359" y1="309.18613603272115" x2="59.69669829609224" y2="306.87093325375076" stroke="#1f77b4" stroke-width="1.4211023622047245"/><line x1="59.69669829609224" y1="306.87093325375076" x2="63.200299969390876" y2="304.55573047478026" stroke="#1f77b4" stroke-width="1.4211023622047245"/><line x1="63.200299969390876" y1="304.55573047478026" x2="66.70390164268953" y2="302.24052769580976" stroke="#1f77b4" stroke-width="1.4211023622047245"/><line x1="66.70390164268953" y1="302.24052769580976" x2="70.20750331598816" y2="299.92532491683943" stroke="#1f77b4" stroke-width="1.4211023622047245"/><line x1="70.20750331598816" y1="299.92532491683943" x2="73.71110498928681" y2="297.61012213786904" stroke="#1f77b4" stroke-width="1.4211023622047245"/><line x1="73.71110498928681" y1="297.61012213786904" x2="77.21470666258546" y2="295.29491935889865" stroke="#1f77b4" stroke-width="1.4211023622047245"/><line x1="77.21470666258546" y1="295.29491935889865" x2="80.7183083358841" y2="292.97971657992815" stroke="#1f77b4" stroke-width="1.4211023622047245"/><line x1="80.7183083358841" y1="292.97971657992815" x2="84.22191000918275" y2="290.66451380095754" stroke="#1f77b4" stroke-width="1.4211023622047245"/><line x1="84.22191000918275" y1="290.66451380095754" x2="87.7255116824814" y2="288.34931102198715" stroke="#1f77b4" stroke-width="1.4211023622047245"/><line x1="87.7255116824814" y1="288.34931102198715" x2="91.22911335578002" y2="286.0341082430168" stroke="#1f77b4" stroke-width="1.4211023622047245"/><line x1="91.22911335578002" y1="286.0341082430168" x2="94.73271502907866" y2="283.71890546404643" stroke="#1f77b4" stroke-width="1.4211023622047245"/><line x1="94.73271502907866" y1="283.71890546404643" x2="98.23631670237731" y2="281.4037026850761" stroke="#1f77b4" stroke-width="1.4211023622047245"/><line x1="98.23631670237731" y1="281.4037026850761" x2="101.73991837567594" y2="279.0884999061056" stroke="#1f77b4" stroke-width="1.4211023622047245"/><line x1="101.73991837567594" y1="279.0884999061056" x2="105.24352004897459" y2="276.77329712713504" stroke="#1f77b4" stroke-width="1.4211023622047245"/><line x1="105.24352004897459" y1="276.77329712713504" x2="108.74712172227325" y2="274.45809434816476" stroke="#1f77b4" stroke-width="1.4211023622047245"/><line x1="108.74712172227325" y1="274.45809434816476" x2="112.2507233955719" y2="272.142891569194" stroke="#1f77b4" stroke-width="1.4211023622047245"/><line x1="112.2507233955719" y1="272.142891569194" x2="115.75432506887057" y2="269.82768879022393" stroke="#1f77b4" stroke-width="1.4211023622047245"/><line x1="115.75432506887057" y1="269.82768879022393" x2="119.25792674216919" y2="267.51248601125343" stroke="#1f77b4" stroke-width="1.4211023622047245"/><line x1="119.25792674216919" y1="267.51248601125343" x2="122.76152841546782" y2="265.1972832322831" stroke="#1f77b4" stroke-width="1.4211023622047245"/><line x1="122.76152841546782" y1="265.1972832322831" x2="126.26513008876648" y2="262.88208045331294" stroke="#1f77b4" stroke-width="1.4211023622047245"/><line x1="126.26513008876648" y1="262.88208045331294" x2="129.7687317620651" y2="260.5668776743422" stroke="#1f77b4" stroke-width="1.4211023622047245"/><line x1="129.7687317620651" y1="260.5668776743422" x2="133.27233343536378" y2="258.25167489537176" stroke="#1f77b4" stroke-width="1.4211023622047245"/><line x1="133.27233343536378" y1="258.25167489537176" x2="136.7759351086624" y2="255.9364721164012" stroke="#1f77b4" stroke-width="1.4211023622047245"/><line x1="136.7759351086624" y1="255.9364721164012" x2="140.27953678196104" y2="253.62126933743076" stroke="#1f77b4" stroke-width="1.4211023622047245"/><line x1="140.27953678196104" y1="253.62126933743076" x2="143.78313845525966" y2="251.30606655846037" stroke="#1f77b4" stroke-width="1.4211023622047245"/><line x1="143.78313845525966" y1="251.30606655846037" x2="147.28674012855834" y2="248.99086377948998" stroke="#1f77b4" stroke-width="1.4211023622047245"/><line x1="147.28674012855834" y1="248.99086377948998" x2="150.79034180185695" y2="246.67566100051945" stroke="#1f77b4" stroke-width="1.4211023622047245"/><line x1="150.79034180185695" y1="246.67566100051945" x2="154.29394347515557" y2="244.36045822154952" stroke="#1f77b4" stroke-width="1.4211023622047245"/><line x1="154.29394347515557" y1="244.36045822154952" x2="157.79754514845425" y2="242.045255442579" stroke="#1f77b4" stroke-width="1.4211023622047245"/><line x1="157.79754514845425" y1="242.045255442579" x2="161.30114682175292" y2="239.73005266360815" stroke="#1f77b4" stroke-width="1.4211023622047245"/><line x1="161.30114682175292" y1="239.73005266360815" x2="164.80474849505154" y2="237.41484988463844" stroke="#1f77b4" stroke-width="1.4211023622047245"/><line x1="164.80474849505154" y1="237.41484988463844" x2="168.30835016835022" y2="235.0996471056671" stroke="#1f77b4" stroke-width="1.4211023622047245"/><line x1="168.30835016835022" y1="235.0996471056671" x2="171.81195184164883" y2="232.7844443266969" stroke="#1f77b4" stroke-width="1.4211023622047245"/><line x1="171.81195184164883" y1="232.7844443266969" x2="175.31555351494745" y2="230.46924154772682" stroke="#1f77b4" stroke-width="1.4211023622047245"/><line x1="175.31555351494745" y1="230.46924154772682" x2="178.81915518824616" y2="228.15403876875627" stroke="#1f77b4" stroke-width="1.4211023622047245"/><line x1="178.81915518824616" y1="228.15403876875627" x2="182.32275686154475" y2="225.83883598978588" stroke="#1f77b4" stroke-width="1.4211023622047245"/><line x1="182.32275686154475" y1="225.83883598978588" x2="185.82635853484342" y2="223.5236332108155" stroke="#1f77b4" stroke-width="1.4211023622047245"/><line x1="185.82635853484342" y1="223.5236332108155" x2="189.32996020814204" y2="221.2084304318455" stroke="#1f77b4" stroke-width="1.4211023622047245"/><line x1="189.32996020814204" y1="221.2084304318455" x2="192.83356188144072" y2="218.89322765287426" stroke="#1f77b4" stroke-width="1.4211023622047245"/><line x1="192.83356188144072" y1="218.89322765287426" x2="196.3371635547393" y2="216.57802487390455" stroke="#1f77b4" stroke-width="1.4211023622047245"/><line x1="196.3371635547393" y1="216.57802487390455" x2="199.840765228038" y2="214.2628220949337" stroke="#1f77b4" stroke-width="1.4211023622047245"/><line x1="199.840765228038" y1="214.2628220949337" x2="203.34436690133663" y2="211.9476193159634" stroke="#1f77b4" stroke-width="1.4211023622047245"/><line x1="203.34436690133663" y1="211.9476193159634" x2="206.84796857463527" y2="209.63241653699257" stroke="#1f77b4" stroke-width="1.4211023622047245"/><line x1="206.84796857463527" y1="209.63241653699257" x2="210.3515702479339" y2="207.31721375802232" stroke="#1f77b4" stroke-width="1.4211023622047245"/><line x1="210.3515702479339" y1="207.31721375802232" x2="213.85517192123257" y2="205.0020109790518" stroke="#1f77b4" stroke-width="1.4211023622047245"/><line x1="213.85517192123257" y1="205.0020109790518" x2="217.3587735945312" y2="202.68680820008163" stroke="#1f77b4" stroke-width="1.4211023622047245"/><line x1="217.3587735945312" y1="202.68680820008163" x2="220.8623752678298" y2="200.37160542111113" stroke="#1f77b4" stroke-width="1.4211023622047245"/><line x1="220.8623752678298" y1="200.37160542111113" x2="224.36597694112848" y2="198.0564026421403" stroke="#1f77b4" stroke-width="1.4211023622047245"/><line x1="224.36597694112848" y1="198.0564026421403" x2="227.86957861442716" y2="195.74119986317055" stroke="#1f77b4" stroke-width="1.4211023622047245"/><line x1="227.86957861442716" y1="195.74119986317055" x2="231.3731802877258" y2="193.42599708419974" stroke="#1f77b4" stroke-width="1.4211023622047245"/><line x1="231.3731802877258" y1="193.42599708419974" x2="234.87678196102445" y2="191.11079430522955" stroke="#1f77b4" stroke-width="1.4211023622047245"/><line x1="234.87678196102445" y1="191.11079430522955" x2="238.38038363432307" y2="188.79559152625885" stroke="#1f77b4" stroke-width="1.4211023622047245"/><line x1="238.38038363432307" y1="188.79559152625885" x2="241.88398530762169" y2="186.48038874728832" stroke="#1f77b4" stroke-width="1.4211023622047245"/><line x1="241.88398530762169" y1="186.48038874728832" x2="245.38758698092036" y2="184.16518596831784" stroke="#1f77b4" stroke-width="1.4211023622047245"/><line x1="245.38758698092036" y1="184.16518596831784" x2="248.89118865421898" y2="181.84998318934745" stroke="#1f77b4" stroke-width="1.4211023622047245"/><line x1="248.89118865421898" y1="181.84998318934745" x2="252.39479032751763" y2="179.53478041037727" stroke="#1f77b4" stroke-width="1.4211023622047245"/><line x1="252.39479032751763" y1="179.53478041037727" x2="255.89839200081624" y2="177.21957763140676" stroke="#1f77b4" stroke-width="1.4211023622047245"/><line x1="255.89839200081624" y1="177.21957763140676" x2="259.4019936741149" y2="174.9043748524365" stroke="#1f77b4" stroke-width="1.4211023622047245"/><line x1="259.4019936741149" y1="174.9043748524365" x2="262.90559534741357" y2="172.58917207346602" stroke="#1f77b4" stroke-width="1.4211023622047245"/><line x1="262.90559534741357" y1="172.58917207346602" x2="266.4091970207122" y2="170.27396929449623" stroke="#1f77b4" stroke-width="1.4211023622047245"/><line x1="266.4091970207122" y1="170.27396929449623" x2="269.91279869401086" y2="167.95876651552476" stroke="#1f77b4" stroke-width="1.4211023622047245"/><line x1="269.91279869401086" y1="167.95876651552476" x2="273.4164003673095" y2="165.64356373655443" stroke="#1f77b4" stroke-width="1.4211023622047245"/><line x1="273.4164003673095" y1="165.64356373655443" x2="276.92000204060815" y2="163.32836095758455" stroke="#1f77b4" stroke-width="1.4211023622047245"/><line x1="276.92000204060815" y1="163.32836095758455" x2="280.4236037139068" y2="161.01315817861382" stroke="#1f77b4" stroke-width="1.4211023622047245"/><line x1="280.4236037139068" y1="161.01315817861382" x2="283.9272053872054" y2="158.69795539964338" stroke="#1f77b4" stroke-width="1.4211023622047245"/><line x1="283.9272053872054" y1="158.69795539964338" x2="287.4308070605041" y2="156.38275262067353" stroke="#1f77b4" stroke-width="1.4211023622047245"/><line x1="287.4308070605041" y1="156.38275262067353" x2="290.9344087338027" y2="154.067549841703" stroke="#1f77b4" stroke-width="1.4211023622047245"/><line x1="290.9344087338027" y1="154.067549841703" x2="294.4380104071014" y2="151.75234706273272" stroke="#1f77b4" stroke-width="1.4211023622047245"/><line x1="294.4380104071014" y1="151.75234706273272" x2="297.9416120804" y2="149.43714428376182" stroke="#1f77b4" stroke-width="1.4211023622047245"/><line x1="297.9416120804" y1="149.43714428376182" x2="301.4452137536986" y2="147.12194150479132" stroke="#1f77b4" stroke-width="1.4211023622047245"/><line x1="301.4452137536986" y1="147.12194150479132" x2="304.9488154269973" y2="144.80673872582122" stroke="#1f77b4" stroke-width="1.4211023622047245"/><line x1="304.9488154269973" y1="144.80673872582122" x2="308.4524171002959" y2="142.49153594685086" stroke="#1f77b4" stroke-width="1.4211023622047245"/><line x1="308.4524171002959" y1="142.49153594685086" x2="311.95601877359456" y2="140.17633316788078" stroke="#1f77b4" stroke-width="1.4211023622047245"/><line x1="311.95601877359456" y1="140.17633316788078" x2="315.4596204468932" y2="137.86113038890966" stroke="#1f77b4" stroke-width="1.4211023622047245"/><line x1="315.4596204468932" y1="137.86113038890966" x2="318.96322212019186" y2="135.5459276099388" stroke="#1f77b4" stroke-width="1.4211023622047245"/><line x1="318.96322212019186" y1="135.5459276099388" x2="322.46682379349045" y2="133.23072483096874" stroke="#1f77b4" stroke-width="1.4211023622047245"/><line x1="322.46682379349045" y1="133.23072483096874" x2="325.9704254667891" y2="130.91552205199866" stroke="#1f77b4" stroke-width="1.4211023622047245"/><line x1="325.9704254667891" y1="130.91552205199866" x2="329.4740271400878" y2="128.60031927302754" stroke="#1f77b4" stroke-width="1.4211023622047245"/><line x1="329.4740271400878" y1="128.60031927302754" x2="332.97762881338645" y2="126.28511649405762" stroke="#1f77b4" stroke-width="1.4211023622047245"/><line x1="332.97762881338645" y1="126.28511649405762" x2="336.4812304866851" y2="123.96991371508753" stroke="#1f77b4" stroke-width="1.4211023622047245"/><line x1="336.4812304866851" y1="123.96991371508753" x2="339.9848321599837" y2="121.65471093611646" stroke="#1f77b4" stroke-width="1.4211023622047245"/><line x1="339.9848321599837" y1="121.65471093611646" x2="343.48843383328244" y2="119.3395081571465" stroke="#1f77b4" stroke-width="1.4211023622047245"/><line x1="343.48843383328244" y1="119.3395081571465" x2="346.99203550658103" y2="117.02430537817588" stroke="#1f77b4" stroke-width="1.4211023622047245"/><line x1="346.99203550658103" y1="117.02430537817588" x2="350.4956371798796" y2="114.70910259920561" stroke="#1f77b4" stroke-width="1.4211023622047245"/><line x1="350.4956371798796" y1="114.70910259920561" x2="353.99923885317827" y2="112.39389982023502" stroke="#1f77b4" stroke-width="1.4211023622047245"/><line x1="353.99923885317827" y1="112.39389982023502" x2="357.5028405264769" y2="110.07869704126472" stroke="#1f77b4" stroke-width="1.4211023622047245"/><line x1="357.5028405264769" y1="110.07869704126472" x2="361.0064421997756" y2="107.7634942622939" stroke="#1f77b4" stroke-width="1.4211023622047245"/><line x1="361.0064421997756" y1="107.7634942622939" x2="364.51004387307427" y2="105.44829148332386" stroke="#1f77b4" stroke-width="1.4211023622047245"/><line x1="364.51004387307427" y1="105.44829148332386" x2="368.01364554637286" y2="103.13308870435287" stroke="#1f77b4" stroke-width="1.4211023622047245"/><line x1="368.01364554637286" y1="103.13308870435287" x2="371.5172472196715" y2="100.81788592538308" stroke="#1f77b4" stroke-width="1.4211023622047245"/><line x1="371.5172472196715" y1="100.81788592538308" x2="375.0208488929701" y2="98.50268314641303" stroke="#1f77b4" stroke-width="1.4211023622047245"/><line x1="375.0208488929701" y1="98.50268314641303" x2="378.5244505662688" y2="96.18748036744239" stroke="#1f77b4" stroke-width="1.4211023622047245"/><line x1="378.5244505662688" y1="96.18748036744239" x2="382.02805223956744" y2="93.87227758847169" stroke="#1f77b4" stroke-width="1.4211023622047245"/><line x1="382.02805223956744" y1="93.87227758847169" x2="385.53165391286603" y2="91.55707480950093" stroke="#1f77b4" stroke-width="1.4211023622047245"/><line x1="385.53165391286603" y1="91.55707480950093" x2="389.0352555861647" y2="89.24187203053096" stroke="#1f77b4" stroke-width="1.4211023622047245"/><line x1="389.0352555861647" y1="89.24187203053096" x2="392.5388572594634" y2="86.92666925156018" stroke="#1f77b4" stroke-width="1.4211023622047245"/><line x1="392.5388572594634" y1="86.92666925156018" x2="396.042458932762" y2="84.61146647259113" stroke="#1f77b4" stroke-width="1.4211023622047245"/><line x1="396.042458932762" y1="84.61146647259113" x2="399.5460606060606" y2="82.29626369361952" stroke="#1f77b4" stroke-width="1.4211023622047245"/><circle cx="52.68949494949494" cy="287.5814423859868" r="3.1181102362204727" fill="#1f77b4" fill-opacity="0.85" stroke="none"><title>(1, 5.1)</title></circle><circle cx="91.22911335578002" cy="308.8970112405272" r="3.1181102362204727" fill="#1f77b4" fill-opacity="0.85" stroke="none"><title>(2, 3.4)</title></circle><circle cx="129.7687317620651" cy="233.66559175391401" r="3.1181102362204727" fill="#1f77b4" fill-opacity="0.85" stroke="none"><title>(3, 9.4)</title></circle><circle cx="168.30835016835022" cy="273.7890154801077" r="3.1181102362204727" fill="#1f77b4" fill-opacity="0.85" stroke="none"><title>(4, 6.2)</title></circle><circle cx="206.84796857463527" cy="197.30373900205097" r="3.1181102362204727" fill="#1f77b4" fill-opacity="0.85" stroke="none"><title>(5, 12.3)</title></circle><circle cx="245.38758698092036" cy="179.74974112184125" r="3.1181102362204727" fill="#1f77b4" fill-opacity="0.85" stroke="none"><title>(6, 13.7)</title></circle><circle cx="283.9272053872054" cy="191.0344540448332" r="3.1181102362204727" fill="#1f77b4" fill-opacity="0.85" stroke="none"><title>(7, 12.8)</title></circle><circle cx="322.46682379349045" cy="102.01060765234092" r="3.1181102362204727" fill="#1f77b4" fill-opacity="0.85" stroke="none"><title>(8, 19.9)</title></circle><circle cx="361.0064421997756" cy="127.087747481212" r="3.1181102362204727" fill="#1f77b4" fill-opacity="0.85" stroke="none"><title>(9, 17.9)</title></circle><circle cx="399.5460606060606" cy="65.64875490047787" r="3.1181102362204727" fill="#1f77b4" fill-opacity="0.85" stroke="none"><title>(10, 22.8)</title></circle><rect x="0.0" y="0.0" width="0.0" height="0.0" fill="#ffffff" fill-opacity="1.0" stroke="none"/><line x1="486.5466217732884" y1="39.599999999999994" x2="486.5466217732884" y2="351.0" stroke="#dddddd" stroke-width="0.6666666666666666"/><line x1="582.8956677890011" y1="39.599999999999994" x2="582.8956677890011" y2="351.0" stroke="#dddddd" stroke-width="0.6666666666666666"/><line x1="679.2447138047139" y1="39.599999999999994" x2="679.2447138047139" y2="351.0" stroke="#dddddd" stroke-width="0.6666666666666666"/><line x1="775.5937598204265" y1="39.599999999999994" x2="775.5937598204265" y2="351.0" stroke="#dddddd" stroke-width="0.6666666666666666"/><line x1="534.7211447811447" y1="39.599999999999994" x2="534.7211447811447" y2="351.0" stroke="#dddddd" stroke-width="1.3333333333333333"/><line x1="631.0701907968574" y1="39.599999999999994" x2="631.0701907968574" y2="351.0" stroke="#dddddd" stroke-width="1.3333333333333333"/><line x1="727.4192368125701" y1="39.599999999999994" x2="727.4192368125701" y2="351.0" stroke="#dddddd" stroke-width="1.3333333333333333"/><line x1="823.7682828282828" y1="39.599999999999994" x2="823.7682828282828" y2="351.0" stroke="#dddddd" stroke-width="1.3333333333333333"/><line x1="459.56888888888886" y1="300.49493551615205" x2="841.1111111111111" y2="300.49493551615205" stroke="#dddddd" stroke-width="0.6666666666666666"/><line x1="459.56888888888886" y1="248.1464339743423" x2="841.1111111111111" y2="248.1464339743423" stroke="#dddddd" stroke-width="0.6666666666666666"/><line x1="459.56888888888886" y1="195.79793243253266" x2="841.1111111111111" y2="195.79793243253266" stroke="#dddddd" stroke-width="0.6666666666666666"/><line x1="459.56888888888886" y1="143.44943089072288" x2="841.1111111111111" y2="143.44943089072288" stroke="#dddddd" stroke-width="0.6666666666666666"/><line x1="459.56888888888886" y1="91.10092934891318" x2="841.1111111111111" y2="91.10092934891318" stroke="#dddddd" stroke-width="0.6666666666666666"/><line x1="459.56888888888886" y1="326.6691862870569" x2="841.1111111111111" y2="326.6691862870569" stroke="#dddddd" stroke-width="1.3333333333333333"/><line x1="459.56888888888886" y1="274.32068474524715" x2="841.1111111111111" y2="274.32068474524715" stroke="#dddddd" stroke-width="1.3333333333333333"/><line x1="459.56888888888886" y1="221.97218320343748" x2="841.1111111111111" y2="221.97218320343748" stroke="#dddddd" stroke-width="1.3333333333333333"/><line x1="459.56888888888886" y1="169.62368166162776" x2="841.1111111111111" y2="169.62368166162776" stroke="#dddddd" stroke-width="1.3333333333333333"/><line x1="459.56888888888886" y1="117.27518011981806" x2="841.1111111111111" y2="117.27518011981806" stroke="#dddddd" stroke-width="1.3333333333333333"/><line x1="459.56888888888886" y1="64.92667857800832" x2="841.1111111111111" y2="64.92667857800832" stroke="#dddddd" stroke-width="1.3333333333333333"/><rect x="459.56888888888886" y="39.599999999999994" width="381.5422222222222" height="311.4" fill="#ffffff" fill-opacity="0.0" stroke="#444444" stroke-width="1.3333333333333333"/><line x1="534.7211447811447" y1="351.0" x2="534.7211447811447" y2="354.66666666666663" stroke="#444444" stroke-width="1.3333333333333333"/><text x="534.7211447811447" y="366.9866666666667" fill="#333333" font-size="11.733333333333334" font-family="sans-serif" text-anchor="middle">2.5</text><line x1="631.0701907968574" y1="351.0" x2="631.0701907968574" y2="354.66666666666663" stroke="#444444" stroke-width="1.3333333333333333"/><text x="631.0701907968574" y="366.9866666666667" fill="#333333" font-size="11.733333333333334" font-family="sans-serif" text-anchor="middle">5.0</text><line x1="727.4192368125701" y1="351.0" x2="727.4192368125701" y2="354.66666666666663" stroke="#444444" stroke-width="1.3333333333333333"/><text x="727.4192368125701" y="366.9866666666667" fill="#333333" font-size="11.733333333333334" font-family="sans-serif" text-anchor="middle">7.5</text><line x1="823.7682828282828" y1="351.0" x2="823.7682828282828" y2="354.66666666666663" stroke="#444444" stroke-width="1.3333333333333333"/><text x="823.7682828282828" y="366.9866666666667" fill="#333333" font-size="11.733333333333334" font-family="sans-serif" text-anchor="middle">10.0</text><line x1="459.56888888888886" y1="326.6691862870569" x2="455.90222222222224" y2="326.6691862870569" stroke="#444444" stroke-width="1.3333333333333333"/><text x="452.9688888888889" y="330.7758529537236" fill="#333333" font-size="11.733333333333334" font-family="sans-serif" text-anchor="end">0</text><line x1="459.56888888888886" y1="274.32068474524715" x2="455.90222222222224" y2="274.32068474524715" stroke="#444444" stroke-width="1.3333333333333333"/><text x="452.9688888888889" y="278.42735141191383" fill="#333333" font-size="11.733333333333334" font-family="sans-serif" text-anchor="end">5</text><line x1="459.56888888888886" y1="221.97218320343748" x2="455.90222222222224" y2="221.97218320343748" stroke="#444444" stroke-width="1.3333333333333333"/><text x="452.9688888888889" y="226.07884987010416" fill="#333333" font-size="11.733333333333334" font-family="sans-serif" text-anchor="end">10</text><line x1="459.56888888888886" y1="169.62368166162776" x2="455.90222222222224" y2="169.62368166162776" stroke="#444444" stroke-width="1.3333333333333333"/><text x="452.9688888888889" y="173.73034832829444" fill="#333333" font-size="11.733333333333334" font-family="sans-serif" text-anchor="end">15</text><line x1="459.56888888888886" y1="117.27518011981806" x2="455.90222222222224" y2="117.27518011981806" stroke="#444444" stroke-width="1.3333333333333333"/><text x="452.9688888888889" y="121.38184678648472" fill="#333333" font-size="11.733333333333334" font-family="sans-serif" text-anchor="end">20</text><line x1="459.56888888888886" y1="64.92667857800832" x2="455.90222222222224" y2="64.92667857800832" stroke="#444444" stroke-width="1.3333333333333333"/><text x="452.9688888888889" y="69.03334524467499" fill="#333333" font-size="11.733333333333334" font-family="sans-serif" text-anchor="end">25</text><text x="459.56888888888886" y="28.74666666666667" fill="#333333" font-size="17.599999999999998" font-family="sans-serif" text-anchor="start">PI (観測ノイズ込み)</text><path d="M 476.91171717171716 336.8454545454545 L 480.4153188450158 335.00542521254596 L 483.9189205183145 332.2046847238844 L 487.4225221916131 334.1843274688663 L 490.92612386491174 332.046527767969 L 494.4297255382104 329.5438701497727 L 497.933327211509 327.4239161156978 L 501.4369288848077 325.0608044019407 L 504.94053055810633 322.9846335891023 L 508.444132231405 319.8059699063557 L 511.94773390470357 318.8672193240555 L 515.4513355780023 316.7561211505872 L 518.9549372513009 314.71761461934955 L 522.4585389245995 312.8672466857879 L 525.9621405978982 310.7332746323882 L 529.4657422711969 308.16272512998785 L 532.9693439444954 306.49151878143795 L 536.472945617794 304.5826741358203 L 539.9765472910927 302.3539481270242 L 543.4801489643914 301.24429079799927 L 546.98375063769 298.8623705077579 L 550.4873523109886 297.0051831599541 L 553.9909539842873 295.09598339991453 L 557.494555657586 292.9955052047552 L 560.9981573308846 290.5896988971442 L 564.5017590041832 288.8195464829056 L 568.0053606774819 284.93610681191694 L 571.5089623507805 282.63720559472716 L 575.0125640240792 280.37192189662824 L 578.5161656973778 278.2145183199606 L 582.0197673706764 279.614230568325 L 585.5233690439751 277.67844853587155 L 589.0269707172738 275.44954905083137 L 592.5305723905724 273.516386938066 L 596.034174063871 271.4387849479648 L 599.5377757371697 269.50758922186026 L 603.0413774104684 267.7343982768785 L 606.544979083767 261.7562959071015 L 610.0485807570656 262.95550449835036 L 613.5521824303643 261.22563682408037 L 617.055784103663 258.8942313800399 L 620.5593857769616 256.7334816103704 L 624.0629874502602 255.02210070856 L 627.5665891235589 253.24370497045177 L 631.0701907968574 250.05406448320133 L 634.5737924701561 246.27410364989947 L 638.0773941434547 244.3000579741447 L 641.5809958167534 242.3260122983898 L 645.084597490052 243.4235600972833 L 648.5881991633507 241.34028969168116 L 652.0918008366493 238.00734342842003 L 655.595402509948 236.29625851047905 L 659.0990041832466 234.177682703448 L 662.6026058565453 232.56672728089978 L 666.1062075298439 230.19451972015673 L 669.6098092031426 226.1285255272219 L 673.1134108764412 224.28995641799798 L 676.6170125497398 221.45485037569938 L 680.1206142230385 219.6406948997901 L 683.6242158963371 217.90588821486534 L 687.1278175696358 216.38342433790888 L 690.6314192429345 214.74259115461032 L 694.1350209162331 213.03171613723651 L 697.6386225895318 212.4860956108153 L 701.1422242628305 210.42879727919583 L 704.645825936129 208.43261021791616 L 708.1494276094277 206.496476616978 L 711.6530292827263 204.78417615763615 L 715.156630956025 203.2326978757028 L 718.6602326293237 201.21896521583326 L 722.1638343026221 198.3719423608709 L 725.6674359759209 196.76590351386199 L 729.1710376492194 194.63431147614216 L 732.6746393225181 193.27578808834392 L 736.1782409958169 191.16196391051454 L 739.6818426691154 189.4257901277008 L 743.1854443424141 188.54161626499967 L 746.6890460157126 187.9729213118577 L 750.1926476890113 185.85698039883903 L 753.69624936231 184.09916815366932 L 757.1998510356086 182.3260485125548 L 760.7034527089073 180.5997447945943 L 764.2070543822058 178.51017886835518 L 767.7106560555046 176.81019436884222 L 771.2142577288032 174.8789986427377 L 774.7178594021018 171.22062045797475 L 778.2214610754005 169.44864179407807 L 781.7250627486992 167.6766631301814 L 785.2286644219978 165.85366541463276 L 788.7322660952965 164.1327058023881 L 792.235867768595 163.57039953368397 L 795.7394694418938 161.87818363915088 L 799.2430711151924 160.02468761464732 L 802.746672788491 158.3583524683568 L 806.2502744617897 153.78861674341923 L 809.7538761350881 152.1196569124418 L 813.2574778083869 150.26408355246252 L 816.7610794816856 148.28155116883585 L 820.2646811549841 146.53447952935235 L 823.7682828282828 145.12235278587062 L 823.7682828282828 53.75454545454541 L 820.2646811549841 55.73770165149964 L 816.7610794816856 57.880334443779205 L 813.2574778083869 60.02296723605873 L 809.7538761350881 61.99009308389702 L 806.2502744617897 63.71126763797 L 802.746672788491 68.74720125869149 L 799.2430711151924 70.72483730095658 L 795.7394694418938 72.88789888771501 L 792.235867768595 74.7483737930166 L 788.7322660952965 75.69824659596543 L 785.2286644219978 77.69449998662037 L 781.7250627486992 79.76707038790008 L 778.2214610754005 81.76778584156571 L 774.7178594021018 83.70884381391411 L 771.2142577288032 87.55241517150193 L 767.7106560555046 89.74197734295542 L 764.2070543822058 91.68769079955896 L 760.7034527089073 94.00459310094655 L 757.1998510356086 96.09457839970165 L 753.69624936231 98.11186142911204 L 750.1926476890113 99.83079703966241 L 746.6890460157126 102.08012310044364 L 743.1854443424141 102.82100680929196 L 739.6818426691154 103.992676150162 L 736.1782409958169 105.98111424384463 L 732.6746393225181 108.05990965841909 L 729.1710376492194 109.60132126633974 L 725.6674359759209 111.8000582140623 L 722.1638343026221 113.48896966287808 L 718.6602326293237 116.48425426690513 L 715.156630956025 118.73187296528059 L 711.6530292827263 120.57989153511494 L 708.1494276094277 122.3593263459635 L 704.645825936129 124.18563473140708 L 701.1422242628305 126.38524506460449 L 697.6386225895318 128.50453326418224 L 694.1350209162331 129.03956324903132 L 690.6314192429345 130.87692545142795 L 687.1278175696358 132.60327238478362 L 683.6242158963371 134.17551060421255 L 680.1206142230385 136.11102382574336 L 676.6170125497398 137.70670401613665 L 673.1134108764412 140.41981446827316 L 669.6098092031426 142.26984805598514 L 666.1062075298439 146.24453455700905 L 662.6026058565453 148.76342442112016 L 659.0990041832466 150.29243878732018 L 655.595402509948 152.4142440384158 L 652.0918008366493 153.883808419018 L 648.5881991633507 157.20456970692487 L 645.084597490052 159.25118099756963 L 641.5809958167534 158.15657061295408 L 638.0773941434547 160.03531341753182 L 634.5737924701561 161.87743698489078 L 631.0701907968574 165.6382800611872 L 627.5665891235589 168.6332898849753 L 624.0629874502602 170.35646814245553 L 620.5593857769616 172.0691963258959 L 617.055784103663 174.21571352137255 L 613.5521824303643 176.29760294941764 L 610.0485807570656 177.94559936544434 L 606.544979083767 176.4869596498816 L 603.0413774104684 182.51258608645972 L 599.5377757371697 184.43941267312758 L 596.034174063871 186.31517043844883 L 592.5305723905724 188.15313349995918 L 589.0269707172738 190.0114068367398 L 585.5233690439751 192.1839472972088 L 582.0197673706764 194.06114098685572 L 578.5161656973778 192.4205123505992 L 575.0125640240792 194.53698630467676 L 571.5089623507805 196.66601112155536 L 568.0053606774819 198.72437469918705 L 564.5017590041832 202.4687373068331 L 560.9981573308846 204.14598675222854 L 557.494555657586 206.424233128394 L 553.9909539842873 208.4577895388095 L 550.4873523109886 210.08893671900654 L 546.98375063769 211.68601539519173 L 543.4801489643914 213.7815565007453 L 539.9765472910927 214.53261737180765 L 536.472945617794 216.64396836402057 L 532.9693439444954 218.45547636941257 L 529.4657422711969 219.93179445827332 L 525.9621405978982 222.31086026467375 L 522.4585389245995 224.27609821371271 L 518.9549372513009 225.99237857537253 L 515.4513355780023 227.64273558444478 L 511.94773390470357 229.47357149705215 L 508.444132231405 230.238795591955 L 504.94053055810633 232.93708010573565 L 501.4369288848077 234.66074339104821 L 497.933327211509 236.70544259063405 L 494.4297255382104 238.57245759435037 L 490.92612386491174 240.5719043738544 L 487.4225221916131 242.33007990247285 L 483.9189205183145 239.98014512041811 L 480.4153188450158 242.48387477705387 L 476.91171717171716 244.20332575810357 Z" fill="#1f77b4" fill-opacity="0.2" stroke="none"/><line x1="476.91171717171716" y1="293.2468176035901" x2="480.4153188450158" y2="291.3136243116661" stroke="#1f77b4" stroke-width="1.4211023622047245"/><line x1="480.4153188450158" y1="291.3136243116661" x2="483.9189205183145" y2="289.3804310197421" stroke="#1f77b4" stroke-width="1.4211023622047245"/><line x1="483.9189205183145" y1="289.3804310197421" x2="487.4225221916131" y2="287.44723772781805" stroke="#1f77b4" stroke-width="1.4211023622047245"/><line x1="487.4225221916131" y1="287.44723772781805" x2="490.92612386491174" y2="285.51404443589394" stroke="#1f77b4" stroke-width="1.4211023622047245"/><line x1="490.92612386491174" y1="285.51404443589394" x2="494.4297255382104" y2="283.58085114397" stroke="#1f77b4" stroke-width="1.4211023622047245"/><line x1="494.4297255382104" y1="283.58085114397" x2="497.933327211509" y2="281.647657852046" stroke="#1f77b4" stroke-width="1.4211023622047245"/><line x1="497.933327211509" y1="281.647657852046" x2="501.4369288848077" y2="279.71446456012205" stroke="#1f77b4" stroke-width="1.4211023622047245"/><line x1="501.4369288848077" y1="279.71446456012205" x2="504.94053055810633" y2="277.781271268198" stroke="#1f77b4" stroke-width="1.4211023622047245"/><line x1="504.94053055810633" y1="277.781271268198" x2="508.444132231405" y2="275.84807797627377" stroke="#1f77b4" stroke-width="1.4211023622047245"/><line x1="508.444132231405" y1="275.84807797627377" x2="511.94773390470357" y2="273.9148846843498" stroke="#1f77b4" stroke-width="1.4211023622047245"/><line x1="511.94773390470357" y1="273.9148846843498" x2="515.4513355780023" y2="271.98169139242583" stroke="#1f77b4" stroke-width="1.4211023622047245"/><line x1="515.4513355780023" y1="271.98169139242583" x2="518.9549372513009" y2="270.04849810050183" stroke="#1f77b4" stroke-width="1.4211023622047245"/><line x1="518.9549372513009" y1="270.04849810050183" x2="522.4585389245995" y2="268.11530480857795" stroke="#1f77b4" stroke-width="1.4211023622047245"/><line x1="522.4585389245995" y1="268.11530480857795" x2="525.9621405978982" y2="266.18211151665383" stroke="#1f77b4" stroke-width="1.4211023622047245"/><line x1="525.9621405978982" y1="266.18211151665383" x2="529.4657422711969" y2="264.24891822472966" stroke="#1f77b4" stroke-width="1.4211023622047245"/><line x1="529.4657422711969" y1="264.24891822472966" x2="532.9693439444954" y2="262.3157249328058" stroke="#1f77b4" stroke-width="1.4211023622047245"/><line x1="532.9693439444954" y1="262.3157249328058" x2="536.472945617794" y2="260.38253164088144" stroke="#1f77b4" stroke-width="1.4211023622047245"/><line x1="536.472945617794" y1="260.38253164088144" x2="539.9765472910927" y2="258.44933834895784" stroke="#1f77b4" stroke-width="1.4211023622047245"/><line x1="539.9765472910927" y1="258.44933834895784" x2="543.4801489643914" y2="256.5161450570337" stroke="#1f77b4" stroke-width="1.4211023622047245"/><line x1="543.4801489643914" y1="256.5161450570337" x2="546.98375063769" y2="254.58295176510978" stroke="#1f77b4" stroke-width="1.4211023622047245"/><line x1="546.98375063769" y1="254.58295176510978" x2="550.4873523109886" y2="252.64975847318593" stroke="#1f77b4" stroke-width="1.4211023622047245"/><line x1="550.4873523109886" y1="252.64975847318593" x2="553.9909539842873" y2="250.71656518126173" stroke="#1f77b4" stroke-width="1.4211023622047245"/><line x1="553.9909539842873" y1="250.71656518126173" x2="557.494555657586" y2="248.78337188933762" stroke="#1f77b4" stroke-width="1.4211023622047245"/><line x1="557.494555657586" y1="248.78337188933762" x2="560.9981573308846" y2="246.85017859741356" stroke="#1f77b4" stroke-width="1.4211023622047245"/><line x1="560.9981573308846" y1="246.85017859741356" x2="564.5017590041832" y2="244.9169853054895" stroke="#1f77b4" stroke-width="1.4211023622047245"/><line x1="564.5017590041832" y1="244.9169853054895" x2="568.0053606774819" y2="242.9837920135655" stroke="#1f77b4" stroke-width="1.4211023622047245"/><line x1="568.0053606774819" y1="242.9837920135655" x2="571.5089623507805" y2="241.0505987216415" stroke="#1f77b4" stroke-width="1.4211023622047245"/><line x1="571.5089623507805" y1="241.0505987216415" x2="575.0125640240792" y2="239.1174054297174" stroke="#1f77b4" stroke-width="1.4211023622047245"/><line x1="575.0125640240792" y1="239.1174054297174" x2="578.5161656973778" y2="237.18421213779385" stroke="#1f77b4" stroke-width="1.4211023622047245"/><line x1="578.5161656973778" y1="237.18421213779385" x2="582.0197673706764" y2="235.2510188458697" stroke="#1f77b4" stroke-width="1.4211023622047245"/><line x1="582.0197673706764" y1="235.2510188458697" x2="585.5233690439751" y2="233.31782555394534" stroke="#1f77b4" stroke-width="1.4211023622047245"/><line x1="585.5233690439751" y1="233.31782555394534" x2="589.0269707172738" y2="231.3846322620219" stroke="#1f77b4" stroke-width="1.4211023622047245"/><line x1="589.0269707172738" y1="231.3846322620219" x2="592.5305723905724" y2="229.45143897009714" stroke="#1f77b4" stroke-width="1.4211023622047245"/><line x1="592.5305723905724" y1="229.45143897009714" x2="596.034174063871" y2="227.51824567817334" stroke="#1f77b4" stroke-width="1.4211023622047245"/><line x1="596.034174063871" y1="227.51824567817334" x2="599.5377757371697" y2="225.5850523862496" stroke="#1f77b4" stroke-width="1.4211023622047245"/><line x1="599.5377757371697" y1="225.5850523862496" x2="603.0413774104684" y2="223.6518590943255" stroke="#1f77b4" stroke-width="1.4211023622047245"/><line x1="603.0413774104684" y1="223.6518590943255" x2="606.544979083767" y2="221.7186658024015" stroke="#1f77b4" stroke-width="1.4211023622047245"/><line x1="606.544979083767" y1="221.7186658024015" x2="610.0485807570656" y2="219.7854725104775" stroke="#1f77b4" stroke-width="1.4211023622047245"/><line x1="610.0485807570656" y1="219.7854725104775" x2="613.5521824303643" y2="217.8522792185538" stroke="#1f77b4" stroke-width="1.4211023622047245"/><line x1="613.5521824303643" y1="217.8522792185538" x2="617.055784103663" y2="215.91908592662912" stroke="#1f77b4" stroke-width="1.4211023622047245"/><line x1="617.055784103663" y1="215.91908592662912" x2="620.5593857769616" y2="213.98589263470572" stroke="#1f77b4" stroke-width="1.4211023622047245"/><line x1="620.5593857769616" y1="213.98589263470572" x2="624.0629874502602" y2="212.05269934278135" stroke="#1f77b4" stroke-width="1.4211023622047245"/><line x1="624.0629874502602" y1="212.05269934278135" x2="627.5665891235589" y2="210.1195060508574" stroke="#1f77b4" stroke-width="1.4211023622047245"/><line x1="627.5665891235589" y1="210.1195060508574" x2="631.0701907968574" y2="208.18631275893304" stroke="#1f77b4" stroke-width="1.4211023622047245"/><line x1="631.0701907968574" y1="208.18631275893304" x2="634.5737924701561" y2="206.25311946700918" stroke="#1f77b4" stroke-width="1.4211023622047245"/><line x1="634.5737924701561" y1="206.25311946700918" x2="638.0773941434547" y2="204.31992617508507" stroke="#1f77b4" stroke-width="1.4211023622047245"/><line x1="638.0773941434547" y1="204.31992617508507" x2="641.5809958167534" y2="202.3867328831613" stroke="#1f77b4" stroke-width="1.4211023622047245"/><line x1="641.5809958167534" y1="202.3867328831613" x2="645.084597490052" y2="200.4535395912372" stroke="#1f77b4" stroke-width="1.4211023622047245"/><line x1="645.084597490052" y1="200.4535395912372" x2="648.5881991633507" y2="198.5203462993129" stroke="#1f77b4" stroke-width="1.4211023622047245"/><line x1="648.5881991633507" y1="198.5203462993129" x2="652.0918008366493" y2="196.5871530073894" stroke="#1f77b4" stroke-width="1.4211023622047245"/><line x1="652.0918008366493" y1="196.5871530073894" x2="655.595402509948" y2="194.65395971546505" stroke="#1f77b4" stroke-width="1.4211023622047245"/><line x1="655.595402509948" y1="194.65395971546505" x2="659.0990041832466" y2="192.7207664235412" stroke="#1f77b4" stroke-width="1.4211023622047245"/><line x1="659.0990041832466" y1="192.7207664235412" x2="662.6026058565453" y2="190.78757313161697" stroke="#1f77b4" stroke-width="1.4211023622047245"/><line x1="662.6026058565453" y1="190.78757313161697" x2="666.1062075298439" y2="188.85437983969285" stroke="#1f77b4" stroke-width="1.4211023622047245"/><line x1="666.1062075298439" y1="188.85437983969285" x2="669.6098092031426" y2="186.92118654776883" stroke="#1f77b4" stroke-width="1.4211023622047245"/><line x1="669.6098092031426" y1="186.92118654776883" x2="673.1134108764412" y2="184.98799325584483" stroke="#1f77b4" stroke-width="1.4211023622047245"/><line x1="673.1134108764412" y1="184.98799325584483" x2="676.6170125497398" y2="183.05479996392097" stroke="#1f77b4" stroke-width="1.4211023622047245"/><line x1="676.6170125497398" y1="183.05479996392097" x2="680.1206142230385" y2="181.12160667199691" stroke="#1f77b4" stroke-width="1.4211023622047245"/><line x1="680.1206142230385" y1="181.12160667199691" x2="683.6242158963371" y2="179.18841338007306" stroke="#1f77b4" stroke-width="1.4211023622047245"/><line x1="683.6242158963371" y1="179.18841338007306" x2="687.1278175696358" y2="177.25522008814897" stroke="#1f77b4" stroke-width="1.4211023622047245"/><line x1="687.1278175696358" y1="177.25522008814897" x2="690.6314192429345" y2="175.3220267962255" stroke="#1f77b4" stroke-width="1.4211023622047245"/><line x1="690.6314192429345" y1="175.3220267962255" x2="694.1350209162331" y2="173.3888335043006" stroke="#1f77b4" stroke-width="1.4211023622047245"/><line x1="694.1350209162331" y1="173.3888335043006" x2="697.6386225895318" y2="171.4556402123767" stroke="#1f77b4" stroke-width="1.4211023622047245"/><line x1="697.6386225895318" y1="171.4556402123767" x2="701.1422242628305" y2="169.5224469204531" stroke="#1f77b4" stroke-width="1.4211023622047245"/><line x1="701.1422242628305" y1="169.5224469204531" x2="704.645825936129" y2="167.58925362852884" stroke="#1f77b4" stroke-width="1.4211023622047245"/><line x1="704.645825936129" y1="167.58925362852884" x2="708.1494276094277" y2="165.6560603366048" stroke="#1f77b4" stroke-width="1.4211023622047245"/><line x1="708.1494276094277" y1="165.6560603366048" x2="711.6530292827263" y2="163.72286704468127" stroke="#1f77b4" stroke-width="1.4211023622047245"/><line x1="711.6530292827263" y1="163.72286704468127" x2="715.156630956025" y2="161.78967375275715" stroke="#1f77b4" stroke-width="1.4211023622047245"/><line x1="715.156630956025" y1="161.78967375275715" x2="718.6602326293237" y2="159.85648046083327" stroke="#1f77b4" stroke-width="1.4211023622047245"/><line x1="718.6602326293237" y1="159.85648046083327" x2="722.1638343026221" y2="157.92328716890887" stroke="#1f77b4" stroke-width="1.4211023622047245"/><line x1="722.1638343026221" y1="157.92328716890887" x2="725.6674359759209" y2="155.99009387698476" stroke="#1f77b4" stroke-width="1.4211023622047245"/><line x1="725.6674359759209" y1="155.99009387698476" x2="729.1710376492194" y2="154.05690058506104" stroke="#1f77b4" stroke-width="1.4211023622047245"/><line x1="729.1710376492194" y1="154.05690058506104" x2="732.6746393225181" y2="152.12370729313704" stroke="#1f77b4" stroke-width="1.4211023622047245"/><line x1="732.6746393225181" y1="152.12370729313704" x2="736.1782409958169" y2="150.1905140012133" stroke="#1f77b4" stroke-width="1.4211023622047245"/><line x1="736.1782409958169" y1="150.1905140012133" x2="739.6818426691154" y2="148.25732070928873" stroke="#1f77b4" stroke-width="1.4211023622047245"/><line x1="739.6818426691154" y1="148.25732070928873" x2="743.1854443424141" y2="146.3241274173643" stroke="#1f77b4" stroke-width="1.4211023622047245"/><line x1="743.1854443424141" y1="146.3241274173643" x2="746.6890460157126" y2="144.39093412544062" stroke="#1f77b4" stroke-width="1.4211023622047245"/><line x1="746.6890460157126" y1="144.39093412544062" x2="750.1926476890113" y2="142.45774083351688" stroke="#1f77b4" stroke-width="1.4211023622047245"/><line x1="750.1926476890113" y1="142.45774083351688" x2="753.69624936231" y2="140.52454754159228" stroke="#1f77b4" stroke-width="1.4211023622047245"/><line x1="753.69624936231" y1="140.52454754159228" x2="757.1998510356086" y2="138.5913542496687" stroke="#1f77b4" stroke-width="1.4211023622047245"/><line x1="757.1998510356086" y1="138.5913542496687" x2="760.7034527089073" y2="136.65816095774497" stroke="#1f77b4" stroke-width="1.4211023622047245"/><line x1="760.7034527089073" y1="136.65816095774497" x2="764.2070543822058" y2="134.7249676658204" stroke="#1f77b4" stroke-width="1.4211023622047245"/><line x1="764.2070543822058" y1="134.7249676658204" x2="767.7106560555046" y2="132.79177437389674" stroke="#1f77b4" stroke-width="1.4211023622047245"/><line x1="767.7106560555046" y1="132.79177437389674" x2="771.2142577288032" y2="130.8585810819726" stroke="#1f77b4" stroke-width="1.4211023622047245"/><line x1="771.2142577288032" y1="130.8585810819726" x2="774.7178594021018" y2="128.92538779004872" stroke="#1f77b4" stroke-width="1.4211023622047245"/><line x1="774.7178594021018" y1="128.92538779004872" x2="778.2214610754005" y2="126.99219449812456" stroke="#1f77b4" stroke-width="1.4211023622047245"/><line x1="778.2214610754005" y1="126.99219449812456" x2="781.7250627486992" y2="125.0590012062006" stroke="#1f77b4" stroke-width="1.4211023622047245"/><line x1="781.7250627486992" y1="125.0590012062006" x2="785.2286644219978" y2="123.1258079142763" stroke="#1f77b4" stroke-width="1.4211023622047245"/><line x1="785.2286644219978" y1="123.1258079142763" x2="788.7322660952965" y2="121.19261462235261" stroke="#1f77b4" stroke-width="1.4211023622047245"/><line x1="788.7322660952965" y1="121.19261462235261" x2="792.235867768595" y2="119.25942133042811" stroke="#1f77b4" stroke-width="1.4211023622047245"/><line x1="792.235867768595" y1="119.25942133042811" x2="795.7394694418938" y2="117.32622803850461" stroke="#1f77b4" stroke-width="1.4211023622047245"/><line x1="795.7394694418938" y1="117.32622803850461" x2="799.2430711151924" y2="115.39303474658087" stroke="#1f77b4" stroke-width="1.4211023622047245"/><line x1="799.2430711151924" y1="115.39303474658087" x2="802.746672788491" y2="113.45984145465668" stroke="#1f77b4" stroke-width="1.4211023622047245"/><line x1="802.746672788491" y1="113.45984145465668" x2="806.2502744617897" y2="111.52664816273246" stroke="#1f77b4" stroke-width="1.4211023622047245"/><line x1="806.2502744617897" y1="111.52664816273246" x2="809.7538761350881" y2="109.59345487080812" stroke="#1f77b4" stroke-width="1.4211023622047245"/><line x1="809.7538761350881" y1="109.59345487080812" x2="813.2574778083869" y2="107.6602615788845" stroke="#1f77b4" stroke-width="1.4211023622047245"/><line x1="813.2574778083869" y1="107.6602615788845" x2="816.7610794816856" y2="105.72706828696023" stroke="#1f77b4" stroke-width="1.4211023622047245"/><line x1="816.7610794816856" y1="105.72706828696023" x2="820.2646811549841" y2="103.79387499503737" stroke="#1f77b4" stroke-width="1.4211023622047245"/><line x1="820.2646811549841" y1="103.79387499503737" x2="823.7682828282828" y2="101.86068170311235" stroke="#1f77b4" stroke-width="1.4211023622047245"/><circle cx="476.91171717171716" cy="273.27371471441097" r="3.1181102362204727" fill="#1f77b4" fill-opacity="0.85" stroke="none"><title>(1, 5.1)</title></circle><circle cx="515.4513355780023" cy="291.07220523862634" r="3.1181102362204727" fill="#1f77b4" fill-opacity="0.85" stroke="none"><title>(2, 3.4)</title></circle><circle cx="553.9909539842873" cy="228.25400338845466" r="3.1181102362204727" fill="#1f77b4" fill-opacity="0.85" stroke="none"><title>(3, 9.4)</title></circle><circle cx="592.5305723905724" cy="261.7570443752129" r="3.1181102362204727" fill="#1f77b4" fill-opacity="0.85" stroke="none"><title>(4, 6.2)</title></circle><circle cx="631.0701907968574" cy="197.89187249420502" r="3.1181102362204727" fill="#1f77b4" fill-opacity="0.85" stroke="none"><title>(5, 12.3)</title></circle><circle cx="669.6098092031426" cy="183.2342920624983" r="3.1181102362204727" fill="#1f77b4" fill-opacity="0.85" stroke="none"><title>(6, 13.7)</title></circle><circle cx="708.1494276094277" cy="192.65702234002404" r="3.1181102362204727" fill="#1f77b4" fill-opacity="0.85" stroke="none"><title>(7, 12.8)</title></circle><circle cx="746.6890460157126" cy="118.32215015065427" r="3.1181102362204727" fill="#1f77b4" fill-opacity="0.85" stroke="none"><title>(8, 19.9)</title></circle><circle cx="785.2286644219978" cy="139.26155076737814" r="3.1181102362204727" fill="#1f77b4" fill-opacity="0.85" stroke="none"><title>(9, 17.9)</title></circle><circle cx="823.7682828282828" cy="87.96001925640462" r="3.1181102362204727" fill="#1f77b4" fill-opacity="0.85" stroke="none"><title>(10, 22.8)</title></circle><rect x="0.0" y="0.0" width="0.0" height="0.0" fill="#ffffff" fill-opacity="1.0" stroke="none"/><line x1="910.7688439955107" y1="39.599999999999994" x2="910.7688439955107" y2="351.0" stroke="#dddddd" stroke-width="0.6666666666666666"/><line x1="1007.1178900112234" y1="39.599999999999994" x2="1007.1178900112234" y2="351.0" stroke="#dddddd" stroke-width="0.6666666666666666"/><line x1="1103.466936026936" y1="39.599999999999994" x2="1103.466936026936" y2="351.0" stroke="#dddddd" stroke-width="0.6666666666666666"/><line x1="1199.8159820426486" y1="39.599999999999994" x2="1199.8159820426486" y2="351.0" stroke="#dddddd" stroke-width="0.6666666666666666"/><line x1="958.943367003367" y1="39.599999999999994" x2="958.943367003367" y2="351.0" stroke="#dddddd" stroke-width="1.3333333333333333"/><line x1="1055.2924130190797" y1="39.599999999999994" x2="1055.2924130190797" y2="351.0" stroke="#dddddd" stroke-width="1.3333333333333333"/><line x1="1151.6414590347922" y1="39.599999999999994" x2="1151.6414590347922" y2="351.0" stroke="#dddddd" stroke-width="1.3333333333333333"/><line x1="1247.990505050505" y1="39.599999999999994" x2="1247.990505050505" y2="351.0" stroke="#dddddd" stroke-width="1.3333333333333333"/><line x1="883.7911111111111" y1="300.49493551615205" x2="1265.3333333333333" y2="300.49493551615205" stroke="#dddddd" stroke-width="0.6666666666666666"/><line x1="883.7911111111111" y1="248.1464339743423" x2="1265.3333333333333" y2="248.1464339743423" stroke="#dddddd" stroke-width="0.6666666666666666"/><line x1="883.7911111111111" y1="195.79793243253266" x2="1265.3333333333333" y2="195.79793243253266" stroke="#dddddd" stroke-width="0.6666666666666666"/><line x1="883.7911111111111" y1="143.44943089072288" x2="1265.3333333333333" y2="143.44943089072288" stroke="#dddddd" stroke-width="0.6666666666666666"/><line x1="883.7911111111111" y1="91.10092934891318" x2="1265.3333333333333" y2="91.10092934891318" stroke="#dddddd" stroke-width="0.6666666666666666"/><line x1="883.7911111111111" y1="326.6691862870569" x2="1265.3333333333333" y2="326.6691862870569" stroke="#dddddd" stroke-width="1.3333333333333333"/><line x1="883.7911111111111" y1="274.32068474524715" x2="1265.3333333333333" y2="274.32068474524715" stroke="#dddddd" stroke-width="1.3333333333333333"/><line x1="883.7911111111111" y1="221.97218320343748" x2="1265.3333333333333" y2="221.97218320343748" stroke="#dddddd" stroke-width="1.3333333333333333"/><line x1="883.7911111111111" y1="169.62368166162776" x2="1265.3333333333333" y2="169.62368166162776" stroke="#dddddd" stroke-width="1.3333333333333333"/><line x1="883.7911111111111" y1="117.27518011981806" x2="1265.3333333333333" y2="117.27518011981806" stroke="#dddddd" stroke-width="1.3333333333333333"/><line x1="883.7911111111111" y1="64.92667857800832" x2="1265.3333333333333" y2="64.92667857800832" stroke="#dddddd" stroke-width="1.3333333333333333"/><rect x="883.7911111111111" y="39.599999999999994" width="381.54222222222216" height="311.4" fill="#ffffff" fill-opacity="0.0" stroke="#444444" stroke-width="1.3333333333333333"/><line x1="958.943367003367" y1="351.0" x2="958.943367003367" y2="354.66666666666663" stroke="#444444" stroke-width="1.3333333333333333"/><text x="958.943367003367" y="366.9866666666667" fill="#333333" font-size="11.733333333333334" font-family="sans-serif" text-anchor="middle">2.5</text><line x1="1055.2924130190797" y1="351.0" x2="1055.2924130190797" y2="354.66666666666663" stroke="#444444" stroke-width="1.3333333333333333"/><text x="1055.2924130190797" y="366.9866666666667" fill="#333333" font-size="11.733333333333334" font-family="sans-serif" text-anchor="middle">5.0</text><line x1="1151.6414590347922" y1="351.0" x2="1151.6414590347922" y2="354.66666666666663" stroke="#444444" stroke-width="1.3333333333333333"/><text x="1151.6414590347922" y="366.9866666666667" fill="#333333" font-size="11.733333333333334" font-family="sans-serif" text-anchor="middle">7.5</text><line x1="1247.990505050505" y1="351.0" x2="1247.990505050505" y2="354.66666666666663" stroke="#444444" stroke-width="1.3333333333333333"/><text x="1247.990505050505" y="366.9866666666667" fill="#333333" font-size="11.733333333333334" font-family="sans-serif" text-anchor="middle">10.0</text><line x1="883.7911111111111" y1="326.6691862870569" x2="880.1244444444444" y2="326.6691862870569" stroke="#444444" stroke-width="1.3333333333333333"/><text x="877.191111111111" y="330.7758529537236" fill="#333333" font-size="11.733333333333334" font-family="sans-serif" text-anchor="end">0</text><line x1="883.7911111111111" y1="274.32068474524715" x2="880.1244444444444" y2="274.32068474524715" stroke="#444444" stroke-width="1.3333333333333333"/><text x="877.191111111111" y="278.42735141191383" fill="#333333" font-size="11.733333333333334" font-family="sans-serif" text-anchor="end">5</text><line x1="883.7911111111111" y1="221.97218320343748" x2="880.1244444444444" y2="221.97218320343748" stroke="#444444" stroke-width="1.3333333333333333"/><text x="877.191111111111" y="226.07884987010416" fill="#333333" font-size="11.733333333333334" font-family="sans-serif" text-anchor="end">10</text><line x1="883.7911111111111" y1="169.62368166162776" x2="880.1244444444444" y2="169.62368166162776" stroke="#444444" stroke-width="1.3333333333333333"/><text x="877.191111111111" y="173.73034832829444" fill="#333333" font-size="11.733333333333334" font-family="sans-serif" text-anchor="end">15</text><line x1="883.7911111111111" y1="117.27518011981806" x2="880.1244444444444" y2="117.27518011981806" stroke="#444444" stroke-width="1.3333333333333333"/><text x="877.191111111111" y="121.38184678648472" fill="#333333" font-size="11.733333333333334" font-family="sans-serif" text-anchor="end">20</text><line x1="883.7911111111111" y1="64.92667857800832" x2="880.1244444444444" y2="64.92667857800832" stroke="#444444" stroke-width="1.3333333333333333"/><text x="877.191111111111" y="69.03334524467499" fill="#333333" font-size="11.733333333333334" font-family="sans-serif" text-anchor="end">25</text><text x="883.7911111111111" y="28.74666666666667" fill="#333333" font-size="17.599999999999998" font-family="sans-serif" text-anchor="start">CIPI (入れ子)</text><path d="M 901.1339393939394 336.8454545454545 L 904.6375410672381 335.00542521254596 L 908.1411427405367 332.2046847238844 L 911.6447444138354 334.1843274688663 L 915.1483460871341 332.046527767969 L 918.6519477604326 329.5438701497727 L 922.1555494337313 327.4239161156978 L 925.6591511070299 325.0608044019407 L 929.1627527803286 322.9846335891023 L 932.6663544536273 319.8059699063557 L 936.1699561269259 318.8672193240555 L 939.6735578002244 316.7561211505872 L 943.177159473523 314.71761461934955 L 946.6807611468217 312.8672466857879 L 950.1843628201204 310.7332746323882 L 953.687964493419 308.16272512998785 L 957.1915661667177 306.49151878143795 L 960.6951678400164 304.5826741358203 L 964.198769513315 302.3539481270242 L 967.7023711866136 301.24429079799927 L 971.2059728599122 298.8623705077579 L 974.7095745332109 297.0051831599541 L 978.2131762065096 295.09598339991453 L 981.7167778798082 292.9955052047552 L 985.2203795531068 290.5896988971442 L 988.7239812264054 288.8195464829056 L 992.2275828997041 284.93610681191694 L 995.7311845730028 282.63720559472716 L 999.2347862463014 280.37192189662824 L 1002.7383879196001 278.2145183199606 L 1006.2419895928988 279.614230568325 L 1009.7455912661974 277.67844853587155 L 1013.249192939496 275.44954905083137 L 1016.7527946127946 273.516386938066 L 1020.2563962860933 271.4387849479648 L 1023.759997959392 269.50758922186026 L 1027.2635996326906 267.7343982768785 L 1030.7672013059891 261.7562959071015 L 1034.2708029792877 262.95550449835036 L 1037.7744046525863 261.22563682408037 L 1041.2780063258851 258.8942313800399 L 1044.7816079991837 256.7334816103704 L 1048.2852096724823 255.02210070856 L 1051.7888113457811 253.24370497045177 L 1055.2924130190797 250.05406448320133 L 1058.7960146923783 246.27410364989947 L 1062.299616365677 244.3000579741447 L 1065.8032180389755 242.3260122983898 L 1069.3068197122743 243.4235600972833 L 1072.810421385573 241.34028969168116 L 1076.3140230588715 238.00734342842003 L 1079.81762473217 236.29625851047905 L 1083.3212264054687 234.177682703448 L 1086.8248280787675 232.56672728089978 L 1090.328429752066 230.19451972015673 L 1093.8320314253647 226.1285255272219 L 1097.3356330986635 224.28995641799798 L 1100.839234771962 221.45485037569938 L 1104.3428364452607 219.6406948997901 L 1107.8464381185593 217.90588821486534 L 1111.3500397918579 216.38342433790888 L 1114.8536414651567 214.74259115461032 L 1118.3572431384553 213.03171613723651 L 1121.8608448117539 212.4860956108153 L 1125.3644464850527 210.42879727919583 L 1128.868048158351 208.43261021791616 L 1132.3716498316498 206.496476616978 L 1135.8752515049484 204.78417615763615 L 1139.378853178247 203.2326978757028 L 1142.8824548515458 201.21896521583326 L 1146.3860565248444 198.3719423608709 L 1149.889658198143 196.76590351386199 L 1153.3932598714418 194.63431147614216 L 1156.8968615447402 193.27578808834392 L 1160.400463218039 191.16196391051454 L 1163.9040648913376 189.4257901277008 L 1167.4076665646362 188.54161626499967 L 1170.9112682379348 187.9729213118577 L 1174.4148699112334 185.85698039883903 L 1177.9184715845322 184.09916815366932 L 1181.4220732578308 182.3260485125548 L 1184.9256749311294 180.5997447945943 L 1188.4292766044282 178.51017886835518 L 1191.9328782777268 176.81019436884222 L 1195.4364799510254 174.8789986427377 L 1198.940081624324 171.22062045797475 L 1202.4436832976226 169.44864179407807 L 1205.9472849709214 167.6766631301814 L 1209.45088664422 165.85366541463276 L 1212.9544883175186 164.1327058023881 L 1216.4580899908171 163.57039953368397 L 1219.9616916641157 161.87818363915088 L 1223.4652933374146 160.02468761464732 L 1226.9688950107131 158.3583524683568 L 1230.4724966840117 153.78861674341923 L 1233.9760983573105 152.1196569124418 L 1237.4797000306091 150.26408355246252 L 1240.9833017039077 148.28155116883585 L 1244.4869033772063 146.53447952935235 L 1247.990505050505 145.12235278587062 L 1247.990505050505 53.75454545454541 L 1244.4869033772063 55.73770165149964 L 1240.9833017039077 57.880334443779205 L 1237.4797000306091 60.02296723605873 L 1233.9760983573105 61.99009308389702 L 1230.4724966840117 63.71126763797 L 1226.9688950107131 68.74720125869149 L 1223.4652933374146 70.72483730095658 L 1219.9616916641157 72.88789888771501 L 1216.4580899908171 74.7483737930166 L 1212.9544883175186 75.69824659596543 L 1209.45088664422 77.69449998662037 L 1205.9472849709214 79.76707038790008 L 1202.4436832976226 81.76778584156571 L 1198.940081624324 83.70884381391411 L 1195.4364799510254 87.55241517150193 L 1191.9328782777268 89.74197734295542 L 1188.4292766044282 91.68769079955896 L 1184.9256749311294 94.00459310094655 L 1181.4220732578308 96.09457839970165 L 1177.9184715845322 98.11186142911204 L 1174.4148699112334 99.83079703966241 L 1170.9112682379348 102.08012310044364 L 1167.4076665646362 102.82100680929196 L 1163.9040648913376 103.992676150162 L 1160.400463218039 105.98111424384463 L 1156.8968615447402 108.05990965841909 L 1153.3932598714418 109.60132126633974 L 1149.889658198143 111.8000582140623 L 1146.3860565248444 113.48896966287808 L 1142.8824548515458 116.48425426690513 L 1139.378853178247 118.73187296528059 L 1135.8752515049484 120.57989153511494 L 1132.3716498316498 122.3593263459635 L 1128.868048158351 124.18563473140708 L 1125.3644464850527 126.38524506460449 L 1121.8608448117539 128.50453326418224 L 1118.3572431384553 129.03956324903132 L 1114.8536414651567 130.87692545142795 L 1111.3500397918579 132.60327238478362 L 1107.8464381185593 134.17551060421255 L 1104.3428364452607 136.11102382574336 L 1100.839234771962 137.70670401613665 L 1097.3356330986635 140.41981446827316 L 1093.8320314253647 142.26984805598514 L 1090.328429752066 146.24453455700905 L 1086.8248280787675 148.76342442112016 L 1083.3212264054687 150.29243878732018 L 1079.81762473217 152.4142440384158 L 1076.3140230588715 153.883808419018 L 1072.810421385573 157.20456970692487 L 1069.3068197122743 159.25118099756963 L 1065.8032180389755 158.15657061295408 L 1062.299616365677 160.03531341753182 L 1058.7960146923783 161.87743698489078 L 1055.2924130190797 165.6382800611872 L 1051.7888113457811 168.6332898849753 L 1048.2852096724823 170.35646814245553 L 1044.7816079991837 172.0691963258959 L 1041.2780063258851 174.21571352137255 L 1037.7744046525863 176.29760294941764 L 1034.2708029792877 177.94559936544434 L 1030.7672013059891 176.4869596498816 L 1027.2635996326906 182.51258608645972 L 1023.759997959392 184.43941267312758 L 1020.2563962860933 186.31517043844883 L 1016.7527946127946 188.15313349995918 L 1013.249192939496 190.0114068367398 L 1009.7455912661974 192.1839472972088 L 1006.2419895928988 194.06114098685572 L 1002.7383879196001 192.4205123505992 L 999.2347862463014 194.53698630467676 L 995.7311845730028 196.66601112155536 L 992.2275828997041 198.72437469918705 L 988.7239812264054 202.4687373068331 L 985.2203795531068 204.14598675222854 L 981.7167778798082 206.424233128394 L 978.2131762065096 208.4577895388095 L 974.7095745332109 210.08893671900654 L 971.2059728599122 211.68601539519173 L 967.7023711866136 213.7815565007453 L 964.198769513315 214.53261737180765 L 960.6951678400164 216.64396836402057 L 957.1915661667177 218.45547636941257 L 953.687964493419 219.93179445827332 L 950.1843628201204 222.31086026467375 L 946.6807611468217 224.27609821371271 L 943.177159473523 225.99237857537253 L 939.6735578002244 227.64273558444478 L 936.1699561269259 229.47357149705215 L 932.6663544536273 230.238795591955 L 929.1627527803286 232.93708010573565 L 925.6591511070299 234.66074339104821 L 922.1555494337313 236.70544259063405 L 918.6519477604326 238.57245759435037 L 915.1483460871341 240.5719043738544 L 911.6447444138354 242.33007990247285 L 908.1411427405367 239.98014512041811 L 904.6375410672381 242.48387477705387 L 901.1339393939394 244.20332575810357 Z" fill="#1f77b4" fill-opacity="0.1" stroke="none"/><path d="M 901.1339393939394 314.40914298229615 L 904.6375410672381 312.2110352199028 L 908.1411427405367 309.56534400755777 L 911.6447444138354 307.3294605629507 L 915.1483460871341 305.09357711834366 L 918.6519477604326 304.56495124717304 L 922.1555494337313 302.38762074881606 L 925.6591511070299 299.9608502461623 L 929.1627527803286 297.72481358538573 L 932.6663544536273 295.61102252541673 L 936.1699561269259 293.4931093665579 L 939.6735578002244 291.3198911411704 L 943.177159473523 287.9911245835965 L 946.6807611468217 285.78292399801325 L 950.1843628201204 283.5954713338483 L 953.687964493419 281.3195007839687 L 957.1915661667177 279.0372151510634 L 960.6951678400164 276.9651926908465 L 964.198769513315 274.3497630233954 L 967.7023711866136 271.9294873931699 L 971.2059728599122 269.47387914423945 L 974.7095745332109 267.2839582650581 L 978.2131762065096 266.1185433957899 L 981.7167778798082 263.6669016403524 L 985.2203795531068 261.69411262507344 L 988.7239812264054 259.2974304921252 L 992.2275828997041 257.92693249505464 L 995.7311845730028 255.7272170338057 L 999.2347862463014 253.51188005775379 L 1002.7383879196001 251.04884346865197 L 1006.2419895928988 249.03304526422363 L 1009.7455912661974 246.77557712064464 L 1013.249192939496 245.01124959269424 L 1016.7527946127946 243.06070227101435 L 1020.2563962860933 241.16456371550754 L 1023.759997959392 239.07659436583708 L 1027.2635996326906 236.79212319608234 L 1030.7672013059891 234.65595166964846 L 1034.2708029792877 233.01572481420536 L 1037.7744046525863 230.99182821524465 L 1041.2780063258851 228.67869624027904 L 1044.7816079991837 226.45141030803478 L 1048.2852096724823 224.21021183971507 L 1051.7888113457811 222.43862084903736 L 1055.2924130190797 220.17596018348732 L 1058.7960146923783 218.28806876262513 L 1062.299616365677 216.4395098312731 L 1065.8032180389755 214.55309125977817 L 1069.3068197122743 212.34170169828172 L 1072.810421385573 211.18745332503482 L 1076.3140230588715 208.75731531828936 L 1079.81762473217 206.89425330247232 L 1083.3212264054687 205.10045719916167 L 1086.8248280787675 202.9800016814792 L 1090.328429752066 201.0120684386723 L 1093.8320314253647 199.24230100652835 L 1097.3356330986635 197.34595177552103 L 1100.839234771962 195.16175413091946 L 1104.3428364452607 194.34381705319475 L 1107.8464381185593 191.66394153137324 L 1111.3500397918579 189.91385655755482 L 1114.8536414651567 188.1604256237646 L 1118.3572431384553 186.06414542823615 L 1121.8608448117539 184.1541353684956 L 1125.3644464850527 182.37451079096542 L 1128.868048158351 180.43083004045073 L 1132.3716498316498 178.62281050883786 L 1135.8752515049484 177.25605069767872 L 1139.378853178247 175.8235334515205 L 1142.8824548515458 173.64342683696592 L 1146.3860565248444 172.1270826127491 L 1149.889658198143 170.42029036460622 L 1153.3932598714418 169.2325723866027 L 1156.8968615447402 167.3549464942261 L 1160.400463218039 165.6369429263281 L 1163.9040648913376 164.06001375192 L 1167.4076665646362 161.75471736281057 L 1170.9112682379348 160.20792805939544 L 1174.4148699112334 159.18488207658402 L 1177.9184715845322 157.19182498348167 L 1181.4220732578308 155.34606108706691 L 1184.9256749311294 153.9822399292856 L 1188.4292766044282 152.4645765412138 L 1191.9328782777268 151.02383426828717 L 1195.4364799510254 149.07334070551101 L 1198.940081624324 147.394263926297 L 1202.4436832976226 145.34845369955525 L 1205.9472849709214 143.39662421655024 L 1209.45088664422 141.70354413392715 L 1212.9544883175186 140.19882828320442 L 1216.4580899908171 140.33111215702945 L 1219.9616916641157 137.35125154722834 L 1223.4652933374146 135.85087954229988 L 1226.9688950107131 134.549167295254 L 1230.4724966840117 132.47108557020331 L 1233.9760983573105 130.84889078065157 L 1237.4797000306091 128.74866086551663 L 1240.9833017039077 127.37028739728953 L 1244.4869033772063 126.07560159473147 L 1247.990505050505 124.01125175209836 L 1247.990505050505 78.02835965298914 L 1244.4869033772063 80.78355113864998 L 1240.9833017039077 82.83235603631238 L 1237.4797000306091 84.89553272976127 L 1233.9760983573105 87.62700068400423 L 1230.4724966840117 89.81478955653074 L 1226.9688950107131 92.39085535247216 L 1223.4652933374146 94.34034030646117 L 1219.9616916641157 96.48434769095377 L 1216.4580899908171 100.10796546848276 L 1212.9544883175186 100.63337821434482 L 1209.45088664422 102.84747962526508 L 1205.9472849709214 105.16751010749597 L 1202.4436832976226 107.67882077476193 L 1198.940081624324 110.3923770692619 L 1195.4364799510254 112.6875205333894 L 1191.9328782777268 115.24852203196647 L 1188.4292766044282 117.22468343933076 L 1184.9256749311294 119.37221648811938 L 1181.4220732578308 121.2926535351183 L 1177.9184715845322 123.65269853244854 L 1174.4148699112334 126.07740089975914 L 1170.9112682379348 127.6861120233445 L 1167.4076665646362 129.7382885859592 L 1163.9040648913376 132.50669299318943 L 1160.400463218039 134.68253473796895 L 1156.8968615447402 136.8825832871542 L 1153.3932598714418 139.17778909457354 L 1149.889658198143 140.90981482285886 L 1146.3860565248444 143.0847400937545 L 1142.8824548515458 145.05510875409396 L 1139.378853178247 147.63857740682627 L 1135.8752515049484 149.50769369326997 L 1132.3716498316498 151.23456419609806 L 1128.868048158351 153.38129640495384 L 1125.3644464850527 155.65123705467627 L 1121.8608448117539 157.76792570929854 L 1118.3572431384553 159.92811658069252 L 1114.8536414651567 162.3197966071488 L 1111.3500397918579 164.280006994065 L 1107.8464381185593 166.30632235362316 L 1104.3428364452607 169.27775905229817 L 1100.839234771962 170.33808762943755 L 1097.3356330986635 172.8072217700821 L 1093.8320314253647 174.88598497213437 L 1090.328429752066 176.96022075281954 L 1086.8248280787675 179.00797906052415 L 1083.3212264054687 181.17680437735618 L 1079.81762473217 182.96233702088708 L 1076.3140230588715 184.8962078916192 L 1072.810421385573 187.273979138671 L 1069.3068197122743 188.51149043383566 L 1065.8032180389755 190.6852505766302 L 1062.299616365677 192.63745815449468 L 1058.7960146923783 194.3937302306906 L 1055.2924130190797 196.19426517533125 L 1051.7888113457811 198.4054286285781 L 1048.2852096724823 200.09080041829498 L 1044.7816079991837 202.08087036299685 L 1041.2780063258851 203.96301103357524 L 1037.7744046525863 206.0084438182446 L 1034.2708029792877 207.67433529655239 L 1030.7672013059891 209.12758388633853 L 1027.2635996326906 210.88342001685615 L 1023.759997959392 212.90261288194452 L 1020.2563962860933 214.75467512228738 L 1016.7527946127946 216.26356813376333 L 1013.249192939496 217.97328859237714 L 1009.7455912661974 219.30302260740297 L 1006.2419895928988 221.2158543838716 L 1002.7383879196001 222.85150550411714 L 999.2347862463014 225.00233707209162 L 995.7311845730028 226.70530059674584 L 992.2275828997041 228.40679401145934 L 988.7239812264054 229.33452552552095 L 985.2203795531068 231.27621902441925 L 981.7167778798082 232.73973720488857 L 978.2131762065096 234.71492756125332 L 974.7095745332109 235.38140864270719 L 971.2059728599122 236.95256407485346 L 967.7023711866136 238.87738875695337 L 964.198769513315 240.87395634151986 L 960.6951678400164 242.92007260378548 L 957.1915661667177 244.41377572469747 L 953.687964493419 246.16136262445812 L 950.1843628201204 247.78712767098386 L 946.6807611468217 249.40458526704475 L 943.177159473523 250.96567281804724 L 939.6735578002244 253.6808147683592 L 936.1699561269259 255.28871032595544 L 932.6663544536273 256.78351479570495 L 929.1627527803286 258.2292360895012 L 925.6591511070299 259.8233188981159 L 922.1555494337313 261.59113029294315 L 918.6519477604326 263.21276234149764 L 915.1483460871341 263.2014571864622 L 911.6447444138354 264.95575951363924 L 908.1411427405367 266.44570413177723 L 904.6375410672381 268.3738319374785 L 901.1339393939394 269.91310588276633 Z" fill="#1f77b4" fill-opacity="0.2" stroke="none"/><line x1="901.1339393939394" y1="293.2468176035901" x2="904.6375410672381" y2="291.3136243116661" stroke="#1f77b4" stroke-width="1.4211023622047245"/><line x1="904.6375410672381" y1="291.3136243116661" x2="908.1411427405367" y2="289.3804310197421" stroke="#1f77b4" stroke-width="1.4211023622047245"/><line x1="908.1411427405367" y1="289.3804310197421" x2="911.6447444138354" y2="287.44723772781805" stroke="#1f77b4" stroke-width="1.4211023622047245"/><line x1="911.6447444138354" y1="287.44723772781805" x2="915.1483460871341" y2="285.51404443589394" stroke="#1f77b4" stroke-width="1.4211023622047245"/><line x1="915.1483460871341" y1="285.51404443589394" x2="918.6519477604326" y2="283.58085114397" stroke="#1f77b4" stroke-width="1.4211023622047245"/><line x1="918.6519477604326" y1="283.58085114397" x2="922.1555494337313" y2="281.647657852046" stroke="#1f77b4" stroke-width="1.4211023622047245"/><line x1="922.1555494337313" y1="281.647657852046" x2="925.6591511070299" y2="279.71446456012205" stroke="#1f77b4" stroke-width="1.4211023622047245"/><line x1="925.6591511070299" y1="279.71446456012205" x2="929.1627527803286" y2="277.781271268198" stroke="#1f77b4" stroke-width="1.4211023622047245"/><line x1="929.1627527803286" y1="277.781271268198" x2="932.6663544536273" y2="275.84807797627377" stroke="#1f77b4" stroke-width="1.4211023622047245"/><line x1="932.6663544536273" y1="275.84807797627377" x2="936.1699561269259" y2="273.9148846843498" stroke="#1f77b4" stroke-width="1.4211023622047245"/><line x1="936.1699561269259" y1="273.9148846843498" x2="939.6735578002244" y2="271.98169139242583" stroke="#1f77b4" stroke-width="1.4211023622047245"/><line x1="939.6735578002244" y1="271.98169139242583" x2="943.177159473523" y2="270.04849810050183" stroke="#1f77b4" stroke-width="1.4211023622047245"/><line x1="943.177159473523" y1="270.04849810050183" x2="946.6807611468217" y2="268.11530480857795" stroke="#1f77b4" stroke-width="1.4211023622047245"/><line x1="946.6807611468217" y1="268.11530480857795" x2="950.1843628201204" y2="266.18211151665383" stroke="#1f77b4" stroke-width="1.4211023622047245"/><line x1="950.1843628201204" y1="266.18211151665383" x2="953.687964493419" y2="264.24891822472966" stroke="#1f77b4" stroke-width="1.4211023622047245"/><line x1="953.687964493419" y1="264.24891822472966" x2="957.1915661667177" y2="262.3157249328058" stroke="#1f77b4" stroke-width="1.4211023622047245"/><line x1="957.1915661667177" y1="262.3157249328058" x2="960.6951678400164" y2="260.38253164088144" stroke="#1f77b4" stroke-width="1.4211023622047245"/><line x1="960.6951678400164" y1="260.38253164088144" x2="964.198769513315" y2="258.44933834895784" stroke="#1f77b4" stroke-width="1.4211023622047245"/><line x1="964.198769513315" y1="258.44933834895784" x2="967.7023711866136" y2="256.5161450570337" stroke="#1f77b4" stroke-width="1.4211023622047245"/><line x1="967.7023711866136" y1="256.5161450570337" x2="971.2059728599122" y2="254.58295176510978" stroke="#1f77b4" stroke-width="1.4211023622047245"/><line x1="971.2059728599122" y1="254.58295176510978" x2="974.7095745332109" y2="252.64975847318593" stroke="#1f77b4" stroke-width="1.4211023622047245"/><line x1="974.7095745332109" y1="252.64975847318593" x2="978.2131762065096" y2="250.71656518126173" stroke="#1f77b4" stroke-width="1.4211023622047245"/><line x1="978.2131762065096" y1="250.71656518126173" x2="981.7167778798082" y2="248.78337188933762" stroke="#1f77b4" stroke-width="1.4211023622047245"/><line x1="981.7167778798082" y1="248.78337188933762" x2="985.2203795531068" y2="246.85017859741356" stroke="#1f77b4" stroke-width="1.4211023622047245"/><line x1="985.2203795531068" y1="246.85017859741356" x2="988.7239812264054" y2="244.9169853054895" stroke="#1f77b4" stroke-width="1.4211023622047245"/><line x1="988.7239812264054" y1="244.9169853054895" x2="992.2275828997041" y2="242.9837920135655" stroke="#1f77b4" stroke-width="1.4211023622047245"/><line x1="992.2275828997041" y1="242.9837920135655" x2="995.7311845730028" y2="241.0505987216415" stroke="#1f77b4" stroke-width="1.4211023622047245"/><line x1="995.7311845730028" y1="241.0505987216415" x2="999.2347862463014" y2="239.1174054297174" stroke="#1f77b4" stroke-width="1.4211023622047245"/><line x1="999.2347862463014" y1="239.1174054297174" x2="1002.7383879196001" y2="237.18421213779385" stroke="#1f77b4" stroke-width="1.4211023622047245"/><line x1="1002.7383879196001" y1="237.18421213779385" x2="1006.2419895928988" y2="235.2510188458697" stroke="#1f77b4" stroke-width="1.4211023622047245"/><line x1="1006.2419895928988" y1="235.2510188458697" x2="1009.7455912661974" y2="233.31782555394534" stroke="#1f77b4" stroke-width="1.4211023622047245"/><line x1="1009.7455912661974" y1="233.31782555394534" x2="1013.249192939496" y2="231.3846322620219" stroke="#1f77b4" stroke-width="1.4211023622047245"/><line x1="1013.249192939496" y1="231.3846322620219" x2="1016.7527946127946" y2="229.45143897009714" stroke="#1f77b4" stroke-width="1.4211023622047245"/><line x1="1016.7527946127946" y1="229.45143897009714" x2="1020.2563962860933" y2="227.51824567817334" stroke="#1f77b4" stroke-width="1.4211023622047245"/><line x1="1020.2563962860933" y1="227.51824567817334" x2="1023.759997959392" y2="225.5850523862496" stroke="#1f77b4" stroke-width="1.4211023622047245"/><line x1="1023.759997959392" y1="225.5850523862496" x2="1027.2635996326906" y2="223.6518590943255" stroke="#1f77b4" stroke-width="1.4211023622047245"/><line x1="1027.2635996326906" y1="223.6518590943255" x2="1030.7672013059891" y2="221.7186658024015" stroke="#1f77b4" stroke-width="1.4211023622047245"/><line x1="1030.7672013059891" y1="221.7186658024015" x2="1034.2708029792877" y2="219.7854725104775" stroke="#1f77b4" stroke-width="1.4211023622047245"/><line x1="1034.2708029792877" y1="219.7854725104775" x2="1037.7744046525863" y2="217.8522792185538" stroke="#1f77b4" stroke-width="1.4211023622047245"/><line x1="1037.7744046525863" y1="217.8522792185538" x2="1041.2780063258851" y2="215.91908592662912" stroke="#1f77b4" stroke-width="1.4211023622047245"/><line x1="1041.2780063258851" y1="215.91908592662912" x2="1044.7816079991837" y2="213.98589263470572" stroke="#1f77b4" stroke-width="1.4211023622047245"/><line x1="1044.7816079991837" y1="213.98589263470572" x2="1048.2852096724823" y2="212.05269934278135" stroke="#1f77b4" stroke-width="1.4211023622047245"/><line x1="1048.2852096724823" y1="212.05269934278135" x2="1051.7888113457811" y2="210.1195060508574" stroke="#1f77b4" stroke-width="1.4211023622047245"/><line x1="1051.7888113457811" y1="210.1195060508574" x2="1055.2924130190797" y2="208.18631275893304" stroke="#1f77b4" stroke-width="1.4211023622047245"/><line x1="1055.2924130190797" y1="208.18631275893304" x2="1058.7960146923783" y2="206.25311946700918" stroke="#1f77b4" stroke-width="1.4211023622047245"/><line x1="1058.7960146923783" y1="206.25311946700918" x2="1062.299616365677" y2="204.31992617508507" stroke="#1f77b4" stroke-width="1.4211023622047245"/><line x1="1062.299616365677" y1="204.31992617508507" x2="1065.8032180389755" y2="202.3867328831613" stroke="#1f77b4" stroke-width="1.4211023622047245"/><line x1="1065.8032180389755" y1="202.3867328831613" x2="1069.3068197122743" y2="200.4535395912372" stroke="#1f77b4" stroke-width="1.4211023622047245"/><line x1="1069.3068197122743" y1="200.4535395912372" x2="1072.810421385573" y2="198.5203462993129" stroke="#1f77b4" stroke-width="1.4211023622047245"/><line x1="1072.810421385573" y1="198.5203462993129" x2="1076.3140230588715" y2="196.5871530073894" stroke="#1f77b4" stroke-width="1.4211023622047245"/><line x1="1076.3140230588715" y1="196.5871530073894" x2="1079.81762473217" y2="194.65395971546505" stroke="#1f77b4" stroke-width="1.4211023622047245"/><line x1="1079.81762473217" y1="194.65395971546505" x2="1083.3212264054687" y2="192.7207664235412" stroke="#1f77b4" stroke-width="1.4211023622047245"/><line x1="1083.3212264054687" y1="192.7207664235412" x2="1086.8248280787675" y2="190.78757313161697" stroke="#1f77b4" stroke-width="1.4211023622047245"/><line x1="1086.8248280787675" y1="190.78757313161697" x2="1090.328429752066" y2="188.85437983969285" stroke="#1f77b4" stroke-width="1.4211023622047245"/><line x1="1090.328429752066" y1="188.85437983969285" x2="1093.8320314253647" y2="186.92118654776883" stroke="#1f77b4" stroke-width="1.4211023622047245"/><line x1="1093.8320314253647" y1="186.92118654776883" x2="1097.3356330986635" y2="184.98799325584483" stroke="#1f77b4" stroke-width="1.4211023622047245"/><line x1="1097.3356330986635" y1="184.98799325584483" x2="1100.839234771962" y2="183.05479996392097" stroke="#1f77b4" stroke-width="1.4211023622047245"/><line x1="1100.839234771962" y1="183.05479996392097" x2="1104.3428364452607" y2="181.12160667199691" stroke="#1f77b4" stroke-width="1.4211023622047245"/><line x1="1104.3428364452607" y1="181.12160667199691" x2="1107.8464381185593" y2="179.18841338007306" stroke="#1f77b4" stroke-width="1.4211023622047245"/><line x1="1107.8464381185593" y1="179.18841338007306" x2="1111.3500397918579" y2="177.25522008814897" stroke="#1f77b4" stroke-width="1.4211023622047245"/><line x1="1111.3500397918579" y1="177.25522008814897" x2="1114.8536414651567" y2="175.3220267962255" stroke="#1f77b4" stroke-width="1.4211023622047245"/><line x1="1114.8536414651567" y1="175.3220267962255" x2="1118.3572431384553" y2="173.3888335043006" stroke="#1f77b4" stroke-width="1.4211023622047245"/><line x1="1118.3572431384553" y1="173.3888335043006" x2="1121.8608448117539" y2="171.4556402123767" stroke="#1f77b4" stroke-width="1.4211023622047245"/><line x1="1121.8608448117539" y1="171.4556402123767" x2="1125.3644464850527" y2="169.5224469204531" stroke="#1f77b4" stroke-width="1.4211023622047245"/><line x1="1125.3644464850527" y1="169.5224469204531" x2="1128.868048158351" y2="167.58925362852884" stroke="#1f77b4" stroke-width="1.4211023622047245"/><line x1="1128.868048158351" y1="167.58925362852884" x2="1132.3716498316498" y2="165.6560603366048" stroke="#1f77b4" stroke-width="1.4211023622047245"/><line x1="1132.3716498316498" y1="165.6560603366048" x2="1135.8752515049484" y2="163.72286704468127" stroke="#1f77b4" stroke-width="1.4211023622047245"/><line x1="1135.8752515049484" y1="163.72286704468127" x2="1139.378853178247" y2="161.78967375275715" stroke="#1f77b4" stroke-width="1.4211023622047245"/><line x1="1139.378853178247" y1="161.78967375275715" x2="1142.8824548515458" y2="159.85648046083327" stroke="#1f77b4" stroke-width="1.4211023622047245"/><line x1="1142.8824548515458" y1="159.85648046083327" x2="1146.3860565248444" y2="157.92328716890887" stroke="#1f77b4" stroke-width="1.4211023622047245"/><line x1="1146.3860565248444" y1="157.92328716890887" x2="1149.889658198143" y2="155.99009387698476" stroke="#1f77b4" stroke-width="1.4211023622047245"/><line x1="1149.889658198143" y1="155.99009387698476" x2="1153.3932598714418" y2="154.05690058506104" stroke="#1f77b4" stroke-width="1.4211023622047245"/><line x1="1153.3932598714418" y1="154.05690058506104" x2="1156.8968615447402" y2="152.12370729313704" stroke="#1f77b4" stroke-width="1.4211023622047245"/><line x1="1156.8968615447402" y1="152.12370729313704" x2="1160.400463218039" y2="150.1905140012133" stroke="#1f77b4" stroke-width="1.4211023622047245"/><line x1="1160.400463218039" y1="150.1905140012133" x2="1163.9040648913376" y2="148.25732070928873" stroke="#1f77b4" stroke-width="1.4211023622047245"/><line x1="1163.9040648913376" y1="148.25732070928873" x2="1167.4076665646362" y2="146.3241274173643" stroke="#1f77b4" stroke-width="1.4211023622047245"/><line x1="1167.4076665646362" y1="146.3241274173643" x2="1170.9112682379348" y2="144.39093412544062" stroke="#1f77b4" stroke-width="1.4211023622047245"/><line x1="1170.9112682379348" y1="144.39093412544062" x2="1174.4148699112334" y2="142.45774083351688" stroke="#1f77b4" stroke-width="1.4211023622047245"/><line x1="1174.4148699112334" y1="142.45774083351688" x2="1177.9184715845322" y2="140.52454754159228" stroke="#1f77b4" stroke-width="1.4211023622047245"/><line x1="1177.9184715845322" y1="140.52454754159228" x2="1181.4220732578308" y2="138.5913542496687" stroke="#1f77b4" stroke-width="1.4211023622047245"/><line x1="1181.4220732578308" y1="138.5913542496687" x2="1184.9256749311294" y2="136.65816095774497" stroke="#1f77b4" stroke-width="1.4211023622047245"/><line x1="1184.9256749311294" y1="136.65816095774497" x2="1188.4292766044282" y2="134.7249676658204" stroke="#1f77b4" stroke-width="1.4211023622047245"/><line x1="1188.4292766044282" y1="134.7249676658204" x2="1191.9328782777268" y2="132.79177437389674" stroke="#1f77b4" stroke-width="1.4211023622047245"/><line x1="1191.9328782777268" y1="132.79177437389674" x2="1195.4364799510254" y2="130.8585810819726" stroke="#1f77b4" stroke-width="1.4211023622047245"/><line x1="1195.4364799510254" y1="130.8585810819726" x2="1198.940081624324" y2="128.92538779004872" stroke="#1f77b4" stroke-width="1.4211023622047245"/><line x1="1198.940081624324" y1="128.92538779004872" x2="1202.4436832976226" y2="126.99219449812456" stroke="#1f77b4" stroke-width="1.4211023622047245"/><line x1="1202.4436832976226" y1="126.99219449812456" x2="1205.9472849709214" y2="125.0590012062006" stroke="#1f77b4" stroke-width="1.4211023622047245"/><line x1="1205.9472849709214" y1="125.0590012062006" x2="1209.45088664422" y2="123.1258079142763" stroke="#1f77b4" stroke-width="1.4211023622047245"/><line x1="1209.45088664422" y1="123.1258079142763" x2="1212.9544883175186" y2="121.19261462235261" stroke="#1f77b4" stroke-width="1.4211023622047245"/><line x1="1212.9544883175186" y1="121.19261462235261" x2="1216.4580899908171" y2="119.25942133042811" stroke="#1f77b4" stroke-width="1.4211023622047245"/><line x1="1216.4580899908171" y1="119.25942133042811" x2="1219.9616916641157" y2="117.32622803850461" stroke="#1f77b4" stroke-width="1.4211023622047245"/><line x1="1219.9616916641157" y1="117.32622803850461" x2="1223.4652933374146" y2="115.39303474658087" stroke="#1f77b4" stroke-width="1.4211023622047245"/><line x1="1223.4652933374146" y1="115.39303474658087" x2="1226.9688950107131" y2="113.45984145465668" stroke="#1f77b4" stroke-width="1.4211023622047245"/><line x1="1226.9688950107131" y1="113.45984145465668" x2="1230.4724966840117" y2="111.52664816273246" stroke="#1f77b4" stroke-width="1.4211023622047245"/><line x1="1230.4724966840117" y1="111.52664816273246" x2="1233.9760983573105" y2="109.59345487080812" stroke="#1f77b4" stroke-width="1.4211023622047245"/><line x1="1233.9760983573105" y1="109.59345487080812" x2="1237.4797000306091" y2="107.6602615788845" stroke="#1f77b4" stroke-width="1.4211023622047245"/><line x1="1237.4797000306091" y1="107.6602615788845" x2="1240.9833017039077" y2="105.72706828696023" stroke="#1f77b4" stroke-width="1.4211023622047245"/><line x1="1240.9833017039077" y1="105.72706828696023" x2="1244.4869033772063" y2="103.79387499503737" stroke="#1f77b4" stroke-width="1.4211023622047245"/><line x1="1244.4869033772063" y1="103.79387499503737" x2="1247.990505050505" y2="101.86068170311235" stroke="#1f77b4" stroke-width="1.4211023622047245"/><circle cx="901.1339393939394" cy="273.27371471441097" r="3.1181102362204727" fill="#1f77b4" fill-opacity="0.85" stroke="none"><title>(1, 5.1)</title></circle><circle cx="939.6735578002244" cy="291.07220523862634" r="3.1181102362204727" fill="#1f77b4" fill-opacity="0.85" stroke="none"><title>(2, 3.4)</title></circle><circle cx="978.2131762065096" cy="228.25400338845466" r="3.1181102362204727" fill="#1f77b4" fill-opacity="0.85" stroke="none"><title>(3, 9.4)</title></circle><circle cx="1016.7527946127946" cy="261.7570443752129" r="3.1181102362204727" fill="#1f77b4" fill-opacity="0.85" stroke="none"><title>(4, 6.2)</title></circle><circle cx="1055.2924130190797" cy="197.89187249420502" r="3.1181102362204727" fill="#1f77b4" fill-opacity="0.85" stroke="none"><title>(5, 12.3)</title></circle><circle cx="1093.8320314253647" cy="183.2342920624983" r="3.1181102362204727" fill="#1f77b4" fill-opacity="0.85" stroke="none"><title>(6, 13.7)</title></circle><circle cx="1132.3716498316498" cy="192.65702234002404" r="3.1181102362204727" fill="#1f77b4" fill-opacity="0.85" stroke="none"><title>(7, 12.8)</title></circle><circle cx="1170.9112682379348" cy="118.32215015065427" r="3.1181102362204727" fill="#1f77b4" fill-opacity="0.85" stroke="none"><title>(8, 19.9)</title></circle><circle cx="1209.45088664422" cy="139.26155076737814" r="3.1181102362204727" fill="#1f77b4" fill-opacity="0.85" stroke="none"><title>(9, 17.9)</title></circle><circle cx="1247.990505050505" cy="87.96001925640462" r="3.1181102362204727" fill="#1f77b4" fill-opacity="0.85" stroke="none"><title>(10, 22.8)</title></circle></svg>