<svg xmlns="http://www.w3.org/2000/svg" width="624" height="384" viewBox="0 0 624 384"><rect x="0.0" y="0.0" width="624.0" height="384.0" fill="#ffffff" fill-opacity="1.0" stroke="none"/><line x1="115.30356488344826" y1="32.266666666666666" x2="115.30356488344826" y2="340.0" stroke="#dddddd" stroke-width="0.6666666666666666"/><line x1="238.75121961509592" y1="32.266666666666666" x2="238.75121961509592" y2="340.0" stroke="#dddddd" stroke-width="0.6666666666666666"/><line x1="362.1988743467435" y1="32.266666666666666" x2="362.1988743467435" y2="340.0" stroke="#dddddd" stroke-width="0.6666666666666666"/><line x1="485.64652907839115" y1="32.266666666666666" x2="485.64652907839115" y2="340.0" stroke="#dddddd" stroke-width="0.6666666666666666"/><line x1="609.0941838100388" y1="32.266666666666666" x2="609.0941838100388" y2="340.0" stroke="#dddddd" stroke-width="0.6666666666666666"/><line x1="177.02739224927205" y1="32.266666666666666" x2="177.02739224927205" y2="340.0" stroke="#dddddd" stroke-width="1.3333333333333333"/><line x1="300.4750469809197" y1="32.266666666666666" x2="300.4750469809197" y2="340.0" stroke="#dddddd" stroke-width="1.3333333333333333"/><line x1="423.9227017125673" y1="32.266666666666666" x2="423.9227017125673" y2="340.0" stroke="#dddddd" stroke-width="1.3333333333333333"/><line x1="547.370356444215" y1="32.266666666666666" x2="547.370356444215" y2="340.0" stroke="#dddddd" stroke-width="1.3333333333333333"/><line x1="60.42666666666666" y1="274.1498681291472" x2="616.6666666666666" y2="274.1498681291472" stroke="#dddddd" stroke-width="0.6666666666666666"/><line x1="60.42666666666666" y1="170.42536196319924" x2="616.6666666666666" y2="170.42536196319924" stroke="#dddddd" stroke-width="0.6666666666666666"/><line x1="60.42666666666666" y1="66.70085579725131" x2="616.6666666666666" y2="66.70085579725131" stroke="#dddddd" stroke-width="0.6666666666666666"/><line x1="60.42666666666666" y1="326.0121212121212" x2="616.6666666666666" y2="326.0121212121212" stroke="#dddddd" stroke-width="1.3333333333333333"/><line x1="60.42666666666666" y1="222.28761504617324" x2="616.6666666666666" y2="222.28761504617324" stroke="#dddddd" stroke-width="1.3333333333333333"/><line x1="60.42666666666666" y1="118.56310888022529" x2="616.6666666666666" y2="118.56310888022529" stroke="#dddddd" stroke-width="1.3333333333333333"/><rect x="60.42666666666666" y="32.266666666666666" width="556.24" height="307.73333333333335" fill="#ffffff" fill-opacity="0.0" stroke="#444444" stroke-width="1.3333333333333333"/><line x1="177.02739224927205" y1="340.0" x2="177.02739224927205" y2="343.66666666666663" stroke="#444444" stroke-width="1.3333333333333333"/><text x="177.02739224927205" y="355.9866666666667" fill="#333333" font-size="11.733333333333334" font-family="sans-serif" text-anchor="middle">-20</text><line x1="300.4750469809197" y1="340.0" x2="300.4750469809197" y2="343.66666666666663" stroke="#444444" stroke-width="1.3333333333333333"/><text x="300.4750469809197" y="355.9866666666667" fill="#333333" font-size="11.733333333333334" font-family="sans-serif" text-anchor="middle">0</text><line x1="423.9227017125673" y1="340.0" x2="423.9227017125673" y2="343.66666666666663" stroke="#444444" stroke-width="1.3333333333333333"/><text x="423.9227017125673" y="355.9866666666667" fill="#333333" font-size="11.733333333333334" font-family="sans-serif" text-anchor="middle">20</text><line x1="547.370356444215" y1="340.0" x2="547.370356444215" y2="343.66666666666663" stroke="#444444" stroke-width="1.3333333333333333"/><text x="547.370356444215" y="355.9866666666667" fill="#333333" font-size="11.733333333333334" font-family="sans-serif" text-anchor="middle">40</text><line x1="60.42666666666666" y1="326.0121212121212" x2="56.76" y2="326.0121212121212" stroke="#444444" stroke-width="1.3333333333333333"/><text x="53.82666666666666" y="330.1187878787879" fill="#333333" font-size="11.733333333333334" font-family="sans-serif" text-anchor="end">0.00</text><line x1="60.42666666666666" y1="222.28761504617324" x2="56.76" y2="222.28761504617324" stroke="#444444" stroke-width="1.3333333333333333"/><text x="53.82666666666666" y="226.39428171283993" fill="#333333" font-size="11.733333333333334" font-family="sans-serif" text-anchor="end">0.05</text><line x1="60.42666666666666" y1="118.56310888022529" x2="56.76" y2="118.56310888022529" stroke="#444444" stroke-width="1.3333333333333333"/><text x="53.82666666666666" y="122.66977554689194" fill="#333333" font-size="11.733333333333334" font-family="sans-serif" text-anchor="end">0.10</text><text x="60.42666666666666" y="21.413333333333334" fill="#333333" font-size="17.599999999999998" font-family="sans-serif" text-anchor="start">energy</text><text x="338.5466666666666" y="373.73333333333335" fill="#333333" font-size="14.666666666666666" font-family="sans-serif" text-anchor="middle">Energy</text><text x="17.599999999999998" y="186.13333333333333" fill="#333333" font-size="14.666666666666666" font-family="sans-serif" text-anchor="middle" transform="rotate(-90.0 17.599999999999998 186.13333333333333)">Density</text><line x1="85.71030303030302" y1="326.0121212121212" x2="88.25137201157304" y2="326.0121212121212" stroke="#4C72B0" stroke-width="1.4211023622047245"/><line x1="88.25137201157304" y1="326.0121212121212" x2="90.79244099284298" y2="326.0121212121212" stroke="#4C72B0" stroke-width="1.4211023622047245"/><line x1="90.79244099284298" y1="326.0121212121212" x2="93.333509974113" y2="326.0121212121212" stroke="#4C72B0" stroke-width="1.4211023622047245"/><line x1="93.333509974113" y1="326.0121212121212" x2="95.87457895538297" y2="326.0121212121212" stroke="#4C72B0" stroke-width="1.4211023622047245"/><line x1="95.87457895538297" y1="326.0121212121212" x2="98.41564793665296" y2="326.0121212121212" stroke="#4C72B0" stroke-width="1.4211023622047245"/><line x1="98.41564793665296" y1="326.0121212121212" x2="100.95671691792293" y2="326.0121212121212" stroke="#4C72B0" stroke-width="1.4211023622047245"/><line x1="100.95671691792293" y1="326.0121212121212" x2="103.49778589919293" y2="326.0121212121212" stroke="#4C72B0" stroke-width="1.4211023622047245"/><line x1="103.49778589919293" y1="326.0121212121212" x2="106.03885488046292" y2="326.0121212121212" stroke="#4C72B0" stroke-width="1.4211023622047245"/><line x1="106.03885488046292" y1="326.0121212121212" x2="108.5799238617329" y2="326.0121212121212" stroke="#4C72B0" stroke-width="1.4211023622047245"/><line x1="108.5799238617329" y1="326.0121212121212" x2="111.12099284300288" y2="326.0121212121212" stroke="#4C72B0" stroke-width="1.4211023622047245"/><line x1="111.12099284300288" y1="326.0121212121212" x2="113.66206182427288" y2="326.0121212121212" stroke="#4C72B0" stroke-width="1.4211023622047245"/><line x1="113.66206182427288" y1="326.0121212121212" x2="116.20313080554286" y2="326.0121212121212" stroke="#4C72B0" stroke-width="1.4211023622047245"/><line x1="116.20313080554286" y1="326.0121212121212" x2="118.74419978681284" y2="326.0121212121212" stroke="#4C72B0" stroke-width="1.4211023622047245"/><line x1="118.74419978681284" y1="326.0121212121212" x2="121.28526876808283" y2="326.0121212121212" stroke="#4C72B0" stroke-width="1.4211023622047245"/><line x1="121.28526876808283" y1="326.0121212121212" x2="123.8263377493528" y2="326.0121212121212" stroke="#4C72B0" stroke-width="1.4211023622047245"/><line x1="123.8263377493528" y1="326.0121212121212" x2="126.3674067306228" y2="326.0121212121212" stroke="#4C72B0" stroke-width="1.4211023622047245"/><line x1="126.3674067306228" y1="326.0121212121212" x2="128.90847571189278" y2="326.0121212121212" stroke="#4C72B0" stroke-width="1.4211023622047245"/><line x1="128.90847571189278" y1="326.0121212121212" x2="131.44954469316275" y2="326.0121212121212" stroke="#4C72B0" stroke-width="1.4211023622047245"/><line x1="131.44954469316275" y1="326.0121212121212" x2="133.99061367443278" y2="326.0121212121212" stroke="#4C72B0" stroke-width="1.4211023622047245"/><line x1="133.99061367443278" y1="326.0121212121212" x2="136.53168265570275" y2="326.0121212121212" stroke="#4C72B0" stroke-width="1.4211023622047245"/><line x1="136.53168265570275" y1="326.0121212121212" x2="139.07275163697275" y2="326.0121212121212" stroke="#4C72B0" stroke-width="1.4211023622047245"/><line x1="139.07275163697275" y1="326.0121212121212" x2="141.6138206182427" y2="326.0121212121212" stroke="#4C72B0" stroke-width="1.4211023622047245"/><line x1="141.6138206182427" y1="326.0121212121212" x2="144.15488959951273" y2="326.0121212121212" stroke="#4C72B0" stroke-width="1.4211023622047245"/><line x1="144.15488959951273" y1="326.0121212121212" x2="146.69595858078267" y2="326.0121212121211" stroke="#4C72B0" stroke-width="1.4211023622047245"/><line x1="146.69595858078267" y1="326.0121212121211" x2="149.23702756205267" y2="326.0121212121199" stroke="#4C72B0" stroke-width="1.4211023622047245"/><line x1="149.23702756205267" y1="326.0121212121199" x2="151.77809654332265" y2="326.0121212121094" stroke="#4C72B0" stroke-width="1.4211023622047245"/><line x1="151.77809654332265" y1="326.0121212121094" x2="154.31916552459268" y2="326.0121212120247" stroke="#4C72B0" stroke-width="1.4211023622047245"/><line x1="154.31916552459268" y1="326.0121212120247" x2="156.86023450586265" y2="326.0121212114003" stroke="#4C72B0" stroke-width="1.4211023622047245"/><line x1="156.86023450586265" y1="326.0121212114003" x2="159.40130348713265" y2="326.0121212072038" stroke="#4C72B0" stroke-width="1.4211023622047245"/><line x1="159.40130348713265" y1="326.0121212072038" x2="161.94237246840262" y2="326.0121211814704" stroke="#4C72B0" stroke-width="1.4211023622047245"/><line x1="161.94237246840262" y1="326.0121211814704" x2="164.4834414496726" y2="326.01212103747105" stroke="#4C72B0" stroke-width="1.4211023622047245"/><line x1="164.4834414496726" y1="326.01212103747105" x2="167.02451043094257" y2="326.0121203018648" stroke="#4C72B0" stroke-width="1.4211023622047245"/><line x1="167.02451043094257" y1="326.0121203018648" x2="169.56557941221257" y2="326.0121168698647" stroke="#4C72B0" stroke-width="1.4211023622047245"/><line x1="169.56557941221257" y1="326.0121168698647" x2="172.10664839348254" y2="326.0121022377857" stroke="#4C72B0" stroke-width="1.4211023622047245"/><line x1="172.10664839348254" y1="326.0121022377857" x2="174.64771737475257" y2="326.01204519305537" stroke="#4C72B0" stroke-width="1.4211023622047245"/><line x1="174.64771737475257" y1="326.01204519305537" x2="177.18878635602255" y2="326.0118416599296" stroke="#4C72B0" stroke-width="1.4211023622047245"/><line x1="177.18878635602255" y1="326.0118416599296" x2="179.72985533729252" y2="326.01117638275093" stroke="#4C72B0" stroke-width="1.4211023622047245"/><line x1="179.72985533729252" y1="326.01117638275093" x2="182.2709243185625" y2="326.00918181611564" stroke="#4C72B0" stroke-width="1.4211023622047245"/><line x1="182.2709243185625" y1="326.00918181611564" x2="184.8119932998325" y2="326.00368881227695" stroke="#4C72B0" stroke-width="1.4211023622047245"/><line x1="184.8119932998325" y1="326.00368881227695" x2="187.35306228110247" y2="325.989768706933" stroke="#4C72B0" stroke-width="1.4211023622047245"/><line x1="187.35306228110247" y1="325.989768706933" x2="189.89413126237247" y2="325.95724282755157" stroke="#4C72B0" stroke-width="1.4211023622047245"/><line x1="189.89413126237247" y1="325.95724282755157" x2="192.43520024364244" y2="325.88700358973136" stroke="#4C72B0" stroke-width="1.4211023622047245"/><line x1="192.43520024364244" y1="325.88700358973136" x2="194.97626922491241" y2="325.7464557682903" stroke="#4C72B0" stroke-width="1.4211023622047245"/><line x1="194.97626922491241" y1="325.7464557682903" x2="197.51733820618244" y2="325.4851240291568" stroke="#4C72B0" stroke-width="1.4211023622047245"/><line x1="197.51733820618244" y1="325.4851240291568" x2="200.05840718745242" y2="325.0322357989244" stroke="#4C72B0" stroke-width="1.4211023622047245"/><line x1="200.05840718745242" y1="325.0322357989244" x2="202.5994761687224" y2="324.2984220203535" stroke="#4C72B0" stroke-width="1.4211023622047245"/><line x1="202.5994761687224" y1="324.2984220203535" x2="205.14054514999236" y2="323.1830982649283" stroke="#4C72B0" stroke-width="1.4211023622047245"/><line x1="205.14054514999236" y1="323.1830982649283" x2="207.68161413126236" y2="321.58737925658477" stroke="#4C72B0" stroke-width="1.4211023622047245"/><line x1="207.68161413126236" y1="321.58737925658477" x2="210.22268311253237" y2="319.42991045340466" stroke="#4C72B0" stroke-width="1.4211023622047245"/><line x1="210.22268311253237" y1="319.42991045340466" x2="212.76375209380234" y2="316.66089154352096" stroke="#4C72B0" stroke-width="1.4211023622047245"/><line x1="212.76375209380234" y1="316.66089154352096" x2="215.3048210750723" y2="313.2693809105774" stroke="#4C72B0" stroke-width="1.4211023622047245"/><line x1="215.3048210750723" y1="313.2693809105774" x2="217.84589005634234" y2="309.28165370935915" stroke="#4C72B0" stroke-width="1.4211023622047245"/><line x1="217.84589005634234" y1="309.28165370935915" x2="220.3869590376123" y2="304.75293822962374" stroke="#4C72B0" stroke-width="1.4211023622047245"/><line x1="220.3869590376123" y1="304.75293822962374" x2="222.9280280188823" y2="299.7582268643742" stroke="#4C72B0" stroke-width="1.4211023622047245"/><line x1="222.9280280188823" y1="299.7582268643742" x2="225.46909700015226" y2="294.3871986583145" stroke="#4C72B0" stroke-width="1.4211023622047245"/><line x1="225.46909700015226" y1="294.3871986583145" x2="228.01016598142226" y2="288.7440476895854" stroke="#4C72B0" stroke-width="1.4211023622047245"/><line x1="228.01016598142226" y1="288.7440476895854" x2="230.55123496269223" y2="282.94920055588534" stroke="#4C72B0" stroke-width="1.4211023622047245"/><line x1="230.55123496269223" y1="282.94920055588534" x2="233.0923039439622" y2="277.1400330974336" stroke="#4C72B0" stroke-width="1.4211023622047245"/><line x1="233.0923039439622" y1="277.1400330974336" x2="235.6333729252322" y2="271.4703989630134" stroke="#4C72B0" stroke-width="1.4211023622047245"/><line x1="235.6333729252322" y1="271.4703989630134" x2="238.17444190650218" y2="266.10913190719896" stroke="#4C72B0" stroke-width="1.4211023622047245"/><line x1="238.17444190650218" y1="266.10913190719896" x2="240.7155108877722" y2="261.2337966167921" stroke="#4C72B0" stroke-width="1.4211023622047245"/><line x1="240.7155108877722" y1="261.2337966167921" x2="243.25657986904218" y2="257.012759196364" stroke="#4C72B0" stroke-width="1.4211023622047245"/><line x1="243.25657986904218" y1="257.012759196364" x2="245.79764885031216" y2="253.57263930594667" stroke="#4C72B0" stroke-width="1.4211023622047245"/><line x1="245.79764885031216" y1="253.57263930594667" x2="248.33871783158213" y2="250.95875903401526" stroke="#4C72B0" stroke-width="1.4211023622047245"/><line x1="248.33871783158213" y1="250.95875903401526" x2="250.87978681285213" y2="249.10477345960786" stroke="#4C72B0" stroke-width="1.4211023622047245"/><line x1="250.87978681285213" y1="249.10477345960786" x2="253.4208557941221" y2="247.8269650874262" stroke="#4C72B0" stroke-width="1.4211023622047245"/><line x1="253.4208557941221" y1="247.8269650874262" x2="255.96192477539208" y2="246.85026320839998" stroke="#4C72B0" stroke-width="1.4211023622047245"/><line x1="255.96192477539208" y1="246.85026320839998" x2="258.5029937566621" y2="245.86358166788594" stroke="#4C72B0" stroke-width="1.4211023622047245"/><line x1="258.5029937566621" y1="245.86358166788594" x2="261.04406273793205" y2="244.5942568617378" stroke="#4C72B0" stroke-width="1.4211023622047245"/><line x1="261.04406273793205" y1="244.5942568617378" x2="263.5851317192021" y2="242.8828764720512" stroke="#4C72B0" stroke-width="1.4211023622047245"/><line x1="263.5851317192021" y1="242.8828764720512" x2="266.12620070047205" y2="240.73155760598888" stroke="#4C72B0" stroke-width="1.4211023622047245"/><line x1="266.12620070047205" y1="240.73155760598888" x2="268.667269681742" y2="238.2995403666892" stroke="#4C72B0" stroke-width="1.4211023622047245"/><line x1="268.667269681742" y1="238.2995403666892" x2="271.208338663012" y2="235.8381583106772" stroke="#4C72B0" stroke-width="1.4211023622047245"/><line x1="271.208338663012" y1="235.8381583106772" x2="273.74940764428203" y2="233.58805228167927" stroke="#4C72B0" stroke-width="1.4211023622047245"/><line x1="273.74940764428203" y1="233.58805228167927" x2="276.29047662555195" y2="231.68578993638872" stroke="#4C72B0" stroke-width="1.4211023622047245"/><line x1="276.29047662555195" y1="231.68578993638872" x2="278.8315456068219" y2="230.12550598111574" stroke="#4C72B0" stroke-width="1.4211023622047245"/><line x1="278.8315456068219" y1="230.12550598111574" x2="281.37261458809195" y2="228.79110565761545" stroke="#4C72B0" stroke-width="1.4211023622047245"/><line x1="281.37261458809195" y1="228.79110565761545" x2="283.913683569362" y2="227.53420457568" stroke="#4C72B0" stroke-width="1.4211023622047245"/><line x1="283.913683569362" y1="227.53420457568" x2="286.4547525506319" y2="226.24914976771782" stroke="#4C72B0" stroke-width="1.4211023622047245"/><line x1="286.4547525506319" y1="226.24914976771782" x2="288.9958215319019" y2="224.9050175245815" stroke="#4C72B0" stroke-width="1.4211023622047245"/><line x1="288.9958215319019" y1="224.9050175245815" x2="291.5368905131719" y2="223.52800799222132" stroke="#4C72B0" stroke-width="1.4211023622047245"/><line x1="291.5368905131719" y1="223.52800799222132" x2="294.07795949444187" y2="222.16068002408736" stroke="#4C72B0" stroke-width="1.4211023622047245"/><line x1="294.07795949444187" y1="222.16068002408736" x2="296.61902847571184" y2="220.8333480649485" stroke="#4C72B0" stroke-width="1.4211023622047245"/><line x1="296.61902847571184" y1="220.8333480649485" x2="299.1600974569819" y2="219.56466453011433" stroke="#4C72B0" stroke-width="1.4211023622047245"/><line x1="299.1600974569819" y1="219.56466453011433" x2="301.70116643825185" y2="218.38144518181713" stroke="#4C72B0" stroke-width="1.4211023622047245"/><line x1="301.70116643825185" y1="218.38144518181713" x2="304.2422354195219" y2="217.3344673071113" stroke="#4C72B0" stroke-width="1.4211023622047245"/><line x1="304.2422354195219" y1="217.3344673071113" x2="306.7833044007918" y2="216.49445077513616" stroke="#4C72B0" stroke-width="1.4211023622047245"/><line x1="306.7833044007918" y1="216.49445077513616" x2="309.3243733820618" y2="215.93031323524815" stroke="#4C72B0" stroke-width="1.4211023622047245"/><line x1="309.3243733820618" y1="215.93031323524815" x2="311.8654423633318" y2="215.68518042824127" stroke="#4C72B0" stroke-width="1.4211023622047245"/><line x1="311.8654423633318" y1="215.68518042824127" x2="314.40651134460177" y2="215.76744535107423" stroke="#4C72B0" stroke-width="1.4211023622047245"/><line x1="314.40651134460177" y1="215.76744535107423" x2="316.94758032587174" y2="216.16572036522612" stroke="#4C72B0" stroke-width="1.4211023622047245"/><line x1="316.94758032587174" y1="216.16572036522612" x2="319.48864930714177" y2="216.88209874768177" stroke="#4C72B0" stroke-width="1.4211023622047245"/><line x1="319.48864930714177" y1="216.88209874768177" x2="322.02971828841174" y2="217.96380716026457" stroke="#4C72B0" stroke-width="1.4211023622047245"/><line x1="322.02971828841174" y1="217.96380716026457" x2="324.5707872696817" y2="219.5085640583674" stroke="#4C72B0" stroke-width="1.4211023622047245"/><line x1="324.5707872696817" y1="219.5085640583674" x2="327.1118562509517" y2="221.6317455200504" stroke="#4C72B0" stroke-width="1.4211023622047245"/><line x1="327.1118562509517" y1="221.6317455200504" x2="329.6529252322217" y2="224.4096242763281" stroke="#4C72B0" stroke-width="1.4211023622047245"/><line x1="329.6529252322217" y1="224.4096242763281" x2="332.1939942134917" y2="227.8337966512368" stroke="#4C72B0" stroke-width="1.4211023622047245"/><line x1="332.1939942134917" y1="227.8337966512368" x2="334.73506319476166" y2="231.8083962620006" stroke="#4C72B0" stroke-width="1.4211023622047245"/><line x1="334.73506319476166" y1="231.8083962620006" x2="337.27613217603164" y2="236.19304317374696" stroke="#4C72B0" stroke-width="1.4211023622047245"/><line x1="337.27613217603164" y1="236.19304317374696" x2="339.8172011573016" y2="240.86152659158017" stroke="#4C72B0" stroke-width="1.4211023622047245"/><line x1="339.8172011573016" y1="240.86152659158017" x2="342.3582701385717" y2="245.73493511908993" stroke="#4C72B0" stroke-width="1.4211023622047245"/><line x1="342.3582701385717" y1="245.73493511908993" x2="344.89933911984167" y2="250.76805236938404" stroke="#4C72B0" stroke-width="1.4211023622047245"/><line x1="344.89933911984167" y1="250.76805236938404" x2="347.44040810111164" y2="255.90453481643596" stroke="#4C72B0" stroke-width="1.4211023622047245"/><line x1="347.44040810111164" y1="255.90453481643596" x2="349.9814770823816" y2="261.04131796809816" stroke="#4C72B0" stroke-width="1.4211023622047245"/><line x1="349.9814770823816" y1="261.04131796809816" x2="352.5225460636516" y2="266.03581992743466" stroke="#4C72B0" stroke-width="1.4211023622047245"/><line x1="352.5225460636516" y1="266.03581992743466" x2="355.0636150449216" y2="270.7555442110135" stroke="#4C72B0" stroke-width="1.4211023622047245"/><line x1="355.0636150449216" y1="270.7555442110135" x2="357.60468402619153" y2="275.1352897705235" stroke="#4C72B0" stroke-width="1.4211023622047245"/><line x1="357.60468402619153" y1="275.1352897705235" x2="360.14575300746156" y2="279.19973885679724" stroke="#4C72B0" stroke-width="1.4211023622047245"/><line x1="360.14575300746156" y1="279.19973885679724" x2="362.68682198873154" y2="283.03440806146324" stroke="#4C72B0" stroke-width="1.4211023622047245"/><line x1="362.68682198873154" y1="283.03440806146324" x2="365.2278909700015" y2="286.72552373783367" stroke="#4C72B0" stroke-width="1.4211023622047245"/><line x1="365.2278909700015" y1="286.72552373783367" x2="367.7689599512715" y2="290.31018470453307" stroke="#4C72B0" stroke-width="1.4211023622047245"/><line x1="367.7689599512715" y1="290.31018470453307" x2="370.3100289325415" y2="293.7675603863296" stroke="#4C72B0" stroke-width="1.4211023622047245"/><line x1="370.3100289325415" y1="293.7675603863296" x2="372.85109791381143" y2="297.05002784806703" stroke="#4C72B0" stroke-width="1.4211023622047245"/><line x1="372.85109791381143" y1="297.05002784806703" x2="375.39216689508146" y2="300.12543333696533" stroke="#4C72B0" stroke-width="1.4211023622047245"/><line x1="375.39216689508146" y1="300.12543333696533" x2="377.93323587635143" y2="302.9981010030889" stroke="#4C72B0" stroke-width="1.4211023622047245"/><line x1="377.93323587635143" y1="302.9981010030889" x2="380.4743048576214" y2="305.6967391808488" stroke="#4C72B0" stroke-width="1.4211023622047245"/><line x1="380.4743048576214" y1="305.6967391808488" x2="383.0153738388914" y2="308.24377346597635" stroke="#4C72B0" stroke-width="1.4211023622047245"/><line x1="383.0153738388914" y1="308.24377346597635" x2="385.55644282016135" y2="310.6323344044364" stroke="#4C72B0" stroke-width="1.4211023622047245"/><line x1="385.55644282016135" y1="310.6323344044364" x2="388.0975118014313" y2="312.82748245177453" stroke="#4C72B0" stroke-width="1.4211023622047245"/><line x1="388.0975118014313" y1="312.82748245177453" x2="390.6385807827014" y2="314.7878586693346" stroke="#4C72B0" stroke-width="1.4211023622047245"/><line x1="390.6385807827014" y1="314.7878586693346" x2="393.1796497639714" y2="316.4898732801394" stroke="#4C72B0" stroke-width="1.4211023622047245"/><line x1="393.1796497639714" y1="316.4898732801394" x2="395.72071874524136" y2="317.9380193826359" stroke="#4C72B0" stroke-width="1.4211023622047245"/><line x1="395.72071874524136" y1="317.9380193826359" x2="398.26178772651133" y2="319.1577364376003" stroke="#4C72B0" stroke-width="1.4211023622047245"/><line x1="398.26178772651133" y1="319.1577364376003" x2="400.80285670778136" y2="320.17983740454093" stroke="#4C72B0" stroke-width="1.4211023622047245"/><line x1="400.80285670778136" y1="320.17983740454093" x2="403.34392568905133" y2="321.02907596261826" stroke="#4C72B0" stroke-width="1.4211023622047245"/><line x1="403.34392568905133" y1="321.02907596261826" x2="405.8849946703213" y2="321.7235458052494" stroke="#4C72B0" stroke-width="1.4211023622047245"/><line x1="405.8849946703213" y1="321.7235458052494" x2="408.4260636515913" y2="322.2823354515061" stroke="#4C72B0" stroke-width="1.4211023622047245"/><line x1="408.4260636515913" y1="322.2823354515061" x2="410.96713263286125" y2="322.7331351690337" stroke="#4C72B0" stroke-width="1.4211023622047245"/><line x1="410.96713263286125" y1="322.7331351690337" x2="413.5082016141313" y2="323.1125288350362" stroke="#4C72B0" stroke-width="1.4211023622047245"/><line x1="413.5082016141313" y1="323.1125288350362" x2="416.04927059540125" y2="323.45778056051097" stroke="#4C72B0" stroke-width="1.4211023622047245"/><line x1="416.04927059540125" y1="323.45778056051097" x2="418.5903395766712" y2="323.7952528595373" stroke="#4C72B0" stroke-width="1.4211023622047245"/><line x1="418.5903395766712" y1="323.7952528595373" x2="421.1314085579412" y2="324.1327982005098" stroke="#4C72B0" stroke-width="1.4211023622047245"/><line x1="421.1314085579412" y1="324.1327982005098" x2="423.6724775392112" y2="324.460520806488" stroke="#4C72B0" stroke-width="1.4211023622047245"/><line x1="423.6724775392112" y1="324.460520806488" x2="426.21354652048115" y2="324.7589016953867" stroke="#4C72B0" stroke-width="1.4211023622047245"/><line x1="426.21354652048115" y1="324.7589016953867" x2="428.75461550175123" y2="325.00939803243523" stroke="#4C72B0" stroke-width="1.4211023622047245"/><line x1="428.75461550175123" y1="325.00939803243523" x2="431.2956844830211" y2="325.20239003723145" stroke="#4C72B0" stroke-width="1.4211023622047245"/><line x1="431.2956844830211" y1="325.20239003723145" x2="433.8367534642912" y2="325.3398682158854" stroke="#4C72B0" stroke-width="1.4211023622047245"/><line x1="433.8367534642912" y1="325.3398682158854" x2="436.37782244556115" y2="325.4331696578604" stroke="#4C72B0" stroke-width="1.4211023622047245"/><line x1="436.37782244556115" y1="325.4331696578604" x2="438.9188914268311" y2="325.49781015743747" stroke="#4C72B0" stroke-width="1.4211023622047245"/><line x1="438.9188914268311" y1="325.49781015743747" x2="441.4599604081011" y2="325.5479322121519" stroke="#4C72B0" stroke-width="1.4211023622047245"/><line x1="441.4599604081011" y1="325.5479322121519" x2="444.0010293893711" y2="325.5925490301022" stroke="#4C72B0" stroke-width="1.4211023622047245"/><line x1="444.0010293893711" y1="325.5925490301022" x2="446.54209837064104" y2="325.63475864004636" stroke="#4C72B0" stroke-width="1.4211023622047245"/><line x1="446.54209837064104" y1="325.63475864004636" x2="449.0831673519111" y2="325.67358666597033" stroke="#4C72B0" stroke-width="1.4211023622047245"/><line x1="449.0831673519111" y1="325.67358666597033" x2="451.62423633318105" y2="325.7068336336549" stroke="#4C72B0" stroke-width="1.4211023622047245"/><line x1="451.62423633318105" y1="325.7068336336549" x2="454.165305314451" y2="325.7331723329826" stroke="#4C72B0" stroke-width="1.4211023622047245"/><line x1="454.165305314451" y1="325.7331723329826" x2="456.706374295721" y2="325.7528108914029" stroke="#4C72B0" stroke-width="1.4211023622047245"/><line x1="456.706374295721" y1="325.7528108914029" x2="459.24744327699096" y2="325.76725500302496" stroke="#4C72B0" stroke-width="1.4211023622047245"/><line x1="459.24744327699096" y1="325.76725500302496" x2="461.78851225826094" y2="325.77898135803264" stroke="#4C72B0" stroke-width="1.4211023622047245"/><line x1="461.78851225826094" y1="325.77898135803264" x2="464.32958123953097" y2="325.7911902994947" stroke="#4C72B0" stroke-width="1.4211023622047245"/><line x1="464.32958123953097" y1="325.7911902994947" x2="466.87065022080094" y2="325.80721852687856" stroke="#4C72B0" stroke-width="1.4211023622047245"/><line x1="466.87065022080094" y1="325.80721852687856" x2="469.411719202071" y2="325.8294084701722" stroke="#4C72B0" stroke-width="1.4211023622047245"/><line x1="469.411719202071" y1="325.8294084701722" x2="471.9527881833409" y2="325.85795340211166" stroke="#4C72B0" stroke-width="1.4211023622047245"/><line x1="471.9527881833409" y1="325.85795340211166" x2="474.493857164611" y2="325.8905729730486" stroke="#4C72B0" stroke-width="1.4211023622047245"/><line x1="474.493857164611" y1="325.8905729730486" x2="477.03492614588095" y2="325.9233879749736" stroke="#4C72B0" stroke-width="1.4211023622047245"/><line x1="477.03492614588095" y1="325.9233879749736" x2="479.5759951271509" y2="325.9525093937032" stroke="#4C72B0" stroke-width="1.4211023622047245"/><line x1="479.5759951271509" y1="325.9525093937032" x2="482.11706410842095" y2="325.9754143004134" stroke="#4C72B0" stroke-width="1.4211023622047245"/><line x1="482.11706410842095" y1="325.9754143004134" x2="484.65813308969086" y2="325.99145641049694" stroke="#4C72B0" stroke-width="1.4211023622047245"/><line x1="484.65813308969086" y1="325.99145641049694" x2="487.19920207096084" y2="326.00150190510345" stroke="#4C72B0" stroke-width="1.4211023622047245"/><line x1="487.19920207096084" y1="326.00150190510345" x2="489.74027105223087" y2="326.0071447660959" stroke="#4C72B0" stroke-width="1.4211023622047245"/><line x1="489.74027105223087" y1="326.0071447660959" x2="492.28134003350084" y2="326.00999581002685" stroke="#4C72B0" stroke-width="1.4211023622047245"/><line x1="492.28134003350084" y1="326.00999581002685" x2="494.82240901477076" y2="326.0112942166281" stroke="#4C72B0" stroke-width="1.4211023622047245"/><line x1="494.82240901477076" y1="326.0112942166281" x2="497.3634779960408" y2="326.0118281167986" stroke="#4C72B0" stroke-width="1.4211023622047245"/><line x1="497.3634779960408" y1="326.0118281167986" x2="499.90454697731076" y2="326.012026610273" stroke="#4C72B0" stroke-width="1.4211023622047245"/><line x1="499.90454697731076" y1="326.012026610273" x2="502.4456159585808" y2="326.0120934060484" stroke="#4C72B0" stroke-width="1.4211023622047245"/><line x1="502.4456159585808" y1="326.0120934060484" x2="504.9866849398507" y2="326.0121137698188" stroke="#4C72B0" stroke-width="1.4211023622047245"/><line x1="504.9866849398507" y1="326.0121137698188" x2="507.5277539211207" y2="326.0121193983211" stroke="#4C72B0" stroke-width="1.4211023622047245"/><line x1="507.5277539211207" y1="326.0121193983211" x2="510.0688229023907" y2="326.01212080961" stroke="#4C72B0" stroke-width="1.4211023622047245"/><line x1="510.0688229023907" y1="326.01212080961" x2="512.6098918836607" y2="326.01212113078793" stroke="#4C72B0" stroke-width="1.4211023622047245"/><line x1="512.6098918836607" y1="326.01212113078793" x2="515.1509608649307" y2="326.0121211971569" stroke="#4C72B0" stroke-width="1.4211023622047245"/><line x1="515.1509608649307" y1="326.0121211971569" x2="517.6920298462007" y2="326.0121212096143" stroke="#4C72B0" stroke-width="1.4211023622047245"/><line x1="517.6920298462007" y1="326.0121212096143" x2="520.2330988274706" y2="326.01212121173876" stroke="#4C72B0" stroke-width="1.4211023622047245"/><line x1="520.2330988274706" y1="326.01212121173876" x2="522.7741678087407" y2="326.0121212120681" stroke="#4C72B0" stroke-width="1.4211023622047245"/><line x1="522.7741678087407" y1="326.0121212120681" x2="525.3152367900107" y2="326.0121212121145" stroke="#4C72B0" stroke-width="1.4211023622047245"/><line x1="525.3152367900107" y1="326.0121212121145" x2="527.8563057712806" y2="326.0121212121204" stroke="#4C72B0" stroke-width="1.4211023622047245"/><line x1="527.8563057712806" y1="326.0121212121204" x2="530.3973747525506" y2="326.0121212121211" stroke="#4C72B0" stroke-width="1.4211023622047245"/><line x1="530.3973747525506" y1="326.0121212121211" x2="532.9384437338206" y2="326.0121212121212" stroke="#4C72B0" stroke-width="1.4211023622047245"/><line x1="532.9384437338206" y1="326.0121212121212" x2="535.4795127150906" y2="326.0121212121212" stroke="#4C72B0" stroke-width="1.4211023622047245"/><line x1="535.4795127150906" y1="326.0121212121212" x2="538.0205816963605" y2="326.0121212121212" stroke="#4C72B0" stroke-width="1.4211023622047245"/><line x1="538.0205816963605" y1="326.0121212121212" x2="540.5616506776305" y2="326.0121212121212" stroke="#4C72B0" stroke-width="1.4211023622047245"/><line x1="540.5616506776305" y1="326.0121212121212" x2="543.1027196589006" y2="326.0121212121212" stroke="#4C72B0" stroke-width="1.4211023622047245"/><line x1="543.1027196589006" y1="326.0121212121212" x2="545.6437886401704" y2="326.0121212121212" stroke="#4C72B0" stroke-width="1.4211023622047245"/><line x1="545.6437886401704" y1="326.0121212121212" x2="548.1848576214404" y2="326.0121212121212" stroke="#4C72B0" stroke-width="1.4211023622047245"/><line x1="548.1848576214404" y1="326.0121212121212" x2="550.7259266027105" y2="326.0121212121212" stroke="#4C72B0" stroke-width="1.4211023622047245"/><line x1="550.7259266027105" y1="326.0121212121212" x2="553.2669955839805" y2="326.0121212121212" stroke="#4C72B0" stroke-width="1.4211023622047245"/><line x1="553.2669955839805" y1="326.0121212121212" x2="555.8080645652503" y2="326.0121212121212" stroke="#4C72B0" stroke-width="1.4211023622047245"/><line x1="555.8080645652503" y1="326.0121212121212" x2="558.3491335465204" y2="326.0121212121212" stroke="#4C72B0" stroke-width="1.4211023622047245"/><line x1="558.3491335465204" y1="326.0121212121212" x2="560.8902025277904" y2="326.0121212121212" stroke="#4C72B0" stroke-width="1.4211023622047245"/><line x1="560.8902025277904" y1="326.0121212121212" x2="563.4312715090605" y2="326.0121212121212" stroke="#4C72B0" stroke-width="1.4211023622047245"/><line x1="563.4312715090605" y1="326.0121212121212" x2="565.9723404903305" y2="326.0121212121212" stroke="#4C72B0" stroke-width="1.4211023622047245"/><line x1="565.9723404903305" y1="326.0121212121212" x2="568.5134094716003" y2="326.0121212121212" stroke="#4C72B0" stroke-width="1.4211023622047245"/><line x1="568.5134094716003" y1="326.0121212121212" x2="571.0544784528704" y2="326.0121212121212" stroke="#4C72B0" stroke-width="1.4211023622047245"/><line x1="571.0544784528704" y1="326.0121212121212" x2="573.5955474341404" y2="326.0121212121212" stroke="#4C72B0" stroke-width="1.4211023622047245"/><line x1="573.5955474341404" y1="326.0121212121212" x2="576.1366164154103" y2="326.0121212121212" stroke="#4C72B0" stroke-width="1.4211023622047245"/><line x1="576.1366164154103" y1="326.0121212121212" x2="578.6776853966803" y2="326.0121212121212" stroke="#4C72B0" stroke-width="1.4211023622047245"/><line x1="578.6776853966803" y1="326.0121212121212" x2="581.2187543779503" y2="326.0121212121212" stroke="#4C72B0" stroke-width="1.4211023622047245"/><line x1="581.2187543779503" y1="326.0121212121212" x2="583.7598233592203" y2="326.0121212121212" stroke="#4C72B0" stroke-width="1.4211023622047245"/><line x1="583.7598233592203" y1="326.0121212121212" x2="586.3008923404903" y2="326.0121212121212" stroke="#4C72B0" stroke-width="1.4211023622047245"/><line x1="586.3008923404903" y1="326.0121212121212" x2="588.8419613217602" y2="326.0121212121212" stroke="#4C72B0" stroke-width="1.4211023622047245"/><line x1="588.8419613217602" y1="326.0121212121212" x2="591.3830303030303" y2="326.0121212121212" stroke="#4C72B0" stroke-width="1.4211023622047245"/><line x1="130.38416016974773" y1="326.0121212121212" x2="131.9845056207365" y2="326.0121212121212" stroke="#DD8452" stroke-width="1.4211023622047245"/><line x1="131.9845056207365" y1="326.0121212121212" x2="133.58485107172532" y2="326.0121212121212" stroke="#DD8452" stroke-width="1.4211023622047245"/><line x1="133.58485107172532" y1="326.0121212121212" x2="135.1851965227141" y2="326.0121212121212" stroke="#DD8452" stroke-width="1.4211023622047245"/><line x1="135.1851965227141" y1="326.0121212121212" x2="136.78554197370292" y2="326.0121212121212" stroke="#DD8452" stroke-width="1.4211023622047245"/><line x1="136.78554197370292" y1="326.0121212121212" x2="138.3858874246917" y2="326.0121212121212" stroke="#DD8452" stroke-width="1.4211023622047245"/><line x1="138.3858874246917" y1="326.0121212121212" x2="139.9862328756805" y2="326.0121212121212" stroke="#DD8452" stroke-width="1.4211023622047245"/><line x1="139.9862328756805" y1="326.0121212121212" x2="141.5865783266693" y2="326.0121212121212" stroke="#DD8452" stroke-width="1.4211023622047245"/><line x1="141.5865783266693" y1="326.0121212121212" x2="143.1869237776581" y2="326.0121212121212" stroke="#DD8452" stroke-width="1.4211023622047245"/><line x1="143.1869237776581" y1="326.0121212121212" x2="144.7872692286469" y2="326.0121212121212" stroke="#DD8452" stroke-width="1.4211023622047245"/><line x1="144.7872692286469" y1="326.0121212121212" x2="146.3876146796357" y2="326.0121212121212" stroke="#DD8452" stroke-width="1.4211023622047245"/><line x1="146.3876146796357" y1="326.0121212121212" x2="147.98796013062446" y2="326.0121212121212" stroke="#DD8452" stroke-width="1.4211023622047245"/><line x1="147.98796013062446" y1="326.0121212121212" x2="149.58830558161333" y2="326.0121212121212" stroke="#DD8452" stroke-width="1.4211023622047245"/><line x1="149.58830558161333" y1="326.0121212121212" x2="151.18865103260208" y2="326.0121212121212" stroke="#DD8452" stroke-width="1.4211023622047245"/><line x1="151.18865103260208" y1="326.0121212121212" x2="152.7889964835909" y2="326.0121212121212" stroke="#DD8452" stroke-width="1.4211023622047245"/><line x1="152.7889964835909" y1="326.0121212121212" x2="154.38934193457968" y2="326.0121212121212" stroke="#DD8452" stroke-width="1.4211023622047245"/><line x1="154.38934193457968" y1="326.0121212121212" x2="155.9896873855685" y2="326.0121212121212" stroke="#DD8452" stroke-width="1.4211023622047245"/><line x1="155.9896873855685" y1="326.0121212121212" x2="157.5900328365573" y2="326.0121212121212" stroke="#DD8452" stroke-width="1.4211023622047245"/><line x1="157.5900328365573" y1="326.0121212121212" x2="159.19037828754608" y2="326.012121212121" stroke="#DD8452" stroke-width="1.4211023622047245"/><line x1="159.19037828754608" y1="326.012121212121" x2="160.7907237385349" y2="326.0121212121174" stroke="#DD8452" stroke-width="1.4211023622047245"/><line x1="160.7907237385349" y1="326.0121212121174" x2="162.39106918952365" y2="326.0121212120575" stroke="#DD8452" stroke-width="1.4211023622047245"/><line x1="162.39106918952365" y1="326.0121212120575" x2="163.99141464051246" y2="326.0121212112188" stroke="#DD8452" stroke-width="1.4211023622047245"/><line x1="163.99141464051246" y1="326.0121212112188" x2="165.59176009150124" y2="326.0121212013105" stroke="#DD8452" stroke-width="1.4211023622047245"/><line x1="165.59176009150124" y1="326.0121212013105" x2="167.19210554249005" y2="326.0121211025422" stroke="#DD8452" stroke-width="1.4211023622047245"/><line x1="167.19210554249005" y1="326.0121211025422" x2="168.79245099347887" y2="326.0121202723992" stroke="#DD8452" stroke-width="1.4211023622047245"/><line x1="168.79245099347887" y1="326.0121202723992" x2="170.39279644446765" y2="326.0121143938967" stroke="#DD8452" stroke-width="1.4211023622047245"/><line x1="170.39279644446765" y1="326.0121143938967" x2="171.99314189545646" y2="326.01207935755383" stroke="#DD8452" stroke-width="1.4211023622047245"/><line x1="171.99314189545646" y1="326.01207935755383" x2="173.59348734644527" y2="326.0119038348807" stroke="#DD8452" stroke-width="1.4211023622047245"/><line x1="173.59348734644527" y1="326.0119038348807" x2="175.19383279743403" y2="326.01116603274085" stroke="#DD8452" stroke-width="1.4211023622047245"/><line x1="175.19383279743403" y1="326.01116603274085" x2="176.79417824842284" y2="326.00857017298404" stroke="#DD8452" stroke-width="1.4211023622047245"/><line x1="176.79417824842284" y1="326.00857017298404" x2="178.39452369941165" y2="326.00095192045853" stroke="#DD8452" stroke-width="1.4211023622047245"/><line x1="178.39452369941165" y1="326.00095192045853" x2="179.99486915040046" y2="325.98239801939206" stroke="#DD8452" stroke-width="1.4211023622047245"/><line x1="179.99486915040046" y1="325.98239801939206" x2="181.59521460138924" y2="325.9451998247264" stroke="#DD8452" stroke-width="1.4211023622047245"/><line x1="181.59521460138924" y1="325.9451998247264" x2="183.19556005237806" y2="325.88464355667566" stroke="#DD8452" stroke-width="1.4211023622047245"/><line x1="183.19556005237806" y1="325.88464355667566" x2="184.79590550336684" y2="325.8066727704388" stroke="#DD8452" stroke-width="1.4211023622047245"/><line x1="184.79590550336684" y1="325.8066727704388" x2="186.39625095435565" y2="325.731983686436" stroke="#DD8452" stroke-width="1.4211023622047245"/><line x1="186.39625095435565" y1="325.731983686436" x2="187.9965964053444" y2="325.6889450061242" stroke="#DD8452" stroke-width="1.4211023622047245"/><line x1="187.9965964053444" y1="325.6889450061242" x2="189.59694185633322" y2="325.69668821632007" stroke="#DD8452" stroke-width="1.4211023622047245"/><line x1="189.59694185633322" y1="325.69668821632007" x2="191.19728730732203" y2="325.7516411325025" stroke="#DD8452" stroke-width="1.4211023622047245"/><line x1="191.19728730732203" y1="325.7516411325025" x2="192.7976327583108" y2="325.8301337100202" stroke="#DD8452" stroke-width="1.4211023622047245"/><line x1="192.7976327583108" y1="325.8301337100202" x2="194.39797820929962" y2="325.9045469774643" stroke="#DD8452" stroke-width="1.4211023622047245"/><line x1="194.39797820929962" y1="325.9045469774643" x2="195.99832366028843" y2="325.95832216065776" stroke="#DD8452" stroke-width="1.4211023622047245"/><line x1="195.99832366028843" y1="325.95832216065776" x2="197.59866911127722" y2="325.9893576289196" stroke="#DD8452" stroke-width="1.4211023622047245"/><line x1="197.59866911127722" y1="325.9893576289196" x2="199.19901456226603" y2="326.00397217522016" stroke="#DD8452" stroke-width="1.4211023622047245"/><line x1="199.19901456226603" y1="326.00397217522016" x2="200.79936001325484" y2="326.00965306185736" stroke="#DD8452" stroke-width="1.4211023622047245"/><line x1="200.79936001325484" y1="326.00965306185736" x2="202.39970546424365" y2="326.01148874702494" stroke="#DD8452" stroke-width="1.4211023622047245"/><line x1="202.39970546424365" y1="326.01148874702494" x2="204.00005091523238" y2="326.0119840919572" stroke="#DD8452" stroke-width="1.4211023622047245"/><line x1="204.00005091523238" y1="326.0119840919572" x2="205.60039636622122" y2="326.01209605986537" stroke="#DD8452" stroke-width="1.4211023622047245"/><line x1="205.60039636622122" y1="326.01209605986537" x2="207.20074181721" y2="326.01211730064676" stroke="#DD8452" stroke-width="1.4211023622047245"/><line x1="207.20074181721" y1="326.01211730064676" x2="208.8010872681988" y2="326.01212061401094" stroke="#DD8452" stroke-width="1.4211023622047245"/><line x1="208.8010872681988" y1="326.01212061401094" x2="210.4014327191876" y2="326.01212039646737" stroke="#DD8452" stroke-width="1.4211023622047245"/><line x1="210.4014327191876" y1="326.01212039646737" x2="212.0017781701764" y2="326.0121154947794" stroke="#DD8452" stroke-width="1.4211023622047245"/><line x1="212.0017781701764" y1="326.0121154947794" x2="213.60212362116522" y2="326.01208462973335" stroke="#DD8452" stroke-width="1.4211023622047245"/><line x1="213.60212362116522" y1="326.01208462973335" x2="215.20246907215397" y2="326.0119215207183" stroke="#DD8452" stroke-width="1.4211023622047245"/><line x1="215.20246907215397" y1="326.0119215207183" x2="216.80281452314279" y2="326.01118970824297" stroke="#DD8452" stroke-width="1.4211023622047245"/><line x1="216.80281452314279" y1="326.01118970824297" x2="218.40315997413157" y2="326.00839544238727" stroke="#DD8452" stroke-width="1.4211023622047245"/><line x1="218.40315997413157" y1="326.00839544238727" x2="220.00350542512038" y2="325.99928776765023" stroke="#DD8452" stroke-width="1.4211023622047245"/><line x1="220.00350542512038" y1="325.99928776765023" x2="221.6038508761092" y2="325.9738468306475" stroke="#DD8452" stroke-width="1.4211023622047245"/><line x1="221.6038508761092" y1="325.9738468306475" x2="223.20419632709797" y2="325.91265421741457" stroke="#DD8452" stroke-width="1.4211023622047245"/><line x1="223.20419632709797" y1="325.91265421741457" x2="224.8045417780868" y2="325.7852718949988" stroke="#DD8452" stroke-width="1.4211023622047245"/><line x1="224.8045417780868" y1="325.7852718949988" x2="226.4048872290756" y2="325.5547315634677" stroke="#DD8452" stroke-width="1.4211023622047245"/><line x1="226.4048872290756" y1="325.5547315634677" x2="228.00523268006435" y2="325.190921394" stroke="#DD8452" stroke-width="1.4211023622047245"/><line x1="228.00523268006435" y1="325.190921394" x2="229.60557813105316" y2="324.69021213741564" stroke="#DD8452" stroke-width="1.4211023622047245"/><line x1="229.60557813105316" y1="324.69021213741564" x2="231.20592358204195" y2="324.09081367392304" stroke="#DD8452" stroke-width="1.4211023622047245"/><line x1="231.20592358204195" y1="324.09081367392304" x2="232.80626903303076" y2="323.46899457356835" stroke="#DD8452" stroke-width="1.4211023622047245"/><line x1="232.80626903303076" y1="323.46899457356835" x2="234.40661448401954" y2="322.9083140936909" stroke="#DD8452" stroke-width="1.4211023622047245"/><line x1="234.40661448401954" y1="322.9083140936909" x2="236.00695993500835" y2="322.4531239691103" stroke="#DD8452" stroke-width="1.4211023622047245"/><line x1="236.00695993500835" y1="322.4531239691103" x2="237.60730538599717" y2="322.07467261056524" stroke="#DD8452" stroke-width="1.4211023622047245"/><line x1="237.60730538599717" y1="322.07467261056524" x2="239.20765083698598" y2="321.67562820327845" stroke="#DD8452" stroke-width="1.4211023622047245"/><line x1="239.20765083698598" y1="321.67562820327845" x2="240.80799628797473" y2="321.1367785973814" stroke="#DD8452" stroke-width="1.4211023622047245"/><line x1="240.80799628797473" y1="321.1367785973814" x2="242.40834173896354" y2="320.3843698006148" stroke="#DD8452" stroke-width="1.4211023622047245"/><line x1="242.40834173896354" y1="320.3843698006148" x2="244.00868718995233" y2="319.44097148238166" stroke="#DD8452" stroke-width="1.4211023622047245"/><line x1="244.00868718995233" y1="319.44097148238166" x2="245.6090326409411" y2="318.42304370131717" stroke="#DD8452" stroke-width="1.4211023622047245"/><line x1="245.6090326409411" y1="318.42304370131717" x2="247.20937809192995" y2="317.47220760035964" stroke="#DD8452" stroke-width="1.4211023622047245"/><line x1="247.20937809192995" y1="317.47220760035964" x2="248.80972354291873" y2="316.65162029475033" stroke="#DD8452" stroke-width="1.4211023622047245"/><line x1="248.80972354291873" y1="316.65162029475033" x2="250.41006899390754" y2="315.87224154288674" stroke="#DD8452" stroke-width="1.4211023622047245"/><line x1="250.41006899390754" y1="315.87224154288674" x2="252.01041444489636" y2="314.9004151168543" stroke="#DD8452" stroke-width="1.4211023622047245"/><line x1="252.01041444489636" y1="314.9004151168543" x2="253.6107598958851" y2="313.4451117189585" stroke="#DD8452" stroke-width="1.4211023622047245"/><line x1="253.6107598958851" y1="313.4451117189585" x2="255.2111053468739" y2="311.27298175646035" stroke="#DD8452" stroke-width="1.4211023622047245"/><line x1="255.2111053468739" y1="311.27298175646035" x2="256.81145079786273" y2="308.28141722428836" stroke="#DD8452" stroke-width="1.4211023622047245"/><line x1="256.81145079786273" y1="308.28141722428836" x2="258.4117962488515" y2="304.4835351589772" stroke="#DD8452" stroke-width="1.4211023622047245"/><line x1="258.4117962488515" y1="304.4835351589772" x2="260.0121416998403" y2="299.9239891367905" stroke="#DD8452" stroke-width="1.4211023622047245"/><line x1="260.0121416998403" y1="299.9239891367905" x2="261.6124871508291" y2="294.607083641617" stroke="#DD8452" stroke-width="1.4211023622047245"/><line x1="261.6124871508291" y1="294.607083641617" x2="263.2128326018179" y2="288.50441640156464" stroke="#DD8452" stroke-width="1.4211023622047245"/><line x1="263.2128326018179" y1="288.50441640156464" x2="264.8131780528067" y2="281.6203678859496" stroke="#DD8452" stroke-width="1.4211023622047245"/><line x1="264.8131780528067" y1="281.6203678859496" x2="266.4135235037955" y2="274.03212061831516" stroke="#DD8452" stroke-width="1.4211023622047245"/><line x1="266.4135235037955" y1="274.03212061831516" x2="268.0138689547843" y2="265.8515710018398" stroke="#DD8452" stroke-width="1.4211023622047245"/><line x1="268.0138689547843" y1="265.8515710018398" x2="269.6142144057731" y2="257.1315693361783" stroke="#DD8452" stroke-width="1.4211023622047245"/><line x1="269.6142144057731" y1="257.1315693361783" x2="271.21455985676187" y2="247.78881173107462" stroke="#DD8452" stroke-width="1.4211023622047245"/><line x1="271.21455985676187" y1="247.78881173107462" x2="272.8149053077507" y2="237.61775336172514" stroke="#DD8452" stroke-width="1.4211023622047245"/><line x1="272.8149053077507" y1="237.61775336172514" x2="274.4152507587395" y2="226.41356867598907" stroke="#DD8452" stroke-width="1.4211023622047245"/><line x1="274.4152507587395" y1="226.41356867598907" x2="276.0155962097283" y2="214.12160972269783" stroke="#DD8452" stroke-width="1.4211023622047245"/><line x1="276.0155962097283" y1="214.12160972269783" x2="277.6159416607171" y2="200.88119476872816" stroke="#DD8452" stroke-width="1.4211023622047245"/><line x1="277.6159416607171" y1="200.88119476872816" x2="279.21628711170587" y2="186.9254940488835" stroke="#DD8452" stroke-width="1.4211023622047245"/><line x1="279.21628711170587" y1="186.9254940488835" x2="280.8166325626946" y2="172.46402609487657" stroke="#DD8452" stroke-width="1.4211023622047245"/><line x1="280.8166325626946" y1="172.46402609487657" x2="282.41697801368343" y2="157.70771436007175" stroke="#DD8452" stroke-width="1.4211023622047245"/><line x1="282.41697801368343" y1="157.70771436007175" x2="284.01732346467224" y2="143.01325608024757" stroke="#DD8452" stroke-width="1.4211023622047245"/><line x1="284.01732346467224" y1="143.01325608024757" x2="285.61766891566106" y2="128.91208891776165" stroke="#DD8452" stroke-width="1.4211023622047245"/><line x1="285.61766891566106" y1="128.91208891776165" x2="287.21801436664987" y2="115.85189288497295" stroke="#DD8452" stroke-width="1.4211023622047245"/><line x1="287.21801436664987" y1="115.85189288497295" x2="288.8183598176386" y2="103.83920683427091" stroke="#DD8452" stroke-width="1.4211023622047245"/><line x1="288.8183598176386" y1="103.83920683427091" x2="290.41870526862743" y2="92.41250972193055" stroke="#DD8452" stroke-width="1.4211023622047245"/><line x1="290.41870526862743" y1="92.41250972193055" x2="292.0190507196163" y2="81.10915348375995" stroke="#DD8452" stroke-width="1.4211023622047245"/><line x1="292.0190507196163" y1="81.10915348375995" x2="293.61939617060506" y2="70.05490879260313" stroke="#DD8452" stroke-width="1.4211023622047245"/><line x1="293.61939617060506" y1="70.05490879260313" x2="295.2197416215938" y2="60.12180809920301" stroke="#DD8452" stroke-width="1.4211023622047245"/><line x1="295.2197416215938" y1="60.12180809920301" x2="296.8200870725826" y2="52.47380313841252" stroke="#DD8452" stroke-width="1.4211023622047245"/><line x1="296.8200870725826" y1="52.47380313841252" x2="298.42043252357144" y2="47.86159302367631" stroke="#DD8452" stroke-width="1.4211023622047245"/><line x1="298.42043252357144" y1="47.86159302367631" x2="300.02077797456025" y2="46.25454545454545" stroke="#DD8452" stroke-width="1.4211023622047245"/><line x1="300.02077797456025" y1="46.25454545454545" x2="301.62112342554906" y2="47.11356762478332" stroke="#DD8452" stroke-width="1.4211023622047245"/><line x1="301.62112342554906" y1="47.11356762478332" x2="303.2214688765378" y2="50.02715639678884" stroke="#DD8452" stroke-width="1.4211023622047245"/><line x1="303.2214688765378" y1="50.02715639678884" x2="304.8218143275266" y2="55.096597042830695" stroke="#DD8452" stroke-width="1.4211023622047245"/><line x1="304.8218143275266" y1="55.096597042830695" x2="306.4221597785155" y2="62.73339689417268" stroke="#DD8452" stroke-width="1.4211023622047245"/><line x1="306.4221597785155" y1="62.73339689417268" x2="308.0225052295043" y2="73.12729064579112" stroke="#DD8452" stroke-width="1.4211023622047245"/><line x1="308.0225052295043" y1="73.12729064579112" x2="309.622850680493" y2="85.90706332786681" stroke="#DD8452" stroke-width="1.4211023622047245"/><line x1="309.622850680493" y1="85.90706332786681" x2="311.2231961314818" y2="100.22591180848174" stroke="#DD8452" stroke-width="1.4211023622047245"/><line x1="311.2231961314818" y1="100.22591180848174" x2="312.8235415824706" y2="115.0854624612992" stroke="#DD8452" stroke-width="1.4211023622047245"/><line x1="312.8235415824706" y1="115.0854624612992" x2="314.42388703345944" y2="129.6504914688285" stroke="#DD8452" stroke-width="1.4211023622047245"/><line x1="314.42388703345944" y1="129.6504914688285" x2="316.02423248444825" y2="143.50484514786876" stroke="#DD8452" stroke-width="1.4211023622047245"/><line x1="316.02423248444825" y1="143.50484514786876" x2="317.62457793543695" y2="156.81112487023384" stroke="#DD8452" stroke-width="1.4211023622047245"/><line x1="317.62457793543695" y1="156.81112487023384" x2="319.22492338642576" y2="170.16307877624178" stroke="#DD8452" stroke-width="1.4211023622047245"/><line x1="319.22492338642576" y1="170.16307877624178" x2="320.8252688374146" y2="184.0413271512124" stroke="#DD8452" stroke-width="1.4211023622047245"/><line x1="320.8252688374146" y1="184.0413271512124" x2="322.42561428840344" y2="198.25201867609007" stroke="#DD8452" stroke-width="1.4211023622047245"/><line x1="322.42561428840344" y1="198.25201867609007" x2="324.0259597393922" y2="211.9080657293338" stroke="#DD8452" stroke-width="1.4211023622047245"/><line x1="324.0259597393922" y1="211.9080657293338" x2="325.626305190381" y2="224.03966909181716" stroke="#DD8452" stroke-width="1.4211023622047245"/><line x1="325.626305190381" y1="224.03966909181716" x2="327.2266506413698" y2="234.30192415581578" stroke="#DD8452" stroke-width="1.4211023622047245"/><line x1="327.2266506413698" y1="234.30192415581578" x2="328.8269960923586" y2="243.16931139051673" stroke="#DD8452" stroke-width="1.4211023622047245"/><line x1="328.8269960923586" y1="243.16931139051673" x2="330.4273415433474" y2="251.5032527995013" stroke="#DD8452" stroke-width="1.4211023622047245"/><line x1="330.4273415433474" y1="251.5032527995013" x2="332.0276869943362" y2="259.9158531354411" stroke="#DD8452" stroke-width="1.4211023622047245"/><line x1="332.0276869943362" y1="259.9158531354411" x2="333.62803244532495" y2="268.4480978560563" stroke="#DD8452" stroke-width="1.4211023622047245"/><line x1="333.62803244532495" y1="268.4480978560563" x2="335.22837789631376" y2="276.71933032511515" stroke="#DD8452" stroke-width="1.4211023622047245"/><line x1="335.22837789631376" y1="276.71933032511515" x2="336.8287233473026" y2="284.2916742372933" stroke="#DD8452" stroke-width="1.4211023622047245"/><line x1="336.8287233473026" y1="284.2916742372933" x2="338.4290687982914" y2="290.9148601008703" stroke="#DD8452" stroke-width="1.4211023622047245"/><line x1="338.4290687982914" y1="290.9148601008703" x2="340.0294142492802" y2="296.5455962667153" stroke="#DD8452" stroke-width="1.4211023622047245"/><line x1="340.0294142492802" y1="296.5455962667153" x2="341.629759700269" y2="301.2506261818669" stroke="#DD8452" stroke-width="1.4211023622047245"/><line x1="341.629759700269" y1="301.2506261818669" x2="343.2301051512578" y2="305.1228208951898" stroke="#DD8452" stroke-width="1.4211023622047245"/><line x1="343.2301051512578" y1="305.1228208951898" x2="344.83045060224663" y2="308.252000768639" stroke="#DD8452" stroke-width="1.4211023622047245"/><line x1="344.83045060224663" y1="308.252000768639" x2="346.4307960532354" y2="310.73006132558794" stroke="#DD8452" stroke-width="1.4211023622047245"/><line x1="346.4307960532354" y1="310.73006132558794" x2="348.03114150422425" y2="312.6636046655903" stroke="#DD8452" stroke-width="1.4211023622047245"/><line x1="348.03114150422425" y1="312.6636046655903" x2="349.63148695521295" y2="314.1845133269937" stroke="#DD8452" stroke-width="1.4211023622047245"/><line x1="349.63148695521295" y1="314.1845133269937" x2="351.23183240620176" y2="315.45468783116564" stroke="#DD8452" stroke-width="1.4211023622047245"/><line x1="351.23183240620176" y1="315.45468783116564" x2="352.8321778571906" y2="316.64734892736533" stroke="#DD8452" stroke-width="1.4211023622047245"/><line x1="352.8321778571906" y1="316.64734892736533" x2="354.4325233081793" y2="317.8884889864792" stroke="#DD8452" stroke-width="1.4211023622047245"/><line x1="354.4325233081793" y1="317.8884889864792" x2="356.0328687591682" y2="319.1861249573627" stroke="#DD8452" stroke-width="1.4211023622047245"/><line x1="356.0328687591682" y1="319.1861249573627" x2="357.633214210157" y2="320.4157344636079" stroke="#DD8452" stroke-width="1.4211023622047245"/><line x1="357.633214210157" y1="320.4157344636079" x2="359.2335596611458" y2="321.3974307212036" stroke="#DD8452" stroke-width="1.4211023622047245"/><line x1="359.2335596611458" y1="321.3974307212036" x2="360.8339051121346" y2="322.0157249928595" stroke="#DD8452" stroke-width="1.4211023622047245"/><line x1="360.8339051121346" y1="322.0157249928595" x2="362.43425056312344" y2="322.2938100120223" stroke="#DD8452" stroke-width="1.4211023622047245"/><line x1="362.43425056312344" y1="322.2938100120223" x2="364.03459601411214" y2="322.37903058492276" stroke="#DD8452" stroke-width="1.4211023622047245"/><line x1="364.03459601411214" y1="322.37903058492276" x2="365.63494146510095" y2="322.4634389318619" stroke="#DD8452" stroke-width="1.4211023622047245"/><line x1="365.63494146510095" y1="322.4634389318619" x2="367.23528691608976" y2="322.69320857073126" stroke="#DD8452" stroke-width="1.4211023622047245"/><line x1="367.23528691608976" y1="322.69320857073126" x2="368.8356323670785" y2="323.1141835632658" stroke="#DD8452" stroke-width="1.4211023622047245"/><line x1="368.8356323670785" y1="323.1141835632658" x2="370.4359778180674" y2="323.67539925642967" stroke="#DD8452" stroke-width="1.4211023622047245"/><line x1="370.4359778180674" y1="323.67539925642967" x2="372.03632326905614" y2="324.27604479228967" stroke="#DD8452" stroke-width="1.4211023622047245"/><line x1="372.03632326905614" y1="324.27604479228967" x2="373.6366687200449" y2="324.81732134209614" stroke="#DD8452" stroke-width="1.4211023622047245"/><line x1="373.6366687200449" y1="324.81732134209614" x2="375.23701417103376" y2="325.23206064341207" stroke="#DD8452" stroke-width="1.4211023622047245"/><line x1="375.23701417103376" y1="325.23206064341207" x2="376.83735962202263" y2="325.4936936589248" stroke="#DD8452" stroke-width="1.4211023622047245"/><line x1="376.83735962202263" y1="325.4936936589248" x2="378.43770507301133" y2="325.6160616038506" stroke="#DD8452" stroke-width="1.4211023622047245"/><line x1="378.43770507301133" y1="325.6160616038506" x2="380.03805052400014" y2="325.6449176706311" stroke="#DD8452" stroke-width="1.4211023622047245"/><line x1="380.03805052400014" y1="325.6449176706311" x2="381.638395974989" y2="325.6367249395711" stroke="#DD8452" stroke-width="1.4211023622047245"/><line x1="381.638395974989" y1="325.6367249395711" x2="383.2387414259777" y2="325.63140485501384" stroke="#DD8452" stroke-width="1.4211023622047245"/><line x1="383.2387414259777" y1="325.63140485501384" x2="384.8390868769666" y2="325.63764820254846" stroke="#DD8452" stroke-width="1.4211023622047245"/><line x1="384.8390868769666" y1="325.63764820254846" x2="386.43943232795533" y2="325.6432657108887" stroke="#DD8452" stroke-width="1.4211023622047245"/><line x1="386.43943232795533" y1="325.6432657108887" x2="388.0397777789441" y2="325.6404497334787" stroke="#DD8452" stroke-width="1.4211023622047245"/><line x1="388.0397777789441" y1="325.6404497334787" x2="389.6401232299329" y2="325.64062837735787" stroke="#DD8452" stroke-width="1.4211023622047245"/><line x1="389.6401232299329" y1="325.64062837735787" x2="391.2404686809217" y2="325.6650203196973" stroke="#DD8452" stroke-width="1.4211023622047245"/><line x1="391.2404686809217" y1="325.6650203196973" x2="392.8408141319105" y2="325.72334372724947" stroke="#DD8452" stroke-width="1.4211023622047245"/><line x1="392.8408141319105" y1="325.72334372724947" x2="394.44115958289933" y2="325.8040327903445" stroke="#DD8452" stroke-width="1.4211023622047245"/><line x1="394.44115958289933" y1="325.8040327903445" x2="396.04150503388814" y2="325.8839610651379" stroke="#DD8452" stroke-width="1.4211023622047245"/><line x1="396.04150503388814" y1="325.8839610651379" x2="397.6418504848769" y2="325.94505054658066" stroke="#DD8452" stroke-width="1.4211023622047245"/><line x1="397.6418504848769" y1="325.94505054658066" x2="399.24219593586577" y2="325.98237039480784" stroke="#DD8452" stroke-width="1.4211023622047245"/><line x1="399.24219593586577" y1="325.98237039480784" x2="400.8425413868545" y2="326.00094759536773" stroke="#DD8452" stroke-width="1.4211023622047245"/><line x1="400.8425413868545" y1="326.00094759536773" x2="402.4428868378433" y2="326.00856960006337" stroke="#DD8452" stroke-width="1.4211023622047245"/><line x1="402.4428868378433" y1="326.00856960006337" x2="404.04323228883214" y2="326.0111659685322" stroke="#DD8452" stroke-width="1.4211023622047245"/><line x1="404.04323228883214" y1="326.0111659685322" x2="405.64357773982084" y2="326.0119038287924" stroke="#DD8452" stroke-width="1.4211023622047245"/><line x1="405.64357773982084" y1="326.0119038287924" x2="407.2439231908097" y2="326.01207935706543" stroke="#DD8452" stroke-width="1.4211023622047245"/><line x1="407.2439231908097" y1="326.01207935706543" x2="408.84426864179846" y2="326.0121143938636" stroke="#DD8452" stroke-width="1.4211023622047245"/><line x1="408.84426864179846" y1="326.0121143938636" x2="410.4446140927872" y2="326.0121202723973" stroke="#DD8452" stroke-width="1.4211023622047245"/><line x1="410.4446140927872" y1="326.0121202723973" x2="412.0449595437761" y2="326.01212110254215" stroke="#DD8452" stroke-width="1.4211023622047245"/><line x1="412.0449595437761" y1="326.01212110254215" x2="413.64530499476484" y2="326.0121212013105" stroke="#DD8452" stroke-width="1.4211023622047245"/><line x1="413.64530499476484" y1="326.0121212013105" x2="415.24565044575365" y2="326.0121212112188" stroke="#DD8452" stroke-width="1.4211023622047245"/><line x1="415.24565044575365" y1="326.0121212112188" x2="416.84599589674247" y2="326.0121212120575" stroke="#DD8452" stroke-width="1.4211023622047245"/><line x1="416.84599589674247" y1="326.0121212120575" x2="418.44634134773133" y2="326.0121212121174" stroke="#DD8452" stroke-width="1.4211023622047245"/><line x1="418.44634134773133" y1="326.0121212121174" x2="420.04668679872003" y2="326.012121212121" stroke="#DD8452" stroke-width="1.4211023622047245"/><line x1="420.04668679872003" y1="326.012121212121" x2="421.6470322497089" y2="326.0121212121212" stroke="#DD8452" stroke-width="1.4211023622047245"/><line x1="421.6470322497089" y1="326.0121212121212" x2="423.24737770069765" y2="326.0121212121212" stroke="#DD8452" stroke-width="1.4211023622047245"/><line x1="423.24737770069765" y1="326.0121212121212" x2="424.8477231516864" y2="326.0121212121212" stroke="#DD8452" stroke-width="1.4211023622047245"/><line x1="424.8477231516864" y1="326.0121212121212" x2="426.4480686026753" y2="326.0121212121212" stroke="#DD8452" stroke-width="1.4211023622047245"/><line x1="426.4480686026753" y1="326.0121212121212" x2="428.04841405366403" y2="326.0121212121212" stroke="#DD8452" stroke-width="1.4211023622047245"/><line x1="428.04841405366403" y1="326.0121212121212" x2="429.64875950465284" y2="326.0121212121212" stroke="#DD8452" stroke-width="1.4211023622047245"/><line x1="429.64875950465284" y1="326.0121212121212" x2="431.2491049556416" y2="326.0121212121212" stroke="#DD8452" stroke-width="1.4211023622047245"/><line x1="431.2491049556416" y1="326.0121212121212" x2="432.84945040663047" y2="326.0121212121212" stroke="#DD8452" stroke-width="1.4211023622047245"/><line x1="432.84945040663047" y1="326.0121212121212" x2="434.4497958576192" y2="326.0121212121212" stroke="#DD8452" stroke-width="1.4211023622047245"/><line x1="434.4497958576192" y1="326.0121212121212" x2="436.0501413086081" y2="326.0121212121212" stroke="#DD8452" stroke-width="1.4211023622047245"/><line x1="436.0501413086081" y1="326.0121212121212" x2="437.65048675959684" y2="326.0121212121212" stroke="#DD8452" stroke-width="1.4211023622047245"/><line x1="437.65048675959684" y1="326.0121212121212" x2="439.2508322105856" y2="326.0121212121212" stroke="#DD8452" stroke-width="1.4211023622047245"/><line x1="439.2508322105856" y1="326.0121212121212" x2="440.85117766157447" y2="326.0121212121212" stroke="#DD8452" stroke-width="1.4211023622047245"/><line x1="440.85117766157447" y1="326.0121212121212" x2="442.4515231125632" y2="326.0121212121212" stroke="#DD8452" stroke-width="1.4211023622047245"/><line x1="442.4515231125632" y1="326.0121212121212" x2="444.05186856355203" y2="326.0121212121212" stroke="#DD8452" stroke-width="1.4211023622047245"/><line x1="444.05186856355203" y1="326.0121212121212" x2="445.6522140145408" y2="326.0121212121212" stroke="#DD8452" stroke-width="1.4211023622047245"/><line x1="445.6522140145408" y1="326.0121212121212" x2="447.25255946552966" y2="326.0121212121212" stroke="#DD8452" stroke-width="1.4211023622047245"/><line x1="447.25255946552966" y1="326.0121212121212" x2="448.85290491651836" y2="326.0121212121212" stroke="#DD8452" stroke-width="1.4211023622047245"/><rect x="412.82666666666665" y="37.6" width="198.50666666666666" height="58.666666666666664" fill="#ffffff" fill-opacity="0.85" stroke="#444444" stroke-width="0.6666666666666666"/><rect x="418.15999999999997" y="52.266666666666666" width="13.333333333333332" height="13.333333333333332" fill="#f2f2f2" fill-opacity="1.0" stroke="none"/><rect x="418.15999999999997" y="52.266666666666666" width="13.333333333333332" height="13.333333333333332" fill="#4C72B0" fill-opacity="1.0" stroke="#444444" stroke-width="0.6666666666666666"/><text x="439.49333333333334" y="63.04" fill="#333333" font-size="11.733333333333334" font-family="sans-serif" text-anchor="start">marginal E (centered)</text><rect x="418.15999999999997" y="73.6" width="13.333333333333332" height="13.333333333333332" fill="#f2f2f2" fill-opacity="1.0" stroke="none"/><rect x="418.15999999999997" y="73.6" width="13.333333333333332" height="13.333333333333332" fill="#DD8452" fill-opacity="1.0" stroke="#444444" stroke-width="0.6666666666666666"/><text x="439.49333333333334" y="84.37333333333333" fill="#333333" font-size="11.733333333333334" font-family="sans-serif" text-anchor="start">transition ΔE</text></svg>