<svg xmlns="http://www.w3.org/2000/svg" width="624" height="680" viewBox="0 0 624 680"><rect x="0.0" y="0.0" width="624.0" height="680.0" fill="#ffffff" fill-opacity="1.0" stroke="none"/><text x="35.346666666666664" y="21.413333333333334" fill="#333333" font-size="17.599999999999998" font-family="sans-serif" text-anchor="start">rankOf (rank plot・chain 一様性)</text><rect x="0.0" y="0.0" width="0.0" height="0.0" fill="#ffffff" fill-opacity="1.0" stroke="none"/><line x1="52.39577557755775" y1="64.53333333333333" x2="52.39577557755775" y2="196.84444444444443" stroke="#dddddd" stroke-width="1.3333333333333333"/><line x1="80.81095709570955" y1="64.53333333333333" x2="80.81095709570955" y2="196.84444444444443" stroke="#dddddd" stroke-width="1.3333333333333333"/><line x1="109.22613861386137" y1="64.53333333333333" x2="109.22613861386137" y2="196.84444444444443" stroke="#dddddd" stroke-width="1.3333333333333333"/><line x1="137.64132013201316" y1="64.53333333333333" x2="137.64132013201316" y2="196.84444444444443" stroke="#dddddd" stroke-width="1.3333333333333333"/><line x1="166.056501650165" y1="64.53333333333333" x2="166.056501650165" y2="196.84444444444443" stroke="#dddddd" stroke-width="1.3333333333333333"/><line x1="194.4716831683168" y1="64.53333333333333" x2="194.4716831683168" y2="196.84444444444443" stroke="#dddddd" stroke-width="1.3333333333333333"/><line x1="222.8868646864686" y1="64.53333333333333" x2="222.8868646864686" y2="196.84444444444443" stroke="#dddddd" stroke-width="1.3333333333333333"/><line x1="251.3020462046204" y1="64.53333333333333" x2="251.3020462046204" y2="196.84444444444443" stroke="#dddddd" stroke-width="1.3333333333333333"/><line x1="279.71722772277224" y1="64.53333333333333" x2="279.71722772277224" y2="196.84444444444443" stroke="#dddddd" stroke-width="1.3333333333333333"/><line x1="308.132409240924" y1="64.53333333333333" x2="308.132409240924" y2="196.84444444444443" stroke="#dddddd" stroke-width="1.3333333333333333"/><line x1="336.54759075907583" y1="64.53333333333333" x2="336.54759075907583" y2="196.84444444444443" stroke="#dddddd" stroke-width="1.3333333333333333"/><line x1="364.9627722772277" y1="64.53333333333333" x2="364.9627722772277" y2="196.84444444444443" stroke="#dddddd" stroke-width="1.3333333333333333"/><line x1="393.3779537953795" y1="64.53333333333333" x2="393.3779537953795" y2="196.84444444444443" stroke="#dddddd" stroke-width="1.3333333333333333"/><line x1="421.79313531353125" y1="64.53333333333333" x2="421.79313531353125" y2="196.84444444444443" stroke="#dddddd" stroke-width="1.3333333333333333"/><line x1="450.2083168316831" y1="64.53333333333333" x2="450.2083168316831" y2="196.84444444444443" stroke="#dddddd" stroke-width="1.3333333333333333"/><line x1="478.6234983498349" y1="64.53333333333333" x2="478.6234983498349" y2="196.84444444444443" stroke="#dddddd" stroke-width="1.3333333333333333"/><line x1="507.0386798679868" y1="64.53333333333333" x2="507.0386798679868" y2="196.84444444444443" stroke="#dddddd" stroke-width="1.3333333333333333"/><line x1="535.4538613861386" y1="64.53333333333333" x2="535.4538613861386" y2="196.84444444444443" stroke="#dddddd" stroke-width="1.3333333333333333"/><line x1="563.8690429042904" y1="64.53333333333333" x2="563.8690429042904" y2="196.84444444444443" stroke="#dddddd" stroke-width="1.3333333333333333"/><line x1="592.2842244224422" y1="64.53333333333333" x2="592.2842244224422" y2="196.84444444444443" stroke="#dddddd" stroke-width="1.3333333333333333"/><line x1="35.346666666666664" y1="178.0368948906262" x2="609.3333333333333" y2="178.0368948906262" stroke="#dddddd" stroke-width="0.6666666666666666"/><line x1="35.346666666666664" y1="140.4217957829898" x2="609.3333333333333" y2="140.4217957829898" stroke="#dddddd" stroke-width="0.6666666666666666"/><line x1="35.346666666666664" y1="102.80669667535338" x2="609.3333333333333" y2="102.80669667535338" stroke="#dddddd" stroke-width="0.6666666666666666"/><line x1="35.346666666666664" y1="65.19159756771695" x2="609.3333333333333" y2="65.19159756771695" stroke="#dddddd" stroke-width="0.6666666666666666"/><line x1="35.346666666666664" y1="196.84444444444443" x2="609.3333333333333" y2="196.84444444444443" stroke="#dddddd" stroke-width="1.3333333333333333"/><line x1="35.346666666666664" y1="159.22934533680802" x2="609.3333333333333" y2="159.22934533680802" stroke="#dddddd" stroke-width="1.3333333333333333"/><line x1="35.346666666666664" y1="121.61424622917158" x2="609.3333333333333" y2="121.61424622917158" stroke="#dddddd" stroke-width="1.3333333333333333"/><line x1="35.346666666666664" y1="83.99914712153517" x2="609.3333333333333" y2="83.99914712153517" stroke="#dddddd" stroke-width="1.3333333333333333"/><rect x="35.346666666666664" y="64.53333333333333" width="573.9866666666667" height="132.31111111111107" fill="#ffffff" fill-opacity="0.0" stroke="#444444" stroke-width="1.3333333333333333"/><line x1="52.39577557755775" y1="196.84444444444443" x2="52.39577557755775" y2="200.5111111111111" stroke="#444444" stroke-width="1.3333333333333333"/><text x="52.39577557755775" y="212.83111111111106" fill="#333333" font-size="11.733333333333334" font-family="sans-serif" text-anchor="middle">00</text><line x1="80.81095709570955" y1="196.84444444444443" x2="80.81095709570955" y2="200.5111111111111" stroke="#444444" stroke-width="1.3333333333333333"/><text x="80.81095709570955" y="212.83111111111106" fill="#333333" font-size="11.733333333333334" font-family="sans-serif" text-anchor="middle">01</text><line x1="109.22613861386137" y1="196.84444444444443" x2="109.22613861386137" y2="200.5111111111111" stroke="#444444" stroke-width="1.3333333333333333"/><text x="109.22613861386137" y="212.83111111111106" fill="#333333" font-size="11.733333333333334" font-family="sans-serif" text-anchor="middle">02</text><line x1="137.64132013201316" y1="196.84444444444443" x2="137.64132013201316" y2="200.5111111111111" stroke="#444444" stroke-width="1.3333333333333333"/><text x="137.64132013201316" y="212.83111111111106" fill="#333333" font-size="11.733333333333334" font-family="sans-serif" text-anchor="middle">03</text><line x1="166.056501650165" y1="196.84444444444443" x2="166.056501650165" y2="200.5111111111111" stroke="#444444" stroke-width="1.3333333333333333"/><text x="166.056501650165" y="212.83111111111106" fill="#333333" font-size="11.733333333333334" font-family="sans-serif" text-anchor="middle">04</text><line x1="194.4716831683168" y1="196.84444444444443" x2="194.4716831683168" y2="200.5111111111111" stroke="#444444" stroke-width="1.3333333333333333"/><text x="194.4716831683168" y="212.83111111111106" fill="#333333" font-size="11.733333333333334" font-family="sans-serif" text-anchor="middle">05</text><line x1="222.8868646864686" y1="196.84444444444443" x2="222.8868646864686" y2="200.5111111111111" stroke="#444444" stroke-width="1.3333333333333333"/><text x="222.8868646864686" y="212.83111111111106" fill="#333333" font-size="11.733333333333334" font-family="sans-serif" text-anchor="middle">06</text><line x1="251.3020462046204" y1="196.84444444444443" x2="251.3020462046204" y2="200.5111111111111" stroke="#444444" stroke-width="1.3333333333333333"/><text x="251.3020462046204" y="212.83111111111106" fill="#333333" font-size="11.733333333333334" font-family="sans-serif" text-anchor="middle">07</text><line x1="279.71722772277224" y1="196.84444444444443" x2="279.71722772277224" y2="200.5111111111111" stroke="#444444" stroke-width="1.3333333333333333"/><text x="279.71722772277224" y="212.83111111111106" fill="#333333" font-size="11.733333333333334" font-family="sans-serif" text-anchor="middle">08</text><line x1="308.132409240924" y1="196.84444444444443" x2="308.132409240924" y2="200.5111111111111" stroke="#444444" stroke-width="1.3333333333333333"/><text x="308.132409240924" y="212.83111111111106" fill="#333333" font-size="11.733333333333334" font-family="sans-serif" text-anchor="middle">09</text><line x1="336.54759075907583" y1="196.84444444444443" x2="336.54759075907583" y2="200.5111111111111" stroke="#444444" stroke-width="1.3333333333333333"/><text x="336.54759075907583" y="212.83111111111106" fill="#333333" font-size="11.733333333333334" font-family="sans-serif" text-anchor="middle">10</text><line x1="364.9627722772277" y1="196.84444444444443" x2="364.9627722772277" y2="200.5111111111111" stroke="#444444" stroke-width="1.3333333333333333"/><text x="364.9627722772277" y="212.83111111111106" fill="#333333" font-size="11.733333333333334" font-family="sans-serif" text-anchor="middle">11</text><line x1="393.3779537953795" y1="196.84444444444443" x2="393.3779537953795" y2="200.5111111111111" stroke="#444444" stroke-width="1.3333333333333333"/><text x="393.3779537953795" y="212.83111111111106" fill="#333333" font-size="11.733333333333334" font-family="sans-serif" text-anchor="middle">12</text><line x1="421.79313531353125" y1="196.84444444444443" x2="421.79313531353125" y2="200.5111111111111" stroke="#444444" stroke-width="1.3333333333333333"/><text x="421.79313531353125" y="212.83111111111106" fill="#333333" font-size="11.733333333333334" font-family="sans-serif" text-anchor="middle">13</text><line x1="450.2083168316831" y1="196.84444444444443" x2="450.2083168316831" y2="200.5111111111111" stroke="#444444" stroke-width="1.3333333333333333"/><text x="450.2083168316831" y="212.83111111111106" fill="#333333" font-size="11.733333333333334" font-family="sans-serif" text-anchor="middle">14</text><line x1="478.6234983498349" y1="196.84444444444443" x2="478.6234983498349" y2="200.5111111111111" stroke="#444444" stroke-width="1.3333333333333333"/><text x="478.6234983498349" y="212.83111111111106" fill="#333333" font-size="11.733333333333334" font-family="sans-serif" text-anchor="middle">15</text><line x1="507.0386798679868" y1="196.84444444444443" x2="507.0386798679868" y2="200.5111111111111" stroke="#444444" stroke-width="1.3333333333333333"/><text x="507.0386798679868" y="212.83111111111106" fill="#333333" font-size="11.733333333333334" font-family="sans-serif" text-anchor="middle">16</text><line x1="535.4538613861386" y1="196.84444444444443" x2="535.4538613861386" y2="200.5111111111111" stroke="#444444" stroke-width="1.3333333333333333"/><text x="535.4538613861386" y="212.83111111111106" fill="#333333" font-size="11.733333333333334" font-family="sans-serif" text-anchor="middle">17</text><line x1="563.8690429042904" y1="196.84444444444443" x2="563.8690429042904" y2="200.5111111111111" stroke="#444444" stroke-width="1.3333333333333333"/><text x="563.8690429042904" y="212.83111111111106" fill="#333333" font-size="11.733333333333334" font-family="sans-serif" text-anchor="middle">18</text><line x1="592.2842244224422" y1="196.84444444444443" x2="592.2842244224422" y2="200.5111111111111" stroke="#444444" stroke-width="1.3333333333333333"/><text x="592.2842244224422" y="212.83111111111106" fill="#333333" font-size="11.733333333333334" font-family="sans-serif" text-anchor="middle">19</text><line x1="35.346666666666664" y1="196.84444444444443" x2="31.679999999999996" y2="196.84444444444443" stroke="#444444" stroke-width="1.3333333333333333"/><text x="28.746666666666663" y="200.95111111111112" fill="#333333" font-size="11.733333333333334" font-family="sans-serif" text-anchor="end">0</text><line x1="35.346666666666664" y1="159.22934533680802" x2="31.679999999999996" y2="159.22934533680802" stroke="#444444" stroke-width="1.3333333333333333"/><text x="28.746666666666663" y="163.33601200347468" fill="#333333" font-size="11.733333333333334" font-family="sans-serif" text-anchor="end">20</text><line x1="35.346666666666664" y1="121.61424622917158" x2="31.679999999999996" y2="121.61424622917158" stroke="#444444" stroke-width="1.3333333333333333"/><text x="28.746666666666663" y="125.72091289583825" fill="#333333" font-size="11.733333333333334" font-family="sans-serif" text-anchor="end">40</text><line x1="35.346666666666664" y1="83.99914712153517" x2="31.679999999999996" y2="83.99914712153517" stroke="#444444" stroke-width="1.3333333333333333"/><text x="28.746666666666663" y="88.10581378820184" fill="#333333" font-size="11.733333333333334" font-family="sans-serif" text-anchor="end">60</text><text x="35.346666666666664" y="53.68000000000001" fill="#333333" font-size="17.599999999999998" font-family="sans-serif" text-anchor="start">a</text><text x="322.34" y="230.57777777777778" fill="#333333" font-size="14.666666666666666" font-family="sans-serif" text-anchor="middle">rank bin</text><rect x="39.608943894389434" y="119.73349127378977" width="6.393415841584156" height="77.11095317065465" fill="#F8766D" fill-opacity="1.0" stroke="none"/><rect x="46.00235973597359" y="74.59537234462607" width="6.393415841584156" height="122.24907209981836" fill="#7CAE00" fill-opacity="1.0" stroke="none"/><rect x="52.39577557755775" y="100.92594171997156" width="6.393415841584156" height="95.91850272447286" fill="#00BFC4" fill-opacity="1.0" stroke="none"/><rect x="58.78919141914191" y="115.97198136302612" width="6.393415841584156" height="80.8724630814183" fill="#C77CFF" fill-opacity="1.0" stroke="none"/><rect x="68.02412541254125" y="83.99914712153517" width="6.393415841584156" height="112.84529732290925" fill="#F8766D" fill-opacity="1.0" stroke="none"/><rect x="74.41754125412541" y="140.4217957829898" width="6.393415841584156" height="56.42264866145463" fill="#7CAE00" fill-opacity="1.0" stroke="none"/><rect x="80.81095709570955" y="91.52216694306247" width="6.393415841584156" height="105.32227750138196" fill="#00BFC4" fill-opacity="1.0" stroke="none"/><rect x="87.20437293729373" y="95.2836768538261" width="6.393415841584156" height="101.56076759061833" fill="#C77CFF" fill-opacity="1.0" stroke="none"/><rect x="96.43930693069305" y="108.44896154149885" width="6.393415841584156" height="88.39548290294557" fill="#F8766D" fill-opacity="1.0" stroke="none"/><rect x="102.83272277227724" y="99.04518676458974" width="6.393415841584156" height="97.79925767985469" fill="#7CAE00" fill-opacity="1.0" stroke="none"/><rect x="109.22613861386137" y="70.83386243386242" width="6.393415841584156" height="126.010582010582" fill="#00BFC4" fill-opacity="1.0" stroke="none"/><rect x="115.61955445544555" y="132.8987759614625" width="6.393415841584156" height="63.94566848298192" fill="#C77CFF" fill-opacity="1.0" stroke="none"/><rect x="124.85448844884488" y="123.49500118455342" width="6.393415841584156" height="73.34944325989102" fill="#F8766D" fill-opacity="1.0" stroke="none"/><rect x="131.247904290429" y="99.04518676458974" width="6.393415841584156" height="97.79925767985469" fill="#7CAE00" fill-opacity="1.0" stroke="none"/><rect x="137.6413201320132" y="87.76065703229882" width="6.393415841584156" height="109.0837874121456" fill="#00BFC4" fill-opacity="1.0" stroke="none"/><rect x="144.03473597359732" y="100.92594171997156" width="6.393415841584156" height="95.91850272447286" fill="#C77CFF" fill-opacity="1.0" stroke="none"/><rect x="153.26966996699667" y="115.97198136302612" width="6.393415841584156" height="80.8724630814183" fill="#F8766D" fill-opacity="1.0" stroke="none"/><rect x="159.66308580858083" y="110.32971649688065" width="6.393415841584156" height="86.51472794756377" fill="#7CAE00" fill-opacity="1.0" stroke="none"/><rect x="166.056501650165" y="89.64141198768063" width="6.393415841584156" height="107.2030324567638" fill="#00BFC4" fill-opacity="1.0" stroke="none"/><rect x="172.4499174917491" y="95.2836768538261" width="6.393415841584156" height="101.56076759061833" fill="#C77CFF" fill-opacity="1.0" stroke="none"/><rect x="181.68485148514847" y="100.92594171997156" width="6.393415841584156" height="95.91850272447286" fill="#F8766D" fill-opacity="1.0" stroke="none"/><rect x="188.07826732673266" y="112.21047145226248" width="6.393415841584156" height="84.63397299218195" fill="#7CAE00" fill-opacity="1.0" stroke="none"/><rect x="194.47168316831676" y="100.92594171997156" width="6.393415841584156" height="95.91850272447286" fill="#00BFC4" fill-opacity="1.0" stroke="none"/><rect x="200.86509900990092" y="97.16443180920791" width="6.393415841584156" height="99.68001263523651" fill="#C77CFF" fill-opacity="1.0" stroke="none"/><rect x="210.10003300330027" y="95.2836768538261" width="6.393415841584156" height="101.56076759061833" fill="#F8766D" fill-opacity="1.0" stroke="none"/><rect x="216.49344884488443" y="127.25651109531705" width="6.393415841584156" height="69.58793334912737" fill="#7CAE00" fill-opacity="1.0" stroke="none"/><rect x="222.88686468646858" y="112.21047145226248" width="6.393415841584156" height="84.63397299218195" fill="#00BFC4" fill-opacity="1.0" stroke="none"/><rect x="229.2802805280527" y="76.47612730000789" width="6.393415841584156" height="120.36831714443653" fill="#C77CFF" fill-opacity="1.0" stroke="none"/><rect x="238.5152145214521" y="102.80669667535338" width="6.393415841584156" height="94.03774776909104" fill="#F8766D" fill-opacity="1.0" stroke="none"/><rect x="244.90863036303625" y="125.37575613993523" width="6.393415841584156" height="71.46868830450919" fill="#7CAE00" fill-opacity="1.0" stroke="none"/><rect x="251.30204620462035" y="110.32971649688065" width="6.393415841584156" height="86.51472794756377" fill="#00BFC4" fill-opacity="1.0" stroke="none"/><rect x="257.6954620462045" y="72.71461738924424" width="6.393415841584156" height="124.12982705520018" fill="#C77CFF" fill-opacity="1.0" stroke="none"/><rect x="266.93039603960386" y="100.92594171997156" width="6.393415841584156" height="95.91850272447286" fill="#F8766D" fill-opacity="1.0" stroke="none"/><rect x="273.3238118811881" y="100.92594171997156" width="6.393415841584156" height="95.91850272447286" fill="#7CAE00" fill-opacity="1.0" stroke="none"/><rect x="279.71722772277224" y="89.64141198768063" width="6.393415841584156" height="107.2030324567638" fill="#00BFC4" fill-opacity="1.0" stroke="none"/><rect x="286.11064356435634" y="119.73349127378977" width="6.393415841584156" height="77.11095317065465" fill="#C77CFF" fill-opacity="1.0" stroke="none"/><rect x="295.34557755775575" y="102.80669667535338" width="6.393415841584156" height="94.03774776909104" fill="#F8766D" fill-opacity="1.0" stroke="none"/><rect x="301.73899339933985" y="100.92594171997156" width="6.393415841584156" height="95.91850272447286" fill="#7CAE00" fill-opacity="1.0" stroke="none"/><rect x="308.132409240924" y="102.80669667535338" width="6.393415841584156" height="94.03774776909104" fill="#00BFC4" fill-opacity="1.0" stroke="none"/><rect x="314.52582508250816" y="104.68745163073521" width="6.393415841584156" height="92.15699281370922" fill="#C77CFF" fill-opacity="1.0" stroke="none"/><rect x="323.7607590759075" y="95.2836768538261" width="6.393415841584156" height="101.56076759061833" fill="#F8766D" fill-opacity="1.0" stroke="none"/><rect x="330.1541749174917" y="97.16443180920791" width="6.393415841584156" height="99.68001263523651" fill="#7CAE00" fill-opacity="1.0" stroke="none"/><rect x="336.5475907590759" y="117.85273631840795" width="6.393415841584156" height="78.99170812603649" fill="#00BFC4" fill-opacity="1.0" stroke="none"/><rect x="342.94100660066" y="100.92594171997156" width="6.393415841584156" height="95.91850272447286" fill="#C77CFF" fill-opacity="1.0" stroke="none"/><rect x="352.1759405940594" y="102.80669667535338" width="6.393415841584156" height="94.03774776909104" fill="#F8766D" fill-opacity="1.0" stroke="none"/><rect x="358.5693564356436" y="89.64141198768063" width="6.393415841584156" height="107.2030324567638" fill="#7CAE00" fill-opacity="1.0" stroke="none"/><rect x="364.9627722772277" y="131.0180210060807" width="6.393415841584156" height="65.82642343836372" fill="#00BFC4" fill-opacity="1.0" stroke="none"/><rect x="371.3561881188119" y="87.76065703229882" width="6.393415841584156" height="109.0837874121456" fill="#C77CFF" fill-opacity="1.0" stroke="none"/><rect x="380.5911221122112" y="100.92594171997156" width="6.393415841584156" height="95.91850272447286" fill="#F8766D" fill-opacity="1.0" stroke="none"/><rect x="386.9845379537954" y="83.99914712153517" width="6.393415841584156" height="112.84529732290925" fill="#7CAE00" fill-opacity="1.0" stroke="none"/><rect x="393.3779537953795" y="138.541040827608" width="6.393415841584156" height="58.303403616836434" fill="#00BFC4" fill-opacity="1.0" stroke="none"/><rect x="399.77136963696364" y="87.76065703229882" width="6.393415841584156" height="109.0837874121456" fill="#C77CFF" fill-opacity="1.0" stroke="none"/><rect x="409.006303630363" y="110.32971649688065" width="6.393415841584156" height="86.51472794756377" fill="#F8766D" fill-opacity="1.0" stroke="none"/><rect x="415.39971947194715" y="100.92594171997156" width="6.393415841584156" height="95.91850272447286" fill="#7CAE00" fill-opacity="1.0" stroke="none"/><rect x="421.79313531353125" y="104.68745163073521" width="6.393415841584156" height="92.15699281370922" fill="#00BFC4" fill-opacity="1.0" stroke="none"/><rect x="428.18655115511547" y="95.2836768538261" width="6.393415841584156" height="101.56076759061833" fill="#C77CFF" fill-opacity="1.0" stroke="none"/><rect x="437.42148514851476" y="100.92594171997156" width="6.393415841584156" height="95.91850272447286" fill="#F8766D" fill-opacity="1.0" stroke="none"/><rect x="443.814900990099" y="93.40292189844428" width="6.393415841584156" height="103.44152254600016" fill="#7CAE00" fill-opacity="1.0" stroke="none"/><rect x="450.20831683168313" y="106.56820658611701" width="6.393415841584156" height="90.27623785832742" fill="#00BFC4" fill-opacity="1.0" stroke="none"/><rect x="456.6017326732673" y="110.32971649688065" width="6.393415841584156" height="86.51472794756377" fill="#C77CFF" fill-opacity="1.0" stroke="none"/><rect x="465.83666666666664" y="108.44896154149885" width="6.393415841584156" height="88.39548290294557" fill="#F8766D" fill-opacity="1.0" stroke="none"/><rect x="472.2300825082508" y="76.47612730000789" width="6.393415841584156" height="120.36831714443653" fill="#7CAE00" fill-opacity="1.0" stroke="none"/><rect x="478.6234983498349" y="114.09122640764431" width="6.393415841584156" height="82.7532180368001" fill="#00BFC4" fill-opacity="1.0" stroke="none"/><rect x="485.0169141914191" y="112.21047145226248" width="6.393415841584156" height="84.63397299218195" fill="#C77CFF" fill-opacity="1.0" stroke="none"/><rect x="494.2518481848185" y="93.40292189844428" width="6.393415841584156" height="103.44152254600016" fill="#F8766D" fill-opacity="1.0" stroke="none"/><rect x="500.64526402640263" y="91.52216694306247" width="6.393415841584156" height="105.32227750138196" fill="#7CAE00" fill-opacity="1.0" stroke="none"/><rect x="507.0386798679868" y="125.37575613993523" width="6.393415841584156" height="71.46868830450919" fill="#00BFC4" fill-opacity="1.0" stroke="none"/><rect x="513.432095709571" y="100.92594171997156" width="6.393415841584156" height="95.91850272447286" fill="#C77CFF" fill-opacity="1.0" stroke="none"/><rect x="522.6670297029702" y="93.40292189844428" width="6.393415841584156" height="103.44152254600016" fill="#F8766D" fill-opacity="1.0" stroke="none"/><rect x="529.0604455445543" y="110.32971649688065" width="6.393415841584156" height="86.51472794756377" fill="#7CAE00" fill-opacity="1.0" stroke="none"/><rect x="535.4538613861386" y="93.40292189844428" width="6.393415841584156" height="103.44152254600016" fill="#00BFC4" fill-opacity="1.0" stroke="none"/><rect x="541.8472772277228" y="114.09122640764431" width="6.393415841584156" height="82.7532180368001" fill="#C77CFF" fill-opacity="1.0" stroke="none"/><rect x="551.0822112211221" y="102.80669667535338" width="6.393415841584156" height="94.03774776909104" fill="#F8766D" fill-opacity="1.0" stroke="none"/><rect x="557.4756270627062" y="106.56820658611701" width="6.393415841584156" height="90.27623785832742" fill="#7CAE00" fill-opacity="1.0" stroke="none"/><rect x="563.8690429042904" y="91.52216694306247" width="6.393415841584156" height="105.32227750138196" fill="#00BFC4" fill-opacity="1.0" stroke="none"/><rect x="570.2624587458746" y="110.32971649688065" width="6.393415841584156" height="86.51472794756377" fill="#C77CFF" fill-opacity="1.0" stroke="none"/><rect x="579.4973927392739" y="93.40292189844428" width="6.393415841584156" height="103.44152254600016" fill="#F8766D" fill-opacity="1.0" stroke="none"/><rect x="585.890808580858" y="115.97198136302612" width="6.393415841584156" height="80.8724630814183" fill="#7CAE00" fill-opacity="1.0" stroke="none"/><rect x="592.2842244224422" y="76.47612730000789" width="6.393415841584156" height="120.36831714443653" fill="#00BFC4" fill-opacity="1.0" stroke="none"/><rect x="598.6776402640264" y="125.37575613993523" width="6.393415841584156" height="71.46868830450919" fill="#C77CFF" fill-opacity="1.0" stroke="none"/><rect x="0.0" y="0.0" width="0.0" height="0.0" fill="#ffffff" fill-opacity="1.0" stroke="none"/><line x1="52.39577557755775" y1="280.4444444444444" x2="52.39577557755775" y2="412.75555555555553" stroke="#dddddd" stroke-width="1.3333333333333333"/><line x1="80.81095709570955" y1="280.4444444444444" x2="80.81095709570955" y2="412.75555555555553" stroke="#dddddd" stroke-width="1.3333333333333333"/><line x1="109.22613861386137" y1="280.4444444444444" x2="109.22613861386137" y2="412.75555555555553" stroke="#dddddd" stroke-width="1.3333333333333333"/><line x1="137.64132013201316" y1="280.4444444444444" x2="137.64132013201316" y2="412.75555555555553" stroke="#dddddd" stroke-width="1.3333333333333333"/><line x1="166.056501650165" y1="280.4444444444444" x2="166.056501650165" y2="412.75555555555553" stroke="#dddddd" stroke-width="1.3333333333333333"/><line x1="194.4716831683168" y1="280.4444444444444" x2="194.4716831683168" y2="412.75555555555553" stroke="#dddddd" stroke-width="1.3333333333333333"/><line x1="222.8868646864686" y1="280.4444444444444" x2="222.8868646864686" y2="412.75555555555553" stroke="#dddddd" stroke-width="1.3333333333333333"/><line x1="251.3020462046204" y1="280.4444444444444" x2="251.3020462046204" y2="412.75555555555553" stroke="#dddddd" stroke-width="1.3333333333333333"/><line x1="279.71722772277224" y1="280.4444444444444" x2="279.71722772277224" y2="412.75555555555553" stroke="#dddddd" stroke-width="1.3333333333333333"/><line x1="308.132409240924" y1="280.4444444444444" x2="308.132409240924" y2="412.75555555555553" stroke="#dddddd" stroke-width="1.3333333333333333"/><line x1="336.54759075907583" y1="280.4444444444444" x2="336.54759075907583" y2="412.75555555555553" stroke="#dddddd" stroke-width="1.3333333333333333"/><line x1="364.9627722772277" y1="280.4444444444444" x2="364.9627722772277" y2="412.75555555555553" stroke="#dddddd" stroke-width="1.3333333333333333"/><line x1="393.3779537953795" y1="280.4444444444444" x2="393.3779537953795" y2="412.75555555555553" stroke="#dddddd" stroke-width="1.3333333333333333"/><line x1="421.79313531353125" y1="280.4444444444444" x2="421.79313531353125" y2="412.75555555555553" stroke="#dddddd" stroke-width="1.3333333333333333"/><line x1="450.2083168316831" y1="280.4444444444444" x2="450.2083168316831" y2="412.75555555555553" stroke="#dddddd" stroke-width="1.3333333333333333"/><line x1="478.6234983498349" y1="280.4444444444444" x2="478.6234983498349" y2="412.75555555555553" stroke="#dddddd" stroke-width="1.3333333333333333"/><line x1="507.0386798679868" y1="280.4444444444444" x2="507.0386798679868" y2="412.75555555555553" stroke="#dddddd" stroke-width="1.3333333333333333"/><line x1="535.4538613861386" y1="280.4444444444444" x2="535.4538613861386" y2="412.75555555555553" stroke="#dddddd" stroke-width="1.3333333333333333"/><line x1="563.8690429042904" y1="280.4444444444444" x2="563.8690429042904" y2="412.75555555555553" stroke="#dddddd" stroke-width="1.3333333333333333"/><line x1="592.2842244224422" y1="280.4444444444444" x2="592.2842244224422" y2="412.75555555555553" stroke="#dddddd" stroke-width="1.3333333333333333"/><line x1="35.346666666666664" y1="394.4931523656161" x2="609.3333333333333" y2="394.4931523656161" stroke="#dddddd" stroke-width="0.6666666666666666"/><line x1="35.346666666666664" y1="357.96834598573724" x2="609.3333333333333" y2="357.96834598573724" stroke="#dddddd" stroke-width="0.6666666666666666"/><line x1="35.346666666666664" y1="321.4435396058584" x2="609.3333333333333" y2="321.4435396058584" stroke="#dddddd" stroke-width="0.6666666666666666"/><line x1="35.346666666666664" y1="284.91873322597957" x2="609.3333333333333" y2="284.91873322597957" stroke="#dddddd" stroke-width="0.6666666666666666"/><line x1="35.346666666666664" y1="412.75555555555553" x2="609.3333333333333" y2="412.75555555555553" stroke="#dddddd" stroke-width="1.3333333333333333"/><line x1="35.346666666666664" y1="376.2307491756767" x2="609.3333333333333" y2="376.2307491756767" stroke="#dddddd" stroke-width="1.3333333333333333"/><line x1="35.346666666666664" y1="339.7059427957978" x2="609.3333333333333" y2="339.7059427957978" stroke="#dddddd" stroke-width="1.3333333333333333"/><line x1="35.346666666666664" y1="303.181136415919" x2="609.3333333333333" y2="303.181136415919" stroke="#dddddd" stroke-width="1.3333333333333333"/><rect x="35.346666666666664" y="280.4444444444444" width="573.9866666666667" height="132.31111111111113" fill="#ffffff" fill-opacity="0.0" stroke="#444444" stroke-width="1.3333333333333333"/><line x1="52.39577557755775" y1="412.75555555555553" x2="52.39577557755775" y2="416.4222222222222" stroke="#444444" stroke-width="1.3333333333333333"/><text x="52.39577557755775" y="428.7422222222222" fill="#333333" font-size="11.733333333333334" font-family="sans-serif" text-anchor="middle">00</text><line x1="80.81095709570955" y1="412.75555555555553" x2="80.81095709570955" y2="416.4222222222222" stroke="#444444" stroke-width="1.3333333333333333"/><text x="80.81095709570955" y="428.7422222222222" fill="#333333" font-size="11.733333333333334" font-family="sans-serif" text-anchor="middle">01</text><line x1="109.22613861386137" y1="412.75555555555553" x2="109.22613861386137" y2="416.4222222222222" stroke="#444444" stroke-width="1.3333333333333333"/><text x="109.22613861386137" y="428.7422222222222" fill="#333333" font-size="11.733333333333334" font-family="sans-serif" text-anchor="middle">02</text><line x1="137.64132013201316" y1="412.75555555555553" x2="137.64132013201316" y2="416.4222222222222" stroke="#444444" stroke-width="1.3333333333333333"/><text x="137.64132013201316" y="428.7422222222222" fill="#333333" font-size="11.733333333333334" font-family="sans-serif" text-anchor="middle">03</text><line x1="166.056501650165" y1="412.75555555555553" x2="166.056501650165" y2="416.4222222222222" stroke="#444444" stroke-width="1.3333333333333333"/><text x="166.056501650165" y="428.7422222222222" fill="#333333" font-size="11.733333333333334" font-family="sans-serif" text-anchor="middle">04</text><line x1="194.4716831683168" y1="412.75555555555553" x2="194.4716831683168" y2="416.4222222222222" stroke="#444444" stroke-width="1.3333333333333333"/><text x="194.4716831683168" y="428.7422222222222" fill="#333333" font-size="11.733333333333334" font-family="sans-serif" text-anchor="middle">05</text><line x1="222.8868646864686" y1="412.75555555555553" x2="222.8868646864686" y2="416.4222222222222" stroke="#444444" stroke-width="1.3333333333333333"/><text x="222.8868646864686" y="428.7422222222222" fill="#333333" font-size="11.733333333333334" font-family="sans-serif" text-anchor="middle">06</text><line x1="251.3020462046204" y1="412.75555555555553" x2="251.3020462046204" y2="416.4222222222222" stroke="#444444" stroke-width="1.3333333333333333"/><text x="251.3020462046204" y="428.7422222222222" fill="#333333" font-size="11.733333333333334" font-family="sans-serif" text-anchor="middle">07</text><line x1="279.71722772277224" y1="412.75555555555553" x2="279.71722772277224" y2="416.4222222222222" stroke="#444444" stroke-width="1.3333333333333333"/><text x="279.71722772277224" y="428.7422222222222" fill="#333333" font-size="11.733333333333334" font-family="sans-serif" text-anchor="middle">08</text><line x1="308.132409240924" y1="412.75555555555553" x2="308.132409240924" y2="416.4222222222222" stroke="#444444" stroke-width="1.3333333333333333"/><text x="308.132409240924" y="428.7422222222222" fill="#333333" font-size="11.733333333333334" font-family="sans-serif" text-anchor="middle">09</text><line x1="336.54759075907583" y1="412.75555555555553" x2="336.54759075907583" y2="416.4222222222222" stroke="#444444" stroke-width="1.3333333333333333"/><text x="336.54759075907583" y="428.7422222222222" fill="#333333" font-size="11.733333333333334" font-family="sans-serif" text-anchor="middle">10</text><line x1="364.9627722772277" y1="412.75555555555553" x2="364.9627722772277" y2="416.4222222222222" stroke="#444444" stroke-width="1.3333333333333333"/><text x="364.9627722772277" y="428.7422222222222" fill="#333333" font-size="11.733333333333334" font-family="sans-serif" text-anchor="middle">11</text><line x1="393.3779537953795" y1="412.75555555555553" x2="393.3779537953795" y2="416.4222222222222" stroke="#444444" stroke-width="1.3333333333333333"/><text x="393.3779537953795" y="428.7422222222222" fill="#333333" font-size="11.733333333333334" font-family="sans-serif" text-anchor="middle">12</text><line x1="421.79313531353125" y1="412.75555555555553" x2="421.79313531353125" y2="416.4222222222222" stroke="#444444" stroke-width="1.3333333333333333"/><text x="421.79313531353125" y="428.7422222222222" fill="#333333" font-size="11.733333333333334" font-family="sans-serif" text-anchor="middle">13</text><line x1="450.2083168316831" y1="412.75555555555553" x2="450.2083168316831" y2="416.4222222222222" stroke="#444444" stroke-width="1.3333333333333333"/><text x="450.2083168316831" y="428.7422222222222" fill="#333333" font-size="11.733333333333334" font-family="sans-serif" text-anchor="middle">14</text><line x1="478.6234983498349" y1="412.75555555555553" x2="478.6234983498349" y2="416.4222222222222" stroke="#444444" stroke-width="1.3333333333333333"/><text x="478.6234983498349" y="428.7422222222222" fill="#333333" font-size="11.733333333333334" font-family="sans-serif" text-anchor="middle">15</text><line x1="507.0386798679868" y1="412.75555555555553" x2="507.0386798679868" y2="416.4222222222222" stroke="#444444" stroke-width="1.3333333333333333"/><text x="507.0386798679868" y="428.7422222222222" fill="#333333" font-size="11.733333333333334" font-family="sans-serif" text-anchor="middle">16</text><line x1="535.4538613861386" y1="412.75555555555553" x2="535.4538613861386" y2="416.4222222222222" stroke="#444444" stroke-width="1.3333333333333333"/><text x="535.4538613861386" y="428.7422222222222" fill="#333333" font-size="11.733333333333334" font-family="sans-serif" text-anchor="middle">17</text><line x1="563.8690429042904" y1="412.75555555555553" x2="563.8690429042904" y2="416.4222222222222" stroke="#444444" stroke-width="1.3333333333333333"/><text x="563.8690429042904" y="428.7422222222222" fill="#333333" font-size="11.733333333333334" font-family="sans-serif" text-anchor="middle">18</text><line x1="592.2842244224422" y1="412.75555555555553" x2="592.2842244224422" y2="416.4222222222222" stroke="#444444" stroke-width="1.3333333333333333"/><text x="592.2842244224422" y="428.7422222222222" fill="#333333" font-size="11.733333333333334" font-family="sans-serif" text-anchor="middle">19</text><line x1="35.346666666666664" y1="412.75555555555553" x2="31.679999999999996" y2="412.75555555555553" stroke="#444444" stroke-width="1.3333333333333333"/><text x="28.746666666666663" y="416.86222222222216" fill="#333333" font-size="11.733333333333334" font-family="sans-serif" text-anchor="end">0</text><line x1="35.346666666666664" y1="376.2307491756767" x2="31.679999999999996" y2="376.2307491756767" stroke="#444444" stroke-width="1.3333333333333333"/><text x="28.746666666666663" y="380.3374158423433" fill="#333333" font-size="11.733333333333334" font-family="sans-serif" text-anchor="end">20</text><line x1="35.346666666666664" y1="339.7059427957978" x2="31.679999999999996" y2="339.7059427957978" stroke="#444444" stroke-width="1.3333333333333333"/><text x="28.746666666666663" y="343.8126094624645" fill="#333333" font-size="11.733333333333334" font-family="sans-serif" text-anchor="end">40</text><line x1="35.346666666666664" y1="303.181136415919" x2="31.679999999999996" y2="303.181136415919" stroke="#444444" stroke-width="1.3333333333333333"/><text x="28.746666666666663" y="307.2878030825857" fill="#333333" font-size="11.733333333333334" font-family="sans-serif" text-anchor="end">60</text><text x="35.346666666666664" y="269.5911111111111" fill="#333333" font-size="17.599999999999998" font-family="sans-serif" text-anchor="start">b</text><text x="322.34" y="446.4888888888889" fill="#333333" font-size="14.666666666666666" font-family="sans-serif" text-anchor="middle">rank bin</text><rect x="39.608943894389434" y="314.13857832988265" width="6.393415841584156" height="98.6169772256729" fill="#F8766D" fill-opacity="1.0" stroke="none"/><rect x="46.00235973597359" y="336.0534621578099" width="6.393415841584156" height="76.70209339774559" fill="#7CAE00" fill-opacity="1.0" stroke="none"/><rect x="52.39577557755775" y="286.7449735449735" width="6.393415841584156" height="126.010582010582" fill="#00BFC4" fill-opacity="1.0" stroke="none"/><rect x="58.78919141914191" y="348.83714439076755" width="6.393415841584156" height="63.91841116478796" fill="#C77CFF" fill-opacity="1.0" stroke="none"/><rect x="68.02412541254125" y="315.9648186488766" width="6.393415841584156" height="96.79073690667894" fill="#F8766D" fill-opacity="1.0" stroke="none"/><rect x="74.41754125412541" y="321.4435396058584" width="6.393415841584156" height="91.31201594969714" fill="#7CAE00" fill-opacity="1.0" stroke="none"/><rect x="80.81095709570955" y="325.0960202438463" width="6.393415841584156" height="87.65953531170922" fill="#00BFC4" fill-opacity="1.0" stroke="none"/><rect x="87.20437293729373" y="323.26977992485234" width="6.393415841584156" height="89.48577563070319" fill="#C77CFF" fill-opacity="1.0" stroke="none"/><rect x="96.43930693069305" y="336.0534621578099" width="6.393415841584156" height="76.70209339774559" fill="#F8766D" fill-opacity="1.0" stroke="none"/><rect x="102.83272277227724" y="321.4435396058584" width="6.393415841584156" height="91.31201594969714" fill="#7CAE00" fill-opacity="1.0" stroke="none"/><rect x="109.22613861386137" y="305.00737673491295" width="6.393415841584156" height="107.74817882064258" fill="#00BFC4" fill-opacity="1.0" stroke="none"/><rect x="115.61955445544555" y="323.26977992485234" width="6.393415841584156" height="89.48577563070319" fill="#C77CFF" fill-opacity="1.0" stroke="none"/><rect x="124.85448844884488" y="310.48609769189477" width="6.393415841584156" height="102.26945786366078" fill="#F8766D" fill-opacity="1.0" stroke="none"/><rect x="131.247904290429" y="323.26977992485234" width="6.393415841584156" height="89.48577563070319" fill="#7CAE00" fill-opacity="1.0" stroke="none"/><rect x="137.6413201320132" y="326.9222605628402" width="6.393415841584156" height="85.83329499271531" fill="#00BFC4" fill-opacity="1.0" stroke="none"/><rect x="144.03473597359732" y="325.0960202438463" width="6.393415841584156" height="87.65953531170922" fill="#C77CFF" fill-opacity="1.0" stroke="none"/><rect x="153.26966996699667" y="325.0960202438463" width="6.393415841584156" height="87.65953531170922" fill="#F8766D" fill-opacity="1.0" stroke="none"/><rect x="159.66308580858083" y="306.8336170539069" width="6.393415841584156" height="105.92193850164865" fill="#7CAE00" fill-opacity="1.0" stroke="none"/><rect x="166.056501650165" y="326.9222605628402" width="6.393415841584156" height="85.83329499271531" fill="#00BFC4" fill-opacity="1.0" stroke="none"/><rect x="172.4499174917491" y="326.9222605628402" width="6.393415841584156" height="85.83329499271531" fill="#C77CFF" fill-opacity="1.0" stroke="none"/><rect x="181.68485148514847" y="314.13857832988265" width="6.393415841584156" height="98.6169772256729" fill="#F8766D" fill-opacity="1.0" stroke="none"/><rect x="188.07826732673266" y="312.3123380108887" width="6.393415841584156" height="100.44321754466682" fill="#7CAE00" fill-opacity="1.0" stroke="none"/><rect x="194.47168316831676" y="330.57474120082816" width="6.393415841584156" height="82.18081435472739" fill="#00BFC4" fill-opacity="1.0" stroke="none"/><rect x="200.86509900990092" y="328.74850088183416" width="6.393415841584156" height="84.00705467372134" fill="#C77CFF" fill-opacity="1.0" stroke="none"/><rect x="210.10003300330027" y="305.00737673491295" width="6.393415841584156" height="107.74817882064258" fill="#F8766D" fill-opacity="1.0" stroke="none"/><rect x="216.49344884488443" y="314.13857832988265" width="6.393415841584156" height="98.6169772256729" fill="#7CAE00" fill-opacity="1.0" stroke="none"/><rect x="222.88686468646858" y="345.18466375277967" width="6.393415841584156" height="67.57089180277588" fill="#00BFC4" fill-opacity="1.0" stroke="none"/><rect x="229.2802805280527" y="321.4435396058584" width="6.393415841584156" height="91.31201594969714" fill="#C77CFF" fill-opacity="1.0" stroke="none"/><rect x="238.5152145214521" y="314.13857832988265" width="6.393415841584156" height="98.6169772256729" fill="#F8766D" fill-opacity="1.0" stroke="none"/><rect x="244.90863036303625" y="336.0534621578099" width="6.393415841584156" height="76.70209339774559" fill="#7CAE00" fill-opacity="1.0" stroke="none"/><rect x="251.30204620462035" y="328.74850088183416" width="6.393415841584156" height="84.00705467372134" fill="#00BFC4" fill-opacity="1.0" stroke="none"/><rect x="257.6954620462045" y="306.8336170539069" width="6.393415841584156" height="105.92193850164865" fill="#C77CFF" fill-opacity="1.0" stroke="none"/><rect x="266.93039603960386" y="299.52865577793114" width="6.393415841584156" height="113.22689977762441" fill="#F8766D" fill-opacity="1.0" stroke="none"/><rect x="273.3238118811881" y="314.13857832988265" width="6.393415841584156" height="98.6169772256729" fill="#7CAE00" fill-opacity="1.0" stroke="none"/><rect x="279.71722772277224" y="347.01090407177355" width="6.393415841584156" height="65.74465148378195" fill="#00BFC4" fill-opacity="1.0" stroke="none"/><rect x="286.11064356435634" y="325.0960202438463" width="6.393415841584156" height="87.65953531170922" fill="#C77CFF" fill-opacity="1.0" stroke="none"/><rect x="295.34557755775575" y="314.13857832988265" width="6.393415841584156" height="98.6169772256729" fill="#F8766D" fill-opacity="1.0" stroke="none"/><rect x="301.73899339933985" y="319.61729928686447" width="6.393415841584156" height="93.13825626869107" fill="#7CAE00" fill-opacity="1.0" stroke="none"/><rect x="308.132409240924" y="332.40098151982204" width="6.393415841584156" height="80.35457403573346" fill="#00BFC4" fill-opacity="1.0" stroke="none"/><rect x="314.52582508250816" y="319.61729928686447" width="6.393415841584156" height="93.13825626869107" fill="#C77CFF" fill-opacity="1.0" stroke="none"/><rect x="323.7607590759075" y="328.74850088183416" width="6.393415841584156" height="84.00705467372134" fill="#F8766D" fill-opacity="1.0" stroke="none"/><rect x="330.1541749174917" y="295.8761751399432" width="6.393415841584156" height="116.87938041561233" fill="#7CAE00" fill-opacity="1.0" stroke="none"/><rect x="336.5475907590759" y="354.3158653477494" width="6.393415841584156" height="58.43969020780612" fill="#00BFC4" fill-opacity="1.0" stroke="none"/><rect x="342.94100660066" y="306.8336170539069" width="6.393415841584156" height="105.92193850164865" fill="#C77CFF" fill-opacity="1.0" stroke="none"/><rect x="352.1759405940594" y="348.83714439076755" width="6.393415841584156" height="63.91841116478796" fill="#F8766D" fill-opacity="1.0" stroke="none"/><rect x="358.5693564356436" y="319.61729928686447" width="6.393415841584156" height="93.13825626869107" fill="#7CAE00" fill-opacity="1.0" stroke="none"/><rect x="364.9627722772277" y="299.52865577793114" width="6.393415841584156" height="113.22689977762441" fill="#00BFC4" fill-opacity="1.0" stroke="none"/><rect x="371.3561881188119" y="317.7910589678705" width="6.393415841584156" height="94.96449658768498" fill="#C77CFF" fill-opacity="1.0" stroke="none"/><rect x="380.5911221122112" y="325.0960202438463" width="6.393415841584156" height="87.65953531170922" fill="#F8766D" fill-opacity="1.0" stroke="none"/><rect x="386.9845379537954" y="321.4435396058584" width="6.393415841584156" height="91.31201594969714" fill="#7CAE00" fill-opacity="1.0" stroke="none"/><rect x="393.3779537953795" y="319.61729928686447" width="6.393415841584156" height="93.13825626869107" fill="#00BFC4" fill-opacity="1.0" stroke="none"/><rect x="399.77136963696364" y="319.61729928686447" width="6.393415841584156" height="93.13825626869107" fill="#C77CFF" fill-opacity="1.0" stroke="none"/><rect x="409.006303630363" y="341.5321831147918" width="6.393415841584156" height="71.22337244076371" fill="#F8766D" fill-opacity="1.0" stroke="none"/><rect x="415.39971947194715" y="330.57474120082816" width="6.393415841584156" height="82.18081435472739" fill="#7CAE00" fill-opacity="1.0" stroke="none"/><rect x="421.79313531353125" y="312.3123380108887" width="6.393415841584156" height="100.44321754466682" fill="#00BFC4" fill-opacity="1.0" stroke="none"/><rect x="428.18655115511547" y="301.354896096925" width="6.393415841584156" height="111.40065945863049" fill="#C77CFF" fill-opacity="1.0" stroke="none"/><rect x="437.42148514851476" y="328.74850088183416" width="6.393415841584156" height="84.00705467372134" fill="#F8766D" fill-opacity="1.0" stroke="none"/><rect x="443.814900990099" y="325.0960202438463" width="6.393415841584156" height="87.65953531170922" fill="#7CAE00" fill-opacity="1.0" stroke="none"/><rect x="450.20831683168313" y="314.13857832988265" width="6.393415841584156" height="98.6169772256729" fill="#00BFC4" fill-opacity="1.0" stroke="none"/><rect x="456.6017326732673" y="317.7910589678705" width="6.393415841584156" height="94.96449658768498" fill="#C77CFF" fill-opacity="1.0" stroke="none"/><rect x="465.83666666666664" y="328.74850088183416" width="6.393415841584156" height="84.00705467372134" fill="#F8766D" fill-opacity="1.0" stroke="none"/><rect x="472.2300825082508" y="319.61729928686447" width="6.393415841584156" height="93.13825626869107" fill="#7CAE00" fill-opacity="1.0" stroke="none"/><rect x="478.6234983498349" y="319.61729928686447" width="6.393415841584156" height="93.13825626869107" fill="#00BFC4" fill-opacity="1.0" stroke="none"/><rect x="485.0169141914191" y="317.7910589678705" width="6.393415841584156" height="94.96449658768498" fill="#C77CFF" fill-opacity="1.0" stroke="none"/><rect x="494.2518481848185" y="321.4435396058584" width="6.393415841584156" height="91.31201594969714" fill="#F8766D" fill-opacity="1.0" stroke="none"/><rect x="500.64526402640263" y="326.9222605628402" width="6.393415841584156" height="85.83329499271531" fill="#7CAE00" fill-opacity="1.0" stroke="none"/><rect x="507.0386798679868" y="312.3123380108887" width="6.393415841584156" height="100.44321754466682" fill="#00BFC4" fill-opacity="1.0" stroke="none"/><rect x="513.432095709571" y="325.0960202438463" width="6.393415841584156" height="87.65953531170922" fill="#C77CFF" fill-opacity="1.0" stroke="none"/><rect x="522.6670297029702" y="297.70241545893714" width="6.393415841584156" height="115.05314009661836" fill="#F8766D" fill-opacity="1.0" stroke="none"/><rect x="529.0604455445543" y="334.22722183881604" width="6.393415841584156" height="78.52833371673951" fill="#7CAE00" fill-opacity="1.0" stroke="none"/><rect x="535.4538613861386" y="321.4435396058584" width="6.393415841584156" height="91.31201594969714" fill="#00BFC4" fill-opacity="1.0" stroke="none"/><rect x="541.8472772277228" y="332.40098151982204" width="6.393415841584156" height="80.35457403573346" fill="#C77CFF" fill-opacity="1.0" stroke="none"/><rect x="551.0822112211221" y="328.74850088183416" width="6.393415841584156" height="84.00705467372134" fill="#F8766D" fill-opacity="1.0" stroke="none"/><rect x="557.4756270627062" y="348.83714439076755" width="6.393415841584156" height="63.91841116478796" fill="#7CAE00" fill-opacity="1.0" stroke="none"/><rect x="563.8690429042904" y="299.52865577793114" width="6.393415841584156" height="113.22689977762441" fill="#00BFC4" fill-opacity="1.0" stroke="none"/><rect x="570.2624587458746" y="308.6598573729008" width="6.393415841584156" height="104.09569818265473" fill="#C77CFF" fill-opacity="1.0" stroke="none"/><rect x="579.4973927392739" y="330.57474120082816" width="6.393415841584156" height="82.18081435472739" fill="#F8766D" fill-opacity="1.0" stroke="none"/><rect x="585.890808580858" y="301.354896096925" width="6.393415841584156" height="111.40065945863049" fill="#7CAE00" fill-opacity="1.0" stroke="none"/><rect x="592.2842244224422" y="321.4435396058584" width="6.393415841584156" height="91.31201594969714" fill="#00BFC4" fill-opacity="1.0" stroke="none"/><rect x="598.6776402640264" y="332.40098151982204" width="6.393415841584156" height="80.35457403573346" fill="#C77CFF" fill-opacity="1.0" stroke="none"/><rect x="0.0" y="0.0" width="0.0" height="0.0" fill="#ffffff" fill-opacity="1.0" stroke="none"/><line x1="52.39577557755775" y1="496.3555555555555" x2="52.39577557755775" y2="628.6666666666666" stroke="#dddddd" stroke-width="1.3333333333333333"/><line x1="80.81095709570955" y1="496.3555555555555" x2="80.81095709570955" y2="628.6666666666666" stroke="#dddddd" stroke-width="1.3333333333333333"/><line x1="109.22613861386137" y1="496.3555555555555" x2="109.22613861386137" y2="628.6666666666666" stroke="#dddddd" stroke-width="1.3333333333333333"/><line x1="137.64132013201316" y1="496.3555555555555" x2="137.64132013201316" y2="628.6666666666666" stroke="#dddddd" stroke-width="1.3333333333333333"/><line x1="166.056501650165" y1="496.3555555555555" x2="166.056501650165" y2="628.6666666666666" stroke="#dddddd" stroke-width="1.3333333333333333"/><line x1="194.4716831683168" y1="496.3555555555555" x2="194.4716831683168" y2="628.6666666666666" stroke="#dddddd" stroke-width="1.3333333333333333"/><line x1="222.8868646864686" y1="496.3555555555555" x2="222.8868646864686" y2="628.6666666666666" stroke="#dddddd" stroke-width="1.3333333333333333"/><line x1="251.3020462046204" y1="496.3555555555555" x2="251.3020462046204" y2="628.6666666666666" stroke="#dddddd" stroke-width="1.3333333333333333"/><line x1="279.71722772277224" y1="496.3555555555555" x2="279.71722772277224" y2="628.6666666666666" stroke="#dddddd" stroke-width="1.3333333333333333"/><line x1="308.132409240924" y1="496.3555555555555" x2="308.132409240924" y2="628.6666666666666" stroke="#dddddd" stroke-width="1.3333333333333333"/><line x1="336.54759075907583" y1="496.3555555555555" x2="336.54759075907583" y2="628.6666666666666" stroke="#dddddd" stroke-width="1.3333333333333333"/><line x1="364.9627722772277" y1="496.3555555555555" x2="364.9627722772277" y2="628.6666666666666" stroke="#dddddd" stroke-width="1.3333333333333333"/><line x1="393.3779537953795" y1="496.3555555555555" x2="393.3779537953795" y2="628.6666666666666" stroke="#dddddd" stroke-width="1.3333333333333333"/><line x1="421.79313531353125" y1="496.3555555555555" x2="421.79313531353125" y2="628.6666666666666" stroke="#dddddd" stroke-width="1.3333333333333333"/><line x1="450.2083168316831" y1="496.3555555555555" x2="450.2083168316831" y2="628.6666666666666" stroke="#dddddd" stroke-width="1.3333333333333333"/><line x1="478.6234983498349" y1="496.3555555555555" x2="478.6234983498349" y2="628.6666666666666" stroke="#dddddd" stroke-width="1.3333333333333333"/><line x1="507.0386798679868" y1="496.3555555555555" x2="507.0386798679868" y2="628.6666666666666" stroke="#dddddd" stroke-width="1.3333333333333333"/><line x1="535.4538613861386" y1="496.3555555555555" x2="535.4538613861386" y2="628.6666666666666" stroke="#dddddd" stroke-width="1.3333333333333333"/><line x1="563.8690429042904" y1="496.3555555555555" x2="563.8690429042904" y2="628.6666666666666" stroke="#dddddd" stroke-width="1.3333333333333333"/><line x1="592.2842244224422" y1="496.3555555555555" x2="592.2842244224422" y2="628.6666666666666" stroke="#dddddd" stroke-width="1.3333333333333333"/><line x1="35.346666666666664" y1="609.2804232804233" x2="609.3333333333333" y2="609.2804232804233" stroke="#dddddd" stroke-width="0.6666666666666666"/><line x1="35.346666666666664" y1="570.5079365079364" x2="609.3333333333333" y2="570.5079365079364" stroke="#dddddd" stroke-width="0.6666666666666666"/><line x1="35.346666666666664" y1="531.7354497354497" x2="609.3333333333333" y2="531.7354497354497" stroke="#dddddd" stroke-width="0.6666666666666666"/><line x1="35.346666666666664" y1="628.6666666666666" x2="609.3333333333333" y2="628.6666666666666" stroke="#dddddd" stroke-width="1.3333333333333333"/><line x1="35.346666666666664" y1="589.8941798941798" x2="609.3333333333333" y2="589.8941798941798" stroke="#dddddd" stroke-width="1.3333333333333333"/><line x1="35.346666666666664" y1="551.121693121693" x2="609.3333333333333" y2="551.121693121693" stroke="#dddddd" stroke-width="1.3333333333333333"/><line x1="35.346666666666664" y1="512.3492063492063" x2="609.3333333333333" y2="512.3492063492063" stroke="#dddddd" stroke-width="1.3333333333333333"/><rect x="35.346666666666664" y="496.3555555555555" width="573.9866666666667" height="132.31111111111113" fill="#ffffff" fill-opacity="0.0" stroke="#444444" stroke-width="1.3333333333333333"/><line x1="52.39577557755775" y1="628.6666666666666" x2="52.39577557755775" y2="632.3333333333333" stroke="#444444" stroke-width="1.3333333333333333"/><text x="52.39577557755775" y="644.6533333333333" fill="#333333" font-size="11.733333333333334" font-family="sans-serif" text-anchor="middle">00</text><line x1="80.81095709570955" y1="628.6666666666666" x2="80.81095709570955" y2="632.3333333333333" stroke="#444444" stroke-width="1.3333333333333333"/><text x="80.81095709570955" y="644.6533333333333" fill="#333333" font-size="11.733333333333334" font-family="sans-serif" text-anchor="middle">01</text><line x1="109.22613861386137" y1="628.6666666666666" x2="109.22613861386137" y2="632.3333333333333" stroke="#444444" stroke-width="1.3333333333333333"/><text x="109.22613861386137" y="644.6533333333333" fill="#333333" font-size="11.733333333333334" font-family="sans-serif" text-anchor="middle">02</text><line x1="137.64132013201316" y1="628.6666666666666" x2="137.64132013201316" y2="632.3333333333333" stroke="#444444" stroke-width="1.3333333333333333"/><text x="137.64132013201316" y="644.6533333333333" fill="#333333" font-size="11.733333333333334" font-family="sans-serif" text-anchor="middle">03</text><line x1="166.056501650165" y1="628.6666666666666" x2="166.056501650165" y2="632.3333333333333" stroke="#444444" stroke-width="1.3333333333333333"/><text x="166.056501650165" y="644.6533333333333" fill="#333333" font-size="11.733333333333334" font-family="sans-serif" text-anchor="middle">04</text><line x1="194.4716831683168" y1="628.6666666666666" x2="194.4716831683168" y2="632.3333333333333" stroke="#444444" stroke-width="1.3333333333333333"/><text x="194.4716831683168" y="644.6533333333333" fill="#333333" font-size="11.733333333333334" font-family="sans-serif" text-anchor="middle">05</text><line x1="222.8868646864686" y1="628.6666666666666" x2="222.8868646864686" y2="632.3333333333333" stroke="#444444" stroke-width="1.3333333333333333"/><text x="222.8868646864686" y="644.6533333333333" fill="#333333" font-size="11.733333333333334" font-family="sans-serif" text-anchor="middle">06</text><line x1="251.3020462046204" y1="628.6666666666666" x2="251.3020462046204" y2="632.3333333333333" stroke="#444444" stroke-width="1.3333333333333333"/><text x="251.3020462046204" y="644.6533333333333" fill="#333333" font-size="11.733333333333334" font-family="sans-serif" text-anchor="middle">07</text><line x1="279.71722772277224" y1="628.6666666666666" x2="279.71722772277224" y2="632.3333333333333" stroke="#444444" stroke-width="1.3333333333333333"/><text x="279.71722772277224" y="644.6533333333333" fill="#333333" font-size="11.733333333333334" font-family="sans-serif" text-anchor="middle">08</text><line x1="308.132409240924" y1="628.6666666666666" x2="308.132409240924" y2="632.3333333333333" stroke="#444444" stroke-width="1.3333333333333333"/><text x="308.132409240924" y="644.6533333333333" fill="#333333" font-size="11.733333333333334" font-family="sans-serif" text-anchor="middle">09</text><line x1="336.54759075907583" y1="628.6666666666666" x2="336.54759075907583" y2="632.3333333333333" stroke="#444444" stroke-width="1.3333333333333333"/><text x="336.54759075907583" y="644.6533333333333" fill="#333333" font-size="11.733333333333334" font-family="sans-serif" text-anchor="middle">10</text><line x1="364.9627722772277" y1="628.6666666666666" x2="364.9627722772277" y2="632.3333333333333" stroke="#444444" stroke-width="1.3333333333333333"/><text x="364.9627722772277" y="644.6533333333333" fill="#333333" font-size="11.733333333333334" font-family="sans-serif" text-anchor="middle">11</text><line x1="393.3779537953795" y1="628.6666666666666" x2="393.3779537953795" y2="632.3333333333333" stroke="#444444" stroke-width="1.3333333333333333"/><text x="393.3779537953795" y="644.6533333333333" fill="#333333" font-size="11.733333333333334" font-family="sans-serif" text-anchor="middle">12</text><line x1="421.79313531353125" y1="628.6666666666666" x2="421.79313531353125" y2="632.3333333333333" stroke="#444444" stroke-width="1.3333333333333333"/><text x="421.79313531353125" y="644.6533333333333" fill="#333333" font-size="11.733333333333334" font-family="sans-serif" text-anchor="middle">13</text><line x1="450.2083168316831" y1="628.6666666666666" x2="450.2083168316831" y2="632.3333333333333" stroke="#444444" stroke-width="1.3333333333333333"/><text x="450.2083168316831" y="644.6533333333333" fill="#333333" font-size="11.733333333333334" font-family="sans-serif" text-anchor="middle">14</text><line x1="478.6234983498349" y1="628.6666666666666" x2="478.6234983498349" y2="632.3333333333333" stroke="#444444" stroke-width="1.3333333333333333"/><text x="478.6234983498349" y="644.6533333333333" fill="#333333" font-size="11.733333333333334" font-family="sans-serif" text-anchor="middle">15</text><line x1="507.0386798679868" y1="628.6666666666666" x2="507.0386798679868" y2="632.3333333333333" stroke="#444444" stroke-width="1.3333333333333333"/><text x="507.0386798679868" y="644.6533333333333" fill="#333333" font-size="11.733333333333334" font-family="sans-serif" text-anchor="middle">16</text><line x1="535.4538613861386" y1="628.6666666666666" x2="535.4538613861386" y2="632.3333333333333" stroke="#444444" stroke-width="1.3333333333333333"/><text x="535.4538613861386" y="644.6533333333333" fill="#333333" font-size="11.733333333333334" font-family="sans-serif" text-anchor="middle">17</text><line x1="563.8690429042904" y1="628.6666666666666" x2="563.8690429042904" y2="632.3333333333333" stroke="#444444" stroke-width="1.3333333333333333"/><text x="563.8690429042904" y="644.6533333333333" fill="#333333" font-size="11.733333333333334" font-family="sans-serif" text-anchor="middle">18</text><line x1="592.2842244224422" y1="628.6666666666666" x2="592.2842244224422" y2="632.3333333333333" stroke="#444444" stroke-width="1.3333333333333333"/><text x="592.2842244224422" y="644.6533333333333" fill="#333333" font-size="11.733333333333334" font-family="sans-serif" text-anchor="middle">19</text><line x1="35.346666666666664" y1="628.6666666666666" x2="31.679999999999996" y2="628.6666666666666" stroke="#444444" stroke-width="1.3333333333333333"/><text x="28.746666666666663" y="632.7733333333333" fill="#333333" font-size="11.733333333333334" font-family="sans-serif" text-anchor="end">0</text><line x1="35.346666666666664" y1="589.8941798941798" x2="31.679999999999996" y2="589.8941798941798" stroke="#444444" stroke-width="1.3333333333333333"/><text x="28.746666666666663" y="594.0008465608465" fill="#333333" font-size="11.733333333333334" font-family="sans-serif" text-anchor="end">20</text><line x1="35.346666666666664" y1="551.121693121693" x2="31.679999999999996" y2="551.121693121693" stroke="#444444" stroke-width="1.3333333333333333"/><text x="28.746666666666663" y="555.2283597883597" fill="#333333" font-size="11.733333333333334" font-family="sans-serif" text-anchor="end">40</text><line x1="35.346666666666664" y1="512.3492063492063" x2="31.679999999999996" y2="512.3492063492063" stroke="#444444" stroke-width="1.3333333333333333"/><text x="28.746666666666663" y="516.455873015873" fill="#333333" font-size="11.733333333333334" font-family="sans-serif" text-anchor="end">60</text><text x="35.346666666666664" y="485.5022222222222" fill="#333333" font-size="17.599999999999998" font-family="sans-serif" text-anchor="start">s</text><text x="322.34" y="662.4" fill="#333333" font-size="14.666666666666666" font-family="sans-serif" text-anchor="middle">rank bin</text><rect x="39.608943894389434" y="527.8582010582011" width="6.393415841584156" height="100.80846560846558" fill="#F8766D" fill-opacity="1.0" stroke="none"/><rect x="46.00235973597359" y="523.9809523809523" width="6.393415841584156" height="104.68571428571431" fill="#7CAE00" fill-opacity="1.0" stroke="none"/><rect x="52.39577557755775" y="523.9809523809523" width="6.393415841584156" height="104.68571428571431" fill="#00BFC4" fill-opacity="1.0" stroke="none"/><rect x="58.78919141914191" y="551.121693121693" width="6.393415841584156" height="77.54497354497357" fill="#C77CFF" fill-opacity="1.0" stroke="none"/><rect x="68.02412541254125" y="522.042328042328" width="6.393415841584156" height="106.62433862433863" fill="#F8766D" fill-opacity="1.0" stroke="none"/><rect x="74.41754125412541" y="553.0603174603175" width="6.393415841584156" height="75.60634920634917" fill="#7CAE00" fill-opacity="1.0" stroke="none"/><rect x="80.81095709570955" y="545.3058201058201" width="6.393415841584156" height="83.36084656084654" fill="#00BFC4" fill-opacity="1.0" stroke="none"/><rect x="87.20437293729373" y="506.5333333333333" width="6.393415841584156" height="122.13333333333335" fill="#C77CFF" fill-opacity="1.0" stroke="none"/><rect x="96.43930693069305" y="525.9195767195766" width="6.393415841584156" height="102.74708994708999" fill="#F8766D" fill-opacity="1.0" stroke="none"/><rect x="102.83272277227724" y="541.4285714285713" width="6.393415841584156" height="87.23809523809526" fill="#7CAE00" fill-opacity="1.0" stroke="none"/><rect x="109.22613861386137" y="525.9195767195766" width="6.393415841584156" height="102.74708994708999" fill="#00BFC4" fill-opacity="1.0" stroke="none"/><rect x="115.61955445544555" y="533.674074074074" width="6.393415841584156" height="94.99259259259262" fill="#C77CFF" fill-opacity="1.0" stroke="none"/><rect x="124.85448844884488" y="558.8761904761905" width="6.393415841584156" height="69.7904761904762" fill="#F8766D" fill-opacity="1.0" stroke="none"/><rect x="131.247904290429" y="529.7968253968254" width="6.393415841584156" height="98.86984126984126" fill="#7CAE00" fill-opacity="1.0" stroke="none"/><rect x="137.6413201320132" y="535.6126984126984" width="6.393415841584156" height="93.05396825396829" fill="#00BFC4" fill-opacity="1.0" stroke="none"/><rect x="144.03473597359732" y="502.65608465608466" width="6.393415841584156" height="126.010582010582" fill="#C77CFF" fill-opacity="1.0" stroke="none"/><rect x="153.26966996699667" y="537.5513227513227" width="6.393415841584156" height="91.1153439153439" fill="#F8766D" fill-opacity="1.0" stroke="none"/><rect x="159.66308580858083" y="523.9809523809523" width="6.393415841584156" height="104.68571428571431" fill="#7CAE00" fill-opacity="1.0" stroke="none"/><rect x="166.056501650165" y="531.7354497354497" width="6.393415841584156" height="96.93121693121694" fill="#00BFC4" fill-opacity="1.0" stroke="none"/><rect x="172.4499174917491" y="533.674074074074" width="6.393415841584156" height="94.99259259259262" fill="#C77CFF" fill-opacity="1.0" stroke="none"/><rect x="181.68485148514847" y="531.7354497354497" width="6.393415841584156" height="96.93121693121694" fill="#F8766D" fill-opacity="1.0" stroke="none"/><rect x="188.07826732673266" y="537.5513227513227" width="6.393415841584156" height="91.1153439153439" fill="#7CAE00" fill-opacity="1.0" stroke="none"/><rect x="194.47168316831676" y="529.7968253968254" width="6.393415841584156" height="98.86984126984126" fill="#00BFC4" fill-opacity="1.0" stroke="none"/><rect x="200.86509900990092" y="527.8582010582011" width="6.393415841584156" height="100.80846560846558" fill="#C77CFF" fill-opacity="1.0" stroke="none"/><rect x="210.10003300330027" y="525.9195767195766" width="6.393415841584156" height="102.74708994708999" fill="#F8766D" fill-opacity="1.0" stroke="none"/><rect x="216.49344884488443" y="539.489947089947" width="6.393415841584156" height="89.17671957671958" fill="#7CAE00" fill-opacity="1.0" stroke="none"/><rect x="222.88686468646858" y="525.9195767195766" width="6.393415841584156" height="102.74708994708999" fill="#00BFC4" fill-opacity="1.0" stroke="none"/><rect x="229.2802805280527" y="535.6126984126984" width="6.393415841584156" height="93.05396825396829" fill="#C77CFF" fill-opacity="1.0" stroke="none"/><rect x="238.5152145214521" y="541.4285714285713" width="6.393415841584156" height="87.23809523809526" fill="#F8766D" fill-opacity="1.0" stroke="none"/><rect x="244.90863036303625" y="535.6126984126984" width="6.393415841584156" height="93.05396825396829" fill="#7CAE00" fill-opacity="1.0" stroke="none"/><rect x="251.30204620462035" y="541.4285714285713" width="6.393415841584156" height="87.23809523809526" fill="#00BFC4" fill-opacity="1.0" stroke="none"/><rect x="257.6954620462045" y="508.4719576719576" width="6.393415841584156" height="120.19470899470903" fill="#C77CFF" fill-opacity="1.0" stroke="none"/><rect x="266.93039603960386" y="535.6126984126984" width="6.393415841584156" height="93.05396825396829" fill="#F8766D" fill-opacity="1.0" stroke="none"/><rect x="273.3238118811881" y="512.3492063492063" width="6.393415841584156" height="116.31746031746032" fill="#7CAE00" fill-opacity="1.0" stroke="none"/><rect x="279.71722772277224" y="560.8148148148148" width="6.393415841584156" height="67.85185185185188" fill="#00BFC4" fill-opacity="1.0" stroke="none"/><rect x="286.11064356435634" y="518.1650793650794" width="6.393415841584156" height="110.50158730158728" fill="#C77CFF" fill-opacity="1.0" stroke="none"/><rect x="295.34557755775575" y="525.9195767195766" width="6.393415841584156" height="102.74708994708999" fill="#F8766D" fill-opacity="1.0" stroke="none"/><rect x="301.73899339933985" y="518.1650793650794" width="6.393415841584156" height="110.50158730158728" fill="#7CAE00" fill-opacity="1.0" stroke="none"/><rect x="308.132409240924" y="533.674074074074" width="6.393415841584156" height="94.99259259259262" fill="#00BFC4" fill-opacity="1.0" stroke="none"/><rect x="314.52582508250816" y="549.1830687830687" width="6.393415841584156" height="79.4835978835979" fill="#C77CFF" fill-opacity="1.0" stroke="none"/><rect x="323.7607590759075" y="533.674074074074" width="6.393415841584156" height="94.99259259259262" fill="#F8766D" fill-opacity="1.0" stroke="none"/><rect x="330.1541749174917" y="527.8582010582011" width="6.393415841584156" height="100.80846560846558" fill="#7CAE00" fill-opacity="1.0" stroke="none"/><rect x="336.5475907590759" y="522.042328042328" width="6.393415841584156" height="106.62433862433863" fill="#00BFC4" fill-opacity="1.0" stroke="none"/><rect x="342.94100660066" y="543.3671957671957" width="6.393415841584156" height="85.29947089947093" fill="#C77CFF" fill-opacity="1.0" stroke="none"/><rect x="352.1759405940594" y="510.41058201058195" width="6.393415841584156" height="118.25608465608471" fill="#F8766D" fill-opacity="1.0" stroke="none"/><rect x="358.5693564356436" y="531.7354497354497" width="6.393415841584156" height="96.93121693121694" fill="#7CAE00" fill-opacity="1.0" stroke="none"/><rect x="364.9627722772277" y="539.489947089947" width="6.393415841584156" height="89.17671957671958" fill="#00BFC4" fill-opacity="1.0" stroke="none"/><rect x="371.3561881188119" y="545.3058201058201" width="6.393415841584156" height="83.36084656084654" fill="#C77CFF" fill-opacity="1.0" stroke="none"/><rect x="380.5911221122112" y="545.3058201058201" width="6.393415841584156" height="83.36084656084654" fill="#F8766D" fill-opacity="1.0" stroke="none"/><rect x="386.9845379537954" y="520.1037037037037" width="6.393415841584156" height="108.56296296296296" fill="#7CAE00" fill-opacity="1.0" stroke="none"/><rect x="393.3779537953795" y="527.8582010582011" width="6.393415841584156" height="100.80846560846558" fill="#00BFC4" fill-opacity="1.0" stroke="none"/><rect x="399.77136963696364" y="533.674074074074" width="6.393415841584156" height="94.99259259259262" fill="#C77CFF" fill-opacity="1.0" stroke="none"/><rect x="409.006303630363" y="518.1650793650794" width="6.393415841584156" height="110.50158730158728" fill="#F8766D" fill-opacity="1.0" stroke="none"/><rect x="415.39971947194715" y="525.9195767195766" width="6.393415841584156" height="102.74708994708999" fill="#7CAE00" fill-opacity="1.0" stroke="none"/><rect x="421.79313531353125" y="551.121693121693" width="6.393415841584156" height="77.54497354497357" fill="#00BFC4" fill-opacity="1.0" stroke="none"/><rect x="428.18655115511547" y="531.7354497354497" width="6.393415841584156" height="96.93121693121694" fill="#C77CFF" fill-opacity="1.0" stroke="none"/><rect x="437.42148514851476" y="531.7354497354497" width="6.393415841584156" height="96.93121693121694" fill="#F8766D" fill-opacity="1.0" stroke="none"/><rect x="443.814900990099" y="539.489947089947" width="6.393415841584156" height="89.17671957671958" fill="#7CAE00" fill-opacity="1.0" stroke="none"/><rect x="450.20831683168313" y="527.8582010582011" width="6.393415841584156" height="100.80846560846558" fill="#00BFC4" fill-opacity="1.0" stroke="none"/><rect x="456.6017326732673" y="527.8582010582011" width="6.393415841584156" height="100.80846560846558" fill="#C77CFF" fill-opacity="1.0" stroke="none"/><rect x="465.83666666666664" y="527.8582010582011" width="6.393415841584156" height="100.80846560846558" fill="#F8766D" fill-opacity="1.0" stroke="none"/><rect x="472.2300825082508" y="529.7968253968254" width="6.393415841584156" height="98.86984126984126" fill="#7CAE00" fill-opacity="1.0" stroke="none"/><rect x="478.6234983498349" y="533.674074074074" width="6.393415841584156" height="94.99259259259262" fill="#00BFC4" fill-opacity="1.0" stroke="none"/><rect x="485.0169141914191" y="535.6126984126984" width="6.393415841584156" height="93.05396825396829" fill="#C77CFF" fill-opacity="1.0" stroke="none"/><rect x="494.2518481848185" y="522.042328042328" width="6.393415841584156" height="106.62433862433863" fill="#F8766D" fill-opacity="1.0" stroke="none"/><rect x="500.64526402640263" y="533.674074074074" width="6.393415841584156" height="94.99259259259262" fill="#7CAE00" fill-opacity="1.0" stroke="none"/><rect x="507.0386798679868" y="533.674074074074" width="6.393415841584156" height="94.99259259259262" fill="#00BFC4" fill-opacity="1.0" stroke="none"/><rect x="513.432095709571" y="537.5513227513227" width="6.393415841584156" height="91.1153439153439" fill="#C77CFF" fill-opacity="1.0" stroke="none"/><rect x="522.6670297029702" y="535.6126984126984" width="6.393415841584156" height="93.05396825396829" fill="#F8766D" fill-opacity="1.0" stroke="none"/><rect x="529.0604455445543" y="541.4285714285713" width="6.393415841584156" height="87.23809523809526" fill="#7CAE00" fill-opacity="1.0" stroke="none"/><rect x="535.4538613861386" y="504.594708994709" width="6.393415841584156" height="124.07195767195768" fill="#00BFC4" fill-opacity="1.0" stroke="none"/><rect x="541.8472772277228" y="545.3058201058201" width="6.393415841584156" height="83.36084656084654" fill="#C77CFF" fill-opacity="1.0" stroke="none"/><rect x="551.0822112211221" y="537.5513227513227" width="6.393415841584156" height="91.1153439153439" fill="#F8766D" fill-opacity="1.0" stroke="none"/><rect x="557.4756270627062" y="541.4285714285713" width="6.393415841584156" height="87.23809523809526" fill="#7CAE00" fill-opacity="1.0" stroke="none"/><rect x="563.8690429042904" y="510.41058201058195" width="6.393415841584156" height="118.25608465608471" fill="#00BFC4" fill-opacity="1.0" stroke="none"/><rect x="570.2624587458746" y="537.5513227513227" width="6.393415841584156" height="91.1153439153439" fill="#C77CFF" fill-opacity="1.0" stroke="none"/><rect x="579.4973927392739" y="539.489947089947" width="6.393415841584156" height="89.17671957671958" fill="#F8766D" fill-opacity="1.0" stroke="none"/><rect x="585.890808580858" y="527.8582010582011" width="6.393415841584156" height="100.80846560846558" fill="#7CAE00" fill-opacity="1.0" stroke="none"/><rect x="592.2842244224422" y="529.7968253968254" width="6.393415841584156" height="98.86984126984126" fill="#00BFC4" fill-opacity="1.0" stroke="none"/><rect x="598.6776402640264" y="529.7968253968254" width="6.393415841584156" height="98.86984126984126" fill="#C77CFF" fill-opacity="1.0" stroke="none"/></svg>