<svg xmlns="http://www.w3.org/2000/svg" width="624" height="680" viewBox="0 0 624 680"><rect x="0.0" y="0.0" width="624.0" height="680.0" fill="#ffffff" fill-opacity="1.0" stroke="none"/><text x="35.346666666666664" y="21.413333333333334" fill="#333333" font-size="17.599999999999998" font-family="sans-serif" text-anchor="start">周辺事後密度 (marginalsOf)</text><rect x="0.0" y="0.0" width="0.0" height="0.0" fill="#ffffff" fill-opacity="1.0" stroke="none"/><line x1="95.27458349266067" y1="64.53333333333333" x2="95.27458349266067" y2="215.17777777777775" stroke="#dddddd" stroke-width="0.6666666666666666"/><line x1="233.0354289760483" y1="64.53333333333333" x2="233.0354289760483" y2="215.17777777777775" stroke="#dddddd" stroke-width="0.6666666666666666"/><line x1="370.79627445943606" y1="64.53333333333333" x2="370.79627445943606" y2="215.17777777777775" stroke="#dddddd" stroke-width="0.6666666666666666"/><line x1="508.5571199428239" y1="64.53333333333333" x2="508.5571199428239" y2="215.17777777777775" stroke="#dddddd" stroke-width="0.6666666666666666"/><line x1="164.1550062343545" y1="64.53333333333333" x2="164.1550062343545" y2="215.17777777777775" stroke="#dddddd" stroke-width="1.3333333333333333"/><line x1="301.91585171774216" y1="64.53333333333333" x2="301.91585171774216" y2="215.17777777777775" stroke="#dddddd" stroke-width="1.3333333333333333"/><line x1="439.6766972011299" y1="64.53333333333333" x2="439.6766972011299" y2="215.17777777777775" stroke="#dddddd" stroke-width="1.3333333333333333"/><line x1="577.4375426845176" y1="64.53333333333333" x2="577.4375426845176" y2="215.17777777777775" stroke="#dddddd" stroke-width="1.3333333333333333"/><line x1="35.346666666666664" y1="201.0335002021945" x2="609.3333333333333" y2="201.0335002021945" stroke="#dddddd" stroke-width="0.6666666666666666"/><line x1="35.346666666666664" y1="172.74494505102797" x2="609.3333333333333" y2="172.74494505102797" stroke="#dddddd" stroke-width="0.6666666666666666"/><line x1="35.346666666666664" y1="144.45638989986145" x2="609.3333333333333" y2="144.45638989986145" stroke="#dddddd" stroke-width="0.6666666666666666"/><line x1="35.346666666666664" y1="116.16783474869496" x2="609.3333333333333" y2="116.16783474869496" stroke="#dddddd" stroke-width="0.6666666666666666"/><line x1="35.346666666666664" y1="87.87927959752844" x2="609.3333333333333" y2="87.87927959752844" stroke="#dddddd" stroke-width="0.6666666666666666"/><line x1="35.346666666666664" y1="215.17777777777775" x2="609.3333333333333" y2="215.17777777777775" stroke="#dddddd" stroke-width="1.3333333333333333"/><line x1="35.346666666666664" y1="186.88922262661123" x2="609.3333333333333" y2="186.88922262661123" stroke="#dddddd" stroke-width="1.3333333333333333"/><line x1="35.346666666666664" y1="158.60066747544474" x2="609.3333333333333" y2="158.60066747544474" stroke="#dddddd" stroke-width="1.3333333333333333"/><line x1="35.346666666666664" y1="130.31211232427822" x2="609.3333333333333" y2="130.31211232427822" stroke="#dddddd" stroke-width="1.3333333333333333"/><line x1="35.346666666666664" y1="102.02355717311173" x2="609.3333333333333" y2="102.02355717311173" stroke="#dddddd" stroke-width="1.3333333333333333"/><line x1="35.346666666666664" y1="73.73500202194518" x2="609.3333333333333" y2="73.73500202194518" stroke="#dddddd" stroke-width="1.3333333333333333"/><rect x="35.346666666666664" y="64.53333333333333" width="573.9866666666667" height="150.64444444444442" fill="#ffffff" fill-opacity="0.0" stroke="#444444" stroke-width="1.3333333333333333"/><line x1="164.1550062343545" y1="215.17777777777775" x2="164.1550062343545" y2="218.84444444444443" stroke="#444444" stroke-width="1.3333333333333333"/><text x="164.1550062343545" y="231.1644444444444" fill="#333333" font-size="11.733333333333334" font-family="sans-serif" text-anchor="middle">0.8</text><line x1="301.91585171774216" y1="215.17777777777775" x2="301.91585171774216" y2="218.84444444444443" stroke="#444444" stroke-width="1.3333333333333333"/><text x="301.91585171774216" y="231.1644444444444" fill="#333333" font-size="11.733333333333334" font-family="sans-serif" text-anchor="middle">1.0</text><line x1="439.6766972011299" y1="215.17777777777775" x2="439.6766972011299" y2="218.84444444444443" stroke="#444444" stroke-width="1.3333333333333333"/><text x="439.6766972011299" y="231.1644444444444" fill="#333333" font-size="11.733333333333334" font-family="sans-serif" text-anchor="middle">1.2</text><line x1="577.4375426845176" y1="215.17777777777775" x2="577.4375426845176" y2="218.84444444444443" stroke="#444444" stroke-width="1.3333333333333333"/><text x="577.4375426845176" y="231.1644444444444" fill="#333333" font-size="11.733333333333334" font-family="sans-serif" text-anchor="middle">1.4</text><line x1="35.346666666666664" y1="215.17777777777775" x2="31.679999999999996" y2="215.17777777777775" stroke="#444444" stroke-width="1.3333333333333333"/><text x="28.746666666666663" y="219.28444444444443" fill="#333333" font-size="11.733333333333334" font-family="sans-serif" text-anchor="end">0</text><line x1="35.346666666666664" y1="186.88922262661123" x2="31.679999999999996" y2="186.88922262661123" stroke="#444444" stroke-width="1.3333333333333333"/><text x="28.746666666666663" y="190.9958892932779" fill="#333333" font-size="11.733333333333334" font-family="sans-serif" text-anchor="end">1</text><line x1="35.346666666666664" y1="158.60066747544474" x2="31.679999999999996" y2="158.60066747544474" stroke="#444444" stroke-width="1.3333333333333333"/><text x="28.746666666666663" y="162.7073341421114" fill="#333333" font-size="11.733333333333334" font-family="sans-serif" text-anchor="end">2</text><line x1="35.346666666666664" y1="130.31211232427822" x2="31.679999999999996" y2="130.31211232427822" stroke="#444444" stroke-width="1.3333333333333333"/><text x="28.746666666666663" y="134.41877899094487" fill="#333333" font-size="11.733333333333334" font-family="sans-serif" text-anchor="end">3</text><line x1="35.346666666666664" y1="102.02355717311173" x2="31.679999999999996" y2="102.02355717311173" stroke="#444444" stroke-width="1.3333333333333333"/><text x="28.746666666666663" y="106.13022383977838" fill="#333333" font-size="11.733333333333334" font-family="sans-serif" text-anchor="end">4</text><line x1="35.346666666666664" y1="73.73500202194518" x2="31.679999999999996" y2="73.73500202194518" stroke="#444444" stroke-width="1.3333333333333333"/><text x="28.746666666666663" y="77.84166868861185" fill="#333333" font-size="11.733333333333334" font-family="sans-serif" text-anchor="end">5</text><text x="35.346666666666664" y="53.68000000000001" fill="#333333" font-size="17.599999999999998" font-family="sans-serif" text-anchor="start">a</text><path d="M 35.346666666666664 215.16139361526135 L 41.14451178451179 215.13279068724185 L 46.94235690235693 215.07804488142324 L 52.74020202020199 214.99712316643792 L 58.538047138047126 214.90532194618908 L 64.33589225589225 214.8251644177292 L 70.13373737373738 214.76781195549938 L 75.93158249158252 214.72360878092297 L 81.72942760942757 214.6698085991501 L 87.5272727272727 214.5804735684439 L 93.32511784511783 214.43086867819733 L 99.12296296296297 214.2105589628339 L 104.92080808080811 213.94132957129855 L 110.71865319865317 213.6675398302287 L 116.51649831649829 213.41986522787116 L 122.31434343434344 213.19312181943306 L 128.11218855218857 212.93907410104447 L 133.9100336700336 212.5452420707598 L 139.70787878787874 211.83723033071684 L 145.50572390572387 210.67624415145 L 151.30356902356903 209.10872357893894 L 157.10141414141415 207.38716209785008 L 162.89925925925928 205.75548163063596 L 168.69710437710435 204.18865165532014 L 174.49494949494948 202.4058441265244 L 180.29279461279464 200.1557891106618 L 186.09063973063974 197.41562964913248 L 191.88848484848478 194.2959140045803 L 197.68632996632994 190.86560873727973 L 203.48417508417506 187.15442331423583 L 209.2820202020202 183.22523095716315 L 215.0798653198653 179.05176029723123 L 220.87771043771048 174.28958808155147 L 226.67555555555558 168.35670297150148 L 232.47340067340065 160.90623762380764 L 238.27124579124578 152.1427435636495 L 244.06909090909085 142.55021954274005 L 249.86693602693597 132.4434437220011 L 255.6647811447811 121.98838257012767 L 261.46262626262626 111.56968121642166 L 267.26047138047136 101.88568453083201 L 273.0583164983165 93.59476594829343 L 278.8561616161616 86.90977263461193 L 284.65400673400677 81.55498856442748 L 290.4518518518518 77.14588359134662 L 296.24969696969697 73.69755990129528 L 302.047542087542 71.77067175768397 L 307.84538720538717 71.97568408835271 L 313.64323232323227 74.32369114874606 L 319.44107744107737 78.30796634159273 L 325.2389225589226 83.6513359184139 L 331.0367676767677 90.61736739319454 L 336.8346127946128 99.43160153160346 L 342.63245791245777 109.66284979938979 L 348.4303030303029 120.35455658396572 L 354.2281481481481 130.6428625548774 L 360.0259932659932 140.1377063138845 L 365.8238383838384 148.79024086485896 L 371.6216835016835 156.5623573333073 L 377.4195286195286 163.3383183670802 L 383.21737373737375 169.1488895504839 L 389.01521885521885 174.3571211654592 L 394.81306397306395 179.4784296510216 L 400.6109090909091 184.7599019287203 L 406.4087542087543 189.95037910684746 L 412.2065993265994 194.49336590092537 L 418.0044444444445 197.9727010769834 L 423.8022895622895 200.44010390542604 L 429.6001346801346 202.34775079520014 L 435.3979797979798 204.1545853831659 L 441.1958249158249 206.00501746157664 L 446.99367003367007 207.76782185432174 L 452.791515151515 209.27785455287386 L 458.5893602693602 210.46856479142514 L 464.3872053872053 211.34843437197884 L 470.1850505050504 211.95780154613297 L 475.98289562289557 212.3603532628249 L 481.78074074074067 212.6425017089091 L 487.5785858585858 212.89805939658484 L 493.3764309764309 213.1875197950069 L 499.174276094276 213.50058364300494 L 504.97212121212124 213.7757744953565 L 510.7699663299664 213.96893748016674 L 516.5678114478114 214.09894303306584 L 522.3656565656565 214.22623291010433 L 528.1635016835017 214.39166781096935 L 533.9613468013468 214.57908906213257 L 539.7591919191918 214.73400879800514 L 545.5570370370369 214.81337117025834 L 551.3548821548821 214.82178174154467 L 557.1527272727272 214.80667835266993 L 562.9505723905723 214.81531732280047 L 568.7484175084173 214.85563635752922 L 574.5462626262624 214.90474842167276 L 580.3441077441076 214.94780885231674 L 586.1419528619527 214.99181605905443 L 591.939797979798 215.04447036961847 L 597.7376430976431 215.09820804566942 L 603.5354882154882 215.1394977629306 L 609.3333333333333 215.16314170029165" fill="" fill-opacity="0.0" stroke="#1f77b4" stroke-width="1.8897637795275593"/><rect x="0.0" y="0.0" width="0.0" height="0.0" fill="#ffffff" fill-opacity="1.0" stroke="none"/><line x1="118.24334898611252" y1="280.4444444444444" x2="118.24334898611252" y2="431.08888888888885" stroke="#dddddd" stroke-width="0.6666666666666666"/><line x1="259.89245582261333" y1="280.4444444444444" x2="259.89245582261333" y2="431.08888888888885" stroke="#dddddd" stroke-width="0.6666666666666666"/><line x1="401.54156265911416" y1="280.4444444444444" x2="401.54156265911416" y2="431.08888888888885" stroke="#dddddd" stroke-width="0.6666666666666666"/><line x1="543.1906694956149" y1="280.4444444444444" x2="543.1906694956149" y2="431.08888888888885" stroke="#dddddd" stroke-width="0.6666666666666666"/><line x1="47.41879556786212" y1="280.4444444444444" x2="47.41879556786212" y2="431.08888888888885" stroke="#dddddd" stroke-width="1.3333333333333333"/><line x1="189.06790240436294" y1="280.4444444444444" x2="189.06790240436294" y2="431.08888888888885" stroke="#dddddd" stroke-width="1.3333333333333333"/><line x1="330.7170092408637" y1="280.4444444444444" x2="330.7170092408637" y2="431.08888888888885" stroke="#dddddd" stroke-width="1.3333333333333333"/><line x1="472.36611607736455" y1="280.4444444444444" x2="472.36611607736455" y2="431.08888888888885" stroke="#dddddd" stroke-width="1.3333333333333333"/><line x1="35.346666666666664" y1="407.37344491775804" x2="609.3333333333333" y2="407.37344491775804" stroke="#dddddd" stroke-width="0.6666666666666666"/><line x1="35.346666666666664" y1="359.9425569754965" x2="609.3333333333333" y2="359.9425569754965" stroke="#dddddd" stroke-width="0.6666666666666666"/><line x1="35.346666666666664" y1="312.51166903323485" x2="609.3333333333333" y2="312.51166903323485" stroke="#dddddd" stroke-width="0.6666666666666666"/><line x1="35.346666666666664" y1="431.08888888888885" x2="609.3333333333333" y2="431.08888888888885" stroke="#dddddd" stroke-width="1.3333333333333333"/><line x1="35.346666666666664" y1="383.6580009466273" x2="609.3333333333333" y2="383.6580009466273" stroke="#dddddd" stroke-width="1.3333333333333333"/><line x1="35.346666666666664" y1="336.2271130043656" x2="609.3333333333333" y2="336.2271130043656" stroke="#dddddd" stroke-width="1.3333333333333333"/><line x1="35.346666666666664" y1="288.79622506210404" x2="609.3333333333333" y2="288.79622506210404" stroke="#dddddd" stroke-width="1.3333333333333333"/><rect x="35.346666666666664" y="280.4444444444444" width="573.9866666666667" height="150.64444444444445" fill="#ffffff" fill-opacity="0.0" stroke="#444444" stroke-width="1.3333333333333333"/><line x1="47.41879556786212" y1="431.08888888888885" x2="47.41879556786212" y2="434.75555555555553" stroke="#444444" stroke-width="1.3333333333333333"/><text x="47.41879556786212" y="447.0755555555555" fill="#333333" font-size="11.733333333333334" font-family="sans-serif" text-anchor="middle">1.92</text><line x1="189.06790240436294" y1="431.08888888888885" x2="189.06790240436294" y2="434.75555555555553" stroke="#444444" stroke-width="1.3333333333333333"/><text x="189.06790240436294" y="447.0755555555555" fill="#333333" font-size="11.733333333333334" font-family="sans-serif" text-anchor="middle">1.96</text><line x1="330.7170092408637" y1="431.08888888888885" x2="330.7170092408637" y2="434.75555555555553" stroke="#444444" stroke-width="1.3333333333333333"/><text x="330.7170092408637" y="447.0755555555555" fill="#333333" font-size="11.733333333333334" font-family="sans-serif" text-anchor="middle">2.00</text><line x1="472.36611607736455" y1="431.08888888888885" x2="472.36611607736455" y2="434.75555555555553" stroke="#444444" stroke-width="1.3333333333333333"/><text x="472.36611607736455" y="447.0755555555555" fill="#333333" font-size="11.733333333333334" font-family="sans-serif" text-anchor="middle">2.04</text><line x1="35.346666666666664" y1="431.08888888888885" x2="31.679999999999996" y2="431.08888888888885" stroke="#444444" stroke-width="1.3333333333333333"/><text x="28.746666666666663" y="435.19555555555553" fill="#333333" font-size="11.733333333333334" font-family="sans-serif" text-anchor="end">0</text><line x1="35.346666666666664" y1="383.6580009466273" x2="31.679999999999996" y2="383.6580009466273" stroke="#444444" stroke-width="1.3333333333333333"/><text x="28.746666666666663" y="387.7646676132939" fill="#333333" font-size="11.733333333333334" font-family="sans-serif" text-anchor="end">10</text><line x1="35.346666666666664" y1="336.2271130043656" x2="31.679999999999996" y2="336.2271130043656" stroke="#444444" stroke-width="1.3333333333333333"/><text x="28.746666666666663" y="340.3337796710323" fill="#333333" font-size="11.733333333333334" font-family="sans-serif" text-anchor="end">20</text><line x1="35.346666666666664" y1="288.79622506210404" x2="31.679999999999996" y2="288.79622506210404" stroke="#444444" stroke-width="1.3333333333333333"/><text x="28.746666666666663" y="292.9028917287707" fill="#333333" font-size="11.733333333333334" font-family="sans-serif" text-anchor="end">30</text><text x="35.346666666666664" y="269.5911111111111" fill="#333333" font-size="17.599999999999998" font-family="sans-serif" text-anchor="start">b</text><path d="M 35.346666666666664 431.08345217842117 L 41.1445117845119 431.06779238310764 L 46.94235690235713 431.0305528471934 L 52.74020202020237 430.973859909497 L 58.53804713804682 430.92656569036495 L 64.33589225589205 430.92184644402187 L 70.13373737373729 430.9518215891702 L 75.93158249158253 430.9701196618736 L 81.72942760942777 430.95042683192133 L 87.527272727273 430.9210549257162 L 93.32511784511746 430.9275133509117 L 99.1229629629627 430.9740656010004 L 104.92080808080792 431.0214948359369 L 110.71865319865317 431.02964691918294 L 116.5164983164984 430.98257261705163 L 122.31434343434364 430.89288931670364 L 128.11218855218888 430.801177062218 L 133.91003367003333 430.7490692702763 L 139.70787878787854 430.73285610891287 L 145.5057239057238 430.69340542383156 L 151.30356902356905 430.560915197246 L 157.10141414141427 430.31154936761357 L 162.8992592592595 429.99209110171074 L 168.69710437710472 429.67995410752985 L 174.4949494949492 429.39231100114154 L 180.29279461279444 429.05164044831713 L 186.09063973063968 428.56245809872246 L 191.88848484848495 427.89532556077876 L 197.68632996633016 427.07176330004836 L 203.4841750841754 426.08409286791334 L 209.28202020201982 424.8675105435915 L 215.07986531986506 423.3878579625862 L 220.87771043771033 421.7507963900272 L 226.67555555555555 420.09191522365325 L 232.4734006734008 418.27539385183513 L 238.271245791246 415.9072154740661 L 244.06909090909124 412.7493039471108 L 249.86693602693572 408.9138744362789 L 255.66478114478093 404.6170460418066 L 261.46262626262615 399.81349528017995 L 267.2604713804714 394.0503745641277 L 273.05831649831663 386.7526578889192 L 278.8561616161619 377.61831031061416 L 284.6540067340063 366.7831794073718 L 290.45185185185153 354.8316584674553 L 296.2496969696968 342.36244551583525 L 302.047542087542 329.4765793236088 L 307.8453872053873 316.46003978075333 L 313.6432323232325 304.8826660191085 L 319.44107744107777 296.75574698024894 L 325.2389225589222 292.2911797151852 L 331.03676767676825 289.76435424471583 L 336.83461279461267 287.9413101468683 L 342.63245791245873 287.24705750556427 L 348.4303030303032 288.5041564732927 L 354.2281481481476 292.0304746673776 L 360.02599326599363 297.9928397055151 L 365.82383838383805 306.5317386771663 L 371.6216835016842 317.35882758813375 L 377.4195286195286 329.6407882441707 L 383.217373737373 342.34426567496945 L 389.015218855219 354.62972291318783 L 394.8130639730635 365.94990378961995 L 400.6109090909095 375.94193829570577 L 406.408754208754 384.4546039436089 L 412.2065993265999 391.66198671511467 L 418.0044444444444 397.9407732257585 L 423.8022895622888 403.51651480892485 L 429.60013468013494 408.30805592131435 L 435.39797979797936 412.238515785283 L 441.19582491582537 415.51774081530664 L 446.9936700336698 418.4094745117195 L 452.79151515151585 420.95337745936655 L 458.58936026936027 423.1007434326516 L 464.38720538720474 424.86860231145874 L 470.18505050505075 426.27916415344555 L 475.98289562289517 427.35566434839444 L 481.7807407407412 428.1670781755647 L 487.5785858585857 428.78843493855345 L 493.37643097643013 429.2791071016796 L 499.1742760942762 429.7015598931407 L 504.9721212121206 430.0901305669005 L 510.7699663299666 430.41291022779234 L 516.5678114478111 430.6075430023732 L 522.3656565656571 430.6574634274058 L 528.1635016835016 430.6300878436417 L 533.9613468013475 430.6296929481912 L 539.7591919191921 430.7081876022655 L 545.5570370370365 430.8375550094898 L 551.3548821548825 430.95842078559485 L 557.1527272727269 431.03237670405974 L 562.9505723905729 431.05269440597704 L 568.7484175084173 431.0272807668333 L 574.5462626262619 430.97348365547873 L 580.3441077441079 430.9275868711798 L 586.1419528619524 430.92764127710194 L 591.9397979797984 430.97400303518305 L 597.7376430976428 431.03056639790344 L 603.5354882154888 431.0677932966389 L 609.3333333333333 431.08345222228957" fill="" fill-opacity="0.0" stroke="#1f77b4" stroke-width="1.8897637795275593"/><rect x="0.0" y="0.0" width="0.0" height="0.0" fill="#ffffff" fill-opacity="1.0" stroke="none"/><line x1="47.66330843249072" y1="496.3555555555555" x2="47.66330843249072" y2="647.0" stroke="#dddddd" stroke-width="0.6666666666666666"/><line x1="186.98453076468107" y1="496.3555555555555" x2="186.98453076468107" y2="647.0" stroke="#dddddd" stroke-width="0.6666666666666666"/><line x1="326.30575309687134" y1="496.3555555555555" x2="326.30575309687134" y2="647.0" stroke="#dddddd" stroke-width="0.6666666666666666"/><line x1="465.62697542906164" y1="496.3555555555555" x2="465.62697542906164" y2="647.0" stroke="#dddddd" stroke-width="0.6666666666666666"/><line x1="604.9481977612519" y1="496.3555555555555" x2="604.9481977612519" y2="647.0" stroke="#dddddd" stroke-width="0.6666666666666666"/><line x1="117.32391959858587" y1="496.3555555555555" x2="117.32391959858587" y2="647.0" stroke="#dddddd" stroke-width="1.3333333333333333"/><line x1="256.64514193077616" y1="496.3555555555555" x2="256.64514193077616" y2="647.0" stroke="#dddddd" stroke-width="1.3333333333333333"/><line x1="395.96636426296647" y1="496.3555555555555" x2="395.96636426296647" y2="647.0" stroke="#dddddd" stroke-width="1.3333333333333333"/><line x1="535.2875865951568" y1="496.3555555555555" x2="535.2875865951568" y2="647.0" stroke="#dddddd" stroke-width="1.3333333333333333"/><line x1="35.346666666666664" y1="621.2282502637131" x2="609.3333333333333" y2="621.2282502637131" stroke="#dddddd" stroke-width="0.6666666666666666"/><line x1="35.346666666666664" y1="569.6847507911395" x2="609.3333333333333" y2="569.6847507911395" stroke="#dddddd" stroke-width="0.6666666666666666"/><line x1="35.346666666666664" y1="518.141251318566" x2="609.3333333333333" y2="518.141251318566" stroke="#dddddd" stroke-width="0.6666666666666666"/><line x1="35.346666666666664" y1="647.0" x2="609.3333333333333" y2="647.0" stroke="#dddddd" stroke-width="1.3333333333333333"/><line x1="35.346666666666664" y1="595.4565005274263" x2="609.3333333333333" y2="595.4565005274263" stroke="#dddddd" stroke-width="1.3333333333333333"/><line x1="35.346666666666664" y1="543.9130010548528" x2="609.3333333333333" y2="543.9130010548528" stroke="#dddddd" stroke-width="1.3333333333333333"/><rect x="35.346666666666664" y="496.3555555555555" width="573.9866666666667" height="150.64444444444445" fill="#ffffff" fill-opacity="0.0" stroke="#444444" stroke-width="1.3333333333333333"/><line x1="117.32391959858587" y1="647.0" x2="117.32391959858587" y2="650.6666666666666" stroke="#444444" stroke-width="1.3333333333333333"/><text x="117.32391959858587" y="662.9866666666667" fill="#333333" font-size="11.733333333333334" font-family="sans-serif" text-anchor="middle">0.1</text><line x1="256.64514193077616" y1="647.0" x2="256.64514193077616" y2="650.6666666666666" stroke="#444444" stroke-width="1.3333333333333333"/><text x="256.64514193077616" y="662.9866666666667" fill="#333333" font-size="11.733333333333334" font-family="sans-serif" text-anchor="middle">0.2</text><line x1="395.96636426296647" y1="647.0" x2="395.96636426296647" y2="650.6666666666666" stroke="#444444" stroke-width="1.3333333333333333"/><text x="395.96636426296647" y="662.9866666666667" fill="#333333" font-size="11.733333333333334" font-family="sans-serif" text-anchor="middle">0.3</text><line x1="535.2875865951568" y1="647.0" x2="535.2875865951568" y2="650.6666666666666" stroke="#444444" stroke-width="1.3333333333333333"/><text x="535.2875865951568" y="662.9866666666667" fill="#333333" font-size="11.733333333333334" font-family="sans-serif" text-anchor="middle">0.4</text><line x1="35.346666666666664" y1="647.0" x2="31.679999999999996" y2="647.0" stroke="#444444" stroke-width="1.3333333333333333"/><text x="28.746666666666663" y="651.1066666666666" fill="#333333" font-size="11.733333333333334" font-family="sans-serif" text-anchor="end">0</text><line x1="35.346666666666664" y1="595.4565005274263" x2="31.679999999999996" y2="595.4565005274263" stroke="#444444" stroke-width="1.3333333333333333"/><text x="28.746666666666663" y="599.563167194093" fill="#333333" font-size="11.733333333333334" font-family="sans-serif" text-anchor="end">5</text><line x1="35.346666666666664" y1="543.9130010548528" x2="31.679999999999996" y2="543.9130010548528" stroke="#444444" stroke-width="1.3333333333333333"/><text x="28.746666666666663" y="548.0196677215195" fill="#333333" font-size="11.733333333333334" font-family="sans-serif" text-anchor="end">10</text><text x="35.346666666666664" y="485.5022222222222" fill="#333333" font-size="17.599999999999998" font-family="sans-serif" text-anchor="start">s</text><path d="M 35.346666666666664 646.9503643387666 L 41.14451178451178 646.7710141909253 L 46.94235690235689 646.1453579882466 L 52.74020202020202 644.3852367904547 L 58.538047138047126 640.35334383855 L 64.33589225589225 632.7580750056484 L 70.13373737373736 620.8417103644309 L 75.9315824915825 604.9732448239286 L 81.7294276094276 586.5334341615014 L 87.52727272727273 567.1858672977762 L 93.32511784511783 548.3162709240113 L 99.12296296296296 531.1158491958038 L 104.92080808080807 516.9236542626411 L 110.71865319865317 507.1528431229543 L 116.51649831649829 502.7224845543693 L 122.31434343434341 503.5477543706976 L 128.11218855218854 508.537246873154 L 133.91003367003364 516.0507728978857 L 139.70787878787877 524.5015004894984 L 145.50572390572387 532.8814285998241 L 151.30356902356897 541.0205204761287 L 157.10141414141415 549.3192868921751 L 162.89925925925925 558.2070514404496 L 168.69710437710438 567.8468795131157 L 174.49494949494948 577.9227739616771 L 180.29279461279458 587.4555001663916 L 186.09063973063968 595.2914721051982 L 191.88848484848484 601.0633841456389 L 197.68632996632996 605.423430732757 L 203.48417508417506 609.2922282536691 L 209.28202020202016 613.1281129406855 L 215.07986531986526 616.9227307906417 L 220.87771043771036 620.5987645738242 L 226.6755555555555 624.1718365231744 L 232.47340067340065 627.5755450755419 L 238.27124579124575 630.5728049115407 L 244.06909090909085 632.953202497663 L 249.86693602693597 634.7150113287798 L 255.66478114478107 636.0157166035322 L 261.4626262626262 637.041790339705 L 267.2604713804713 637.947682855012 L 273.05831649831646 638.8302050858144 L 278.85616161616156 639.7013672946687 L 284.65400673400666 640.5067131300932 L 290.4518518518518 641.2055217801662 L 296.24969696969697 641.8136238148976 L 302.04754208754207 642.3523493154291 L 307.84538720538717 642.8226450589668 L 313.64323232323227 643.2451407982096 L 319.44107744107737 643.6343127963326 L 325.23892255892247 643.9351414743303 L 331.03676767676757 644.0846990607122 L 336.83461279461267 644.127836704068 L 342.6324579124578 644.1887932341684 L 348.4303030303029 644.3430162793095 L 354.2281481481481 644.5799619917326 L 360.0259932659932 644.8575799583525 L 365.8238383838384 645.1293009194817 L 371.6216835016834 645.3522334844225 L 377.4195286195286 645.5207812127353 L 383.2173737373737 645.673196253158 L 389.01521885521885 645.8446260343308 L 394.8130639730639 646.0265645192904 L 400.61090909090905 646.1805576838146 L 406.40875420875415 646.2859424326209 L 412.20659932659925 646.3588804953126 L 418.0044444444444 646.4209957708042 L 423.8022895622895 646.4782232911102 L 429.6001346801346 646.5412942603381 L 435.3979797979797 646.6309125599026 L 441.1958249158249 646.7470447887613 L 446.99367003367 646.8589784956642 L 452.79151515151517 646.9348254547922 L 458.58936026936027 646.964506067758 L 464.38720538720537 646.9529546151576 L 470.1850505050504 646.9087873482472 L 475.9828956228955 646.8472793500908 L 481.78074074074067 646.7937275155582 L 487.57858585858577 646.7730315497989 L 493.3764309764309 646.7947568307443 L 499.17427609427597 646.8465565857183 L 504.9721212121211 646.8993522773666 L 510.7699663299662 646.9241386142407 L 516.5678114478114 646.9118760576105 L 522.3656565656565 646.8814929518983 L 528.1635016835016 646.866151647225 L 533.9613468013467 646.88438205632 L 539.7591919191918 646.9249585756932 L 545.5570370370369 646.9632829735199 L 551.354882154882 646.9851102786164 L 557.1527272727272 646.9893512871286 L 562.9505723905722 646.9767640720445 L 568.7484175084174 646.946145946117 L 574.5462626262625 646.9039677068535 L 580.3441077441078 646.8716535141464 L 586.1419528619529 646.8716545253733 L 591.939797979798 646.9039803846197 L 597.7376430976431 646.946257336361 L 603.535488215488 646.9774960867148 L 609.3333333333333 646.9929502044156" fill="" fill-opacity="0.0" stroke="#1f77b4" stroke-width="1.8897637795275593"/></svg>