<svg xmlns="http://www.w3.org/2000/svg" width="624" height="384" viewBox="0 0 624 384"><rect x="0.0" y="0.0" width="624.0" height="384.0" fill="#ffffff" fill-opacity="1.0" stroke="none"/><line x1="78.07799377593814" y1="32.266666666666666" x2="78.07799377593814" y2="358.3333333333333" stroke="#dddddd" stroke-width="0.6666666666666666"/><line x1="162.58155180135947" y1="32.266666666666666" x2="162.58155180135947" y2="358.3333333333333" stroke="#dddddd" stroke-width="0.6666666666666666"/><line x1="247.0851098267808" y1="32.266666666666666" x2="247.0851098267808" y2="358.3333333333333" stroke="#dddddd" stroke-width="0.6666666666666666"/><line x1="331.58866785220215" y1="32.266666666666666" x2="331.58866785220215" y2="358.3333333333333" stroke="#dddddd" stroke-width="0.6666666666666666"/><line x1="416.0922258776236" y1="32.266666666666666" x2="416.0922258776236" y2="358.3333333333333" stroke="#dddddd" stroke-width="0.6666666666666666"/><line x1="500.5957839030449" y1="32.266666666666666" x2="500.5957839030449" y2="358.3333333333333" stroke="#dddddd" stroke-width="0.6666666666666666"/><line x1="35.82621476322746" y1="32.266666666666666" x2="35.82621476322746" y2="358.3333333333333" stroke="#dddddd" stroke-width="1.3333333333333333"/><line x1="120.32977278864882" y1="32.266666666666666" x2="120.32977278864882" y2="358.3333333333333" stroke="#dddddd" stroke-width="1.3333333333333333"/><line x1="204.83333081407014" y1="32.266666666666666" x2="204.83333081407014" y2="358.3333333333333" stroke="#dddddd" stroke-width="1.3333333333333333"/><line x1="289.3368888394915" y1="32.266666666666666" x2="289.3368888394915" y2="358.3333333333333" stroke="#dddddd" stroke-width="1.3333333333333333"/><line x1="373.8404468649129" y1="32.266666666666666" x2="373.8404468649129" y2="358.3333333333333" stroke="#dddddd" stroke-width="1.3333333333333333"/><line x1="458.34400489033425" y1="32.266666666666666" x2="458.34400489033425" y2="358.3333333333333" stroke="#dddddd" stroke-width="1.3333333333333333"/><line x1="542.8475629157556" y1="32.266666666666666" x2="542.8475629157556" y2="358.3333333333333" stroke="#dddddd" stroke-width="1.3333333333333333"/><line x1="20.973333333333333" y1="296.2264832833232" x2="561.0805866666667" y2="296.2264832833232" stroke="#dddddd" stroke-width="0.6666666666666666"/><line x1="20.973333333333333" y1="201.01281980848995" x2="561.0805866666667" y2="201.01281980848995" stroke="#dddddd" stroke-width="0.6666666666666666"/><line x1="20.973333333333333" y1="105.79915633365673" x2="561.0805866666667" y2="105.79915633365673" stroke="#dddddd" stroke-width="0.6666666666666666"/><line x1="20.973333333333333" y1="343.83331502073986" x2="561.0805866666667" y2="343.83331502073986" stroke="#dddddd" stroke-width="1.3333333333333333"/><line x1="20.973333333333333" y1="248.6196515459066" x2="561.0805866666667" y2="248.6196515459066" stroke="#dddddd" stroke-width="1.3333333333333333"/><line x1="20.973333333333333" y1="153.40598807107335" x2="561.0805866666667" y2="153.40598807107335" stroke="#dddddd" stroke-width="1.3333333333333333"/><line x1="20.973333333333333" y1="58.192324596240155" x2="561.0805866666667" y2="58.192324596240155" stroke="#dddddd" stroke-width="1.3333333333333333"/><rect x="20.973333333333333" y="32.266666666666666" width="540.1072533333333" height="326.06666666666666" fill="#ffffff" fill-opacity="0.0" stroke="#444444" stroke-width="1.3333333333333333"/><line x1="35.82621476322746" y1="358.3333333333333" x2="35.82621476322746" y2="362.0" stroke="#444444" stroke-width="1.3333333333333333"/><text x="35.82621476322746" y="374.32" fill="#333333" font-size="11.733333333333334" font-family="sans-serif" text-anchor="middle">0</text><line x1="120.32977278864882" y1="358.3333333333333" x2="120.32977278864882" y2="362.0" stroke="#444444" stroke-width="1.3333333333333333"/><text x="120.32977278864882" y="374.32" fill="#333333" font-size="11.733333333333334" font-family="sans-serif" text-anchor="middle">1</text><line x1="204.83333081407014" y1="358.3333333333333" x2="204.83333081407014" y2="362.0" stroke="#444444" stroke-width="1.3333333333333333"/><text x="204.83333081407014" y="374.32" fill="#333333" font-size="11.733333333333334" font-family="sans-serif" text-anchor="middle">2</text><line x1="289.3368888394915" y1="358.3333333333333" x2="289.3368888394915" y2="362.0" stroke="#444444" stroke-width="1.3333333333333333"/><text x="289.3368888394915" y="374.32" fill="#333333" font-size="11.733333333333334" font-family="sans-serif" text-anchor="middle">3</text><line x1="373.8404468649129" y1="358.3333333333333" x2="373.8404468649129" y2="362.0" stroke="#444444" stroke-width="1.3333333333333333"/><text x="373.8404468649129" y="374.32" fill="#333333" font-size="11.733333333333334" font-family="sans-serif" text-anchor="middle">4</text><line x1="458.34400489033425" y1="358.3333333333333" x2="458.34400489033425" y2="362.0" stroke="#444444" stroke-width="1.3333333333333333"/><text x="458.34400489033425" y="374.32" fill="#333333" font-size="11.733333333333334" font-family="sans-serif" text-anchor="middle">5</text><line x1="542.8475629157556" y1="358.3333333333333" x2="542.8475629157556" y2="362.0" stroke="#444444" stroke-width="1.3333333333333333"/><text x="542.8475629157556" y="374.32" fill="#333333" font-size="11.733333333333334" font-family="sans-serif" text-anchor="middle">6</text><line x1="20.973333333333333" y1="343.83331502073986" x2="17.306666666666665" y2="343.83331502073986" stroke="#444444" stroke-width="1.3333333333333333"/><text x="14.373333333333335" y="347.93998168740654" fill="#333333" font-size="11.733333333333334" font-family="sans-serif" text-anchor="end">0</text><line x1="20.973333333333333" y1="248.6196515459066" x2="17.306666666666665" y2="248.6196515459066" stroke="#444444" stroke-width="1.3333333333333333"/><text x="14.373333333333335" y="252.7263182125733" fill="#333333" font-size="11.733333333333334" font-family="sans-serif" text-anchor="end">2</text><line x1="20.973333333333333" y1="153.40598807107335" x2="17.306666666666665" y2="153.40598807107335" stroke="#444444" stroke-width="1.3333333333333333"/><text x="14.373333333333335" y="157.51265473774" fill="#333333" font-size="11.733333333333334" font-family="sans-serif" text-anchor="end">4</text><line x1="20.973333333333333" y1="58.192324596240155" x2="17.306666666666665" y2="58.192324596240155" stroke="#444444" stroke-width="1.3333333333333333"/><text x="14.373333333333335" y="62.29899126290682" fill="#333333" font-size="11.733333333333334" font-family="sans-serif" text-anchor="end">6</text><text x="20.973333333333333" y="21.413333333333334" fill="#333333" font-size="17.599999999999998" font-family="sans-serif" text-anchor="start">KMeans clusters + 95% ellipse</text><circle cx="86.52834957848026" cy="281.94443376209824" r="3.1181102362204727" fill="#F8766D" fill-opacity="0.85" stroke="none"><title>(0.6, 1.3)</title></circle><circle cx="137.2304843937331" cy="320.02989915203153" r="3.1181102362204727" fill="#F8766D" fill-opacity="0.85" stroke="none"><title>(1.2, 0.5)</title></circle><circle cx="162.58155180135947" cy="277.1837505883566" r="3.1181102362204727" fill="#F8766D" fill-opacity="0.85" stroke="none"><title>(1.5, 1.4)</title></circle><circle cx="94.97870538102241" cy="305.74784963080657" r="3.1181102362204727" fill="#F8766D" fill-opacity="0.85" stroke="none"><title>(0.7, 0.8)</title></circle><circle cx="128.78012859119096" cy="267.6623842408733" r="3.1181102362204727" fill="#F8766D" fill-opacity="0.85" stroke="none"><title>(1.1, 1.6)</title></circle><circle cx="424.54258168016565" cy="91.51710681243176" r="3.1181102362204727" fill="#00BA38" fill-opacity="0.85" stroke="none"><title>(4.6, 5.3)</title></circle><circle cx="475.2447164954186" cy="129.60257220236502" r="3.1181102362204727" fill="#00BA38" fill-opacity="0.85" stroke="none"><title>(5.2, 4.5)</title></circle><circle cx="500.5957839030449" cy="86.75642363869008" r="3.1181102362204727" fill="#00BA38" fill-opacity="0.85" stroke="none"><title>(5.5, 5.4)</title></circle><circle cx="432.9929374827078" cy="115.32052268114008" r="3.1181102362204727" fill="#00BA38" fill-opacity="0.85" stroke="none"><title>(4.7, 4.8)</title></circle><circle cx="466.7943606928764" cy="77.23505729120677" r="3.1181102362204727" fill="#00BA38" fill-opacity="0.85" stroke="none"><title>(5.1, 5.6)</title></circle><circle cx="86.52834957848026" cy="91.51710681243176" r="3.1181102362204727" fill="#619CFF" fill-opacity="0.85" stroke="none"><title>(0.6, 5.3)</title></circle><circle cx="137.2304843937331" cy="129.60257220236502" r="3.1181102362204727" fill="#619CFF" fill-opacity="0.85" stroke="none"><title>(1.2, 4.5)</title></circle><circle cx="162.58155180135947" cy="86.75642363869008" r="3.1181102362204727" fill="#619CFF" fill-opacity="0.85" stroke="none"><title>(1.5, 5.4)</title></circle><circle cx="94.97870538102241" cy="115.32052268114008" r="3.1181102362204727" fill="#619CFF" fill-opacity="0.85" stroke="none"><title>(0.7, 4.8)</title></circle><circle cx="128.78012859119096" cy="77.23505729120677" r="3.1181102362204727" fill="#619CFF" fill-opacity="0.85" stroke="none"><title>(1.1, 5.6)</title></circle><circle cx="148.4747846741484" cy="238.79695754777958" r="3.1181102362204727" fill="#1f77b4" fill-opacity="0.0" stroke="none"><title>(1.333063039512, 2.206329504394)</title></circle><circle cx="141.30575984223634" cy="237.90274569351882" r="3.1181102362204727" fill="#1f77b4" fill-opacity="0.0" stroke="none"><title>(1.24822608117, 2.225112771871)</title></circle><circle cx="133.9510010975199" cy="237.51520573754527" r="3.1181102362204727" fill="#1f77b4" fill-opacity="0.0" stroke="none"><title>(1.161191180906, 2.233253199238)</title></circle><circle cx="126.48133878723078" cy="237.63806990148584" r="3.1181102362204727" fill="#1f77b4" fill-opacity="0.0" stroke="none"><title>(1.072796532387, 2.230672389732)</title></circle><circle cx="118.96870984274989" cy="238.27015493627746" r="3.1181102362204727" fill="#1f77b4" fill-opacity="0.0" stroke="none"><title>(0.983893424399, 2.217395197956)</title></circle><circle cx="111.48546498763324" cy="239.40537351750214" r="3.1181102362204727" fill="#1f77b4" fill-opacity="0.0" stroke="none"><title>(0.895338042472, 2.193549490527)</title></circle><circle cx="104.10367196059335" cy="241.03279286964917" r="3.1181102362204727" fill="#1f77b4" fill-opacity="0.0" stroke="none"><title>(0.807983223343, 2.159364914643)</title></circle><circle cx="96.89442146377924" cy="243.13674005471944" r="3.1181102362204727" fill="#1f77b4" fill-opacity="0.0" stroke="none"><title>(0.722670241674, 2.115170686456)</title></circle><circle cx="89.92714252045235" cy="245.6969529111862" r="3.1181102362204727" fill="#1f77b4" fill-opacity="0.0" stroke="none"><title>(0.640220708114, 2.061392420543)</title></circle><circle cx="83.26893383553904" cy="248.68877518968694" r="3.1181102362204727" fill="#1f77b4" fill-opacity="0.0" stroke="none"><title>(0.561428656744, 1.998548031002)</title></circle><circle cx="76.98391759842214" cy="252.08339400618337" r="3.1181102362204727" fill="#1f77b4" fill-opacity="0.0" stroke="none"><title>(0.48705289809, 1.92724274366)</title></circle><circle cx="71.13262195120447" cy="255.8481173257851" r="3.1181102362204727" fill="#1f77b4" fill-opacity="0.0" stroke="none"><title>(0.417809711366, 1.848163267412)</title></circle><circle cx="65.77139806961225" cy="259.9466888049173" r="3.1181102362204727" fill="#1f77b4" fill-opacity="0.0" stroke="none"><title>(0.354365946312, 1.762071180845)</title></circle><circle cx="60.95187747036832" cy="264.33963695972886" r="3.1181102362204727" fill="#1f77b4" fill-opacity="0.0" stroke="none"><title>(0.297332601067, 1.669795597814)</title></circle><circle cx="56.720474771461376" cy="268.98465529805924" r="3.1181102362204727" fill="#1f77b4" fill-opacity="0.0" stroke="none"><title>(0.247258937925, 1.572225182628)</title></circle><circle cx="53.1179406940019" cy="273.83700975408493" r="3.1181102362204727" fill="#1f77b4" fill-opacity="0.0" stroke="none"><title>(0.204627193633, 1.470299591721)</title></circle><circle cx="50.17896961050125" cy="278.8499695018277" r="3.1181102362204727" fill="#1f77b4" fill-opacity="0.0" stroke="none"><title>(0.169847935195, 1.365000424253)</title></circle><circle cx="47.93186541909856" cy="283.9752569985542" r="3.1181102362204727" fill="#1f77b4" fill-opacity="0.0" stroke="none"><title>(0.143256105882, 1.257341768768)</title></circle><circle cx="46.39826896154918" cy="289.16351292390385" r="3.1181102362204727" fill="#1f77b4" fill-opacity="0.0" stroke="none"><title>(0.125107799545, 1.148360436972)</title></circle><circle cx="45.592949610088354" cy="294.3647715371263" r="3.1181102362204727" fill="#1f77b4" fill-opacity="0.0" stroke="none"><title>(0.115577794297, 1.039105978664)</title></circle><circle cx="45.523663030303034" cy="299.5289418744791" r="3.1181102362204727" fill="#1f77b4" fill-opacity="0.0" stroke="none"><title>(0.114757869298, 0.930630574003)</title></circle><circle cx="46.19107648983243" cy="304.60629015259076" r="3.1181102362204727" fill="#1f77b4" fill-opacity="0.0" stroke="none"><title>(0.122655920872, 0.823978900434)</title></circle><circle cx="47.58876243221596" cy="309.54791873198224" r="3.1181102362204727" fill="#1f77b4" fill-opacity="0.0" stroke="none"><title>(0.139195886467, 0.720178071876)</title></circle><circle cx="49.70326037777565" cy="314.306237028065" r="3.1181102362204727" fill="#1f77b4" fill-opacity="0.0" stroke="none"><title>(0.164218477172, 0.62022774705)</title></circle><circle cx="52.51420655539356" cy="318.8354198344865" r="3.1181102362204727" fill="#1f77b4" fill-opacity="0.0" stroke="none"><title>(0.197482711759, 0.525090502223)</title></circle><circle cx="55.99453001675977" cy="323.0918486449176" r="3.1181102362204727" fill="#1f77b4" fill-opacity="0.0" stroke="none"><title>(0.238668237466, 0.435682561071)</title></circle><circle cx="60.110713344402974" cy="327.0345317231133" r="3.1181102362204727" fill="#1f77b4" fill-opacity="0.0" stroke="none"><title>(0.287378415165, 0.352864970941)</title></circle><circle cx="64.82311544274326" cy="330.6254988757406" r="3.1181102362204727" fill="#1f77b4" fill-opacity="0.0" stroke="none"><title>(0.343144139218, 0.2774353105)</title></circle><circle cx="70.08635330351264" cy="333.8301671260975" r="3.1181102362204727" fill="#1f77b4" fill-opacity="0.0" stroke="none"><title>(0.405428355218, 0.210120008612)</title></circle><circle cx="75.8497390689334" cy="336.61767376708315" r="3.1181102362204727" fill="#1f77b4" fill-opacity="0.0" stroke="none"><title>(0.473631232115, 0.151567348431)</title></circle><circle cx="82.05776818349734" cy="338.96117358593875" r="3.1181102362204727" fill="#1f77b4" fill-opacity="0.0" stroke="none"><title>(0.547095938923, 0.102341224085)</title></circle><circle cx="88.65065393317738" cy="340.8380973983214" r="3.1181102362204727" fill="#1f77b4" fill-opacity="0.0" stroke="none"><title>(0.625114970355, 0.062915710059)</title></circle><circle cx="95.56490322416609" cy="342.23036940188695" r="3.1181102362204727" fill="#1f77b4" fill-opacity="0.0" stroke="none"><title>(0.706936960488, 0.033670495606)</title></circle><circle cx="102.73392805607814" cy="343.1245812561477" r="3.1181102362204727" fill="#1f77b4" fill-opacity="0.0" stroke="none"><title>(0.79177391883, 0.014887228129)</title></circle><circle cx="110.08868680079458" cy="343.5121212121212" r="3.1181102362204727" fill="#1f77b4" fill-opacity="0.0" stroke="none"><title>(0.878808819094, 0.006746800762)</title></circle><circle cx="117.55834911108366" cy="343.3892570481806" r="3.1181102362204727" fill="#1f77b4" fill-opacity="0.0" stroke="none"><title>(0.967203467613, 0.009327610268)</title></circle><circle cx="125.0709780555646" cy="342.75717201338904" r="3.1181102362204727" fill="#1f77b4" fill-opacity="0.0" stroke="none"><title>(1.056106575601, 0.022604802044)</title></circle><circle cx="132.5542229106813" cy="341.62195343216433" r="3.1181102362204727" fill="#1f77b4" fill-opacity="0.0" stroke="none"><title>(1.144661957528, 0.046450509473)</title></circle><circle cx="139.9360159377211" cy="339.9945340800173" r="3.1181102362204727" fill="#1f77b4" fill-opacity="0.0" stroke="none"><title>(1.232016776657, 0.080635085357)</title></circle><circle cx="147.14526643453524" cy="337.89058689494703" r="3.1181102362204727" fill="#1f77b4" fill-opacity="0.0" stroke="none"><title>(1.317329758326, 0.124829313544)</title></circle><circle cx="154.11254537786212" cy="335.3303740384803" r="3.1181102362204727" fill="#1f77b4" fill-opacity="0.0" stroke="none"><title>(1.399779291886, 0.178607579457)</title></circle><circle cx="160.77075406277538" cy="332.3385517599795" r="3.1181102362204727" fill="#1f77b4" fill-opacity="0.0" stroke="none"><title>(1.478571343256, 0.241451968998)</title></circle><circle cx="167.05577029989234" cy="328.9439329434831" r="3.1181102362204727" fill="#1f77b4" fill-opacity="0.0" stroke="none"><title>(1.55294710191, 0.31275725634)</title></circle><circle cx="172.90706594711003" cy="325.17920962388143" r="3.1181102362204727" fill="#1f77b4" fill-opacity="0.0" stroke="none"><title>(1.622190288634, 0.391836732588)</title></circle><circle cx="178.26828982870222" cy="321.0806381447492" r="3.1181102362204727" fill="#1f77b4" fill-opacity="0.0" stroke="none"><title>(1.685634053688, 0.477928819155)</title></circle><circle cx="183.08781042794615" cy="316.6876899899376" r="3.1181102362204727" fill="#1f77b4" fill-opacity="0.0" stroke="none"><title>(1.742667398933, 0.570204402186)</title></circle><circle cx="187.31921312685307" cy="312.0426716516073" r="3.1181102362204727" fill="#1f77b4" fill-opacity="0.0" stroke="none"><title>(1.792741062075, 0.667774817372)</title></circle><circle cx="190.92174720431257" cy="307.19031719558154" r="3.1181102362204727" fill="#1f77b4" fill-opacity="0.0" stroke="none"><title>(1.835372806367, 0.769700408279)</title></circle><circle cx="193.8607182878132" cy="302.17735744783874" r="3.1181102362204727" fill="#1f77b4" fill-opacity="0.0" stroke="none"><title>(1.870152064805, 0.874999575747)</title></circle><circle cx="196.10782247921588" cy="297.0520699511123" r="3.1181102362204727" fill="#1f77b4" fill-opacity="0.0" stroke="none"><title>(1.896743894118, 0.982658231232)</title></circle><circle cx="197.6414189367653" cy="291.8638140257626" r="3.1181102362204727" fill="#1f77b4" fill-opacity="0.0" stroke="none"><title>(1.914892200455, 1.091639563028)</title></circle><circle cx="198.44673828822607" cy="286.6625554125402" r="3.1181102362204727" fill="#1f77b4" fill-opacity="0.0" stroke="none"><title>(1.924422205703, 1.200894021336)</title></circle><circle cx="198.51602486801144" cy="281.4983850751874" r="3.1181102362204727" fill="#1f77b4" fill-opacity="0.0" stroke="none"><title>(1.925242130702, 1.309369425997)</title></circle><circle cx="197.84861140848204" cy="276.42103679707577" r="3.1181102362204727" fill="#1f77b4" fill-opacity="0.0" stroke="none"><title>(1.917344079128, 1.416021099566)</title></circle><circle cx="196.45092546609845" cy="271.4794082176843" r="3.1181102362204727" fill="#1f77b4" fill-opacity="0.0" stroke="none"><title>(1.900804113533, 1.519821928124)</title></circle><circle cx="194.3364275205388" cy="266.72108992160145" r="3.1181102362204727" fill="#1f77b4" fill-opacity="0.0" stroke="none"><title>(1.875781522828, 1.61977225295)</title></circle><circle cx="191.5254813429209" cy="262.19190711517996" r="3.1181102362204727" fill="#1f77b4" fill-opacity="0.0" stroke="none"><title>(1.842517288241, 1.714909497777)</title></circle><circle cx="188.04515788155473" cy="257.93547830474887" r="3.1181102362204727" fill="#1f77b4" fill-opacity="0.0" stroke="none"><title>(1.801331762534, 1.804317438929)</title></circle><circle cx="183.92897455391147" cy="253.9927952265532" r="3.1181102362204727" fill="#1f77b4" fill-opacity="0.0" stroke="none"><title>(1.752621584835, 1.887135029059)</title></circle><circle cx="179.2165724555712" cy="250.40182807392586" r="3.1181102362204727" fill="#1f77b4" fill-opacity="0.0" stroke="none"><title>(1.696855860782, 1.9625646895)</title></circle><circle cx="173.95333459480185" cy="247.19715982356902" r="3.1181102362204727" fill="#1f77b4" fill-opacity="0.0" stroke="none"><title>(1.634571644782, 2.029879991388)</title></circle><circle cx="168.18994882938108" cy="244.40965318258333" r="3.1181102362204727" fill="#1f77b4" fill-opacity="0.0" stroke="none"><title>(1.566368767885, 2.088432651569)</title></circle><circle cx="161.98191971481714" cy="242.06615336372775" r="3.1181102362204727" fill="#1f77b4" fill-opacity="0.0" stroke="none"><title>(1.492904061077, 2.137658775915)</title></circle><circle cx="155.3890339651371" cy="240.18922955134508" r="3.1181102362204727" fill="#1f77b4" fill-opacity="0.0" stroke="none"><title>(1.414885029645, 2.177084289941)</title></circle><circle cx="486.4890167758339" cy="48.369630598113076" r="3.1181102362204727" fill="#1f77b4" fill-opacity="0.0" stroke="none"><title>(5.333063039512, 6.206329504394)</title></circle><circle cx="479.3199919439219" cy="47.47541874385232" r="3.1181102362204727" fill="#1f77b4" fill-opacity="0.0" stroke="none"><title>(5.24822608117, 6.225112771871)</title></circle><circle cx="471.9652331992054" cy="47.08787878787878" r="3.1181102362204727" fill="#1f77b4" fill-opacity="0.0" stroke="none"><title>(5.161191180906, 6.233253199238)</title></circle><circle cx="464.4955708889163" cy="47.21074295181934" r="3.1181102362204727" fill="#1f77b4" fill-opacity="0.0" stroke="none"><title>(5.072796532387, 6.230672389732)</title></circle><circle cx="456.9829419444353" cy="47.84282798661093" r="3.1181102362204727" fill="#1f77b4" fill-opacity="0.0" stroke="none"><title>(4.983893424399, 6.217395197956)</title></circle><circle cx="449.4996970893186" cy="48.97804656783569" r="3.1181102362204727" fill="#1f77b4" fill-opacity="0.0" stroke="none"><title>(4.895338042472, 6.193549490527)</title></circle><circle cx="442.1179040622788" cy="50.60546591998267" r="3.1181102362204727" fill="#1f77b4" fill-opacity="0.0" stroke="none"><title>(4.807983223343, 6.159364914643)</title></circle><circle cx="434.90865356546465" cy="52.70941310505297" r="3.1181102362204727" fill="#1f77b4" fill-opacity="0.0" stroke="none"><title>(4.722670241674, 6.115170686456)</title></circle><circle cx="427.94137462213786" cy="55.26962596151971" r="3.1181102362204727" fill="#1f77b4" fill-opacity="0.0" stroke="none"><title>(4.640220708114, 6.061392420543)</title></circle><circle cx="421.28316593722457" cy="58.26144824002047" r="3.1181102362204727" fill="#1f77b4" fill-opacity="0.0" stroke="none"><title>(4.561428656744, 5.998548031002)</title></circle><circle cx="414.99814970010766" cy="61.656067056516875" r="3.1181102362204727" fill="#1f77b4" fill-opacity="0.0" stroke="none"><title>(4.48705289809, 5.92724274366)</title></circle><circle cx="409.1468540528899" cy="65.42079037611859" r="3.1181102362204727" fill="#1f77b4" fill-opacity="0.0" stroke="none"><title>(4.417809711366, 5.848163267412)</title></circle><circle cx="403.7856301712977" cy="69.51936185525076" r="3.1181102362204727" fill="#1f77b4" fill-opacity="0.0" stroke="none"><title>(4.354365946312, 5.762071180845)</title></circle><circle cx="398.96610957205377" cy="73.91231001006236" r="3.1181102362204727" fill="#1f77b4" fill-opacity="0.0" stroke="none"><title>(4.297332601067, 5.669795597814)</title></circle><circle cx="394.7347068731468" cy="78.55732834839273" r="3.1181102362204727" fill="#1f77b4" fill-opacity="0.0" stroke="none"><title>(4.247258937925, 5.572225182628)</title></circle><circle cx="391.1321727956873" cy="83.40968280441844" r="3.1181102362204727" fill="#1f77b4" fill-opacity="0.0" stroke="none"><title>(4.204627193633, 5.470299591721)</title></circle><circle cx="388.1932017121867" cy="88.4226425521612" r="3.1181102362204727" fill="#1f77b4" fill-opacity="0.0" stroke="none"><title>(4.169847935195, 5.365000424253)</title></circle><circle cx="385.946097520784" cy="93.54793004888771" r="3.1181102362204727" fill="#1f77b4" fill-opacity="0.0" stroke="none"><title>(4.143256105882, 5.257341768768)</title></circle><circle cx="384.4125010632347" cy="98.73618597423736" r="3.1181102362204727" fill="#1f77b4" fill-opacity="0.0" stroke="none"><title>(4.125107799545, 5.148360436972)</title></circle><circle cx="383.6071817117737" cy="103.93744458745974" r="3.1181102362204727" fill="#1f77b4" fill-opacity="0.0" stroke="none"><title>(4.115577794297, 5.039105978664)</title></circle><circle cx="383.5378951319884" cy="109.10161492481252" r="3.1181102362204727" fill="#1f77b4" fill-opacity="0.0" stroke="none"><title>(4.114757869298, 4.930630574003)</title></circle><circle cx="384.2053085915179" cy="114.17896320292425" r="3.1181102362204727" fill="#1f77b4" fill-opacity="0.0" stroke="none"><title>(4.122655920872, 4.823978900434)</title></circle><circle cx="385.60299453390144" cy="119.12059178231576" r="3.1181102362204727" fill="#1f77b4" fill-opacity="0.0" stroke="none"><title>(4.139195886467, 4.720178071876)</title></circle><circle cx="387.7174924794611" cy="123.87891007839853" r="3.1181102362204727" fill="#1f77b4" fill-opacity="0.0" stroke="none"><title>(4.164218477172, 4.62022774705)</title></circle><circle cx="390.52843865707905" cy="128.40809288482004" r="3.1181102362204727" fill="#1f77b4" fill-opacity="0.0" stroke="none"><title>(4.197482711759, 4.525090502223)</title></circle><circle cx="394.00876211844525" cy="132.66452169525115" r="3.1181102362204727" fill="#1f77b4" fill-opacity="0.0" stroke="none"><title>(4.238668237466, 4.435682561071)</title></circle><circle cx="398.1249454460884" cy="136.60720477344677" r="3.1181102362204727" fill="#1f77b4" fill-opacity="0.0" stroke="none"><title>(4.287378415165, 4.352864970941)</title></circle><circle cx="402.8373475444287" cy="140.19817192607414" r="3.1181102362204727" fill="#1f77b4" fill-opacity="0.0" stroke="none"><title>(4.343144139218, 4.2774353105)</title></circle><circle cx="408.10058540519805" cy="143.40284017643103" r="3.1181102362204727" fill="#1f77b4" fill-opacity="0.0" stroke="none"><title>(4.405428355218, 4.210120008612)</title></circle><circle cx="413.8639711706188" cy="146.19034681741664" r="3.1181102362204727" fill="#1f77b4" fill-opacity="0.0" stroke="none"><title>(4.473631232115, 4.151567348431)</title></circle><circle cx="420.07200028518275" cy="148.53384663627222" r="3.1181102362204727" fill="#1f77b4" fill-opacity="0.0" stroke="none"><title>(4.547095938923, 4.102341224085)</title></circle><circle cx="426.66488603486283" cy="150.41077044865486" r="3.1181102362204727" fill="#1f77b4" fill-opacity="0.0" stroke="none"><title>(4.625114970355, 4.062915710059)</title></circle><circle cx="433.57913532585155" cy="151.80304245222038" r="3.1181102362204727" fill="#1f77b4" fill-opacity="0.0" stroke="none"><title>(4.706936960488, 4.033670495606)</title></circle><circle cx="440.7481601577636" cy="152.69725430648114" r="3.1181102362204727" fill="#1f77b4" fill-opacity="0.0" stroke="none"><title>(4.79177391883, 4.014887228129)</title></circle><circle cx="448.10291890248004" cy="153.0847942624547" r="3.1181102362204727" fill="#1f77b4" fill-opacity="0.0" stroke="none"><title>(4.878808819094, 4.006746800762)</title></circle><circle cx="455.57258121276914" cy="152.96193009851413" r="3.1181102362204727" fill="#1f77b4" fill-opacity="0.0" stroke="none"><title>(4.967203467613, 4.009327610268)</title></circle><circle cx="463.0852101572501" cy="152.32984506372253" r="3.1181102362204727" fill="#1f77b4" fill-opacity="0.0" stroke="none"><title>(5.056106575601, 4.022604802044)</title></circle><circle cx="470.56845501236677" cy="151.19462648249782" r="3.1181102362204727" fill="#1f77b4" fill-opacity="0.0" stroke="none"><title>(5.144661957528, 4.046450509473)</title></circle><circle cx="477.9502480394066" cy="149.5672071303508" r="3.1181102362204727" fill="#1f77b4" fill-opacity="0.0" stroke="none"><title>(5.232016776657, 4.080635085357)</title></circle><circle cx="485.15949853622067" cy="147.4632599452805" r="3.1181102362204727" fill="#1f77b4" fill-opacity="0.0" stroke="none"><title>(5.317329758326, 4.124829313544)</title></circle><circle cx="492.1267774795476" cy="144.90304708881376" r="3.1181102362204727" fill="#1f77b4" fill-opacity="0.0" stroke="none"><title>(5.399779291886, 4.178607579457)</title></circle><circle cx="498.7849861644609" cy="141.911224810313" r="3.1181102362204727" fill="#1f77b4" fill-opacity="0.0" stroke="none"><title>(5.478571343256, 4.241451968998)</title></circle><circle cx="505.0700024015778" cy="138.51660599381663" r="3.1181102362204727" fill="#1f77b4" fill-opacity="0.0" stroke="none"><title>(5.55294710191, 4.31275725634)</title></circle><circle cx="510.9212980487955" cy="134.75188267421493" r="3.1181102362204727" fill="#1f77b4" fill-opacity="0.0" stroke="none"><title>(5.622190288634, 4.391836732588)</title></circle><circle cx="516.2825219303877" cy="130.65331119508272" r="3.1181102362204727" fill="#1f77b4" fill-opacity="0.0" stroke="none"><title>(5.685634053688, 4.477928819155)</title></circle><circle cx="521.1020425296316" cy="126.26036304027116" r="3.1181102362204727" fill="#1f77b4" fill-opacity="0.0" stroke="none"><title>(5.742667398933, 4.570204402186)</title></circle><circle cx="525.3334452285385" cy="121.61534470194074" r="3.1181102362204727" fill="#1f77b4" fill-opacity="0.0" stroke="none"><title>(5.792741062075, 4.667774817372)</title></circle><circle cx="528.9359793059981" cy="116.76299024591503" r="3.1181102362204727" fill="#1f77b4" fill-opacity="0.0" stroke="none"><title>(5.835372806367, 4.769700408279)</title></circle><circle cx="531.8749503894987" cy="111.75003049817231" r="3.1181102362204727" fill="#1f77b4" fill-opacity="0.0" stroke="none"><title>(5.870152064805, 4.874999575747)</title></circle><circle cx="534.1220545809015" cy="106.6247430014458" r="3.1181102362204727" fill="#1f77b4" fill-opacity="0.0" stroke="none"><title>(5.896743894118, 4.982658231232)</title></circle><circle cx="535.6556510384509" cy="101.43648707609611" r="3.1181102362204727" fill="#1f77b4" fill-opacity="0.0" stroke="none"><title>(5.914892200455, 5.091639563028)</title></circle><circle cx="536.4609703899116" cy="96.23522846287372" r="3.1181102362204727" fill="#1f77b4" fill-opacity="0.0" stroke="none"><title>(5.924422205703, 5.200894021336)</title></circle><circle cx="536.5302569696969" cy="91.07105812552095" r="3.1181102362204727" fill="#1f77b4" fill-opacity="0.0" stroke="none"><title>(5.925242130702, 5.309369425997)</title></circle><circle cx="535.8628435101675" cy="85.99370984740922" r="3.1181102362204727" fill="#1f77b4" fill-opacity="0.0" stroke="none"><title>(5.917344079128, 5.416021099566)</title></circle><circle cx="534.465157567784" cy="81.0520812680177" r="3.1181102362204727" fill="#1f77b4" fill-opacity="0.0" stroke="none"><title>(5.900804113533, 5.519821928124)</title></circle><circle cx="532.3506596222243" cy="76.2937629719349" r="3.1181102362204727" fill="#1f77b4" fill-opacity="0.0" stroke="none"><title>(5.875781522828, 5.61977225295)</title></circle><circle cx="529.5397134446064" cy="71.76458016551342" r="3.1181102362204727" fill="#1f77b4" fill-opacity="0.0" stroke="none"><title>(5.842517288241, 5.714909497777)</title></circle><circle cx="526.0593899832402" cy="67.50815135508233" r="3.1181102362204727" fill="#1f77b4" fill-opacity="0.0" stroke="none"><title>(5.801331762534, 5.804317438929)</title></circle><circle cx="521.9432066555969" cy="63.56546827688669" r="3.1181102362204727" fill="#1f77b4" fill-opacity="0.0" stroke="none"><title>(5.752621584835, 5.887135029059)</title></circle><circle cx="517.2308045572566" cy="59.974501124259405" r="3.1181102362204727" fill="#1f77b4" fill-opacity="0.0" stroke="none"><title>(5.696855860782, 5.9625646895)</title></circle><circle cx="511.9675666964873" cy="56.76983287390252" r="3.1181102362204727" fill="#1f77b4" fill-opacity="0.0" stroke="none"><title>(5.634571644782, 6.029879991388)</title></circle><circle cx="506.20418093106656" cy="53.98232623291683" r="3.1181102362204727" fill="#1f77b4" fill-opacity="0.0" stroke="none"><title>(5.566368767885, 6.088432651569)</title></circle><circle cx="499.9961518165026" cy="51.638826414061285" r="3.1181102362204727" fill="#1f77b4" fill-opacity="0.0" stroke="none"><title>(5.492904061077, 6.137658775915)</title></circle><circle cx="493.40326606682254" cy="49.76190260167861" r="3.1181102362204727" fill="#1f77b4" fill-opacity="0.0" stroke="none"><title>(5.414885029645, 6.177084289941)</title></circle><circle cx="148.47478467414845" cy="48.36963059811315" r="3.1181102362204727" fill="#1f77b4" fill-opacity="0.0" stroke="none"><title>(1.333063039512, 6.206329504394)</title></circle><circle cx="141.30575984223645" cy="47.47541874385232" r="3.1181102362204727" fill="#1f77b4" fill-opacity="0.0" stroke="none"><title>(1.24822608117, 6.225112771871)</title></circle><circle cx="133.95100109752" cy="47.08787878787878" r="3.1181102362204727" fill="#1f77b4" fill-opacity="0.0" stroke="none"><title>(1.161191180906, 6.233253199238)</title></circle><circle cx="126.4813387872309" cy="47.21074295181934" r="3.1181102362204727" fill="#1f77b4" fill-opacity="0.0" stroke="none"><title>(1.072796532387, 6.230672389732)</title></circle><circle cx="118.96870984274997" cy="47.84282798661096" r="3.1181102362204727" fill="#1f77b4" fill-opacity="0.0" stroke="none"><title>(0.983893424399, 6.217395197956)</title></circle><circle cx="111.4854649876333" cy="48.97804656783565" r="3.1181102362204727" fill="#1f77b4" fill-opacity="0.0" stroke="none"><title>(0.895338042472, 6.193549490527)</title></circle><circle cx="104.10367196059346" cy="50.60546591998267" r="3.1181102362204727" fill="#1f77b4" fill-opacity="0.0" stroke="none"><title>(0.807983223343, 6.159364914643)</title></circle><circle cx="96.89442146377931" cy="52.70941310505293" r="3.1181102362204727" fill="#1f77b4" fill-opacity="0.0" stroke="none"><title>(0.722670241674, 6.115170686456)</title></circle><circle cx="89.92714252045245" cy="55.26962596151967" r="3.1181102362204727" fill="#1f77b4" fill-opacity="0.0" stroke="none"><title>(0.640220708114, 6.061392420543)</title></circle><circle cx="83.26893383553912" cy="58.26144824002047" r="3.1181102362204727" fill="#1f77b4" fill-opacity="0.0" stroke="none"><title>(0.561428656744, 5.998548031002)</title></circle><circle cx="76.98391759842224" cy="61.65606705651684" r="3.1181102362204727" fill="#1f77b4" fill-opacity="0.0" stroke="none"><title>(0.48705289809, 5.92724274366)</title></circle><circle cx="71.13262195120453" cy="65.4207903761185" r="3.1181102362204727" fill="#1f77b4" fill-opacity="0.0" stroke="none"><title>(0.417809711366, 5.848163267412)</title></circle><circle cx="65.7713980696123" cy="69.51936185525074" r="3.1181102362204727" fill="#1f77b4" fill-opacity="0.0" stroke="none"><title>(0.354365946312, 5.762071180845)</title></circle><circle cx="60.95187747036838" cy="73.91231001006236" r="3.1181102362204727" fill="#1f77b4" fill-opacity="0.0" stroke="none"><title>(0.297332601067, 5.669795597814)</title></circle><circle cx="56.72047477146143" cy="78.55732834839269" r="3.1181102362204727" fill="#1f77b4" fill-opacity="0.0" stroke="none"><title>(0.247258937925, 5.572225182628)</title></circle><circle cx="53.11794069400194" cy="83.4096828044184" r="3.1181102362204727" fill="#1f77b4" fill-opacity="0.0" stroke="none"><title>(0.204627193633, 5.470299591721)</title></circle><circle cx="50.17896961050128" cy="88.4226425521612" r="3.1181102362204727" fill="#1f77b4" fill-opacity="0.0" stroke="none"><title>(0.169847935195, 5.365000424253)</title></circle><circle cx="47.931865419098585" cy="93.54793004888768" r="3.1181102362204727" fill="#1f77b4" fill-opacity="0.0" stroke="none"><title>(0.143256105882, 5.257341768768)</title></circle><circle cx="46.39826896154919" cy="98.73618597423732" r="3.1181102362204727" fill="#1f77b4" fill-opacity="0.0" stroke="none"><title>(0.125107799545, 5.148360436972)</title></circle><circle cx="45.59294961008837" cy="103.93744458745971" r="3.1181102362204727" fill="#1f77b4" fill-opacity="0.0" stroke="none"><title>(0.115577794297, 5.039105978664)</title></circle><circle cx="45.523663030303034" cy="109.10161492481248" r="3.1181102362204727" fill="#1f77b4" fill-opacity="0.0" stroke="none"><title>(0.114757869298, 4.930630574003)</title></circle><circle cx="46.19107648983243" cy="114.17896320292417" r="3.1181102362204727" fill="#1f77b4" fill-opacity="0.0" stroke="none"><title>(0.122655920872, 4.823978900434)</title></circle><circle cx="47.58876243221596" cy="119.12059178231573" r="3.1181102362204727" fill="#1f77b4" fill-opacity="0.0" stroke="none"><title>(0.139195886467, 4.720178071876)</title></circle><circle cx="49.70326037777562" cy="123.87891007839849" r="3.1181102362204727" fill="#1f77b4" fill-opacity="0.0" stroke="none"><title>(0.164218477172, 4.62022774705)</title></circle><circle cx="52.51420655539353" cy="128.40809288482" r="3.1181102362204727" fill="#1f77b4" fill-opacity="0.0" stroke="none"><title>(0.197482711759, 4.525090502223)</title></circle><circle cx="55.994530016759725" cy="132.66452169525112" r="3.1181102362204727" fill="#1f77b4" fill-opacity="0.0" stroke="none"><title>(0.238668237466, 4.435682561071)</title></circle><circle cx="60.110713344402924" cy="136.60720477344674" r="3.1181102362204727" fill="#1f77b4" fill-opacity="0.0" stroke="none"><title>(0.287378415165, 4.352864970941)</title></circle><circle cx="64.8231154427432" cy="140.1981719260741" r="3.1181102362204727" fill="#1f77b4" fill-opacity="0.0" stroke="none"><title>(0.343144139218, 4.2774353105)</title></circle><circle cx="70.08635330351258" cy="143.40284017643097" r="3.1181102362204727" fill="#1f77b4" fill-opacity="0.0" stroke="none"><title>(0.405428355218, 4.210120008612)</title></circle><circle cx="75.84973906893333" cy="146.19034681741664" r="3.1181102362204727" fill="#1f77b4" fill-opacity="0.0" stroke="none"><title>(0.473631232115, 4.151567348431)</title></circle><circle cx="82.05776818349725" cy="148.53384663627222" r="3.1181102362204727" fill="#1f77b4" fill-opacity="0.0" stroke="none"><title>(0.547095938923, 4.102341224085)</title></circle><circle cx="88.6506539331773" cy="150.41077044865486" r="3.1181102362204727" fill="#1f77b4" fill-opacity="0.0" stroke="none"><title>(0.625114970355, 4.062915710059)</title></circle><circle cx="95.56490322416602" cy="151.80304245222038" r="3.1181102362204727" fill="#1f77b4" fill-opacity="0.0" stroke="none"><title>(0.706936960488, 4.033670495606)</title></circle><circle cx="102.73392805607804" cy="152.69725430648114" r="3.1181102362204727" fill="#1f77b4" fill-opacity="0.0" stroke="none"><title>(0.79177391883, 4.014887228129)</title></circle><circle cx="110.0886868007945" cy="153.0847942624547" r="3.1181102362204727" fill="#1f77b4" fill-opacity="0.0" stroke="none"><title>(0.878808819094, 4.006746800762)</title></circle><circle cx="117.55834911108357" cy="152.96193009851413" r="3.1181102362204727" fill="#1f77b4" fill-opacity="0.0" stroke="none"><title>(0.967203467613, 4.009327610268)</title></circle><circle cx="125.0709780555645" cy="152.32984506372253" r="3.1181102362204727" fill="#1f77b4" fill-opacity="0.0" stroke="none"><title>(1.056106575601, 4.022604802044)</title></circle><circle cx="132.55422291068118" cy="151.19462648249785" r="3.1181102362204727" fill="#1f77b4" fill-opacity="0.0" stroke="none"><title>(1.144661957528, 4.046450509473)</title></circle><circle cx="139.936015937721" cy="149.56720713035082" r="3.1181102362204727" fill="#1f77b4" fill-opacity="0.0" stroke="none"><title>(1.232016776657, 4.080635085357)</title></circle><circle cx="147.14526643453513" cy="147.46325994528053" r="3.1181102362204727" fill="#1f77b4" fill-opacity="0.0" stroke="none"><title>(1.317329758326, 4.124829313544)</title></circle><circle cx="154.11254537786203" cy="144.9030470888138" r="3.1181102362204727" fill="#1f77b4" fill-opacity="0.0" stroke="none"><title>(1.399779291886, 4.178607579457)</title></circle><circle cx="160.77075406277532" cy="141.91122481031306" r="3.1181102362204727" fill="#1f77b4" fill-opacity="0.0" stroke="none"><title>(1.478571343256, 4.241451968998)</title></circle><circle cx="167.05577029989226" cy="138.51660599381665" r="3.1181102362204727" fill="#1f77b4" fill-opacity="0.0" stroke="none"><title>(1.55294710191, 4.31275725634)</title></circle><circle cx="172.90706594710994" cy="134.75188267421495" r="3.1181102362204727" fill="#1f77b4" fill-opacity="0.0" stroke="none"><title>(1.622190288634, 4.391836732588)</title></circle><circle cx="178.26828982870214" cy="130.65331119508278" r="3.1181102362204727" fill="#1f77b4" fill-opacity="0.0" stroke="none"><title>(1.685634053688, 4.477928819155)</title></circle><circle cx="183.08781042794607" cy="126.26036304027116" r="3.1181102362204727" fill="#1f77b4" fill-opacity="0.0" stroke="none"><title>(1.742667398933, 4.570204402186)</title></circle><circle cx="187.31921312685304" cy="121.61534470194078" r="3.1181102362204727" fill="#1f77b4" fill-opacity="0.0" stroke="none"><title>(1.792741062075, 4.667774817372)</title></circle><circle cx="190.92174720431257" cy="116.76299024591506" r="3.1181102362204727" fill="#1f77b4" fill-opacity="0.0" stroke="none"><title>(1.835372806367, 4.769700408279)</title></circle><circle cx="193.8607182878132" cy="111.75003049817231" r="3.1181102362204727" fill="#1f77b4" fill-opacity="0.0" stroke="none"><title>(1.870152064805, 4.874999575747)</title></circle><circle cx="196.10782247921583" cy="106.62474300144584" r="3.1181102362204727" fill="#1f77b4" fill-opacity="0.0" stroke="none"><title>(1.896743894118, 4.982658231232)</title></circle><circle cx="197.64141893676526" cy="101.43648707609614" r="3.1181102362204727" fill="#1f77b4" fill-opacity="0.0" stroke="none"><title>(1.914892200455, 5.091639563028)</title></circle><circle cx="198.44673828822607" cy="96.23522846287376" r="3.1181102362204727" fill="#1f77b4" fill-opacity="0.0" stroke="none"><title>(1.924422205703, 5.200894021336)</title></circle><circle cx="198.51602486801144" cy="91.07105812552098" r="3.1181102362204727" fill="#1f77b4" fill-opacity="0.0" stroke="none"><title>(1.925242130702, 5.309369425997)</title></circle><circle cx="197.84861140848204" cy="85.99370984740929" r="3.1181102362204727" fill="#1f77b4" fill-opacity="0.0" stroke="none"><title>(1.917344079128, 5.416021099566)</title></circle><circle cx="196.45092546609845" cy="81.05208126801782" r="3.1181102362204727" fill="#1f77b4" fill-opacity="0.0" stroke="none"><title>(1.900804113533, 5.519821928124)</title></circle><circle cx="194.33642752053882" cy="76.29376297193494" r="3.1181102362204727" fill="#1f77b4" fill-opacity="0.0" stroke="none"><title>(1.875781522828, 5.61977225295)</title></circle><circle cx="191.52548134292093" cy="71.76458016551354" r="3.1181102362204727" fill="#1f77b4" fill-opacity="0.0" stroke="none"><title>(1.842517288241, 5.714909497777)</title></circle><circle cx="188.04515788155476" cy="67.50815135508245" r="3.1181102362204727" fill="#1f77b4" fill-opacity="0.0" stroke="none"><title>(1.801331762534, 5.804317438929)</title></circle><circle cx="183.92897455391156" cy="63.56546827688676" r="3.1181102362204727" fill="#1f77b4" fill-opacity="0.0" stroke="none"><title>(1.752621584835, 5.887135029059)</title></circle><circle cx="179.21657245557128" cy="59.974501124259405" r="3.1181102362204727" fill="#1f77b4" fill-opacity="0.0" stroke="none"><title>(1.696855860782, 5.9625646895)</title></circle><circle cx="173.95333459480196" cy="56.76983287390256" r="3.1181102362204727" fill="#1f77b4" fill-opacity="0.0" stroke="none"><title>(1.634571644782, 6.029879991388)</title></circle><circle cx="168.18994882938114" cy="53.98232623291683" r="3.1181102362204727" fill="#1f77b4" fill-opacity="0.0" stroke="none"><title>(1.566368767885, 6.088432651569)</title></circle><circle cx="161.9819197148172" cy="51.638826414061285" r="3.1181102362204727" fill="#1f77b4" fill-opacity="0.0" stroke="none"><title>(1.492904061077, 6.137658775915)</title></circle><circle cx="155.38903396513717" cy="49.76190260167861" r="3.1181102362204727" fill="#1f77b4" fill-opacity="0.0" stroke="none"><title>(1.414885029645, 6.177084289941)</title></circle><path d="M 120.77259985466907 287.39555323861276 L 123.26708804364543 287.39555323861276 L 123.26708804364543 289.26641938034504 L 125.13795418537771 289.26641938034504 L 125.13795418537771 291.76090756932143 L 123.26708804364543 291.76090756932143 L 123.26708804364543 293.6317737110537 L 120.77259985466907 293.6317737110537 L 120.77259985466907 291.76090756932143 L 118.90173371293679 291.76090756932143 L 118.90173371293679 289.26641938034504 L 120.77259985466907 289.26641938034504 Z" fill="#F8766D" fill-opacity="0.85" stroke="none"/><path d="M 458.7868319563545 96.96822628894621 L 461.28132014533094 96.96822628894621 L 461.28132014533094 98.83909243067849 L 463.15218628706316 98.83909243067849 L 463.15218628706316 101.33358061965487 L 461.28132014533094 101.33358061965487 L 461.28132014533094 103.20444676138715 L 458.7868319563545 103.20444676138715 L 458.7868319563545 101.33358061965487 L 456.91596581462227 101.33358061965487 L 456.91596581462227 98.83909243067849 L 458.7868319563545 98.83909243067849 Z" fill="#00BA38" fill-opacity="0.85" stroke="none"/><path d="M 120.77259985466907 96.96822628894621 L 123.26708804364543 96.96822628894621 L 123.26708804364543 98.83909243067849 L 125.13795418537771 98.83909243067849 L 125.13795418537771 101.33358061965487 L 123.26708804364543 101.33358061965487 L 123.26708804364543 103.20444676138715 L 120.77259985466907 103.20444676138715 L 120.77259985466907 101.33358061965487 L 118.90173371293679 101.33358061965487 L 118.90173371293679 98.83909243067849 L 120.77259985466907 98.83909243067849 Z" fill="#619CFF" fill-opacity="0.85" stroke="none"/><line x1="148.4747846741484" y1="238.79695754777958" x2="141.30575984223634" y2="237.90274569351882" stroke="#F8766D" stroke-width="2.0"/><line x1="141.30575984223634" y1="237.90274569351882" x2="133.9510010975199" y2="237.51520573754527" stroke="#F8766D" stroke-width="2.0"/><line x1="133.9510010975199" y1="237.51520573754527" x2="126.48133878723078" y2="237.63806990148584" stroke="#F8766D" stroke-width="2.0"/><line x1="126.48133878723078" y1="237.63806990148584" x2="118.96870984274989" y2="238.27015493627746" stroke="#F8766D" stroke-width="2.0"/><line x1="118.96870984274989" y1="238.27015493627746" x2="111.48546498763324" y2="239.40537351750214" stroke="#F8766D" stroke-width="2.0"/><line x1="111.48546498763324" y1="239.40537351750214" x2="104.10367196059335" y2="241.03279286964917" stroke="#F8766D" stroke-width="2.0"/><line x1="104.10367196059335" y1="241.03279286964917" x2="96.89442146377924" y2="243.13674005471944" stroke="#F8766D" stroke-width="2.0"/><line x1="96.89442146377924" y1="243.13674005471944" x2="89.92714252045235" y2="245.6969529111862" stroke="#F8766D" stroke-width="2.0"/><line x1="89.92714252045235" y1="245.6969529111862" x2="83.26893383553904" y2="248.68877518968694" stroke="#F8766D" stroke-width="2.0"/><line x1="83.26893383553904" y1="248.68877518968694" x2="76.98391759842214" y2="252.08339400618337" stroke="#F8766D" stroke-width="2.0"/><line x1="76.98391759842214" y1="252.08339400618337" x2="71.13262195120447" y2="255.8481173257851" stroke="#F8766D" stroke-width="2.0"/><line x1="71.13262195120447" y1="255.8481173257851" x2="65.77139806961225" y2="259.9466888049173" stroke="#F8766D" stroke-width="2.0"/><line x1="65.77139806961225" y1="259.9466888049173" x2="60.95187747036832" y2="264.33963695972886" stroke="#F8766D" stroke-width="2.0"/><line x1="60.95187747036832" y1="264.33963695972886" x2="56.720474771461376" y2="268.98465529805924" stroke="#F8766D" stroke-width="2.0"/><line x1="56.720474771461376" y1="268.98465529805924" x2="53.1179406940019" y2="273.83700975408493" stroke="#F8766D" stroke-width="2.0"/><line x1="53.1179406940019" y1="273.83700975408493" x2="50.17896961050125" y2="278.8499695018277" stroke="#F8766D" stroke-width="2.0"/><line x1="50.17896961050125" y1="278.8499695018277" x2="47.93186541909856" y2="283.9752569985542" stroke="#F8766D" stroke-width="2.0"/><line x1="47.93186541909856" y1="283.9752569985542" x2="46.39826896154918" y2="289.16351292390385" stroke="#F8766D" stroke-width="2.0"/><line x1="46.39826896154918" y1="289.16351292390385" x2="45.592949610088354" y2="294.3647715371263" stroke="#F8766D" stroke-width="2.0"/><line x1="45.592949610088354" y1="294.3647715371263" x2="45.523663030303034" y2="299.5289418744791" stroke="#F8766D" stroke-width="2.0"/><line x1="45.523663030303034" y1="299.5289418744791" x2="46.19107648983243" y2="304.60629015259076" stroke="#F8766D" stroke-width="2.0"/><line x1="46.19107648983243" y1="304.60629015259076" x2="47.58876243221596" y2="309.54791873198224" stroke="#F8766D" stroke-width="2.0"/><line x1="47.58876243221596" y1="309.54791873198224" x2="49.70326037777565" y2="314.306237028065" stroke="#F8766D" stroke-width="2.0"/><line x1="49.70326037777565" y1="314.306237028065" x2="52.51420655539356" y2="318.8354198344865" stroke="#F8766D" stroke-width="2.0"/><line x1="52.51420655539356" y1="318.8354198344865" x2="55.99453001675977" y2="323.0918486449176" stroke="#F8766D" stroke-width="2.0"/><line x1="55.99453001675977" y1="323.0918486449176" x2="60.110713344402974" y2="327.0345317231133" stroke="#F8766D" stroke-width="2.0"/><line x1="60.110713344402974" y1="327.0345317231133" x2="64.82311544274326" y2="330.6254988757406" stroke="#F8766D" stroke-width="2.0"/><line x1="64.82311544274326" y1="330.6254988757406" x2="70.08635330351264" y2="333.8301671260975" stroke="#F8766D" stroke-width="2.0"/><line x1="70.08635330351264" y1="333.8301671260975" x2="75.8497390689334" y2="336.61767376708315" stroke="#F8766D" stroke-width="2.0"/><line x1="75.8497390689334" y1="336.61767376708315" x2="82.05776818349734" y2="338.96117358593875" stroke="#F8766D" stroke-width="2.0"/><line x1="82.05776818349734" y1="338.96117358593875" x2="88.65065393317738" y2="340.8380973983214" stroke="#F8766D" stroke-width="2.0"/><line x1="88.65065393317738" y1="340.8380973983214" x2="95.56490322416609" y2="342.23036940188695" stroke="#F8766D" stroke-width="2.0"/><line x1="95.56490322416609" y1="342.23036940188695" x2="102.73392805607814" y2="343.1245812561477" stroke="#F8766D" stroke-width="2.0"/><line x1="102.73392805607814" y1="343.1245812561477" x2="110.08868680079458" y2="343.5121212121212" stroke="#F8766D" stroke-width="2.0"/><line x1="110.08868680079458" y1="343.5121212121212" x2="117.55834911108366" y2="343.3892570481806" stroke="#F8766D" stroke-width="2.0"/><line x1="117.55834911108366" y1="343.3892570481806" x2="125.0709780555646" y2="342.75717201338904" stroke="#F8766D" stroke-width="2.0"/><line x1="125.0709780555646" y1="342.75717201338904" x2="132.5542229106813" y2="341.62195343216433" stroke="#F8766D" stroke-width="2.0"/><line x1="132.5542229106813" y1="341.62195343216433" x2="139.9360159377211" y2="339.9945340800173" stroke="#F8766D" stroke-width="2.0"/><line x1="139.9360159377211" y1="339.9945340800173" x2="147.14526643453524" y2="337.89058689494703" stroke="#F8766D" stroke-width="2.0"/><line x1="147.14526643453524" y1="337.89058689494703" x2="154.11254537786212" y2="335.3303740384803" stroke="#F8766D" stroke-width="2.0"/><line x1="154.11254537786212" y1="335.3303740384803" x2="160.77075406277538" y2="332.3385517599795" stroke="#F8766D" stroke-width="2.0"/><line x1="160.77075406277538" y1="332.3385517599795" x2="167.05577029989234" y2="328.9439329434831" stroke="#F8766D" stroke-width="2.0"/><line x1="167.05577029989234" y1="328.9439329434831" x2="172.90706594711003" y2="325.17920962388143" stroke="#F8766D" stroke-width="2.0"/><line x1="172.90706594711003" y1="325.17920962388143" x2="178.26828982870222" y2="321.0806381447492" stroke="#F8766D" stroke-width="2.0"/><line x1="178.26828982870222" y1="321.0806381447492" x2="183.08781042794615" y2="316.6876899899376" stroke="#F8766D" stroke-width="2.0"/><line x1="183.08781042794615" y1="316.6876899899376" x2="187.31921312685307" y2="312.0426716516073" stroke="#F8766D" stroke-width="2.0"/><line x1="187.31921312685307" y1="312.0426716516073" x2="190.92174720431257" y2="307.19031719558154" stroke="#F8766D" stroke-width="2.0"/><line x1="190.92174720431257" y1="307.19031719558154" x2="193.8607182878132" y2="302.17735744783874" stroke="#F8766D" stroke-width="2.0"/><line x1="193.8607182878132" y1="302.17735744783874" x2="196.10782247921588" y2="297.0520699511123" stroke="#F8766D" stroke-width="2.0"/><line x1="196.10782247921588" y1="297.0520699511123" x2="197.6414189367653" y2="291.8638140257626" stroke="#F8766D" stroke-width="2.0"/><line x1="197.6414189367653" y1="291.8638140257626" x2="198.44673828822607" y2="286.6625554125402" stroke="#F8766D" stroke-width="2.0"/><line x1="198.44673828822607" y1="286.6625554125402" x2="198.51602486801144" y2="281.4983850751874" stroke="#F8766D" stroke-width="2.0"/><line x1="198.51602486801144" y1="281.4983850751874" x2="197.84861140848204" y2="276.42103679707577" stroke="#F8766D" stroke-width="2.0"/><line x1="197.84861140848204" y1="276.42103679707577" x2="196.45092546609845" y2="271.4794082176843" stroke="#F8766D" stroke-width="2.0"/><line x1="196.45092546609845" y1="271.4794082176843" x2="194.3364275205388" y2="266.72108992160145" stroke="#F8766D" stroke-width="2.0"/><line x1="194.3364275205388" y1="266.72108992160145" x2="191.5254813429209" y2="262.19190711517996" stroke="#F8766D" stroke-width="2.0"/><line x1="191.5254813429209" y1="262.19190711517996" x2="188.04515788155473" y2="257.93547830474887" stroke="#F8766D" stroke-width="2.0"/><line x1="188.04515788155473" y1="257.93547830474887" x2="183.92897455391147" y2="253.9927952265532" stroke="#F8766D" stroke-width="2.0"/><line x1="183.92897455391147" y1="253.9927952265532" x2="179.2165724555712" y2="250.40182807392586" stroke="#F8766D" stroke-width="2.0"/><line x1="179.2165724555712" y1="250.40182807392586" x2="173.95333459480185" y2="247.19715982356902" stroke="#F8766D" stroke-width="2.0"/><line x1="173.95333459480185" y1="247.19715982356902" x2="168.18994882938108" y2="244.40965318258333" stroke="#F8766D" stroke-width="2.0"/><line x1="168.18994882938108" y1="244.40965318258333" x2="161.98191971481714" y2="242.06615336372775" stroke="#F8766D" stroke-width="2.0"/><line x1="161.98191971481714" y1="242.06615336372775" x2="155.3890339651371" y2="240.18922955134508" stroke="#F8766D" stroke-width="2.0"/><line x1="155.3890339651371" y1="240.18922955134508" x2="148.4747846741484" y2="238.79695754777958" stroke="#F8766D" stroke-width="2.0"/><line x1="486.4890167758339" y1="48.369630598113076" x2="479.3199919439219" y2="47.47541874385232" stroke="#00BA38" stroke-width="2.0"/><line x1="479.3199919439219" y1="47.47541874385232" x2="471.9652331992054" y2="47.08787878787878" stroke="#00BA38" stroke-width="2.0"/><line x1="471.9652331992054" y1="47.08787878787878" x2="464.4955708889163" y2="47.21074295181934" stroke="#00BA38" stroke-width="2.0"/><line x1="464.4955708889163" y1="47.21074295181934" x2="456.9829419444353" y2="47.84282798661093" stroke="#00BA38" stroke-width="2.0"/><line x1="456.9829419444353" y1="47.84282798661093" x2="449.4996970893186" y2="48.97804656783569" stroke="#00BA38" stroke-width="2.0"/><line x1="449.4996970893186" y1="48.97804656783569" x2="442.1179040622788" y2="50.60546591998267" stroke="#00BA38" stroke-width="2.0"/><line x1="442.1179040622788" y1="50.60546591998267" x2="434.90865356546465" y2="52.70941310505297" stroke="#00BA38" stroke-width="2.0"/><line x1="434.90865356546465" y1="52.70941310505297" x2="427.94137462213786" y2="55.26962596151971" stroke="#00BA38" stroke-width="2.0"/><line x1="427.94137462213786" y1="55.26962596151971" x2="421.28316593722457" y2="58.26144824002047" stroke="#00BA38" stroke-width="2.0"/><line x1="421.28316593722457" y1="58.26144824002047" x2="414.99814970010766" y2="61.656067056516875" stroke="#00BA38" stroke-width="2.0"/><line x1="414.99814970010766" y1="61.656067056516875" x2="409.1468540528899" y2="65.42079037611859" stroke="#00BA38" stroke-width="2.0"/><line x1="409.1468540528899" y1="65.42079037611859" x2="403.7856301712977" y2="69.51936185525076" stroke="#00BA38" stroke-width="2.0"/><line x1="403.7856301712977" y1="69.51936185525076" x2="398.96610957205377" y2="73.91231001006236" stroke="#00BA38" stroke-width="2.0"/><line x1="398.96610957205377" y1="73.91231001006236" x2="394.7347068731468" y2="78.55732834839273" stroke="#00BA38" stroke-width="2.0"/><line x1="394.7347068731468" y1="78.55732834839273" x2="391.1321727956873" y2="83.40968280441844" stroke="#00BA38" stroke-width="2.0"/><line x1="391.1321727956873" y1="83.40968280441844" x2="388.1932017121867" y2="88.4226425521612" stroke="#00BA38" stroke-width="2.0"/><line x1="388.1932017121867" y1="88.4226425521612" x2="385.946097520784" y2="93.54793004888771" stroke="#00BA38" stroke-width="2.0"/><line x1="385.946097520784" y1="93.54793004888771" x2="384.4125010632347" y2="98.73618597423736" stroke="#00BA38" stroke-width="2.0"/><line x1="384.4125010632347" y1="98.73618597423736" x2="383.6071817117737" y2="103.93744458745974" stroke="#00BA38" stroke-width="2.0"/><line x1="383.6071817117737" y1="103.93744458745974" x2="383.5378951319884" y2="109.10161492481252" stroke="#00BA38" stroke-width="2.0"/><line x1="383.5378951319884" y1="109.10161492481252" x2="384.2053085915179" y2="114.17896320292425" stroke="#00BA38" stroke-width="2.0"/><line x1="384.2053085915179" y1="114.17896320292425" x2="385.60299453390144" y2="119.12059178231576" stroke="#00BA38" stroke-width="2.0"/><line x1="385.60299453390144" y1="119.12059178231576" x2="387.7174924794611" y2="123.87891007839853" stroke="#00BA38" stroke-width="2.0"/><line x1="387.7174924794611" y1="123.87891007839853" x2="390.52843865707905" y2="128.40809288482004" stroke="#00BA38" stroke-width="2.0"/><line x1="390.52843865707905" y1="128.40809288482004" x2="394.00876211844525" y2="132.66452169525115" stroke="#00BA38" stroke-width="2.0"/><line x1="394.00876211844525" y1="132.66452169525115" x2="398.1249454460884" y2="136.60720477344677" stroke="#00BA38" stroke-width="2.0"/><line x1="398.1249454460884" y1="136.60720477344677" x2="402.8373475444287" y2="140.19817192607414" stroke="#00BA38" stroke-width="2.0"/><line x1="402.8373475444287" y1="140.19817192607414" x2="408.10058540519805" y2="143.40284017643103" stroke="#00BA38" stroke-width="2.0"/><line x1="408.10058540519805" y1="143.40284017643103" x2="413.8639711706188" y2="146.19034681741664" stroke="#00BA38" stroke-width="2.0"/><line x1="413.8639711706188" y1="146.19034681741664" x2="420.07200028518275" y2="148.53384663627222" stroke="#00BA38" stroke-width="2.0"/><line x1="420.07200028518275" y1="148.53384663627222" x2="426.66488603486283" y2="150.41077044865486" stroke="#00BA38" stroke-width="2.0"/><line x1="426.66488603486283" y1="150.41077044865486" x2="433.57913532585155" y2="151.80304245222038" stroke="#00BA38" stroke-width="2.0"/><line x1="433.57913532585155" y1="151.80304245222038" x2="440.7481601577636" y2="152.69725430648114" stroke="#00BA38" stroke-width="2.0"/><line x1="440.7481601577636" y1="152.69725430648114" x2="448.10291890248004" y2="153.0847942624547" stroke="#00BA38" stroke-width="2.0"/><line x1="448.10291890248004" y1="153.0847942624547" x2="455.57258121276914" y2="152.96193009851413" stroke="#00BA38" stroke-width="2.0"/><line x1="455.57258121276914" y1="152.96193009851413" x2="463.0852101572501" y2="152.32984506372253" stroke="#00BA38" stroke-width="2.0"/><line x1="463.0852101572501" y1="152.32984506372253" x2="470.56845501236677" y2="151.19462648249782" stroke="#00BA38" stroke-width="2.0"/><line x1="470.56845501236677" y1="151.19462648249782" x2="477.9502480394066" y2="149.5672071303508" stroke="#00BA38" stroke-width="2.0"/><line x1="477.9502480394066" y1="149.5672071303508" x2="485.15949853622067" y2="147.4632599452805" stroke="#00BA38" stroke-width="2.0"/><line x1="485.15949853622067" y1="147.4632599452805" x2="492.1267774795476" y2="144.90304708881376" stroke="#00BA38" stroke-width="2.0"/><line x1="492.1267774795476" y1="144.90304708881376" x2="498.7849861644609" y2="141.911224810313" stroke="#00BA38" stroke-width="2.0"/><line x1="498.7849861644609" y1="141.911224810313" x2="505.0700024015778" y2="138.51660599381663" stroke="#00BA38" stroke-width="2.0"/><line x1="505.0700024015778" y1="138.51660599381663" x2="510.9212980487955" y2="134.75188267421493" stroke="#00BA38" stroke-width="2.0"/><line x1="510.9212980487955" y1="134.75188267421493" x2="516.2825219303877" y2="130.65331119508272" stroke="#00BA38" stroke-width="2.0"/><line x1="516.2825219303877" y1="130.65331119508272" x2="521.1020425296316" y2="126.26036304027116" stroke="#00BA38" stroke-width="2.0"/><line x1="521.1020425296316" y1="126.26036304027116" x2="525.3334452285385" y2="121.61534470194074" stroke="#00BA38" stroke-width="2.0"/><line x1="525.3334452285385" y1="121.61534470194074" x2="528.9359793059981" y2="116.76299024591503" stroke="#00BA38" stroke-width="2.0"/><line x1="528.9359793059981" y1="116.76299024591503" x2="531.8749503894987" y2="111.75003049817231" stroke="#00BA38" stroke-width="2.0"/><line x1="531.8749503894987" y1="111.75003049817231" x2="534.1220545809015" y2="106.6247430014458" stroke="#00BA38" stroke-width="2.0"/><line x1="534.1220545809015" y1="106.6247430014458" x2="535.6556510384509" y2="101.43648707609611" stroke="#00BA38" stroke-width="2.0"/><line x1="535.6556510384509" y1="101.43648707609611" x2="536.4609703899116" y2="96.23522846287372" stroke="#00BA38" stroke-width="2.0"/><line x1="536.4609703899116" y1="96.23522846287372" x2="536.5302569696969" y2="91.07105812552095" stroke="#00BA38" stroke-width="2.0"/><line x1="536.5302569696969" y1="91.07105812552095" x2="535.8628435101675" y2="85.99370984740922" stroke="#00BA38" stroke-width="2.0"/><line x1="535.8628435101675" y1="85.99370984740922" x2="534.465157567784" y2="81.0520812680177" stroke="#00BA38" stroke-width="2.0"/><line x1="534.465157567784" y1="81.0520812680177" x2="532.3506596222243" y2="76.2937629719349" stroke="#00BA38" stroke-width="2.0"/><line x1="532.3506596222243" y1="76.2937629719349" x2="529.5397134446064" y2="71.76458016551342" stroke="#00BA38" stroke-width="2.0"/><line x1="529.5397134446064" y1="71.76458016551342" x2="526.0593899832402" y2="67.50815135508233" stroke="#00BA38" stroke-width="2.0"/><line x1="526.0593899832402" y1="67.50815135508233" x2="521.9432066555969" y2="63.56546827688669" stroke="#00BA38" stroke-width="2.0"/><line x1="521.9432066555969" y1="63.56546827688669" x2="517.2308045572566" y2="59.974501124259405" stroke="#00BA38" stroke-width="2.0"/><line x1="517.2308045572566" y1="59.974501124259405" x2="511.9675666964873" y2="56.76983287390252" stroke="#00BA38" stroke-width="2.0"/><line x1="511.9675666964873" y1="56.76983287390252" x2="506.20418093106656" y2="53.98232623291683" stroke="#00BA38" stroke-width="2.0"/><line x1="506.20418093106656" y1="53.98232623291683" x2="499.9961518165026" y2="51.638826414061285" stroke="#00BA38" stroke-width="2.0"/><line x1="499.9961518165026" y1="51.638826414061285" x2="493.40326606682254" y2="49.76190260167861" stroke="#00BA38" stroke-width="2.0"/><line x1="493.40326606682254" y1="49.76190260167861" x2="486.4890167758339" y2="48.369630598113076" stroke="#00BA38" stroke-width="2.0"/><line x1="148.47478467414845" y1="48.36963059811315" x2="141.30575984223645" y2="47.47541874385232" stroke="#619CFF" stroke-width="2.0"/><line x1="141.30575984223645" y1="47.47541874385232" x2="133.95100109752" y2="47.08787878787878" stroke="#619CFF" stroke-width="2.0"/><line x1="133.95100109752" y1="47.08787878787878" x2="126.4813387872309" y2="47.21074295181934" stroke="#619CFF" stroke-width="2.0"/><line x1="126.4813387872309" y1="47.21074295181934" x2="118.96870984274997" y2="47.84282798661096" stroke="#619CFF" stroke-width="2.0"/><line x1="118.96870984274997" y1="47.84282798661096" x2="111.4854649876333" y2="48.97804656783565" stroke="#619CFF" stroke-width="2.0"/><line x1="111.4854649876333" y1="48.97804656783565" x2="104.10367196059346" y2="50.60546591998267" stroke="#619CFF" stroke-width="2.0"/><line x1="104.10367196059346" y1="50.60546591998267" x2="96.89442146377931" y2="52.70941310505293" stroke="#619CFF" stroke-width="2.0"/><line x1="96.89442146377931" y1="52.70941310505293" x2="89.92714252045245" y2="55.26962596151967" stroke="#619CFF" stroke-width="2.0"/><line x1="89.92714252045245" y1="55.26962596151967" x2="83.26893383553912" y2="58.26144824002047" stroke="#619CFF" stroke-width="2.0"/><line x1="83.26893383553912" y1="58.26144824002047" x2="76.98391759842224" y2="61.65606705651684" stroke="#619CFF" stroke-width="2.0"/><line x1="76.98391759842224" y1="61.65606705651684" x2="71.13262195120453" y2="65.4207903761185" stroke="#619CFF" stroke-width="2.0"/><line x1="71.13262195120453" y1="65.4207903761185" x2="65.7713980696123" y2="69.51936185525074" stroke="#619CFF" stroke-width="2.0"/><line x1="65.7713980696123" y1="69.51936185525074" x2="60.95187747036838" y2="73.91231001006236" stroke="#619CFF" stroke-width="2.0"/><line x1="60.95187747036838" y1="73.91231001006236" x2="56.72047477146143" y2="78.55732834839269" stroke="#619CFF" stroke-width="2.0"/><line x1="56.72047477146143" y1="78.55732834839269" x2="53.11794069400194" y2="83.4096828044184" stroke="#619CFF" stroke-width="2.0"/><line x1="53.11794069400194" y1="83.4096828044184" x2="50.17896961050128" y2="88.4226425521612" stroke="#619CFF" stroke-width="2.0"/><line x1="50.17896961050128" y1="88.4226425521612" x2="47.931865419098585" y2="93.54793004888768" stroke="#619CFF" stroke-width="2.0"/><line x1="47.931865419098585" y1="93.54793004888768" x2="46.39826896154919" y2="98.73618597423732" stroke="#619CFF" stroke-width="2.0"/><line x1="46.39826896154919" y1="98.73618597423732" x2="45.59294961008837" y2="103.93744458745971" stroke="#619CFF" stroke-width="2.0"/><line x1="45.59294961008837" y1="103.93744458745971" x2="45.523663030303034" y2="109.10161492481248" stroke="#619CFF" stroke-width="2.0"/><line x1="45.523663030303034" y1="109.10161492481248" x2="46.19107648983243" y2="114.17896320292417" stroke="#619CFF" stroke-width="2.0"/><line x1="46.19107648983243" y1="114.17896320292417" x2="47.58876243221596" y2="119.12059178231573" stroke="#619CFF" stroke-width="2.0"/><line x1="47.58876243221596" y1="119.12059178231573" x2="49.70326037777562" y2="123.87891007839849" stroke="#619CFF" stroke-width="2.0"/><line x1="49.70326037777562" y1="123.87891007839849" x2="52.51420655539353" y2="128.40809288482" stroke="#619CFF" stroke-width="2.0"/><line x1="52.51420655539353" y1="128.40809288482" x2="55.994530016759725" y2="132.66452169525112" stroke="#619CFF" stroke-width="2.0"/><line x1="55.994530016759725" y1="132.66452169525112" x2="60.110713344402924" y2="136.60720477344674" stroke="#619CFF" stroke-width="2.0"/><line x1="60.110713344402924" y1="136.60720477344674" x2="64.8231154427432" y2="140.1981719260741" stroke="#619CFF" stroke-width="2.0"/><line x1="64.8231154427432" y1="140.1981719260741" x2="70.08635330351258" y2="143.40284017643097" stroke="#619CFF" stroke-width="2.0"/><line x1="70.08635330351258" y1="143.40284017643097" x2="75.84973906893333" y2="146.19034681741664" stroke="#619CFF" stroke-width="2.0"/><line x1="75.84973906893333" y1="146.19034681741664" x2="82.05776818349725" y2="148.53384663627222" stroke="#619CFF" stroke-width="2.0"/><line x1="82.05776818349725" y1="148.53384663627222" x2="88.6506539331773" y2="150.41077044865486" stroke="#619CFF" stroke-width="2.0"/><line x1="88.6506539331773" y1="150.41077044865486" x2="95.56490322416602" y2="151.80304245222038" stroke="#619CFF" stroke-width="2.0"/><line x1="95.56490322416602" y1="151.80304245222038" x2="102.73392805607804" y2="152.69725430648114" stroke="#619CFF" stroke-width="2.0"/><line x1="102.73392805607804" y1="152.69725430648114" x2="110.0886868007945" y2="153.0847942624547" stroke="#619CFF" stroke-width="2.0"/><line x1="110.0886868007945" y1="153.0847942624547" x2="117.55834911108357" y2="152.96193009851413" stroke="#619CFF" stroke-width="2.0"/><line x1="117.55834911108357" y1="152.96193009851413" x2="125.0709780555645" y2="152.32984506372253" stroke="#619CFF" stroke-width="2.0"/><line x1="125.0709780555645" y1="152.32984506372253" x2="132.55422291068118" y2="151.19462648249785" stroke="#619CFF" stroke-width="2.0"/><line x1="132.55422291068118" y1="151.19462648249785" x2="139.936015937721" y2="149.56720713035082" stroke="#619CFF" stroke-width="2.0"/><line x1="139.936015937721" y1="149.56720713035082" x2="147.14526643453513" y2="147.46325994528053" stroke="#619CFF" stroke-width="2.0"/><line x1="147.14526643453513" y1="147.46325994528053" x2="154.11254537786203" y2="144.9030470888138" stroke="#619CFF" stroke-width="2.0"/><line x1="154.11254537786203" y1="144.9030470888138" x2="160.77075406277532" y2="141.91122481031306" stroke="#619CFF" stroke-width="2.0"/><line x1="160.77075406277532" y1="141.91122481031306" x2="167.05577029989226" y2="138.51660599381665" stroke="#619CFF" stroke-width="2.0"/><line x1="167.05577029989226" y1="138.51660599381665" x2="172.90706594710994" y2="134.75188267421495" stroke="#619CFF" stroke-width="2.0"/><line x1="172.90706594710994" y1="134.75188267421495" x2="178.26828982870214" y2="130.65331119508278" stroke="#619CFF" stroke-width="2.0"/><line x1="178.26828982870214" y1="130.65331119508278" x2="183.08781042794607" y2="126.26036304027116" stroke="#619CFF" stroke-width="2.0"/><line x1="183.08781042794607" y1="126.26036304027116" x2="187.31921312685304" y2="121.61534470194078" stroke="#619CFF" stroke-width="2.0"/><line x1="187.31921312685304" y1="121.61534470194078" x2="190.92174720431257" y2="116.76299024591506" stroke="#619CFF" stroke-width="2.0"/><line x1="190.92174720431257" y1="116.76299024591506" x2="193.8607182878132" y2="111.75003049817231" stroke="#619CFF" stroke-width="2.0"/><line x1="193.8607182878132" y1="111.75003049817231" x2="196.10782247921583" y2="106.62474300144584" stroke="#619CFF" stroke-width="2.0"/><line x1="196.10782247921583" y1="106.62474300144584" x2="197.64141893676526" y2="101.43648707609614" stroke="#619CFF" stroke-width="2.0"/><line x1="197.64141893676526" y1="101.43648707609614" x2="198.44673828822607" y2="96.23522846287376" stroke="#619CFF" stroke-width="2.0"/><line x1="198.44673828822607" y1="96.23522846287376" x2="198.51602486801144" y2="91.07105812552098" stroke="#619CFF" stroke-width="2.0"/><line x1="198.51602486801144" y1="91.07105812552098" x2="197.84861140848204" y2="85.99370984740929" stroke="#619CFF" stroke-width="2.0"/><line x1="197.84861140848204" y1="85.99370984740929" x2="196.45092546609845" y2="81.05208126801782" stroke="#619CFF" stroke-width="2.0"/><line x1="196.45092546609845" y1="81.05208126801782" x2="194.33642752053882" y2="76.29376297193494" stroke="#619CFF" stroke-width="2.0"/><line x1="194.33642752053882" y1="76.29376297193494" x2="191.52548134292093" y2="71.76458016551354" stroke="#619CFF" stroke-width="2.0"/><line x1="191.52548134292093" y1="71.76458016551354" x2="188.04515788155476" y2="67.50815135508245" stroke="#619CFF" stroke-width="2.0"/><line x1="188.04515788155476" y1="67.50815135508245" x2="183.92897455391156" y2="63.56546827688676" stroke="#619CFF" stroke-width="2.0"/><line x1="183.92897455391156" y1="63.56546827688676" x2="179.21657245557128" y2="59.974501124259405" stroke="#619CFF" stroke-width="2.0"/><line x1="179.21657245557128" y1="59.974501124259405" x2="173.95333459480196" y2="56.76983287390256" stroke="#619CFF" stroke-width="2.0"/><line x1="173.95333459480196" y1="56.76983287390256" x2="168.18994882938114" y2="53.98232623291683" stroke="#619CFF" stroke-width="2.0"/><line x1="168.18994882938114" y1="53.98232623291683" x2="161.9819197148172" y2="51.638826414061285" stroke="#619CFF" stroke-width="2.0"/><line x1="161.9819197148172" y1="51.638826414061285" x2="155.38903396513717" y2="49.76190260167861" stroke="#619CFF" stroke-width="2.0"/><line x1="155.38903396513717" y1="49.76190260167861" x2="148.47478467414845" y2="48.36963059811315" stroke="#619CFF" stroke-width="2.0"/><rect x="575.7472533333333" y="160.62888" width="23.114079999999994" height="69.34223999999998" fill="#ffffff" fill-opacity="1.0" stroke="none"/><circle cx="587.3042933333334" cy="172.18592" r="3.1181102362204727" fill="#F8766D" fill-opacity="1.0" stroke="none"/><text x="602.528" y="175.94058666666666" fill="#333333" font-size="11.733333333333334" font-family="sans-serif" text-anchor="start">0</text><circle cx="587.3042933333334" cy="195.29999999999998" r="3.1181102362204727" fill="#00BA38" fill-opacity="1.0" stroke="none"/><text x="602.528" y="199.05466666666666" fill="#333333" font-size="11.733333333333334" font-family="sans-serif" text-anchor="start">1</text><circle cx="587.3042933333334" cy="218.41408" r="3.1181102362204727" fill="#619CFF" fill-opacity="1.0" stroke="none"/><text x="602.528" y="222.16874666666666" fill="#333333" font-size="11.733333333333334" font-family="sans-serif" text-anchor="start">2</text></svg>