<svg xmlns="http://www.w3.org/2000/svg" width="624" height="384" viewBox="0 0 624 384"><rect x="0.0" y="0.0" width="624.0" height="384.0" fill="#ffffff" fill-opacity="1.0" stroke="none"/><line x1="35.50312029684601" y1="32.266666666666666" x2="35.50312029684601" y2="358.3333333333333" stroke="#dddddd" stroke-width="0.6666666666666666"/><line x1="135.7085476314162" y1="32.266666666666666" x2="135.7085476314162" y2="358.3333333333333" stroke="#dddddd" stroke-width="0.6666666666666666"/><line x1="235.91397496598634" y1="32.266666666666666" x2="235.91397496598634" y2="358.3333333333333" stroke="#dddddd" stroke-width="0.6666666666666666"/><line x1="336.11940230055654" y1="32.266666666666666" x2="336.11940230055654" y2="358.3333333333333" stroke="#dddddd" stroke-width="0.6666666666666666"/><line x1="436.3248296351267" y1="32.266666666666666" x2="436.3248296351267" y2="358.3333333333333" stroke="#dddddd" stroke-width="0.6666666666666666"/><line x1="536.5302569696969" y1="32.266666666666666" x2="536.5302569696969" y2="358.3333333333333" stroke="#dddddd" stroke-width="0.6666666666666666"/><line x1="85.6058339641311" y1="32.266666666666666" x2="85.6058339641311" y2="358.3333333333333" stroke="#dddddd" stroke-width="1.3333333333333333"/><line x1="185.8112612987013" y1="32.266666666666666" x2="185.8112612987013" y2="358.3333333333333" stroke="#dddddd" stroke-width="1.3333333333333333"/><line x1="286.01668863327143" y1="32.266666666666666" x2="286.01668863327143" y2="358.3333333333333" stroke="#dddddd" stroke-width="1.3333333333333333"/><line x1="386.22211596784166" y1="32.266666666666666" x2="386.22211596784166" y2="358.3333333333333" stroke="#dddddd" stroke-width="1.3333333333333333"/><line x1="486.42754330241183" y1="32.266666666666666" x2="486.42754330241183" y2="358.3333333333333" stroke="#dddddd" stroke-width="1.3333333333333333"/><line x1="20.973333333333333" y1="343.5121212121212" x2="561.0805866666667" y2="343.5121212121212" stroke="#dddddd" stroke-width="0.6666666666666666"/><line x1="20.973333333333333" y1="285.3897207367795" x2="561.0805866666667" y2="285.3897207367795" stroke="#dddddd" stroke-width="0.6666666666666666"/><line x1="20.973333333333333" y1="227.26732026143787" x2="561.0805866666667" y2="227.26732026143787" stroke="#dddddd" stroke-width="0.6666666666666666"/><line x1="20.973333333333333" y1="169.14491978609624" x2="561.0805866666667" y2="169.14491978609624" stroke="#dddddd" stroke-width="0.6666666666666666"/><line x1="20.973333333333333" y1="111.02251931075457" x2="561.0805866666667" y2="111.02251931075457" stroke="#dddddd" stroke-width="0.6666666666666666"/><line x1="20.973333333333333" y1="52.900118835412925" x2="561.0805866666667" y2="52.900118835412925" stroke="#dddddd" stroke-width="0.6666666666666666"/><line x1="20.973333333333333" y1="314.45092097445036" x2="561.0805866666667" y2="314.45092097445036" stroke="#dddddd" stroke-width="1.3333333333333333"/><line x1="20.973333333333333" y1="256.3285204991087" x2="561.0805866666667" y2="256.3285204991087" stroke="#dddddd" stroke-width="1.3333333333333333"/><line x1="20.973333333333333" y1="198.20612002376703" x2="561.0805866666667" y2="198.20612002376703" stroke="#dddddd" stroke-width="1.3333333333333333"/><line x1="20.973333333333333" y1="140.0837195484254" x2="561.0805866666667" y2="140.0837195484254" stroke="#dddddd" stroke-width="1.3333333333333333"/><line x1="20.973333333333333" y1="81.96131907308373" x2="561.0805866666667" y2="81.96131907308373" stroke="#dddddd" stroke-width="1.3333333333333333"/><rect x="20.973333333333333" y="32.266666666666666" width="540.1072533333333" height="326.06666666666666" fill="#ffffff" fill-opacity="0.0" stroke="#444444" stroke-width="1.3333333333333333"/><line x1="85.6058339641311" y1="358.3333333333333" x2="85.6058339641311" y2="362.0" stroke="#444444" stroke-width="1.3333333333333333"/><text x="85.6058339641311" y="374.32" fill="#333333" font-size="11.733333333333334" font-family="sans-serif" text-anchor="middle">1</text><line x1="185.8112612987013" y1="358.3333333333333" x2="185.8112612987013" y2="362.0" stroke="#444444" stroke-width="1.3333333333333333"/><text x="185.8112612987013" y="374.32" fill="#333333" font-size="11.733333333333334" font-family="sans-serif" text-anchor="middle">2</text><line x1="286.01668863327143" y1="358.3333333333333" x2="286.01668863327143" y2="362.0" stroke="#444444" stroke-width="1.3333333333333333"/><text x="286.01668863327143" y="374.32" fill="#333333" font-size="11.733333333333334" font-family="sans-serif" text-anchor="middle">3</text><line x1="386.22211596784166" y1="358.3333333333333" x2="386.22211596784166" y2="362.0" stroke="#444444" stroke-width="1.3333333333333333"/><text x="386.22211596784166" y="374.32" fill="#333333" font-size="11.733333333333334" font-family="sans-serif" text-anchor="middle">4</text><line x1="486.42754330241183" y1="358.3333333333333" x2="486.42754330241183" y2="362.0" stroke="#444444" stroke-width="1.3333333333333333"/><text x="486.42754330241183" y="374.32" fill="#333333" font-size="11.733333333333334" font-family="sans-serif" text-anchor="middle">5</text><line x1="20.973333333333333" y1="314.45092097445036" x2="17.306666666666665" y2="314.45092097445036" stroke="#444444" stroke-width="1.3333333333333333"/><text x="14.373333333333335" y="318.55758764111704" fill="#333333" font-size="11.733333333333334" font-family="sans-serif" text-anchor="end">1</text><line x1="20.973333333333333" y1="256.3285204991087" x2="17.306666666666665" y2="256.3285204991087" stroke="#444444" stroke-width="1.3333333333333333"/><text x="14.373333333333335" y="260.4351871657754" fill="#333333" font-size="11.733333333333334" font-family="sans-serif" text-anchor="end">2</text><line x1="20.973333333333333" y1="198.20612002376703" x2="17.306666666666665" y2="198.20612002376703" stroke="#444444" stroke-width="1.3333333333333333"/><text x="14.373333333333335" y="202.3127866904337" fill="#333333" font-size="11.733333333333334" font-family="sans-serif" text-anchor="end">3</text><line x1="20.973333333333333" y1="140.0837195484254" x2="17.306666666666665" y2="140.0837195484254" stroke="#444444" stroke-width="1.3333333333333333"/><text x="14.373333333333335" y="144.19038621509205" fill="#333333" font-size="11.733333333333334" font-family="sans-serif" text-anchor="end">4</text><line x1="20.973333333333333" y1="81.96131907308373" x2="17.306666666666665" y2="81.96131907308373" stroke="#444444" stroke-width="1.3333333333333333"/><text x="14.373333333333335" y="86.0679857397504" fill="#333333" font-size="11.733333333333334" font-family="sans-serif" text-anchor="end">5</text><text x="20.973333333333333" y="21.413333333333334" fill="#333333" font-size="17.599999999999998" font-family="sans-serif" text-anchor="start">KMeans clusters (k=3)</text><circle cx="45.52366303030303" cy="297.01420083184786" r="3.1181102362204727" fill="#F8766D" fill-opacity="0.85" stroke="none"><title>(0.6, 1.3)</title></circle><circle cx="105.64691943104515" cy="343.5121212121212" r="3.1181102362204727" fill="#F8766D" fill-opacity="0.85" stroke="none"><title>(1.2, 0.5)</title></circle><circle cx="135.7085476314162" cy="291.2019607843137" r="3.1181102362204727" fill="#F8766D" fill-opacity="0.85" stroke="none"><title>(1.5, 1.4)</title></circle><circle cx="55.54420576376005" cy="326.0754010695187" r="3.1181102362204727" fill="#F8766D" fill-opacity="0.85" stroke="none"><title>(0.7, 0.8)</title></circle><circle cx="95.62637669758813" cy="279.57748068924536" r="3.1181102362204727" fill="#F8766D" fill-opacity="0.85" stroke="none"><title>(1.1, 1.6)</title></circle><circle cx="446.3453723685837" cy="64.52459893048126" r="3.1181102362204727" fill="#00BA38" fill-opacity="0.85" stroke="none"><title>(4.6, 5.3)</title></circle><circle cx="506.46862876932596" cy="111.02251931075457" r="3.1181102362204727" fill="#00BA38" fill-opacity="0.85" stroke="none"><title>(5.2, 4.5)</title></circle><circle cx="536.5302569696969" cy="58.712358882947036" r="3.1181102362204727" fill="#00BA38" fill-opacity="0.85" stroke="none"><title>(5.5, 5.4)</title></circle><circle cx="456.36591510204084" cy="93.58579916815206" r="3.1181102362204727" fill="#00BA38" fill-opacity="0.85" stroke="none"><title>(4.7, 4.8)</title></circle><circle cx="496.44808603586876" cy="47.08787878787874" r="3.1181102362204727" fill="#00BA38" fill-opacity="0.85" stroke="none"><title>(5.1, 5.6)</title></circle><circle cx="45.52366303030303" cy="64.52459893048126" r="3.1181102362204727" fill="#619CFF" fill-opacity="0.85" stroke="none"><title>(0.6, 5.3)</title></circle><circle cx="105.64691943104515" cy="111.02251931075457" r="3.1181102362204727" fill="#619CFF" fill-opacity="0.85" stroke="none"><title>(1.2, 4.5)</title></circle><circle cx="135.7085476314162" cy="58.712358882947036" r="3.1181102362204727" fill="#619CFF" fill-opacity="0.85" stroke="none"><title>(1.5, 5.4)</title></circle><circle cx="55.54420576376005" cy="93.58579916815206" r="3.1181102362204727" fill="#619CFF" fill-opacity="0.85" stroke="none"><title>(0.7, 4.8)</title></circle><circle cx="95.62637669758813" cy="47.08787878787874" r="3.1181102362204727" fill="#619CFF" fill-opacity="0.85" stroke="none"><title>(1.1, 5.6)</title></circle><path d="M 86.36269841633433 304.3581226811889 L 88.8571866053107 304.3581226811889 L 88.8571866053107 306.22898882292117 L 90.72805274704298 306.22898882292117 L 90.72805274704298 308.72347701189756 L 88.8571866053107 308.72347701189756 L 88.8571866053107 310.59434315362984 L 86.36269841633433 310.59434315362984 L 86.36269841633433 308.72347701189756 L 84.49183227460205 308.72347701189756 L 84.49183227460205 306.22898882292117 L 86.36269841633433 306.22898882292117 Z" fill="#F8766D" fill-opacity="0.85" stroke="none"/><path d="M 487.1844077546151 71.8685207798222 L 489.67889594359156 71.8685207798222 L 489.67889594359156 73.73938692155448 L 491.5497620853238 73.73938692155448 L 491.5497620853238 76.23387511053086 L 489.67889594359156 76.23387511053086 L 489.67889594359156 78.10474125226315 L 487.1844077546151 78.10474125226315 L 487.1844077546151 76.23387511053086 L 485.3135416128829 76.23387511053086 L 485.3135416128829 73.73938692155448 L 487.1844077546151 73.73938692155448 Z" fill="#00BA38" fill-opacity="0.85" stroke="none"/><path d="M 86.36269841633433 71.8685207798222 L 88.8571866053107 71.8685207798222 L 88.8571866053107 73.73938692155448 L 90.72805274704298 73.73938692155448 L 90.72805274704298 76.23387511053086 L 88.8571866053107 76.23387511053086 L 88.8571866053107 78.10474125226315 L 86.36269841633433 78.10474125226315 L 86.36269841633433 76.23387511053086 L 84.49183227460205 76.23387511053086 L 84.49183227460205 73.73938692155448 L 86.36269841633433 73.73938692155448 Z" fill="#619CFF" fill-opacity="0.85" stroke="none"/><rect x="575.7472533333333" y="160.62888" width="23.114079999999994" height="69.34223999999998" fill="#ffffff" fill-opacity="1.0" stroke="none"/><circle cx="587.3042933333334" cy="172.18592" r="3.1181102362204727" fill="#F8766D" fill-opacity="1.0" stroke="none"/><text x="602.528" y="175.94058666666666" fill="#333333" font-size="11.733333333333334" font-family="sans-serif" text-anchor="start">0</text><circle cx="587.3042933333334" cy="195.29999999999998" r="3.1181102362204727" fill="#00BA38" fill-opacity="1.0" stroke="none"/><text x="602.528" y="199.05466666666666" fill="#333333" font-size="11.733333333333334" font-family="sans-serif" text-anchor="start">1</text><circle cx="587.3042933333334" cy="218.41408" r="3.1181102362204727" fill="#619CFF" fill-opacity="1.0" stroke="none"/><text x="602.528" y="222.16874666666666" fill="#333333" font-size="11.733333333333334" font-family="sans-serif" text-anchor="start">2</text></svg>