<svg xmlns="http://www.w3.org/2000/svg" width="624" height="384" viewBox="0 0 624 384"><rect x="0.0" y="0.0" width="624.0" height="384.0" fill="#ffffff" fill-opacity="1.0" stroke="none"/><line x1="115.74272727272728" y1="7.333333333333333" x2="115.74272727272728" y2="358.3333333333333" stroke="#dddddd" stroke-width="0.6666666666666666"/><line x1="251.1275757575757" y1="7.333333333333333" x2="251.1275757575757" y2="358.3333333333333" stroke="#dddddd" stroke-width="0.6666666666666666"/><line x1="386.51242424242423" y1="7.333333333333333" x2="386.51242424242423" y2="358.3333333333333" stroke="#dddddd" stroke-width="0.6666666666666666"/><line x1="521.8972727272727" y1="7.333333333333333" x2="521.8972727272727" y2="358.3333333333333" stroke="#dddddd" stroke-width="0.6666666666666666"/><line x1="48.05030303030303" y1="7.333333333333333" x2="48.05030303030303" y2="358.3333333333333" stroke="#dddddd" stroke-width="1.3333333333333333"/><line x1="183.4351515151515" y1="7.333333333333333" x2="183.4351515151515" y2="358.3333333333333" stroke="#dddddd" stroke-width="1.3333333333333333"/><line x1="318.81999999999994" y1="7.333333333333333" x2="318.81999999999994" y2="358.3333333333333" stroke="#dddddd" stroke-width="1.3333333333333333"/><line x1="454.2048484848485" y1="7.333333333333333" x2="454.2048484848485" y2="358.3333333333333" stroke="#dddddd" stroke-width="1.3333333333333333"/><line x1="589.5896969696969" y1="7.333333333333333" x2="589.5896969696969" y2="358.3333333333333" stroke="#dddddd" stroke-width="1.3333333333333333"/><line x1="20.973333333333333" y1="319.03067257945304" x2="616.6666666666666" y2="319.03067257945304" stroke="#dddddd" stroke-width="0.6666666666666666"/><line x1="20.973333333333333" y1="241.20362158167035" x2="616.6666666666666" y2="241.20362158167035" stroke="#dddddd" stroke-width="0.6666666666666666"/><line x1="20.973333333333333" y1="163.37657058388766" x2="616.6666666666666" y2="163.37657058388766" stroke="#dddddd" stroke-width="0.6666666666666666"/><line x1="20.973333333333333" y1="85.54951958610494" x2="616.6666666666666" y2="85.54951958610494" stroke="#dddddd" stroke-width="0.6666666666666666"/><line x1="20.973333333333333" y1="7.722468588322272" x2="616.6666666666666" y2="7.722468588322272" stroke="#dddddd" stroke-width="0.6666666666666666"/><line x1="20.973333333333333" y1="357.94419807834436" x2="616.6666666666666" y2="357.94419807834436" stroke="#dddddd" stroke-width="1.3333333333333333"/><line x1="20.973333333333333" y1="280.1171470805617" x2="616.6666666666666" y2="280.1171470805617" stroke="#dddddd" stroke-width="1.3333333333333333"/><line x1="20.973333333333333" y1="202.290096082779" x2="616.6666666666666" y2="202.290096082779" stroke="#dddddd" stroke-width="1.3333333333333333"/><line x1="20.973333333333333" y1="124.4630450849963" x2="616.6666666666666" y2="124.4630450849963" stroke="#dddddd" stroke-width="1.3333333333333333"/><line x1="20.973333333333333" y1="46.63599408721359" x2="616.6666666666666" y2="46.63599408721359" stroke="#dddddd" stroke-width="1.3333333333333333"/><rect x="20.973333333333333" y="7.333333333333333" width="595.6933333333333" height="351.0" fill="#ffffff" fill-opacity="0.0" stroke="#444444" stroke-width="1.3333333333333333"/><line x1="48.05030303030303" y1="358.3333333333333" x2="48.05030303030303" y2="362.0" stroke="#444444" stroke-width="1.3333333333333333"/><text x="48.05030303030303" y="374.32" fill="#333333" font-size="11.733333333333334" font-family="sans-serif" text-anchor="middle">200</text><line x1="183.4351515151515" y1="358.3333333333333" x2="183.4351515151515" y2="362.0" stroke="#444444" stroke-width="1.3333333333333333"/><text x="183.4351515151515" y="374.32" fill="#333333" font-size="11.733333333333334" font-family="sans-serif" text-anchor="middle">240</text><line x1="318.81999999999994" y1="358.3333333333333" x2="318.81999999999994" y2="362.0" stroke="#444444" stroke-width="1.3333333333333333"/><text x="318.81999999999994" y="374.32" fill="#333333" font-size="11.733333333333334" font-family="sans-serif" text-anchor="middle">280</text><line x1="454.2048484848485" y1="358.3333333333333" x2="454.2048484848485" y2="362.0" stroke="#444444" stroke-width="1.3333333333333333"/><text x="454.2048484848485" y="374.32" fill="#333333" font-size="11.733333333333334" font-family="sans-serif" text-anchor="middle">320</text><line x1="589.5896969696969" y1="358.3333333333333" x2="589.5896969696969" y2="362.0" stroke="#444444" stroke-width="1.3333333333333333"/><text x="589.5896969696969" y="374.32" fill="#333333" font-size="11.733333333333334" font-family="sans-serif" text-anchor="middle">360</text><line x1="20.973333333333333" y1="357.94419807834436" x2="17.306666666666665" y2="357.94419807834436" stroke="#444444" stroke-width="1.3333333333333333"/><text x="14.373333333333335" y="362.05086474501104" fill="#333333" font-size="11.733333333333334" font-family="sans-serif" text-anchor="end">1</text><line x1="20.973333333333333" y1="280.1171470805617" x2="17.306666666666665" y2="280.1171470805617" stroke="#444444" stroke-width="1.3333333333333333"/><text x="14.373333333333335" y="284.2238137472284" fill="#333333" font-size="11.733333333333334" font-family="sans-serif" text-anchor="end">2</text><line x1="20.973333333333333" y1="202.290096082779" x2="17.306666666666665" y2="202.290096082779" stroke="#444444" stroke-width="1.3333333333333333"/><text x="14.373333333333335" y="206.39676274944568" fill="#333333" font-size="11.733333333333334" font-family="sans-serif" text-anchor="end">3</text><line x1="20.973333333333333" y1="124.4630450849963" x2="17.306666666666665" y2="124.4630450849963" stroke="#444444" stroke-width="1.3333333333333333"/><text x="14.373333333333335" y="128.56971175166296" fill="#333333" font-size="11.733333333333334" font-family="sans-serif" text-anchor="end">4</text><line x1="20.973333333333333" y1="46.63599408721359" x2="17.306666666666665" y2="46.63599408721359" stroke="#444444" stroke-width="1.3333333333333333"/><text x="14.373333333333335" y="50.74266075388025" fill="#333333" font-size="11.733333333333334" font-family="sans-serif" text-anchor="end">5</text><circle cx="48.05030303030303" cy="342.3787878787879" r="3.1181102362204727" fill="#1f77b4" fill-opacity="0.85" stroke="none"><title>(200, 1.2)</title></circle><circle cx="115.74272727272728" cy="280.1171470805617" r="3.1181102362204727" fill="#1f77b4" fill-opacity="0.85" stroke="none"><title>(220, 2)</title></circle><circle cx="183.4351515151515" cy="303.4652623798965" r="3.1181102362204727" fill="#1f77b4" fill-opacity="0.85" stroke="none"><title>(240, 1.7)</title></circle><circle cx="251.1275757575757" cy="194.50739098300073" r="3.1181102362204727" fill="#1f77b4" fill-opacity="0.85" stroke="none"><title>(260, 3.1)</title></circle><circle cx="318.81999999999994" cy="217.85550628233557" r="3.1181102362204727" fill="#1f77b4" fill-opacity="0.85" stroke="none"><title>(280, 2.8)</title></circle><circle cx="386.51242424242423" cy="108.89763488543974" r="3.1181102362204727" fill="#1f77b4" fill-opacity="0.85" stroke="none"><title>(300, 4.2)</title></circle><circle cx="454.2048484848485" cy="132.24575018477458" r="3.1181102362204727" fill="#1f77b4" fill-opacity="0.85" stroke="none"><title>(320, 3.9)</title></circle><circle cx="521.8972727272727" cy="23.287878787878828" r="3.1181102362204727" fill="#1f77b4" fill-opacity="0.85" stroke="none"><title>(340, 5.3)</title></circle><circle cx="589.5896969696969" cy="46.63599408721359" r="3.1181102362204727" fill="#1f77b4" fill-opacity="0.85" stroke="none"><title>(360, 5)</title></circle><line x1="48.05030303030303" y1="308.65373244641535" x2="53.520397918579704" y2="308.65373244641535" stroke="#1f77b4" stroke-width="1.4211023622047245"/><line x1="53.520397918579704" y1="308.65373244641535" x2="58.99049280685646" y2="308.65373244641535" stroke="#1f77b4" stroke-width="1.4211023622047245"/><line x1="58.99049280685646" y1="308.65373244641535" x2="64.46058769513314" y2="308.65373244641535" stroke="#1f77b4" stroke-width="1.4211023622047245"/><line x1="64.46058769513314" y1="308.65373244641535" x2="69.93068258340989" y2="308.65373244641535" stroke="#1f77b4" stroke-width="1.4211023622047245"/><line x1="69.93068258340989" y1="308.65373244641535" x2="75.40077747168655" y2="308.65373244641535" stroke="#1f77b4" stroke-width="1.4211023622047245"/><line x1="75.40077747168655" y1="308.65373244641535" x2="80.87087235996324" y2="308.65373244641535" stroke="#1f77b4" stroke-width="1.4211023622047245"/><line x1="80.87087235996324" y1="308.65373244641535" x2="86.34096724823999" y2="308.65373244641535" stroke="#1f77b4" stroke-width="1.4211023622047245"/><line x1="86.34096724823999" y1="308.65373244641535" x2="91.81106213651665" y2="308.65373244641535" stroke="#1f77b4" stroke-width="1.4211023622047245"/><line x1="91.81106213651665" y1="308.65373244641535" x2="97.28115702479334" y2="308.65373244641535" stroke="#1f77b4" stroke-width="1.4211023622047245"/><line x1="97.28115702479334" y1="308.65373244641535" x2="102.75125191307012" y2="308.65373244641535" stroke="#1f77b4" stroke-width="1.4211023622047245"/><line x1="102.75125191307012" y1="308.65373244641535" x2="108.22134680134678" y2="308.65373244641535" stroke="#1f77b4" stroke-width="1.4211023622047245"/><line x1="108.22134680134678" y1="308.65373244641535" x2="113.69144168962356" y2="308.65373244641535" stroke="#1f77b4" stroke-width="1.4211023622047245"/><line x1="113.69144168962356" y1="308.65373244641535" x2="119.16153657790022" y2="308.65373244641535" stroke="#1f77b4" stroke-width="1.4211023622047245"/><line x1="119.16153657790022" y1="308.65373244641535" x2="124.63163146617688" y2="308.65373244641535" stroke="#1f77b4" stroke-width="1.4211023622047245"/><line x1="124.63163146617688" y1="308.65373244641535" x2="130.10172635445366" y2="308.65373244641535" stroke="#1f77b4" stroke-width="1.4211023622047245"/><line x1="130.10172635445366" y1="308.65373244641535" x2="135.57182124273032" y2="308.65373244641535" stroke="#1f77b4" stroke-width="1.4211023622047245"/><line x1="135.57182124273032" y1="308.65373244641535" x2="141.04191613100699" y2="308.65373244641535" stroke="#1f77b4" stroke-width="1.4211023622047245"/><line x1="141.04191613100699" y1="308.65373244641535" x2="146.51201101928376" y2="308.65373244641535" stroke="#1f77b4" stroke-width="1.4211023622047245"/><line x1="146.51201101928376" y1="308.65373244641535" x2="151.98210590756042" y2="259.3632668144863" stroke="#1f77b4" stroke-width="1.4211023622047245"/><line x1="151.98210590756042" y1="259.3632668144863" x2="157.4522007958372" y2="259.3632668144863" stroke="#1f77b4" stroke-width="1.4211023622047245"/><line x1="157.4522007958372" y1="259.3632668144863" x2="162.92229568411386" y2="259.3632668144863" stroke="#1f77b4" stroke-width="1.4211023622047245"/><line x1="162.92229568411386" y1="259.3632668144863" x2="168.39239057239052" y2="259.3632668144863" stroke="#1f77b4" stroke-width="1.4211023622047245"/><line x1="168.39239057239052" y1="259.3632668144863" x2="173.86248546066727" y2="259.3632668144863" stroke="#1f77b4" stroke-width="1.4211023622047245"/><line x1="173.86248546066727" y1="259.3632668144863" x2="179.33258034894394" y2="259.3632668144863" stroke="#1f77b4" stroke-width="1.4211023622047245"/><line x1="179.33258034894394" y1="259.3632668144863" x2="184.8026752372207" y2="259.36326681448634" stroke="#1f77b4" stroke-width="1.4211023622047245"/><line x1="184.8026752372207" y1="259.36326681448634" x2="190.27277012549737" y2="259.36326681448634" stroke="#1f77b4" stroke-width="1.4211023622047245"/><line x1="190.27277012549737" y1="259.36326681448634" x2="195.74286501377404" y2="259.36326681448634" stroke="#1f77b4" stroke-width="1.4211023622047245"/><line x1="195.74286501377404" y1="259.36326681448634" x2="201.2129599020508" y2="259.36326681448634" stroke="#1f77b4" stroke-width="1.4211023622047245"/><line x1="201.2129599020508" y1="259.36326681448634" x2="206.68305479032747" y2="259.36326681448634" stroke="#1f77b4" stroke-width="1.4211023622047245"/><line x1="206.68305479032747" y1="259.36326681448634" x2="212.15314967860425" y2="259.36326681448634" stroke="#1f77b4" stroke-width="1.4211023622047245"/><line x1="212.15314967860425" y1="259.36326681448634" x2="217.6232445668809" y2="238.60938654841095" stroke="#1f77b4" stroke-width="1.4211023622047245"/><line x1="217.6232445668809" y1="238.60938654841095" x2="223.09333945515758" y2="238.60938654841095" stroke="#1f77b4" stroke-width="1.4211023622047245"/><line x1="223.09333945515758" y1="238.60938654841095" x2="228.56343434343435" y2="238.60938654841095" stroke="#1f77b4" stroke-width="1.4211023622047245"/><line x1="228.56343434343435" y1="238.60938654841095" x2="234.03352923171101" y2="238.60938654841095" stroke="#1f77b4" stroke-width="1.4211023622047245"/><line x1="234.03352923171101" y1="238.60938654841095" x2="239.5036241199878" y2="238.60938654841095" stroke="#1f77b4" stroke-width="1.4211023622047245"/><line x1="239.5036241199878" y1="238.60938654841095" x2="244.97371900826445" y2="238.60938654841095" stroke="#1f77b4" stroke-width="1.4211023622047245"/><line x1="244.97371900826445" y1="238.60938654841095" x2="250.44381389654112" y2="238.60938654841095" stroke="#1f77b4" stroke-width="1.4211023622047245"/><line x1="250.44381389654112" y1="238.60938654841095" x2="255.91390878481778" y2="238.6093865484109" stroke="#1f77b4" stroke-width="1.4211023622047245"/><line x1="255.91390878481778" y1="238.6093865484109" x2="261.38400367309447" y2="238.6093865484109" stroke="#1f77b4" stroke-width="1.4211023622047245"/><line x1="261.38400367309447" y1="238.6093865484109" x2="266.8540985613713" y2="238.6093865484109" stroke="#1f77b4" stroke-width="1.4211023622047245"/><line x1="266.8540985613713" y1="238.6093865484109" x2="272.32419344964796" y2="238.6093865484109" stroke="#1f77b4" stroke-width="1.4211023622047245"/><line x1="272.32419344964796" y1="238.6093865484109" x2="277.7942883379246" y2="238.6093865484109" stroke="#1f77b4" stroke-width="1.4211023622047245"/><line x1="277.7942883379246" y1="238.6093865484109" x2="283.2643832262013" y2="238.6093865484109" stroke="#1f77b4" stroke-width="1.4211023622047245"/><line x1="283.2643832262013" y1="238.6093865484109" x2="288.73447811447795" y2="173.7535107169253" stroke="#1f77b4" stroke-width="1.4211023622047245"/><line x1="288.73447811447795" y1="173.7535107169253" x2="294.20457300275484" y2="173.7535107169253" stroke="#1f77b4" stroke-width="1.4211023622047245"/><line x1="294.20457300275484" y1="173.7535107169253" x2="299.6746678910315" y2="173.7535107169253" stroke="#1f77b4" stroke-width="1.4211023622047245"/><line x1="299.6746678910315" y1="173.7535107169253" x2="305.14476277930817" y2="173.7535107169253" stroke="#1f77b4" stroke-width="1.4211023622047245"/><line x1="305.14476277930817" y1="173.7535107169253" x2="310.61485766758483" y2="173.7535107169253" stroke="#1f77b4" stroke-width="1.4211023622047245"/><line x1="310.61485766758483" y1="173.7535107169253" x2="316.08495255586155" y2="173.7535107169253" stroke="#1f77b4" stroke-width="1.4211023622047245"/><line x1="316.08495255586155" y1="173.7535107169253" x2="321.5550474441384" y2="173.75351071692535" stroke="#1f77b4" stroke-width="1.4211023622047245"/><line x1="321.5550474441384" y1="173.75351071692535" x2="327.02514233241504" y2="173.75351071692535" stroke="#1f77b4" stroke-width="1.4211023622047245"/><line x1="327.02514233241504" y1="173.75351071692535" x2="332.49523722069176" y2="173.75351071692535" stroke="#1f77b4" stroke-width="1.4211023622047245"/><line x1="332.49523722069176" y1="173.75351071692535" x2="337.96533210896837" y2="173.75351071692535" stroke="#1f77b4" stroke-width="1.4211023622047245"/><line x1="337.96533210896837" y1="173.75351071692535" x2="343.4354269972451" y2="173.75351071692535" stroke="#1f77b4" stroke-width="1.4211023622047245"/><line x1="343.4354269972451" y1="173.75351071692535" x2="348.9055218855219" y2="173.75351071692535" stroke="#1f77b4" stroke-width="1.4211023622047245"/><line x1="348.9055218855219" y1="173.75351071692535" x2="354.37561677379864" y2="152.99963045084996" stroke="#1f77b4" stroke-width="1.4211023622047245"/><line x1="354.37561677379864" y1="152.99963045084996" x2="359.8457116620753" y2="152.99963045084996" stroke="#1f77b4" stroke-width="1.4211023622047245"/><line x1="359.8457116620753" y1="152.99963045084996" x2="365.31580655035197" y2="152.99963045084996" stroke="#1f77b4" stroke-width="1.4211023622047245"/><line x1="365.31580655035197" y1="152.99963045084996" x2="370.7859014386286" y2="152.99963045084996" stroke="#1f77b4" stroke-width="1.4211023622047245"/><line x1="370.7859014386286" y1="152.99963045084996" x2="376.2559963269055" y2="152.99963045084996" stroke="#1f77b4" stroke-width="1.4211023622047245"/><line x1="376.2559963269055" y1="152.99963045084996" x2="381.7260912151822" y2="152.99963045084996" stroke="#1f77b4" stroke-width="1.4211023622047245"/><line x1="381.7260912151822" y1="152.99963045084996" x2="387.19618610345884" y2="152.99963045085" stroke="#1f77b4" stroke-width="1.4211023622047245"/><line x1="387.19618610345884" y1="152.99963045085" x2="392.6662809917355" y2="152.99963045085" stroke="#1f77b4" stroke-width="1.4211023622047245"/><line x1="392.6662809917355" y1="152.99963045085" x2="398.13637588001217" y2="152.99963045085" stroke="#1f77b4" stroke-width="1.4211023622047245"/><line x1="398.13637588001217" y1="152.99963045085" x2="403.60647076828906" y2="152.99963045085" stroke="#1f77b4" stroke-width="1.4211023622047245"/><line x1="403.60647076828906" y1="152.99963045085" x2="409.0765656565657" y2="152.99963045085" stroke="#1f77b4" stroke-width="1.4211023622047245"/><line x1="409.0765656565657" y1="152.99963045085" x2="414.5466605448424" y2="152.99963045085" stroke="#1f77b4" stroke-width="1.4211023622047245"/><line x1="414.5466605448424" y1="152.99963045085" x2="420.01675543311904" y2="152.99963045085" stroke="#1f77b4" stroke-width="1.4211023622047245"/><line x1="420.01675543311904" y1="152.99963045085" x2="425.4868503213957" y2="88.14375461936439" stroke="#1f77b4" stroke-width="1.4211023622047245"/><line x1="425.4868503213957" y1="88.14375461936439" x2="430.9569452096726" y2="88.14375461936439" stroke="#1f77b4" stroke-width="1.4211023622047245"/><line x1="430.9569452096726" y1="88.14375461936439" x2="436.4270400979492" y2="88.14375461936439" stroke="#1f77b4" stroke-width="1.4211023622047245"/><line x1="436.4270400979492" y1="88.14375461936439" x2="441.8971349862259" y2="88.14375461936439" stroke="#1f77b4" stroke-width="1.4211023622047245"/><line x1="441.8971349862259" y1="88.14375461936439" x2="447.3672298745026" y2="88.14375461936439" stroke="#1f77b4" stroke-width="1.4211023622047245"/><line x1="447.3672298745026" y1="88.14375461936439" x2="452.83732476277925" y2="88.14375461936439" stroke="#1f77b4" stroke-width="1.4211023622047245"/><line x1="452.83732476277925" y1="88.14375461936439" x2="458.3074196510561" y2="88.14375461936439" stroke="#1f77b4" stroke-width="1.4211023622047245"/><line x1="458.3074196510561" y1="88.14375461936439" x2="463.77751453933257" y2="88.14375461936439" stroke="#1f77b4" stroke-width="1.4211023622047245"/><line x1="463.77751453933257" y1="88.14375461936439" x2="469.24760942760946" y2="88.14375461936439" stroke="#1f77b4" stroke-width="1.4211023622047245"/><line x1="469.24760942760946" y1="88.14375461936439" x2="474.7177043158861" y2="88.14375461936439" stroke="#1f77b4" stroke-width="1.4211023622047245"/><line x1="474.7177043158861" y1="88.14375461936439" x2="480.18779920416284" y2="88.14375461936439" stroke="#1f77b4" stroke-width="1.4211023622047245"/><line x1="480.18779920416284" y1="88.14375461936439" x2="485.6578940924397" y2="88.14375461936439" stroke="#1f77b4" stroke-width="1.4211023622047245"/><line x1="485.6578940924397" y1="88.14375461936439" x2="491.1279889807161" y2="67.38987435328897" stroke="#1f77b4" stroke-width="1.4211023622047245"/><line x1="491.1279889807161" y1="67.38987435328897" x2="496.598083868993" y2="67.38987435328897" stroke="#1f77b4" stroke-width="1.4211023622047245"/><line x1="496.598083868993" y1="67.38987435328897" x2="502.06817875726966" y2="67.38987435328897" stroke="#1f77b4" stroke-width="1.4211023622047245"/><line x1="502.06817875726966" y1="67.38987435328897" x2="507.5382736455463" y2="67.38987435328897" stroke="#1f77b4" stroke-width="1.4211023622047245"/><line x1="507.5382736455463" y1="67.38987435328897" x2="513.0083685338232" y2="67.38987435328897" stroke="#1f77b4" stroke-width="1.4211023622047245"/><line x1="513.0083685338232" y1="67.38987435328897" x2="518.4784634220996" y2="67.38987435328897" stroke="#1f77b4" stroke-width="1.4211023622047245"/><line x1="518.4784634220996" y1="67.38987435328897" x2="523.9485583103765" y2="67.38987435328897" stroke="#1f77b4" stroke-width="1.4211023622047245"/><line x1="523.9485583103765" y1="67.38987435328897" x2="529.4186531986531" y2="67.38987435328897" stroke="#1f77b4" stroke-width="1.4211023622047245"/><line x1="529.4186531986531" y1="67.38987435328897" x2="534.8887480869298" y2="67.38987435328897" stroke="#1f77b4" stroke-width="1.4211023622047245"/><line x1="534.8887480869298" y1="67.38987435328897" x2="540.3588429752067" y2="67.38987435328897" stroke="#1f77b4" stroke-width="1.4211023622047245"/><line x1="540.3588429752067" y1="67.38987435328897" x2="545.8289378634832" y2="67.38987435328897" stroke="#1f77b4" stroke-width="1.4211023622047245"/><line x1="545.8289378634832" y1="67.38987435328897" x2="551.29903275176" y2="67.38987435328897" stroke="#1f77b4" stroke-width="1.4211023622047245"/><line x1="551.29903275176" y1="67.38987435328897" x2="556.7691276400367" y2="67.38987435328897" stroke="#1f77b4" stroke-width="1.4211023622047245"/><line x1="556.7691276400367" y1="67.38987435328897" x2="562.2392225283133" y2="67.38987435328897" stroke="#1f77b4" stroke-width="1.4211023622047245"/><line x1="562.2392225283133" y1="67.38987435328897" x2="567.7093174165901" y2="67.38987435328897" stroke="#1f77b4" stroke-width="1.4211023622047245"/><line x1="567.7093174165901" y1="67.38987435328897" x2="573.1794123048667" y2="67.38987435328897" stroke="#1f77b4" stroke-width="1.4211023622047245"/><line x1="573.1794123048667" y1="67.38987435328897" x2="578.6495071931436" y2="67.38987435328897" stroke="#1f77b4" stroke-width="1.4211023622047245"/><line x1="578.6495071931436" y1="67.38987435328897" x2="584.1196020814202" y2="67.38987435328897" stroke="#1f77b4" stroke-width="1.4211023622047245"/><line x1="584.1196020814202" y1="67.38987435328897" x2="589.5896969696969" y2="67.38987435328897" stroke="#1f77b4" stroke-width="1.4211023622047245"/></svg>