<svg xmlns="http://www.w3.org/2000/svg" width="624" height="384" viewBox="0 0 624 384"><rect x="0.0" y="0.0" width="624.0" height="384.0" fill="#ffffff" fill-opacity="1.0" stroke="none"/><line x1="126.42321831165219" y1="32.266666666666666" x2="126.42321831165219" y2="340.0" stroke="#dddddd" stroke-width="0.6666666666666666"/><line x1="253.84099554101718" y1="32.266666666666666" x2="253.84099554101718" y2="340.0" stroke="#dddddd" stroke-width="0.6666666666666666"/><line x1="381.2587727703823" y1="32.266666666666666" x2="381.2587727703823" y2="340.0" stroke="#dddddd" stroke-width="0.6666666666666666"/><line x1="508.67654999974735" y1="32.266666666666666" x2="508.67654999974735" y2="340.0" stroke="#dddddd" stroke-width="0.6666666666666666"/><line x1="62.714329696969656" y1="32.266666666666666" x2="62.714329696969656" y2="340.0" stroke="#dddddd" stroke-width="1.3333333333333333"/><line x1="190.1321069263347" y1="32.266666666666666" x2="190.1321069263347" y2="340.0" stroke="#dddddd" stroke-width="1.3333333333333333"/><line x1="317.5498841556997" y1="32.266666666666666" x2="317.5498841556997" y2="340.0" stroke="#dddddd" stroke-width="1.3333333333333333"/><line x1="444.9676613850648" y1="32.266666666666666" x2="444.9676613850648" y2="340.0" stroke="#dddddd" stroke-width="1.3333333333333333"/><line x1="39.306666666666665" y1="284.86512862215955" x2="554.2752533333334" y2="284.86512862215955" stroke="#dddddd" stroke-width="0.6666666666666666"/><line x1="39.306666666666665" y1="202.57114344223626" x2="554.2752533333334" y2="202.57114344223626" stroke="#dddddd" stroke-width="0.6666666666666666"/><line x1="39.306666666666665" y1="120.277158262313" x2="554.2752533333334" y2="120.277158262313" stroke="#dddddd" stroke-width="0.6666666666666666"/><line x1="39.306666666666665" y1="37.983173082389726" x2="554.2752533333334" y2="37.983173082389726" stroke="#dddddd" stroke-width="0.6666666666666666"/><line x1="39.306666666666665" y1="326.0121212121212" x2="554.2752533333334" y2="326.0121212121212" stroke="#dddddd" stroke-width="1.3333333333333333"/><line x1="39.306666666666665" y1="243.71813603219792" x2="554.2752533333334" y2="243.71813603219792" stroke="#dddddd" stroke-width="1.3333333333333333"/><line x1="39.306666666666665" y1="161.42415085227464" x2="554.2752533333334" y2="161.42415085227464" stroke="#dddddd" stroke-width="1.3333333333333333"/><line x1="39.306666666666665" y1="79.13016567235138" x2="554.2752533333334" y2="79.13016567235138" stroke="#dddddd" stroke-width="1.3333333333333333"/><rect x="39.306666666666665" y="32.266666666666666" width="514.9685866666666" height="307.73333333333335" fill="#ffffff" fill-opacity="0.0" stroke="#444444" stroke-width="1.3333333333333333"/><line x1="62.714329696969656" y1="340.0" x2="62.714329696969656" y2="343.66666666666663" stroke="#444444" stroke-width="1.3333333333333333"/><text x="62.714329696969656" y="355.9866666666667" fill="#333333" font-size="11.733333333333334" font-family="sans-serif" text-anchor="middle">-3</text><line x1="190.1321069263347" y1="340.0" x2="190.1321069263347" y2="343.66666666666663" stroke="#444444" stroke-width="1.3333333333333333"/><text x="190.1321069263347" y="355.9866666666667" fill="#333333" font-size="11.733333333333334" font-family="sans-serif" text-anchor="middle">-2</text><line x1="317.5498841556997" y1="340.0" x2="317.5498841556997" y2="343.66666666666663" stroke="#444444" stroke-width="1.3333333333333333"/><text x="317.5498841556997" y="355.9866666666667" fill="#333333" font-size="11.733333333333334" font-family="sans-serif" text-anchor="middle">-1</text><line x1="444.9676613850648" y1="340.0" x2="444.9676613850648" y2="343.66666666666663" stroke="#444444" stroke-width="1.3333333333333333"/><text x="444.9676613850648" y="355.9866666666667" fill="#333333" font-size="11.733333333333334" font-family="sans-serif" text-anchor="middle">0</text><line x1="39.306666666666665" y1="326.0121212121212" x2="35.64" y2="326.0121212121212" stroke="#444444" stroke-width="1.3333333333333333"/><text x="32.70666666666666" y="330.1187878787879" fill="#333333" font-size="11.733333333333334" font-family="sans-serif" text-anchor="end">0</text><line x1="39.306666666666665" y1="243.71813603219792" x2="35.64" y2="243.71813603219792" stroke="#444444" stroke-width="1.3333333333333333"/><text x="32.70666666666666" y="247.8248026988646" fill="#333333" font-size="11.733333333333334" font-family="sans-serif" text-anchor="end">1</text><line x1="39.306666666666665" y1="161.42415085227464" x2="35.64" y2="161.42415085227464" stroke="#444444" stroke-width="1.3333333333333333"/><text x="32.70666666666666" y="165.53081751894132" fill="#333333" font-size="11.733333333333334" font-family="sans-serif" text-anchor="end">2</text><line x1="39.306666666666665" y1="79.13016567235138" x2="35.64" y2="79.13016567235138" stroke="#444444" stroke-width="1.3333333333333333"/><text x="32.70666666666666" y="83.23683233901804" fill="#333333" font-size="11.733333333333334" font-family="sans-serif" text-anchor="end">3</text><text x="39.306666666666665" y="21.413333333333334" fill="#333333" font-size="17.599999999999998" font-family="sans-serif" text-anchor="start">LASSO coefficient path</text><text x="296.79096" y="373.73333333333335" fill="#333333" font-size="14.666666666666666" font-family="sans-serif" text-anchor="middle">log10(lambda)</text><text x="17.599999999999998" y="186.13333333333333" fill="#333333" font-size="14.666666666666666" font-family="sans-serif" text-anchor="middle" transform="rotate(-90.0 17.599999999999998 186.13333333333333)">coef</text><line x1="62.71432969696971" y1="326.0121212121212" x2="88.72284417508416" y2="326.0121212121212" stroke="#F8766D" stroke-width="1.4211023622047245"/><line x1="88.72284417508416" y1="326.0121212121212" x2="114.73135865319867" y2="326.0121212121212" stroke="#F8766D" stroke-width="1.4211023622047245"/><line x1="114.73135865319867" y1="326.0121212121212" x2="140.73987313131312" y2="326.0121212121212" stroke="#F8766D" stroke-width="1.4211023622047245"/><line x1="140.73987313131312" y1="326.0121212121212" x2="166.74838760942757" y2="326.0121212121212" stroke="#F8766D" stroke-width="1.4211023622047245"/><line x1="166.74838760942757" y1="326.0121212121212" x2="192.75690208754207" y2="326.0121212121212" stroke="#F8766D" stroke-width="1.4211023622047245"/><line x1="192.75690208754207" y1="326.0121212121212" x2="218.76541656565655" y2="326.0121212121212" stroke="#F8766D" stroke-width="1.4211023622047245"/><line x1="218.76541656565655" y1="326.0121212121212" x2="244.77393104377103" y2="326.0121212121212" stroke="#F8766D" stroke-width="1.4211023622047245"/><line x1="244.77393104377103" y1="326.0121212121212" x2="270.7824455218855" y2="326.0121212121212" stroke="#F8766D" stroke-width="1.4211023622047245"/><line x1="270.7824455218855" y1="326.0121212121212" x2="296.79096" y2="326.0121212121212" stroke="#F8766D" stroke-width="1.4211023622047245"/><line x1="296.79096" y1="326.0121212121212" x2="322.7994744781145" y2="326.0121212121212" stroke="#F8766D" stroke-width="1.4211023622047245"/><line x1="322.7994744781145" y1="326.0121212121212" x2="348.80798895622894" y2="326.0121212121212" stroke="#F8766D" stroke-width="1.4211023622047245"/><line x1="348.80798895622894" y1="326.0121212121212" x2="374.8165034343434" y2="326.0121212121212" stroke="#F8766D" stroke-width="1.4211023622047245"/><line x1="374.8165034343434" y1="326.0121212121212" x2="400.82501791245795" y2="326.0121212121212" stroke="#F8766D" stroke-width="1.4211023622047245"/><line x1="400.82501791245795" y1="326.0121212121212" x2="426.83353239057243" y2="326.0121212121212" stroke="#F8766D" stroke-width="1.4211023622047245"/><line x1="426.83353239057243" y1="326.0121212121212" x2="452.8420468686869" y2="326.0121212121212" stroke="#F8766D" stroke-width="1.4211023622047245"/><line x1="452.8420468686869" y1="326.0121212121212" x2="478.8505613468013" y2="326.0121212121212" stroke="#F8766D" stroke-width="1.4211023622047245"/><line x1="478.8505613468013" y1="326.0121212121212" x2="504.8590758249159" y2="326.0121212121212" stroke="#F8766D" stroke-width="1.4211023622047245"/><line x1="504.8590758249159" y1="326.0121212121212" x2="530.8675903030303" y2="326.0121212121212" stroke="#F8766D" stroke-width="1.4211023622047245"/><line x1="62.71432969696971" y1="46.25454545454545" x2="88.72284417508416" y2="81.32732866634781" stroke="#B79F00" stroke-width="1.4211023622047245"/><line x1="88.72284417508416" y1="81.32732866634781" x2="114.73135865319867" y2="81.41440811330895" stroke="#B79F00" stroke-width="1.4211023622047245"/><line x1="114.73135865319867" y1="81.41440811330895" x2="140.73987313131312" y2="81.56395353844296" stroke="#B79F00" stroke-width="1.4211023622047245"/><line x1="140.73987313131312" y1="81.56395353844296" x2="166.74838760942757" y2="81.80343407140984" stroke="#B79F00" stroke-width="1.4211023622047245"/><line x1="166.74838760942757" y1="81.80343407140984" x2="192.75690208754207" y2="82.18346284434031" stroke="#B79F00" stroke-width="1.4211023622047245"/><line x1="192.75690208754207" y1="82.18346284434031" x2="218.76541656565655" y2="82.79147392671541" stroke="#B79F00" stroke-width="1.4211023622047245"/><line x1="218.76541656565655" y1="82.79147392671541" x2="244.77393104377103" y2="83.7628816802285" stroke="#B79F00" stroke-width="1.4211023622047245"/><line x1="244.77393104377103" y1="83.7628816802285" x2="270.7824455218855" y2="85.31569356017101" stroke="#B79F00" stroke-width="1.4211023622047245"/><line x1="270.7824455218855" y1="85.31569356017101" x2="296.79096" y2="87.80658281973015" stroke="#B79F00" stroke-width="1.4211023622047245"/><line x1="296.79096" y1="87.80658281973015" x2="322.7994744781145" y2="91.78937788778428" stroke="#B79F00" stroke-width="1.4211023622047245"/><line x1="322.7994744781145" y1="91.78937788778428" x2="348.80798895622894" y2="98.15972343537999" stroke="#B79F00" stroke-width="1.4211023622047245"/><line x1="348.80798895622894" y1="98.15972343537999" x2="374.8165034343434" y2="108.3525590452156" stroke="#B79F00" stroke-width="1.4211023622047245"/><line x1="374.8165034343434" y1="108.3525590452156" x2="400.82501791245795" y2="124.65988009361547" stroke="#B79F00" stroke-width="1.4211023622047245"/><line x1="400.82501791245795" y1="124.65988009361547" x2="426.83353239057243" y2="150.75756411784417" stroke="#B79F00" stroke-width="1.4211023622047245"/><line x1="426.83353239057243" y1="150.75756411784417" x2="452.8420468686869" y2="192.5072048877386" stroke="#B79F00" stroke-width="1.4211023622047245"/><line x1="452.8420468686869" y1="192.5072048877386" x2="478.8505613468013" y2="278.3048977242198" stroke="#B79F00" stroke-width="1.4211023622047245"/><line x1="478.8505613468013" y1="278.3048977242198" x2="504.8590758249159" y2="326.0121212121212" stroke="#B79F00" stroke-width="1.4211023622047245"/><line x1="504.8590758249159" y1="326.0121212121212" x2="530.8675903030303" y2="326.0121212121212" stroke="#B79F00" stroke-width="1.4211023622047245"/><line x1="62.71432969696971" y1="244.78260624821752" x2="88.72284417508416" y2="209.01977982758754" stroke="#00BA38" stroke-width="1.4211023622047245"/><line x1="88.72284417508416" y1="209.01977982758754" x2="114.73135865319867" y2="209.09652736186723" stroke="#00BA38" stroke-width="1.4211023622047245"/><line x1="114.73135865319867" y1="209.09652736186723" x2="140.73987313131312" y2="209.21014244490516" stroke="#00BA38" stroke-width="1.4211023622047245"/><line x1="140.73987313131312" y1="209.21014244490516" x2="166.74838760942757" y2="209.3917398257335" stroke="#00BA38" stroke-width="1.4211023622047245"/><line x1="166.74838760942757" y1="209.3917398257335" x2="192.75690208754207" y2="209.68511694153372" stroke="#00BA38" stroke-width="1.4211023622047245"/><line x1="192.75690208754207" y1="209.68511694153372" x2="218.76541656565655" y2="210.15455173265184" stroke="#00BA38" stroke-width="1.4211023622047245"/><line x1="218.76541656565655" y1="210.15455173265184" x2="244.77393104377103" y2="210.90691423913532" stroke="#00BA38" stroke-width="1.4211023622047245"/><line x1="244.77393104377103" y1="210.90691423913532" x2="270.7824455218855" y2="212.11198853649148" stroke="#00BA38" stroke-width="1.4211023622047245"/><line x1="270.7824455218855" y1="212.11198853649148" x2="296.79096" y2="214.03436588355248" stroke="#00BA38" stroke-width="1.4211023622047245"/><line x1="296.79096" y1="214.03436588355248" x2="322.7994744781145" y2="217.11253062352424" stroke="#00BA38" stroke-width="1.4211023622047245"/><line x1="322.7994744781145" y1="217.11253062352424" x2="348.80798895622894" y2="222.0395048853963" stroke="#00BA38" stroke-width="1.4211023622047245"/><line x1="348.80798895622894" y1="222.0395048853963" x2="374.8165034343434" y2="229.92240967315007" stroke="#00BA38" stroke-width="1.4211023622047245"/><line x1="374.8165034343434" y1="229.92240967315007" x2="400.82501791245795" y2="242.53614982288224" stroke="#00BA38" stroke-width="1.4211023622047245"/><line x1="400.82501791245795" y1="242.53614982288224" x2="426.83353239057243" y2="262.71276981087556" stroke="#00BA38" stroke-width="1.4211023622047245"/><line x1="426.83353239057243" y1="262.71276981087556" x2="452.8420468686869" y2="295.001339996115" stroke="#00BA38" stroke-width="1.4211023622047245"/><line x1="452.8420468686869" y1="295.001339996115" x2="478.8505613468013" y2="326.0121212121212" stroke="#00BA38" stroke-width="1.4211023622047245"/><line x1="478.8505613468013" y1="326.0121212121212" x2="504.8590758249159" y2="326.0121212121212" stroke="#00BA38" stroke-width="1.4211023622047245"/><line x1="504.8590758249159" y1="326.0121212121212" x2="530.8675903030303" y2="326.0121212121212" stroke="#00BA38" stroke-width="1.4211023622047245"/><line x1="62.71432969696971" y1="326.0121212121212" x2="88.72284417508416" y2="326.0121212121212" stroke="#00BFC4" stroke-width="1.4211023622047245"/><line x1="88.72284417508416" y1="326.0121212121212" x2="114.73135865319867" y2="326.0121212121212" stroke="#00BFC4" stroke-width="1.4211023622047245"/><line x1="114.73135865319867" y1="326.0121212121212" x2="140.73987313131312" y2="326.0121212121212" stroke="#00BFC4" stroke-width="1.4211023622047245"/><line x1="140.73987313131312" y1="326.0121212121212" x2="166.74838760942757" y2="326.0121212121212" stroke="#00BFC4" stroke-width="1.4211023622047245"/><line x1="166.74838760942757" y1="326.0121212121212" x2="192.75690208754207" y2="326.0121212121212" stroke="#00BFC4" stroke-width="1.4211023622047245"/><line x1="192.75690208754207" y1="326.0121212121212" x2="218.76541656565655" y2="326.0121212121212" stroke="#00BFC4" stroke-width="1.4211023622047245"/><line x1="218.76541656565655" y1="326.0121212121212" x2="244.77393104377103" y2="326.0121212121212" stroke="#00BFC4" stroke-width="1.4211023622047245"/><line x1="244.77393104377103" y1="326.0121212121212" x2="270.7824455218855" y2="326.0121212121212" stroke="#00BFC4" stroke-width="1.4211023622047245"/><line x1="270.7824455218855" y1="326.0121212121212" x2="296.79096" y2="326.0121212121212" stroke="#00BFC4" stroke-width="1.4211023622047245"/><line x1="296.79096" y1="326.0121212121212" x2="322.7994744781145" y2="326.0121212121212" stroke="#00BFC4" stroke-width="1.4211023622047245"/><line x1="322.7994744781145" y1="326.0121212121212" x2="348.80798895622894" y2="326.0121212121212" stroke="#00BFC4" stroke-width="1.4211023622047245"/><line x1="348.80798895622894" y1="326.0121212121212" x2="374.8165034343434" y2="326.0121212121212" stroke="#00BFC4" stroke-width="1.4211023622047245"/><line x1="374.8165034343434" y1="326.0121212121212" x2="400.82501791245795" y2="326.0121212121212" stroke="#00BFC4" stroke-width="1.4211023622047245"/><line x1="400.82501791245795" y1="326.0121212121212" x2="426.83353239057243" y2="326.0121212121212" stroke="#00BFC4" stroke-width="1.4211023622047245"/><line x1="426.83353239057243" y1="326.0121212121212" x2="452.8420468686869" y2="326.0121212121212" stroke="#00BFC4" stroke-width="1.4211023622047245"/><line x1="452.8420468686869" y1="326.0121212121212" x2="478.8505613468013" y2="326.0121212121212" stroke="#00BFC4" stroke-width="1.4211023622047245"/><line x1="478.8505613468013" y1="326.0121212121212" x2="504.8590758249159" y2="326.0121212121212" stroke="#00BFC4" stroke-width="1.4211023622047245"/><line x1="504.8590758249159" y1="326.0121212121212" x2="530.8675903030303" y2="326.0121212121212" stroke="#00BFC4" stroke-width="1.4211023622047245"/><line x1="62.71432969696971" y1="310.9014422759588" x2="88.72284417508416" y2="326.0121212121212" stroke="#619CFF" stroke-width="1.4211023622047245"/><line x1="88.72284417508416" y1="326.0121212121212" x2="114.73135865319867" y2="326.0121212121212" stroke="#619CFF" stroke-width="1.4211023622047245"/><line x1="114.73135865319867" y1="326.0121212121212" x2="140.73987313131312" y2="326.0121212121212" stroke="#619CFF" stroke-width="1.4211023622047245"/><line x1="140.73987313131312" y1="326.0121212121212" x2="166.74838760942757" y2="326.0121212121212" stroke="#619CFF" stroke-width="1.4211023622047245"/><line x1="166.74838760942757" y1="326.0121212121212" x2="192.75690208754207" y2="326.0121212121212" stroke="#619CFF" stroke-width="1.4211023622047245"/><line x1="192.75690208754207" y1="326.0121212121212" x2="218.76541656565655" y2="326.0121212121212" stroke="#619CFF" stroke-width="1.4211023622047245"/><line x1="218.76541656565655" y1="326.0121212121212" x2="244.77393104377103" y2="326.0121212121212" stroke="#619CFF" stroke-width="1.4211023622047245"/><line x1="244.77393104377103" y1="326.0121212121212" x2="270.7824455218855" y2="326.0121212121212" stroke="#619CFF" stroke-width="1.4211023622047245"/><line x1="270.7824455218855" y1="326.0121212121212" x2="296.79096" y2="326.0121212121212" stroke="#619CFF" stroke-width="1.4211023622047245"/><line x1="296.79096" y1="326.0121212121212" x2="322.7994744781145" y2="326.0121212121212" stroke="#619CFF" stroke-width="1.4211023622047245"/><line x1="322.7994744781145" y1="326.0121212121212" x2="348.80798895622894" y2="326.0121212121212" stroke="#619CFF" stroke-width="1.4211023622047245"/><line x1="348.80798895622894" y1="326.0121212121212" x2="374.8165034343434" y2="326.0121212121212" stroke="#619CFF" stroke-width="1.4211023622047245"/><line x1="374.8165034343434" y1="326.0121212121212" x2="400.82501791245795" y2="326.0121212121212" stroke="#619CFF" stroke-width="1.4211023622047245"/><line x1="400.82501791245795" y1="326.0121212121212" x2="426.83353239057243" y2="326.0121212121212" stroke="#619CFF" stroke-width="1.4211023622047245"/><line x1="426.83353239057243" y1="326.0121212121212" x2="452.8420468686869" y2="326.0121212121212" stroke="#619CFF" stroke-width="1.4211023622047245"/><line x1="452.8420468686869" y1="326.0121212121212" x2="478.8505613468013" y2="326.0121212121212" stroke="#619CFF" stroke-width="1.4211023622047245"/><line x1="478.8505613468013" y1="326.0121212121212" x2="504.8590758249159" y2="326.0121212121212" stroke="#619CFF" stroke-width="1.4211023622047245"/><line x1="504.8590758249159" y1="326.0121212121212" x2="530.8675903030303" y2="326.0121212121212" stroke="#619CFF" stroke-width="1.4211023622047245"/><line x1="62.71432969696971" y1="326.0121212121212" x2="88.72284417508416" y2="326.0121212121212" stroke="#F564E3" stroke-width="1.4211023622047245"/><line x1="88.72284417508416" y1="326.0121212121212" x2="114.73135865319867" y2="326.0121212121212" stroke="#F564E3" stroke-width="1.4211023622047245"/><line x1="114.73135865319867" y1="326.0121212121212" x2="140.73987313131312" y2="326.0121212121212" stroke="#F564E3" stroke-width="1.4211023622047245"/><line x1="140.73987313131312" y1="326.0121212121212" x2="166.74838760942757" y2="326.0121212121212" stroke="#F564E3" stroke-width="1.4211023622047245"/><line x1="166.74838760942757" y1="326.0121212121212" x2="192.75690208754207" y2="326.0121212121212" stroke="#F564E3" stroke-width="1.4211023622047245"/><line x1="192.75690208754207" y1="326.0121212121212" x2="218.76541656565655" y2="326.0121212121212" stroke="#F564E3" stroke-width="1.4211023622047245"/><line x1="218.76541656565655" y1="326.0121212121212" x2="244.77393104377103" y2="326.0121212121212" stroke="#F564E3" stroke-width="1.4211023622047245"/><line x1="244.77393104377103" y1="326.0121212121212" x2="270.7824455218855" y2="326.0121212121212" stroke="#F564E3" stroke-width="1.4211023622047245"/><line x1="270.7824455218855" y1="326.0121212121212" x2="296.79096" y2="326.0121212121212" stroke="#F564E3" stroke-width="1.4211023622047245"/><line x1="296.79096" y1="326.0121212121212" x2="322.7994744781145" y2="326.0121212121212" stroke="#F564E3" stroke-width="1.4211023622047245"/><line x1="322.7994744781145" y1="326.0121212121212" x2="348.80798895622894" y2="326.0121212121212" stroke="#F564E3" stroke-width="1.4211023622047245"/><line x1="348.80798895622894" y1="326.0121212121212" x2="374.8165034343434" y2="326.0121212121212" stroke="#F564E3" stroke-width="1.4211023622047245"/><line x1="374.8165034343434" y1="326.0121212121212" x2="400.82501791245795" y2="326.0121212121212" stroke="#F564E3" stroke-width="1.4211023622047245"/><line x1="400.82501791245795" y1="326.0121212121212" x2="426.83353239057243" y2="326.0121212121212" stroke="#F564E3" stroke-width="1.4211023622047245"/><line x1="426.83353239057243" y1="326.0121212121212" x2="452.8420468686869" y2="326.0121212121212" stroke="#F564E3" stroke-width="1.4211023622047245"/><line x1="452.8420468686869" y1="326.0121212121212" x2="478.8505613468013" y2="326.0121212121212" stroke="#F564E3" stroke-width="1.4211023622047245"/><line x1="478.8505613468013" y1="326.0121212121212" x2="504.8590758249159" y2="326.0121212121212" stroke="#F564E3" stroke-width="1.4211023622047245"/><line x1="504.8590758249159" y1="326.0121212121212" x2="530.8675903030303" y2="326.0121212121212" stroke="#F564E3" stroke-width="1.4211023622047245"/><rect x="568.94192" y="116.79109333333335" width="23.114079999999994" height="138.68447999999995" fill="#ffffff" fill-opacity="1.0" stroke="none"/><rect x="569.8868018897638" y="117.73597522309713" width="21.224316220472435" height="21.224316220472435" fill="#F8766D" fill-opacity="0.0" stroke="#F8766D" stroke-width="1.3333333333333333"/><text x="595.7226666666667" y="132.1028" fill="#333333" font-size="11.733333333333334" font-family="sans-serif" text-anchor="start">b0</text><rect x="569.8868018897638" y="140.85005522309712" width="21.224316220472435" height="21.224316220472435" fill="#B79F00" fill-opacity="0.0" stroke="#B79F00" stroke-width="1.3333333333333333"/><text x="595.7226666666667" y="155.21688" fill="#333333" font-size="11.733333333333334" font-family="sans-serif" text-anchor="start">b1</text><rect x="569.8868018897638" y="163.96413522309712" width="21.224316220472435" height="21.224316220472435" fill="#00BA38" fill-opacity="0.0" stroke="#00BA38" stroke-width="1.3333333333333333"/><text x="595.7226666666667" y="178.33096" fill="#333333" font-size="11.733333333333334" font-family="sans-serif" text-anchor="start">b2</text><rect x="569.8868018897638" y="187.07821522309715" width="21.224316220472435" height="21.224316220472435" fill="#00BFC4" fill-opacity="0.0" stroke="#00BFC4" stroke-width="1.3333333333333333"/><text x="595.7226666666667" y="201.44504" fill="#333333" font-size="11.733333333333334" font-family="sans-serif" text-anchor="start">b3</text><rect x="569.8868018897638" y="210.19229522309712" width="21.224316220472435" height="21.224316220472435" fill="#619CFF" fill-opacity="0.0" stroke="#619CFF" stroke-width="1.3333333333333333"/><text x="595.7226666666667" y="224.55912" fill="#333333" font-size="11.733333333333334" font-family="sans-serif" text-anchor="start">b4</text><rect x="569.8868018897638" y="233.30637522309712" width="21.224316220472435" height="21.224316220472435" fill="#F564E3" fill-opacity="0.0" stroke="#F564E3" stroke-width="1.3333333333333333"/><text x="595.7226666666667" y="247.67319999999998" fill="#333333" font-size="11.733333333333334" font-family="sans-serif" text-anchor="start">b5</text></svg>