<svg xmlns="http://www.w3.org/2000/svg" width="624" height="384" viewBox="0 0 624 384"><rect x="0.0" y="0.0" width="624.0" height="384.0" fill="#ffffff" fill-opacity="1.0" stroke="none"/><text x="42.093333333333334" y="21.413333333333334" fill="#333333" font-size="17.599999999999998" font-family="sans-serif" text-anchor="start">LiNGAM causal DAG (df |-&gt; directLingam)</text><line x1="272.9664600333998" y1="66.43404226149084" x2="303.8060497462757" y2="99.90513159473267" stroke="#444444" stroke-width="2.0155551828245555"/><path d="M 312.91106455566427 109.78706474957926 L 300.3473731420794 103.09188677801866 L 307.264726350472 96.71837641144668 Z" fill="#444444" fill-opacity="1.0" stroke="none"/><line x1="400.0973195998678" y1="135.18828834316463" x2="342.99652422179554" y2="176.22454839673983" stroke="#444444" stroke-width="2.0155551828245555"/><path d="M 332.084998563543 184.06626411240677 L 340.25192372131215 172.40551441635142 L 345.741124722279 180.04358237712825 Z" fill="#444444" fill-opacity="1.0" stroke="none"/><line x1="323.9160768899641" y1="138.60511486136207" x2="320.146298389089" y2="167.2452543382017" stroke="#444444" stroke-width="2.0155551828245555"/><path d="M 318.3927643103875 180.56737938606378 L 315.48355462233724 166.63151741065622 L 324.8090421558407 167.8589912657472 Z" fill="#444444" fill-opacity="1.0" stroke="none"/><path d="M 260.48121943282 67.16056804052513 C 262.909238337 144.6354011688619 263.61973259706826 167.3063219523332 265.852535201203 238.55206425938422" fill="#000000" fill-opacity="0.0" stroke="#444444" stroke-width="2.0155551828245555"/><path d="M 266.27343787056554 251.98250502572017 L 261.1518809418254 238.699380193384 L 270.5531894605806 238.4047483253844 Z" fill="#444444" fill-opacity="1.0" stroke="none"/><line x1="306.9980514839397" y1="208.8906768895593" x2="283.641840757992" y2="242.46119130604177" stroke="#444444" stroke-width="2.0155551828245555"/><path d="M 275.9678054685122 253.49129012390648 L 279.78130617173935 239.77527895472386 L 287.5023753442446 245.1471036573597 Z" fill="#444444" fill-opacity="1.0" stroke="none"/><path d="M 316.4535727608185 210.0807380073801 C 316.4535727608185 255.66173340906508 316.4535727608185 270.31414484487686 316.4535727608185 310.00148943149566" fill="#000000" fill-opacity="0.0" stroke="#444444" stroke-width="2.0155551828245555"/><path d="M 316.4535727608185 323.43852398523984 L 311.7506106675612 310.00148943149566 L 321.1565348540758 310.00148943149566 Z" fill="#444444" fill-opacity="1.0" stroke="none"/><line x1="275.9678054685122" y1="280.0279718687134" x2="299.3515991961931" y2="313.63813208083445" stroke="#444444" stroke-width="2.0155551828245555"/><path d="M 307.02563448567287 324.66823089869916 L 295.4910646099405 316.3240444321524 L 303.2121337824458 310.9522197295165 Z" fill="#444444" fill-opacity="1.0" stroke="none"/><path d="M 218.22885018450188 52.380738007380074 C 218.22885018450188 44.21756181511481 236.93850222541738 37.6 260.01802764173095 37.6 C 283.0975530580445 37.6 301.80720509896 44.21756181511481 301.80720509896 52.380738007380074 C 301.80720509896 60.54391419964533 283.0975530580445 67.16147601476014 260.01802764173095 67.16147601476014 C 236.93850222541738 67.16147601476014 218.22885018450188 60.54391419964533 218.22885018450188 52.380738007380074 Z" fill="#cfcfcf" fill-opacity="1.0" stroke="#444444" stroke-width="1.6124441462596444"/><text x="260.01802764173095" y="56.40109874538746" fill="#333333" font-size="11.824590405904058" font-family="sans-serif" text-anchor="middle">genetics</text><path d="M 391.2441070781616 123.84036900369003 C 391.2441070781616 115.67719281142479 402.277387413544 109.05963099630995 415.8876284468299 109.05963099630995 C 429.4978694801158 109.05963099630995 440.53114981549817 115.67719281142479 440.53114981549817 123.84036900369003 C 440.53114981549817 132.00354519595527 429.4978694801158 138.6211070110701 415.8876284468299 138.6211070110701 C 402.277387413544 138.6211070110701 391.2441070781616 132.00354519595527 391.2441070781616 123.84036900369003 Z" fill="#cfcfcf" fill-opacity="1.0" stroke="#444444" stroke-width="1.6124441462596444"/><text x="415.8876284468299" y="127.86072974169741" fill="#333333" font-size="11.824590405904058" font-family="sans-serif" text-anchor="middle">diet</text><path d="M 284.070319490104 123.84036900369003 C 284.070319490104 115.67719281142479 302.77997153101956 109.05963099630995 325.8594969473331 109.05963099630995 C 348.9390223636467 109.05963099630995 367.6486744045622 115.67719281142479 367.6486744045622 123.84036900369003 C 367.6486744045622 132.00354519595527 348.9390223636467 138.6211070110701 325.8594969473331 138.6211070110701 C 302.77997153101956 138.6211070110701 284.070319490104 132.00354519595527 284.070319490104 123.84036900369003 Z" fill="#cfcfcf" fill-opacity="1.0" stroke="#444444" stroke-width="1.6124441462596444"/><text x="325.8594969473331" y="127.86072974169741" fill="#333333" font-size="11.824590405904058" font-family="sans-serif" text-anchor="middle">exercise</text><path d="M 292.4012809124455 195.29999999999998 C 292.4012809124455 187.13682380773474 303.16985877522325 180.51926199261993 316.4535727608185 180.51926199261993 C 329.7372867464138 180.51926199261993 340.5058646091915 187.13682380773474 340.5058646091915 195.29999999999998 C 340.5058646091915 203.46317619226525 329.7372867464138 210.0807380073801 316.4535727608185 210.0807380073801 C 303.16985877522325 210.0807380073801 292.4012809124455 203.46317619226525 292.4012809124455 195.29999999999998 Z" fill="#cfcfcf" fill-opacity="1.0" stroke="#444444" stroke-width="1.6124441462596444"/><text x="316.4535727608185" y="199.3203607380074" fill="#333333" font-size="11.824590405904058" font-family="sans-serif" text-anchor="middle">bmi</text><path d="M 245.7874674270379 266.75963099630997 C 245.7874674270379 258.5964548040447 255.16668889727936 251.97889298892986 266.7365449178128 251.97889298892986 C 278.3064009383462 251.97889298892986 287.68562240858773 258.5964548040447 287.68562240858773 266.75963099630997 C 287.68562240858773 274.92280718857523 278.3064009383462 281.54036900369 266.7365449178128 281.54036900369 C 255.16668889727936 281.54036900369 245.7874674270379 274.92280718857523 245.7874674270379 266.75963099630997 Z" fill="#cfcfcf" fill-opacity="1.0" stroke="#444444" stroke-width="1.6124441462596444"/><text x="266.7365449178128" y="270.7799917343173" fill="#333333" font-size="11.824590405904058" font-family="sans-serif" text-anchor="middle">bp</text><path d="M 292.8447030526669 338.2192619926199 C 292.8447030526669 330.05608580035465 303.4147540609912 323.43852398523984 316.4535727608185 323.43852398523984 C 329.4923914606458 323.43852398523984 340.0624424689702 330.05608580035465 340.0624424689702 338.2192619926199 C 340.0624424689702 346.3824381848852 329.4923914606458 353.0 316.4535727608185 353.0 C 303.4147540609912 353.0 292.8447030526669 346.3824381848852 292.8447030526669 338.2192619926199 Z" fill="#cfcfcf" fill-opacity="1.0" stroke="#444444" stroke-width="1.6124441462596444"/><text x="316.4535727608185" y="342.2396227306273" fill="#333333" font-size="11.824590405904058" font-family="sans-serif" text-anchor="middle">chd</text></svg>