<svg xmlns="http://www.w3.org/2000/svg" width="624" height="384" viewBox="0 0 624 384"><rect x="0.0" y="0.0" width="624.0" height="384.0" fill="#ffffff" fill-opacity="1.0" stroke="none"/><line x1="132.6540782795699" y1="32.266666666666666" x2="132.6540782795699" y2="340.0" stroke="#dddddd" stroke-width="1.3333333333333333"/><line x1="206.0997643010753" y1="32.266666666666666" x2="206.0997643010753" y2="340.0" stroke="#dddddd" stroke-width="1.3333333333333333"/><line x1="279.5454503225807" y1="32.266666666666666" x2="279.5454503225807" y2="340.0" stroke="#dddddd" stroke-width="1.3333333333333333"/><line x1="352.99113634408604" y1="32.266666666666666" x2="352.99113634408604" y2="340.0" stroke="#dddddd" stroke-width="1.3333333333333333"/><line x1="426.43682236559135" y1="32.266666666666666" x2="426.43682236559135" y2="340.0" stroke="#dddddd" stroke-width="1.3333333333333333"/><line x1="499.88250838709683" y1="32.266666666666666" x2="499.88250838709683" y2="340.0" stroke="#dddddd" stroke-width="1.3333333333333333"/><line x1="88.58666666666666" y1="310.21935483870965" x2="543.94992" y2="310.21935483870965" stroke="#dddddd" stroke-width="1.3333333333333333"/><line x1="88.58666666666666" y1="260.5849462365591" x2="543.94992" y2="260.5849462365591" stroke="#dddddd" stroke-width="1.3333333333333333"/><line x1="88.58666666666666" y1="210.95053763440856" x2="543.94992" y2="210.95053763440856" stroke="#dddddd" stroke-width="1.3333333333333333"/><line x1="88.58666666666666" y1="161.31612903225803" x2="543.94992" y2="161.31612903225803" stroke="#dddddd" stroke-width="1.3333333333333333"/><line x1="88.58666666666666" y1="111.6817204301075" x2="543.94992" y2="111.6817204301075" stroke="#dddddd" stroke-width="1.3333333333333333"/><line x1="88.58666666666666" y1="62.047311827956946" x2="543.94992" y2="62.047311827956946" stroke="#dddddd" stroke-width="1.3333333333333333"/><rect x="88.58666666666666" y="32.266666666666666" width="455.3632533333333" height="307.73333333333335" fill="#ffffff" fill-opacity="0.0" stroke="#444444" stroke-width="1.3333333333333333"/><line x1="132.6540782795699" y1="340.0" x2="132.6540782795699" y2="343.66666666666663" stroke="#444444" stroke-width="1.3333333333333333"/><text x="132.6540782795699" y="355.9866666666667" fill="#333333" font-size="11.733333333333334" font-family="sans-serif" text-anchor="middle">bmi</text><line x1="206.0997643010753" y1="340.0" x2="206.0997643010753" y2="343.66666666666663" stroke="#444444" stroke-width="1.3333333333333333"/><text x="206.0997643010753" y="355.9866666666667" fill="#333333" font-size="11.733333333333334" font-family="sans-serif" text-anchor="middle">bp</text><line x1="279.5454503225807" y1="340.0" x2="279.5454503225807" y2="343.66666666666663" stroke="#444444" stroke-width="1.3333333333333333"/><text x="279.5454503225807" y="355.9866666666667" fill="#333333" font-size="11.733333333333334" font-family="sans-serif" text-anchor="middle">chd</text><line x1="352.99113634408604" y1="340.0" x2="352.99113634408604" y2="343.66666666666663" stroke="#444444" stroke-width="1.3333333333333333"/><text x="352.99113634408604" y="355.9866666666667" fill="#333333" font-size="11.733333333333334" font-family="sans-serif" text-anchor="middle">diet</text><line x1="426.43682236559135" y1="340.0" x2="426.43682236559135" y2="343.66666666666663" stroke="#444444" stroke-width="1.3333333333333333"/><text x="426.43682236559135" y="355.9866666666667" fill="#333333" font-size="11.733333333333334" font-family="sans-serif" text-anchor="middle">exercise</text><line x1="499.88250838709683" y1="340.0" x2="499.88250838709683" y2="343.66666666666663" stroke="#444444" stroke-width="1.3333333333333333"/><text x="499.88250838709683" y="355.9866666666667" fill="#333333" font-size="11.733333333333334" font-family="sans-serif" text-anchor="middle">genetics</text><line x1="88.58666666666666" y1="310.21935483870965" x2="84.91999999999999" y2="310.21935483870965" stroke="#444444" stroke-width="1.3333333333333333"/><text x="81.98666666666665" y="314.32602150537633" fill="#333333" font-size="11.733333333333334" font-family="sans-serif" text-anchor="end">bmi</text><line x1="88.58666666666666" y1="260.5849462365591" x2="84.91999999999999" y2="260.5849462365591" stroke="#444444" stroke-width="1.3333333333333333"/><text x="81.98666666666665" y="264.6916129032258" fill="#333333" font-size="11.733333333333334" font-family="sans-serif" text-anchor="end">bp</text><line x1="88.58666666666666" y1="210.95053763440856" x2="84.91999999999999" y2="210.95053763440856" stroke="#444444" stroke-width="1.3333333333333333"/><text x="81.98666666666665" y="215.05720430107525" fill="#333333" font-size="11.733333333333334" font-family="sans-serif" text-anchor="end">chd</text><line x1="88.58666666666666" y1="161.31612903225803" x2="84.91999999999999" y2="161.31612903225803" stroke="#444444" stroke-width="1.3333333333333333"/><text x="81.98666666666665" y="165.4227956989247" fill="#333333" font-size="11.733333333333334" font-family="sans-serif" text-anchor="end">diet</text><line x1="88.58666666666666" y1="111.6817204301075" x2="84.91999999999999" y2="111.6817204301075" stroke="#444444" stroke-width="1.3333333333333333"/><text x="81.98666666666665" y="115.78838709677417" fill="#333333" font-size="11.733333333333334" font-family="sans-serif" text-anchor="end">exercise</text><line x1="88.58666666666666" y1="62.047311827956946" x2="84.91999999999999" y2="62.047311827956946" stroke="#444444" stroke-width="1.3333333333333333"/><text x="81.98666666666665" y="66.1539784946236" fill="#333333" font-size="11.733333333333334" font-family="sans-serif" text-anchor="end">genetics</text><text x="88.58666666666666" y="21.413333333333334" fill="#333333" font-size="17.599999999999998" font-family="sans-serif" text-anchor="start">Bootstrap LiNGAM: edge 出現確率</text><text x="316.2682933333333" y="373.73333333333335" fill="#333333" font-size="14.666666666666666" font-family="sans-serif" text-anchor="middle">cause (j)</text><text x="17.599999999999998" y="186.13333333333333" fill="#333333" font-size="14.666666666666666" font-family="sans-serif" text-anchor="middle" transform="rotate(-90.0 17.599999999999998 186.13333333333333)">effect (i)</text><rect x="463.1596653763441" y="37.230107526881696" width="73.4456860215054" height="49.63440860215053" fill="#440154" fill-opacity="1.0" stroke="#ffffff" stroke-width="1.3333333333333333"/><rect x="316.26829333333336" y="37.230107526881696" width="73.44568602150532" height="49.63440860215053" fill="#421461" fill-opacity="1.0" stroke="#ffffff" stroke-width="1.3333333333333333"/><rect x="389.71397935483867" y="37.230107526881696" width="73.4456860215054" height="49.63440860215053" fill="#440154" fill-opacity="1.0" stroke="#ffffff" stroke-width="1.3333333333333333"/><rect x="95.9312352688172" y="37.230107526881696" width="73.4456860215054" height="49.63440860215053" fill="#440154" fill-opacity="1.0" stroke="#ffffff" stroke-width="1.3333333333333333"/><rect x="169.3769212903226" y="37.230107526881696" width="73.44568602150537" height="49.63440860215053" fill="#440154" fill-opacity="1.0" stroke="#ffffff" stroke-width="1.3333333333333333"/><rect x="242.82260731182797" y="37.230107526881696" width="73.4456860215054" height="49.63440860215053" fill="#440154" fill-opacity="1.0" stroke="#ffffff" stroke-width="1.3333333333333333"/><rect x="463.1596653763441" y="136.4989247311828" width="73.4456860215054" height="49.634408602150486" fill="#34648b" fill-opacity="1.0" stroke="#ffffff" stroke-width="1.3333333333333333"/><rect x="316.26829333333336" y="136.4989247311828" width="73.44568602150532" height="49.634408602150486" fill="#440154" fill-opacity="1.0" stroke="#ffffff" stroke-width="1.3333333333333333"/><rect x="389.71397935483867" y="136.4989247311828" width="73.4456860215054" height="49.634408602150486" fill="#26848c" fill-opacity="1.0" stroke="#ffffff" stroke-width="1.3333333333333333"/><rect x="95.9312352688172" y="136.4989247311828" width="73.4456860215054" height="49.634408602150486" fill="#440154" fill-opacity="1.0" stroke="#ffffff" stroke-width="1.3333333333333333"/><rect x="169.3769212903226" y="136.4989247311828" width="73.44568602150537" height="49.634408602150486" fill="#440154" fill-opacity="1.0" stroke="#ffffff" stroke-width="1.3333333333333333"/><rect x="242.82260731182797" y="136.4989247311828" width="73.4456860215054" height="49.634408602150486" fill="#440154" fill-opacity="1.0" stroke="#ffffff" stroke-width="1.3333333333333333"/><rect x="463.1596653763441" y="86.86451612903222" width="73.4456860215054" height="49.634408602150565" fill="#fde725" fill-opacity="1.0" stroke="#ffffff" stroke-width="1.3333333333333333"/><rect x="316.26829333333336" y="86.86451612903222" width="73.44568602150532" height="49.634408602150565" fill="#3c4884" fill-opacity="1.0" stroke="#ffffff" stroke-width="1.3333333333333333"/><rect x="389.71397935483867" y="86.86451612903222" width="73.4456860215054" height="49.634408602150565" fill="#440154" fill-opacity="1.0" stroke="#ffffff" stroke-width="1.3333333333333333"/><rect x="95.9312352688172" y="86.86451612903222" width="73.4456860215054" height="49.634408602150565" fill="#440154" fill-opacity="1.0" stroke="#ffffff" stroke-width="1.3333333333333333"/><rect x="169.3769212903226" y="86.86451612903222" width="73.44568602150537" height="49.634408602150565" fill="#440154" fill-opacity="1.0" stroke="#ffffff" stroke-width="1.3333333333333333"/><rect x="242.82260731182797" y="86.86451612903222" width="73.4456860215054" height="49.634408602150565" fill="#440154" fill-opacity="1.0" stroke="#ffffff" stroke-width="1.3333333333333333"/><rect x="463.1596653763441" y="285.4021505376344" width="73.4456860215054" height="49.634408602150565" fill="#6bcb5d" fill-opacity="1.0" stroke="#ffffff" stroke-width="1.3333333333333333"/><rect x="316.26829333333336" y="285.4021505376344" width="73.44568602150532" height="49.634408602150565" fill="#fde725" fill-opacity="1.0" stroke="#ffffff" stroke-width="1.3333333333333333"/><rect x="389.71397935483867" y="285.4021505376344" width="73.4456860215054" height="49.634408602150565" fill="#fde725" fill-opacity="1.0" stroke="#ffffff" stroke-width="1.3333333333333333"/><rect x="95.9312352688172" y="285.4021505376344" width="73.4456860215054" height="49.634408602150565" fill="#440154" fill-opacity="1.0" stroke="#ffffff" stroke-width="1.3333333333333333"/><rect x="169.3769212903226" y="285.4021505376344" width="73.44568602150537" height="49.634408602150565" fill="#440154" fill-opacity="1.0" stroke="#ffffff" stroke-width="1.3333333333333333"/><rect x="242.82260731182797" y="285.4021505376344" width="73.4456860215054" height="49.634408602150565" fill="#440154" fill-opacity="1.0" stroke="#ffffff" stroke-width="1.3333333333333333"/><rect x="463.1596653763441" y="235.76774193548385" width="73.4456860215054" height="49.63440860215053" fill="#fde725" fill-opacity="1.0" stroke="#ffffff" stroke-width="1.3333333333333333"/><rect x="316.26829333333336" y="235.76774193548385" width="73.44568602150532" height="49.63440860215053" fill="#297d8c" fill-opacity="1.0" stroke="#ffffff" stroke-width="1.3333333333333333"/><rect x="389.71397935483867" y="235.76774193548385" width="73.4456860215054" height="49.63440860215053" fill="#24898c" fill-opacity="1.0" stroke="#ffffff" stroke-width="1.3333333333333333"/><rect x="95.9312352688172" y="235.76774193548385" width="73.4456860215054" height="49.63440860215053" fill="#fde725" fill-opacity="1.0" stroke="#ffffff" stroke-width="1.3333333333333333"/><rect x="169.3769212903226" y="235.76774193548385" width="73.44568602150537" height="49.63440860215053" fill="#440154" fill-opacity="1.0" stroke="#ffffff" stroke-width="1.3333333333333333"/><rect x="242.82260731182797" y="235.76774193548385" width="73.4456860215054" height="49.63440860215053" fill="#440154" fill-opacity="1.0" stroke="#ffffff" stroke-width="1.3333333333333333"/><rect x="463.1596653763441" y="186.13333333333327" width="73.4456860215054" height="49.634408602150565" fill="#4fbc6c" fill-opacity="1.0" stroke="#ffffff" stroke-width="1.3333333333333333"/><rect x="316.26829333333336" y="186.13333333333327" width="73.44568602150532" height="49.634408602150565" fill="#269589" fill-opacity="1.0" stroke="#ffffff" stroke-width="1.3333333333333333"/><rect x="389.71397935483867" y="186.13333333333327" width="73.4456860215054" height="49.634408602150565" fill="#289887" fill-opacity="1.0" stroke="#ffffff" stroke-width="1.3333333333333333"/><rect x="95.9312352688172" y="186.13333333333327" width="73.4456860215054" height="49.634408602150565" fill="#fde725" fill-opacity="1.0" stroke="#ffffff" stroke-width="1.3333333333333333"/><rect x="169.3769212903226" y="186.13333333333327" width="73.44568602150537" height="49.634408602150565" fill="#fde725" fill-opacity="1.0" stroke="#ffffff" stroke-width="1.3333333333333333"/><rect x="242.82260731182797" y="186.13333333333327" width="73.4456860215054" height="49.634408602150565" fill="#440154" fill-opacity="1.0" stroke="#ffffff" stroke-width="1.3333333333333333"/><rect x="558.6165866666666" y="262.76666666666665" width="23.114079999999994" height="4.699999999999999" fill="#440154" fill-opacity="1.0" stroke="none"/><rect x="558.6165866666666" y="258.73333333333335" width="23.114079999999994" height="4.699999999999999" fill="#43095a" fill-opacity="1.0" stroke="none"/><rect x="558.6165866666666" y="254.7" width="23.114079999999994" height="4.699999999999999" fill="#42125f" fill-opacity="1.0" stroke="none"/><rect x="558.6165866666666" y="250.66666666666669" width="23.114079999999994" height="4.699999999999999" fill="#411a65" fill-opacity="1.0" stroke="none"/><rect x="558.6165866666666" y="246.63333333333335" width="23.114079999999994" height="4.699999999999999" fill="#40226b" fill-opacity="1.0" stroke="none"/><rect x="558.6165866666666" y="242.60000000000002" width="23.114079999999994" height="4.699999999999999" fill="#3f2b70" fill-opacity="1.0" stroke="none"/><rect x="558.6165866666666" y="238.56666666666666" width="23.114079999999994" height="4.699999999999999" fill="#3e3376" fill-opacity="1.0" stroke="none"/><rect x="558.6165866666666" y="234.53333333333333" width="23.114079999999994" height="4.699999999999999" fill="#3e3b7b" fill-opacity="1.0" stroke="none"/><rect x="558.6165866666666" y="230.50000000000003" width="23.114079999999994" height="4.699999999999999" fill="#3d4381" fill-opacity="1.0" stroke="none"/><rect x="558.6165866666666" y="226.4666666666667" width="23.114079999999994" height="4.699999999999999" fill="#3c4c87" fill-opacity="1.0" stroke="none"/><rect x="558.6165866666666" y="222.43333333333334" width="23.114079999999994" height="4.699999999999999" fill="#3a548b" fill-opacity="1.0" stroke="none"/><rect x="558.6165866666666" y="218.4" width="23.114079999999994" height="4.699999999999999" fill="#385a8b" fill-opacity="1.0" stroke="none"/><rect x="558.6165866666666" y="214.36666666666667" width="23.114079999999994" height="4.699999999999999" fill="#35618b" fill-opacity="1.0" stroke="none"/><rect x="558.6165866666666" y="210.33333333333337" width="23.114079999999994" height="4.699999999999999" fill="#32678b" fill-opacity="1.0" stroke="none"/><rect x="558.6165866666666" y="206.3" width="23.114079999999994" height="4.699999999999999" fill="#306d8b" fill-opacity="1.0" stroke="none"/><rect x="558.6165866666666" y="202.26666666666668" width="23.114079999999994" height="4.699999999999999" fill="#2d748c" fill-opacity="1.0" stroke="none"/><rect x="558.6165866666666" y="198.23333333333335" width="23.114079999999994" height="4.699999999999999" fill="#2a7a8c" fill-opacity="1.0" stroke="none"/><rect x="558.6165866666666" y="194.2" width="23.114079999999994" height="4.699999999999999" fill="#28818c" fill-opacity="1.0" stroke="none"/><rect x="558.6165866666666" y="190.16666666666669" width="23.114079999999994" height="4.699999999999999" fill="#25878c" fill-opacity="1.0" stroke="none"/><rect x="558.6165866666666" y="186.13333333333335" width="23.114079999999994" height="4.699999999999999" fill="#228e8c" fill-opacity="1.0" stroke="none"/><rect x="558.6165866666666" y="182.10000000000002" width="23.114079999999994" height="4.699999999999999" fill="#24948a" fill-opacity="1.0" stroke="none"/><rect x="558.6165866666666" y="178.06666666666666" width="23.114079999999994" height="4.699999999999999" fill="#2a9a86" fill-opacity="1.0" stroke="none"/><rect x="558.6165866666666" y="174.03333333333333" width="23.114079999999994" height="4.699999999999999" fill="#319f81" fill-opacity="1.0" stroke="none"/><rect x="558.6165866666666" y="170.00000000000003" width="23.114079999999994" height="4.699999999999999" fill="#37a57d" fill-opacity="1.0" stroke="none"/><rect x="558.6165866666666" y="165.9666666666667" width="23.114079999999994" height="4.699999999999999" fill="#3dab79" fill-opacity="1.0" stroke="none"/><rect x="558.6165866666666" y="161.93333333333334" width="23.114079999999994" height="4.699999999999999" fill="#43b174" fill-opacity="1.0" stroke="none"/><rect x="558.6165866666666" y="157.90000000000003" width="23.114079999999994" height="4.699999999999999" fill="#4ab670" fill-opacity="1.0" stroke="none"/><rect x="558.6165866666666" y="153.86666666666667" width="23.114079999999994" height="4.699999999999999" fill="#50bc6c" fill-opacity="1.0" stroke="none"/><rect x="558.6165866666666" y="149.83333333333334" width="23.114079999999994" height="4.699999999999999" fill="#56c267" fill-opacity="1.0" stroke="none"/><rect x="558.6165866666666" y="145.8" width="23.114079999999994" height="4.699999999999999" fill="#5cc863" fill-opacity="1.0" stroke="none"/><rect x="558.6165866666666" y="141.76666666666668" width="23.114079999999994" height="4.699999999999999" fill="#6acb5d" fill-opacity="1.0" stroke="none"/><rect x="558.6165866666666" y="137.73333333333335" width="23.114079999999994" height="4.699999999999999" fill="#7bce57" fill-opacity="1.0" stroke="none"/><rect x="558.6165866666666" y="133.70000000000002" width="23.114079999999994" height="4.699999999999999" fill="#8bd151" fill-opacity="1.0" stroke="none"/><rect x="558.6165866666666" y="129.66666666666669" width="23.114079999999994" height="4.699999999999999" fill="#9bd54b" fill-opacity="1.0" stroke="none"/><rect x="558.6165866666666" y="125.63333333333335" width="23.114079999999994" height="4.699999999999999" fill="#abd844" fill-opacity="1.0" stroke="none"/><rect x="558.6165866666666" y="121.60000000000002" width="23.114079999999994" height="4.699999999999999" fill="#bcdb3e" fill-opacity="1.0" stroke="none"/><rect x="558.6165866666666" y="117.56666666666669" width="23.114079999999994" height="4.699999999999999" fill="#ccde38" fill-opacity="1.0" stroke="none"/><rect x="558.6165866666666" y="113.53333333333336" width="23.114079999999994" height="4.699999999999999" fill="#dce132" fill-opacity="1.0" stroke="none"/><rect x="558.6165866666666" y="109.50000000000001" width="23.114079999999994" height="4.699999999999999" fill="#ede42b" fill-opacity="1.0" stroke="none"/><rect x="558.6165866666666" y="105.4666666666667" width="23.114079999999994" height="4.699999999999999" fill="#fde725" fill-opacity="1.0" stroke="none"/><text x="585.3973333333333" y="270.55466666666666" fill="#333333" font-size="11.733333333333334" font-family="sans-serif" text-anchor="start">0</text><text x="585.3973333333333" y="230.22133333333335" fill="#333333" font-size="11.733333333333334" font-family="sans-serif" text-anchor="start">0.25</text><text x="585.3973333333333" y="189.88800000000003" fill="#333333" font-size="11.733333333333334" font-family="sans-serif" text-anchor="start">0.5</text><text x="585.3973333333333" y="149.55466666666666" fill="#333333" font-size="11.733333333333334" font-family="sans-serif" text-anchor="start">0.75</text><text x="585.3973333333333" y="109.22133333333335" fill="#333333" font-size="11.733333333333334" font-family="sans-serif" text-anchor="start">1</text></svg>