<svg xmlns="http://www.w3.org/2000/svg" width="624" height="384" viewBox="0 0 624 384"><rect x="0.0" y="0.0" width="624.0" height="384.0" fill="#ffffff" fill-opacity="1.0" stroke="none"/><text x="42.093333333333334" y="21.413333333333334" fill="#333333" font-size="17.599999999999998" font-family="sans-serif" text-anchor="start">VAR-LiNGAM time-lag DAG</text><line x1="335.88743519153024" y1="220.12170732923903" x2="375.7064946037417" y2="280.62517803116833" stroke="#444444" stroke-width="3.6856643356643355"/><path d="M 389.21452285042767 301.15008754255587 L 368.5227762747561 285.3529879175085 L 382.8902129327273 275.8973681448282 Z" fill="#444444" fill-opacity="1.0" stroke="none"/><line x1="266.52072763279466" y1="90.84673264122691" x2="295.4067213399595" y2="147.742621092143" stroke="#444444" stroke-width="3.6856643356643355"/><path d="M 306.5299876120727 169.65179006322865 L 287.7385122000795 151.63576428738264 L 303.07493047983945 143.84947789690338 Z" fill="#444444" fill-opacity="1.0" stroke="none"/><line x1="388.63156881757163" y1="90.33568783155216" x2="349.3954634382163" y2="149.95338315937352" stroke="#444444" stroke-width="3.6856643356643355"/><path d="M 335.88743519153024 170.478292670761 L 342.21174510923066 145.22557327303338 L 356.57918176720193 154.6811930457136 Z" fill="#444444" fill-opacity="1.0" stroke="none"/><path d="M 405.5503962703963 91.65641025641025 C 405.5503962703963 175.00627364275732 405.5503962703963 201.79981952065873 405.5503962703963 274.372494169604" fill="#000000" fill-opacity="0.0" stroke="#444444" stroke-width="3.6856643356643355"/><path d="M 405.5503962703963 298.94358974358977 L 396.9505128205128 274.372494169604 L 414.15027972027974 274.372494169604 Z" fill="#444444" fill-opacity="1.0" stroke="none"/><path d="M 278.2721212121212 195.3 C 278.2721212121212 180.37273449322618 296.7535562703072 168.2717948717949 319.55156177156175 168.2717948717949 C 342.34956727281633 168.2717948717949 360.8310023310023 180.37273449322618 360.8310023310023 195.3 C 360.8310023310023 210.22726550677385 342.34956727281633 222.32820512820513 319.55156177156175 222.32820512820513 C 296.7535562703072 222.32820512820513 278.2721212121212 210.22726550677385 278.2721212121212 195.3 Z" fill="#cfcfcf" fill-opacity="1.0" stroke="#444444" stroke-width="2.9485314685314687"/><text x="319.55156177156175" y="202.6516717948718" fill="#333333" font-size="21.622564102564105" font-family="sans-serif" text-anchor="middle">a[t]</text><path d="M 364.2709557109557 325.9717948717949 C 364.2709557109557 311.04452936502105 382.75239076914164 298.94358974358977 405.5503962703963 298.94358974358977 C 428.3484017716508 298.94358974358977 446.8298368298368 311.04452936502105 446.8298368298368 325.9717948717949 C 446.8298368298368 340.8990603785687 428.3484017716508 353.00000000000006 405.5503962703963 353.00000000000006 C 382.75239076914164 353.00000000000006 364.2709557109557 340.8990603785687 364.2709557109557 325.9717948717949 Z" fill="#cfcfcf" fill-opacity="1.0" stroke="#444444" stroke-width="2.9485314685314687"/><text x="405.5503962703963" y="333.32346666666666" fill="#333333" font-size="21.622564102564105" font-family="sans-serif" text-anchor="middle">b[t]</text><path d="M 198.4160606060606 64.62820512820512 C 198.4160606060606 49.70093962143128 222.9479654749622 37.599999999999994 253.2096037296037 37.599999999999994 C 283.47124198424524 37.599999999999994 308.0031468531468 49.70093962143128 308.0031468531468 64.62820512820512 C 308.0031468531468 79.55547063497897 283.47124198424524 91.65641025641025 253.2096037296037 91.65641025641025 C 222.9479654749622 91.65641025641025 198.4160606060606 79.55547063497897 198.4160606060606 64.62820512820512 Z" fill="#cfcfcf" fill-opacity="1.0" stroke="#444444" stroke-width="2.9485314685314687"/><text x="253.2096037296037" y="71.97987692307692" fill="#333333" font-size="21.622564102564105" font-family="sans-serif" text-anchor="middle">a[t-1]</text><path d="M 350.75685314685313 64.62820512820512 C 350.75685314685313 49.70093962143128 375.2887580157547 37.599999999999994 405.5503962703963 37.599999999999994 C 435.81203452503775 37.599999999999994 460.34393939393937 49.70093962143128 460.34393939393937 64.62820512820512 C 460.34393939393937 79.55547063497897 435.81203452503775 91.65641025641025 405.5503962703963 91.65641025641025 C 375.2887580157547 91.65641025641025 350.75685314685313 79.55547063497897 350.75685314685313 64.62820512820512 Z" fill="#cfcfcf" fill-opacity="1.0" stroke="#444444" stroke-width="2.9485314685314687"/><text x="405.5503962703963" y="71.97987692307692" fill="#333333" font-size="21.622564102564105" font-family="sans-serif" text-anchor="middle">b[t-1]</text></svg>