<svg xmlns="http://www.w3.org/2000/svg" width="624" height="384" viewBox="0 0 624 384"><rect x="0.0" y="0.0" width="624.0" height="384.0" fill="#ffffff" fill-opacity="1.0" stroke="none"/><line x1="115.74272727272728" y1="7.333333333333333" x2="115.74272727272728" y2="358.3333333333333" stroke="#dddddd" stroke-width="0.6666666666666666"/><line x1="251.1275757575757" y1="7.333333333333333" x2="251.1275757575757" y2="358.3333333333333" stroke="#dddddd" stroke-width="0.6666666666666666"/><line x1="386.51242424242423" y1="7.333333333333333" x2="386.51242424242423" y2="358.3333333333333" stroke="#dddddd" stroke-width="0.6666666666666666"/><line x1="521.8972727272727" y1="7.333333333333333" x2="521.8972727272727" y2="358.3333333333333" stroke="#dddddd" stroke-width="0.6666666666666666"/><line x1="48.05030303030303" y1="7.333333333333333" x2="48.05030303030303" y2="358.3333333333333" stroke="#dddddd" stroke-width="1.3333333333333333"/><line x1="183.4351515151515" y1="7.333333333333333" x2="183.4351515151515" y2="358.3333333333333" stroke="#dddddd" stroke-width="1.3333333333333333"/><line x1="318.81999999999994" y1="7.333333333333333" x2="318.81999999999994" y2="358.3333333333333" stroke="#dddddd" stroke-width="1.3333333333333333"/><line x1="454.2048484848485" y1="7.333333333333333" x2="454.2048484848485" y2="358.3333333333333" stroke="#dddddd" stroke-width="1.3333333333333333"/><line x1="589.5896969696969" y1="7.333333333333333" x2="589.5896969696969" y2="358.3333333333333" stroke="#dddddd" stroke-width="1.3333333333333333"/><line x1="20.973333333333333" y1="345.94567789074085" x2="616.6666666666666" y2="345.94567789074085" stroke="#dddddd" stroke-width="0.6666666666666666"/><line x1="20.973333333333333" y1="286.51203007630085" x2="616.6666666666666" y2="286.51203007630085" stroke="#dddddd" stroke-width="0.6666666666666666"/><line x1="20.973333333333333" y1="227.07838226186087" x2="616.6666666666666" y2="227.07838226186087" stroke="#dddddd" stroke-width="0.6666666666666666"/><line x1="20.973333333333333" y1="167.64473444742083" x2="616.6666666666666" y2="167.64473444742083" stroke="#dddddd" stroke-width="0.6666666666666666"/><line x1="20.973333333333333" y1="108.2110866329809" x2="616.6666666666666" y2="108.2110866329809" stroke="#dddddd" stroke-width="0.6666666666666666"/><line x1="20.973333333333333" y1="48.77743881854087" x2="616.6666666666666" y2="48.77743881854087" stroke="#dddddd" stroke-width="0.6666666666666666"/><line x1="20.973333333333333" y1="316.2288539835208" x2="616.6666666666666" y2="316.2288539835208" stroke="#dddddd" stroke-width="1.3333333333333333"/><line x1="20.973333333333333" y1="256.7952061690808" x2="616.6666666666666" y2="256.7952061690808" stroke="#dddddd" stroke-width="1.3333333333333333"/><line x1="20.973333333333333" y1="197.36155835464083" x2="616.6666666666666" y2="197.36155835464083" stroke="#dddddd" stroke-width="1.3333333333333333"/><line x1="20.973333333333333" y1="137.92791054020086" x2="616.6666666666666" y2="137.92791054020086" stroke="#dddddd" stroke-width="1.3333333333333333"/><line x1="20.973333333333333" y1="78.49426272576086" x2="616.6666666666666" y2="78.49426272576086" stroke="#dddddd" stroke-width="1.3333333333333333"/><line x1="20.973333333333333" y1="19.060614911320876" x2="616.6666666666666" y2="19.060614911320876" stroke="#dddddd" stroke-width="1.3333333333333333"/><rect x="20.973333333333333" y="7.333333333333333" width="595.6933333333333" height="351.0" fill="#ffffff" fill-opacity="0.0" stroke="#444444" stroke-width="1.3333333333333333"/><line x1="48.05030303030303" y1="358.3333333333333" x2="48.05030303030303" y2="362.0" stroke="#444444" stroke-width="1.3333333333333333"/><text x="48.05030303030303" y="374.32" fill="#333333" font-size="11.733333333333334" font-family="sans-serif" text-anchor="middle">200</text><line x1="183.4351515151515" y1="358.3333333333333" x2="183.4351515151515" y2="362.0" stroke="#444444" stroke-width="1.3333333333333333"/><text x="183.4351515151515" y="374.32" fill="#333333" font-size="11.733333333333334" font-family="sans-serif" text-anchor="middle">240</text><line x1="318.81999999999994" y1="358.3333333333333" x2="318.81999999999994" y2="362.0" stroke="#444444" stroke-width="1.3333333333333333"/><text x="318.81999999999994" y="374.32" fill="#333333" font-size="11.733333333333334" font-family="sans-serif" text-anchor="middle">280</text><line x1="454.2048484848485" y1="358.3333333333333" x2="454.2048484848485" y2="362.0" stroke="#444444" stroke-width="1.3333333333333333"/><text x="454.2048484848485" y="374.32" fill="#333333" font-size="11.733333333333334" font-family="sans-serif" text-anchor="middle">320</text><line x1="589.5896969696969" y1="358.3333333333333" x2="589.5896969696969" y2="362.0" stroke="#444444" stroke-width="1.3333333333333333"/><text x="589.5896969696969" y="374.32" fill="#333333" font-size="11.733333333333334" font-family="sans-serif" text-anchor="middle">360</text><line x1="20.973333333333333" y1="316.2288539835208" x2="17.306666666666665" y2="316.2288539835208" stroke="#444444" stroke-width="1.3333333333333333"/><text x="14.373333333333335" y="320.3355206501875" fill="#333333" font-size="11.733333333333334" font-family="sans-serif" text-anchor="end">1</text><line x1="20.973333333333333" y1="256.7952061690808" x2="17.306666666666665" y2="256.7952061690808" stroke="#444444" stroke-width="1.3333333333333333"/><text x="14.373333333333335" y="260.9018728357475" fill="#333333" font-size="11.733333333333334" font-family="sans-serif" text-anchor="end">2</text><line x1="20.973333333333333" y1="197.36155835464083" x2="17.306666666666665" y2="197.36155835464083" stroke="#444444" stroke-width="1.3333333333333333"/><text x="14.373333333333335" y="201.46822502130752" fill="#333333" font-size="11.733333333333334" font-family="sans-serif" text-anchor="end">3</text><line x1="20.973333333333333" y1="137.92791054020086" x2="17.306666666666665" y2="137.92791054020086" stroke="#444444" stroke-width="1.3333333333333333"/><text x="14.373333333333335" y="142.0345772068675" fill="#333333" font-size="11.733333333333334" font-family="sans-serif" text-anchor="end">4</text><line x1="20.973333333333333" y1="78.49426272576086" x2="17.306666666666665" y2="78.49426272576086" stroke="#444444" stroke-width="1.3333333333333333"/><text x="14.373333333333335" y="82.60092939242753" fill="#333333" font-size="11.733333333333334" font-family="sans-serif" text-anchor="end">5</text><line x1="20.973333333333333" y1="19.060614911320876" x2="17.306666666666665" y2="19.060614911320876" stroke="#444444" stroke-width="1.3333333333333333"/><text x="14.373333333333335" y="23.16728157798754" fill="#333333" font-size="11.733333333333334" font-family="sans-serif" text-anchor="end">6</text><circle cx="48.05030303030303" cy="304.34212442063284" r="3.1181102362204727" fill="#1f77b4" fill-opacity="0.85" stroke="none"><title>(200, 1.2)</title></circle><circle cx="115.74272727272728" cy="256.7952061690808" r="3.1181102362204727" fill="#1f77b4" fill-opacity="0.85" stroke="none"><title>(220, 2)</title></circle><circle cx="183.4351515151515" cy="274.62530051341287" r="3.1181102362204727" fill="#1f77b4" fill-opacity="0.85" stroke="none"><title>(240, 1.7)</title></circle><circle cx="251.1275757575757" cy="191.41819357319687" r="3.1181102362204727" fill="#1f77b4" fill-opacity="0.85" stroke="none"><title>(260, 3.1)</title></circle><circle cx="318.81999999999994" cy="209.24828791752887" r="3.1181102362204727" fill="#1f77b4" fill-opacity="0.85" stroke="none"><title>(280, 2.8)</title></circle><circle cx="386.51242424242423" cy="126.04118097731285" r="3.1181102362204727" fill="#1f77b4" fill-opacity="0.85" stroke="none"><title>(300, 4.2)</title></circle><circle cx="454.2048484848485" cy="143.87127532164487" r="3.1181102362204727" fill="#1f77b4" fill-opacity="0.85" stroke="none"><title>(320, 3.9)</title></circle><circle cx="521.8972727272727" cy="60.66416838142891" r="3.1181102362204727" fill="#1f77b4" fill-opacity="0.85" stroke="none"><title>(340, 5.3)</title></circle><circle cx="589.5896969696969" cy="78.49426272576086" r="3.1181102362204727" fill="#1f77b4" fill-opacity="0.85" stroke="none"><title>(360, 5)</title></circle><path d="M 48.05030303030303 342.3787878787879 L 53.520397918579704 339.3848681030834 L 58.99049280685646 336.3943366708529 L 64.46058769513314 333.4073435585022 L 69.93068258340989 330.42404665511594 L 75.40077747168655 327.4446121991461 L 80.87087235996324 324.46921523439767 L 86.34096724823999 321.4980400849028 L 91.81106213651665 318.53128084795435 L 97.28115702479334 315.5691419041767 L 102.75125191307012 312.61183844305276 L 108.22134680134678 309.6595970017661 L 113.69144168962356 306.71265601456963 L 119.16153657790022 303.77126636912976 L 124.63163146617688 300.83569196540475 L 130.10172635445366 297.90621027160194 L 135.57182124273032 294.983112870587 L 141.04191613100699 292.0667059888 L 146.51201101928376 289.15731099825337 L 151.98210590756042 286.25526488053816 L 157.4522007958372 283.36092063996637 L 162.92229568411386 280.4746476510263 L 168.39239057239052 277.5968319232567 L 173.86248546066727 274.7278762644883 L 179.33258034894394 271.868200321211 L 184.8026752372207 269.01824047267337 L 190.27277012549737 266.1784495533118 L 195.74286501377404 263.34929637634997 L 201.2129599020508 260.5312650300659 L 206.68305479032747 257.72485391746596 L 212.15314967860425 254.9305745101376 L 217.6232445668809 252.14894978810108 L 223.09333945515758 249.3805123397836 L 228.56343434343435 246.62580210003034 L 234.03352923171101 243.88536370957186 L 239.5036241199878 241.15974348674922 L 244.97371900826445 238.4494860116737 L 250.44381389654112 235.75513033435385 L 255.91390878481778 233.07720583153724 L 261.38400367309447 230.41622775177248 L 266.8540985613713 227.77269250402676 L 272.32419344964796 225.14707276140885 L 277.7942883379246 222.53981246728057 L 283.2643832262013 219.9513218453002 L 288.73447811447795 217.3819725266115 L 294.20457300275484 214.8320929153938 L 299.6746678910315 212.30196391731994 L 305.14476277930817 209.7918151533505 L 310.61485766758483 207.30182177327515 L 316.08495255586155 204.8321019694447 L 321.5550474441384 202.38271527163738 L 327.02514233241504 199.95366167985344 L 332.49523722069176 197.5448816643144 L 337.96533210896837 195.1562570326694 L 343.4354269972451 192.7876126351288 L 348.9055218855219 190.4387188507319 L 354.37561677379864 188.1092947738062 L 359.8457116620753 185.7990120001722 L 365.31580655035197 183.50749889868604 L 370.7859014386286 181.23434524568955 L 376.2559963269055 178.97910709782064 L 381.7260912151822 176.74131178197104 L 387.19618610345884 174.5204628891732 L 392.6662809917355 172.31604517087862 L 398.13637588001217 170.1275292503398 L 403.60647076828906 167.95437607754786 L 409.0765656565657 165.79604107239192 L 414.5466605448424 163.6519779165307 L 420.01675543311904 161.5216419692338 L 425.4868503213957 159.40449329565587 L 430.9569452096726 157.29999930736972 L 436.4270400979492 155.20763702435517 L 441.8971349862259 153.12689497502487 L 447.3672298745026 151.05727475637224 L 452.83732476277925 148.9982922801194 L 458.3074196510561 146.94947873304255 L 463.77751453933257 144.9103812807055 L 469.24760942760946 142.8805635438593 L 474.7177043158861 140.85960587601448 L 480.18779920416284 138.84710546934016 L 485.6578940924397 136.84267631429742 L 491.1279889807161 134.84594903639825 L 496.598083868993 132.85657063133036 L 502.06817875726966 130.87420411750287 L 507.5382736455463 128.89852812290343 L 513.0083685338232 126.92923642109179 L 518.4784634220996 124.96603742920236 L 523.9485583103765 123.00865367902777 L 529.4186531986531 121.05682127060977 L 534.8887480869298 119.11028931628209 L 540.3588429752067 117.16881938179145 L 545.8289378634832 115.23218492995466 L 551.29903275176 113.30017077128869 L 556.7691276400367 111.37257252516906 L 562.2392225283133 109.4491960943031 L 567.7093174165901 107.52985715465846 L 573.1794123048667 105.61438066243034 L 578.6495071931436 103.7026003791666 L 584.1196020814202 101.79435841578261 L 589.5896969696969 99.88950479587261 L 589.5896969696969 23.287878787878828 L 584.1196020814202 26.281798563583227 L 578.6495071931436 29.27232999581368 L 573.1794123048667 32.259323108164494 L 567.7093174165901 35.242620011550756 L 562.2392225283133 38.22205446752059 L 556.7691276400367 41.197451432269 L 551.29903275176 44.168626581763796 L 545.8289378634832 47.13538581871235 L 540.3588429752067 50.09752476248991 L 534.8887480869298 53.054828223613825 L 529.4186531986531 56.00706966490054 L 523.9485583103765 58.95401065209701 L 518.4784634220996 61.89540029753694 L 513.0083685338232 64.83097470126184 L 507.5382736455463 67.7604563950647 L 502.06817875726966 70.68355379607968 L 496.598083868993 73.59996067786665 L 491.1279889807161 76.5093556684134 L 485.6578940924397 79.41140178612841 L 480.18779920416284 82.30574602670022 L 474.7177043158861 85.19201901564034 L 469.24760942760946 88.06983474340991 L 463.77751453933257 90.93879040217837 L 458.3074196510561 93.79846634545557 L 452.83732476277925 96.64842619399333 L 447.3672298745026 99.4882171133549 L 441.8971349862259 102.31737029031663 L 436.4270400979492 105.1354016366007 L 430.9569452096726 107.94181274920061 L 425.4868503213957 110.73609215652914 L 420.01675543311904 113.51771687856558 L 414.5466605448424 116.28615432688305 L 409.0765656565657 119.04086456663624 L 403.60647076828906 121.78130295709471 L 398.13637588001217 124.50692317991741 L 392.6662809917355 127.21718065499294 L 387.19618610345884 129.91153633231278 L 381.7260912151822 132.5894608351294 L 376.2559963269055 135.2504389148942 L 370.7859014386286 137.8939741626399 L 365.31580655035197 140.51959390525775 L 359.8457116620753 143.12685419938612 L 354.37561677379864 145.7153448213665 L 348.9055218855219 148.28469414005522 L 343.4354269972451 150.83457375127287 L 337.96533210896837 153.3647027493467 L 332.49523722069176 155.87485151331623 L 327.02514233241504 158.36484489339153 L 321.5550474441384 160.834564697222 L 316.08495255586155 163.2839513950293 L 310.61485766758483 165.71300498681322 L 305.14476277930817 168.12178500235234 L 299.6746678910315 170.51040963399726 L 294.20457300275484 172.87905403153786 L 288.73447811447795 175.22794781593478 L 283.2643832262013 177.5573718928605 L 277.7942883379246 179.8676546664945 L 272.32419344964796 182.15916776798056 L 266.8540985613713 184.43232142097708 L 261.38400367309447 186.68755956884604 L 255.91390878481778 188.92535488469562 L 250.44381389654112 191.1462037774935 L 244.97371900826445 193.35062149578806 L 239.5036241199878 195.53913741632687 L 234.03352923171101 197.71229058911877 L 228.56343434343435 199.87062559427468 L 223.09333945515758 202.01468875013592 L 217.6232445668809 204.1450246974329 L 212.15314967860425 206.26217337101085 L 206.68305479032747 208.36666735929694 L 201.2129599020508 210.4590296423114 L 195.74286501377404 212.53977169164176 L 190.27277012549737 214.6093919102944 L 184.8026752372207 216.6683743865473 L 179.33258034894394 218.71718793362407 L 173.86248546066727 220.7562853859612 L 168.39239057239052 222.78610312280733 L 162.92229568411386 224.80706079065217 L 157.4522007958372 226.8195611973265 L 151.98210590756042 228.82399035236926 L 146.51201101928376 230.82071763026846 L 141.04191613100699 232.8100960353363 L 135.57182124273032 234.79246254916376 L 130.10172635445366 236.7681385437632 L 124.63163146617688 238.7374302455749 L 119.16153657790022 240.70062923746434 L 113.69144168962356 242.6580129876388 L 108.22134680134678 244.60984539605687 L 102.75125191307012 246.5563773503846 L 97.28115702479334 248.4978472848752 L 91.81106213651665 250.434481736712 L 86.34096724823999 252.3664958953779 L 80.87087235996324 254.2940941414976 L 75.40077747168655 256.21747057236354 L 69.93068258340989 258.13680951200814 L 64.46058769513314 260.05228600423635 L 58.99049280685646 261.96406628750003 L 53.520397918579704 263.8723082508841 L 48.05030303030303 265.777161870794 Z" fill="#1f77b4" fill-opacity="0.2" stroke="none"/><line x1="48.05030303030303" y1="304.0779748747909" x2="53.520397918579704" y2="301.6285881769837" stroke="#1f77b4" stroke-width="1.4211023622047245"/><line x1="53.520397918579704" y1="301.6285881769837" x2="58.99049280685646" y2="299.1792014791765" stroke="#1f77b4" stroke-width="1.4211023622047245"/><line x1="58.99049280685646" y1="299.1792014791765" x2="64.46058769513314" y2="296.72981478136927" stroke="#1f77b4" stroke-width="1.4211023622047245"/><line x1="64.46058769513314" y1="296.72981478136927" x2="69.93068258340989" y2="294.280428083562" stroke="#1f77b4" stroke-width="1.4211023622047245"/><line x1="69.93068258340989" y1="294.280428083562" x2="75.40077747168655" y2="291.8310413857548" stroke="#1f77b4" stroke-width="1.4211023622047245"/><line x1="75.40077747168655" y1="291.8310413857548" x2="80.87087235996324" y2="289.3816546879476" stroke="#1f77b4" stroke-width="1.4211023622047245"/><line x1="80.87087235996324" y1="289.3816546879476" x2="86.34096724823999" y2="286.93226799014036" stroke="#1f77b4" stroke-width="1.4211023622047245"/><line x1="86.34096724823999" y1="286.93226799014036" x2="91.81106213651665" y2="284.48288129233316" stroke="#1f77b4" stroke-width="1.4211023622047245"/><line x1="91.81106213651665" y1="284.48288129233316" x2="97.28115702479334" y2="282.03349459452596" stroke="#1f77b4" stroke-width="1.4211023622047245"/><line x1="97.28115702479334" y1="282.03349459452596" x2="102.75125191307012" y2="279.5841078967187" stroke="#1f77b4" stroke-width="1.4211023622047245"/><line x1="102.75125191307012" y1="279.5841078967187" x2="108.22134680134678" y2="277.1347211989115" stroke="#1f77b4" stroke-width="1.4211023622047245"/><line x1="108.22134680134678" y1="277.1347211989115" x2="113.69144168962356" y2="274.68533450110425" stroke="#1f77b4" stroke-width="1.4211023622047245"/><line x1="113.69144168962356" y1="274.68533450110425" x2="119.16153657790022" y2="272.23594780329705" stroke="#1f77b4" stroke-width="1.4211023622047245"/><line x1="119.16153657790022" y1="272.23594780329705" x2="124.63163146617688" y2="269.7865611054898" stroke="#1f77b4" stroke-width="1.4211023622047245"/><line x1="124.63163146617688" y1="269.7865611054898" x2="130.10172635445366" y2="267.3371744076826" stroke="#1f77b4" stroke-width="1.4211023622047245"/><line x1="130.10172635445366" y1="267.3371744076826" x2="135.57182124273032" y2="264.88778770987534" stroke="#1f77b4" stroke-width="1.4211023622047245"/><line x1="135.57182124273032" y1="264.88778770987534" x2="141.04191613100699" y2="262.4384010120682" stroke="#1f77b4" stroke-width="1.4211023622047245"/><line x1="141.04191613100699" y1="262.4384010120682" x2="146.51201101928376" y2="259.9890143142609" stroke="#1f77b4" stroke-width="1.4211023622047245"/><line x1="146.51201101928376" y1="259.9890143142609" x2="151.98210590756042" y2="257.5396276164537" stroke="#1f77b4" stroke-width="1.4211023622047245"/><line x1="151.98210590756042" y1="257.5396276164537" x2="157.4522007958372" y2="255.09024091864643" stroke="#1f77b4" stroke-width="1.4211023622047245"/><line x1="157.4522007958372" y1="255.09024091864643" x2="162.92229568411386" y2="252.64085422083923" stroke="#1f77b4" stroke-width="1.4211023622047245"/><line x1="162.92229568411386" y1="252.64085422083923" x2="168.39239057239052" y2="250.191467523032" stroke="#1f77b4" stroke-width="1.4211023622047245"/><line x1="168.39239057239052" y1="250.191467523032" x2="173.86248546066727" y2="247.74208082522478" stroke="#1f77b4" stroke-width="1.4211023622047245"/><line x1="173.86248546066727" y1="247.74208082522478" x2="179.33258034894394" y2="245.29269412741758" stroke="#1f77b4" stroke-width="1.4211023622047245"/><line x1="179.33258034894394" y1="245.29269412741758" x2="184.8026752372207" y2="242.84330742961032" stroke="#1f77b4" stroke-width="1.4211023622047245"/><line x1="184.8026752372207" y1="242.84330742961032" x2="190.27277012549737" y2="240.39392073180312" stroke="#1f77b4" stroke-width="1.4211023622047245"/><line x1="190.27277012549737" y1="240.39392073180312" x2="195.74286501377404" y2="237.9445340339959" stroke="#1f77b4" stroke-width="1.4211023622047245"/><line x1="195.74286501377404" y1="237.9445340339959" x2="201.2129599020508" y2="235.49514733618867" stroke="#1f77b4" stroke-width="1.4211023622047245"/><line x1="201.2129599020508" y1="235.49514733618867" x2="206.68305479032747" y2="233.0457606383814" stroke="#1f77b4" stroke-width="1.4211023622047245"/><line x1="206.68305479032747" y1="233.0457606383814" x2="212.15314967860425" y2="230.59637394057427" stroke="#1f77b4" stroke-width="1.4211023622047245"/><line x1="212.15314967860425" y1="230.59637394057427" x2="217.6232445668809" y2="228.146987242767" stroke="#1f77b4" stroke-width="1.4211023622047245"/><line x1="217.6232445668809" y1="228.146987242767" x2="223.09333945515758" y2="225.69760054495978" stroke="#1f77b4" stroke-width="1.4211023622047245"/><line x1="223.09333945515758" y1="225.69760054495978" x2="228.56343434343435" y2="223.24821384715256" stroke="#1f77b4" stroke-width="1.4211023622047245"/><line x1="228.56343434343435" y1="223.24821384715256" x2="234.03352923171101" y2="220.7988271493453" stroke="#1f77b4" stroke-width="1.4211023622047245"/><line x1="234.03352923171101" y1="220.7988271493453" x2="239.5036241199878" y2="218.34944045153807" stroke="#1f77b4" stroke-width="1.4211023622047245"/><line x1="239.5036241199878" y1="218.34944045153807" x2="244.97371900826445" y2="215.9000537537309" stroke="#1f77b4" stroke-width="1.4211023622047245"/><line x1="244.97371900826445" y1="215.9000537537309" x2="250.44381389654112" y2="213.45066705592367" stroke="#1f77b4" stroke-width="1.4211023622047245"/><line x1="250.44381389654112" y1="213.45066705592367" x2="255.91390878481778" y2="211.00128035811645" stroke="#1f77b4" stroke-width="1.4211023622047245"/><line x1="255.91390878481778" y1="211.00128035811645" x2="261.38400367309447" y2="208.55189366030928" stroke="#1f77b4" stroke-width="1.4211023622047245"/><line x1="261.38400367309447" y1="208.55189366030928" x2="266.8540985613713" y2="206.10250696250196" stroke="#1f77b4" stroke-width="1.4211023622047245"/><line x1="266.8540985613713" y1="206.10250696250196" x2="272.32419344964796" y2="203.65312026469473" stroke="#1f77b4" stroke-width="1.4211023622047245"/><line x1="272.32419344964796" y1="203.65312026469473" x2="277.7942883379246" y2="201.20373356688748" stroke="#1f77b4" stroke-width="1.4211023622047245"/><line x1="277.7942883379246" y1="201.20373356688748" x2="283.2643832262013" y2="198.75434686908034" stroke="#1f77b4" stroke-width="1.4211023622047245"/><line x1="283.2643832262013" y1="198.75434686908034" x2="288.73447811447795" y2="196.30496017127317" stroke="#1f77b4" stroke-width="1.4211023622047245"/><line x1="288.73447811447795" y1="196.30496017127317" x2="294.20457300275484" y2="193.85557347346577" stroke="#1f77b4" stroke-width="1.4211023622047245"/><line x1="294.20457300275484" y1="193.85557347346577" x2="299.6746678910315" y2="191.40618677565863" stroke="#1f77b4" stroke-width="1.4211023622047245"/><line x1="299.6746678910315" y1="191.40618677565863" x2="305.14476277930817" y2="188.95680007785137" stroke="#1f77b4" stroke-width="1.4211023622047245"/><line x1="305.14476277930817" y1="188.95680007785137" x2="310.61485766758483" y2="186.50741338004417" stroke="#1f77b4" stroke-width="1.4211023622047245"/><line x1="310.61485766758483" y1="186.50741338004417" x2="316.08495255586155" y2="184.05802668223703" stroke="#1f77b4" stroke-width="1.4211023622047245"/><line x1="316.08495255586155" y1="184.05802668223703" x2="321.5550474441384" y2="181.60863998442966" stroke="#1f77b4" stroke-width="1.4211023622047245"/><line x1="321.5550474441384" y1="181.60863998442966" x2="327.02514233241504" y2="179.15925328662246" stroke="#1f77b4" stroke-width="1.4211023622047245"/><line x1="327.02514233241504" y1="179.15925328662246" x2="332.49523722069176" y2="176.70986658881523" stroke="#1f77b4" stroke-width="1.4211023622047245"/><line x1="332.49523722069176" y1="176.70986658881523" x2="337.96533210896837" y2="174.26047989100803" stroke="#1f77b4" stroke-width="1.4211023622047245"/><line x1="337.96533210896837" y1="174.26047989100803" x2="343.4354269972451" y2="171.81109319320083" stroke="#1f77b4" stroke-width="1.4211023622047245"/><line x1="343.4354269972451" y1="171.81109319320083" x2="348.9055218855219" y2="169.36170649539355" stroke="#1f77b4" stroke-width="1.4211023622047245"/><line x1="348.9055218855219" y1="169.36170649539355" x2="354.37561677379864" y2="166.91231979758635" stroke="#1f77b4" stroke-width="1.4211023622047245"/><line x1="354.37561677379864" y1="166.91231979758635" x2="359.8457116620753" y2="164.46293309977912" stroke="#1f77b4" stroke-width="1.4211023622047245"/><line x1="359.8457116620753" y1="164.46293309977912" x2="365.31580655035197" y2="162.01354640197192" stroke="#1f77b4" stroke-width="1.4211023622047245"/><line x1="365.31580655035197" y1="162.01354640197192" x2="370.7859014386286" y2="159.56415970416472" stroke="#1f77b4" stroke-width="1.4211023622047245"/><line x1="370.7859014386286" y1="159.56415970416472" x2="376.2559963269055" y2="157.1147730063574" stroke="#1f77b4" stroke-width="1.4211023622047245"/><line x1="376.2559963269055" y1="157.1147730063574" x2="381.7260912151822" y2="154.66538630855024" stroke="#1f77b4" stroke-width="1.4211023622047245"/><line x1="381.7260912151822" y1="154.66538630855024" x2="387.19618610345884" y2="152.21599961074298" stroke="#1f77b4" stroke-width="1.4211023622047245"/><line x1="387.19618610345884" y1="152.21599961074298" x2="392.6662809917355" y2="149.76661291293578" stroke="#1f77b4" stroke-width="1.4211023622047245"/><line x1="392.6662809917355" y1="149.76661291293578" x2="398.13637588001217" y2="147.3172262151286" stroke="#1f77b4" stroke-width="1.4211023622047245"/><line x1="398.13637588001217" y1="147.3172262151286" x2="403.60647076828906" y2="144.8678395173213" stroke="#1f77b4" stroke-width="1.4211023622047245"/><line x1="403.60647076828906" y1="144.8678395173213" x2="409.0765656565657" y2="142.41845281951407" stroke="#1f77b4" stroke-width="1.4211023622047245"/><line x1="409.0765656565657" y1="142.41845281951407" x2="414.5466605448424" y2="139.9690661217069" stroke="#1f77b4" stroke-width="1.4211023622047245"/><line x1="414.5466605448424" y1="139.9690661217069" x2="420.01675543311904" y2="137.5196794238997" stroke="#1f77b4" stroke-width="1.4211023622047245"/><line x1="420.01675543311904" y1="137.5196794238997" x2="425.4868503213957" y2="135.0702927260925" stroke="#1f77b4" stroke-width="1.4211023622047245"/><line x1="425.4868503213957" y1="135.0702927260925" x2="430.9569452096726" y2="132.6209060282852" stroke="#1f77b4" stroke-width="1.4211023622047245"/><line x1="430.9569452096726" y1="132.6209060282852" x2="436.4270400979492" y2="130.17151933047796" stroke="#1f77b4" stroke-width="1.4211023622047245"/><line x1="436.4270400979492" y1="130.17151933047796" x2="441.8971349862259" y2="127.72213263267076" stroke="#1f77b4" stroke-width="1.4211023622047245"/><line x1="441.8971349862259" y1="127.72213263267076" x2="447.3672298745026" y2="125.2727459348636" stroke="#1f77b4" stroke-width="1.4211023622047245"/><line x1="447.3672298745026" y1="125.2727459348636" x2="452.83732476277925" y2="122.8233592370564" stroke="#1f77b4" stroke-width="1.4211023622047245"/><line x1="452.83732476277925" y1="122.8233592370564" x2="458.3074196510561" y2="120.37397253924901" stroke="#1f77b4" stroke-width="1.4211023622047245"/><line x1="458.3074196510561" y1="120.37397253924901" x2="463.77751453933257" y2="117.92458584144192" stroke="#1f77b4" stroke-width="1.4211023622047245"/><line x1="463.77751453933257" y1="117.92458584144192" x2="469.24760942760946" y2="115.47519914363461" stroke="#1f77b4" stroke-width="1.4211023622047245"/><line x1="469.24760942760946" y1="115.47519914363461" x2="474.7177043158861" y2="113.02581244582737" stroke="#1f77b4" stroke-width="1.4211023622047245"/><line x1="474.7177043158861" y1="113.02581244582737" x2="480.18779920416284" y2="110.57642574802017" stroke="#1f77b4" stroke-width="1.4211023622047245"/><line x1="480.18779920416284" y1="110.57642574802017" x2="485.6578940924397" y2="108.1270390502129" stroke="#1f77b4" stroke-width="1.4211023622047245"/><line x1="485.6578940924397" y1="108.1270390502129" x2="491.1279889807161" y2="105.67765235240581" stroke="#1f77b4" stroke-width="1.4211023622047245"/><line x1="491.1279889807161" y1="105.67765235240581" x2="496.598083868993" y2="103.2282656545985" stroke="#1f77b4" stroke-width="1.4211023622047245"/><line x1="496.598083868993" y1="103.2282656545985" x2="502.06817875726966" y2="100.77887895679126" stroke="#1f77b4" stroke-width="1.4211023622047245"/><line x1="502.06817875726966" y1="100.77887895679126" x2="507.5382736455463" y2="98.32949225898406" stroke="#1f77b4" stroke-width="1.4211023622047245"/><line x1="507.5382736455463" y1="98.32949225898406" x2="513.0083685338232" y2="95.88010556117679" stroke="#1f77b4" stroke-width="1.4211023622047245"/><line x1="513.0083685338232" y1="95.88010556117679" x2="518.4784634220996" y2="93.43071886336963" stroke="#1f77b4" stroke-width="1.4211023622047245"/><line x1="518.4784634220996" y1="93.43071886336963" x2="523.9485583103765" y2="90.98133216556239" stroke="#1f77b4" stroke-width="1.4211023622047245"/><line x1="523.9485583103765" y1="90.98133216556239" x2="529.4186531986531" y2="88.53194546775515" stroke="#1f77b4" stroke-width="1.4211023622047245"/><line x1="529.4186531986531" y1="88.53194546775515" x2="534.8887480869298" y2="86.08255876994795" stroke="#1f77b4" stroke-width="1.4211023622047245"/><line x1="534.8887480869298" y1="86.08255876994795" x2="540.3588429752067" y2="83.63317207214068" stroke="#1f77b4" stroke-width="1.4211023622047245"/><line x1="540.3588429752067" y1="83.63317207214068" x2="545.8289378634832" y2="81.18378537433352" stroke="#1f77b4" stroke-width="1.4211023622047245"/><line x1="545.8289378634832" y1="81.18378537433352" x2="551.29903275176" y2="78.73439867652628" stroke="#1f77b4" stroke-width="1.4211023622047245"/><line x1="551.29903275176" y1="78.73439867652628" x2="556.7691276400367" y2="76.28501197871904" stroke="#1f77b4" stroke-width="1.4211023622047245"/><line x1="556.7691276400367" y1="76.28501197871904" x2="562.2392225283133" y2="73.83562528091184" stroke="#1f77b4" stroke-width="1.4211023622047245"/><line x1="562.2392225283133" y1="73.83562528091184" x2="567.7093174165901" y2="71.38623858310464" stroke="#1f77b4" stroke-width="1.4211023622047245"/><line x1="567.7093174165901" y1="71.38623858310464" x2="573.1794123048667" y2="68.93685188529741" stroke="#1f77b4" stroke-width="1.4211023622047245"/><line x1="573.1794123048667" y1="68.93685188529741" x2="578.6495071931436" y2="66.48746518749017" stroke="#1f77b4" stroke-width="1.4211023622047245"/><line x1="578.6495071931436" y1="66.48746518749017" x2="584.1196020814202" y2="64.0380784896829" stroke="#1f77b4" stroke-width="1.4211023622047245"/><line x1="584.1196020814202" y1="64.0380784896829" x2="589.5896969696969" y2="61.5886917918757" stroke="#1f77b4" stroke-width="1.4211023622047245"/></svg>