<svg xmlns="http://www.w3.org/2000/svg" width="624" height="384" viewBox="0 0 624 384"><rect x="0.0" y="0.0" width="624.0" height="384.0" fill="#ffffff" fill-opacity="1.0" stroke="none"/><line x1="111.93632242424242" y1="32.266666666666666" x2="111.93632242424242" y2="358.3333333333333" stroke="#dddddd" stroke-width="0.6666666666666666"/><line x1="228.3413042424242" y1="32.266666666666666" x2="228.3413042424242" y2="358.3333333333333" stroke="#dddddd" stroke-width="0.6666666666666666"/><line x1="344.74628606060605" y1="32.266666666666666" x2="344.74628606060605" y2="358.3333333333333" stroke="#dddddd" stroke-width="0.6666666666666666"/><line x1="461.1512678787879" y1="32.266666666666666" x2="461.1512678787879" y2="358.3333333333333" stroke="#dddddd" stroke-width="0.6666666666666666"/><line x1="53.733831515151515" y1="32.266666666666666" x2="53.733831515151515" y2="358.3333333333333" stroke="#dddddd" stroke-width="1.3333333333333333"/><line x1="170.1388133333333" y1="32.266666666666666" x2="170.1388133333333" y2="358.3333333333333" stroke="#dddddd" stroke-width="1.3333333333333333"/><line x1="286.54379515151516" y1="32.266666666666666" x2="286.54379515151516" y2="358.3333333333333" stroke="#dddddd" stroke-width="1.3333333333333333"/><line x1="402.94877696969695" y1="32.266666666666666" x2="402.94877696969695" y2="358.3333333333333" stroke="#dddddd" stroke-width="1.3333333333333333"/><line x1="519.3537587878786" y1="32.266666666666666" x2="519.3537587878786" y2="358.3333333333333" stroke="#dddddd" stroke-width="1.3333333333333333"/><line x1="42.093333333333334" y1="306.4206028977994" x2="554.2752533333332" y2="306.4206028977994" stroke="#dddddd" stroke-width="0.6666666666666666"/><line x1="42.093333333333334" y1="232.40563729128658" x2="554.2752533333332" y2="232.40563729128658" stroke="#dddddd" stroke-width="0.6666666666666666"/><line x1="42.093333333333334" y1="158.3906716847738" x2="554.2752533333332" y2="158.3906716847738" stroke="#dddddd" stroke-width="0.6666666666666666"/><line x1="42.093333333333334" y1="84.37570607826095" x2="554.2752533333332" y2="84.37570607826095" stroke="#dddddd" stroke-width="0.6666666666666666"/><line x1="42.093333333333334" y1="343.4280857010558" x2="554.2752533333332" y2="343.4280857010558" stroke="#dddddd" stroke-width="1.3333333333333333"/><line x1="42.093333333333334" y1="269.41312009454293" x2="554.2752533333332" y2="269.41312009454293" stroke="#dddddd" stroke-width="1.3333333333333333"/><line x1="42.093333333333334" y1="195.3981544880302" x2="554.2752533333332" y2="195.3981544880302" stroke="#dddddd" stroke-width="1.3333333333333333"/><line x1="42.093333333333334" y1="121.38318888151737" x2="554.2752533333332" y2="121.38318888151737" stroke="#dddddd" stroke-width="1.3333333333333333"/><line x1="42.093333333333334" y1="47.368223275004496" x2="554.2752533333332" y2="47.368223275004496" stroke="#dddddd" stroke-width="1.3333333333333333"/><rect x="42.093333333333334" y="32.266666666666666" width="512.18192" height="326.06666666666666" fill="#ffffff" fill-opacity="0.0" stroke="#444444" stroke-width="1.3333333333333333"/><line x1="53.733831515151515" y1="358.3333333333333" x2="53.733831515151515" y2="362.0" stroke="#444444" stroke-width="1.3333333333333333"/><text x="53.733831515151515" y="374.32" fill="#333333" font-size="11.733333333333334" font-family="sans-serif" text-anchor="middle">0</text><line x1="170.1388133333333" y1="358.3333333333333" x2="170.1388133333333" y2="362.0" stroke="#444444" stroke-width="1.3333333333333333"/><text x="170.1388133333333" y="374.32" fill="#333333" font-size="11.733333333333334" font-family="sans-serif" text-anchor="middle">10</text><line x1="286.54379515151516" y1="358.3333333333333" x2="286.54379515151516" y2="362.0" stroke="#444444" stroke-width="1.3333333333333333"/><text x="286.54379515151516" y="374.32" fill="#333333" font-size="11.733333333333334" font-family="sans-serif" text-anchor="middle">20</text><line x1="402.94877696969695" y1="358.3333333333333" x2="402.94877696969695" y2="362.0" stroke="#444444" stroke-width="1.3333333333333333"/><text x="402.94877696969695" y="374.32" fill="#333333" font-size="11.733333333333334" font-family="sans-serif" text-anchor="middle">30</text><line x1="519.3537587878786" y1="358.3333333333333" x2="519.3537587878786" y2="362.0" stroke="#444444" stroke-width="1.3333333333333333"/><text x="519.3537587878786" y="374.32" fill="#333333" font-size="11.733333333333334" font-family="sans-serif" text-anchor="middle">40</text><line x1="42.093333333333334" y1="343.4280857010558" x2="38.42666666666666" y2="343.4280857010558" stroke="#444444" stroke-width="1.3333333333333333"/><text x="35.49333333333333" y="347.53475236772243" fill="#333333" font-size="11.733333333333334" font-family="sans-serif" text-anchor="end">-1.0</text><line x1="42.093333333333334" y1="269.41312009454293" x2="38.42666666666666" y2="269.41312009454293" stroke="#444444" stroke-width="1.3333333333333333"/><text x="35.49333333333333" y="273.5197867612096" fill="#333333" font-size="11.733333333333334" font-family="sans-serif" text-anchor="end">-0.5</text><line x1="42.093333333333334" y1="195.3981544880302" x2="38.42666666666666" y2="195.3981544880302" stroke="#444444" stroke-width="1.3333333333333333"/><text x="35.49333333333333" y="199.50482115469688" fill="#333333" font-size="11.733333333333334" font-family="sans-serif" text-anchor="end">0.0</text><line x1="42.093333333333334" y1="121.38318888151737" x2="38.42666666666666" y2="121.38318888151737" stroke="#444444" stroke-width="1.3333333333333333"/><text x="35.49333333333333" y="125.48985554818404" fill="#333333" font-size="11.733333333333334" font-family="sans-serif" text-anchor="end">0.5</text><line x1="42.093333333333334" y1="47.368223275004496" x2="38.42666666666666" y2="47.368223275004496" stroke="#444444" stroke-width="1.3333333333333333"/><text x="35.49333333333333" y="51.474889941671165" fill="#333333" font-size="11.733333333333334" font-family="sans-serif" text-anchor="end">1.0</text><text x="42.093333333333334" y="21.413333333333334" fill="#333333" font-size="17.599999999999998" font-family="sans-serif" text-anchor="start">MultiGP multi-output curves</text><path d="M 65.37432969696968 195.68640264928763 L 77.01482787878787 159.0703391539895 L 88.65532606060606 124.70740982110456 L 100.29582424242423 94.70780512180336 L 111.93632242424242 71.00973538085046 L 123.57682060606061 55.095527064863816 L 135.21731878787878 47.92796650573662 L 146.85781696969698 49.9369150726958 L 158.49831515151516 60.99626574274422 L 170.1388133333333 80.4209984743508 L 181.77931151515148 107.00293328929293 L 193.41980969696968 139.08745034959156 L 205.06030787878788 174.68064622037969 L 216.700806060606 211.5737612673115 L 228.3413042424242 247.477660469571 L 239.9818024242424 280.1618944551767 L 251.6223006060606 307.59229145536017 L 263.26279878787875 328.0592040186301 L 274.90329696969695 340.2864500140658 L 286.54379515151516 343.5121212121212 L 298.1842933333333 337.5357448414642 L 309.82479151515145 322.72955669406554 L 321.46528969696965 300.0145864688932 L 333.10578787878785 270.80388880524066 L 344.74628606060605 236.91566317590696 L 356.38678424242426 200.46031216745303 L 368.02728242424246 163.70779839537673 L 379.66778060606055 128.94403981100461 L 391.3082787878787 98.32729799818378 L 402.94877696969695 73.75542118357444 L 414.5892751515151 56.75144278914312 L 426.2297733333333 48.37196678987713 L 437.8702715151515 49.141068155861106 L 449.51076969696965 59.01324021272925 L 461.1512678787879 77.37417203746818 L 472.79176606060605 103.08509578779649 L 484.43226424242425 134.563544105478 L 496.07276242424234 169.87723485275458 L 507.71326060606054 206.8171419387565 L 519.3537587878786 243.0062474138411 L 530.994256969697 276.21146324691 L 530.994256969697 275.62427886493435 L 519.3537587878786 242.5000889728367 L 507.71326060606054 206.30556369330998 L 496.07276242424234 169.43690311703932 L 484.43226424242425 134.16560120442298 L 472.79176606060605 102.68699487299803 L 461.1512678787879 76.97533022229845 L 449.51076969696965 58.62855797168072 L 437.8702715151515 48.77393313000736 L 426.2297733333333 48.01291187010137 L 414.5892751515151 56.391463264730874 L 402.94877696969695 73.39429507178775 L 391.3082787878787 97.97018150854122 L 379.66778060606055 128.59422056917674 L 368.02728242424246 163.363299606719 L 356.38678424242426 200.11635085867533 L 344.74628606060605 236.56946680767584 L 333.10578787878785 270.4567107644408 L 321.46528969696965 299.6695961231096 L 309.82479151515145 322.3882544003822 L 298.1842933333333 337.19624185041505 L 286.54379515151516 343.1708189330361 L 274.90329696969695 339.94145966828216 L 263.26279878787875 327.7120259634791 L 251.6223006060606 307.24609507273726 L 239.9818024242424 279.81793314639896 L 228.3413042424242 247.13316165198773 L 216.700806060606 211.22394199699806 L 205.06030787878788 174.32352974468893 L 193.41980969696968 138.72632423780487 L 181.77931151515148 106.64295375103991 L 170.1388133333333 80.06194356845154 L 158.49831515151516 60.62913071689047 L 146.85781696969698 49.55223279279119 L 135.21731878787878 47.529124728043556 L 123.57682060606061 54.69742617509621 L 111.93632242424242 70.61179247979544 L 100.29582424242423 94.26747337477305 L 88.65532606060606 124.19583156591875 L 77.01482787878787 158.56418071298506 L 65.37432969696968 195.09921826731195 Z" fill="#1f77b4" fill-opacity="0.2" stroke="none"/><line x1="65.37432969696968" y1="195.39281045829978" x2="77.01482787878787" y2="158.81725993348732" stroke="#F8766D" stroke-width="1.4211023622047245"/><line x1="77.01482787878787" y1="158.81725993348732" x2="88.65532606060606" y2="124.45162069351166" stroke="#F8766D" stroke-width="1.4211023622047245"/><line x1="88.65532606060606" y1="124.45162069351166" x2="100.29582424242423" y2="94.4876392482882" stroke="#F8766D" stroke-width="1.4211023622047245"/><line x1="100.29582424242423" y1="94.4876392482882" x2="111.93632242424242" y2="70.81076393032295" stroke="#F8766D" stroke-width="1.4211023622047245"/><line x1="111.93632242424242" y1="70.81076393032295" x2="123.57682060606061" y2="54.896476619980035" stroke="#F8766D" stroke-width="1.4211023622047245"/><line x1="123.57682060606061" y1="54.896476619980035" x2="135.21731878787878" y2="47.72854561689011" stroke="#F8766D" stroke-width="1.4211023622047245"/><line x1="135.21731878787878" y1="47.72854561689011" x2="146.85781696969698" y2="49.74457393274349" stroke="#F8766D" stroke-width="1.4211023622047245"/><line x1="146.85781696969698" y1="49.74457393274349" x2="158.49831515151516" y2="60.812698229817364" stroke="#F8766D" stroke-width="1.4211023622047245"/><line x1="158.49831515151516" y1="60.812698229817364" x2="170.1388133333333" y2="80.24147102140114" stroke="#F8766D" stroke-width="1.4211023622047245"/><line x1="170.1388133333333" y1="80.24147102140114" x2="181.77931151515148" y2="106.82294352016643" stroke="#F8766D" stroke-width="1.4211023622047245"/><line x1="181.77931151515148" y1="106.82294352016643" x2="193.41980969696968" y2="138.90688729369825" stroke="#F8766D" stroke-width="1.4211023622047245"/><line x1="193.41980969696968" y1="138.90688729369825" x2="205.06030787878788" y2="174.5020879825343" stroke="#F8766D" stroke-width="1.4211023622047245"/><line x1="205.06030787878788" y1="174.5020879825343" x2="216.700806060606" y2="211.39885163215473" stroke="#F8766D" stroke-width="1.4211023622047245"/><line x1="216.700806060606" y1="211.39885163215473" x2="228.3413042424242" y2="247.30541106077936" stroke="#F8766D" stroke-width="1.4211023622047245"/><line x1="228.3413042424242" y1="247.30541106077936" x2="239.9818024242424" y2="279.9899138007878" stroke="#F8766D" stroke-width="1.4211023622047245"/><line x1="239.9818024242424" y1="279.9899138007878" x2="251.6223006060606" y2="307.41919326404866" stroke="#F8766D" stroke-width="1.4211023622047245"/><line x1="251.6223006060606" y1="307.41919326404866" x2="263.26279878787875" y2="327.8856149910546" stroke="#F8766D" stroke-width="1.4211023622047245"/><line x1="263.26279878787875" y1="327.8856149910546" x2="274.90329696969695" y2="340.11395484117395" stroke="#F8766D" stroke-width="1.4211023622047245"/><line x1="274.90329696969695" y1="340.11395484117395" x2="286.54379515151516" y2="343.34147007257866" stroke="#F8766D" stroke-width="1.4211023622047245"/><line x1="286.54379515151516" y1="343.34147007257866" x2="298.1842933333333" y2="337.3659933459396" stroke="#F8766D" stroke-width="1.4211023622047245"/><line x1="298.1842933333333" y1="337.3659933459396" x2="309.82479151515145" y2="322.55890554722384" stroke="#F8766D" stroke-width="1.4211023622047245"/><line x1="309.82479151515145" y1="322.55890554722384" x2="321.46528969696965" y2="299.8420912960014" stroke="#F8766D" stroke-width="1.4211023622047245"/><line x1="321.46528969696965" y1="299.8420912960014" x2="333.10578787878785" y2="270.63029978484076" stroke="#F8766D" stroke-width="1.4211023622047245"/><line x1="333.10578787878785" y1="270.63029978484076" x2="344.74628606060605" y2="236.74256499179137" stroke="#F8766D" stroke-width="1.4211023622047245"/><line x1="344.74628606060605" y1="236.74256499179137" x2="356.38678424242426" y2="200.28833151306418" stroke="#F8766D" stroke-width="1.4211023622047245"/><line x1="356.38678424242426" y1="200.28833151306418" x2="368.02728242424246" y2="163.5355490010479" stroke="#F8766D" stroke-width="1.4211023622047245"/><line x1="368.02728242424246" y1="163.5355490010479" x2="379.66778060606055" y2="128.7691301900907" stroke="#F8766D" stroke-width="1.4211023622047245"/><line x1="379.66778060606055" y1="128.7691301900907" x2="391.3082787878787" y2="98.14873975336248" stroke="#F8766D" stroke-width="1.4211023622047245"/><line x1="391.3082787878787" y1="98.14873975336248" x2="402.94877696969695" y2="73.57485812768114" stroke="#F8766D" stroke-width="1.4211023622047245"/><line x1="402.94877696969695" y1="73.57485812768114" x2="414.5892751515151" y2="56.57145302693698" stroke="#F8766D" stroke-width="1.4211023622047245"/><line x1="414.5892751515151" y1="56.57145302693698" x2="426.2297733333333" y2="48.19243932998927" stroke="#F8766D" stroke-width="1.4211023622047245"/><line x1="426.2297733333333" y1="48.19243932998927" x2="437.8702715151515" y2="48.95750064293425" stroke="#F8766D" stroke-width="1.4211023622047245"/><line x1="437.8702715151515" y1="48.95750064293425" x2="449.51076969696965" y2="58.820899092205" stroke="#F8766D" stroke-width="1.4211023622047245"/><line x1="449.51076969696965" y1="58.820899092205" x2="461.1512678787879" y2="77.17475112988332" stroke="#F8766D" stroke-width="1.4211023622047245"/><line x1="461.1512678787879" y1="77.17475112988332" x2="472.79176606060605" y2="102.88604533039725" stroke="#F8766D" stroke-width="1.4211023622047245"/><line x1="472.79176606060605" y1="102.88604533039725" x2="484.43226424242425" y2="134.3645726549505" stroke="#F8766D" stroke-width="1.4211023622047245"/><line x1="484.43226424242425" y1="134.3645726549505" x2="496.07276242424234" y2="169.65706898489697" stroke="#F8766D" stroke-width="1.4211023622047245"/><line x1="496.07276242424234" y1="169.65706898489697" x2="507.71326060606054" y2="206.5613528160332" stroke="#F8766D" stroke-width="1.4211023622047245"/><line x1="507.71326060606054" y1="206.5613528160332" x2="519.3537587878786" y2="242.7531681933389" stroke="#F8766D" stroke-width="1.4211023622047245"/><line x1="519.3537587878786" y1="242.7531681933389" x2="530.994256969697" y2="275.9178710559222" stroke="#F8766D" stroke-width="1.4211023622047245"/><path d="M 65.37432969696968 47.67506316985445 L 77.01482787878787 52.18437319122029 L 88.65532606060606 65.70969419870167 L 100.29582424242423 87.29521738170372 L 111.93632242424242 115.62936440305357 L 123.57682060606061 148.94672019929493 L 135.21731878787878 185.15319915366024 L 146.85781696969698 221.99293214247533 L 158.49831515151516 257.1856351570862 L 170.1388133333333 288.55389125405486 L 181.77931151515148 314.15031446150937 L 193.41980969696968 332.3805455000835 L 205.06030787878788 342.1080120896253 L 216.700806060606 342.72682730360845 L 228.3413042424242 334.19830844170576 L 239.9818024242424 317.05137637883223 L 251.6223006060606 292.34921356767364 L 263.26279878787875 261.6248985370319 L 274.90329696969695 226.78813504420486 L 286.54379515151516 190.0070232378137 L 298.1842933333333 153.5719856599224 L 309.82479151515145 119.75125199748106 L 321.46528969696965 90.64849599698539 L 333.10578787878785 68.07244628444558 L 344.74628606060605 53.42581109117524 L 356.38678424242426 47.61898143115707 L 368.02728242424246 51.01303266101354 L 379.66778060606055 63.39581399404892 L 391.3082787878787 83.99437263169469 L 402.94877696969695 111.52464051584798 L 414.5892751515151 144.2743967596632 L 426.2297733333333 180.21165869891334 L 437.8702715151515 217.10896181656122 L 449.51076969696965 252.6755855306814 L 461.1512678787879 284.6965387875216 L 472.79176606060605 311.1761773801394 L 484.43226424242425 330.4739685020009 L 496.07276242424234 341.406602609269 L 507.71326060606054 343.2828757940566 L 519.3537587878786 335.930970628134 L 530.994256969697 319.8912389044033 L 530.994256969697 319.3040545224276 L 519.3537587878786 335.42481218712953 L 507.71326060606054 342.77129754861005 L 496.07276242424234 340.96627087355375 L 484.43226424242425 330.07602560094585 L 472.79176606060605 310.778076465341 L 461.1512678787879 284.2976969723519 L 449.51076969696965 252.2909032896328 L 437.8702715151515 216.7418267907075 L 426.2297733333333 179.85260377913767 L 414.5892751515151 143.9144172352509 L 402.94877696969695 111.16351440406129 L 391.3082787878787 83.63725614205217 L 379.66778060606055 63.045994752221034 L 368.02728242424246 50.66853387235577 L 356.38678424242426 47.275020122379374 L 344.74628606060605 53.07961472294418 L 333.10578787878785 67.7252682436457 L 321.46528969696965 90.30350565120182 L 309.82479151515145 119.40994970379775 L 298.1842933333333 153.23248266887327 L 286.54379515151516 189.66572095872863 L 274.90329696969695 226.4431446984212 L 263.26279878787875 261.2777204818809 L 251.6223006060606 292.0030171850507 L 239.9818024242424 316.7074150700545 L 228.3413042424242 333.8538096241225 L 216.700806060606 342.377008033295 L 205.06030787878788 341.7508956139346 L 193.41980969696968 332.0194193882968 L 181.77931151515148 313.7903349232563 L 170.1388133333333 288.1948363481556 L 158.49831515151516 256.81850013123255 L 146.85781696969698 221.60824986257072 L 135.21731878787878 184.7543573759671 L 123.57682060606061 148.54861930952737 L 111.93632242424242 115.23142150199858 L 100.29582424242423 86.85488563467334 L 88.65532606060606 65.19811594351586 L 77.01482787878787 51.67821475021583 L 65.37432969696968 47.08787878787874 Z" fill="#1f77b4" fill-opacity="0.2" stroke="none"/><line x1="65.37432969696968" y1="47.381470978866595" x2="77.01482787878787" y2="51.931293970718116" stroke="#00BFC4" stroke-width="1.4211023622047245"/><line x1="77.01482787878787" y1="51.931293970718116" x2="88.65532606060606" y2="65.4539050711088" stroke="#00BFC4" stroke-width="1.4211023622047245"/><line x1="88.65532606060606" y1="65.4539050711088" x2="100.29582424242423" y2="87.07505150818852" stroke="#00BFC4" stroke-width="1.4211023622047245"/><line x1="100.29582424242423" y1="87.07505150818852" x2="111.93632242424242" y2="115.43039295252606" stroke="#00BFC4" stroke-width="1.4211023622047245"/><line x1="111.93632242424242" y1="115.43039295252606" x2="123.57682060606061" y2="148.74766975441116" stroke="#00BFC4" stroke-width="1.4211023622047245"/><line x1="123.57682060606061" y1="148.74766975441116" x2="135.21731878787878" y2="184.95377826481368" stroke="#00BFC4" stroke-width="1.4211023622047245"/><line x1="135.21731878787878" y1="184.95377826481368" x2="146.85781696969698" y2="221.80059100252302" stroke="#00BFC4" stroke-width="1.4211023622047245"/><line x1="146.85781696969698" y1="221.80059100252302" x2="158.49831515151516" y2="257.00206764415935" stroke="#00BFC4" stroke-width="1.4211023622047245"/><line x1="158.49831515151516" y1="257.00206764415935" x2="170.1388133333333" y2="288.37436380110523" stroke="#00BFC4" stroke-width="1.4211023622047245"/><line x1="170.1388133333333" y1="288.37436380110523" x2="181.77931151515148" y2="313.97032469238286" stroke="#00BFC4" stroke-width="1.4211023622047245"/><line x1="181.77931151515148" y1="313.97032469238286" x2="193.41980969696968" y2="332.19998244419014" stroke="#00BFC4" stroke-width="1.4211023622047245"/><line x1="193.41980969696968" y1="332.19998244419014" x2="205.06030787878788" y2="341.92945385177995" stroke="#00BFC4" stroke-width="1.4211023622047245"/><line x1="205.06030787878788" y1="341.92945385177995" x2="216.700806060606" y2="342.5519176684518" stroke="#00BFC4" stroke-width="1.4211023622047245"/><line x1="216.700806060606" y1="342.5519176684518" x2="228.3413042424242" y2="334.02605903291413" stroke="#00BFC4" stroke-width="1.4211023622047245"/><line x1="228.3413042424242" y1="334.02605903291413" x2="239.9818024242424" y2="316.8793957244434" stroke="#00BFC4" stroke-width="1.4211023622047245"/><line x1="239.9818024242424" y1="316.8793957244434" x2="251.6223006060606" y2="292.17611537636213" stroke="#00BFC4" stroke-width="1.4211023622047245"/><line x1="251.6223006060606" y1="292.17611537636213" x2="263.26279878787875" y2="261.4513095094564" stroke="#00BFC4" stroke-width="1.4211023622047245"/><line x1="263.26279878787875" y1="261.4513095094564" x2="274.90329696969695" y2="226.61563987131302" stroke="#00BFC4" stroke-width="1.4211023622047245"/><line x1="274.90329696969695" y1="226.61563987131302" x2="286.54379515151516" y2="189.83637209827117" stroke="#00BFC4" stroke-width="1.4211023622047245"/><line x1="286.54379515151516" y1="189.83637209827117" x2="298.1842933333333" y2="153.40223416439784" stroke="#00BFC4" stroke-width="1.4211023622047245"/><line x1="298.1842933333333" y1="153.40223416439784" x2="309.82479151515145" y2="119.5806008506394" stroke="#00BFC4" stroke-width="1.4211023622047245"/><line x1="309.82479151515145" y1="119.5806008506394" x2="321.46528969696965" y2="90.47600082409356" stroke="#00BFC4" stroke-width="1.4211023622047245"/><line x1="321.46528969696965" y1="90.47600082409356" x2="333.10578787878785" y2="67.89885726404566" stroke="#00BFC4" stroke-width="1.4211023622047245"/><line x1="333.10578787878785" y1="67.89885726404566" x2="344.74628606060605" y2="53.25271290705969" stroke="#00BFC4" stroke-width="1.4211023622047245"/><line x1="344.74628606060605" y1="53.25271290705969" x2="356.38678424242426" y2="47.44700077676828" stroke="#00BFC4" stroke-width="1.4211023622047245"/><line x1="356.38678424242426" y1="47.44700077676828" x2="368.02728242424246" y2="50.840783266684674" stroke="#00BFC4" stroke-width="1.4211023622047245"/><line x1="368.02728242424246" y1="50.840783266684674" x2="379.66778060606055" y2="63.22090437313496" stroke="#00BFC4" stroke-width="1.4211023622047245"/><line x1="379.66778060606055" y1="63.22090437313496" x2="391.3082787878787" y2="83.81581438687343" stroke="#00BFC4" stroke-width="1.4211023622047245"/><line x1="391.3082787878787" y1="83.81581438687343" x2="402.94877696969695" y2="111.34407745995463" stroke="#00BFC4" stroke-width="1.4211023622047245"/><line x1="402.94877696969695" y1="111.34407745995463" x2="414.5892751515151" y2="144.09440699745704" stroke="#00BFC4" stroke-width="1.4211023622047245"/><line x1="414.5892751515151" y1="144.09440699745704" x2="426.2297733333333" y2="180.03213123902552" stroke="#00BFC4" stroke-width="1.4211023622047245"/><line x1="426.2297733333333" y1="180.03213123902552" x2="437.8702715151515" y2="216.92539430363436" stroke="#00BFC4" stroke-width="1.4211023622047245"/><line x1="437.8702715151515" y1="216.92539430363436" x2="449.51076969696965" y2="252.4832444101571" stroke="#00BFC4" stroke-width="1.4211023622047245"/><line x1="449.51076969696965" y1="252.4832444101571" x2="461.1512678787879" y2="284.49711787993675" stroke="#00BFC4" stroke-width="1.4211023622047245"/><line x1="461.1512678787879" y1="284.49711787993675" x2="472.79176606060605" y2="310.9771269227402" stroke="#00BFC4" stroke-width="1.4211023622047245"/><line x1="472.79176606060605" y1="310.9771269227402" x2="484.43226424242425" y2="330.2749970514734" stroke="#00BFC4" stroke-width="1.4211023622047245"/><line x1="484.43226424242425" y1="330.2749970514734" x2="496.07276242424234" y2="341.1864367414114" stroke="#00BFC4" stroke-width="1.4211023622047245"/><line x1="496.07276242424234" y1="341.1864367414114" x2="507.71326060606054" y2="343.0270866713334" stroke="#00BFC4" stroke-width="1.4211023622047245"/><line x1="507.71326060606054" y1="343.0270866713334" x2="519.3537587878786" y2="335.67789140763176" stroke="#00BFC4" stroke-width="1.4211023622047245"/><line x1="519.3537587878786" y1="335.67789140763176" x2="530.994256969697" y2="319.59764671341543" stroke="#00BFC4" stroke-width="1.4211023622047245"/><rect x="568.94192" y="172.18592" width="23.114079999999994" height="46.22815999999999" fill="#ffffff" fill-opacity="1.0" stroke="none"/><rect x="569.8868018897638" y="173.13080188976375" width="21.224316220472435" height="21.224316220472435" fill="#F8766D" fill-opacity="1.0" stroke="none"/><text x="595.7226666666666" y="187.49762666666666" fill="#333333" font-size="11.733333333333334" font-family="sans-serif" text-anchor="start">y0</text><rect x="569.8868018897638" y="196.24488188976375" width="21.224316220472435" height="21.224316220472435" fill="#00BFC4" fill-opacity="1.0" stroke="none"/><text x="595.7226666666666" y="210.61170666666663" fill="#333333" font-size="11.733333333333334" font-family="sans-serif" text-anchor="start">y1</text></svg>