<svg xmlns="http://www.w3.org/2000/svg" width="624" height="384" viewBox="0 0 624 384"><rect x="0.0" y="0.0" width="624.0" height="384.0" fill="#ffffff" fill-opacity="1.0" stroke="none"/><line x1="146.6959585807827" y1="32.266666666666666" x2="146.6959585807827" y2="340.0" stroke="#dddddd" stroke-width="0.6666666666666666"/><line x1="273.74940764428203" y1="32.266666666666666" x2="273.74940764428203" y2="340.0" stroke="#dddddd" stroke-width="0.6666666666666666"/><line x1="400.80285670778136" y1="32.266666666666666" x2="400.80285670778136" y2="340.0" stroke="#dddddd" stroke-width="0.6666666666666666"/><line x1="527.8563057712806" y1="32.266666666666666" x2="527.8563057712806" y2="340.0" stroke="#dddddd" stroke-width="0.6666666666666666"/><line x1="83.16923404903305" y1="32.266666666666666" x2="83.16923404903305" y2="340.0" stroke="#dddddd" stroke-width="1.3333333333333333"/><line x1="210.22268311253237" y1="32.266666666666666" x2="210.22268311253237" y2="340.0" stroke="#dddddd" stroke-width="1.3333333333333333"/><line x1="337.2761321760317" y1="32.266666666666666" x2="337.2761321760317" y2="340.0" stroke="#dddddd" stroke-width="1.3333333333333333"/><line x1="464.32958123953097" y1="32.266666666666666" x2="464.32958123953097" y2="340.0" stroke="#dddddd" stroke-width="1.3333333333333333"/><line x1="591.3830303030303" y1="32.266666666666666" x2="591.3830303030303" y2="340.0" stroke="#dddddd" stroke-width="1.3333333333333333"/><line x1="60.42666666666666" y1="287.54138287914714" x2="616.6666666666666" y2="287.54138287914714" stroke="#dddddd" stroke-width="0.6666666666666666"/><line x1="60.42666666666666" y1="209.52374906629453" x2="616.6666666666666" y2="209.52374906629453" stroke="#dddddd" stroke-width="0.6666666666666666"/><line x1="60.42666666666666" y1="131.5061152534419" x2="616.6666666666666" y2="131.5061152534419" stroke="#dddddd" stroke-width="0.6666666666666666"/><line x1="60.42666666666666" y1="53.4884814405893" x2="616.6666666666666" y2="53.4884814405893" stroke="#dddddd" stroke-width="0.6666666666666666"/><line x1="60.42666666666666" y1="326.5501997855734" x2="616.6666666666666" y2="326.5501997855734" stroke="#dddddd" stroke-width="1.3333333333333333"/><line x1="60.42666666666666" y1="248.53256597272082" x2="616.6666666666666" y2="248.53256597272082" stroke="#dddddd" stroke-width="1.3333333333333333"/><line x1="60.42666666666666" y1="170.51493215986818" x2="616.6666666666666" y2="170.51493215986818" stroke="#dddddd" stroke-width="1.3333333333333333"/><line x1="60.42666666666666" y1="92.49729834701557" x2="616.6666666666666" y2="92.49729834701557" stroke="#dddddd" stroke-width="1.3333333333333333"/><rect x="60.42666666666666" y="32.266666666666666" width="556.24" height="307.73333333333335" fill="#ffffff" fill-opacity="0.0" stroke="#444444" stroke-width="1.3333333333333333"/><line x1="83.16923404903305" y1="340.0" x2="83.16923404903305" y2="343.66666666666663" stroke="#444444" stroke-width="1.3333333333333333"/><text x="83.16923404903305" y="355.9866666666667" fill="#333333" font-size="11.733333333333334" font-family="sans-serif" text-anchor="middle">0</text><line x1="210.22268311253237" y1="340.0" x2="210.22268311253237" y2="343.66666666666663" stroke="#444444" stroke-width="1.3333333333333333"/><text x="210.22268311253237" y="355.9866666666667" fill="#333333" font-size="11.733333333333334" font-family="sans-serif" text-anchor="middle">50</text><line x1="337.2761321760317" y1="340.0" x2="337.2761321760317" y2="343.66666666666663" stroke="#444444" stroke-width="1.3333333333333333"/><text x="337.2761321760317" y="355.9866666666667" fill="#333333" font-size="11.733333333333334" font-family="sans-serif" text-anchor="middle">100</text><line x1="464.32958123953097" y1="340.0" x2="464.32958123953097" y2="343.66666666666663" stroke="#444444" stroke-width="1.3333333333333333"/><text x="464.32958123953097" y="355.9866666666667" fill="#333333" font-size="11.733333333333334" font-family="sans-serif" text-anchor="middle">150</text><line x1="591.3830303030303" y1="340.0" x2="591.3830303030303" y2="343.66666666666663" stroke="#444444" stroke-width="1.3333333333333333"/><text x="591.3830303030303" y="355.9866666666667" fill="#333333" font-size="11.733333333333334" font-family="sans-serif" text-anchor="middle">200</text><line x1="60.42666666666666" y1="326.5501997855734" x2="56.76" y2="326.5501997855734" stroke="#444444" stroke-width="1.3333333333333333"/><text x="53.82666666666666" y="330.6568664522401" fill="#333333" font-size="11.733333333333334" font-family="sans-serif" text-anchor="end">0.00</text><line x1="60.42666666666666" y1="248.53256597272082" x2="56.76" y2="248.53256597272082" stroke="#444444" stroke-width="1.3333333333333333"/><text x="53.82666666666666" y="252.6392326393875" fill="#333333" font-size="11.733333333333334" font-family="sans-serif" text-anchor="end">0.25</text><line x1="60.42666666666666" y1="170.51493215986818" x2="56.76" y2="170.51493215986818" stroke="#444444" stroke-width="1.3333333333333333"/><text x="53.82666666666666" y="174.62159882653486" fill="#333333" font-size="11.733333333333334" font-family="sans-serif" text-anchor="end">0.50</text><line x1="60.42666666666666" y1="92.49729834701557" x2="56.76" y2="92.49729834701557" stroke="#444444" stroke-width="1.3333333333333333"/><text x="53.82666666666666" y="96.60396501368224" fill="#333333" font-size="11.733333333333334" font-family="sans-serif" text-anchor="end">0.75</text><text x="60.42666666666666" y="21.413333333333334" fill="#333333" font-size="17.599999999999998" font-family="sans-serif" text-anchor="start">MLP training loss</text><text x="338.5466666666666" y="373.73333333333335" fill="#333333" font-size="14.666666666666666" font-family="sans-serif" text-anchor="middle">epoch</text><text x="17.599999999999998" y="186.13333333333333" fill="#333333" font-size="14.666666666666666" font-family="sans-serif" text-anchor="middle" transform="rotate(-90.0 17.599999999999998 186.13333333333333)">loss</text><line x1="85.71030303030302" y1="46.25454545454541" x2="88.25137201157301" y2="77.23430753421556" stroke="#1f77b4" stroke-width="1.4211023622047245"/><line x1="88.25137201157301" y1="77.23430753421556" x2="90.79244099284301" y2="105.13165129913477" stroke="#1f77b4" stroke-width="1.4211023622047245"/><line x1="90.79244099284301" y1="105.13165129913477" x2="93.333509974113" y2="129.58310041928272" stroke="#1f77b4" stroke-width="1.4211023622047245"/><line x1="93.333509974113" y1="129.58310041928272" x2="95.87457895538297" y2="150.45945986877385" stroke="#1f77b4" stroke-width="1.4211023622047245"/><line x1="95.87457895538297" y1="150.45945986877385" x2="98.41564793665296" y2="167.86154581020529" stroke="#1f77b4" stroke-width="1.4211023622047245"/><line x1="98.41564793665296" y1="167.86154581020529" x2="100.95671691792296" y2="182.18776313749464" stroke="#1f77b4" stroke-width="1.4211023622047245"/><line x1="100.95671691792296" y1="182.18776313749464" x2="103.49778589919295" y2="194.10338616072778" stroke="#1f77b4" stroke-width="1.4211023622047245"/><line x1="103.49778589919295" y1="194.10338616072778" x2="106.03885488046292" y2="204.3620581106316" stroke="#1f77b4" stroke-width="1.4211023622047245"/><line x1="106.03885488046292" y1="204.3620581106316" x2="108.57992386173291" y2="213.53248894030486" stroke="#1f77b4" stroke-width="1.4211023622047245"/><line x1="108.57992386173291" y1="213.53248894030486" x2="111.12099284300291" y2="222.0142403135401" stroke="#1f77b4" stroke-width="1.4211023622047245"/><line x1="111.12099284300291" y1="222.0142403135401" x2="113.66206182427288" y2="229.9954191914021" stroke="#1f77b4" stroke-width="1.4211023622047245"/><line x1="113.66206182427288" y1="229.9954191914021" x2="116.20313080554287" y2="237.5668795494944" stroke="#1f77b4" stroke-width="1.4211023622047245"/><line x1="116.20313080554287" y1="237.5668795494944" x2="118.74419978681286" y2="244.77423609869976" stroke="#1f77b4" stroke-width="1.4211023622047245"/><line x1="118.74419978681286" y1="244.77423609869976" x2="121.28526876808283" y2="251.62473614251854" stroke="#1f77b4" stroke-width="1.4211023622047245"/><line x1="121.28526876808283" y1="251.62473614251854" x2="123.82633774935285" y2="258.0410509665229" stroke="#1f77b4" stroke-width="1.4211023622047245"/><line x1="123.82633774935285" y1="258.0410509665229" x2="126.36740673062282" y2="264.0184152139772" stroke="#1f77b4" stroke-width="1.4211023622047245"/><line x1="126.36740673062282" y1="264.0184152139772" x2="128.90847571189278" y2="269.57280270541446" stroke="#1f77b4" stroke-width="1.4211023622047245"/><line x1="128.90847571189278" y1="269.57280270541446" x2="131.4495446931628" y2="274.6510224742996" stroke="#1f77b4" stroke-width="1.4211023622047245"/><line x1="131.4495446931628" y1="274.6510224742996" x2="133.99061367443278" y2="279.2535379753133" stroke="#1f77b4" stroke-width="1.4211023622047245"/><line x1="133.99061367443278" y1="279.2535379753133" x2="136.53168265570275" y2="283.38460344982167" stroke="#1f77b4" stroke-width="1.4211023622047245"/><line x1="136.53168265570275" y1="283.38460344982167" x2="139.07275163697275" y2="287.0588013834563" stroke="#1f77b4" stroke-width="1.4211023622047245"/><line x1="139.07275163697275" y1="287.0588013834563" x2="141.61382061824273" y2="290.33101160865704" stroke="#1f77b4" stroke-width="1.4211023622047245"/><line x1="141.61382061824273" y1="290.33101160865704" x2="144.15488959951273" y2="293.2364292572919" stroke="#1f77b4" stroke-width="1.4211023622047245"/><line x1="144.15488959951273" y1="293.2364292572919" x2="146.6959585807827" y2="295.81321884400967" stroke="#1f77b4" stroke-width="1.4211023622047245"/><line x1="146.6959585807827" y1="295.81321884400967" x2="149.23702756205267" y2="298.1001674757943" stroke="#1f77b4" stroke-width="1.4211023622047245"/><line x1="149.23702756205267" y1="298.1001674757943" x2="151.7780965433227" y2="300.1369945300943" stroke="#1f77b4" stroke-width="1.4211023622047245"/><line x1="151.7780965433227" y1="300.1369945300943" x2="154.31916552459268" y2="301.9415147968749" stroke="#1f77b4" stroke-width="1.4211023622047245"/><line x1="154.31916552459268" y1="301.9415147968749" x2="156.86023450586265" y2="303.56048770268194" stroke="#1f77b4" stroke-width="1.4211023622047245"/><line x1="156.86023450586265" y1="303.56048770268194" x2="159.40130348713265" y2="305.02403447623396" stroke="#1f77b4" stroke-width="1.4211023622047245"/><line x1="159.40130348713265" y1="305.02403447623396" x2="161.94237246840262" y2="306.35475059900375" stroke="#1f77b4" stroke-width="1.4211023622047245"/><line x1="161.94237246840262" y1="306.35475059900375" x2="164.48344144967263" y2="307.57140564447417" stroke="#1f77b4" stroke-width="1.4211023622047245"/><line x1="164.48344144967263" y1="307.57140564447417" x2="167.0245104309426" y2="308.68930048523794" stroke="#1f77b4" stroke-width="1.4211023622047245"/><line x1="167.0245104309426" y1="308.68930048523794" x2="169.56557941221257" y2="309.72157586299977" stroke="#1f77b4" stroke-width="1.4211023622047245"/><line x1="169.56557941221257" y1="309.72157586299977" x2="172.10664839348254" y2="310.6786989873467" stroke="#1f77b4" stroke-width="1.4211023622047245"/><line x1="172.10664839348254" y1="310.6786989873467" x2="174.64771737475257" y2="311.56810979705676" stroke="#1f77b4" stroke-width="1.4211023622047245"/><line x1="174.64771737475257" y1="311.56810979705676" x2="177.18878635602255" y2="312.39451863055524" stroke="#1f77b4" stroke-width="1.4211023622047245"/><line x1="177.18878635602255" y1="312.39451863055524" x2="179.72985533729255" y2="313.16299065393326" stroke="#1f77b4" stroke-width="1.4211023622047245"/><line x1="179.72985533729255" y1="313.16299065393326" x2="182.27092431856252" y2="313.87936271598244" stroke="#1f77b4" stroke-width="1.4211023622047245"/><line x1="182.27092431856252" y1="313.87936271598244" x2="184.8119932998325" y2="314.5481233703222" stroke="#1f77b4" stroke-width="1.4211023622047245"/><line x1="184.8119932998325" y1="314.5481233703222" x2="187.3530622811025" y2="315.170579699059" stroke="#1f77b4" stroke-width="1.4211023622047245"/><line x1="187.3530622811025" y1="315.170579699059" x2="189.89413126237247" y2="315.749479665945" stroke="#1f77b4" stroke-width="1.4211023622047245"/><line x1="189.89413126237247" y1="315.749479665945" x2="192.43520024364244" y2="316.28720156344644" stroke="#1f77b4" stroke-width="1.4211023622047245"/><line x1="192.43520024364244" y1="316.28720156344644" x2="194.97626922491247" y2="316.78654770709716" stroke="#1f77b4" stroke-width="1.4211023622047245"/><line x1="194.97626922491247" y1="316.78654770709716" x2="197.51733820618244" y2="317.25021440475547" stroke="#1f77b4" stroke-width="1.4211023622047245"/><line x1="197.51733820618244" y1="317.25021440475547" x2="200.05840718745245" y2="317.680794817654" stroke="#1f77b4" stroke-width="1.4211023622047245"/><line x1="200.05840718745245" y1="317.680794817654" x2="202.59947616872242" y2="318.0828969384096" stroke="#1f77b4" stroke-width="1.4211023622047245"/><line x1="202.59947616872242" y1="318.0828969384096" x2="205.1405451499924" y2="318.45737524700905" stroke="#1f77b4" stroke-width="1.4211023622047245"/><line x1="205.1405451499924" y1="318.45737524700905" x2="207.68161413126236" y2="318.80586378762825" stroke="#1f77b4" stroke-width="1.4211023622047245"/><line x1="207.68161413126236" y1="318.80586378762825" x2="210.22268311253237" y2="319.1304417329618" stroke="#1f77b4" stroke-width="1.4211023622047245"/><line x1="210.22268311253237" y1="319.1304417329618" x2="212.76375209380234" y2="319.43305560026175" stroke="#1f77b4" stroke-width="1.4211023622047245"/><line x1="212.76375209380234" y1="319.43305560026175" x2="215.3048210750723" y2="319.7155157753714" stroke="#1f77b4" stroke-width="1.4211023622047245"/><line x1="215.3048210750723" y1="319.7155157753714" x2="217.84589005634234" y2="319.97949611873753" stroke="#1f77b4" stroke-width="1.4211023622047245"/><line x1="217.84589005634234" y1="319.97949611873753" x2="220.38695903761234" y2="320.22653627670434" stroke="#1f77b4" stroke-width="1.4211023622047245"/><line x1="220.38695903761234" y1="320.22653627670434" x2="222.92802801888232" y2="320.4580462005746" stroke="#1f77b4" stroke-width="1.4211023622047245"/><line x1="222.92802801888232" y1="320.4580462005746" x2="225.4690970001523" y2="320.67531234412763" stroke="#1f77b4" stroke-width="1.4211023622047245"/><line x1="225.4690970001523" y1="320.67531234412763" x2="228.01016598142226" y2="320.8795050347783" stroke="#1f77b4" stroke-width="1.4211023622047245"/><line x1="228.01016598142226" y1="320.8795050347783" x2="230.55123496269226" y2="321.0716865699129" stroke="#1f77b4" stroke-width="1.4211023622047245"/><line x1="230.55123496269226" y1="321.0716865699129" x2="233.09230394396224" y2="321.2528196609655" stroke="#1f77b4" stroke-width="1.4211023622047245"/><line x1="233.09230394396224" y1="321.2528196609655" x2="235.6333729252322" y2="321.42377592211767" stroke="#1f77b4" stroke-width="1.4211023622047245"/><line x1="235.6333729252322" y1="321.42377592211767" x2="238.17444190650218" y2="321.5853441711615" stroke="#1f77b4" stroke-width="1.4211023622047245"/><line x1="238.17444190650218" y1="321.5853441711615" x2="240.7155108877722" y2="321.73826339850973" stroke="#1f77b4" stroke-width="1.4211023622047245"/><line x1="240.7155108877722" y1="321.73826339850973" x2="243.2565798690422" y2="321.88467302940575" stroke="#1f77b4" stroke-width="1.4211023622047245"/><line x1="243.2565798690422" y1="321.88467302940575" x2="245.79764885031219" y2="322.02371028204163" stroke="#1f77b4" stroke-width="1.4211023622047245"/><line x1="245.79764885031219" y1="322.02371028204163" x2="248.33871783158216" y2="322.15588227730746" stroke="#1f77b4" stroke-width="1.4211023622047245"/><line x1="248.33871783158216" y1="322.15588227730746" x2="250.87978681285216" y2="322.28165158671595" stroke="#1f77b4" stroke-width="1.4211023622047245"/><line x1="250.87978681285216" y1="322.28165158671595" x2="253.42085579412213" y2="322.4014409810709" stroke="#1f77b4" stroke-width="1.4211023622047245"/><line x1="253.42085579412213" y1="322.4014409810709" x2="255.9619247753921" y2="322.5156376666622" stroke="#1f77b4" stroke-width="1.4211023622047245"/><line x1="255.9619247753921" y1="322.5156376666622" x2="258.5029937566621" y2="322.6245970417187" stroke="#1f77b4" stroke-width="1.4211023622047245"/><line x1="258.5029937566621" y1="322.6245970417187" x2="261.0440627379321" y2="322.7286460119376" stroke="#1f77b4" stroke-width="1.4211023622047245"/><line x1="261.0440627379321" y1="322.7286460119376" x2="263.5851317192021" y2="322.82964362059" stroke="#1f77b4" stroke-width="1.4211023622047245"/><line x1="263.5851317192021" y1="322.82964362059" x2="266.12620070047205" y2="322.92713032597993" stroke="#1f77b4" stroke-width="1.4211023622047245"/><line x1="266.12620070047205" y1="322.92713032597993" x2="268.667269681742" y2="323.0207506957876" stroke="#1f77b4" stroke-width="1.4211023622047245"/><line x1="268.667269681742" y1="323.0207506957876" x2="271.20833866301206" y2="323.1106919753652" stroke="#1f77b4" stroke-width="1.4211023622047245"/><line x1="271.20833866301206" y1="323.1106919753652" x2="273.74940764428203" y2="323.19713201207793" stroke="#1f77b4" stroke-width="1.4211023622047245"/><line x1="273.74940764428203" y1="323.19713201207793" x2="276.290476625552" y2="323.28023983121113" stroke="#1f77b4" stroke-width="1.4211023622047245"/><line x1="276.290476625552" y1="323.28023983121113" x2="278.831545606822" y2="323.36017611938286" stroke="#1f77b4" stroke-width="1.4211023622047245"/><line x1="278.831545606822" y1="323.36017611938286" x2="281.372614588092" y2="323.4370936383617" stroke="#1f77b4" stroke-width="1.4211023622047245"/><line x1="281.372614588092" y1="323.4370936383617" x2="283.913683569362" y2="323.51113758770214" stroke="#1f77b4" stroke-width="1.4211023622047245"/><line x1="283.913683569362" y1="323.51113758770214" x2="286.45475255063195" y2="323.58244593066377" stroke="#1f77b4" stroke-width="1.4211023622047245"/><line x1="286.45475255063195" y1="323.58244593066377" x2="288.9958215319019" y2="323.6511496944996" stroke="#1f77b4" stroke-width="1.4211023622047245"/><line x1="288.9958215319019" y1="323.6511496944996" x2="291.53689051317195" y2="323.7173732533551" stroke="#1f77b4" stroke-width="1.4211023622047245"/><line x1="291.53689051317195" y1="323.7173732533551" x2="294.0779594944419" y2="323.7812345996813" stroke="#1f77b4" stroke-width="1.4211023622047245"/><line x1="294.0779594944419" y1="323.7812345996813" x2="296.6190284757119" y2="323.8428456081856" stroke="#1f77b4" stroke-width="1.4211023622047245"/><line x1="296.6190284757119" y1="323.8428456081856" x2="299.1600974569819" y2="323.90231229486324" stroke="#1f77b4" stroke-width="1.4211023622047245"/><line x1="299.1600974569819" y1="323.90231229486324" x2="301.7011664382519" y2="323.9596591863053" stroke="#1f77b4" stroke-width="1.4211023622047245"/><line x1="301.7011664382519" y1="323.9596591863053" x2="304.2422354195219" y2="324.01499488718065" stroke="#1f77b4" stroke-width="1.4211023622047245"/><line x1="304.2422354195219" y1="324.01499488718065" x2="306.78330440079185" y2="324.0684783851726" stroke="#1f77b4" stroke-width="1.4211023622047245"/><line x1="306.78330440079185" y1="324.0684783851726" x2="309.3243733820618" y2="324.12019521181935" stroke="#1f77b4" stroke-width="1.4211023622047245"/><line x1="309.3243733820618" y1="324.12019521181935" x2="311.86544236333185" y2="324.17022611923915" stroke="#1f77b4" stroke-width="1.4211023622047245"/><line x1="311.86544236333185" y1="324.17022611923915" x2="314.4065113446018" y2="324.218647344827" stroke="#1f77b4" stroke-width="1.4211023622047245"/><line x1="314.4065113446018" y1="324.218647344827" x2="316.9475803258718" y2="324.26553086749175" stroke="#1f77b4" stroke-width="1.4211023622047245"/><line x1="316.9475803258718" y1="324.26553086749175" x2="319.48864930714177" y2="324.3109428045715" stroke="#1f77b4" stroke-width="1.4211023622047245"/><line x1="319.48864930714177" y1="324.3109428045715" x2="322.0297182884118" y2="324.3549480392843" stroke="#1f77b4" stroke-width="1.4211023622047245"/><line x1="322.0297182884118" y1="324.3549480392843" x2="324.5707872696818" y2="324.3976085028214" stroke="#1f77b4" stroke-width="1.4211023622047245"/><line x1="324.5707872696818" y1="324.3976085028214" x2="327.11185625095175" y2="324.4389815165473" stroke="#1f77b4" stroke-width="1.4211023622047245"/><line x1="327.11185625095175" y1="324.4389815165473" x2="329.6529252322217" y2="324.4791212715417" stroke="#1f77b4" stroke-width="1.4211023622047245"/><line x1="329.6529252322217" y1="324.4791212715417" x2="332.1939942134917" y2="324.5180790230463" stroke="#1f77b4" stroke-width="1.4211023622047245"/><line x1="332.1939942134917" y1="324.5180790230463" x2="334.7350631947617" y2="324.5559032739045" stroke="#1f77b4" stroke-width="1.4211023622047245"/><line x1="334.7350631947617" y1="324.5559032739045" x2="337.2761321760317" y2="324.59263994718054" stroke="#1f77b4" stroke-width="1.4211023622047245"/><line x1="337.2761321760317" y1="324.59263994718054" x2="339.81720115730167" y2="324.62833254822965" stroke="#1f77b4" stroke-width="1.4211023622047245"/><line x1="339.81720115730167" y1="324.62833254822965" x2="342.3582701385717" y2="324.6630223165649" stroke="#1f77b4" stroke-width="1.4211023622047245"/><line x1="342.3582701385717" y1="324.6630223165649" x2="344.89933911984167" y2="324.6967483679179" stroke="#1f77b4" stroke-width="1.4211023622047245"/><line x1="344.89933911984167" y1="324.6967483679179" x2="347.4404081011117" y2="324.7295478269348" stroke="#1f77b4" stroke-width="1.4211023622047245"/><line x1="347.4404081011117" y1="324.7295478269348" x2="349.9814770823816" y2="324.7614559509725" stroke="#1f77b4" stroke-width="1.4211023622047245"/><line x1="349.9814770823816" y1="324.7614559509725" x2="352.52254606365165" y2="324.79250624548126" stroke="#1f77b4" stroke-width="1.4211023622047245"/><line x1="352.52254606365165" y1="324.79250624548126" x2="355.0636150449216" y2="324.82273057146097" stroke="#1f77b4" stroke-width="1.4211023622047245"/><line x1="355.0636150449216" y1="324.82273057146097" x2="357.6046840261916" y2="324.85215924548294" stroke="#1f77b4" stroke-width="1.4211023622047245"/><line x1="357.6046840261916" y1="324.85215924548294" x2="360.14575300746156" y2="324.88082113275664" stroke="#1f77b4" stroke-width="1.4211023622047245"/><line x1="360.14575300746156" y1="324.88082113275664" x2="362.6868219887316" y2="324.9087437337102" stroke="#1f77b4" stroke-width="1.4211023622047245"/><line x1="362.6868219887316" y1="324.9087437337102" x2="365.2278909700015" y2="324.9359532645356" stroke="#1f77b4" stroke-width="1.4211023622047245"/><line x1="365.2278909700015" y1="324.9359532645356" x2="367.76895995127154" y2="324.96247473213054" stroke="#1f77b4" stroke-width="1.4211023622047245"/><line x1="367.76895995127154" y1="324.96247473213054" x2="370.3100289325415" y2="324.9883320038447" stroke="#1f77b4" stroke-width="1.4211023622047245"/><line x1="370.3100289325415" y1="324.9883320038447" x2="372.8510979138115" y2="325.0135478724177" stroke="#1f77b4" stroke-width="1.4211023622047245"/><line x1="372.8510979138115" y1="325.0135478724177" x2="375.3921668950816" y2="325.0381441164703" stroke="#1f77b4" stroke-width="1.4211023622047245"/><line x1="375.3921668950816" y1="325.0381441164703" x2="377.93323587635143" y2="325.06214155688633" stroke="#1f77b4" stroke-width="1.4211023622047245"/><line x1="377.93323587635143" y1="325.06214155688633" x2="380.4743048576215" y2="325.08556010940083" stroke="#1f77b4" stroke-width="1.4211023622047245"/><line x1="380.4743048576215" y1="325.08556010940083" x2="383.0153738388915" y2="325.1084188336846" stroke="#1f77b4" stroke-width="1.4211023622047245"/><line x1="383.0153738388915" y1="325.1084188336846" x2="385.55644282016146" y2="325.13073597919566" stroke="#1f77b4" stroke-width="1.4211023622047245"/><line x1="385.55644282016146" y1="325.13073597919566" x2="388.09751180143144" y2="325.1525290280446" stroke="#1f77b4" stroke-width="1.4211023622047245"/><line x1="388.09751180143144" y1="325.1525290280446" x2="390.6385807827014" y2="325.17381473510306" stroke="#1f77b4" stroke-width="1.4211023622047245"/><line x1="390.6385807827014" y1="325.17381473510306" x2="393.1796497639714" y2="325.19460916556415" stroke="#1f77b4" stroke-width="1.4211023622047245"/><line x1="393.1796497639714" y1="325.19460916556415" x2="395.72071874524136" y2="325.21492773014836" stroke="#1f77b4" stroke-width="1.4211023622047245"/><line x1="395.72071874524136" y1="325.21492773014836" x2="398.26178772651133" y2="325.2347852181297" stroke="#1f77b4" stroke-width="1.4211023622047245"/><line x1="398.26178772651133" y1="325.2347852181297" x2="400.80285670778136" y2="325.2541958283442" stroke="#1f77b4" stroke-width="1.4211023622047245"/><line x1="400.80285670778136" y1="325.2541958283442" x2="403.34392568905133" y2="325.27317319832923" stroke="#1f77b4" stroke-width="1.4211023622047245"/><line x1="403.34392568905133" y1="325.27317319832923" x2="405.8849946703213" y2="325.29173043172665" stroke="#1f77b4" stroke-width="1.4211023622047245"/><line x1="405.8849946703213" y1="325.29173043172665" x2="408.4260636515913" y2="325.30988012407624" stroke="#1f77b4" stroke-width="1.4211023622047245"/><line x1="408.4260636515913" y1="325.30988012407624" x2="410.96713263286125" y2="325.327634387111" stroke="#1f77b4" stroke-width="1.4211023622047245"/><line x1="410.96713263286125" y1="325.327634387111" x2="413.5082016141312" y2="325.34500487165866" stroke="#1f77b4" stroke-width="1.4211023622047245"/><line x1="413.5082016141312" y1="325.34500487165866" x2="416.04927059540125" y2="325.36200278924537" stroke="#1f77b4" stroke-width="1.4211023622047245"/><line x1="416.04927059540125" y1="325.36200278924537" x2="418.59033957667117" y2="325.37863893248823" stroke="#1f77b4" stroke-width="1.4211023622047245"/><line x1="418.59033957667117" y1="325.37863893248823" x2="421.1314085579412" y2="325.394923694358" stroke="#1f77b4" stroke-width="1.4211023622047245"/><line x1="421.1314085579412" y1="325.394923694358" x2="423.6724775392112" y2="325.4108670863849" stroke="#1f77b4" stroke-width="1.4211023622047245"/><line x1="423.6724775392112" y1="325.4108670863849" x2="426.21354652048115" y2="325.4264787558773" stroke="#1f77b4" stroke-width="1.4211023622047245"/><line x1="426.21354652048115" y1="325.4264787558773" x2="428.75461550175123" y2="325.44176800221487" stroke="#1f77b4" stroke-width="1.4211023622047245"/><line x1="428.75461550175123" y1="325.44176800221487" x2="431.2956844830211" y2="325.4567437922748" stroke="#1f77b4" stroke-width="1.4211023622047245"/><line x1="431.2956844830211" y1="325.4567437922748" x2="433.8367534642912" y2="325.4714147750455" stroke="#1f77b4" stroke-width="1.4211023622047245"/><line x1="433.8367534642912" y1="325.4714147750455" x2="436.37782244556115" y2="325.48578929547716" stroke="#1f77b4" stroke-width="1.4211023622047245"/><line x1="436.37782244556115" y1="325.48578929547716" x2="438.9188914268311" y2="325.49987540761464" stroke="#1f77b4" stroke-width="1.4211023622047245"/><line x1="438.9188914268311" y1="325.49987540761464" x2="441.4599604081011" y2="325.5136808870577" stroke="#1f77b4" stroke-width="1.4211023622047245"/><line x1="441.4599604081011" y1="325.5136808870577" x2="444.0010293893711" y2="325.52721324278644" stroke="#1f77b4" stroke-width="1.4211023622047245"/><line x1="444.0010293893711" y1="325.52721324278644" x2="446.5420983706411" y2="325.54047972839027" stroke="#1f77b4" stroke-width="1.4211023622047245"/><line x1="446.5420983706411" y1="325.54047972839027" x2="449.0831673519111" y2="325.5534873527353" stroke="#1f77b4" stroke-width="1.4211023622047245"/><line x1="449.0831673519111" y1="325.5534873527353" x2="451.62423633318105" y2="325.56624289010153" stroke="#1f77b4" stroke-width="1.4211023622047245"/><line x1="451.62423633318105" y1="325.56624289010153" x2="454.165305314451" y2="325.57875288982126" stroke="#1f77b4" stroke-width="1.4211023622047245"/><line x1="454.165305314451" y1="325.57875288982126" x2="456.70637429572105" y2="325.59102368544586" stroke="#1f77b4" stroke-width="1.4211023622047245"/><line x1="456.70637429572105" y1="325.59102368544586" x2="459.24744327699096" y2="325.6030614034687" stroke="#1f77b4" stroke-width="1.4211023622047245"/><line x1="459.24744327699096" y1="325.6030614034687" x2="461.788512258261" y2="325.6148719716278" stroke="#1f77b4" stroke-width="1.4211023622047245"/><line x1="461.788512258261" y1="325.6148719716278" x2="464.32958123953097" y2="325.62646112681193" stroke="#1f77b4" stroke-width="1.4211023622047245"/><line x1="464.32958123953097" y1="325.62646112681193" x2="466.87065022080094" y2="325.6378344225924" stroke="#1f77b4" stroke-width="1.4211023622047245"/><line x1="466.87065022080094" y1="325.6378344225924" x2="469.4117192020709" y2="325.64899723640013" stroke="#1f77b4" stroke-width="1.4211023622047245"/><line x1="469.4117192020709" y1="325.64899723640013" x2="471.9527881833409" y2="325.65995477636784" stroke="#1f77b4" stroke-width="1.4211023622047245"/><line x1="471.9527881833409" y1="325.65995477636784" x2="474.493857164611" y2="325.67071208785524" stroke="#1f77b4" stroke-width="1.4211023622047245"/><line x1="474.493857164611" y1="325.67071208785524" x2="477.03492614588095" y2="325.68127405967425" stroke="#1f77b4" stroke-width="1.4211023622047245"/><line x1="477.03492614588095" y1="325.68127405967425" x2="479.5759951271509" y2="325.69164543003" stroke="#1f77b4" stroke-width="1.4211023622047245"/><line x1="479.5759951271509" y1="325.69164543003" x2="482.1170641084209" y2="325.7018307921924" stroke="#1f77b4" stroke-width="1.4211023622047245"/><line x1="482.1170641084209" y1="325.7018307921924" x2="484.6581330896909" y2="325.7118345999137" stroke="#1f77b4" stroke-width="1.4211023622047245"/><line x1="484.6581330896909" y1="325.7118345999137" x2="487.19920207096084" y2="325.72166117260304" stroke="#1f77b4" stroke-width="1.4211023622047245"/><line x1="487.19920207096084" y1="325.72166117260304" x2="489.74027105223087" y2="325.73131470027306" stroke="#1f77b4" stroke-width="1.4211023622047245"/><line x1="489.74027105223087" y1="325.73131470027306" x2="492.28134003350084" y2="325.74079924826833" stroke="#1f77b4" stroke-width="1.4211023622047245"/><line x1="492.28134003350084" y1="325.74079924826833" x2="494.8224090147708" y2="325.75011876178786" stroke="#1f77b4" stroke-width="1.4211023622047245"/><line x1="494.8224090147708" y1="325.75011876178786" x2="497.36347799604084" y2="325.7592770702119" stroke="#1f77b4" stroke-width="1.4211023622047245"/><line x1="497.36347799604084" y1="325.7592770702119" x2="499.90454697731076" y2="325.7682778912423" stroke="#1f77b4" stroke-width="1.4211023622047245"/><line x1="499.90454697731076" y1="325.7682778912423" x2="502.4456159585808" y2="325.77712483486704" stroke="#1f77b4" stroke-width="1.4211023622047245"/><line x1="502.4456159585808" y1="325.77712483486704" x2="504.98668493985076" y2="325.7858214071564" stroke="#1f77b4" stroke-width="1.4211023622047245"/><line x1="504.98668493985076" y1="325.7858214071564" x2="507.52775392112073" y2="325.7943710138999" stroke="#1f77b4" stroke-width="1.4211023622047245"/><line x1="507.52775392112073" y1="325.7943710138999" x2="510.0688229023907" y2="325.8027769640912" stroke="#1f77b4" stroke-width="1.4211023622047245"/><line x1="510.0688229023907" y1="325.8027769640912" x2="512.6098918836607" y2="325.8110424732694" stroke="#1f77b4" stroke-width="1.4211023622047245"/><line x1="512.6098918836607" y1="325.8110424732694" x2="515.1509608649307" y2="325.8191706667222" stroke="#1f77b4" stroke-width="1.4211023622047245"/><line x1="515.1509608649307" y1="325.8191706667222" x2="517.6920298462007" y2="325.82716458255896" stroke="#1f77b4" stroke-width="1.4211023622047245"/><line x1="517.6920298462007" y1="325.82716458255896" x2="520.2330988274707" y2="325.8350271746591" stroke="#1f77b4" stroke-width="1.4211023622047245"/><line x1="520.2330988274707" y1="325.8350271746591" x2="522.7741678087407" y2="325.8427613155021" stroke="#1f77b4" stroke-width="1.4211023622047245"/><line x1="522.7741678087407" y1="325.8427613155021" x2="525.3152367900107" y2="325.8503697988841" stroke="#1f77b4" stroke-width="1.4211023622047245"/><line x1="525.3152367900107" y1="325.8503697988841" x2="527.8563057712806" y2="325.85785534252716" stroke="#1f77b4" stroke-width="1.4211023622047245"/><line x1="527.8563057712806" y1="325.85785534252716" x2="530.3973747525506" y2="325.865220590586" stroke="#1f77b4" stroke-width="1.4211023622047245"/><line x1="530.3973747525506" y1="325.865220590586" x2="532.9384437338206" y2="325.8724681160559" stroke="#1f77b4" stroke-width="1.4211023622047245"/><line x1="532.9384437338206" y1="325.8724681160559" x2="535.4795127150906" y2="325.8796004230885" stroke="#1f77b4" stroke-width="1.4211023622047245"/><line x1="535.4795127150906" y1="325.8796004230885" x2="538.0205816963605" y2="325.88661994921677" stroke="#1f77b4" stroke-width="1.4211023622047245"/><line x1="538.0205816963605" y1="325.88661994921677" x2="540.5616506776305" y2="325.89352906749605" stroke="#1f77b4" stroke-width="1.4211023622047245"/><line x1="540.5616506776305" y1="325.89352906749605" x2="543.1027196589006" y2="325.90033008856284" stroke="#1f77b4" stroke-width="1.4211023622047245"/><line x1="543.1027196589006" y1="325.90033008856284" x2="545.6437886401706" y2="325.90702526261634" stroke="#1f77b4" stroke-width="1.4211023622047245"/><line x1="545.6437886401706" y1="325.90702526261634" x2="548.1848576214405" y2="325.9136167813253" stroke="#1f77b4" stroke-width="1.4211023622047245"/><line x1="548.1848576214405" y1="325.9136167813253" x2="550.7259266027105" y2="325.9201067796638" stroke="#1f77b4" stroke-width="1.4211023622047245"/><line x1="550.7259266027105" y1="325.9201067796638" x2="553.2669955839805" y2="325.92649733767905" stroke="#1f77b4" stroke-width="1.4211023622047245"/><line x1="553.2669955839805" y1="325.92649733767905" x2="555.8080645652504" y2="325.9327904821944" stroke="#1f77b4" stroke-width="1.4211023622047245"/><line x1="555.8080645652504" y1="325.9327904821944" x2="558.3491335465205" y2="325.9389881884497" stroke="#1f77b4" stroke-width="1.4211023622047245"/><line x1="558.3491335465205" y1="325.9389881884497" x2="560.8902025277904" y2="325.9450923816818" stroke="#1f77b4" stroke-width="1.4211023622047245"/><line x1="560.8902025277904" y1="325.9450923816818" x2="563.4312715090605" y2="325.9511277750533" stroke="#1f77b4" stroke-width="1.4211023622047245"/><line x1="563.4312715090605" y1="325.9511277750533" x2="565.9723404903305" y2="325.9570776967896" stroke="#1f77b4" stroke-width="1.4211023622047245"/><line x1="565.9723404903305" y1="325.9570776967896" x2="568.5134094716004" y2="325.9629431542789" stroke="#1f77b4" stroke-width="1.4211023622047245"/><line x1="568.5134094716004" y1="325.9629431542789" x2="571.0544784528704" y2="325.9687252596808" stroke="#1f77b4" stroke-width="1.4211023622047245"/><line x1="571.0544784528704" y1="325.9687252596808" x2="573.5955474341404" y2="325.97442515025955" stroke="#1f77b4" stroke-width="1.4211023622047245"/><line x1="573.5955474341404" y1="325.97442515025955" x2="576.1366164154103" y2="325.9800439838542" stroke="#1f77b4" stroke-width="1.4211023622047245"/><line x1="576.1366164154103" y1="325.9800439838542" x2="578.6776853966803" y2="325.9855829346303" stroke="#1f77b4" stroke-width="1.4211023622047245"/><line x1="578.6776853966803" y1="325.9855829346303" x2="581.2187543779503" y2="325.99104318912794" stroke="#1f77b4" stroke-width="1.4211023622047245"/><line x1="581.2187543779503" y1="325.99104318912794" x2="583.7598233592203" y2="325.9964259426107" stroke="#1f77b4" stroke-width="1.4211023622047245"/><line x1="583.7598233592203" y1="325.9964259426107" x2="586.3008923404903" y2="326.00173239571365" stroke="#1f77b4" stroke-width="1.4211023622047245"/><line x1="586.3008923404903" y1="326.00173239571365" x2="588.8419613217603" y2="326.00696375138665" stroke="#1f77b4" stroke-width="1.4211023622047245"/><line x1="588.8419613217603" y1="326.00696375138665" x2="591.3830303030303" y2="326.0121212121212" stroke="#1f77b4" stroke-width="1.4211023622047245"/></svg>