<svg xmlns="http://www.w3.org/2000/svg" width="853" height="560" viewBox="0 0 853 560"><rect x="0.0" y="0.0" width="853.3333333333333" height="560.0" fill="#ffffff" fill-opacity="1.0" stroke="none"/><line x1="173.90372138353965" y1="32.266666666666666" x2="173.90372138353965" y2="516.0" stroke="#dddddd" stroke-width="0.6666666666666666"/><line x1="355.63791437696807" y1="32.266666666666666" x2="355.63791437696807" y2="516.0" stroke="#dddddd" stroke-width="0.6666666666666666"/><line x1="537.3721073703964" y1="32.266666666666666" x2="537.3721073703964" y2="516.0" stroke="#dddddd" stroke-width="0.6666666666666666"/><line x1="719.1063003638247" y1="32.266666666666666" x2="719.1063003638247" y2="516.0" stroke="#dddddd" stroke-width="0.6666666666666666"/><line x1="83.03662488682549" y1="32.266666666666666" x2="83.03662488682549" y2="516.0" stroke="#dddddd" stroke-width="1.3333333333333333"/><line x1="264.77081788025384" y1="32.266666666666666" x2="264.77081788025384" y2="516.0" stroke="#dddddd" stroke-width="1.3333333333333333"/><line x1="446.5050108736822" y1="32.266666666666666" x2="446.5050108736822" y2="516.0" stroke="#dddddd" stroke-width="1.3333333333333333"/><line x1="628.2392038671106" y1="32.266666666666666" x2="628.2392038671106" y2="516.0" stroke="#dddddd" stroke-width="1.3333333333333333"/><line x1="809.9733968605389" y1="32.266666666666666" x2="809.9733968605389" y2="516.0" stroke="#dddddd" stroke-width="1.3333333333333333"/><line x1="53.38666666666666" y1="493.06334329365643" x2="846.0" y2="493.06334329365643" stroke="#dddddd" stroke-width="0.6666666666666666"/><line x1="53.38666666666666" y1="402.7367246502496" x2="846.0" y2="402.7367246502496" stroke="#dddddd" stroke-width="0.6666666666666666"/><line x1="53.38666666666666" y1="312.4101060068428" x2="846.0" y2="312.4101060068428" stroke="#dddddd" stroke-width="0.6666666666666666"/><line x1="53.38666666666666" y1="222.08348736343592" x2="846.0" y2="222.08348736343592" stroke="#dddddd" stroke-width="0.6666666666666666"/><line x1="53.38666666666666" y1="131.75686872002908" x2="846.0" y2="131.75686872002908" stroke="#dddddd" stroke-width="0.6666666666666666"/><line x1="53.38666666666666" y1="41.43025007662224" x2="846.0" y2="41.43025007662224" stroke="#dddddd" stroke-width="0.6666666666666666"/><line x1="53.38666666666666" y1="447.90003397195306" x2="846.0" y2="447.90003397195306" stroke="#dddddd" stroke-width="1.3333333333333333"/><line x1="53.38666666666666" y1="357.57341532854616" x2="846.0" y2="357.57341532854616" stroke="#dddddd" stroke-width="1.3333333333333333"/><line x1="53.38666666666666" y1="267.2467966851393" x2="846.0" y2="267.2467966851393" stroke="#dddddd" stroke-width="1.3333333333333333"/><line x1="53.38666666666666" y1="176.9201780417325" x2="846.0" y2="176.9201780417325" stroke="#dddddd" stroke-width="1.3333333333333333"/><line x1="53.38666666666666" y1="86.59355939832562" x2="846.0" y2="86.59355939832562" stroke="#dddddd" stroke-width="1.3333333333333333"/><rect x="53.38666666666666" y="32.266666666666666" width="792.6133333333333" height="483.73333333333335" fill="#ffffff" fill-opacity="0.0" stroke="#444444" stroke-width="1.3333333333333333"/><line x1="83.03662488682549" y1="516.0" x2="83.03662488682549" y2="519.6666666666666" stroke="#444444" stroke-width="1.3333333333333333"/><text x="83.03662488682549" y="531.9866666666667" fill="#333333" font-size="11.733333333333334" font-family="sans-serif" text-anchor="middle">-10</text><line x1="264.77081788025384" y1="516.0" x2="264.77081788025384" y2="519.6666666666666" stroke="#444444" stroke-width="1.3333333333333333"/><text x="264.77081788025384" y="531.9866666666667" fill="#333333" font-size="11.733333333333334" font-family="sans-serif" text-anchor="middle">-5</text><line x1="446.5050108736822" y1="516.0" x2="446.5050108736822" y2="519.6666666666666" stroke="#444444" stroke-width="1.3333333333333333"/><text x="446.5050108736822" y="531.9866666666667" fill="#333333" font-size="11.733333333333334" font-family="sans-serif" text-anchor="middle">0</text><line x1="628.2392038671106" y1="516.0" x2="628.2392038671106" y2="519.6666666666666" stroke="#444444" stroke-width="1.3333333333333333"/><text x="628.2392038671106" y="531.9866666666667" fill="#333333" font-size="11.733333333333334" font-family="sans-serif" text-anchor="middle">5</text><line x1="809.9733968605389" y1="516.0" x2="809.9733968605389" y2="519.6666666666666" stroke="#444444" stroke-width="1.3333333333333333"/><text x="809.9733968605389" y="531.9866666666667" fill="#333333" font-size="11.733333333333334" font-family="sans-serif" text-anchor="middle">10</text><line x1="53.38666666666666" y1="447.90003397195306" x2="49.72" y2="447.90003397195306" stroke="#444444" stroke-width="1.3333333333333333"/><text x="46.78666666666666" y="452.0067006386197" fill="#333333" font-size="11.733333333333334" font-family="sans-serif" text-anchor="end">-10</text><line x1="53.38666666666666" y1="357.57341532854616" x2="49.72" y2="357.57341532854616" stroke="#444444" stroke-width="1.3333333333333333"/><text x="46.78666666666666" y="361.6800819952128" fill="#333333" font-size="11.733333333333334" font-family="sans-serif" text-anchor="end">-5</text><line x1="53.38666666666666" y1="267.2467966851393" x2="49.72" y2="267.2467966851393" stroke="#444444" stroke-width="1.3333333333333333"/><text x="46.78666666666666" y="271.353463351806" fill="#333333" font-size="11.733333333333334" font-family="sans-serif" text-anchor="end">0</text><line x1="53.38666666666666" y1="176.9201780417325" x2="49.72" y2="176.9201780417325" stroke="#444444" stroke-width="1.3333333333333333"/><text x="46.78666666666666" y="181.02684470839918" fill="#333333" font-size="11.733333333333334" font-family="sans-serif" text-anchor="end">5</text><line x1="53.38666666666666" y1="86.59355939832562" x2="49.72" y2="86.59355939832562" stroke="#444444" stroke-width="1.3333333333333333"/><text x="46.78666666666666" y="90.70022606499228" fill="#333333" font-size="11.733333333333334" font-family="sans-serif" text-anchor="end">10</text><text x="53.38666666666666" y="21.413333333333334" fill="#333333" font-size="17.599999999999998" font-family="sans-serif" text-anchor="start">Partial dependence: price ~ area</text><text x="449.6933333333334" y="549.7333333333333" fill="#333333" font-size="14.666666666666666" font-family="sans-serif" text-anchor="middle">area</text><text x="17.599999999999998" y="274.1333333333333" fill="#333333" font-size="14.666666666666666" font-family="sans-serif" text-anchor="middle" transform="rotate(-90.0 17.599999999999998 274.1333333333333)">partial dependence</text><line x1="89.41454545454549" y1="494.0121212121212" x2="107.89038073038077" y2="482.02492523374815" stroke="#1f77b4" stroke-width="1.4211023622047245"/><line x1="107.89038073038077" y1="482.02492523374815" x2="126.36621600621602" y2="477.52921530505483" stroke="#1f77b4" stroke-width="1.4211023622047245"/><line x1="126.36621600621602" y1="477.52921530505483" x2="144.84205128205133" y2="477.0567901085988" stroke="#1f77b4" stroke-width="1.4211023622047245"/><line x1="144.84205128205133" y1="477.0567901085988" x2="163.3178865578866" y2="476.3357054251094" stroke="#1f77b4" stroke-width="1.4211023622047245"/><line x1="163.3178865578866" y1="476.3357054251094" x2="181.79372183372186" y2="460.5644806429573" stroke="#1f77b4" stroke-width="1.4211023622047245"/><line x1="181.79372183372186" y1="460.5644806429573" x2="200.26955710955713" y2="446.7418897428199" stroke="#1f77b4" stroke-width="1.4211023622047245"/><line x1="200.26955710955713" y1="446.7418897428199" x2="218.7453923853924" y2="445.3238051272706" stroke="#1f77b4" stroke-width="1.4211023622047245"/><line x1="218.7453923853924" y1="445.3238051272706" x2="237.2212276612277" y2="440.64347258234443" stroke="#1f77b4" stroke-width="1.4211023622047245"/><line x1="237.2212276612277" y1="440.64347258234443" x2="255.69706293706295" y2="427.6023517741954" stroke="#1f77b4" stroke-width="1.4211023622047245"/><line x1="255.69706293706295" y1="427.6023517741954" x2="274.1728982128982" y2="412.3893448937333" stroke="#1f77b4" stroke-width="1.4211023622047245"/><line x1="274.1728982128982" y1="412.3893448937333" x2="292.6487334887335" y2="399.74499408117947" stroke="#1f77b4" stroke-width="1.4211023622047245"/><line x1="292.6487334887335" y1="399.74499408117947" x2="311.1245687645688" y2="387.00407583926983" stroke="#1f77b4" stroke-width="1.4211023622047245"/><line x1="311.1245687645688" y1="387.00407583926983" x2="329.60040404040404" y2="378.44794318404047" stroke="#1f77b4" stroke-width="1.4211023622047245"/><line x1="329.60040404040404" y1="378.44794318404047" x2="348.0762393162393" y2="378.070684937583" stroke="#1f77b4" stroke-width="1.4211023622047245"/><line x1="348.0762393162393" y1="378.070684937583" x2="366.55207459207463" y2="372.75043193375393" stroke="#1f77b4" stroke-width="1.4211023622047245"/><line x1="366.55207459207463" y1="372.75043193375393" x2="385.0279098679099" y2="337.5270647839035" stroke="#1f77b4" stroke-width="1.4211023622047245"/><line x1="385.0279098679099" y1="337.5270647839035" x2="403.50374514374516" y2="283.5985796143311" stroke="#1f77b4" stroke-width="1.4211023622047245"/><line x1="403.50374514374516" y1="283.5985796143311" x2="421.97958041958043" y2="276.8266282849691" stroke="#1f77b4" stroke-width="1.4211023622047245"/><line x1="421.97958041958043" y1="276.8266282849691" x2="440.4554156954157" y2="273.2364602302167" stroke="#1f77b4" stroke-width="1.4211023622047245"/><line x1="440.4554156954157" y1="273.2364602302167" x2="458.93125097125096" y2="262.41016354709086" stroke="#1f77b4" stroke-width="1.4211023622047245"/><line x1="458.93125097125096" y1="262.41016354709086" x2="477.4070862470863" y2="232.56640493721716" stroke="#1f77b4" stroke-width="1.4211023622047245"/><line x1="477.4070862470863" y1="232.56640493721716" x2="495.8829215229216" y2="221.7241730822181" stroke="#1f77b4" stroke-width="1.4211023622047245"/><line x1="495.8829215229216" y1="221.7241730822181" x2="514.3587567987568" y2="189.32980899831185" stroke="#1f77b4" stroke-width="1.4211023622047245"/><line x1="514.3587567987568" y1="189.32980899831185" x2="532.8345920745921" y2="173.87443424316353" stroke="#1f77b4" stroke-width="1.4211023622047245"/><line x1="532.8345920745921" y1="173.87443424316353" x2="551.3104273504273" y2="166.10863970453434" stroke="#1f77b4" stroke-width="1.4211023622047245"/><line x1="551.3104273504273" y1="166.10863970453434" x2="569.7862626262627" y2="163.28950131545804" stroke="#1f77b4" stroke-width="1.4211023622047245"/><line x1="569.7862626262627" y1="163.28950131545804" x2="588.2620979020978" y2="161.88992375998728" stroke="#1f77b4" stroke-width="1.4211023622047245"/><line x1="588.2620979020978" y1="161.88992375998728" x2="606.7379331779332" y2="152.4823807331652" stroke="#1f77b4" stroke-width="1.4211023622047245"/><line x1="606.7379331779332" y1="152.4823807331652" x2="625.2137684537685" y2="118.91325080455286" stroke="#1f77b4" stroke-width="1.4211023622047245"/><line x1="625.2137684537685" y1="118.91325080455286" x2="643.6896037296037" y2="103.36208530017105" stroke="#1f77b4" stroke-width="1.4211023622047245"/><line x1="643.6896037296037" y1="103.36208530017105" x2="662.1654390054391" y2="98.10361798368004" stroke="#1f77b4" stroke-width="1.4211023622047245"/><line x1="662.1654390054391" y1="98.10361798368004" x2="680.6412742812744" y2="95.99110154007629" stroke="#1f77b4" stroke-width="1.4211023622047245"/><line x1="680.6412742812744" y1="95.99110154007629" x2="699.1171095571095" y2="90.38136000368004" stroke="#1f77b4" stroke-width="1.4211023622047245"/><line x1="699.1171095571095" y1="90.38136000368004" x2="717.5929448329448" y2="85.63699092241222" stroke="#1f77b4" stroke-width="1.4211023622047245"/><line x1="717.5929448329448" y1="85.63699092241222" x2="736.06878010878" y2="83.5794568671068" stroke="#1f77b4" stroke-width="1.4211023622047245"/><line x1="736.06878010878" y1="83.5794568671068" x2="754.5446153846152" y2="74.72651391120606" stroke="#1f77b4" stroke-width="1.4211023622047245"/><line x1="754.5446153846152" y1="74.72651391120606" x2="773.0204506604507" y2="69.88063141516325" stroke="#1f77b4" stroke-width="1.4211023622047245"/><line x1="773.0204506604507" y1="69.88063141516325" x2="791.4962859362856" y2="56.04426467227904" stroke="#1f77b4" stroke-width="1.4211023622047245"/><line x1="791.4962859362856" y1="56.04426467227904" x2="809.9721212121212" y2="54.25454545454545" stroke="#1f77b4" stroke-width="1.4211023622047245"/></svg>