<svg xmlns="http://www.w3.org/2000/svg" width="624" height="384" viewBox="0 0 624 384"><rect x="0.0" y="0.0" width="624.0" height="384.0" fill="#ffffff" fill-opacity="1.0" stroke="none"/><line x1="124.17523809523809" y1="32.266666666666666" x2="124.17523809523809" y2="358.3333333333333" stroke="#dddddd" stroke-width="1.3333333333333333"/><line x1="260.9784126984126" y1="32.266666666666666" x2="260.9784126984126" y2="358.3333333333333" stroke="#dddddd" stroke-width="1.3333333333333333"/><line x1="397.7815873015873" y1="32.266666666666666" x2="397.7815873015873" y2="358.3333333333333" stroke="#dddddd" stroke-width="1.3333333333333333"/><line x1="534.5847619047618" y1="32.266666666666666" x2="534.5847619047618" y2="358.3333333333333" stroke="#dddddd" stroke-width="1.3333333333333333"/><line x1="42.093333333333334" y1="328.38073567710876" x2="616.6666666666666" y2="328.38073567710876" stroke="#dddddd" stroke-width="0.6666666666666666"/><line x1="42.093333333333334" y1="268.4755403646596" x2="616.6666666666666" y2="268.4755403646596" stroke="#dddddd" stroke-width="0.6666666666666666"/><line x1="42.093333333333334" y1="208.57034505221037" x2="616.6666666666666" y2="208.57034505221037" stroke="#dddddd" stroke-width="0.6666666666666666"/><line x1="42.093333333333334" y1="148.66514973976123" x2="616.6666666666666" y2="148.66514973976123" stroke="#dddddd" stroke-width="0.6666666666666666"/><line x1="42.093333333333334" y1="88.7599544273121" x2="616.6666666666666" y2="88.7599544273121" stroke="#dddddd" stroke-width="0.6666666666666666"/><line x1="42.093333333333334" y1="358.3333333333333" x2="616.6666666666666" y2="358.3333333333333" stroke="#dddddd" stroke-width="1.3333333333333333"/><line x1="42.093333333333334" y1="298.42813802088415" x2="616.6666666666666" y2="298.42813802088415" stroke="#dddddd" stroke-width="1.3333333333333333"/><line x1="42.093333333333334" y1="238.52294270843498" x2="616.6666666666666" y2="238.52294270843498" stroke="#dddddd" stroke-width="1.3333333333333333"/><line x1="42.093333333333334" y1="178.61774739598584" x2="616.6666666666666" y2="178.61774739598584" stroke="#dddddd" stroke-width="1.3333333333333333"/><line x1="42.093333333333334" y1="118.71255208353666" x2="616.6666666666666" y2="118.71255208353666" stroke="#dddddd" stroke-width="1.3333333333333333"/><line x1="42.093333333333334" y1="58.807356771087484" x2="616.6666666666666" y2="58.807356771087484" stroke="#dddddd" stroke-width="1.3333333333333333"/><rect x="42.093333333333334" y="32.266666666666666" width="574.5733333333333" height="326.06666666666666" fill="#ffffff" fill-opacity="0.0" stroke="#444444" stroke-width="1.3333333333333333"/><line x1="124.17523809523809" y1="358.3333333333333" x2="124.17523809523809" y2="362.0" stroke="#444444" stroke-width="1.3333333333333333"/><text x="124.17523809523809" y="374.32" fill="#333333" font-size="11.733333333333334" font-family="sans-serif" text-anchor="middle">f1</text><line x1="260.9784126984126" y1="358.3333333333333" x2="260.9784126984126" y2="362.0" stroke="#444444" stroke-width="1.3333333333333333"/><text x="260.9784126984126" y="374.32" fill="#333333" font-size="11.733333333333334" font-family="sans-serif" text-anchor="middle">f2</text><line x1="397.7815873015873" y1="358.3333333333333" x2="397.7815873015873" y2="362.0" stroke="#444444" stroke-width="1.3333333333333333"/><text x="397.7815873015873" y="374.32" fill="#333333" font-size="11.733333333333334" font-family="sans-serif" text-anchor="middle">f3</text><line x1="534.5847619047618" y1="358.3333333333333" x2="534.5847619047618" y2="362.0" stroke="#444444" stroke-width="1.3333333333333333"/><text x="534.5847619047618" y="374.32" fill="#333333" font-size="11.733333333333334" font-family="sans-serif" text-anchor="middle">f4</text><line x1="42.093333333333334" y1="358.3333333333333" x2="38.42666666666666" y2="358.3333333333333" stroke="#444444" stroke-width="1.3333333333333333"/><text x="35.49333333333333" y="362.43999999999994" fill="#333333" font-size="11.733333333333334" font-family="sans-serif" text-anchor="end">0.00</text><line x1="42.093333333333334" y1="298.42813802088415" x2="38.42666666666666" y2="298.42813802088415" stroke="#444444" stroke-width="1.3333333333333333"/><text x="35.49333333333333" y="302.53480468755083" fill="#333333" font-size="11.733333333333334" font-family="sans-serif" text-anchor="end">0.25</text><line x1="42.093333333333334" y1="238.52294270843498" x2="38.42666666666666" y2="238.52294270843498" stroke="#444444" stroke-width="1.3333333333333333"/><text x="35.49333333333333" y="242.62960937510167" fill="#333333" font-size="11.733333333333334" font-family="sans-serif" text-anchor="end">0.50</text><line x1="42.093333333333334" y1="178.61774739598584" x2="38.42666666666666" y2="178.61774739598584" stroke="#444444" stroke-width="1.3333333333333333"/><text x="35.49333333333333" y="182.72441406265253" fill="#333333" font-size="11.733333333333334" font-family="sans-serif" text-anchor="end">0.75</text><line x1="42.093333333333334" y1="118.71255208353666" x2="38.42666666666666" y2="118.71255208353666" stroke="#444444" stroke-width="1.3333333333333333"/><text x="35.49333333333333" y="122.81921875020333" fill="#333333" font-size="11.733333333333334" font-family="sans-serif" text-anchor="end">1.00</text><line x1="42.093333333333334" y1="58.807356771087484" x2="38.42666666666666" y2="58.807356771087484" stroke="#444444" stroke-width="1.3333333333333333"/><text x="35.49333333333333" y="62.914023437754146" fill="#333333" font-size="11.733333333333334" font-family="sans-serif" text-anchor="end">1.25</text><text x="42.093333333333334" y="21.413333333333334" fill="#333333" font-size="17.599999999999998" font-family="sans-serif" text-anchor="start">PLS VIP</text><rect x="62.613809523809536" y="47.7936507936508" width="123.1228571428571" height="310.53968253968253" fill="#1f77b4" fill-opacity="1.0" stroke="none"/><rect x="199.4169841269841" y="72.0541682767958" width="123.1228571428571" height="286.2791650565375" fill="#1f77b4" fill-opacity="1.0" stroke="none"/><rect x="336.22015873015874" y="131.9651651359972" width="123.1228571428571" height="226.3681681973361" fill="#1f77b4" fill-opacity="1.0" stroke="none"/><rect x="473.0233333333333" y="352.0665257952709" width="123.1228571428571" height="6.266807538062418" fill="#1f77b4" fill-opacity="1.0" stroke="none"/></svg>