<svg xmlns="http://www.w3.org/2000/svg" width="1333" height="507" viewBox="0 0 1333 507"><rect x="0.0" y="0.0" width="1333.3333333333333" height="506.66666666666663" fill="#ffffff" fill-opacity="1.0" stroke="none"/><rect x="0.0" y="0.0" width="0.0" height="0.0" fill="#ffffff" fill-opacity="1.0" stroke="none"/><line x1="99.47589743589744" y1="39.599999999999994" x2="99.47589743589744" y2="473.66666666666663" stroke="#dddddd" stroke-width="1.3333333333333333"/><line x1="218.0912820512821" y1="39.599999999999994" x2="218.0912820512821" y2="473.66666666666663" stroke="#dddddd" stroke-width="1.3333333333333333"/><line x1="336.7066666666667" y1="39.599999999999994" x2="336.7066666666667" y2="473.66666666666663" stroke="#dddddd" stroke-width="1.3333333333333333"/><line x1="455.32205128205135" y1="39.599999999999994" x2="455.32205128205135" y2="473.66666666666663" stroke="#dddddd" stroke-width="1.3333333333333333"/><line x1="573.937435897436" y1="39.599999999999994" x2="573.937435897436" y2="473.66666666666663" stroke="#dddddd" stroke-width="1.3333333333333333"/><line x1="28.306666666666665" y1="404.144594779778" x2="645.1066666666667" y2="404.144594779778" stroke="#dddddd" stroke-width="0.6666666666666666"/><line x1="28.306666666666665" y1="265.10045100600087" x2="645.1066666666667" y2="265.10045100600087" stroke="#dddddd" stroke-width="0.6666666666666666"/><line x1="28.306666666666665" y1="126.05630723222376" x2="645.1066666666667" y2="126.05630723222376" stroke="#dddddd" stroke-width="0.6666666666666666"/><line x1="28.306666666666665" y1="473.66666666666663" x2="645.1066666666667" y2="473.66666666666663" stroke="#dddddd" stroke-width="1.3333333333333333"/><line x1="28.306666666666665" y1="334.6225228928895" x2="645.1066666666667" y2="334.6225228928895" stroke="#dddddd" stroke-width="1.3333333333333333"/><line x1="28.306666666666665" y1="195.5783791191123" x2="645.1066666666667" y2="195.5783791191123" stroke="#dddddd" stroke-width="1.3333333333333333"/><line x1="28.306666666666665" y1="56.53423534533514" x2="645.1066666666667" y2="56.53423534533514" stroke="#dddddd" stroke-width="1.3333333333333333"/><rect x="28.306666666666665" y="39.599999999999994" width="616.8" height="434.06666666666666" fill="#ffffff" fill-opacity="0.0" stroke="#444444" stroke-width="1.3333333333333333"/><line x1="99.47589743589744" y1="473.66666666666663" x2="99.47589743589744" y2="477.3333333333333" stroke="#444444" stroke-width="1.3333333333333333"/><text x="99.47589743589744" y="489.6533333333333" fill="#333333" font-size="11.733333333333334" font-family="sans-serif" text-anchor="middle">x1</text><line x1="218.0912820512821" y1="473.66666666666663" x2="218.0912820512821" y2="477.3333333333333" stroke="#444444" stroke-width="1.3333333333333333"/><text x="218.0912820512821" y="489.6533333333333" fill="#333333" font-size="11.733333333333334" font-family="sans-serif" text-anchor="middle">x2</text><line x1="336.7066666666667" y1="473.66666666666663" x2="336.7066666666667" y2="477.3333333333333" stroke="#444444" stroke-width="1.3333333333333333"/><text x="336.7066666666667" y="489.6533333333333" fill="#333333" font-size="11.733333333333334" font-family="sans-serif" text-anchor="middle">x3</text><line x1="455.32205128205135" y1="473.66666666666663" x2="455.32205128205135" y2="477.3333333333333" stroke="#444444" stroke-width="1.3333333333333333"/><text x="455.32205128205135" y="489.6533333333333" fill="#333333" font-size="11.733333333333334" font-family="sans-serif" text-anchor="middle">x4</text><line x1="573.937435897436" y1="473.66666666666663" x2="573.937435897436" y2="477.3333333333333" stroke="#444444" stroke-width="1.3333333333333333"/><text x="573.937435897436" y="489.6533333333333" fill="#333333" font-size="11.733333333333334" font-family="sans-serif" text-anchor="middle">x5</text><line x1="28.306666666666665" y1="473.66666666666663" x2="24.64" y2="473.66666666666663" stroke="#444444" stroke-width="1.3333333333333333"/><text x="21.706666666666667" y="477.7733333333333" fill="#333333" font-size="11.733333333333334" font-family="sans-serif" text-anchor="end">0</text><line x1="28.306666666666665" y1="334.6225228928895" x2="24.64" y2="334.6225228928895" stroke="#444444" stroke-width="1.3333333333333333"/><text x="21.706666666666667" y="338.7291895595562" fill="#333333" font-size="11.733333333333334" font-family="sans-serif" text-anchor="end">1</text><line x1="28.306666666666665" y1="195.5783791191123" x2="24.64" y2="195.5783791191123" stroke="#444444" stroke-width="1.3333333333333333"/><text x="21.706666666666667" y="199.68504578577898" fill="#333333" font-size="11.733333333333334" font-family="sans-serif" text-anchor="end">2</text><line x1="28.306666666666665" y1="56.53423534533514" x2="24.64" y2="56.53423534533514" stroke="#444444" stroke-width="1.3333333333333333"/><text x="21.706666666666667" y="60.6409020120018" fill="#333333" font-size="11.733333333333334" font-family="sans-serif" text-anchor="end">3</text><text x="28.306666666666665" y="28.74666666666667" fill="#333333" font-size="17.599999999999998" font-family="sans-serif" text-anchor="start">Lasso (sparse selection)</text><rect x="46.098974358974345" y="60.26984126984128" width="106.75384615384618" height="413.39682539682536" fill="#1f77b4" fill-opacity="1.0" stroke="none"/><rect x="164.71435897435902" y="276.1326768421234" width="106.75384615384618" height="197.53398982454328" fill="#1f77b4" fill-opacity="1.0" stroke="none"/><rect x="283.32974358974366" y="473.66666666666663" width="106.75384615384618" height="0.0" fill="#1f77b4" fill-opacity="1.0" stroke="none"/><rect x="401.94512820512824" y="473.66666666666663" width="106.75384615384618" height="0.0" fill="#1f77b4" fill-opacity="1.0" stroke="none"/><rect x="520.5605128205128" y="473.66666666666663" width="106.75384615384618" height="0.0" fill="#1f77b4" fill-opacity="1.0" stroke="none"/><rect x="0.0" y="0.0" width="0.0" height="0.0" fill="#ffffff" fill-opacity="1.0" stroke="none"/><line x1="773.0358974358975" y1="39.599999999999994" x2="773.0358974358975" y2="473.66666666666663" stroke="#dddddd" stroke-width="1.3333333333333333"/><line x1="891.6512820512822" y1="39.599999999999994" x2="891.6512820512822" y2="473.66666666666663" stroke="#dddddd" stroke-width="1.3333333333333333"/><line x1="1010.2666666666669" y1="39.599999999999994" x2="1010.2666666666669" y2="473.66666666666663" stroke="#dddddd" stroke-width="1.3333333333333333"/><line x1="1128.8820512820514" y1="39.599999999999994" x2="1128.8820512820514" y2="473.66666666666663" stroke="#dddddd" stroke-width="1.3333333333333333"/><line x1="1247.497435897436" y1="39.599999999999994" x2="1247.497435897436" y2="473.66666666666663" stroke="#dddddd" stroke-width="1.3333333333333333"/><line x1="701.8666666666668" y1="419.0636917095343" x2="1318.6666666666667" y2="419.0636917095343" stroke="#dddddd" stroke-width="0.6666666666666666"/><line x1="701.8666666666668" y1="317.1949990542612" x2="1318.6666666666667" y2="317.1949990542612" stroke="#dddddd" stroke-width="0.6666666666666666"/><line x1="701.8666666666668" y1="215.3263063989881" x2="1318.6666666666667" y2="215.3263063989881" stroke="#dddddd" stroke-width="0.6666666666666666"/><line x1="701.8666666666668" y1="113.45761374371492" x2="1318.6666666666667" y2="113.45761374371492" stroke="#dddddd" stroke-width="0.6666666666666666"/><line x1="701.8666666666668" y1="469.9980380371709" x2="1318.6666666666667" y2="469.9980380371709" stroke="#dddddd" stroke-width="1.3333333333333333"/><line x1="701.8666666666668" y1="368.1293453818978" x2="1318.6666666666667" y2="368.1293453818978" stroke="#dddddd" stroke-width="1.3333333333333333"/><line x1="701.8666666666668" y1="266.26065272662464" x2="1318.6666666666667" y2="266.26065272662464" stroke="#dddddd" stroke-width="1.3333333333333333"/><line x1="701.8666666666668" y1="164.39196007135152" x2="1318.6666666666667" y2="164.39196007135152" stroke="#dddddd" stroke-width="1.3333333333333333"/><line x1="701.8666666666668" y1="62.5232674160784" x2="1318.6666666666667" y2="62.5232674160784" stroke="#dddddd" stroke-width="1.3333333333333333"/><rect x="701.8666666666668" y="39.599999999999994" width="616.8" height="434.06666666666666" fill="#ffffff" fill-opacity="0.0" stroke="#444444" stroke-width="1.3333333333333333"/><line x1="773.0358974358975" y1="473.66666666666663" x2="773.0358974358975" y2="477.3333333333333" stroke="#444444" stroke-width="1.3333333333333333"/><text x="773.0358974358975" y="489.6533333333333" fill="#333333" font-size="11.733333333333334" font-family="sans-serif" text-anchor="middle">x1</text><line x1="891.6512820512822" y1="473.66666666666663" x2="891.6512820512822" y2="477.3333333333333" stroke="#444444" stroke-width="1.3333333333333333"/><text x="891.6512820512822" y="489.6533333333333" fill="#333333" font-size="11.733333333333334" font-family="sans-serif" text-anchor="middle">x2</text><line x1="1010.2666666666669" y1="473.66666666666663" x2="1010.2666666666669" y2="477.3333333333333" stroke="#444444" stroke-width="1.3333333333333333"/><text x="1010.2666666666669" y="489.6533333333333" fill="#333333" font-size="11.733333333333334" font-family="sans-serif" text-anchor="middle">x3</text><line x1="1128.8820512820514" y1="473.66666666666663" x2="1128.8820512820514" y2="477.3333333333333" stroke="#444444" stroke-width="1.3333333333333333"/><text x="1128.8820512820514" y="489.6533333333333" fill="#333333" font-size="11.733333333333334" font-family="sans-serif" text-anchor="middle">x4</text><line x1="1247.497435897436" y1="473.66666666666663" x2="1247.497435897436" y2="477.3333333333333" stroke="#444444" stroke-width="1.3333333333333333"/><text x="1247.497435897436" y="489.6533333333333" fill="#333333" font-size="11.733333333333334" font-family="sans-serif" text-anchor="middle">x5</text><line x1="701.8666666666668" y1="469.9980380371709" x2="698.2" y2="469.9980380371709" stroke="#444444" stroke-width="1.3333333333333333"/><text x="695.2666666666667" y="474.10470470383757" fill="#333333" font-size="11.733333333333334" font-family="sans-serif" text-anchor="end">-0.5</text><line x1="701.8666666666668" y1="368.1293453818978" x2="698.2" y2="368.1293453818978" stroke="#444444" stroke-width="1.3333333333333333"/><text x="695.2666666666667" y="372.2360120485644" fill="#333333" font-size="11.733333333333334" font-family="sans-serif" text-anchor="end">0.0</text><line x1="701.8666666666668" y1="266.26065272662464" x2="698.2" y2="266.26065272662464" stroke="#444444" stroke-width="1.3333333333333333"/><text x="695.2666666666667" y="270.3673193932913" fill="#333333" font-size="11.733333333333334" font-family="sans-serif" text-anchor="end">0.5</text><line x1="701.8666666666668" y1="164.39196007135152" x2="698.2" y2="164.39196007135152" stroke="#444444" stroke-width="1.3333333333333333"/><text x="695.2666666666667" y="168.49862673801817" fill="#333333" font-size="11.733333333333334" font-family="sans-serif" text-anchor="end">1.0</text><line x1="701.8666666666668" y1="62.5232674160784" x2="698.2" y2="62.5232674160784" stroke="#444444" stroke-width="1.3333333333333333"/><text x="695.2666666666667" y="66.62993408274505" fill="#333333" font-size="11.733333333333334" font-family="sans-serif" text-anchor="end">1.5</text><text x="701.8666666666668" y="28.74666666666667" fill="#333333" font-size="17.599999999999998" font-family="sans-serif" text-anchor="start">Ridge (variance shrinkage)</text><rect x="719.6589743589743" y="86.3875143921723" width="106.75384615384628" height="281.7418309897255" fill="#1f77b4" fill-opacity="1.0" stroke="none"/><rect x="838.2743589743591" y="81.77645725088935" width="106.75384615384628" height="286.3528881310084" fill="#1f77b4" fill-opacity="1.0" stroke="none"/><rect x="956.8897435897436" y="59.33030303030303" width="106.75384615384628" height="308.7990423515947" fill="#1f77b4" fill-opacity="1.0" stroke="none"/><rect x="1075.5051282051281" y="324.9095675362874" width="106.75384615384628" height="43.21977784561037" fill="#1f77b4" fill-opacity="1.0" stroke="none"/><rect x="1194.1205128205129" y="368.1293453818978" width="106.75384615384628" height="85.80701825446582" fill="#1f77b4" fill-opacity="1.0" stroke="none"/></svg>