<svg xmlns="http://www.w3.org/2000/svg" width="624" height="384" viewBox="0 0 624 384"><rect x="0.0" y="0.0" width="624.0" height="384.0" fill="#ffffff" fill-opacity="1.0" stroke="none"/><line x1="66.7550313804714" y1="7.333333333333333" x2="66.7550313804714" y2="358.3333333333333" stroke="#dddddd" stroke-width="0.6666666666666666"/><line x1="179.9753815488216" y1="7.333333333333333" x2="179.9753815488216" y2="358.3333333333333" stroke="#dddddd" stroke-width="0.6666666666666666"/><line x1="293.1957317171718" y1="7.333333333333333" x2="293.1957317171718" y2="358.3333333333333" stroke="#dddddd" stroke-width="0.6666666666666666"/><line x1="406.4160818855219" y1="7.333333333333333" x2="406.4160818855219" y2="358.3333333333333" stroke="#dddddd" stroke-width="0.6666666666666666"/><line x1="123.36520646464649" y1="7.333333333333333" x2="123.36520646464649" y2="358.3333333333333" stroke="#dddddd" stroke-width="1.3333333333333333"/><line x1="236.58555663299666" y1="7.333333333333333" x2="236.58555663299666" y2="358.3333333333333" stroke="#dddddd" stroke-width="1.3333333333333333"/><line x1="349.80590680134685" y1="7.333333333333333" x2="349.80590680134685" y2="358.3333333333333" stroke="#dddddd" stroke-width="1.3333333333333333"/><line x1="463.02625696969704" y1="7.333333333333333" x2="463.02625696969704" y2="358.3333333333333" stroke="#dddddd" stroke-width="1.3333333333333333"/><line x1="35.05333333333333" y1="314.8928038137846" x2="483.40592000000004" y2="314.8928038137846" stroke="#dddddd" stroke-width="0.6666666666666666"/><line x1="35.05333333333333" y1="256.57181880860344" x2="483.40592000000004" y2="256.57181880860344" stroke="#dddddd" stroke-width="0.6666666666666666"/><line x1="35.05333333333333" y1="198.25083380342227" x2="483.40592000000004" y2="198.25083380342227" stroke="#dddddd" stroke-width="0.6666666666666666"/><line x1="35.05333333333333" y1="139.92984879824112" x2="483.40592000000004" y2="139.92984879824112" stroke="#dddddd" stroke-width="0.6666666666666666"/><line x1="35.05333333333333" y1="81.60886379305994" x2="483.40592000000004" y2="81.60886379305994" stroke="#dddddd" stroke-width="0.6666666666666666"/><line x1="35.05333333333333" y1="23.287878787878828" x2="483.40592000000004" y2="23.287878787878828" stroke="#dddddd" stroke-width="0.6666666666666666"/><line x1="35.05333333333333" y1="344.05329631637517" x2="483.40592000000004" y2="344.05329631637517" stroke="#dddddd" stroke-width="1.3333333333333333"/><line x1="35.05333333333333" y1="285.73231131119405" x2="483.40592000000004" y2="285.73231131119405" stroke="#dddddd" stroke-width="1.3333333333333333"/><line x1="35.05333333333333" y1="227.41132630601288" x2="483.40592000000004" y2="227.41132630601288" stroke="#dddddd" stroke-width="1.3333333333333333"/><line x1="35.05333333333333" y1="169.0903413008317" x2="483.40592000000004" y2="169.0903413008317" stroke="#dddddd" stroke-width="1.3333333333333333"/><line x1="35.05333333333333" y1="110.76935629565051" x2="483.40592000000004" y2="110.76935629565051" stroke="#dddddd" stroke-width="1.3333333333333333"/><line x1="35.05333333333333" y1="52.4483712904694" x2="483.40592000000004" y2="52.4483712904694" stroke="#dddddd" stroke-width="1.3333333333333333"/><rect x="35.05333333333333" y="7.333333333333333" width="448.3525866666667" height="351.0" fill="#ffffff" fill-opacity="0.0" stroke="#444444" stroke-width="1.3333333333333333"/><line x1="123.36520646464649" y1="358.3333333333333" x2="123.36520646464649" y2="362.0" stroke="#444444" stroke-width="1.3333333333333333"/><text x="123.36520646464649" y="374.32" fill="#333333" font-size="11.733333333333334" font-family="sans-serif" text-anchor="middle">2.5</text><line x1="236.58555663299666" y1="358.3333333333333" x2="236.58555663299666" y2="362.0" stroke="#444444" stroke-width="1.3333333333333333"/><text x="236.58555663299666" y="374.32" fill="#333333" font-size="11.733333333333334" font-family="sans-serif" text-anchor="middle">5.0</text><line x1="349.80590680134685" y1="358.3333333333333" x2="349.80590680134685" y2="362.0" stroke="#444444" stroke-width="1.3333333333333333"/><text x="349.80590680134685" y="374.32" fill="#333333" font-size="11.733333333333334" font-family="sans-serif" text-anchor="middle">7.5</text><line x1="463.02625696969704" y1="358.3333333333333" x2="463.02625696969704" y2="362.0" stroke="#444444" stroke-width="1.3333333333333333"/><text x="463.02625696969704" y="374.32" fill="#333333" font-size="11.733333333333334" font-family="sans-serif" text-anchor="middle">10.0</text><line x1="35.05333333333333" y1="344.05329631637517" x2="31.386666666666663" y2="344.05329631637517" stroke="#444444" stroke-width="1.3333333333333333"/><text x="28.453333333333333" y="348.15996298304185" fill="#333333" font-size="11.733333333333334" font-family="sans-serif" text-anchor="end">-10</text><line x1="35.05333333333333" y1="285.73231131119405" x2="31.386666666666663" y2="285.73231131119405" stroke="#444444" stroke-width="1.3333333333333333"/><text x="28.453333333333333" y="289.83897797786074" fill="#333333" font-size="11.733333333333334" font-family="sans-serif" text-anchor="end">0</text><line x1="35.05333333333333" y1="227.41132630601288" x2="31.386666666666663" y2="227.41132630601288" stroke="#444444" stroke-width="1.3333333333333333"/><text x="28.453333333333333" y="231.51799297267956" fill="#333333" font-size="11.733333333333334" font-family="sans-serif" text-anchor="end">10</text><line x1="35.05333333333333" y1="169.0903413008317" x2="31.386666666666663" y2="169.0903413008317" stroke="#444444" stroke-width="1.3333333333333333"/><text x="28.453333333333333" y="173.1970079674984" fill="#333333" font-size="11.733333333333334" font-family="sans-serif" text-anchor="end">20</text><line x1="35.05333333333333" y1="110.76935629565051" x2="31.386666666666663" y2="110.76935629565051" stroke="#444444" stroke-width="1.3333333333333333"/><text x="28.453333333333333" y="114.87602296231718" fill="#333333" font-size="11.733333333333334" font-family="sans-serif" text-anchor="end">30</text><line x1="35.05333333333333" y1="52.4483712904694" x2="31.386666666666663" y2="52.4483712904694" stroke="#444444" stroke-width="1.3333333333333333"/><text x="28.453333333333333" y="56.555037957136065" fill="#333333" font-size="11.733333333333334" font-family="sans-serif" text-anchor="end">40</text><circle cx="55.43299636363636" cy="265.90317640943243" r="3.1181102362204727" fill="#1f77b4" fill-opacity="0.85" stroke="none"><title>(1, 3.4)</title></circle><circle cx="100.72113643097646" cy="258.9046582088107" r="3.1181102362204727" fill="#1f77b4" fill-opacity="0.85" stroke="none"><title>(2, 4.6)</title></circle><circle cx="146.00927649831652" cy="241.99157255730816" r="3.1181102362204727" fill="#1f77b4" fill-opacity="0.85" stroke="none"><title>(3, 7.5)</title></circle><circle cx="191.29741656565662" cy="234.9930543566864" r="3.1181102362204727" fill="#1f77b4" fill-opacity="0.85" stroke="none"><title>(4, 8.7)</title></circle><circle cx="236.58555663299666" cy="219.8295982553393" r="3.1181102362204727" fill="#1f77b4" fill-opacity="0.85" stroke="none"><title>(5, 11.3)</title></circle><circle cx="281.8736967003367" cy="212.2478702046658" r="3.1181102362204727" fill="#1f77b4" fill-opacity="0.85" stroke="none"><title>(6, 12.6)</title></circle><circle cx="327.16183676767685" cy="195.91799440321506" r="3.1181102362204727" fill="#1f77b4" fill-opacity="0.85" stroke="none"><title>(7, 15.4)</title></circle><circle cx="372.44997683501686" cy="187.7530565024897" r="3.1181102362204727" fill="#1f77b4" fill-opacity="0.85" stroke="none"><title>(8, 16.8)</title></circle><circle cx="417.738116902357" cy="173.75602010124624" r="3.1181102362204727" fill="#1f77b4" fill-opacity="0.85" stroke="none"><title>(9, 19.2)</title></circle><circle cx="463.02625696969704" cy="23.287878787878828" r="3.1181102362204727" fill="#1f77b4" fill-opacity="0.85" stroke="none"><title>(10, 45)</title></circle><path d="M 55.43299636363636 342.3787878787879 L 59.55010000612182 339.8518494858115 L 63.66720364860729 337.32967266097285 L 67.78430729109274 334.81246964344297 L 71.9014109335782 332.3004639830174 L 76.01851457606367 329.79389117460926 L 80.13561821854913 327.29299932194124 L 84.25272186103459 324.7980498300328 L 88.36982550352005 322.3093181256314 L 92.48692914600554 319.8270944041907 L 96.60403278849097 317.3516844013434 L 100.72113643097646 314.88341018603137 L 104.83824007346189 312.4226109715242 L 108.95534371594735 309.96964393946735 L 113.07244735843281 307.52488507081955 L 117.18955100091827 305.0887299760658 L 121.30665464340373 302.6615947153892 L 125.42375828588922 300.243916597557 L 129.54086192837468 297.8361549440914 L 133.65796557086014 295.43879180286467 L 137.7750692133456 293.05233259257454 L 141.89217285583106 290.6773066566348 L 146.00927649831652 288.31426770189034 L 150.12638014080198 285.96379409428494 L 154.24348378328742 283.62648898024145 L 158.3605874257729 281.3029801991769 L 162.47769106825834 278.9939199493906 L 166.59479471074383 276.6999841667249 L 170.71189835322926 274.4218715731264 L 174.82900199571475 272.1603023507852 L 178.94610563820018 269.9160163972334 L 183.0632092806857 267.68977111796414 L 187.18031292317113 265.4823387161779 L 191.29741656565662 263.2945029445416 L 195.41452020814205 261.12705529170887 L 199.53162385062754 258.9807905870964 L 203.64872749311303 256.85650202122594 L 207.76583113559843 254.7549755958635 L 211.8829347780839 252.67698403804198 L 216.00003842056935 250.62328023442507 L 220.1171420630548 248.59459026663026 L 224.23424570554027 246.59160615306715 L 228.35134934802574 244.61497842723588 L 232.46845299051122 242.66530870471644 L 236.58555663299666 240.74314240954192 L 240.70266027548215 238.84896184356722 L 244.81976391796758 236.98317978821962 L 248.93686756045304 235.146133825403 L 253.0539712029385 233.3380815525573 L 257.17107484542396 231.55919684583583 L 261.2881784879095 229.80956729568032 L 265.4052821303949 228.08919290209099 L 269.5223857728804 226.39798607462583 L 273.6394894153658 224.73577293713157 L 277.75659305785126 223.1022958921683 L 281.8736967003367 221.49721735783214 L 285.99080034282224 219.92012455269574 L 290.10790398530764 218.3705351749044 L 294.2250076277931 216.84790380042477 L 298.34211127027856 215.35162881367705 L 302.459214912764 213.88105968116093 L 306.5763185552495 212.43550438446692 L 310.693422197735 211.0142368419776 L 314.81052584022046 209.61650416702923 L 318.9276294827059 208.24153363258876 L 323.0447331251913 206.88853923689038 L 327.16183676767685 205.55672778941224 L 331.27894041016225 204.24530446073769 L 335.39604405264777 202.95347776221308 L 339.5131476951332 201.68046394117147 L 343.63025133761863 200.42549079441238 L 347.74735498010415 199.1878009164427 L 351.86445862258967 197.96665440973038 L 355.981562265075 196.76133109208513 L 360.09866590756053 195.5711322415606 L 364.215769550046 194.39538192231421 L 368.3328731925315 193.2334279360469 L 372.44997683501686 192.08464244334147 L 376.5670804775023 190.948422297775 L 380.68418411998783 189.82418913340393 L 384.80128776247335 188.71138924338317 L 388.9183914049588 187.60949328429902 L 393.0354950474442 186.51799583745378 L 397.15259868992973 185.43641485497506 L 401.26970233241514 184.36429101534077 L 405.38680597490054 183.30118700978372 L 409.503909617386 182.24668677812056 L 413.6210132598716 181.20039470986654 L 417.738116902357 180.16193482406288 L 421.8552205448425 179.13094993906407 L 425.97232418732784 178.10710084160044 L 430.08942782981336 177.09006546273034 L 434.2065314722988 176.07953806682087 L 438.32363511478434 175.0752284584184 L 442.44073875726974 174.07686121077555 L 446.5578423997552 173.08417491887275 L 450.67494604224066 172.09692147898753 L 454.7920496847262 171.11486539620654 L 458.9091533272116 170.13778312073433 L 463.02625696969704 169.16546241339978 L 463.02625696969704 60.53818807862656 L 458.9091533272116 63.065126471603016 L 454.7920496847262 65.58730329644159 L 450.67494604224066 68.10450631397148 L 446.5578423997552 70.61651197439706 L 442.44073875726974 73.12308478280525 L 438.32363511478434 75.6239766354732 L 434.2065314722988 78.11892612738161 L 430.08942782981336 80.60765783178302 L 425.97232418732784 83.08988155322379 L 421.8552205448425 85.565291556071 L 417.738116902357 88.03356577138311 L 413.6210132598716 90.49436498589023 L 409.503909617386 92.94733201794713 L 405.38680597490054 95.39209088659489 L 401.26970233241514 97.82824598134864 L 397.15259868992973 100.2553812420252 L 393.0354950474442 102.67305935985746 L 388.9183914049588 105.080821013323 L 384.80128776247335 107.47818415454972 L 380.68418411998783 109.86464336483985 L 376.5670804775023 112.23966930077964 L 372.44997683501686 114.60270825552402 L 368.3328731925315 116.95318186312954 L 364.215769550046 119.29048697717306 L 360.09866590756053 121.61399575823751 L 355.981562265075 123.92305600802388 L 351.86445862258967 126.21699179068949 L 347.74735498010415 128.495104384288 L 343.63025133761863 130.75667360662922 L 339.5131476951332 133.00095956018097 L 335.39604405264777 135.22720483945034 L 331.27894041016225 137.43463724123652 L 327.16183676767685 139.6224730128728 L 323.0447331251913 141.7899206657056 L 318.9276294827059 143.93618537031807 L 314.81052584022046 146.0604739361885 L 310.693422197735 148.16200036155092 L 306.5763185552495 150.23999191937244 L 302.459214912764 152.2936957229894 L 298.34211127027856 154.3223856907842 L 294.2250076277931 156.32536980434736 L 290.10790398530764 158.30199753017854 L 285.99080034282224 160.251667252698 L 281.8736967003367 162.1738335478725 L 277.75659305785126 164.0680141138472 L 273.6394894153658 165.93379616919486 L 269.5223857728804 167.7708421320114 L 265.4052821303949 169.57889440485712 L 261.2881784879095 171.35777911157868 L 257.17107484542396 173.1074086617341 L 253.0539712029385 174.8277830553235 L 248.93686756045304 176.51898988278862 L 244.81976391796758 178.1812030202829 L 240.70266027548215 179.8146800652461 L 236.58555663299666 181.41975859958234 L 232.46845299051122 182.99685140471865 L 228.35134934802574 184.5464407825101 L 224.23424570554027 186.06907215698973 L 220.1171420630548 187.56534714373745 L 216.00003842056935 189.03591627625352 L 211.8829347780839 190.4814715729475 L 207.76583113559843 191.90273911543684 L 203.64872749311303 193.30047179038525 L 199.53162385062754 194.6754423248257 L 195.41452020814205 196.02843672052407 L 191.29741656565662 197.3602481680022 L 187.18031292317113 198.67167149667677 L 183.0632092806857 199.96349819520134 L 178.94610563820018 201.23651201624298 L 174.82900199571475 202.49148516300207 L 170.71189835322926 203.72917504097177 L 166.59479471074383 204.9503215476841 L 162.47769106825834 206.15564486532935 L 158.3605874257729 207.34584371585385 L 154.24348378328742 208.5215940351002 L 150.12638014080198 209.68354802136756 L 146.00927649831652 210.83233351407299 L 141.89217285583106 211.96855365963944 L 137.7750692133456 213.09278682401055 L 133.65796557086014 214.20558671403128 L 129.54086192837468 215.30748267311543 L 125.42375828588922 216.3989801199607 L 121.30665464340373 217.48056110243942 L 117.18955100091827 218.55268494207365 L 113.07244735843281 219.6157889476308 L 108.95534371594735 220.6702891792939 L 104.83824007346189 221.7165812475479 L 100.72113643097646 222.7550411333516 L 96.60403278849097 223.7860260183504 L 92.48692914600554 224.809875115814 L 88.36982550352005 225.82691049468417 L 84.25272186103459 226.83743789059355 L 80.13561821854913 227.84174749899606 L 76.01851457606367 228.84011474663896 L 71.9014109335782 229.83280103854167 L 67.78430729109274 230.82005447842693 L 63.66720364860729 231.80211056120788 L 59.55010000612182 232.77919283668018 L 55.43299636363636 233.75151354401464 Z" fill="#ffa500" fill-opacity="0.2" stroke="none"/><line x1="55.43299636363636" y1="288.06515071140126" x2="59.55010000612182" y2="286.3155211612458" stroke="#ffa500" stroke-width="1.4211023622047245"/><line x1="59.55010000612182" y1="286.3155211612458" x2="63.66720364860729" y2="284.56589161109036" stroke="#ffa500" stroke-width="1.4211023622047245"/><line x1="63.66720364860729" y1="284.56589161109036" x2="67.78430729109274" y2="282.81626206093495" stroke="#ffa500" stroke-width="1.4211023622047245"/><line x1="67.78430729109274" y1="282.81626206093495" x2="71.9014109335782" y2="281.0666325107795" stroke="#ffa500" stroke-width="1.4211023622047245"/><line x1="71.9014109335782" y1="281.0666325107795" x2="76.01851457606367" y2="279.3170029606241" stroke="#ffa500" stroke-width="1.4211023622047245"/><line x1="76.01851457606367" y1="279.3170029606241" x2="80.13561821854913" y2="277.56737341046863" stroke="#ffa500" stroke-width="1.4211023622047245"/><line x1="80.13561821854913" y1="277.56737341046863" x2="84.25272186103459" y2="275.8177438603132" stroke="#ffa500" stroke-width="1.4211023622047245"/><line x1="84.25272186103459" y1="275.8177438603132" x2="88.36982550352005" y2="274.06811431015774" stroke="#ffa500" stroke-width="1.4211023622047245"/><line x1="88.36982550352005" y1="274.06811431015774" x2="92.48692914600554" y2="272.3184847600023" stroke="#ffa500" stroke-width="1.4211023622047245"/><line x1="92.48692914600554" y1="272.3184847600023" x2="96.60403278849097" y2="270.5688552098469" stroke="#ffa500" stroke-width="1.4211023622047245"/><line x1="96.60403278849097" y1="270.5688552098469" x2="100.72113643097646" y2="268.8192256596915" stroke="#ffa500" stroke-width="1.4211023622047245"/><line x1="100.72113643097646" y1="268.8192256596915" x2="104.83824007346189" y2="267.06959610953606" stroke="#ffa500" stroke-width="1.4211023622047245"/><line x1="104.83824007346189" y1="267.06959610953606" x2="108.95534371594735" y2="265.3199665593806" stroke="#ffa500" stroke-width="1.4211023622047245"/><line x1="108.95534371594735" y1="265.3199665593806" x2="113.07244735843281" y2="263.57033700922517" stroke="#ffa500" stroke-width="1.4211023622047245"/><line x1="113.07244735843281" y1="263.57033700922517" x2="117.18955100091827" y2="261.8207074590697" stroke="#ffa500" stroke-width="1.4211023622047245"/><line x1="117.18955100091827" y1="261.8207074590697" x2="121.30665464340373" y2="260.0710779089143" stroke="#ffa500" stroke-width="1.4211023622047245"/><line x1="121.30665464340373" y1="260.0710779089143" x2="125.42375828588922" y2="258.32144835875886" stroke="#ffa500" stroke-width="1.4211023622047245"/><line x1="125.42375828588922" y1="258.32144835875886" x2="129.54086192837468" y2="256.57181880860344" stroke="#ffa500" stroke-width="1.4211023622047245"/><line x1="129.54086192837468" y1="256.57181880860344" x2="133.65796557086014" y2="254.82218925844796" stroke="#ffa500" stroke-width="1.4211023622047245"/><line x1="133.65796557086014" y1="254.82218925844796" x2="137.7750692133456" y2="253.07255970829254" stroke="#ffa500" stroke-width="1.4211023622047245"/><line x1="137.7750692133456" y1="253.07255970829254" x2="141.89217285583106" y2="251.32293015813713" stroke="#ffa500" stroke-width="1.4211023622047245"/><line x1="141.89217285583106" y1="251.32293015813713" x2="146.00927649831652" y2="249.57330060798168" stroke="#ffa500" stroke-width="1.4211023622047245"/><line x1="146.00927649831652" y1="249.57330060798168" x2="150.12638014080198" y2="247.82367105782626" stroke="#ffa500" stroke-width="1.4211023622047245"/><line x1="150.12638014080198" y1="247.82367105782626" x2="154.24348378328742" y2="246.07404150767084" stroke="#ffa500" stroke-width="1.4211023622047245"/><line x1="154.24348378328742" y1="246.07404150767084" x2="158.3605874257729" y2="244.3244119575154" stroke="#ffa500" stroke-width="1.4211023622047245"/><line x1="158.3605874257729" y1="244.3244119575154" x2="162.47769106825834" y2="242.57478240735992" stroke="#ffa500" stroke-width="1.4211023622047245"/><line x1="162.47769106825834" y1="242.57478240735992" x2="166.59479471074383" y2="240.82515285720456" stroke="#ffa500" stroke-width="1.4211023622047245"/><line x1="166.59479471074383" y1="240.82515285720456" x2="170.71189835322926" y2="239.07552330704908" stroke="#ffa500" stroke-width="1.4211023622047245"/><line x1="170.71189835322926" y1="239.07552330704908" x2="174.82900199571475" y2="237.32589375689363" stroke="#ffa500" stroke-width="1.4211023622047245"/><line x1="174.82900199571475" y1="237.32589375689363" x2="178.94610563820018" y2="235.57626420673822" stroke="#ffa500" stroke-width="1.4211023622047245"/><line x1="178.94610563820018" y1="235.57626420673822" x2="183.0632092806857" y2="233.8266346565828" stroke="#ffa500" stroke-width="1.4211023622047245"/><line x1="183.0632092806857" y1="233.8266346565828" x2="187.18031292317113" y2="232.07700510642735" stroke="#ffa500" stroke-width="1.4211023622047245"/><line x1="187.18031292317113" y1="232.07700510642735" x2="191.29741656565662" y2="230.32737555627187" stroke="#ffa500" stroke-width="1.4211023622047245"/><line x1="191.29741656565662" y1="230.32737555627187" x2="195.41452020814205" y2="228.57774600611646" stroke="#ffa500" stroke-width="1.4211023622047245"/><line x1="195.41452020814205" y1="228.57774600611646" x2="199.53162385062754" y2="226.82811645596104" stroke="#ffa500" stroke-width="1.4211023622047245"/><line x1="199.53162385062754" y1="226.82811645596104" x2="203.64872749311303" y2="225.0784869058056" stroke="#ffa500" stroke-width="1.4211023622047245"/><line x1="203.64872749311303" y1="225.0784869058056" x2="207.76583113559843" y2="223.32885735565017" stroke="#ffa500" stroke-width="1.4211023622047245"/><line x1="207.76583113559843" y1="223.32885735565017" x2="211.8829347780839" y2="221.57922780549472" stroke="#ffa500" stroke-width="1.4211023622047245"/><line x1="211.8829347780839" y1="221.57922780549472" x2="216.00003842056935" y2="219.8295982553393" stroke="#ffa500" stroke-width="1.4211023622047245"/><line x1="216.00003842056935" y1="219.8295982553393" x2="220.1171420630548" y2="218.07996870518383" stroke="#ffa500" stroke-width="1.4211023622047245"/><line x1="220.1171420630548" y1="218.07996870518383" x2="224.23424570554027" y2="216.33033915502847" stroke="#ffa500" stroke-width="1.4211023622047245"/><line x1="224.23424570554027" y1="216.33033915502847" x2="228.35134934802574" y2="214.580709604873" stroke="#ffa500" stroke-width="1.4211023622047245"/><line x1="228.35134934802574" y1="214.580709604873" x2="232.46845299051122" y2="212.83108005471755" stroke="#ffa500" stroke-width="1.4211023622047245"/><line x1="232.46845299051122" y1="212.83108005471755" x2="236.58555663299666" y2="211.0814505045621" stroke="#ffa500" stroke-width="1.4211023622047245"/><line x1="236.58555663299666" y1="211.0814505045621" x2="240.70266027548215" y2="209.3318209544067" stroke="#ffa500" stroke-width="1.4211023622047245"/><line x1="240.70266027548215" y1="209.3318209544067" x2="244.81976391796758" y2="207.58219140425126" stroke="#ffa500" stroke-width="1.4211023622047245"/><line x1="244.81976391796758" y1="207.58219140425126" x2="248.93686756045304" y2="205.83256185409584" stroke="#ffa500" stroke-width="1.4211023622047245"/><line x1="248.93686756045304" y1="205.83256185409584" x2="253.0539712029385" y2="204.08293230394037" stroke="#ffa500" stroke-width="1.4211023622047245"/><line x1="253.0539712029385" y1="204.08293230394037" x2="257.17107484542396" y2="202.33330275378495" stroke="#ffa500" stroke-width="1.4211023622047245"/><line x1="257.17107484542396" y1="202.33330275378495" x2="261.2881784879095" y2="200.5836732036295" stroke="#ffa500" stroke-width="1.4211023622047245"/><line x1="261.2881784879095" y1="200.5836732036295" x2="265.4052821303949" y2="198.83404365347408" stroke="#ffa500" stroke-width="1.4211023622047245"/><line x1="265.4052821303949" y1="198.83404365347408" x2="269.5223857728804" y2="197.08441410331864" stroke="#ffa500" stroke-width="1.4211023622047245"/><line x1="269.5223857728804" y1="197.08441410331864" x2="273.6394894153658" y2="195.33478455316322" stroke="#ffa500" stroke-width="1.4211023622047245"/><line x1="273.6394894153658" y1="195.33478455316322" x2="277.75659305785126" y2="193.58515500300774" stroke="#ffa500" stroke-width="1.4211023622047245"/><line x1="277.75659305785126" y1="193.58515500300774" x2="281.8736967003367" y2="191.8355254528523" stroke="#ffa500" stroke-width="1.4211023622047245"/><line x1="281.8736967003367" y1="191.8355254528523" x2="285.99080034282224" y2="190.0858959026969" stroke="#ffa500" stroke-width="1.4211023622047245"/><line x1="285.99080034282224" y1="190.0858959026969" x2="290.10790398530764" y2="188.33626635254146" stroke="#ffa500" stroke-width="1.4211023622047245"/><line x1="290.10790398530764" y1="188.33626635254146" x2="294.2250076277931" y2="186.58663680238604" stroke="#ffa500" stroke-width="1.4211023622047245"/><line x1="294.2250076277931" y1="186.58663680238604" x2="298.34211127027856" y2="184.8370072522306" stroke="#ffa500" stroke-width="1.4211023622047245"/><line x1="298.34211127027856" y1="184.8370072522306" x2="302.459214912764" y2="183.08737770207517" stroke="#ffa500" stroke-width="1.4211023622047245"/><line x1="302.459214912764" y1="183.08737770207517" x2="306.5763185552495" y2="181.33774815191975" stroke="#ffa500" stroke-width="1.4211023622047245"/><line x1="306.5763185552495" y1="181.33774815191975" x2="310.693422197735" y2="179.58811860176428" stroke="#ffa500" stroke-width="1.4211023622047245"/><line x1="310.693422197735" y1="179.58811860176428" x2="314.81052584022046" y2="177.83848905160883" stroke="#ffa500" stroke-width="1.4211023622047245"/><line x1="314.81052584022046" y1="177.83848905160883" x2="318.9276294827059" y2="176.0888595014534" stroke="#ffa500" stroke-width="1.4211023622047245"/><line x1="318.9276294827059" y1="176.0888595014534" x2="323.0447331251913" y2="174.339229951298" stroke="#ffa500" stroke-width="1.4211023622047245"/><line x1="323.0447331251913" y1="174.339229951298" x2="327.16183676767685" y2="172.58960040114255" stroke="#ffa500" stroke-width="1.4211023622047245"/><line x1="327.16183676767685" y1="172.58960040114255" x2="331.27894041016225" y2="170.83997085098713" stroke="#ffa500" stroke-width="1.4211023622047245"/><line x1="331.27894041016225" y1="170.83997085098713" x2="335.39604405264777" y2="169.0903413008317" stroke="#ffa500" stroke-width="1.4211023622047245"/><line x1="335.39604405264777" y1="169.0903413008317" x2="339.5131476951332" y2="167.34071175067623" stroke="#ffa500" stroke-width="1.4211023622047245"/><line x1="339.5131476951332" y1="167.34071175067623" x2="343.63025133761863" y2="165.5910822005208" stroke="#ffa500" stroke-width="1.4211023622047245"/><line x1="343.63025133761863" y1="165.5910822005208" x2="347.74735498010415" y2="163.84145265036537" stroke="#ffa500" stroke-width="1.4211023622047245"/><line x1="347.74735498010415" y1="163.84145265036537" x2="351.86445862258967" y2="162.09182310020995" stroke="#ffa500" stroke-width="1.4211023622047245"/><line x1="351.86445862258967" y1="162.09182310020995" x2="355.981562265075" y2="160.3421935500545" stroke="#ffa500" stroke-width="1.4211023622047245"/><line x1="355.981562265075" y1="160.3421935500545" x2="360.09866590756053" y2="158.59256399989903" stroke="#ffa500" stroke-width="1.4211023622047245"/><line x1="360.09866590756053" y1="158.59256399989903" x2="364.215769550046" y2="156.8429344497436" stroke="#ffa500" stroke-width="1.4211023622047245"/><line x1="364.215769550046" y1="156.8429344497436" x2="368.3328731925315" y2="155.0933048995882" stroke="#ffa500" stroke-width="1.4211023622047245"/><line x1="368.3328731925315" y1="155.0933048995882" x2="372.44997683501686" y2="153.34367534943277" stroke="#ffa500" stroke-width="1.4211023622047245"/><line x1="372.44997683501686" y1="153.34367534943277" x2="376.5670804775023" y2="151.59404579927735" stroke="#ffa500" stroke-width="1.4211023622047245"/><line x1="376.5670804775023" y1="151.59404579927735" x2="380.68418411998783" y2="149.8444162491219" stroke="#ffa500" stroke-width="1.4211023622047245"/><line x1="380.68418411998783" y1="149.8444162491219" x2="384.80128776247335" y2="148.0947866989664" stroke="#ffa500" stroke-width="1.4211023622047245"/><line x1="384.80128776247335" y1="148.0947866989664" x2="388.9183914049588" y2="146.34515714881104" stroke="#ffa500" stroke-width="1.4211023622047245"/><line x1="388.9183914049588" y1="146.34515714881104" x2="393.0354950474442" y2="144.59552759865562" stroke="#ffa500" stroke-width="1.4211023622047245"/><line x1="393.0354950474442" y1="144.59552759865562" x2="397.15259868992973" y2="142.84589804850012" stroke="#ffa500" stroke-width="1.4211023622047245"/><line x1="397.15259868992973" y1="142.84589804850012" x2="401.26970233241514" y2="141.09626849834467" stroke="#ffa500" stroke-width="1.4211023622047245"/><line x1="401.26970233241514" y1="141.09626849834467" x2="405.38680597490054" y2="139.34663894818925" stroke="#ffa500" stroke-width="1.4211023622047245"/><line x1="405.38680597490054" y1="139.34663894818925" x2="409.503909617386" y2="137.59700939803386" stroke="#ffa500" stroke-width="1.4211023622047245"/><line x1="409.503909617386" y1="137.59700939803386" x2="413.6210132598716" y2="135.84737984787841" stroke="#ffa500" stroke-width="1.4211023622047245"/><line x1="413.6210132598716" y1="135.84737984787841" x2="417.738116902357" y2="134.09775029772294" stroke="#ffa500" stroke-width="1.4211023622047245"/><line x1="417.738116902357" y1="134.09775029772294" x2="421.8552205448425" y2="132.3481207475675" stroke="#ffa500" stroke-width="1.4211023622047245"/><line x1="421.8552205448425" y1="132.3481207475675" x2="425.97232418732784" y2="130.5984911974121" stroke="#ffa500" stroke-width="1.4211023622047245"/><line x1="425.97232418732784" y1="130.5984911974121" x2="430.08942782981336" y2="128.84886164725665" stroke="#ffa500" stroke-width="1.4211023622047245"/><line x1="430.08942782981336" y1="128.84886164725665" x2="434.2065314722988" y2="127.09923209710124" stroke="#ffa500" stroke-width="1.4211023622047245"/><line x1="434.2065314722988" y1="127.09923209710124" x2="438.32363511478434" y2="125.34960254694579" stroke="#ffa500" stroke-width="1.4211023622047245"/><line x1="438.32363511478434" y1="125.34960254694579" x2="442.44073875726974" y2="123.5999729967904" stroke="#ffa500" stroke-width="1.4211023622047245"/><line x1="442.44073875726974" y1="123.5999729967904" x2="446.5578423997552" y2="121.85034344663491" stroke="#ffa500" stroke-width="1.4211023622047245"/><line x1="446.5578423997552" y1="121.85034344663491" x2="450.67494604224066" y2="120.10071389647953" stroke="#ffa500" stroke-width="1.4211023622047245"/><line x1="450.67494604224066" y1="120.10071389647953" x2="454.7920496847262" y2="118.35108434632407" stroke="#ffa500" stroke-width="1.4211023622047245"/><line x1="454.7920496847262" y1="118.35108434632407" x2="458.9091533272116" y2="116.6014547961687" stroke="#ffa500" stroke-width="1.4211023622047245"/><line x1="458.9091533272116" y1="116.6014547961687" x2="463.02625696969704" y2="114.85182524601319" stroke="#ffa500" stroke-width="1.4211023622047245"/><path d="M 55.43299636363636 272.8803806712451 L 59.55010000612182 271.72846270315836 L 63.66720364860729 270.57689953475403 L 67.78430729109274 269.4257069806522 L 71.9014109335782 268.27490169826353 L 76.01851457606367 267.1245012350679 L 80.13561821854913 265.97452407806776 L 84.25272186103459 264.82498970538774 L 88.36982550352005 263.6759186399564 L 92.48692914600554 262.5273325051659 L 96.60403278849097 261.3792540823567 L 100.72113643097646 260.23170736991653 L 104.83824007346189 259.08471764371194 L 108.95534371594735 257.9383115184904 L 113.07244735843281 256.7925170097968 L 117.18955100091827 255.6473635958345 L 121.30665464340373 254.5028822785794 L 125.42375828588922 253.3591056433075 L 129.54086192837468 252.21606791553563 L 133.65796557086014 251.07380501419362 L 137.7750692133456 249.93235459964632 L 141.89217285583106 248.7917561149659 L 146.00927649831652 247.65205081862155 L 150.12638014080198 246.51328180651092 L 154.24348378328742 245.37549402100456 L 158.3605874257729 244.23873424442695 L 162.47769106825834 243.10305107416087 L 166.59479471074383 241.96849487634955 L 170.71189835322926 240.8351177150015 L 174.82900199571475 239.7029732531969 L 178.94610563820018 238.57211662306906 L 183.0632092806857 237.44260426132556 L 187.18031292317113 236.31449370729848 L 191.29741656565662 235.18784336090766 L 195.41452020814205 234.06271219850595 L 199.53162385062754 232.9391594453773 L 203.64872749311303 231.81724420468623 L 207.76583113559843 230.6970250439402 L 211.8829347780839 229.57855954150364 L 216.00003842056935 228.4619037973717 L 220.1171420630548 227.34711191420962 L 224.23424570554027 226.23423545652423 L 228.35134934802574 225.1233228976487 L 232.46845299051122 224.01441906588553 L 236.58555663299666 222.90756460252524 L 240.70266027548215 221.80279544542273 L 244.81976391796758 220.70014235224326 L 248.93686756045304 219.59963047729516 L 253.0539712029385 218.50127901498803 L 257.17107484542396 217.40510092139067 L 261.2881784879095 216.31110272314731 L 265.4052821303949 215.2192844202578 L 269.5223857728804 214.12963948607813 L 273.6394894153658 213.0421549645395 L 277.75659305785126 211.9568116612321 L 281.8736967003367 210.87358442184785 L 285.99080034282224 209.79244248872138 L 290.10790398530764 208.71334992399775 L 294.2250076277931 207.63626608638643 L 298.34211127027856 206.5611461475851 L 302.459214912764 205.48794163426032 L 306.5763185552495 204.41660098190545 L 310.693422197735 203.3470700878552 L 314.81052584022046 202.27929285211445 L 318.9276294827059 201.21321169631872 L 323.0447331251913 200.14876805296058 L 327.16183676767685 199.08590281887547 L 331.27894041016225 198.02455676877952 L 335.39604405264777 196.9646709263198 L 339.5131476951332 195.90618689157648 L 343.63025133761863 194.84904712521757 L 347.74735498010415 193.7931951905353 L 351.86445862258967 192.73857595539658 L 355.981562265075 191.68513575672114 L 360.09866590756053 190.6328225305004 L 364.215769550046 189.58158591059117 L 368.3328731925315 188.53137729961077 L 372.44997683501686 187.48214991523457 L 376.5670804775023 186.43385881509215 L 380.68418411998783 185.3864609032858 L 384.80128776247335 184.33991492134626 L 388.9183914049588 183.2941814262015 L 393.0354950474442 182.2492227574866 L 397.15259868992973 181.20500299627162 L 401.26970233241514 180.16148791703995 L 405.38680597490054 179.1186449345155 L 409.503909617386 178.07644304672232 L 413.6210132598716 177.03485277545695 L 417.738116902357 175.99384610517484 L 421.8552205448425 174.95339642112813 L 425.97232418732784 173.9134784474506 L 430.08942782981336 172.8740681857543 L 434.2065314722988 171.83514285469886 L 438.32363511478434 170.79668083089203 L 442.44073875726974 169.75866159140543 L 446.5578423997552 168.72106565811424 L 450.67494604224066 167.68387454401613 L 454.7920496847262 166.64707070163115 L 458.9091533272116 165.6106374735486 L 463.02625696969704 164.57455904514862 L 463.02625696969704 156.48039314662154 L 458.9091533272116 157.63231111470833 L 454.7920496847262 158.78387428311262 L 450.67494604224066 159.93506683721446 L 446.5578423997552 161.0858721196031 L 442.44073875726974 162.23627258279868 L 438.32363511478434 163.38624973979887 L 434.2065314722988 164.53578411247886 L 430.08942782981336 165.6848551779102 L 425.97232418732784 166.83344131270076 L 421.8552205448425 167.98151973551 L 417.738116902357 169.1290664479501 L 413.6210132598716 170.2760561741547 L 409.503909617386 171.4224622993762 L 405.38680597490054 172.56825680806986 L 401.26970233241514 173.7134102220322 L 397.15259868992973 174.8578915392872 L 393.0354950474442 176.00166817455914 L 388.9183914049588 177.144705902331 L 384.80128776247335 178.286968803673 L 380.68418411998783 179.42841921822028 L 376.5670804775023 180.56901770290077 L 372.44997683501686 181.7087229992451 L 368.3328731925315 182.84749201135574 L 364.215769550046 183.9852797968621 L 360.09866590756053 185.1220395734397 L 355.981562265075 186.25772274370573 L 351.86445862258967 187.39227894151708 L 347.74735498010415 188.52565610286516 L 343.63025133761863 189.65780056466977 L 339.5131476951332 190.7886571947976 L 335.39604405264777 191.91816955654105 L 331.27894041016225 193.04628011056812 L 327.16183676767685 194.17293045695897 L 323.0447331251913 195.29806161936068 L 318.9276294827059 196.42161437248933 L 314.81052584022046 197.54352961318037 L 310.693422197735 198.66374877392644 L 306.5763185552495 199.782214276363 L 302.459214912764 200.898870020495 L 298.34211127027856 202.01366190365698 L 294.2250076277931 203.12653836134237 L 290.10790398530764 204.23745092021795 L 285.99080034282224 205.34635475198107 L 281.8736967003367 206.45320921534136 L 277.75659305785126 207.55797837244396 L 273.6394894153658 208.66063146562334 L 269.5223857728804 209.7611433405715 L 265.4052821303949 210.8594948028786 L 261.2881784879095 211.95567289647593 L 257.17107484542396 213.04967109471934 L 253.0539712029385 214.1414893976088 L 248.93686756045304 215.2311343317885 L 244.81976391796758 216.31861885332717 L 240.70266027548215 217.40396215663455 L 236.58555663299666 218.48718939601878 L 232.46845299051122 219.56833132914522 L 228.35134934802574 220.6474238938689 L 224.23424570554027 221.72450773148017 L 220.1171420630548 222.79962767028155 L 216.00003842056935 223.87283218360636 L 211.8829347780839 224.94417283596118 L 207.76583113559843 226.01370373001146 L 203.64872749311303 227.08148096575215 L 199.53162385062754 228.14756212154794 L 195.41452020814205 229.21200576490605 L 191.29741656565662 230.27487099899116 L 187.18031292317113 231.3362170490871 L 183.0632092806857 232.3961028915468 L 178.94610563820018 233.45458692629018 L 174.82900199571475 234.51172669264912 L 170.71189835322926 235.5675786273313 L 166.59479471074383 236.62219786247005 L 162.47769106825834 237.6756380611455 L 158.3605874257729 238.7279512873662 L 154.24348378328742 239.77918790727546 L 150.12638014080198 240.82939651825586 L 146.00927649831652 241.87862390263209 L 141.89217285583106 242.92691500277448 L 137.7750692133456 243.97431291458082 L 133.65796557086014 245.0208588965204 L 129.54086192837468 246.06659239166515 L 125.42375828588922 247.11155106038007 L 121.30665464340373 248.15577082159498 L 117.18955100091827 249.19928590082668 L 113.07244735843281 250.24212888335114 L 108.95534371594735 251.2843307711443 L 104.83824007346189 252.32592104240968 L 100.72113643097646 253.36692771269182 L 96.60403278849097 254.40737739673847 L 92.48692914600554 255.44729537041604 L 88.36982550352005 256.4867056321123 L 84.25272186103459 257.52563096316777 L 80.13561821854913 258.56409298697463 L 76.01851457606367 259.6021122264612 L 71.9014109335782 260.63970815975233 L 67.78430729109274 261.67689927385055 L 63.66720364860729 262.7137031162355 L 59.55010000612182 263.750136344318 L 55.43299636363636 264.78621477271804 Z" fill="#ff0000" fill-opacity="0.2" stroke="none"/><line x1="55.43299636363636" y1="268.8332977219816" x2="59.55010000612182" y2="267.73929952373817" stroke="#ff0000" stroke-width="1.4211023622047245"/><line x1="59.55010000612182" y1="267.73929952373817" x2="63.66720364860729" y2="266.64530132549476" stroke="#ff0000" stroke-width="1.4211023622047245"/><line x1="63.66720364860729" y1="266.64530132549476" x2="67.78430729109274" y2="265.55130312725134" stroke="#ff0000" stroke-width="1.4211023622047245"/><line x1="67.78430729109274" y1="265.55130312725134" x2="71.9014109335782" y2="264.457304929008" stroke="#ff0000" stroke-width="1.4211023622047245"/><line x1="71.9014109335782" y1="264.457304929008" x2="76.01851457606367" y2="263.3633067307646" stroke="#ff0000" stroke-width="1.4211023622047245"/><line x1="76.01851457606367" y1="263.3633067307646" x2="80.13561821854913" y2="262.26930853252117" stroke="#ff0000" stroke-width="1.4211023622047245"/><line x1="80.13561821854913" y1="262.26930853252117" x2="84.25272186103459" y2="261.17531033427775" stroke="#ff0000" stroke-width="1.4211023622047245"/><line x1="84.25272186103459" y1="261.17531033427775" x2="88.36982550352005" y2="260.0813121360344" stroke="#ff0000" stroke-width="1.4211023622047245"/><line x1="88.36982550352005" y1="260.0813121360344" x2="92.48692914600554" y2="258.987313937791" stroke="#ff0000" stroke-width="1.4211023622047245"/><line x1="92.48692914600554" y1="258.987313937791" x2="96.60403278849097" y2="257.8933157395476" stroke="#ff0000" stroke-width="1.4211023622047245"/><line x1="96.60403278849097" y1="257.8933157395476" x2="100.72113643097646" y2="256.79931754130416" stroke="#ff0000" stroke-width="1.4211023622047245"/><line x1="100.72113643097646" y1="256.79931754130416" x2="104.83824007346189" y2="255.70531934306078" stroke="#ff0000" stroke-width="1.4211023622047245"/><line x1="104.83824007346189" y1="255.70531934306078" x2="108.95534371594735" y2="254.61132114481737" stroke="#ff0000" stroke-width="1.4211023622047245"/><line x1="108.95534371594735" y1="254.61132114481737" x2="113.07244735843281" y2="253.51732294657396" stroke="#ff0000" stroke-width="1.4211023622047245"/><line x1="113.07244735843281" y1="253.51732294657396" x2="117.18955100091827" y2="252.42332474833057" stroke="#ff0000" stroke-width="1.4211023622047245"/><line x1="117.18955100091827" y1="252.42332474833057" x2="121.30665464340373" y2="251.32932655008722" stroke="#ff0000" stroke-width="1.4211023622047245"/><line x1="121.30665464340373" y1="251.32932655008722" x2="125.42375828588922" y2="250.23532835184375" stroke="#ff0000" stroke-width="1.4211023622047245"/><line x1="125.42375828588922" y1="250.23532835184375" x2="129.54086192837468" y2="249.1413301536004" stroke="#ff0000" stroke-width="1.4211023622047245"/><line x1="129.54086192837468" y1="249.1413301536004" x2="133.65796557086014" y2="248.047331955357" stroke="#ff0000" stroke-width="1.4211023622047245"/><line x1="133.65796557086014" y1="248.047331955357" x2="137.7750692133456" y2="246.95333375711357" stroke="#ff0000" stroke-width="1.4211023622047245"/><line x1="137.7750692133456" y1="246.95333375711357" x2="141.89217285583106" y2="245.85933555887019" stroke="#ff0000" stroke-width="1.4211023622047245"/><line x1="141.89217285583106" y1="245.85933555887019" x2="146.00927649831652" y2="244.76533736062677" stroke="#ff0000" stroke-width="1.4211023622047245"/><line x1="146.00927649831652" y1="244.76533736062677" x2="150.12638014080198" y2="243.6713391623834" stroke="#ff0000" stroke-width="1.4211023622047245"/><line x1="150.12638014080198" y1="243.6713391623834" x2="154.24348378328742" y2="242.57734096413998" stroke="#ff0000" stroke-width="1.4211023622047245"/><line x1="154.24348378328742" y1="242.57734096413998" x2="158.3605874257729" y2="241.48334276589662" stroke="#ff0000" stroke-width="1.4211023622047245"/><line x1="158.3605874257729" y1="241.48334276589662" x2="162.47769106825834" y2="240.3893445676532" stroke="#ff0000" stroke-width="1.4211023622047245"/><line x1="162.47769106825834" y1="240.3893445676532" x2="166.59479471074383" y2="239.2953463694098" stroke="#ff0000" stroke-width="1.4211023622047245"/><line x1="166.59479471074383" y1="239.2953463694098" x2="170.71189835322926" y2="238.20134817116642" stroke="#ff0000" stroke-width="1.4211023622047245"/><line x1="170.71189835322926" y1="238.20134817116642" x2="174.82900199571475" y2="237.10734997292298" stroke="#ff0000" stroke-width="1.4211023622047245"/><line x1="174.82900199571475" y1="237.10734997292298" x2="178.94610563820018" y2="236.0133517746796" stroke="#ff0000" stroke-width="1.4211023622047245"/><line x1="178.94610563820018" y1="236.0133517746796" x2="183.0632092806857" y2="234.9193535764362" stroke="#ff0000" stroke-width="1.4211023622047245"/><line x1="183.0632092806857" y1="234.9193535764362" x2="187.18031292317113" y2="233.82535537819277" stroke="#ff0000" stroke-width="1.4211023622047245"/><line x1="187.18031292317113" y1="233.82535537819277" x2="191.29741656565662" y2="232.73135717994938" stroke="#ff0000" stroke-width="1.4211023622047245"/><line x1="191.29741656565662" y1="232.73135717994938" x2="195.41452020814205" y2="231.63735898170603" stroke="#ff0000" stroke-width="1.4211023622047245"/><line x1="195.41452020814205" y1="231.63735898170603" x2="199.53162385062754" y2="230.54336078346256" stroke="#ff0000" stroke-width="1.4211023622047245"/><line x1="199.53162385062754" y1="230.54336078346256" x2="203.64872749311303" y2="229.4493625852192" stroke="#ff0000" stroke-width="1.4211023622047245"/><line x1="203.64872749311303" y1="229.4493625852192" x2="207.76583113559843" y2="228.35536438697582" stroke="#ff0000" stroke-width="1.4211023622047245"/><line x1="207.76583113559843" y1="228.35536438697582" x2="211.8829347780839" y2="227.26136618873238" stroke="#ff0000" stroke-width="1.4211023622047245"/><line x1="211.8829347780839" y1="227.26136618873238" x2="216.00003842056935" y2="226.167367990489" stroke="#ff0000" stroke-width="1.4211023622047245"/><line x1="216.00003842056935" y1="226.167367990489" x2="220.1171420630548" y2="225.07336979224561" stroke="#ff0000" stroke-width="1.4211023622047245"/><line x1="220.1171420630548" y1="225.07336979224561" x2="224.23424570554027" y2="223.97937159400226" stroke="#ff0000" stroke-width="1.4211023622047245"/><line x1="224.23424570554027" y1="223.97937159400226" x2="228.35134934802574" y2="222.8853733957588" stroke="#ff0000" stroke-width="1.4211023622047245"/><line x1="228.35134934802574" y1="222.8853733957588" x2="232.46845299051122" y2="221.79137519751544" stroke="#ff0000" stroke-width="1.4211023622047245"/><line x1="232.46845299051122" y1="221.79137519751544" x2="236.58555663299666" y2="220.69737699927202" stroke="#ff0000" stroke-width="1.4211023622047245"/><line x1="236.58555663299666" y1="220.69737699927202" x2="240.70266027548215" y2="219.6033788010286" stroke="#ff0000" stroke-width="1.4211023622047245"/><line x1="240.70266027548215" y1="219.6033788010286" x2="244.81976391796758" y2="218.50938060278523" stroke="#ff0000" stroke-width="1.4211023622047245"/><line x1="244.81976391796758" y1="218.50938060278523" x2="248.93686756045304" y2="217.41538240454184" stroke="#ff0000" stroke-width="1.4211023622047245"/><line x1="248.93686756045304" y1="217.41538240454184" x2="253.0539712029385" y2="216.3213842062984" stroke="#ff0000" stroke-width="1.4211023622047245"/><line x1="253.0539712029385" y1="216.3213842062984" x2="257.17107484542396" y2="215.22738600805502" stroke="#ff0000" stroke-width="1.4211023622047245"/><line x1="257.17107484542396" y1="215.22738600805502" x2="261.2881784879095" y2="214.1333878098116" stroke="#ff0000" stroke-width="1.4211023622047245"/><line x1="261.2881784879095" y1="214.1333878098116" x2="265.4052821303949" y2="213.0393896115682" stroke="#ff0000" stroke-width="1.4211023622047245"/><line x1="265.4052821303949" y1="213.0393896115682" x2="269.5223857728804" y2="211.94539141332478" stroke="#ff0000" stroke-width="1.4211023622047245"/><line x1="269.5223857728804" y1="211.94539141332478" x2="273.6394894153658" y2="210.85139321508143" stroke="#ff0000" stroke-width="1.4211023622047245"/><line x1="273.6394894153658" y1="210.85139321508143" x2="277.75659305785126" y2="209.75739501683802" stroke="#ff0000" stroke-width="1.4211023622047245"/><line x1="277.75659305785126" y1="209.75739501683802" x2="281.8736967003367" y2="208.66339681859463" stroke="#ff0000" stroke-width="1.4211023622047245"/><line x1="281.8736967003367" y1="208.66339681859463" x2="285.99080034282224" y2="207.56939862035122" stroke="#ff0000" stroke-width="1.4211023622047245"/><line x1="285.99080034282224" y1="207.56939862035122" x2="290.10790398530764" y2="206.4754004221078" stroke="#ff0000" stroke-width="1.4211023622047245"/><line x1="290.10790398530764" y1="206.4754004221078" x2="294.2250076277931" y2="205.38140222386443" stroke="#ff0000" stroke-width="1.4211023622047245"/><line x1="294.2250076277931" y1="205.38140222386443" x2="298.34211127027856" y2="204.28740402562102" stroke="#ff0000" stroke-width="1.4211023622047245"/><line x1="298.34211127027856" y1="204.28740402562102" x2="302.459214912764" y2="203.1934058273776" stroke="#ff0000" stroke-width="1.4211023622047245"/><line x1="302.459214912764" y1="203.1934058273776" x2="306.5763185552495" y2="202.09940762913425" stroke="#ff0000" stroke-width="1.4211023622047245"/><line x1="306.5763185552495" y1="202.09940762913425" x2="310.693422197735" y2="201.00540943089084" stroke="#ff0000" stroke-width="1.4211023622047245"/><line x1="310.693422197735" y1="201.00540943089084" x2="314.81052584022046" y2="199.91141123264742" stroke="#ff0000" stroke-width="1.4211023622047245"/><line x1="314.81052584022046" y1="199.91141123264742" x2="318.9276294827059" y2="198.81741303440404" stroke="#ff0000" stroke-width="1.4211023622047245"/><line x1="318.9276294827059" y1="198.81741303440404" x2="323.0447331251913" y2="197.72341483616063" stroke="#ff0000" stroke-width="1.4211023622047245"/><line x1="323.0447331251913" y1="197.72341483616063" x2="327.16183676767685" y2="196.62941663791722" stroke="#ff0000" stroke-width="1.4211023622047245"/><line x1="327.16183676767685" y1="196.62941663791722" x2="331.27894041016225" y2="195.53541843967383" stroke="#ff0000" stroke-width="1.4211023622047245"/><line x1="331.27894041016225" y1="195.53541843967383" x2="335.39604405264777" y2="194.44142024143042" stroke="#ff0000" stroke-width="1.4211023622047245"/><line x1="335.39604405264777" y1="194.44142024143042" x2="339.5131476951332" y2="193.34742204318707" stroke="#ff0000" stroke-width="1.4211023622047245"/><line x1="339.5131476951332" y1="193.34742204318707" x2="343.63025133761863" y2="192.25342384494365" stroke="#ff0000" stroke-width="1.4211023622047245"/><line x1="343.63025133761863" y1="192.25342384494365" x2="347.74735498010415" y2="191.15942564670024" stroke="#ff0000" stroke-width="1.4211023622047245"/><line x1="347.74735498010415" y1="191.15942564670024" x2="351.86445862258967" y2="190.06542744845683" stroke="#ff0000" stroke-width="1.4211023622047245"/><line x1="351.86445862258967" y1="190.06542744845683" x2="355.981562265075" y2="188.97142925021345" stroke="#ff0000" stroke-width="1.4211023622047245"/><line x1="355.981562265075" y1="188.97142925021345" x2="360.09866590756053" y2="187.87743105197004" stroke="#ff0000" stroke-width="1.4211023622047245"/><line x1="360.09866590756053" y1="187.87743105197004" x2="364.215769550046" y2="186.78343285372662" stroke="#ff0000" stroke-width="1.4211023622047245"/><line x1="364.215769550046" y1="186.78343285372662" x2="368.3328731925315" y2="185.68943465548324" stroke="#ff0000" stroke-width="1.4211023622047245"/><line x1="368.3328731925315" y1="185.68943465548324" x2="372.44997683501686" y2="184.59543645723988" stroke="#ff0000" stroke-width="1.4211023622047245"/><line x1="372.44997683501686" y1="184.59543645723988" x2="376.5670804775023" y2="183.50143825899647" stroke="#ff0000" stroke-width="1.4211023622047245"/><line x1="376.5670804775023" y1="183.50143825899647" x2="380.68418411998783" y2="182.40744006075306" stroke="#ff0000" stroke-width="1.4211023622047245"/><line x1="380.68418411998783" y1="182.40744006075306" x2="384.80128776247335" y2="181.31344186250965" stroke="#ff0000" stroke-width="1.4211023622047245"/><line x1="384.80128776247335" y1="181.31344186250965" x2="388.9183914049588" y2="180.21944366426627" stroke="#ff0000" stroke-width="1.4211023622047245"/><line x1="388.9183914049588" y1="180.21944366426627" x2="393.0354950474442" y2="179.12544546602288" stroke="#ff0000" stroke-width="1.4211023622047245"/><line x1="393.0354950474442" y1="179.12544546602288" x2="397.15259868992973" y2="178.03144726777944" stroke="#ff0000" stroke-width="1.4211023622047245"/><line x1="397.15259868992973" y1="178.03144726777944" x2="401.26970233241514" y2="176.93744906953606" stroke="#ff0000" stroke-width="1.4211023622047245"/><line x1="401.26970233241514" y1="176.93744906953606" x2="405.38680597490054" y2="175.8434508712927" stroke="#ff0000" stroke-width="1.4211023622047245"/><line x1="405.38680597490054" y1="175.8434508712927" x2="409.503909617386" y2="174.74945267304923" stroke="#ff0000" stroke-width="1.4211023622047245"/><line x1="409.503909617386" y1="174.74945267304923" x2="413.6210132598716" y2="173.65545447480582" stroke="#ff0000" stroke-width="1.4211023622047245"/><line x1="413.6210132598716" y1="173.65545447480582" x2="417.738116902357" y2="172.56145627656247" stroke="#ff0000" stroke-width="1.4211023622047245"/><line x1="417.738116902357" y1="172.56145627656247" x2="421.8552205448425" y2="171.46745807831905" stroke="#ff0000" stroke-width="1.4211023622047245"/><line x1="421.8552205448425" y1="171.46745807831905" x2="425.97232418732784" y2="170.37345988007567" stroke="#ff0000" stroke-width="1.4211023622047245"/><line x1="425.97232418732784" y1="170.37345988007567" x2="430.08942782981336" y2="169.27946168183226" stroke="#ff0000" stroke-width="1.4211023622047245"/><line x1="430.08942782981336" y1="169.27946168183226" x2="434.2065314722988" y2="168.18546348358888" stroke="#ff0000" stroke-width="1.4211023622047245"/><line x1="434.2065314722988" y1="168.18546348358888" x2="438.32363511478434" y2="167.09146528534544" stroke="#ff0000" stroke-width="1.4211023622047245"/><line x1="438.32363511478434" y1="167.09146528534544" x2="442.44073875726974" y2="165.9974670871021" stroke="#ff0000" stroke-width="1.4211023622047245"/><line x1="442.44073875726974" y1="165.9974670871021" x2="446.5578423997552" y2="164.9034688888587" stroke="#ff0000" stroke-width="1.4211023622047245"/><line x1="446.5578423997552" y1="164.9034688888587" x2="450.67494604224066" y2="163.80947069061529" stroke="#ff0000" stroke-width="1.4211023622047245"/><line x1="450.67494604224066" y1="163.80947069061529" x2="454.7920496847262" y2="162.7154724923719" stroke="#ff0000" stroke-width="1.4211023622047245"/><line x1="454.7920496847262" y1="162.7154724923719" x2="458.9091533272116" y2="161.6214742941285" stroke="#ff0000" stroke-width="1.4211023622047245"/><line x1="458.9091533272116" y1="161.6214742941285" x2="463.02625696969704" y2="160.52747609588508" stroke="#ff0000" stroke-width="1.4211023622047245"/><rect x="498.0725866666667" y="159.71925333333334" width="23.114079999999994" height="46.22815999999999" fill="#ffffff" fill-opacity="1.0" stroke="none"/><rect x="499.0174685564305" y="160.6641352230971" width="21.224316220472435" height="21.224316220472435" fill="#ffa500" fill-opacity="0.0" stroke="#ffa500" stroke-width="1.3333333333333333"/><text x="524.8533333333334" y="175.03096" fill="#333333" font-size="11.733333333333334" font-family="sans-serif" text-anchor="start">OLS</text><rect x="499.0174685564305" y="183.7782152230971" width="21.224316220472435" height="21.224316220472435" fill="#ff0000" fill-opacity="0.0" stroke="#ff0000" stroke-width="1.3333333333333333"/><text x="524.8533333333334" y="198.14504" fill="#333333" font-size="11.733333333333334" font-family="sans-serif" text-anchor="start">Robust (Huber)</text></svg>